<svg width="24" height="24" viewBox="0 0 24 24" fill="none" xmlns="http://www.w3.org/2000/svg">
<g clip-path="url(#clip0_19819_4)">
<mask id="mask0_19819_4" style="mask-type:luminance" maskUnits="userSpaceOnUse" x="0" y="0" width="24" height="24">
<path d="M24 0H0V24H24V0Z" fill="white"/>
</mask>
<g mask="url(#mask0_19819_4)">
<path d="M4 7C3.73479 7.00003 3.48045 7.10539 3.29292 7.29292C3.10539 7.48045 3.00003 7.73479 3 8V12C3.00003 12.2652 3.10539 12.5195 3.29292 12.7071C3.48045 12.8946 3.73479 13 4 13H8C8.26521 13 8.51955 12.8946 8.70708 12.7071C8.89461 12.5195 8.99997 12.2652 9 12V8C8.99997 7.73479 8.89461 7.48045 8.70708 7.29292C8.51955 7.10539 8.26521 7.00003 8 7H4ZM5 9H7V11H5V9Z" fill="black"/>
<path d="M6 3C5.73478 3 5.48043 3.10536 5.29289 3.29289C5.10536 3.48043 5 3.73478 5 4V8C5 8.26522 5.10536 8.51957 5.29289 8.70711C5.48043 8.89464 5.73478 9 6 9C6.26522 9 6.51957 8.89464 6.70711 8.70711C6.89464 8.51957 7 8.26522 7 8V4C7 3.73478 6.89464 3.48043 6.70711 3.29289C6.51957 3.10536 6.26522 3 6 3Z" fill="black"/>
<path d="M6 11C5.73478 11 5.48043 11.1054 5.29289 11.2929C5.10536 11.4804 5 11.7348 5 12V20C5 20.2652 5.10536 20.5196 5.29289 20.7071C5.48043 20.8946 5.73478 21 6 21C6.26522 21 6.51957 20.8946 6.70711 20.7071C6.89464 20.5196 7 20.2652 7 20V12C7 11.7348 6.89464 11.4804 6.70711 11.2929C6.51957 11.1054 6.26522 11 6 11Z" fill="black"/>
<path d="M10 13C9.73479 13 9.48045 13.1054 9.29292 13.2929C9.10539 13.4805 9.00003 13.7348 9 14V18C9.00003 18.2652 9.10539 18.5195 9.29292 18.7071C9.48045 18.8946 9.73479 19 10 19H14C14.2652 19 14.5195 18.8946 14.7071 18.7071C14.8946 18.5195 15 18.2652 15 18V14C15 13.7348 14.8946 13.4805 14.7071 13.2929C14.5195 13.1054 14.2652 13 14 13H10ZM11 15H13V17H11V15Z" fill="black"/>
<path d="M12 3C11.7348 3 11.4804 3.10536 11.2929 3.29289C11.1054 3.48043 11 3.73478 11 4V14C11 14.2652 11.1054 14.5196 11.2929 14.7071C11.4804 14.8946 11.7348 15 12 15C12.2652 15 12.5196 14.8946 12.7071 14.7071C12.8946 14.5196 13 14.2652 13 14V4C13 3.73478 12.8946 3.48043 12.7071 3.29289C12.5196 3.10536 12.2652 3 12 3Z" fill="black"/>
<path d="M12 17C11.7348 17 11.4804 17.1054 11.2929 17.2929C11.1054 17.4804 11 17.7348 11 18V20C11 20.2652 11.1054 20.5196 11.2929 20.7071C11.4804 20.8946 11.7348 21 12 21C12.2652 21 12.5196 20.8946 12.7071 20.7071C12.8946 20.5196 13 20.2652 13 20V18C13 17.7348 12.8946 17.4804 12.7071 17.2929C12.5196 17.1054 12.2652 17 12 17Z" fill="black"/>
<path d="M16 4C15.7348 4.00003 15.4805 4.10539 15.2929 4.29292C15.1054 4.48045 15 4.73479 15 5V9C15 9.26521 15.1054 9.51955 15.2929 9.70708C15.4805 9.89461 15.7348 9.99997 16 10H20C20.2652 9.99997 20.5195 9.89461 20.7071 9.70708C20.8946 9.51955 21 9.26521 21 9V5C21 4.73479 20.8946 4.48045 20.7071 4.29292C20.5195 4.10539 20.2652 4.00003 20 4H16ZM17 6H19V8H17V6Z" fill="black"/>
<path d="M18 3C17.7348 3 17.4804 3.10536 17.2929 3.29289C17.1054 3.48043 17 3.73478 17 4V5C17 5.26522 17.1054 5.51957 17.2929 5.70711C17.4804 5.89464 17.7348 6 18 6C18.2652 6 18.5196 5.89464 18.7071 5.70711C18.8946 5.51957 19 5.26522 19 5V4C19 3.73478 18.8946 3.48043 18.7071 3.29289C18.5196 3.10536 18.2652 3 18 3Z" fill="black"/>
<path d="M18 8C17.7348 8 17.4804 8.10536 17.2929 8.29289C17.1054 8.48043 17 8.73478 17 9V20C17 20.2652 17.1054 20.5196 17.2929 20.7071C17.4804 20.8946 17.7348 21 18 21C18.2652 21 18.5196 20.8946 18.7071 20.7071C18.8946 20.5196 19 20.2652 19 20V9C19 8.73478 18.8946 8.48043 18.7071 8.29289C18.5196 8.10536 18.2652 8 18 8Z" fill="black"/>
</g>
</g>
<defs>
<clipPath id="clip0_19819_4">
<rect width="24" height="24" fill="white"/>
</clipPath>
</defs>
</svg>
