<svg width="24" height="24" viewBox="0 0 24 24" fill="none" xmlns="http://www.w3.org/2000/svg">
<g clip-path="url(#clip0_19819_53)">
<mask id="mask0_19819_53" style="mask-type:luminance" maskUnits="userSpaceOnUse" x="0" y="0" width="24" height="24">
<path d="M24 0H0V24H24V0Z" fill="white"/>
</mask>
<g mask="url(#mask0_19819_53)">
<path d="M12 8C11.7348 8 11.4804 8.10536 11.2929 8.29289C11.1054 8.48043 11 8.73478 11 9V13C11 13.2652 11.1054 13.5196 11.2929 13.7071C11.4804 13.8946 11.7348 14 12 14C12.2652 14 12.5196 13.8946 12.7071 13.7071C12.8946 13.5196 13 13.2652 13 13V9C13 8.73478 12.8946 8.48043 12.7071 8.29289C12.5196 8.10536 12.2652 8 12 8Z" fill="black"/>
<path d="M12 1.66797C11.499 1.66797 11.0069 1.79708 10.5703 2.04297C10.1339 2.28887 9.76748 2.64357 9.50782 3.07227C9.50717 3.07422 9.50652 3.07617 9.50587 3.07813L1.39845 16.6113C1.39581 16.6159 1.39321 16.6204 1.39064 16.625C1.13625 17.0655 1.00146 17.5655 1.00001 18.0742C0.998551 18.583 1.13094 19.0834 1.38282 19.5254C1.63471 19.9675 1.9974 20.3357 2.43556 20.5938C2.87389 20.8518 3.37398 20.9905 3.88282 20.9961C3.88608 20.9961 3.88934 20.9961 3.89259 20.9961H20.1074C20.1113 20.9961 20.1152 20.9961 20.1192 20.9961C20.6277 20.9903 21.1262 20.8518 21.5645 20.5938C22.0024 20.3358 22.3653 19.9673 22.6172 19.5254C22.869 19.0837 22.9993 18.5826 22.9981 18.0742C22.9969 17.5655 22.8632 17.0673 22.6094 16.627C22.6068 16.6217 22.6042 16.6165 22.6016 16.6113L14.4942 3.07617C14.4935 3.07487 14.4928 3.07356 14.4922 3.07226C14.2326 2.64391 13.8663 2.28892 13.4297 2.04297C12.9931 1.79699 12.501 1.66797 12 1.66797ZM12 3.66797C12.1572 3.66797 12.3124 3.70806 12.4492 3.78516C12.5862 3.8623 12.6997 3.97278 12.7813 4.10742L20.8789 17.6289C20.9573 17.7664 20.9977 17.9222 20.9981 18.0801C20.9984 18.2397 20.958 18.3965 20.8789 18.5352C20.8 18.6737 20.6865 18.7881 20.5488 18.8691C20.4115 18.9501 20.2551 18.9943 20.0957 18.9961H3.90431C3.74485 18.9943 3.5888 18.9501 3.45118 18.8691C3.31338 18.788 3.20012 18.6738 3.12111 18.5352C3.04211 18.3965 2.99955 18.2397 3.00001 18.0801C3.00046 17.9212 3.04384 17.7648 3.12306 17.627C3.12338 17.6264 3.12274 17.6256 3.12306 17.625L11.2188 4.10742C11.2192 4.10662 11.2203 4.10627 11.2208 4.10547C11.302 3.97224 11.4146 3.86189 11.5508 3.78516C11.6878 3.70796 11.8428 3.66797 12 3.66797Z" fill="black"/>
<path d="M12 15C11.7348 15 11.4804 15.1054 11.2929 15.2929C11.1054 15.4804 11 15.7348 11 16C11 16.2652 11.1054 16.5196 11.2929 16.7071C11.4804 16.8946 11.7348 17 12 17H12.0098C12.275 17 12.5294 16.8946 12.7169 16.7071C12.9044 16.5196 13.0098 16.2652 13.0098 16C13.0098 15.7348 12.9044 15.4804 12.7169 15.2929C12.5294 15.1054 12.275 15 12.0098 15H12Z" fill="black"/>
</g>
</g>
<defs>
<clipPath id="clip0_19819_53">
<rect width="24" height="24" fill="white"/>
</clipPath>
</defs>
</svg>
