<?xml version="1.0" encoding="UTF-8" standalone="no"?>
<svg
   width="24"
   height="24"
   viewBox="0 0 24 24"
   fill="none"
   version="1.1"
   id="svg3"
   sodipodi:docname="arrow-left.svg"
   inkscape:version="1.3.2 (091e20e, 2023-11-25)"
   xmlns:inkscape="http://www.inkscape.org/namespaces/inkscape"
   xmlns:sodipodi="http://sodipodi.sourceforge.net/DTD/sodipodi-0.dtd"
   xmlns="http://www.w3.org/2000/svg"
   xmlns:svg="http://www.w3.org/2000/svg">
  <defs
     id="defs3" />
  <sodipodi:namedview
     id="namedview3"
     pagecolor="#505050"
     bordercolor="#eeeeee"
     borderopacity="1"
     inkscape:showpageshadow="0"
     inkscape:pageopacity="0"
     inkscape:pagecheckerboard="0"
     inkscape:deskcolor="#505050"
     inkscape:zoom="9.8333333"
     inkscape:cx="11.949153"
     inkscape:cy="12"
     inkscape:window-width="1504"
     inkscape:window-height="449"
     inkscape:window-x="0"
     inkscape:window-y="25"
     inkscape:window-maximized="0"
     inkscape:current-layer="svg3" />
  <path
     style="color:#000000;fill:#000000;stroke-linecap:round;stroke-linejoin:round;-inkscape-stroke:none"
     d="m 5,11 a 1,1 0 0 0 -1,1 1,1 0 0 0 1,1 h 14 a 1,1 0 0 0 1,-1 1,1 0 0 0 -1,-1 z"
     id="path1" />
  <path
     style="color:#000000;fill:#000000;stroke-linecap:round;stroke-linejoin:round;-inkscape-stroke:none"
     d="m 5,11 a 1,1 0 0 0 -0.7070313,0.292969 1,1 0 0 0 0,1.414062 l 6.0000003,6 a 1,1 0 0 0 1.414062,0 1,1 0 0 0 0,-1.414062 l -5.9999998,-6 A 1,1 0 0 0 5,11 Z"
     id="path2" />
  <path
     style="color:#000000;fill:#000000;stroke-linecap:round;stroke-linejoin:round;-inkscape-stroke:none"
     d="M 11,5 A 1,1 0 0 0 10.292969,5.2929687 L 4.2929687,11.292969 a 1,1 0 0 0 0,1.414062 1,1 0 0 0 1.4140625,0 L 11.707031,6.7070312 a 1,1 0 0 0 0,-1.4140625 A 1,1 0 0 0 11,5 Z"
     id="path3" />
</svg>
