<?xml version="1.0" encoding="UTF-8" standalone="no"?>
<svg
   width="24"
   height="24"
   viewBox="0 0 24 24"
   fill="none"
   version="1.1"
   id="svg2"
   sodipodi:docname="arrows-sort.svg"
   inkscape:version="1.3.2 (091e20e, 2023-11-25)"
   xmlns:inkscape="http://www.inkscape.org/namespaces/inkscape"
   xmlns:sodipodi="http://sodipodi.sourceforge.net/DTD/sodipodi-0.dtd"
   xmlns="http://www.w3.org/2000/svg"
   xmlns:svg="http://www.w3.org/2000/svg">
  <defs
     id="defs2" />
  <sodipodi:namedview
     id="namedview2"
     pagecolor="#505050"
     bordercolor="#eeeeee"
     borderopacity="1"
     inkscape:showpageshadow="0"
     inkscape:pageopacity="0"
     inkscape:pagecheckerboard="0"
     inkscape:deskcolor="#505050"
     inkscape:zoom="9.8333333"
     inkscape:cx="11.949153"
     inkscape:cy="12"
     inkscape:window-width="1504"
     inkscape:window-height="449"
     inkscape:window-x="0"
     inkscape:window-y="25"
     inkscape:window-maximized="0"
     inkscape:current-layer="svg2" />
  <path
     style="color:#000000;fill:#000000;stroke-linecap:round;stroke-linejoin:round;-inkscape-stroke:none"
     d="M 7,4 A 1,1 0 0 0 6.2929687,4.2929687 L 2.2929688,8.2929688 a 1,1 0 0 0 0,1.4140625 1,1 0 0 0 1.4140625,0 L 6,7.4140625 V 19 a 1,1 0 0 0 1,1 1,1 0 0 0 1,-1 V 7.4140625 l 2.292969,2.2929688 a 1,1 0 0 0 1.414062,0 1,1 0 0 0 0,-1.4140625 L 7.7070312,4.2929687 A 1,1 0 0 0 7,4 Z"
     id="path1" />
  <path
     style="color:#000000;fill:#000000;stroke-linecap:round;stroke-linejoin:round;-inkscape-stroke:none"
     d="m 17,4 a 1,1 0 0 0 -1,1 v 11.585937 l -2.292969,-2.292968 a 1,1 0 0 0 -1.414062,0 1,1 0 0 0 0,1.414062 l 4,4 A 1,1 0 0 0 17,20 1,1 0 0 0 17.707031,19.707031 l 4,-4 a 1,1 0 0 0 0,-1.414062 1,1 0 0 0 -1.414062,0 L 18,16.585937 V 5 A 1,1 0 0 0 17,4 Z"
     id="path2" />
</svg>
