<svg width="24" height="24" viewBox="0 0 24 24" fill="none" xmlns="http://www.w3.org/2000/svg">
<g clip-path="url(#clip0_19819_84)">
<mask id="mask0_19819_84" style="mask-type:luminance" maskUnits="userSpaceOnUse" x="0" y="0" width="24" height="24">
<path d="M24 0H0V24H24V0Z" fill="white"/>
</mask>
<g mask="url(#mask0_19819_84)">
<path d="M12 2C11.2048 2 10.4412 2.31659 9.8789 2.87891C9.50957 3.24821 9.43797 3.77658 9.30078 4.27148C8.11415 4.89293 7.08088 5.77322 6.33594 6.89062C5.53065 8.09854 5.07002 9.50298 5.00195 10.9531C5.00093 10.9687 5.00028 10.9844 5 11V13.9004C4.94096 14.3584 4.7816 14.7993 4.52539 15.1836C4.26485 15.5744 3.91657 15.8974 3.50781 16.1289C3.31529 16.2375 3.16419 16.4069 3.07812 16.6105C2.99205 16.8141 2.97587 17.0405 3.03211 17.2543C3.08835 17.4681 3.21383 17.6572 3.38894 17.7921C3.56406 17.9271 3.77894 18.0002 4 18H11.5C11.7652 18 12.0196 17.8946 12.2071 17.7071C12.3946 17.5196 12.5 17.2652 12.5 17C12.5 16.7348 12.3946 16.4804 12.2071 16.2929C12.0196 16.1054 11.7652 16 11.5 16H6.29687C6.63518 15.4157 6.91079 14.7934 6.99219 14.1211C6.99724 14.0809 6.99985 14.0405 7 14V11.041C7.05209 9.95553 7.39714 8.90428 8 8C8.60402 7.09398 9.44333 6.36978 10.4277 5.9043C10.599 5.82325 10.7437 5.69522 10.845 5.53513C10.9463 5.37504 11.0001 5.18946 11 5C11 4.73439 11.1052 4.48076 11.293 4.29297C11.4808 4.10513 11.7344 4 12 4C12.2656 4 12.5192 4.10513 12.707 4.29297C12.8948 4.48076 13 4.73439 13 5C12.9999 5.18946 13.0537 5.37504 13.155 5.53513C13.2563 5.69522 13.401 5.82325 13.5723 5.9043C14.5567 6.36978 15.3959 7.09395 16 8C16.6028 8.90427 16.9479 9.95549 17 11.041V14C17.0001 14.0411 17.0027 14.0822 17.0078 14.123C17.0271 14.2786 17.052 14.4381 17.0879 14.5996C17.1457 14.8583 17.3039 15.0834 17.5277 15.2255C17.7515 15.3676 18.0225 15.4151 18.2812 15.3574C18.5399 15.3 18.7651 15.1423 18.9076 14.9189C19.05 14.6955 19.098 14.4247 19.041 14.166C19.0242 14.0902 19.0116 14.0078 19 13.9238V11C18.9997 10.9844 18.999 10.9687 18.998 10.9531C18.9299 9.50302 18.4693 8.09854 17.6641 6.89062C16.9191 5.77324 15.8858 4.89293 14.6992 4.27148C14.562 3.77658 14.4904 3.24821 14.1211 2.87891C13.5587 2.31659 12.7952 2 12 2Z" fill="black"/>
<path d="M9 16C8.73478 16 8.48043 16.1054 8.29289 16.2929C8.10536 16.4804 8 16.7348 8 17V18C7.9998 18.9457 8.33477 19.8618 8.94531 20.584C9.55592 21.3061 10.4035 21.7883 11.3359 21.9453C11.4655 21.9671 11.598 21.9632 11.726 21.9338C11.8541 21.9044 11.975 21.8501 12.0821 21.7739C12.1891 21.6977 12.28 21.6012 12.3497 21.4899C12.4194 21.3785 12.4665 21.2545 12.4883 21.125C12.5101 20.9955 12.5062 20.8629 12.4768 20.7349C12.4474 20.6069 12.393 20.4859 12.3169 20.3789C12.2407 20.2719 12.1442 20.1809 12.0328 20.1112C11.9215 20.0415 11.7975 19.9944 11.668 19.9727C11.2012 19.8941 10.7781 19.6542 10.4727 19.293C10.1671 18.9315 9.9999 18.4731 10 18V17C10 16.7348 9.89464 16.4804 9.70711 16.2929C9.51957 16.1054 9.26522 16 9 16Z" fill="black"/>
<path d="M20.2929 16.2928L17 19.5858L15.707 18.2928C15.5195 18.1053 15.2651 18 15 18C14.7348 18 14.4805 18.1053 14.2929 18.2928C14.1054 18.4803 14.0001 18.7347 14.0001 18.9998C14.0001 19.265 14.1054 19.5194 14.2929 19.7069L16.2929 21.7069C16.4805 21.8943 16.7348 21.9997 17 21.9997C17.2651 21.9997 17.5195 21.8943 17.707 21.7069L21.707 17.7069C21.8945 17.5194 21.9998 17.265 21.9998 16.9998C21.9998 16.7347 21.8945 16.4803 21.707 16.2928C21.5195 16.1053 21.2651 16 21 16C20.7348 16 20.4805 16.1053 20.2929 16.2928Z" fill="black"/>
</g>
</g>
<defs>
<clipPath id="clip0_19819_84">
<rect width="24" height="24" fill="white"/>
</clipPath>
</defs>
</svg>
