<svg width="24" height="24" viewBox="0 0 24 24" fill="none" xmlns="http://www.w3.org/2000/svg">
<g clip-path="url(#clip0_19819_129)">
<mask id="mask0_19819_129" style="mask-type:luminance" maskUnits="userSpaceOnUse" x="0" y="0" width="24" height="24">
<path d="M24 0H0V24H24V0Z" fill="white"/>
</mask>
<g mask="url(#mask0_19819_129)">
<path d="M12 2C11.2048 2 10.4412 2.31659 9.8789 2.87891C9.50957 3.24821 9.43797 3.77658 9.30078 4.27148C8.11415 4.89293 7.08088 5.77322 6.33594 6.89062C5.53065 8.09854 5.07002 9.50298 5.00195 10.9531C5.00093 10.9687 5.00028 10.9844 5 11V13.9004C4.94096 14.3584 4.7816 14.7993 4.52539 15.1836C4.26485 15.5744 3.91657 15.8974 3.50781 16.1289C3.31529 16.2375 3.16419 16.4069 3.07812 16.6105C2.99205 16.8141 2.97587 17.0405 3.03211 17.2543C3.08835 17.4681 3.21383 17.6572 3.38894 17.7921C3.56406 17.9271 3.77894 18.0002 4 18H12.5C12.7652 18 13.0196 17.8946 13.2071 17.7071C13.3946 17.5196 13.5 17.2652 13.5 17C13.5 16.7348 13.3946 16.4804 13.2071 16.2929C13.0196 16.1054 12.7652 16 12.5 16H6.29687C6.63518 15.4157 6.91079 14.7934 6.99219 14.1211C6.99724 14.0809 6.99985 14.0405 7 14V11.041C7.05209 9.95553 7.39714 8.90428 8 8C8.60402 7.09398 9.44333 6.36978 10.4277 5.9043C10.599 5.82325 10.7437 5.69522 10.845 5.53513C10.9463 5.37504 11.0001 5.18946 11 5C11 4.73439 11.1052 4.48076 11.293 4.29297C11.4808 4.10513 11.7344 4 12 4C12.2656 4 12.5192 4.10513 12.707 4.29297C12.8948 4.48076 13 4.73439 13 5C12.9999 5.18946 13.0537 5.37504 13.155 5.53513C13.2563 5.69522 13.401 5.82325 13.5723 5.9043C14.5567 6.36978 15.3959 7.09395 16 8C16.6028 8.90427 16.9479 9.95549 17 11.041V12C17 12.2652 17.1054 12.5196 17.2929 12.7071C17.4804 12.8946 17.7348 13 18 13C18.2652 13 18.5196 12.8946 18.7071 12.7071C18.8946 12.5196 19 12.2652 19 12V11C18.9997 10.9844 18.999 10.9687 18.998 10.9531C18.9299 9.50302 18.4693 8.09854 17.6641 6.89062C16.9191 5.77324 15.8858 4.89293 14.6992 4.27148C14.562 3.77658 14.4904 3.24821 14.1211 2.87891C13.5587 2.31659 12.7952 2 12 2Z" fill="black"/>
<path d="M9 16C8.73478 16 8.48043 16.1054 8.29289 16.2929C8.10536 16.4804 8 16.7348 8 17V18C7.99987 18.5829 8.12733 19.1589 8.37305 19.6875C8.61883 20.216 8.9762 20.685 9.42188 21.0605C9.8677 21.4361 10.3905 21.7089 10.9531 21.8613C11.5159 22.0139 12.1054 22.0424 12.6797 21.9434C12.8093 21.9211 12.9332 21.8736 13.0444 21.8035C13.1556 21.7333 13.2518 21.6419 13.3276 21.5345C13.4035 21.4271 13.4574 21.3058 13.4863 21.1776C13.5152 21.0493 13.5185 20.9166 13.4961 20.7871C13.4739 20.6575 13.4263 20.5336 13.3562 20.4224C13.286 20.3112 13.1947 20.215 13.0873 20.1391C12.9799 20.0633 12.8586 20.0094 12.7303 19.9805C12.6021 19.9516 12.4694 19.9483 12.3398 19.9707C12.0526 20.0203 11.7578 20.0079 11.4766 19.9316C11.1954 19.8555 10.9339 19.7171 10.7109 19.5293C10.488 19.3414 10.3084 19.108 10.1855 18.8438C10.0626 18.5793 9.99993 18.2915 10 18V17C10 16.7348 9.89464 16.4804 9.70711 16.2929C9.51957 16.1054 9.26522 16 9 16Z" fill="black"/>
<path d="M16 18C15.7348 18 15.4804 18.1054 15.2929 18.2929C15.1054 18.4804 15 18.7348 15 19C15 19.2652 15.1054 19.5196 15.2929 19.7071C15.4804 19.8946 15.7348 20 16 20H22C22.2652 20 22.5196 19.8946 22.7071 19.7071C22.8946 19.5196 23 19.2652 23 19C23 18.7348 22.8946 18.4804 22.7071 18.2929C22.5196 18.1054 22.2652 18 22 18H16Z" fill="black"/>
<path d="M19 15C18.7348 15 18.4804 15.1054 18.2929 15.2929C18.1054 15.4804 18 15.7348 18 16V22C18 22.2652 18.1054 22.5196 18.2929 22.7071C18.4804 22.8946 18.7348 23 19 23C19.2652 23 19.5196 22.8946 19.7071 22.7071C19.8946 22.5196 20 22.2652 20 22V16C20 15.7348 19.8946 15.4804 19.7071 15.2929C19.5196 15.1054 19.2652 15 19 15Z" fill="black"/>
</g>
</g>
<defs>
<clipPath id="clip0_19819_129">
<rect width="24" height="24" fill="white"/>
</clipPath>
</defs>
</svg>
