<svg width="24" height="24" viewBox="0 0 24 24" fill="none" xmlns="http://www.w3.org/2000/svg">
<g clip-path="url(#clip0_19819_138)">
<mask id="mask0_19819_138" style="mask-type:luminance" maskUnits="userSpaceOnUse" x="0" y="0" width="24" height="24">
<path d="M24 0H0V24H24V0Z" fill="white"/>
</mask>
<g mask="url(#mask0_19819_138)">
<path d="M12 2C11.2048 2 10.4412 2.31659 9.8789 2.87891C9.50957 3.24821 9.43797 3.77658 9.30078 4.27148C8.11415 4.89293 7.08088 5.77322 6.33594 6.89062C5.53065 8.09854 5.07002 9.50298 5.00195 10.9531C5.00093 10.9687 5.00028 10.9844 5 11V13.9004C4.94096 14.3584 4.7816 14.7993 4.52539 15.1836C4.26485 15.5744 3.91657 15.8974 3.50781 16.1289C3.31529 16.2375 3.16419 16.4069 3.07812 16.6105C2.99205 16.8141 2.97587 17.0405 3.03211 17.2543C3.08835 17.4681 3.21383 17.6572 3.38894 17.7921C3.56406 17.9271 3.77894 18.0002 4 18H11C11.2652 18 11.5196 17.8946 11.7071 17.7071C11.8946 17.5196 12 17.2652 12 17C12 16.7348 11.8946 16.4804 11.7071 16.2929C11.5196 16.1054 11.2652 16 11 16H6.29687C6.63518 15.4157 6.91079 14.7934 6.99219 14.1211C6.99724 14.0809 6.99985 14.0405 7 14V11.041C7.05209 9.95553 7.39714 8.90428 8 8C8.60402 7.09398 9.44333 6.36978 10.4277 5.9043C10.599 5.82325 10.7437 5.69522 10.845 5.53513C10.9463 5.37504 11.0001 5.18946 11 5C11 4.73439 11.1052 4.48076 11.293 4.29297C11.4808 4.10513 11.7344 4 12 4C12.2656 4 12.5192 4.10513 12.707 4.29297C12.8948 4.48076 13 4.73439 13 5C12.9999 5.18946 13.0537 5.37504 13.155 5.53513C13.2563 5.69522 13.401 5.82325 13.5723 5.9043C14.5567 6.36978 15.3959 7.09395 16 8C16.604 8.90602 16.9509 9.95912 17.002 11.0469C17.0146 11.3115 17.1317 11.5603 17.3277 11.7386C17.5236 11.9169 17.7822 12.0103 18.0469 11.998C18.3115 11.9854 18.5603 11.8683 18.7386 11.6723C18.9169 11.4764 19.0102 11.2178 18.998 10.9531C18.9299 9.50302 18.4693 8.09854 17.6641 6.89062C16.9191 5.77324 15.8858 4.89293 14.6992 4.27148C14.562 3.77658 14.4904 3.24821 14.1211 2.87891C13.5587 2.31659 12.7952 2 12 2Z" fill="black"/>
<path d="M9 16C8.73478 16 8.48043 16.1054 8.29289 16.2929C8.10536 16.4804 8 16.7348 8 17V18C7.99981 18.988 8.3665 19.9413 9.02734 20.6758C9.6882 21.4102 10.5975 21.8748 11.5801 21.9785C11.8437 22.0064 12.1077 21.9285 12.3139 21.7618C12.5201 21.5952 12.6516 21.3535 12.6797 21.0898C12.6935 20.9591 12.6814 20.827 12.6441 20.701C12.6068 20.575 12.545 20.4576 12.4623 20.3554C12.3796 20.2533 12.2776 20.1685 12.162 20.1058C12.0465 20.0432 11.9198 20.0039 11.7891 19.9902C11.2975 19.9383 10.8444 19.7055 10.5137 19.3379C10.183 18.9703 9.99991 18.4944 10 18V17C10 16.7348 9.89464 16.4804 9.70711 16.2929C9.51957 16.1054 9.26522 16 9 16Z" fill="black"/>
<path d="M18 14C16.9395 14 15.9217 14.422 15.1719 15.1719C14.422 15.9217 14 16.9395 14 18C14 19.0605 14.422 20.0783 15.1719 20.8281C15.9217 21.578 16.9395 22 18 22C19.0605 22 20.0783 21.578 20.8281 20.8281C21.578 20.0783 22 19.0605 22 18C22 16.9395 21.578 15.9217 20.8281 15.1719C20.0783 14.422 19.0605 14 18 14ZM18 16C18.5307 16 19.0387 16.2106 19.4141 16.5859C19.7894 16.9613 20 17.4693 20 18C20 18.5307 19.7894 19.0387 19.4141 19.4141C19.0387 19.7894 18.5307 20 18 20C17.4693 20 16.9613 19.7894 16.5859 19.4141C16.2106 19.0387 16 18.5307 16 18C16 17.4693 16.2106 16.9613 16.5859 16.5859C16.9613 16.2106 17.4693 16 18 16Z" fill="black"/>
<path d="M19.4922 19.492C19.3047 19.6796 19.1993 19.9339 19.1993 20.1991C19.1993 20.4642 19.3047 20.7186 19.4922 20.9061L21.2929 22.7069C21.4805 22.8944 21.7348 22.9997 22 22.9997C22.2652 22.9997 22.5195 22.8944 22.707 22.7069C22.8945 22.5194 22.9998 22.265 22.9998 21.9998C22.9998 21.7347 22.8945 21.4803 22.707 21.2928L20.9062 19.492C20.7187 19.3045 20.4644 19.1992 20.1992 19.1992C19.934 19.1992 19.6797 19.3045 19.4922 19.492Z" fill="black"/>
</g>
</g>
<defs>
<clipPath id="clip0_19819_138">
<rect width="24" height="24" fill="white"/>
</clipPath>
</defs>
</svg>
