<?xml version="1.0" encoding="UTF-8" standalone="no"?>
<svg
   width="24"
   height="24"
   viewBox="0 0 24 24"
   fill="none"
   version="1.1"
   id="svg9"
   sodipodi:docname="bell-cog.svg"
   inkscape:version="1.3.2 (091e20e, 2023-11-25)"
   xmlns:inkscape="http://www.inkscape.org/namespaces/inkscape"
   xmlns:sodipodi="http://sodipodi.sourceforge.net/DTD/sodipodi-0.dtd"
   xmlns="http://www.w3.org/2000/svg"
   xmlns:svg="http://www.w3.org/2000/svg">
  <defs
     id="defs9" />
  <sodipodi:namedview
     id="namedview9"
     pagecolor="#505050"
     bordercolor="#eeeeee"
     borderopacity="1"
     inkscape:showpageshadow="0"
     inkscape:pageopacity="0"
     inkscape:pagecheckerboard="0"
     inkscape:deskcolor="#505050"
     inkscape:zoom="9.8333333"
     inkscape:cx="11.949153"
     inkscape:cy="12"
     inkscape:window-width="1504"
     inkscape:window-height="449"
     inkscape:window-x="0"
     inkscape:window-y="25"
     inkscape:window-maximized="0"
     inkscape:current-layer="svg9" />
  <path
     style="color:#000000;fill:#000000;stroke-linecap:round;stroke-linejoin:round;-inkscape-stroke:none"
     d="M 12,2 C 11.204757,2 10.441252,2.3165904 9.8789063,2.8789063 9.5095714,3.2482115 9.4379688,3.776581 9.3007813,4.2714844 8.1141492,4.892929 7.0808795,5.7732173 6.3359375,6.890625 5.5306561,8.0985414 5.0700188,9.5029818 5.0019531,10.953125 A 1.0001,1.0001 0 0 0 5,11 v 2.900391 c -0.059033,0.458008 -0.2183979,0.898937 -0.4746094,1.283203 -0.2605415,0.390835 -0.6088135,0.713829 -1.0175781,0.945312 A 1.0001,1.0001 0 0 0 4,18 h 8 a 1,1 0 0 0 1,-1 1,1 0 0 0 -1,-1 H 6.296875 C 6.6351788,15.415725 6.9107954,14.793449 6.9921875,14.121094 A 1.0001,1.0001 0 0 0 7,14 V 11.041016 C 7.0520896,9.9555292 7.3971459,8.9042768 8,8 8.6040196,7.0939749 9.4433291,6.3697766 10.427734,5.9042969 A 1.0001,1.0001 0 0 0 11,5 C 11,4.7343869 11.105163,4.4807594 11.292969,4.2929687 11.480822,4.1051254 11.734444,4 12,4 12.265556,4 12.519178,4.1051254 12.707031,4.2929687 12.894837,4.4807594 13,4.7343869 13,5 a 1.0001,1.0001 0 0 0 0.572266,0.9042969 C 14.556664,6.3697774 15.395924,7.0939541 16,8 c 0.602809,0.9042735 0.947874,1.9554874 1,3.041016 V 11.5 a 1,1 0 0 0 1,1 1,1 0 0 0 1,-1 V 11 a 1.0001,1.0001 0 0 0 -0.002,-0.04687 C 18.929937,9.5030238 18.469289,8.0985447 17.664062,6.890625 16.91908,5.7732365 15.88584,4.8929273 14.699219,4.2714844 14.562031,3.776581 14.490429,3.2482115 14.121094,2.8789063 13.558748,2.3165904 12.795243,2 12,2 Z"
     id="path1" />
  <path
     style="color:#000000;fill:#000000;stroke-linecap:round;stroke-linejoin:round;-inkscape-stroke:none"
     d="m 19.001953,16 c -0.795281,0 -1.560732,0.316442 -2.123047,0.878906 C 16.316552,17.44126 16.001953,18.204769 16.001953,19 c 0,0.795231 0.314599,1.55874 0.876953,2.121094 C 17.441221,21.683558 18.206672,22 19.001953,22 c 0.795231,0 1.55874,-0.316552 2.121094,-0.878906 C 21.685401,20.55874 22.001953,19.795231 22.001953,19 c 0,-0.795231 -0.316552,-1.55874 -0.878906,-2.121094 C 20.560693,16.316552 19.797184,16 19.001953,16 Z m 0,2 c 0.265568,0 0.519186,0.105124 0.707031,0.292969 0.187845,0.187845 0.292969,0.441463 0.292969,0.707031 0,0.265568 -0.105124,0.519186 -0.292969,0.707031 C 19.521139,19.894876 19.267521,20 19.001953,20 18.736235,20 18.482607,19.894766 18.294922,19.707031 a 1.0001,1.0001 0 0 0 -0.002,0 C 18.105124,19.519186 18.001953,19.265568 18.001953,19 c 0,-0.265568 0.103171,-0.519186 0.291016,-0.707031 a 1.0001,1.0001 0 0 0 0.002,0 C 18.482607,18.105234 18.736235,18 19.001953,18 Z"
     id="path2" />
  <path
     style="color:#000000;fill:#000000;stroke-linecap:round;stroke-linejoin:round;-inkscape-stroke:none"
     d="m 19.001953,14.5 a 1,1 0 0 0 -1,1 V 17 a 1,1 0 0 0 1,1 1,1 0 0 0 1,-1 v -1.5 a 1,1 0 0 0 -1,-1 z"
     id="path3" />
  <path
     style="color:#000000;fill:#000000;stroke-linecap:round;stroke-linejoin:round;-inkscape-stroke:none"
     d="m 19.001953,20 a 1,1 0 0 0 -1,1 v 1.5 a 1,1 0 0 0 1,1 1,1 0 0 0 1,-1 V 21 a 1,1 0 0 0 -1,-1 z"
     id="path4" />
  <path
     style="color:#000000;fill:#000000;stroke-linecap:round;stroke-linejoin:round;-inkscape-stroke:none"
     d="m 22.291016,16.283203 a 1,1 0 0 0 -0.759766,0.101563 l -1.298828,0.75 A 1,1 0 0 0 19.867187,18.5 a 1,1 0 0 0 1.365235,0.365234 l 1.298828,-0.75 A 1,1 0 0 0 22.898437,16.75 1,1 0 0 0 22.291016,16.283203 Z"
     id="path5" />
  <path
     style="color:#000000;fill:#000000;stroke-linecap:round;stroke-linejoin:round;-inkscape-stroke:none"
     d="m 17.529297,19.033203 a 1,1 0 0 0 -0.759766,0.101563 l -1.298828,0.75 A 1,1 0 0 0 15.103516,21.25 1,1 0 0 0 16.46875,21.615234 l 1.300781,-0.75 A 1,1 0 0 0 18.136719,19.5 1,1 0 0 0 17.529297,19.033203 Z"
     id="path6" />
  <path
     style="color:#000000;fill:#000000;stroke-linecap:round;stroke-linejoin:round;-inkscape-stroke:none"
     d="M 16.46875,16.384766 A 1,1 0 0 0 15.103516,16.75 a 1,1 0 0 0 0.367187,1.365234 l 1.298828,0.75 A 1,1 0 0 0 18.136719,18.5 1,1 0 0 0 17.769531,17.134766 Z"
     id="path7" />
  <path
     style="color:#000000;fill:#000000;stroke-linecap:round;stroke-linejoin:round;-inkscape-stroke:none"
     d="M 20.474609,19.033203 A 1,1 0 0 0 19.867187,19.5 a 1,1 0 0 0 0.365235,1.365234 l 1.300781,0.75 A 1,1 0 0 0 22.898437,21.25 1,1 0 0 0 22.533203,19.884766 l -1.300781,-0.75 a 1,1 0 0 0 -0.757813,-0.101563 z"
     id="path8" />
  <path
     style="color:#000000;fill:#000000;stroke-linecap:round;stroke-linejoin:round;-inkscape-stroke:none"
     d="m 9,16 a 1,1 0 0 0 -1,1 v 1 c 0,1.060447 0.4219777,2.078241 1.171875,2.828125 C 9.9217577,21.577981 10.939528,22 12,22 a 1,1 0 0 0 1,-1 1,1 0 0 0 -1,-1 C 11.469274,20 10.961294,19.789405 10.585938,19.414062 10.210616,19.038748 10,18.530751 10,18 V 17 A 1,1 0 0 0 9,16 Z"
     id="path9" />
</svg>
