<svg width="24" height="24" viewBox="0 0 24 24" fill="none" xmlns="http://www.w3.org/2000/svg">
<g clip-path="url(#clip0_19819_92)">
<mask id="mask0_19819_92" style="mask-type:luminance" maskUnits="userSpaceOnUse" x="0" y="0" width="24" height="24">
<path d="M24 0H0V24H24V0Z" fill="white"/>
</mask>
<g mask="url(#mask0_19819_92)">
<path d="M12 2C11.2048 2 10.4412 2.31659 9.8789 2.87891C9.50957 3.24821 9.43797 3.77658 9.30078 4.27148C8.11415 4.89293 7.08088 5.77322 6.33594 6.89062C5.53065 8.09854 5.07002 9.50298 5.00195 10.9531C5.00093 10.9687 5.00028 10.9844 5 11V13.9004C4.94096 14.3584 4.7816 14.7993 4.52539 15.1836C4.26485 15.5744 3.91657 15.8974 3.50781 16.1289C3.31529 16.2375 3.16419 16.4069 3.07812 16.6105C2.99205 16.8141 2.97587 17.0405 3.03211 17.2543C3.08835 17.4681 3.21383 17.6572 3.38894 17.7921C3.56406 17.9271 3.77894 18.0002 4 18H15C15.2652 18 15.5196 17.8946 15.7071 17.7071C15.8946 17.5196 16 17.2652 16 17C16 16.7348 15.8946 16.4804 15.7071 16.2929C15.5196 16.1054 15.2652 16 15 16H6.29687C6.63518 15.4157 6.91079 14.7934 6.99219 14.1211C6.99724 14.0809 6.99985 14.0405 7 14V11.041C7.05209 9.95553 7.39714 8.90428 8 8C8.60402 7.09398 9.44333 6.36978 10.4277 5.9043C10.599 5.82325 10.7437 5.69522 10.845 5.53513C10.9463 5.37504 11.0001 5.18946 11 5C11 4.73439 11.1052 4.48076 11.293 4.29297C11.4808 4.10513 11.7344 4 12 4C12.2656 4 12.5192 4.10513 12.707 4.29297C12.8948 4.48076 13 4.73439 13 5C12.9999 5.18946 13.0537 5.37504 13.155 5.53513C13.2563 5.69522 13.401 5.82325 13.5723 5.9043C14.5567 6.36978 15.3959 7.09395 16 8C16.6028 8.90427 16.9479 9.95549 17 11.041V12.5C17 12.7652 17.1054 13.0196 17.2929 13.2071C17.4804 13.3946 17.7348 13.5 18 13.5C18.2652 13.5 18.5196 13.3946 18.7071 13.2071C18.8946 13.0196 19 12.7652 19 12.5V11C18.9997 10.9844 18.999 10.9687 18.998 10.9531C18.9299 9.50302 18.4693 8.09854 17.6641 6.89062C16.9191 5.77324 15.8858 4.89293 14.6992 4.27148C14.562 3.77658 14.4904 3.24821 14.1211 2.87891C13.5587 2.31659 12.7952 2 12 2Z" fill="black"/>
<path d="M9 16C8.73478 16 8.48043 16.1054 8.29289 16.2929C8.10536 16.4804 8 16.7348 8 17V18C8 19.0604 8.42198 20.0782 9.17188 20.8281C9.92176 21.578 10.9395 22 12 22C13.0605 22 14.0783 21.578 14.8281 20.8281C15.578 20.0783 16 19.0605 16 18V17C16 16.7348 15.8946 16.4804 15.7071 16.2929C15.5196 16.1054 15.2652 16 15 16C14.7348 16 14.4804 16.1054 14.2929 16.2929C14.1054 16.4804 14 16.7348 14 17V18C14 18.5307 13.7894 19.0387 13.4141 19.4141C13.0387 19.7894 12.5307 20 12 20C11.4693 20 10.9613 19.7894 10.5859 19.4141C10.2106 19.0387 10 18.5308 10 18V17C10 16.7348 9.89464 16.4804 9.70711 16.2929C9.51957 16.1054 9.26522 16 9 16Z" fill="black"/>
<path d="M19 15C18.7348 15 18.4804 15.1054 18.2929 15.2929C18.1054 15.4804 18 15.7348 18 16V19C18 19.2652 18.1054 19.5196 18.2929 19.7071C18.4804 19.8946 18.7348 20 19 20C19.2652 20 19.5196 19.8946 19.7071 19.7071C19.8946 19.5196 20 19.2652 20 19V16C20 15.7348 19.8946 15.4804 19.7071 15.2929C19.5196 15.1054 19.2652 15 19 15Z" fill="black"/>
<path d="M19 21C18.7348 21 18.4804 21.1054 18.2929 21.2929C18.1054 21.4804 18 21.7348 18 22V22.0098C18 22.275 18.1054 22.5294 18.2929 22.7169C18.4804 22.9044 18.7348 23.0098 19 23.0098C19.2652 23.0098 19.5196 22.9044 19.7071 22.7169C19.8946 22.5294 20 22.275 20 22.0098V22C20 21.7348 19.8946 21.4804 19.7071 21.2929C19.5196 21.1054 19.2652 21 19 21Z" fill="black"/>
</g>
</g>
<defs>
<clipPath id="clip0_19819_92">
<rect width="24" height="24" fill="white"/>
</clipPath>
</defs>
</svg>
