<svg width="24" height="24" viewBox="0 0 24 24" fill="none" xmlns="http://www.w3.org/2000/svg">
<g clip-path="url(#clip0_19819_147)">
<mask id="mask0_19819_147" style="mask-type:luminance" maskUnits="userSpaceOnUse" x="0" y="0" width="24" height="24">
<path d="M24 0H0V24H24V0Z" fill="white"/>
</mask>
<g mask="url(#mask0_19819_147)">
<path d="M13.3086 2.0487C13.1079 1.98366 12.8917 1.98377 12.6911 2.04902C12.4904 2.11427 12.3155 2.24132 12.1915 2.41198L4.19145 13.412C4.08308 13.5612 4.01806 13.7374 4.00358 13.9212C3.9891 14.105 4.02571 14.2893 4.10938 14.4536C4.19306 14.6179 4.32052 14.7559 4.4777 14.8523C4.63488 14.9487 4.81566 14.9998 5.00005 14.9999H10V20.9999C10.0002 21.2109 10.0671 21.4165 10.1912 21.5872C10.3153 21.7579 10.4903 21.885 10.691 21.9502C10.8917 22.0154 11.1079 22.0155 11.3086 21.9504C11.5094 21.8853 11.6844 21.7584 11.8086 21.5878L19.8086 10.5878C19.917 10.4386 19.982 10.2623 19.9965 10.0785C20.011 9.89471 19.9744 9.71046 19.8907 9.54615C19.807 9.38184 19.6796 9.24386 19.5224 9.14745C19.3652 9.05105 19.1844 8.99997 19 8.99987H14V2.99987C14 2.78863 13.9331 2.58281 13.8089 2.41194C13.6847 2.24106 13.5096 2.11391 13.3086 2.0487ZM12 6.07409V9.99987C12.0001 10.2651 12.1054 10.5194 12.293 10.707C12.4805 10.8945 12.7348 10.9998 13 10.9999H17.0372L12 17.9257V13.9999C12 13.7347 11.8947 13.4803 11.7071 13.2928C11.5196 13.1053 11.2653 12.9999 11 12.9999H6.96294L12 6.07409Z" fill="black"/>
</g>
</g>
<defs>
<clipPath id="clip0_19819_147">
<rect width="24" height="24" fill="white"/>
</clipPath>
</defs>
</svg>
