<svg width="24" height="24" viewBox="0 0 24 24" fill="none" xmlns="http://www.w3.org/2000/svg">
<g clip-path="url(#clip0_19819_153)">
<mask id="mask0_19819_153" style="mask-type:luminance" maskUnits="userSpaceOnUse" x="0" y="0" width="24" height="24">
<path d="M24 0H0V24H24V0Z" fill="white"/>
</mask>
<g mask="url(#mask0_19819_153)">
<path d="M2.99997 2C2.73477 2.00004 2.48045 2.10542 2.29294 2.29297C2.10545 2.4805 2.00012 2.73482 2.00012 3C2.00012 3.26518 2.10545 3.5195 2.29294 3.70703L20.2929 21.707C20.4805 21.8945 20.7348 21.9998 21 21.9998C21.2652 21.9998 21.5195 21.8945 21.707 21.707C21.8945 21.5195 21.9998 21.2652 21.9998 21C21.9998 20.7348 21.8945 20.4805 21.707 20.293L3.707 2.29297C3.5195 2.10542 3.26517 2.00004 2.99997 2Z" fill="black"/>
<path d="M13.3085 2.0487C13.1078 1.98366 12.8916 1.98377 12.691 2.04902C12.4903 2.11427 12.3154 2.24132 12.1913 2.41198L9.66594 5.88073C9.58847 5.987 9.53272 6.1075 9.50188 6.23533C9.47104 6.36317 9.46572 6.49583 9.48622 6.62573C9.50672 6.75563 9.55264 6.88021 9.62135 6.99233C9.69006 7.10446 9.78021 7.20193 9.88664 7.27917C10.1011 7.43502 10.3687 7.49931 10.6306 7.45793C10.8924 7.41654 11.1272 7.27286 11.2831 7.05847L11.9999 6.07409V8.99987C11.9999 9.26509 12.1053 9.51944 12.2928 9.70698C12.4804 9.89452 12.7347 9.99987 12.9999 9.99987C12.9999 10.2651 13.1053 10.5194 13.2928 10.707C13.4804 10.8945 13.7347 10.9999 13.9999 10.9999H17.037L16.0878 12.3046C15.932 12.519 15.8677 12.7866 15.9091 13.0485C15.9504 13.3104 16.0941 13.5451 16.3085 13.701C16.523 13.8569 16.7906 13.9212 17.0525 13.8798C17.3143 13.8384 17.549 13.6947 17.705 13.4803L19.8085 10.5878C19.9169 10.4386 19.9819 10.2623 19.9964 10.0785C20.0109 9.89471 19.9743 9.71046 19.8906 9.54615C19.8069 9.38184 19.6794 9.24386 19.5223 9.14745C19.3651 9.05105 19.1843 8.99997 18.9999 8.99987H13.9999V2.99987C13.9999 2.78863 13.933 2.58281 13.8088 2.41194C13.6846 2.24106 13.5094 2.11391 13.3085 2.0487ZM8.63469 7.80261C8.50479 7.82276 8.38015 7.86832 8.26788 7.93669C8.1556 8.00506 8.05791 8.09489 7.98039 8.20105L4.19133 13.412C4.08296 13.5612 4.01794 13.7374 4.00346 13.9212C3.98897 14.105 4.02559 14.2893 4.10926 14.4536C4.19293 14.6179 4.3204 14.7559 4.47758 14.8523C4.63476 14.9487 4.81553 14.9998 4.99992 14.9999H9.99992V20.9999C10.0001 21.2109 10.067 21.4165 10.1911 21.5872C10.3152 21.7579 10.4902 21.885 10.6909 21.9502C10.8916 22.0154 11.1078 22.0155 11.3085 21.9504C11.5093 21.8853 11.6843 21.7584 11.8085 21.5878L16.0214 15.7987C16.0989 15.6924 16.1546 15.5719 16.1855 15.4441C16.2163 15.3163 16.2216 15.1836 16.2011 15.0537C16.1806 14.9238 16.1347 14.7992 16.066 14.6871C15.9973 14.575 15.9071 14.4775 15.8007 14.4003C15.5862 14.2444 15.3186 14.1801 15.0568 14.2215C14.7949 14.2629 14.5602 14.4066 14.4042 14.621L11.9999 17.9257V13.9999C11.9999 13.7347 11.8945 13.4803 11.707 13.2928C11.5195 13.1053 11.2651 12.9999 10.9999 12.9999H6.96477L9.59953 9.37878C9.677 9.27252 9.73275 9.15202 9.76359 9.02418C9.79443 8.89634 9.79975 8.76368 9.77925 8.63378C9.75875 8.50389 9.71283 8.37931 9.64412 8.26718C9.57541 8.15505 9.48526 8.05758 9.37883 7.98034C9.16415 7.8248 8.89649 7.76087 8.63469 7.80261Z" fill="black"/>
</g>
</g>
<defs>
<clipPath id="clip0_19819_153">
<rect width="24" height="24" fill="white"/>
</clipPath>
</defs>
</svg>
