<svg width="24" height="24" viewBox="0 0 24 24" fill="none" xmlns="http://www.w3.org/2000/svg">
<g clip-path="url(#clip0_19826_522)">
<mask id="mask0_19826_522" style="mask-type:luminance" maskUnits="userSpaceOnUse" x="0" y="0" width="24" height="24">
<path d="M24 0H0V24H24V0Z" fill="white"/>
</mask>
<g mask="url(#mask0_19826_522)">
<path d="M12 3C10.0223 3 8.08778 3.58678 6.44337 4.68555C4.79895 5.7843 3.51857 7.34667 2.76173 9.17383C2.00488 11.001 1.80558 13.0115 2.19141 14.9512C2.57724 16.891 3.53126 18.6718 4.92969 20.0703C5.11722 20.2578 5.37155 20.3631 5.63673 20.3631C5.9019 20.3631 6.15623 20.2578 6.34376 20.0703C6.53125 19.8828 6.63657 19.6285 6.63657 19.3633C6.63657 19.0981 6.53125 18.8438 6.34376 18.6562C5.22487 17.5373 4.463 16.1126 4.1543 14.5605C3.84561 13.0086 4.00385 11.4013 4.60938 9.93945C5.21492 8.47757 6.23903 7.22674 7.55469 6.34766C8.87036 5.46856 10.4177 5 12 5C13.5823 5 15.1297 5.46857 16.4453 6.34766C17.761 7.22674 18.7851 8.47755 19.3906 9.93945C19.9962 11.4013 20.1544 13.0086 19.8457 14.5605C19.537 16.1126 18.7752 17.5373 17.6563 18.6562C17.4688 18.8438 17.3634 19.0981 17.3634 19.3633C17.3634 19.6285 17.4688 19.8828 17.6563 20.0703C17.8438 20.2578 18.0981 20.3631 18.3633 20.3631C18.6285 20.3631 18.8828 20.2578 19.0703 20.0703C20.4688 18.6718 21.4227 16.8909 21.8086 14.9512C22.1944 13.0115 21.9951 11.001 21.2383 9.17383C20.4816 7.34714 19.2006 5.78426 17.5566 4.68555C15.9123 3.58677 13.9777 3 12 3Z" fill="black"/>
<path d="M15.293 8.29306L11.293 12.2931C11.1055 12.4806 11.0002 12.7349 11.0002 13.0001C11.0002 13.2653 11.1055 13.5196 11.293 13.7071C11.4805 13.8946 11.7348 13.9999 12 13.9999C12.2652 13.9999 12.5195 13.8946 12.707 13.7071L16.707 9.70712C16.8945 9.51959 16.9999 9.26527 16.9999 9.00009C16.9999 8.73491 16.8945 8.48059 16.707 8.29306C16.5195 8.10557 16.2652 8.00024 16 8.00024C15.7348 8.00024 15.4805 8.10557 15.293 8.29306Z" fill="black"/>
</g>
</g>
<defs>
<clipPath id="clip0_19826_522">
<rect width="24" height="24" fill="white"/>
</clipPath>
</defs>
</svg>
