<svg width="24" height="24" viewBox="0 0 24 24" fill="none" xmlns="http://www.w3.org/2000/svg">
<path d="M6 3C4.6743 3 3.40225 3.52745 2.46484 4.46484C1.52745 5.40225 1 6.6743 1 8V16C1 17.3257 1.52742 18.5978 2.46484 19.5352C3.40227 20.4726 4.67432 21 6 21H18C19.3257 21 20.5978 20.4727 21.5352 19.5352C22.4727 18.5978 23 17.3257 23 16V8C23 6.67432 22.4726 5.40227 21.5352 4.46484C20.5978 3.52742 19.3257 3 18 3H6ZM6 5H18C18.7961 5 19.5583 5.31605 20.1211 5.87891C20.684 6.44178 21 7.20394 21 8V16C21 16.7961 20.684 17.5583 20.1211 18.1211C19.5583 18.684 18.7961 19 18 19H6C5.20394 19 4.44178 18.684 3.87891 18.1211C3.31605 17.5583 3 16.7961 3 16V8C3 7.20396 3.31602 6.4418 3.87891 5.87891C4.4418 5.31602 5.20396 5 6 5Z" fill="black"/>
<path d="M9.50781 8.13085C9.35389 8.2179 9.22579 8.3442 9.13659 8.49688C9.04738 8.64956 9.00025 8.82316 9 8.99999V15C9.00013 15.1768 9.04714 15.3504 9.13624 15.5032C9.22533 15.6559 9.35333 15.7823 9.50718 15.8694C9.66103 15.9566 9.83524 16.0014 10.012 15.9993C10.1889 15.9972 10.3619 15.9482 10.5137 15.8574L15.5137 12.8574C15.6617 12.7685 15.7842 12.6429 15.8692 12.4926C15.9543 12.3424 15.999 12.1726 15.999 12C15.999 11.8273 15.9543 11.6576 15.8692 11.5074C15.7842 11.3571 15.6617 11.2314 15.5137 11.1426L10.5137 8.14257C10.362 8.05194 10.189 8.0031 10.0123 8.00104C9.83564 7.99899 9.66156 8.04378 9.50781 8.13085ZM11 10.7656L13.0566 12L11 13.2344V10.7656Z" fill="black"/>
</svg>
