<?xml version="1.0" encoding="UTF-8" standalone="no"?>
<svg
   width="24"
   height="24"
   viewBox="0 0 24 24"
   fill="none"
   version="1.1"
   id="svg2"
   sodipodi:docname="brand-apple.svg"
   inkscape:version="1.3.2 (091e20e, 2023-11-25)"
   xmlns:inkscape="http://www.inkscape.org/namespaces/inkscape"
   xmlns:sodipodi="http://sodipodi.sourceforge.net/DTD/sodipodi-0.dtd"
   xmlns="http://www.w3.org/2000/svg"
   xmlns:svg="http://www.w3.org/2000/svg">
  <defs
     id="defs2" />
  <sodipodi:namedview
     id="namedview2"
     pagecolor="#505050"
     bordercolor="#eeeeee"
     borderopacity="1"
     inkscape:showpageshadow="0"
     inkscape:pageopacity="0"
     inkscape:pagecheckerboard="0"
     inkscape:deskcolor="#505050"
     inkscape:zoom="9.8333333"
     inkscape:cx="11.949153"
     inkscape:cy="12"
     inkscape:window-width="1504"
     inkscape:window-height="449"
     inkscape:window-x="0"
     inkscape:window-y="25"
     inkscape:window-maximized="0"
     inkscape:current-layer="svg2" />
  <path
     style="color:#000000;fill:#000000;stroke-linecap:round;stroke-linejoin:round;-inkscape-stroke:none"
     d="m 8.2851563,6.0078125 c -1.9427856,0 -3.4101116,1.0772009 -4.2109376,2.4453125 C 3.2733928,9.8212366 3,11.450146 3,12.927734 c 0,1.835723 0.5705965,3.940096 1.4433594,5.69336 0.4363814,0.876632 0.9485297,1.662623 1.5605468,2.277343 C 6.6159234,21.513158 7.3727545,22 8.2851563,22 a 1.0001,1.0001 0 0 0 0.042969,0 c 0.7139784,-0.03064 1.2657486,-0.198877 1.728516,-0.322266 0.462767,-0.123388 0.850818,-0.214843 1.443359,-0.214843 0.575451,0 0.792867,0.08478 1.230469,0.222656 C 13.16807,21.823427 13.79975,22 14.714844,22 c 0.736638,0 1.348566,-0.315192 1.923828,-0.720703 0.575262,-0.405511 1.113072,-0.934169 1.597656,-1.533203 C 19.205497,18.548026 20,17.110102 20,15.619141 a 1.0001,1.0001 0 0 0 -0.65625,-0.939453 c -4.69e-4,-1.72e-4 -0.11903,-0.03448 -0.130859,-0.03711 -0.01183,-0.0026 -0.01508,-0.0049 -0.01953,-0.0059 -0.0089,-0.0018 -0.01445,-0.0024 -0.02148,-0.0039 -0.01406,-0.003 -0.03326,-0.0075 -0.05859,-0.01367 -0.05067,-0.01229 -0.126383,-0.03116 -0.21875,-0.0625 -0.184733,-0.06267 -0.432664,-0.171134 -0.666015,-0.332032 -0.466704,-0.321794 -0.896547,-0.759341 -0.908204,-1.845703 -0.006,-0.792747 0.396332,-1.273799 0.908204,-1.667968 0.256172,-0.197268 0.530765,-0.35037 0.742187,-0.451172 0.105711,-0.0504 0.194608,-0.08809 0.261719,-0.115235 0.03355,-0.01357 0.06172,-0.02293 0.08789,-0.0332 0.02617,-0.01028 -0.02821,0.02923 0.158204,-0.07226 A 1.0001,1.0001 0 0 0 19.826172,8.5976563 C 19.14088,7.5934779 18.191581,6.9729741 17.349609,6.5878906 16.511595,6.2046173 15.827857,6.0467594 15.328125,6.0117187 h -0.002 C 14.276864,5.9302796 13.373784,6.2797836 12.671875,6.5839844 11.969472,6.8883991 11.30329,7.0859375 11.5,7.0859375 c 0.127955,0 -0.419479,-0.1610985 -1.007812,-0.4414063 C 9.9038536,6.3642235 9.1789092,6.0078125 8.2851563,6.0078125 Z m 6.8867187,1.9980469 a 1.0001,1.0001 0 0 0 0.0098,0 c 0.08769,0.00597 0.725864,0.1204747 1.33789,0.4003906 0.267403,0.1222992 0.4676,0.3934051 0.722656,0.5761719 -0.08398,0.057548 -0.146694,0.076563 -0.232421,0.1425781 -0.809654,0.6234789 -1.702652,1.7325 -1.689453,3.273438 a 1.0001,1.0001 0 0 0 0,0.002 c 0.01834,1.709635 0.915642,2.879248 1.773437,3.470703 0.237891,0.164027 0.42802,0.221452 0.642578,0.320312 -0.164166,0.689877 -0.436676,1.532902 -1.054687,2.296875 -0.38604,0.477215 -0.816295,0.889075 -1.195313,1.15625 C 15.10731,19.911707 14.781705,20 14.714844,20 14.02294,20 13.748179,19.908464 13.332031,19.777344 12.915884,19.646224 12.330548,19.462891 11.5,19.462891 c -0.822458,0 -1.459752,0.150091 -1.9589844,0.283203 -0.4865154,0.12972 -0.8310352,0.225091 -1.265625,0.248047 C 8.1146484,19.991469 7.8079925,19.876113 7.4199219,19.486328 7.0274087,19.092081 6.6016178,18.466257 6.234375,17.728516 5.4998895,16.253033 5,14.321009 5,12.927734 5,11.715325 5.2626086,10.384245 5.8007812,9.4648438 6.3389539,8.5454427 7.011945,8.0078125 8.2851563,8.0078125 c 0.2842458,0 0.8037881,0.1832145 1.3457031,0.4414063 C 10.172774,8.7074105 10.643045,9.0859375 11.5,9.0859375 c 0.914709,0 1.357451,-0.4019309 1.966797,-0.6660156 0.609346,-0.2640847 1.220331,-0.4519581 1.705078,-0.4140625 z"
     id="path1" />
  <path
     style="color:#000000;fill:#000000;stroke-linecap:round;stroke-linejoin:round;-inkscape-stroke:none"
     d="M 14,1 C 13.204757,1 12.441252,1.3165904 11.878906,1.8789062 11.316513,2.4412548 11,3.2047542 11,4 a 1.0001,1.0001 0 0 0 1,1 C 12.795243,5 13.558748,4.6834096 14.121094,4.1210937 14.683487,3.5587452 15,2.7952458 15,2 A 1.0001,1.0001 0 0 0 14,1 Z"
     id="path2" />
</svg>
