<?xml version="1.0" encoding="UTF-8" standalone="no"?>
<svg
   width="24"
   height="24"
   viewBox="0 0 24 24"
   fill="none"
   version="1.1"
   id="svg3"
   sodipodi:docname="brand-google-play.svg"
   inkscape:version="1.3.2 (091e20e, 2023-11-25)"
   xmlns:inkscape="http://www.inkscape.org/namespaces/inkscape"
   xmlns:sodipodi="http://sodipodi.sourceforge.net/DTD/sodipodi-0.dtd"
   xmlns="http://www.w3.org/2000/svg"
   xmlns:svg="http://www.w3.org/2000/svg">
  <defs
     id="defs3" />
  <sodipodi:namedview
     id="namedview3"
     pagecolor="#505050"
     bordercolor="#eeeeee"
     borderopacity="1"
     inkscape:showpageshadow="0"
     inkscape:pageopacity="0"
     inkscape:pagecheckerboard="0"
     inkscape:deskcolor="#505050"
     inkscape:zoom="9.8333333"
     inkscape:cx="11.949153"
     inkscape:cy="12"
     inkscape:window-width="2560"
     inkscape:window-height="1387"
     inkscape:window-x="0"
     inkscape:window-y="25"
     inkscape:window-maximized="1"
     inkscape:current-layer="svg3" />
  <path
     style="color:#000000;fill:#000000;stroke-linecap:round;stroke-linejoin:round;-inkscape-stroke:none"
     d="M 4.6992187,2.0097656 C 4.4007424,2.0098627 4.1080467,2.0888858 3.8496094,2.2382813 3.5911341,2.3876986 3.3755948,2.6026946 3.2265625,2.8613281 3.0788839,3.1176123 2.99966,3.4123806 3,3.7109375 V 20.289062 a 1.0001,1.0001 0 0 0 0,0.002 c 9.71e-5,0.298276 0.079327,0.59129 0.2285156,0.849609 0.1491188,0.257913 0.3624141,0.471818 0.6210938,0.621094 0.2584458,0.149126 0.5514824,0.228515 0.8496093,0.228515 0.2974934,0 0.5912962,-0.0796 0.8496094,-0.228515 L 20.171875,13.341797 c 0.236084,-0.135953 0.430362,-0.331427 0.566406,-0.566406 0.136476,-0.236014 0.208985,-0.503498 0.208985,-0.775391 0,-0.271893 -0.07218,-0.541046 -0.208985,-0.777344 -0.1362,-0.235036 -0.331907,-0.431086 -0.566406,-0.566406 L 5.5507812,2.2382813 C 5.292279,2.0890361 4.9977383,2.0096928 4.6992187,2.0097656 Z M 5,4.2285156 18.496094,12 5,19.771484 Z"
     id="path1" />
  <path
     style="color:#000000;fill:#000000;stroke-linecap:round;stroke-linejoin:round;-inkscape-stroke:none"
     d="M 14.955078,8.0019531 A 1,1 0 0 0 14.261719,8.3261719 L 3.7617188,19.826172 a 1,1 0 0 0 0.064453,1.412109 1,1 0 0 0 1.4121093,-0.06445 L 15.738281,9.6738281 a 1,1 0 0 0 -0.06445,-1.4121093 1,1 0 0 0 -0.71875,-0.2597657 z"
     id="path2" />
  <path
     style="color:#000000;fill:#000000;stroke-linecap:round;stroke-linejoin:round;-inkscape-stroke:none"
     d="m 4.5449219,2.5019531 a 1,1 0 0 0 -0.71875,0.2597657 1,1 0 0 0 -0.064453,1.4121093 L 14.261719,15.673828 a 1,1 0 0 0 1.412109,0.06445 1,1 0 0 0 0.06445,-1.412109 L 5.2382812,2.8261719 A 1,1 0 0 0 4.5449219,2.5019531 Z"
     id="path3" />
</svg>
