<svg width="24" height="24" viewBox="0 0 24 24" fill="none" xmlns="http://www.w3.org/2000/svg">
<g clip-path="url(#clip0_19819_235)">
<mask id="mask0_19819_235" style="mask-type:luminance" maskUnits="userSpaceOnUse" x="0" y="0" width="24" height="24">
<path d="M24 0H0V24H24V0Z" fill="white"/>
</mask>
<g mask="url(#mask0_19819_235)">
<path d="M5 4C4.20474 4 3.44125 4.31655 2.87891 4.87891C2.31655 5.44125 2 6.20474 2 7V19C2 19.7952 2.31659 20.5587 2.87891 21.1211C3.44125 21.6835 4.20475 22 5 22H11.7949C12.0601 22 12.3145 21.8946 12.502 21.7071C12.6896 21.5196 12.7949 21.2652 12.7949 21C12.7949 20.7348 12.6896 20.4804 12.502 20.2929C12.3145 20.1054 12.0601 20 11.7949 20H5C4.73439 20 4.48076 19.8948 4.29297 19.707C4.10513 19.5192 4 19.2656 4 19V7C4 6.7344 4.10516 6.48077 4.29297 6.29297C4.48077 6.10516 4.7344 6 5 6H17C17.2656 6 17.5192 6.10513 17.707 6.29297C17.8948 6.48076 18 6.73439 18 7V11C18 11.2652 18.1054 11.5196 18.2929 11.7071C18.4804 11.8946 18.7348 12 19 12C19.2652 12 19.5196 11.8946 19.7071 11.7071C19.8946 11.5196 20 11.2652 20 11V7C20 6.20475 19.6835 5.44125 19.1211 4.87891C18.5587 4.31659 17.7952 4 17 4H5Z" fill="black"/>
<path d="M18 13C16.6743 13 15.4022 13.5273 14.4648 14.4648C13.5273 15.4022 13 16.6743 13 18C13 19.3257 13.5273 20.5978 14.4648 21.5352C15.4022 22.4727 16.6743 23 18 23C19.3257 23 20.5978 22.4727 21.5352 21.5352C22.4727 20.5978 23 19.3257 23 18C23 16.6743 22.4727 15.4022 21.5352 14.4648C20.5978 13.5273 19.3257 13 18 13ZM18 15C18.7961 15 19.5583 15.316 20.1211 15.8789C20.684 16.4417 21 17.2039 21 18C21 18.7961 20.684 19.5583 20.1211 20.1211C19.5583 20.684 18.7961 21 18 21C17.2039 21 16.4417 20.684 15.8789 20.1211C15.316 19.5583 15 18.7961 15 18C15 17.2039 15.316 16.4417 15.8789 15.8789C16.4417 15.316 17.2039 15 18 15Z" fill="black"/>
<path d="M15 2C14.7348 2 14.4804 2.10536 14.2929 2.29289C14.1054 2.48043 14 2.73478 14 3V7C14 7.26522 14.1054 7.51957 14.2929 7.70711C14.4804 7.89464 14.7348 8 15 8C15.2652 8 15.5196 7.89464 15.7071 7.70711C15.8946 7.51957 16 7.26522 16 7V3C16 2.73478 15.8946 2.48043 15.7071 2.29289C15.5196 2.10536 15.2652 2 15 2Z" fill="black"/>
<path d="M7 2C6.73478 2 6.48043 2.10536 6.29289 2.29289C6.10536 2.48043 6 2.73478 6 3V7C6 7.26522 6.10536 7.51957 6.29289 7.70711C6.48043 7.89464 6.73478 8 7 8C7.26522 8 7.51957 7.89464 7.70711 7.70711C7.89464 7.51957 8 7.26522 8 7V3C8 2.73478 7.89464 2.48043 7.70711 2.29289C7.51957 2.10536 7.26522 2 7 2Z" fill="black"/>
<path d="M3 10C2.73478 10 2.48043 10.1054 2.29289 10.2929C2.10536 10.4804 2 10.7348 2 11C2 11.2652 2.10536 11.5196 2.29289 11.7071C2.48043 11.8946 2.73478 12 3 12H19C19.2652 12 19.5196 11.8946 19.7071 11.7071C19.8946 11.5196 20 11.2652 20 11C20 10.7348 19.8946 10.4804 19.7071 10.2929C19.5196 10.1054 19.2652 10 19 10H3Z" fill="black"/>
<path d="M18 15.4961C17.7348 15.4961 17.4804 15.6015 17.2929 15.789C17.1054 15.9765 17 16.2309 17 16.4961V18C17.0001 18.2652 17.1054 18.5195 17.293 18.707L18.293 19.707C18.4805 19.8945 18.7348 19.9998 19 19.9998C19.2652 19.9998 19.5195 19.8945 19.707 19.707C19.8945 19.5195 19.9998 19.2652 19.9998 19C19.9998 18.7348 19.8945 18.4805 19.707 18.293L19 17.5859V16.4961C19 16.2309 18.8946 15.9765 18.7071 15.789C18.5196 15.6015 18.2652 15.4961 18 15.4961Z" fill="black"/>
</g>
</g>
<defs>
<clipPath id="clip0_19819_235">
<rect width="24" height="24" fill="white"/>
</clipPath>
</defs>
</svg>
