<?xml version="1.0" encoding="UTF-8" standalone="no"?>
<svg
   width="24"
   height="24"
   viewBox="0 0 24 24"
   fill="none"
   version="1.1"
   id="svg11"
   sodipodi:docname="calendar-cog.svg"
   inkscape:version="1.3.2 (091e20e, 2023-11-25)"
   xmlns:inkscape="http://www.inkscape.org/namespaces/inkscape"
   xmlns:sodipodi="http://sodipodi.sourceforge.net/DTD/sodipodi-0.dtd"
   xmlns="http://www.w3.org/2000/svg"
   xmlns:svg="http://www.w3.org/2000/svg">
  <defs
     id="defs11" />
  <sodipodi:namedview
     id="namedview11"
     pagecolor="#505050"
     bordercolor="#eeeeee"
     borderopacity="1"
     inkscape:showpageshadow="0"
     inkscape:pageopacity="0"
     inkscape:pagecheckerboard="0"
     inkscape:deskcolor="#505050"
     inkscape:zoom="9.8333333"
     inkscape:cx="11.949153"
     inkscape:cy="12"
     inkscape:window-width="1504"
     inkscape:window-height="449"
     inkscape:window-x="0"
     inkscape:window-y="25"
     inkscape:window-maximized="0"
     inkscape:current-layer="svg11" />
  <path
     style="color:#000000;fill:#000000;stroke-linecap:round;stroke-linejoin:round;-inkscape-stroke:none"
     d="M 6,4 C 5.2047416,4 4.4412465,4.316551 3.8789063,4.8789062 3.316551,5.4412465 3,6.2047416 3,7 v 12 c 0,0.795243 0.3165904,1.558748 0.8789063,2.121094 C 4.4412548,21.683487 5.2047542,22 6,22 h 6 a 1,1 0 0 0 1,-1 1,1 0 0 0 -1,-1 H 6 C 5.7343869,20 5.4807594,19.894837 5.2929687,19.707031 5.1051254,19.519178 5,19.265556 5,19 V 7 C 5,6.7343994 5.1051647,6.4807678 5.2929687,6.2929687 5.4807678,6.1051647 5.7343994,6 6,6 h 12 c 0.265556,0 0.519178,0.1051254 0.707031,0.2929687 C 18.894837,6.4807594 19,6.7343869 19,7 v 5 a 1,1 0 0 0 1,1 1,1 0 0 0 1,-1 V 7 C 21,6.2047542 20.683487,5.4412548 20.121094,4.8789062 19.558748,4.3165904 18.795243,4 18,4 Z"
     id="path1" />
  <path
     style="color:#000000;fill:#000000;stroke-linecap:round;stroke-linejoin:round;-inkscape-stroke:none"
     d="m 16,2 a 1,1 0 0 0 -1,1 v 4 a 1,1 0 0 0 1,1 1,1 0 0 0 1,-1 V 3 A 1,1 0 0 0 16,2 Z"
     id="path2" />
  <path
     style="color:#000000;fill:#000000;stroke-linecap:round;stroke-linejoin:round;-inkscape-stroke:none"
     d="M 8,2 A 1,1 0 0 0 7,3 V 7 A 1,1 0 0 0 8,8 1,1 0 0 0 9,7 V 3 A 1,1 0 0 0 8,2 Z"
     id="path3" />
  <path
     style="color:#000000;fill:#000000;stroke-linecap:round;stroke-linejoin:round;-inkscape-stroke:none"
     d="m 4,10 a 1,1 0 0 0 -1,1 1,1 0 0 0 1,1 h 16 a 1,1 0 0 0 1,-1 1,1 0 0 0 -1,-1 z"
     id="path4" />
  <path
     style="color:#000000;fill:#000000;stroke-linecap:round;stroke-linejoin:round;-inkscape-stroke:none"
     d="m 19.001953,16 c -0.795281,0 -1.560732,0.316442 -2.123047,0.878906 C 16.316552,17.44126 16.001953,18.204769 16.001953,19 c 0,0.795231 0.314599,1.55874 0.876953,2.121094 C 17.441221,21.683558 18.206672,22 19.001953,22 c 0.795231,0 1.55874,-0.316552 2.121094,-0.878906 C 21.685401,20.55874 22.001953,19.795231 22.001953,19 c 0,-0.795231 -0.316552,-1.55874 -0.878906,-2.121094 C 20.560693,16.316552 19.797184,16 19.001953,16 Z m 0,2 c 0.265568,0 0.519186,0.105124 0.707031,0.292969 0.187845,0.187845 0.292969,0.441463 0.292969,0.707031 0,0.265568 -0.105124,0.519186 -0.292969,0.707031 C 19.521139,19.894876 19.267521,20 19.001953,20 18.736235,20 18.482607,19.894766 18.294922,19.707031 a 1.0001,1.0001 0 0 0 -0.002,0 C 18.105124,19.519186 18.001953,19.265568 18.001953,19 c 0,-0.265568 0.103171,-0.519186 0.291016,-0.707031 a 1.0001,1.0001 0 0 0 0.002,0 C 18.482607,18.105234 18.736235,18 19.001953,18 Z"
     id="path5" />
  <path
     style="color:#000000;fill:#000000;stroke-linecap:round;stroke-linejoin:round;-inkscape-stroke:none"
     d="m 19.001953,14.5 a 1,1 0 0 0 -1,1 V 17 a 1,1 0 0 0 1,1 1,1 0 0 0 1,-1 v -1.5 a 1,1 0 0 0 -1,-1 z"
     id="path6" />
  <path
     style="color:#000000;fill:#000000;stroke-linecap:round;stroke-linejoin:round;-inkscape-stroke:none"
     d="m 19.001953,20 a 1,1 0 0 0 -1,1 v 1.5 a 1,1 0 0 0 1,1 1,1 0 0 0 1,-1 V 21 a 1,1 0 0 0 -1,-1 z"
     id="path7" />
  <path
     style="color:#000000;fill:#000000;stroke-linecap:round;stroke-linejoin:round;-inkscape-stroke:none"
     d="m 22.291016,16.283203 a 1,1 0 0 0 -0.759766,0.101563 l -1.298828,0.75 A 1,1 0 0 0 19.867187,18.5 a 1,1 0 0 0 1.365235,0.365234 l 1.298828,-0.75 A 1,1 0 0 0 22.898437,16.75 1,1 0 0 0 22.291016,16.283203 Z"
     id="path8" />
  <path
     style="color:#000000;fill:#000000;stroke-linecap:round;stroke-linejoin:round;-inkscape-stroke:none"
     d="m 17.529297,19.033203 a 1,1 0 0 0 -0.759766,0.101563 l -1.298828,0.75 A 1,1 0 0 0 15.103516,21.25 1,1 0 0 0 16.46875,21.615234 l 1.300781,-0.75 A 1,1 0 0 0 18.136719,19.5 1,1 0 0 0 17.529297,19.033203 Z"
     id="path9" />
  <path
     style="color:#000000;fill:#000000;stroke-linecap:round;stroke-linejoin:round;-inkscape-stroke:none"
     d="M 16.46875,16.384766 A 1,1 0 0 0 15.103516,16.75 a 1,1 0 0 0 0.367187,1.365234 l 1.298828,0.75 A 1,1 0 0 0 18.136719,18.5 1,1 0 0 0 17.769531,17.134766 Z"
     id="path10" />
  <path
     style="color:#000000;fill:#000000;stroke-linecap:round;stroke-linejoin:round;-inkscape-stroke:none"
     d="M 20.474609,19.033203 A 1,1 0 0 0 19.867187,19.5 a 1,1 0 0 0 0.365235,1.365234 l 1.300781,0.75 A 1,1 0 0 0 22.898437,21.25 1,1 0 0 0 22.533203,19.884766 l -1.300781,-0.75 a 1,1 0 0 0 -0.757813,-0.101563 z"
     id="path11" />
</svg>
