<svg width="24" height="24" viewBox="0 0 24 24" fill="none" xmlns="http://www.w3.org/2000/svg">
<g clip-path="url(#clip0_19819_160)">
<mask id="mask0_19819_160" style="mask-type:luminance" maskUnits="userSpaceOnUse" x="0" y="0" width="24" height="24">
<path d="M24 0H0V24H24V0Z" fill="white"/>
</mask>
<g mask="url(#mask0_19819_160)">
<path d="M6 4C5.20474 4 4.44125 4.31655 3.87891 4.87891C3.31655 5.44125 3 6.20474 3 7V19C3 19.7952 3.31659 20.5587 3.87891 21.1211C4.44125 21.6835 5.20475 22 6 22H18C18.7952 22 19.5587 21.6834 20.1211 21.1211C20.6834 20.5587 21 19.7952 21 19V7C21 6.20475 20.6835 5.44125 20.1211 4.87891C19.5587 4.31659 18.7952 4 18 4H6ZM6 6H18C18.2656 6 18.5192 6.10513 18.707 6.29297C18.8948 6.48076 19 6.73439 19 7V19C19 19.2656 18.8949 19.5192 18.707 19.707C18.5192 19.8949 18.2656 20 18 20H6C5.73439 20 5.48076 19.8948 5.29297 19.707C5.10513 19.5192 5 19.2656 5 19V7C5 6.7344 5.10516 6.48077 5.29297 6.29297C5.48077 6.10516 5.7344 6 6 6Z" fill="black"/>
<path d="M16 2C15.7348 2 15.4804 2.10536 15.2929 2.29289C15.1054 2.48043 15 2.73478 15 3V7C15 7.26522 15.1054 7.51957 15.2929 7.70711C15.4804 7.89464 15.7348 8 16 8C16.2652 8 16.5196 7.89464 16.7071 7.70711C16.8946 7.51957 17 7.26522 17 7V3C17 2.73478 16.8946 2.48043 16.7071 2.29289C16.5196 2.10536 16.2652 2 16 2Z" fill="black"/>
<path d="M8 2C7.73478 2 7.48043 2.10536 7.29289 2.29289C7.10536 2.48043 7 2.73478 7 3V7C7 7.26522 7.10536 7.51957 7.29289 7.70711C7.48043 7.89464 7.73478 8 8 8C8.26522 8 8.51957 7.89464 8.70711 7.70711C8.89464 7.51957 9 7.26522 9 7V3C9 2.73478 8.89464 2.48043 8.70711 2.29289C8.51957 2.10536 8.26522 2 8 2Z" fill="black"/>
<path d="M4 10C3.73478 10 3.48043 10.1054 3.29289 10.2929C3.10536 10.4804 3 10.7348 3 11C3 11.2652 3.10536 11.5196 3.29289 11.7071C3.48043 11.8946 3.73478 12 4 12H20C20.2652 12 20.5196 11.8946 20.7071 11.7071C20.8946 11.5196 21 11.2652 21 11C21 10.7348 20.8946 10.4804 20.7071 10.2929C20.5196 10.1054 20.2652 10 20 10H4Z" fill="black"/>
<path d="M11 14C10.7348 14 10.4804 14.1054 10.2929 14.2929C10.1054 14.4804 10 14.7348 10 15C10 15.2652 10.1054 15.5196 10.2929 15.7071C10.4804 15.8946 10.7348 16 11 16H12C12.2652 16 12.5196 15.8946 12.7071 15.7071C12.8946 15.5196 13 15.2652 13 15C13 14.7348 12.8946 14.4804 12.7071 14.2929C12.5196 14.1054 12.2652 14 12 14H11Z" fill="black"/>
<path d="M12 14C11.7348 14 11.4804 14.1054 11.2929 14.2929C11.1054 14.4804 11 14.7348 11 15V18C11 18.2652 11.1054 18.5196 11.2929 18.7071C11.4804 18.8946 11.7348 19 12 19C12.2652 19 12.5196 18.8946 12.7071 18.7071C12.8946 18.5196 13 18.2652 13 18V15C13 14.7348 12.8946 14.4804 12.7071 14.2929C12.5196 14.1054 12.2652 14 12 14Z" fill="black"/>
</g>
</g>
<defs>
<clipPath id="clip0_19819_160">
<rect width="24" height="24" fill="white"/>
</clipPath>
</defs>
</svg>
