<svg width="24" height="24" viewBox="0 0 24 24" fill="none" xmlns="http://www.w3.org/2000/svg">
<g clip-path="url(#clip0_19819_224)">
<mask id="mask0_19819_224" style="mask-type:luminance" maskUnits="userSpaceOnUse" x="0" y="0" width="24" height="24">
<path d="M24 0H0V24H24V0Z" fill="white"/>
</mask>
<g mask="url(#mask0_19819_224)">
<path d="M6 4C5.20474 4 4.44125 4.31655 3.87891 4.87891C3.31655 5.44125 3 6.20474 3 7V19C3 19.7952 3.31659 20.5587 3.87891 21.1211C4.44125 21.6835 5.20475 22 6 22H11.5C11.7652 22 12.0196 21.8946 12.2071 21.7071C12.3946 21.5196 12.5 21.2652 12.5 21C12.5 20.7348 12.3946 20.4804 12.2071 20.2929C12.0196 20.1054 11.7652 20 11.5 20H6C5.73439 20 5.48076 19.8948 5.29297 19.707C5.10513 19.5192 5 19.2656 5 19V7C5 6.7344 5.10516 6.48077 5.29297 6.29297C5.48077 6.10516 5.7344 6 6 6H18C18.2656 6 18.5192 6.10513 18.707 6.29297C18.8948 6.48076 19 6.73439 19 7V11.5C19 11.7652 19.1054 12.0196 19.2929 12.2071C19.4804 12.3946 19.7348 12.5 20 12.5C20.2652 12.5 20.5196 12.3946 20.7071 12.2071C20.8946 12.0196 21 11.7652 21 11.5V7C21 6.20475 20.6835 5.44125 20.1211 4.87891C19.5587 4.31659 18.7952 4 18 4H6Z" fill="black"/>
<path d="M16 2C15.7348 2 15.4804 2.10536 15.2929 2.29289C15.1054 2.48043 15 2.73478 15 3V7C15 7.26522 15.1054 7.51957 15.2929 7.70711C15.4804 7.89464 15.7348 8 16 8C16.2652 8 16.5196 7.89464 16.7071 7.70711C16.8946 7.51957 17 7.26522 17 7V3C17 2.73478 16.8946 2.48043 16.7071 2.29289C16.5196 2.10536 16.2652 2 16 2Z" fill="black"/>
<path d="M8 2C7.73478 2 7.48043 2.10536 7.29289 2.29289C7.10536 2.48043 7 2.73478 7 3V7C7 7.26522 7.10536 7.51957 7.29289 7.70711C7.48043 7.89464 7.73478 8 8 8C8.26522 8 8.51957 7.89464 8.70711 7.70711C8.89464 7.51957 9 7.26522 9 7V3C9 2.73478 8.89464 2.48043 8.70711 2.29289C8.51957 2.10536 8.26522 2 8 2Z" fill="black"/>
<path d="M4 10C3.73478 10 3.48043 10.1054 3.29289 10.2929C3.10536 10.4804 3 10.7348 3 11C3 11.2652 3.10536 11.5196 3.29289 11.7071C3.48043 11.8946 3.73478 12 4 12H20C20.2652 12 20.5196 11.8946 20.7071 11.7071C20.8946 11.5196 21 11.2652 21 11C21 10.7348 20.8946 10.4804 20.7071 10.2929C20.5196 10.1054 20.2652 10 20 10H4Z" fill="black"/>
<path d="M18 14C16.9395 14 15.9217 14.422 15.1719 15.1719C14.422 15.9217 14 16.9395 14 18C14 19.0605 14.422 20.0783 15.1719 20.8281C15.9217 21.578 16.9395 22 18 22C19.0605 22 20.0783 21.578 20.8281 20.8281C21.578 20.0783 22 19.0605 22 18C22 16.9395 21.578 15.9217 20.8281 15.1719C20.0783 14.422 19.0605 14 18 14ZM18 16C18.5307 16 19.0387 16.2106 19.4141 16.5859C19.7894 16.9613 20 17.4693 20 18C20 18.5307 19.7894 19.0387 19.4141 19.4141C19.0387 19.7894 18.5307 20 18 20C17.4693 20 16.9613 19.7894 16.5859 19.4141C16.2106 19.0387 16 18.5307 16 18C16 17.4693 16.2106 16.9613 16.5859 16.5859C16.9613 16.2106 17.4693 16 18 16Z" fill="black"/>
<path d="M19.4922 19.492C19.3047 19.6796 19.1993 19.9339 19.1993 20.1991C19.1993 20.4642 19.3047 20.7186 19.4922 20.9061L21.2929 22.7069C21.4805 22.8944 21.7348 22.9997 22 22.9997C22.2652 22.9997 22.5195 22.8944 22.707 22.7069C22.8945 22.5194 22.9998 22.265 22.9998 21.9998C22.9998 21.7347 22.8945 21.4803 22.707 21.2928L20.9062 19.492C20.7187 19.3045 20.4644 19.1992 20.1992 19.1992C19.934 19.1992 19.6797 19.3045 19.4922 19.492Z" fill="black"/>
</g>
</g>
<defs>
<clipPath id="clip0_19819_224">
<rect width="24" height="24" fill="white"/>
</clipPath>
</defs>
</svg>
