<svg width="24" height="24" viewBox="0 0 24 24" fill="none" xmlns="http://www.w3.org/2000/svg">
<g clip-path="url(#clip0_19819_284)">
<mask id="mask0_19819_284" style="mask-type:luminance" maskUnits="userSpaceOnUse" x="0" y="0" width="24" height="24">
<path d="M24 0H0V24H24V0Z" fill="white"/>
</mask>
<g mask="url(#mask0_19819_284)">
<path d="M9 3C8.46994 3 7.96073 3.21117 7.58594 3.58594C7.21117 3.96073 7 4.46994 7 5C7 5.2656 6.89484 5.51923 6.70703 5.70703C6.51923 5.89484 6.2656 6 6 6H5C4.20474 6 3.44125 6.31655 2.87891 6.87891C2.31655 7.44125 2 8.20474 2 9V18C2 18.7952 2.31659 19.5587 2.87891 20.1211C3.44125 20.6835 4.20475 21 5 21H15C15.2652 21 15.5196 20.8946 15.7071 20.7071C15.8946 20.5196 16 20.2652 16 20C16 19.7348 15.8946 19.4804 15.7071 19.2929C15.5196 19.1054 15.2652 19 15 19H5C4.73439 19 4.48076 18.8948 4.29297 18.707C4.10513 18.5192 4 18.2656 4 18V9C4 8.7344 4.10516 8.48077 4.29297 8.29297C4.48077 8.10516 4.7344 8 5 8H6C6.79526 8 7.55875 7.68345 8.12109 7.12109C8.68345 6.55875 9 5.79526 9 5H15C15 5.79525 15.3165 6.55875 15.8789 7.12109C16.4413 7.68341 17.2048 8 18 8H19C19.2656 8 19.5192 8.10513 19.707 8.29297C19.8948 8.48076 20 8.73439 20 9V12.5C20 12.7652 20.1054 13.0196 20.2929 13.2071C20.4804 13.3946 20.7348 13.5 21 13.5C21.2652 13.5 21.5196 13.3946 21.7071 13.2071C21.8946 13.0196 22 12.7652 22 12.5V9C22 8.20475 21.6835 7.44125 21.1211 6.87891C20.5587 6.31659 19.7952 6 19 6H18C17.7344 6 17.4808 5.89487 17.293 5.70703C17.1052 5.51924 17 5.26561 17 5C17 4.46984 16.7887 3.96067 16.4141 3.58594C16.0392 3.21102 15.5301 3 15 3H9Z" fill="black"/>
<path d="M12 9C10.9395 9 9.92176 9.42202 9.17188 10.1719C8.42198 10.9218 8 11.9396 8 13C8 14.0604 8.42198 15.0782 9.17188 15.8281C9.92176 16.578 10.9395 17 12 17C13.0605 17 14.0783 16.578 14.8281 15.8281C15.578 15.0783 16 14.0605 16 13C16 11.9395 15.578 10.9217 14.8281 10.1719C14.0783 9.422 13.0605 9 12 9ZM12 11C12.5307 11 13.0387 11.2106 13.4141 11.5859C13.7894 11.9613 14 12.4693 14 13C14 13.5307 13.7894 14.0387 13.4141 14.4141C13.0387 14.7894 12.5307 15 12 15C11.4693 15 10.9613 14.7894 10.5859 14.4141C10.2106 14.0387 10 13.5308 10 13C10 12.4692 10.2106 11.9613 10.5859 11.5859C10.9613 11.2106 11.4693 11 12 11Z" fill="black"/>
<path d="M19 15C18.7348 15 18.4804 15.1054 18.2929 15.2929C18.1054 15.4804 18 15.7348 18 16V19C18 19.2652 18.1054 19.5196 18.2929 19.7071C18.4804 19.8946 18.7348 20 19 20C19.2652 20 19.5196 19.8946 19.7071 19.7071C19.8946 19.5196 20 19.2652 20 19V16C20 15.7348 19.8946 15.4804 19.7071 15.2929C19.5196 15.1054 19.2652 15 19 15Z" fill="black"/>
<path d="M19 21C18.7348 21 18.4804 21.1054 18.2929 21.2929C18.1054 21.4804 18 21.7348 18 22V22.0098C18 22.275 18.1054 22.5294 18.2929 22.7169C18.4804 22.9044 18.7348 23.0098 19 23.0098C19.2652 23.0098 19.5196 22.9044 19.7071 22.7169C19.8946 22.5294 20 22.275 20 22.0098V22C20 21.7348 19.8946 21.4804 19.7071 21.2929C19.5196 21.1054 19.2652 21 19 21Z" fill="black"/>
</g>
</g>
<defs>
<clipPath id="clip0_19819_284">
<rect width="24" height="24" fill="white"/>
</clipPath>
</defs>
</svg>
