<svg width="24" height="24" viewBox="0 0 24 24" fill="none" xmlns="http://www.w3.org/2000/svg">
<g clip-path="url(#clip0_19819_269)">
<mask id="mask0_19819_269" style="mask-type:luminance" maskUnits="userSpaceOnUse" x="0" y="0" width="24" height="24">
<path d="M24 0H0V24H24V0Z" fill="white"/>
</mask>
<g mask="url(#mask0_19819_269)">
<path d="M9 3C8.46994 3 7.96073 3.21117 7.58594 3.58594C7.21117 3.96073 7 4.46994 7 5C7 5.2656 6.89484 5.51923 6.70703 5.70703C6.51923 5.89484 6.2656 6 6 6H5C4.20474 6 3.44125 6.31655 2.87891 6.87891C2.31655 7.44125 2 8.20474 2 9V18C2 18.7952 2.31659 19.5587 2.87891 20.1211C3.44125 20.6835 4.20475 21 5 21H19C19.7952 21 20.5587 20.6834 21.1211 20.1211C21.6834 19.5587 22 18.7952 22 18V9C22 8.20475 21.6835 7.44125 21.1211 6.87891C20.5587 6.31659 19.7952 6 19 6H18C17.7344 6 17.4808 5.89487 17.293 5.70703C17.1052 5.51924 17 5.26561 17 5C17 4.46984 16.7887 3.96067 16.4141 3.58594C16.0392 3.21102 15.5301 3 15 3H9ZM9 5H15C15 5.79525 15.3165 6.55875 15.8789 7.12109C16.4413 7.68341 17.2048 8 18 8H19C19.2656 8 19.5192 8.10513 19.707 8.29297C19.8948 8.48076 20 8.73439 20 9V18C20 18.2656 19.8949 18.5192 19.707 18.707C19.5192 18.8949 19.2656 19 19 19H5C4.73439 19 4.48076 18.8948 4.29297 18.707C4.10513 18.5192 4 18.2656 4 18V9C4 8.7344 4.10516 8.48077 4.29297 8.29297C4.48077 8.10516 4.7344 8 5 8H6C6.79526 8 7.55875 7.68345 8.12109 7.12109C8.68345 6.55875 9 5.79526 9 5Z" fill="black"/>
<path d="M12 9C10.9395 9 9.92176 9.42202 9.17188 10.1719C8.42198 10.9218 8 11.9396 8 13C8 14.0604 8.42198 15.0782 9.17188 15.8281C9.92176 16.578 10.9395 17 12 17C13.0605 17 14.0783 16.578 14.8281 15.8281C15.578 15.0783 16 14.0605 16 13C16 11.9395 15.578 10.9217 14.8281 10.1719C14.0783 9.422 13.0605 9 12 9ZM12 11C12.5307 11 13.0387 11.2106 13.4141 11.5859C13.7894 11.9613 14 12.4693 14 13C14 13.5307 13.7894 14.0387 13.4141 14.4141C13.0387 14.7894 12.5307 15 12 15C11.4693 15 10.9613 14.7894 10.5859 14.4141C10.2106 14.0387 10 13.5308 10 13C10 12.4692 10.2106 11.9613 10.5859 11.5859C10.9613 11.2106 11.4693 11 12 11Z" fill="black"/>
</g>
</g>
<defs>
<clipPath id="clip0_19819_269">
<rect width="24" height="24" fill="white"/>
</clipPath>
</defs>
</svg>
