<svg width="24" height="24" viewBox="0 0 24 24" fill="none" xmlns="http://www.w3.org/2000/svg">
<g clip-path="url(#clip0_19819_308)">
<mask id="mask0_19819_308" style="mask-type:luminance" maskUnits="userSpaceOnUse" x="0" y="0" width="24" height="24">
<path d="M24 0H0V24H24V0Z" fill="white"/>
</mask>
<g mask="url(#mask0_19819_308)">
<path d="M6 3C5.20474 3 4.44125 3.31655 3.87891 3.87891C3.31655 4.44125 3 5.20474 3 6V8C3 8.26522 3.10536 8.51957 3.29289 8.70711C3.48043 8.89464 3.73478 9 4 9C4.26522 9 4.51957 8.89464 4.70711 8.70711C4.89464 8.51957 5 8.26522 5 8V6C5 5.7344 5.10516 5.48077 5.29297 5.29297C5.48077 5.10516 5.7344 5 6 5H8C8.26522 5 8.51957 4.89464 8.70711 4.70711C8.89464 4.51957 9 4.26522 9 4C9 3.73478 8.89464 3.48043 8.70711 3.29289C8.51957 3.10536 8.26522 3 8 3H6Z" fill="black"/>
<path d="M4 15C3.73478 15 3.48043 15.1054 3.29289 15.2929C3.10536 15.4804 3 15.7348 3 16V18C3 18.7952 3.31659 19.5587 3.87891 20.1211C4.44125 20.6835 5.20475 21 6 21H8C8.26522 21 8.51957 20.8946 8.70711 20.7071C8.89464 20.5196 9 20.2652 9 20C9 19.7348 8.89464 19.4804 8.70711 19.2929C8.51957 19.1054 8.26522 19 8 19H6C5.73439 19 5.48076 18.8948 5.29297 18.707C5.10513 18.5192 5 18.2656 5 18V16C5 15.7348 4.89464 15.4804 4.70711 15.2929C4.51957 15.1054 4.26522 15 4 15Z" fill="black"/>
<path d="M16 3C15.7348 3 15.4804 3.10536 15.2929 3.29289C15.1054 3.48043 15 3.73478 15 4C15 4.26522 15.1054 4.51957 15.2929 4.70711C15.4804 4.89464 15.7348 5 16 5H18C18.2656 5 18.5192 5.10513 18.707 5.29297C18.8948 5.48076 19 5.73439 19 6V8C19 8.26522 19.1054 8.51957 19.2929 8.70711C19.4804 8.89464 19.7348 9 20 9C20.2652 9 20.5196 8.89464 20.7071 8.70711C20.8946 8.51957 21 8.26522 21 8V6C21 5.20475 20.6835 4.44125 20.1211 3.87891C19.5587 3.31659 18.7952 3 18 3H16Z" fill="black"/>
<path d="M20 15C19.7348 15 19.4804 15.1054 19.2929 15.2929C19.1054 15.4804 19 15.7348 19 16V18C19 18.2656 18.8949 18.5192 18.707 18.707C18.5192 18.8949 18.2656 19 18 19H16C15.7348 19 15.4804 19.1054 15.2929 19.2929C15.1054 19.4804 15 19.7348 15 20C15 20.2652 15.1054 20.5196 15.2929 20.7071C15.4804 20.8946 15.7348 21 16 21H18C18.7952 21 19.5587 20.6834 20.1211 20.1211C20.6834 19.5587 21 18.7952 21 18V16C21 15.7348 20.8946 15.4804 20.7071 15.2929C20.5196 15.1054 20.2652 15 20 15Z" fill="black"/>
<path d="M12 8C10.9396 8 9.92177 8.42199 9.17188 9.17188C8.42199 9.92177 8 10.9396 8 12C8 13.0604 8.42198 14.0782 9.17188 14.8281C9.92176 15.578 10.9395 16 12 16C13.0605 16 14.0783 15.578 14.8281 14.8281C15.578 14.0783 16 13.0605 16 12C16 10.9395 15.578 9.92176 14.8281 9.17188C14.0782 8.42198 13.0604 8 12 8ZM12 10C12.5308 10 13.0387 10.2106 13.4141 10.5859C13.7894 10.9613 14 11.4693 14 12C14 12.5307 13.7894 13.0387 13.4141 13.4141C13.0387 13.7894 12.5307 14 12 14C11.4693 14 10.9613 13.7894 10.5859 13.4141C10.2106 13.0387 10 12.5308 10 12C10 11.4692 10.2106 10.9613 10.5859 10.5859C10.9613 10.2106 11.4692 10 12 10Z" fill="black"/>
</g>
</g>
<defs>
<clipPath id="clip0_19819_308">
<rect width="24" height="24" fill="white"/>
</clipPath>
</defs>
</svg>
