<svg width="24" height="24" viewBox="0 0 24 24" fill="none" xmlns="http://www.w3.org/2000/svg">
<g clip-path="url(#clip0_19819_326)">
<mask id="mask0_19819_326" style="mask-type:luminance" maskUnits="userSpaceOnUse" x="0" y="0" width="24" height="24">
<path d="M24 0H0V24H24V0Z" fill="white"/>
</mask>
<g mask="url(#mask0_19819_326)">
<path d="M10 14C9.20475 14 8.44125 14.3165 7.87891 14.8789C7.31659 15.4413 7 16.2048 7 17C7 17.7952 7.31659 18.5587 7.87891 19.1211C8.44125 19.6835 9.20475 20 10 20C10.7952 20 11.5587 19.6834 12.1211 19.1211C12.6834 18.5587 13 17.7952 13 17C13 16.2048 12.6834 15.4413 12.1211 14.8789C11.5587 14.3166 10.7952 14 10 14ZM10 16C10.2656 16 10.5192 16.1051 10.707 16.293C10.8949 16.4808 11 16.7344 11 17C11 17.2656 10.8949 17.5192 10.707 17.707C10.5192 17.8949 10.2656 18 10 18C9.73439 18 9.48076 17.8948 9.29297 17.707C9.10513 17.5192 9 17.2656 9 17C9 16.7344 9.10513 16.4808 9.29297 16.293C9.48076 16.1052 9.73439 16 10 16Z" fill="black"/>
<path d="M3 5C2.73478 5 2.48043 5.10536 2.29289 5.29289C2.10536 5.48043 2 5.73478 2 6C2 6.26522 2.10536 6.51957 2.29289 6.70711C2.48043 6.89464 2.73478 7 3 7H4V10H3C2.73478 10 2.48043 10.1054 2.29289 10.2929C2.10536 10.4804 2 10.7348 2 11C2 11.2652 2.10536 11.5196 2.29289 11.7071C2.48043 11.8946 2.73478 12 3 12H5H11H12C12.2656 12 12.5192 12.1051 12.707 12.293C12.8949 12.4808 13 12.7344 13 13V16H12C11.7348 16 11.4804 16.1054 11.2929 16.2929C11.1054 16.4804 11 16.7348 11 17C11 17.2652 11.1054 17.5196 11.2929 17.7071C11.4804 17.8946 11.7348 18 12 18H14C14.2652 18 14.5195 17.8946 14.7071 17.7071C14.8946 17.5195 15 17.2652 15 17V13C15 12.2048 14.6834 11.4413 14.1211 10.8789C13.5587 10.3166 12.7952 10 12 10H11.4805L7.78125 5.375C7.68749 5.2579 7.56859 5.1634 7.43335 5.09849C7.29812 5.03357 7.15001 4.99991 7 5H5H3ZM6 7H6.51953L8.91992 10H6V7ZM3 16C2.73478 16 2.48043 16.1054 2.29289 16.2929C2.10536 16.4804 2 16.7348 2 17C2 17.2652 2.10536 17.5196 2.29289 17.7071C2.48043 17.8946 2.73478 18 3 18H8C8.26522 18 8.51957 17.8946 8.70711 17.7071C8.89464 17.5196 9 17.2652 9 17C9 16.7348 8.89464 16.4804 8.70711 16.2929C8.51957 16.1054 8.26522 16 8 16H3Z" fill="black"/>
<path d="M14 5C13.7348 5 13.4804 5.10536 13.2929 5.29289C13.1054 5.48043 13 5.73478 13 6V8C13 8.26522 13.1054 8.51957 13.2929 8.70711C13.4804 8.89464 13.7348 9 14 9C14.2652 9 14.5196 8.89464 14.7071 8.70711C14.8946 8.51957 15 8.26522 15 8V6C15 5.73478 14.8946 5.48043 14.7071 5.29289C14.5196 5.10536 14.2652 5 14 5Z" fill="black"/>
<path d="M19 11C18.7348 11 18.4804 11.1054 18.2929 11.2929C18.1054 11.4804 18 11.7348 18 12C18 12.2652 18.1054 12.5196 18.2929 12.7071C18.4804 12.8946 18.7348 13 19 13H21C21.2652 13 21.5196 12.8946 21.7071 12.7071C21.8946 12.5196 22 12.2652 22 12C22 11.7348 21.8946 11.4804 21.7071 11.2929C21.5196 11.1054 21.2652 11 21 11H19Z" fill="black"/>
<path d="M16.7929 14.7928C16.6055 14.9803 16.5001 15.2347 16.5001 15.4998C16.5001 15.765 16.6055 16.0193 16.7929 16.2069L18.2929 17.7069C18.4805 17.8944 18.7348 17.9997 19 17.9997C19.2652 17.9997 19.5195 17.8944 19.707 17.7069C19.8945 17.5193 19.9998 17.265 19.9998 16.9998C19.9998 16.7347 19.8945 16.4803 19.707 16.2928L18.207 14.7928C18.0195 14.6053 17.7652 14.5 17.5 14.5C17.2348 14.5 16.9805 14.6053 16.7929 14.7928Z" fill="black"/>
<path d="M18.2929 6.29282L16.7929 7.79282C16.6054 7.98035 16.5001 8.23467 16.5001 8.49985C16.5001 8.76503 16.6054 9.01935 16.7929 9.20688C16.9805 9.39437 17.2348 9.4997 17.5 9.4997C17.7652 9.4997 18.0195 9.39437 18.207 9.20688L19.707 7.70688C19.8945 7.51935 19.9998 7.26503 19.9998 6.99985C19.9998 6.73467 19.8945 6.48035 19.707 6.29282C19.5195 6.10533 19.2652 6 19 6C18.7348 6 18.4805 6.10533 18.2929 6.29282Z" fill="black"/>
</g>
</g>
<defs>
<clipPath id="clip0_19819_326">
<rect width="24" height="24" fill="white"/>
</clipPath>
</defs>
</svg>
