<svg width="24" height="24" viewBox="0 0 24 24" fill="none" xmlns="http://www.w3.org/2000/svg">
<g clip-path="url(#clip0_19819_318)">
<mask id="mask0_19819_318" style="mask-type:luminance" maskUnits="userSpaceOnUse" x="0" y="0" width="24" height="24">
<path d="M24 0H0V24H24V0Z" fill="white"/>
</mask>
<g mask="url(#mask0_19819_318)">
<path d="M7 14C6.20475 14 5.44125 14.3165 4.87891 14.8789C4.31659 15.4413 4 16.2048 4 17C4 17.7952 4.31659 18.5587 4.87891 19.1211C5.44125 19.6835 6.20475 20 7 20C7.79525 20 8.55875 19.6835 9.12109 19.1211C9.68341 18.5587 10 17.7952 10 17C10 16.2048 9.68341 15.4413 9.12109 14.8789C8.55875 14.3165 7.79525 14 7 14ZM7 16C7.26561 16 7.51924 16.1052 7.70703 16.293C7.89487 16.4808 8 16.7344 8 17C8 17.2656 7.89487 17.5192 7.70703 17.707C7.51924 17.8948 7.26561 18 7 18C6.73439 18 6.48076 17.8948 6.29297 17.707C6.10513 17.5192 6 17.2656 6 17C6 16.7344 6.10513 16.4808 6.29297 16.293C6.48076 16.1052 6.73439 16 7 16Z" fill="black"/>
<path d="M17 14C16.2048 14 15.4413 14.3166 14.8789 14.8789C14.3166 15.4413 14 16.2048 14 17C14 17.7952 14.3166 18.5587 14.8789 19.1211C15.4413 19.6834 16.2048 20 17 20C17.7952 20 18.5587 19.6834 19.1211 19.1211C19.6834 18.5587 20 17.7952 20 17C20 16.2048 19.6834 15.4413 19.1211 14.8789C18.5587 14.3166 17.7952 14 17 14ZM17 16C17.2656 16 17.5192 16.1051 17.707 16.293C17.8949 16.4808 18 16.7344 18 17C18 17.2656 17.8949 17.5192 17.707 17.707C17.5192 17.8949 17.2656 18 17 18C16.7344 18 16.4808 17.8949 16.293 17.707C16.1051 17.5192 16 17.2656 16 17C16 16.7344 16.1051 16.4808 16.293 16.293C16.4808 16.1051 16.7344 16 17 16Z" fill="black"/>
<path d="M5 5C4.80024 5.00019 4.60511 5.06019 4.43975 5.17228C4.2744 5.28437 4.14641 5.44341 4.07227 5.62891L2.07227 10.6289C2.06679 10.6926 2.06745 10.7567 2.07422 10.8203C2.0437 10.8777 2.01884 10.9378 2 11V17C2.00003 17.2652 2.10539 17.5195 2.29292 17.7071C2.48045 17.8946 2.73479 18 3 18H5C5.26522 18 5.51957 17.8946 5.70711 17.7071C5.89464 17.5196 6 17.2652 6 17C6 16.7348 5.89464 16.4804 5.70711 16.2929C5.51957 16.1054 5.26522 16 5 16H4V12H12H18H19C19.2656 12 19.5192 12.1051 19.707 12.293C19.8949 12.4808 20 12.7344 20 13V16H19C18.7348 16 18.4804 16.1054 18.2929 16.2929C18.1054 16.4804 18 16.7348 18 17C18 17.2652 18.1054 17.5196 18.2929 17.7071C18.4804 17.8946 18.7348 18 19 18H21C21.2652 18 21.5195 17.8946 21.7071 17.7071C21.8946 17.5195 22 17.2652 22 17V13C22 12.2048 21.6834 11.4413 21.1211 10.8789C20.5587 10.3166 19.7952 10 19 10H18.4805L14.7812 5.375C14.6875 5.2579 14.5686 5.1634 14.4334 5.09849C14.2981 5.03357 14.15 4.99991 14 5H12H5ZM5.67773 7H11V10H4.47656L5.67773 7ZM13 7H13.5195L15.9199 10H13V7ZM9 16C8.73478 16 8.48043 16.1054 8.29289 16.2929C8.10536 16.4804 8 16.7348 8 17C8 17.2652 8.10536 17.5196 8.29289 17.7071C8.48043 17.8946 8.73478 18 9 18H15C15.2652 18 15.5196 17.8946 15.7071 17.7071C15.8946 17.5196 16 17.2652 16 17C16 16.7348 15.8946 16.4804 15.7071 16.2929C15.5196 16.1054 15.2652 16 15 16H9Z" fill="black"/>
</g>
</g>
<defs>
<clipPath id="clip0_19819_318">
<rect width="24" height="24" fill="white"/>
</clipPath>
</defs>
</svg>
