<svg width="24" height="24" viewBox="0 0 24 24" fill="none" xmlns="http://www.w3.org/2000/svg">
<g clip-path="url(#clip0_19819_350)">
<mask id="mask0_19819_350" style="mask-type:luminance" maskUnits="userSpaceOnUse" x="0" y="0" width="24" height="24">
<path d="M24 0H0V24H24V0Z" fill="white"/>
</mask>
<g mask="url(#mask0_19819_350)">
<path d="M21.293 6.29282L12 15.5858L7.70703 11.2928C7.5195 11.1053 7.26518 11 7 11C6.73482 11 6.4805 11.1053 6.29297 11.2928C6.10548 11.4803 6.00015 11.7347 6.00015 11.9998C6.00015 12.265 6.10548 12.5194 6.29297 12.7069L11.293 17.7069C11.4805 17.8943 11.7348 17.9997 12 17.9997C12.2652 17.9997 12.5195 17.8943 12.707 17.7069L22.707 7.70688C22.8945 7.51935 22.9999 7.26503 22.9999 6.99985C22.9999 6.73467 22.8945 6.48035 22.707 6.29282C22.5195 6.10533 22.2652 6 22 6C21.7348 6 21.4805 6.10533 21.293 6.29282Z" fill="black"/>
<path d="M16.293 6.29282L11.293 11.2928C11.1055 11.4803 11.0002 11.7347 11.0002 11.9998C11.0002 12.265 11.1055 12.5194 11.293 12.7069C11.4805 12.8944 11.7348 12.9997 12 12.9997C12.2652 12.9997 12.5195 12.8944 12.707 12.7069L17.707 7.70688C17.8945 7.51935 17.9999 7.26503 17.9999 6.99985C17.9999 6.73467 17.8945 6.48035 17.707 6.29282C17.5195 6.10533 17.2652 6 17 6C16.7348 6 16.4805 6.10533 16.293 6.29282ZM2 10.9998C1.7348 10.9999 1.48048 11.1053 1.29297 11.2928C1.10548 11.4803 1.00015 11.7347 1.00015 11.9998C1.00015 12.265 1.10548 12.5194 1.29297 12.7069L6.29297 17.7069C6.4805 17.8944 6.73482 17.9997 7 17.9997C7.26518 17.9997 7.5195 17.8944 7.70703 17.7069C7.89452 17.5194 7.99985 17.265 7.99985 16.9998C7.99985 16.7347 7.89452 16.4803 7.70703 16.2928L2.70703 11.2928C2.51953 11.1053 2.2652 10.9999 2 10.9998Z" fill="black"/>
</g>
</g>
<defs>
<clipPath id="clip0_19819_350">
<rect width="24" height="24" fill="white"/>
</clipPath>
</defs>
</svg>
