<svg width="24" height="24" viewBox="0 0 24 24" fill="none" xmlns="http://www.w3.org/2000/svg">
<g clip-path="url(#clip0_19819_343)">
<mask id="mask0_19819_343" style="mask-type:luminance" maskUnits="userSpaceOnUse" x="0" y="0" width="24" height="24">
<path d="M24 0H0V24H24V0Z" fill="white"/>
</mask>
<g mask="url(#mask0_19819_343)">
<path d="M19.293 5.29282L12 12.5858L9.70703 10.2928C9.5195 10.1053 9.26518 10 9 10C8.73482 10 8.4805 10.1053 8.29297 10.2928C8.10548 10.4803 8.00015 10.7347 8.00015 10.9998C8.00015 11.265 8.10548 11.5194 8.29297 11.7069L11.293 14.7069C11.4805 14.8943 11.7348 14.9997 12 14.9997C12.2652 14.9997 12.5195 14.8943 12.707 14.7069L20.707 6.70688C20.8945 6.51935 20.9999 6.26503 20.9999 5.99985C20.9999 5.73467 20.8945 5.48035 20.707 5.29282C20.5195 5.10533 20.2652 5 20 5C19.7348 5 19.4805 5.10533 19.293 5.29282Z" fill="black"/>
<path d="M6 3C5.20474 3 4.44125 3.31655 3.87891 3.87891C3.31655 4.44125 3 5.20474 3 6V18C3 18.7952 3.31659 19.5587 3.87891 20.1211C4.44125 20.6835 5.20475 21 6 21H18C18.7952 21 19.5587 20.6834 20.1211 20.1211C20.6834 19.5587 21 18.7952 21 18V12C21 11.7348 20.8946 11.4804 20.7071 11.2929C20.5196 11.1054 20.2652 11 20 11C19.7348 11 19.4804 11.1054 19.2929 11.2929C19.1054 11.4804 19 11.7348 19 12V18C19 18.2656 18.8949 18.5192 18.707 18.707C18.5192 18.8949 18.2656 19 18 19H6C5.73439 19 5.48076 18.8948 5.29297 18.707C5.10513 18.5192 5 18.2656 5 18V6C5 5.7344 5.10516 5.48077 5.29297 5.29297C5.48077 5.10516 5.7344 5 6 5H15C15.2652 5 15.5196 4.89464 15.7071 4.70711C15.8946 4.51957 16 4.26522 16 4C16 3.73478 15.8946 3.48043 15.7071 3.29289C15.5196 3.10536 15.2652 3 15 3H6Z" fill="black"/>
</g>
</g>
<defs>
<clipPath id="clip0_19819_343">
<rect width="24" height="24" fill="white"/>
</clipPath>
</defs>
</svg>
