<svg width="24" height="24" viewBox="0 0 24 24" fill="none" xmlns="http://www.w3.org/2000/svg">
<g clip-path="url(#clip0_19819_363)">
<mask id="mask0_19819_363" style="mask-type:luminance" maskUnits="userSpaceOnUse" x="0" y="0" width="24" height="24">
<path d="M24 0H0V24H24V0Z" fill="white"/>
</mask>
<g mask="url(#mask0_19819_363)">
<path d="M8.99997 5C8.73477 5.00004 8.48045 5.10542 8.29294 5.29297C8.10545 5.4805 8.00012 5.73482 8.00012 6C8.00012 6.26518 8.10545 6.5195 8.29294 6.70703L13.5859 12L8.29294 17.293C8.10545 17.4805 8.00012 17.7348 8.00012 18C8.00012 18.2652 8.10545 18.5195 8.29294 18.707C8.48047 18.8945 8.73479 18.9998 8.99997 18.9998C9.26515 18.9998 9.51947 18.8945 9.707 18.707L15.707 12.707C15.8945 12.5195 15.9998 12.2652 15.9998 12C15.9998 11.7348 15.8945 11.4805 15.707 11.293L9.707 5.29297C9.5195 5.10542 9.26517 5.00004 8.99997 5Z" fill="black"/>
</g>
</g>
<defs>
<clipPath id="clip0_19819_363">
<rect width="24" height="24" fill="white"/>
</clipPath>
</defs>
</svg>
