<svg width="24" height="24" viewBox="0 0 24 24" fill="none" xmlns="http://www.w3.org/2000/svg">
<g clip-path="url(#clip0_19819_357)">
<mask id="mask0_19819_357" style="mask-type:luminance" maskUnits="userSpaceOnUse" x="0" y="0" width="24" height="24">
<path d="M24 0H0V24H24V0Z" fill="white"/>
</mask>
<g mask="url(#mask0_19819_357)">
<path d="M15 5C14.7348 5.00004 14.4805 5.10542 14.293 5.29297L8.29296 11.293C8.10549 11.4805 8.00018 11.7348 8.00018 12C8.00018 12.2652 8.10549 12.5195 8.29296 12.707L14.293 18.707C14.4805 18.8945 14.7348 18.9998 15 18.9998C15.2652 18.9998 15.5195 18.8945 15.707 18.707C15.8945 18.5195 15.9998 18.2652 15.9998 18C15.9998 17.7348 15.8945 17.4805 15.707 17.293L10.4141 12L15.707 6.70703C15.8945 6.5195 15.9998 6.26518 15.9998 6C15.9998 5.73482 15.8945 5.4805 15.707 5.29297C15.5195 5.10542 15.2652 5.00004 15 5Z" fill="black"/>
</g>
</g>
<defs>
<clipPath id="clip0_19819_357">
<rect width="24" height="24" fill="white"/>
</clipPath>
</defs>
</svg>
