<svg width="24" height="24" viewBox="0 0 24 24" fill="none" xmlns="http://www.w3.org/2000/svg">
<g clip-path="url(#clip0_19824_320)">
<mask id="mask0_19824_320" style="mask-type:luminance" maskUnits="userSpaceOnUse" x="0" y="0" width="24" height="24">
<path d="M24 0H0V24H24V0Z" fill="white"/>
</mask>
<g mask="url(#mask0_19824_320)">
<path d="M12 2C10.6868 2 9.38707 2.25918 8.17383 2.76172C6.96059 3.26427 5.85827 4.00111 4.92969 4.92969C4.00111 5.85827 3.26427 6.96059 2.76172 8.17383C2.25918 9.38707 2 10.6868 2 12C2 13.3132 2.25919 14.6129 2.76172 15.8262C3.26427 17.0394 4.00115 18.1417 4.92969 19.0703C5.85827 19.9989 6.96061 20.7357 8.17383 21.2383C9.38707 21.7408 10.6868 22 12 22C13.3132 22 14.6129 21.7408 15.8262 21.2383C17.0394 20.7357 18.1417 19.9988 19.0703 19.0703C19.9988 18.1417 20.7357 17.0394 21.2383 15.8262C21.7408 14.6129 22 13.3132 22 12C22 10.6868 21.7408 9.38707 21.2383 8.17383C20.7357 6.96061 19.9989 5.85827 19.0703 4.92969C18.1417 4.00115 17.0394 3.26427 15.8262 2.76172C14.6129 2.25919 13.3132 2 12 2ZM12 4C13.0506 4 14.0918 4.20732 15.0625 4.60938C16.0325 5.01141 16.9137 5.60122 17.6562 6.34375C18.3991 7.08663 18.9886 7.96882 19.3906 8.93945C19.7927 9.91007 20 10.9494 20 12C20 13.0499 19.7922 14.0903 19.3906 15.0605C18.9886 16.0311 18.3991 16.9133 17.6562 17.6562C16.9133 18.3991 16.0311 18.9886 15.0605 19.3906C14.0903 19.7922 13.0499 20 12 20C10.9494 20 9.91007 19.7927 8.93945 19.3906C7.96882 18.9886 7.08663 18.3991 6.34375 17.6562C5.60122 16.9137 5.01141 16.0325 4.60938 15.0625V15.0605C4.20781 14.0903 4 13.0499 4 12C4 10.9494 4.20733 9.91007 4.60938 8.93945C5.01143 7.96883 5.60087 7.08663 6.34375 6.34375C7.08663 5.60087 7.96883 5.01143 8.93945 4.60938C9.91007 4.20733 10.9494 4 12 4Z" fill="black"/>
<path d="M9 11C8.73478 11 8.48043 11.1054 8.29289 11.2929C8.10536 11.4804 8 11.7348 8 12C8 12.2652 8.10536 12.5196 8.29289 12.7071C8.48043 12.8946 8.73478 13 9 13H15C15.2652 13 15.5196 12.8946 15.7071 12.7071C15.8946 12.5196 16 12.2652 16 12C16 11.7348 15.8946 11.4804 15.7071 11.2929C15.5196 11.1054 15.2652 11 15 11H9Z" fill="black"/>
</g>
</g>
<defs>
<clipPath id="clip0_19824_320">
<rect width="24" height="24" fill="white"/>
</clipPath>
</defs>
</svg>
