<svg width="24" height="24" viewBox="0 0 24 24" fill="none" xmlns="http://www.w3.org/2000/svg">
<g clip-path="url(#clip0_19819_436)">
<mask id="mask0_19819_436" style="mask-type:luminance" maskUnits="userSpaceOnUse" x="0" y="0" width="24" height="24">
<path d="M24 0H0V24H24V0Z" fill="white"/>
</mask>
<g mask="url(#mask0_19819_436)">
<path d="M12 2C9.34822 2 6.80478 3.0546 4.92969 4.92969C3.0546 6.80478 2 9.34822 2 12C2 13.3132 2.25919 14.6129 2.76172 15.8262C3.26427 17.0394 4.00115 18.1417 4.92969 19.0703C5.85827 19.9989 6.96061 20.7357 8.17383 21.2383C9.38707 21.7408 10.6868 22 12 22C13.3132 22 14.6129 21.7408 15.8262 21.2383C17.0394 20.7357 18.1417 19.9988 19.0703 19.0703C19.9988 18.1417 20.7357 17.0394 21.2383 15.8262C21.7408 14.6129 22 13.3132 22 12C22 9.34822 20.9454 6.80478 19.0703 4.92969C17.1952 3.05461 14.6517 2 12 2ZM12 4C14.1221 4 16.1556 4.84317 17.6562 6.34375C19.1568 7.84431 20 9.87788 20 12C20 13.0499 19.7922 14.0903 19.3906 15.0605C18.9886 16.0311 18.3991 16.9133 17.6562 17.6562C16.9133 18.3991 16.0311 18.9886 15.0605 19.3906C14.0903 19.7922 13.0499 20 12 20C10.9494 20 9.91007 19.7927 8.93945 19.3906C7.96882 18.9886 7.08663 18.3991 6.34375 17.6562C5.60122 16.9137 5.01141 16.0325 4.60938 15.0625V15.0605C4.20781 14.0903 4 13.0499 4 12C4 9.87788 4.84319 7.84431 6.34375 6.34375C7.84431 4.84319 9.87788 4 12 4Z" fill="black"/>
<path d="M12 6C11.7348 6 11.4804 6.10536 11.2929 6.29289C11.1054 6.48043 11 6.73478 11 7V12C11.0001 12.2652 11.1054 12.5195 11.293 12.707L14.293 15.707C14.4805 15.8945 14.7348 15.9998 15 15.9998C15.2652 15.9998 15.5195 15.8945 15.707 15.707C15.8945 15.5195 15.9998 15.2652 15.9998 15C15.9998 14.7348 15.8945 14.4805 15.707 14.293L13 11.5859V7C13 6.73478 12.8946 6.48043 12.7071 6.29289C12.5196 6.10536 12.2652 6 12 6Z" fill="black"/>
</g>
</g>
<defs>
<clipPath id="clip0_19819_436">
<rect width="24" height="24" fill="white"/>
</clipPath>
</defs>
</svg>
