<svg width="24" height="24" viewBox="0 0 24 24" fill="none" xmlns="http://www.w3.org/2000/svg">
<g clip-path="url(#clip0_19819_443)">
<mask id="mask0_19819_443" style="mask-type:luminance" maskUnits="userSpaceOnUse" x="0" y="0" width="24" height="24">
<path d="M24 0H0V24H24V0Z" fill="white"/>
</mask>
<g mask="url(#mask0_19819_443)">
<path d="M13.3164 2.08786C12.3687 1.9621 11.4014 1.97118 10.4473 2.12107C8.53904 2.42082 6.75995 3.26851 5.32226 4.55857C3.88457 5.84863 2.84967 7.52781 2.3457 9.39255C1.84174 11.2573 1.88834 13.2277 2.48046 15.0664C3.0726 16.9051 4.18614 18.5318 5.68359 19.7519C7.18107 20.9722 8.99961 21.7327 10.9199 21.9414L10.9219 21.9434C11.2755 21.9809 11.6354 22 12 22C12.2652 22 12.5196 21.8946 12.7071 21.7071C12.8946 21.5195 13 21.2652 13 21C13 20.7348 12.8946 20.4804 12.7071 20.2929C12.5196 20.1053 12.2652 20 12 20C11.7099 20 11.4218 19.9833 11.1367 19.9531H11.1328C9.59776 19.7856 8.14434 19.1786 6.94727 18.2031C5.74918 17.2269 4.85851 15.9242 4.38477 14.4531C3.911 12.982 3.87412 11.406 4.27734 9.91403C4.68055 8.4221 5.50598 7.079 6.65625 6.04685C7.80651 5.0147 9.23111 4.33745 10.7578 4.09763C12.2846 3.85779 13.8484 4.06553 15.2598 4.69528C16.671 5.32503 17.8696 6.34998 18.7109 7.64646C19.5521 8.94293 19.9999 10.4545 20 12C20 12.2652 20.1054 12.5195 20.2929 12.7071C20.4804 12.8946 20.7348 13 21 13C21.2652 13 21.5196 12.8946 21.7071 12.7071C21.8946 12.5195 22 12.2652 22 12C21.9999 10.0683 21.4401 8.177 20.3887 6.55661C19.3372 4.93623 17.8381 3.65623 16.0742 2.86911C15.1922 2.47555 14.2641 2.21363 13.3164 2.08786Z" fill="black"/>
<path d="M12 6C11.7348 6 11.4804 6.10536 11.2929 6.29289C11.1054 6.48043 11 6.73478 11 7V12C11.0001 12.2652 11.1054 12.5195 11.293 12.707L13.293 14.707C13.4805 14.8945 13.7348 14.9998 14 14.9998C14.2652 14.9998 14.5195 14.8945 14.707 14.707C14.8945 14.5195 14.9998 14.2652 14.9998 14C14.9998 13.7348 14.8945 13.4805 14.707 13.293L13 11.5859V7C13 6.73478 12.8946 6.48043 12.7071 6.29289C12.5196 6.10536 12.2652 6 12 6Z" fill="black"/>
<path d="M19.9043 13.9941C19.4972 13.9941 19.0948 14.0748 18.7188 14.2305C18.3427 14.3863 18.0007 14.6145 17.7129 14.9023L14.2969 18.2891C14.2028 18.3821 14.1282 18.4928 14.0772 18.6148C14.0263 18.7368 14 18.8678 14 19V22C14 22.2652 14.1054 22.5195 14.2929 22.7071C14.4805 22.8946 14.7348 23 15 23H18C18.1322 23 18.2632 22.9737 18.3852 22.9228C18.5072 22.8718 18.6179 22.7972 18.7109 22.7031L22.0977 19.2871L22.0997 19.2832C22.386 18.996 22.6144 18.6561 22.7696 18.2813C22.9255 17.905 23.0059 17.5028 23.0059 17.0957C23.0059 16.6887 22.9255 16.2845 22.7696 15.9082C22.6138 15.532 22.3855 15.1902 22.0977 14.9024C21.8099 14.6145 21.4678 14.3863 21.0918 14.2305C20.7158 14.0748 20.3114 13.9941 19.9043 13.9941ZM19.9043 15.9941C20.0488 15.9941 20.1927 16.0229 20.3262 16.0781C20.4598 16.1335 20.5814 16.2142 20.6836 16.3164C20.7858 16.4186 20.8667 16.5405 20.9219 16.6738C20.9771 16.8072 21.0059 16.9512 21.0059 17.0957C21.0059 17.2402 20.9771 17.3823 20.9219 17.5156C20.8667 17.649 20.7858 17.7709 20.6836 17.873C20.6823 17.8743 20.681 17.8756 20.6797 17.8769L17.584 21H16V19.416L19.123 16.3203C19.1244 16.319 19.1257 16.3177 19.1269 16.3164C19.2291 16.2142 19.3508 16.1335 19.4844 16.0781C19.6179 16.0229 19.7598 15.9941 19.9043 15.9941Z" fill="black"/>
</g>
</g>
<defs>
<clipPath id="clip0_19819_443">
<rect width="24" height="24" fill="white"/>
</clipPath>
</defs>
</svg>
