<svg width="24" height="24" viewBox="0 0 24 24" fill="none" xmlns="http://www.w3.org/2000/svg">
<g clip-path="url(#clip0_19819_457)">
<mask id="mask0_19819_457" style="mask-type:luminance" maskUnits="userSpaceOnUse" x="0" y="0" width="24" height="24">
<path d="M24 0H0V24H24V0Z" fill="white"/>
</mask>
<g mask="url(#mask0_19819_457)">
<path d="M13.209 2.0722C12.214 1.95105 11.2004 1.97988 10.2031 2.16204C8.20858 2.52638 6.37073 3.48968 4.93555 4.92181C3.50035 6.35394 2.53459 8.18788 2.16602 10.1816C1.79744 12.1753 2.04473 14.2353 2.87305 16.0859C3.70136 17.9364 5.0723 19.4915 6.80469 20.5449C8.53708 21.5981 10.55 22.0987 12.5742 21.9824C12.8385 21.9667 13.0859 21.8469 13.262 21.6492C13.4381 21.4515 13.5286 21.192 13.5137 20.9277C13.4986 20.663 13.379 20.4152 13.1812 20.2386C12.9834 20.0621 12.7237 19.9713 12.459 19.9863C10.8394 20.0793 9.22987 19.6786 7.84375 18.8359C6.45762 17.993 5.35999 16.7481 4.69727 15.2675C4.03454 13.7869 3.83791 12.1401 4.13281 10.5449C4.4277 8.94973 5.20133 7.48366 6.34961 6.33782C7.49788 5.19199 8.96667 4.42229 10.5625 4.13079C12.1582 3.8393 13.804 4.03913 15.2832 4.70501C16.7625 5.37089 18.004 6.46948 18.8438 7.85735C19.6835 9.24524 20.0828 10.8552 19.9863 12.4745C19.9703 12.7392 20.0601 12.9994 20.2359 13.198C20.4117 13.3965 20.6591 13.517 20.9238 13.5331C21.055 13.5411 21.1865 13.523 21.3108 13.4801C21.435 13.4372 21.5496 13.3702 21.6479 13.2829C21.7462 13.1956 21.8264 13.0899 21.8838 12.9716C21.9412 12.8533 21.9747 12.7249 21.9824 12.5937C22.103 10.5698 21.6063 8.55685 20.5566 6.8222C19.507 5.08754 17.9544 3.71305 16.1055 2.88079C15.1811 2.46466 14.204 2.19334 13.209 2.0722Z" fill="black"/>
<path d="M16 18C15.7348 18 15.4804 18.1054 15.2929 18.2929C15.1054 18.4804 15 18.7348 15 19C15 19.2652 15.1054 19.5196 15.2929 19.7071C15.4804 19.8946 15.7348 20 16 20H22C22.2652 20 22.5196 19.8946 22.7071 19.7071C22.8946 19.5196 23 19.2652 23 19C23 18.7348 22.8946 18.4804 22.7071 18.2929C22.5196 18.1054 22.2652 18 22 18H16Z" fill="black"/>
<path d="M19 15C18.7348 15 18.4804 15.1054 18.2929 15.2929C18.1054 15.4804 18 15.7348 18 16V22C18 22.2652 18.1054 22.5196 18.2929 22.7071C18.4804 22.8946 18.7348 23 19 23C19.2652 23 19.5196 22.8946 19.7071 22.7071C19.8946 22.5196 20 22.2652 20 22V16C20 15.7348 19.8946 15.4804 19.7071 15.2929C19.5196 15.1054 19.2652 15 19 15Z" fill="black"/>
<path d="M12 6C11.7348 6 11.4804 6.10536 11.2929 6.29289C11.1054 6.48043 11 6.73478 11 7V12C11.0001 12.2652 11.1054 12.5195 11.293 12.707L14.293 15.707C14.4805 15.8945 14.7348 15.9998 15 15.9998C15.2652 15.9998 15.5195 15.8945 15.707 15.707C15.8945 15.5195 15.9998 15.2652 15.9998 15C15.9998 14.7348 15.8945 14.4805 15.707 14.293L13 11.5859V7C13 6.73478 12.8946 6.48043 12.7071 6.29289C12.5196 6.10536 12.2652 6 12 6Z" fill="black"/>
</g>
</g>
<defs>
<clipPath id="clip0_19819_457">
<rect width="24" height="24" fill="white"/>
</clipPath>
</defs>
</svg>
