<svg width="24" height="24" viewBox="0 0 24 24" fill="none" xmlns="http://www.w3.org/2000/svg">
<g clip-path="url(#clip0_19819_466)">
<mask id="mask0_19819_466" style="mask-type:luminance" maskUnits="userSpaceOnUse" x="0" y="0" width="24" height="24">
<path d="M24 0H0V24H24V0Z" fill="white"/>
</mask>
<g mask="url(#mask0_19819_466)">
<path d="M13.4765 2.10949C12.4581 1.9574 11.4171 1.96302 10.3887 2.13097C8.33174 2.46688 6.42966 3.43748 4.95116 4.90637C3.47266 6.37524 2.48994 8.26973 2.14061 10.3243C1.79128 12.379 2.09393 14.4923 3.00389 16.3673C3.91388 18.2423 5.38653 19.7865 7.21678 20.7833C9.04708 21.7802 11.1441 22.1785 13.2129 21.9259C13.476 21.8937 13.7155 21.7583 13.8788 21.5496C14.0422 21.3408 14.116 21.0757 14.084 20.8126C14.068 20.6822 14.0265 20.5561 13.9618 20.4417C13.8971 20.3273 13.8105 20.2268 13.7069 20.1459C13.6033 20.065 13.4848 20.0053 13.3582 19.9702C13.2315 19.9352 13.0992 19.9254 12.9687 19.9415C11.3135 20.1437 9.63823 19.8231 8.17381 19.0255C6.70937 18.2279 5.53079 16.9944 4.80272 15.4943C4.07464 13.994 3.83376 12.3042 4.11327 10.6603C4.39276 9.0164 5.17837 7.49958 6.36131 6.32433C7.54427 5.14908 9.06517 4.37434 10.7109 4.10558C12.3565 3.83683 14.0437 4.08843 15.539 4.82629C17.0344 5.56414 18.2628 6.75122 19.0508 8.22082C19.8387 9.69041 20.1466 11.3677 19.9336 13.0216C19.9166 13.1521 19.9255 13.2846 19.9598 13.4116C19.9941 13.5386 20.0532 13.6575 20.1336 13.7617C20.2139 13.8658 20.3141 13.9531 20.4282 14.0185C20.5424 14.0839 20.6683 14.1261 20.7988 14.1427C20.9291 14.1594 21.0614 14.1503 21.1882 14.1158C21.315 14.0814 21.4337 14.0223 21.5376 13.9419C21.6416 13.8616 21.7287 13.7616 21.7939 13.6475C21.8592 13.5335 21.9013 13.4078 21.918 13.2775C22.1842 11.2104 21.7973 9.11225 20.8125 7.27551C19.8277 5.43875 18.2928 3.95552 16.4238 3.03332C15.4893 2.57222 14.495 2.26158 13.4765 2.10949Z" fill="black"/>
<path d="M12 6C11.7348 6 11.4804 6.10536 11.2929 6.29289C11.1054 6.48043 11 6.73478 11 7V12C11.0001 12.2652 11.1054 12.5195 11.293 12.707L13.293 14.707C13.4805 14.8945 13.7348 14.9998 14 14.9998C14.2652 14.9998 14.5195 14.8945 14.707 14.707C14.8945 14.5195 14.9998 14.2652 14.9998 14C14.9998 13.7348 14.8945 13.4805 14.707 13.293L13 11.5859V7C13 6.73478 12.8946 6.48043 12.7071 6.29289C12.5196 6.10536 12.2652 6 12 6Z" fill="black"/>
<path d="M16.2929 16.2933C16.1055 16.4808 16.0001 16.7352 16.0001 17.0003C16.0001 17.2655 16.1055 17.5198 16.2929 17.7074L21.2929 22.7074C21.4805 22.8949 21.7348 23.0002 22 23.0002C22.2652 23.0002 22.5195 22.8949 22.707 22.7074C22.8945 22.5198 22.9998 22.2655 22.9998 22.0003C22.9998 21.7352 22.8945 21.4808 22.707 21.2933L17.707 16.2933C17.5195 16.1058 17.2652 16.0005 17 16.0005C16.7348 16.0005 16.4805 16.1058 16.2929 16.2933Z" fill="black"/>
<path d="M21.2929 16.2933L16.2929 21.2933C16.1055 21.4808 16.0001 21.7352 16.0001 22.0003C16.0001 22.2655 16.1055 22.5198 16.2929 22.7074C16.4805 22.8949 16.7348 23.0002 17 23.0002C17.2652 23.0002 17.5195 22.8949 17.707 22.7074L22.707 17.7074C22.8945 17.5198 22.9998 17.2655 22.9998 17.0003C22.9998 16.7352 22.8945 16.4808 22.707 16.2933C22.5195 16.1058 22.2652 16.0005 22 16.0005C21.7348 16.0005 21.4805 16.1058 21.2929 16.2933Z" fill="black"/>
</g>
</g>
<defs>
<clipPath id="clip0_19819_466">
<rect width="24" height="24" fill="white"/>
</clipPath>
</defs>
</svg>
