<svg width="24" height="24" viewBox="0 0 24 24" fill="none" xmlns="http://www.w3.org/2000/svg">
<g clip-path="url(#clip0_19819_475)">
<mask id="mask0_19819_475" style="mask-type:luminance" maskUnits="userSpaceOnUse" x="0" y="0" width="24" height="24">
<path d="M24 0H0V24H24V0Z" fill="white"/>
</mask>
<g mask="url(#mask0_19819_475)">
<path d="M17.2929 5.29282L5.29294 17.2928C5.10545 17.4803 5.00012 17.7347 5.00012 17.9998C5.00012 18.265 5.10545 18.5194 5.29294 18.7069C5.48047 18.8944 5.73479 18.9997 5.99997 18.9997C6.26515 18.9997 6.51947 18.8944 6.707 18.7069L18.707 6.70688C18.8945 6.51935 18.9998 6.26503 18.9998 5.99985C18.9998 5.73467 18.8945 5.48035 18.707 5.29282C18.5195 5.10533 18.2652 5 18 5C17.7348 5 17.4805 5.10533 17.2929 5.29282Z" fill="black"/>
<path d="M5.99997 5C5.73477 5.00004 5.48045 5.10542 5.29294 5.29297C5.10545 5.4805 5.00012 5.73482 5.00012 6C5.00012 6.26518 5.10545 6.5195 5.29294 6.70703L17.2929 18.707C17.4805 18.8945 17.7348 18.9998 18 18.9998C18.2652 18.9998 18.5195 18.8945 18.707 18.707C18.8945 18.5195 18.9998 18.2652 18.9998 18C18.9998 17.7348 18.8945 17.4805 18.707 17.293L6.707 5.29297C6.5195 5.10542 6.26517 5.00004 5.99997 5Z" fill="black"/>
</g>
</g>
<defs>
<clipPath id="clip0_19819_475">
<rect width="24" height="24" fill="white"/>
</clipPath>
</defs>
</svg>
