<svg width="24" height="24" viewBox="0 0 24 24" fill="none" xmlns="http://www.w3.org/2000/svg">
<g clip-path="url(#clip0_19819_482)">
<mask id="mask0_19819_482" style="mask-type:luminance" maskUnits="userSpaceOnUse" x="0" y="0" width="24" height="24">
<path d="M24 0H0V24H24V0Z" fill="white"/>
</mask>
<g mask="url(#mask0_19819_482)">
<path d="M11.248 4.0586C10.4076 4.2067 9.6044 4.50248 8.88281 4.9336C7.65588 5.66667 6.82417 6.80706 6.3457 8.0879C5.30635 8.17264 4.29558 8.46443 3.44922 9.07618C2.41256 9.82546 1.6699 10.9044 1.36328 12.1309C1.05666 13.3574 1.2068 14.6521 1.7832 15.7813C2.3596 16.9104 3.32284 17.8033 4.5 18.3164C4.62042 18.3689 4.74999 18.3971 4.88133 18.3995C5.01266 18.4019 5.14318 18.3784 5.26543 18.3303C5.38767 18.2823 5.49925 18.2106 5.59379 18.1194C5.68833 18.0282 5.76398 17.9193 5.81641 17.7988C5.86888 17.6784 5.89713 17.5488 5.89951 17.4175C5.9019 17.2862 5.8784 17.1557 5.83033 17.0334C5.78227 16.9112 5.71059 16.7996 5.61939 16.705C5.52819 16.6105 5.41927 16.5349 5.29883 16.4824C4.53415 16.1491 3.9244 15.5782 3.56445 14.8731C3.20451 14.168 3.11501 13.374 3.30469 12.6152C3.49437 11.8565 3.95326 11.1766 4.61914 10.6953C5.28502 10.214 6.11642 9.96618 6.96094 10C7.1949 10.0093 7.4247 9.93616 7.6103 9.7934C7.79589 9.65063 7.92551 9.44727 7.97656 9.21876C8.20738 8.19044 8.88756 7.26138 9.91016 6.6504C10.4164 6.34794 10.9897 6.13609 11.5957 6.0293C12.2016 5.92253 12.8265 5.92319 13.4316 6.03321C14.0368 6.14323 14.6092 6.35899 15.1133 6.66407C15.6173 6.96914 16.0423 7.35781 16.3691 7.80079C16.6958 8.24375 16.9184 8.73268 17.0293 9.2422C17.1401 9.75169 17.1377 10.2724 17.0234 10.7813C16.9906 10.9276 16.9912 11.0794 17.025 11.2255C17.0588 11.3716 17.1251 11.5083 17.2189 11.6253C17.3126 11.7423 17.4315 11.8368 17.5667 11.9016C17.702 11.9665 17.85 12.0001 18 12H19C19.6633 12 20.2984 12.2634 20.7676 12.7324C21.2366 13.2016 21.5 13.8367 21.5 14.5C21.5 15.1634 21.2367 15.7984 20.7676 16.2676C20.2985 16.7367 19.6634 17 19 17C18.7348 17 18.4804 17.1054 18.2929 17.2929C18.1054 17.4804 18 17.7348 18 18C18 18.2652 18.1054 18.5196 18.2929 18.7071C18.4804 18.8947 18.7348 19 19 19C20.193 19 21.3379 18.5253 22.1816 17.6816C23.0251 16.838 23.5 15.6932 23.5 14.5C23.5 13.3069 23.0252 12.162 22.1816 11.3184C21.338 10.4748 20.1931 10 19 10H18.9805C18.9805 9.6033 19.0693 9.20669 18.9844 8.81641C18.812 8.0243 18.4688 7.27535 17.9805 6.61329C17.4921 5.95125 16.8673 5.38825 16.1484 4.95313C15.4295 4.51805 14.6285 4.21904 13.7891 4.06641C12.9496 3.9138 12.0884 3.91052 11.248 4.0586Z" fill="black"/>
<path d="M12 12C11.7348 12 11.4804 12.1054 11.2929 12.2929C11.1054 12.4804 11 12.7348 11 13V22C11 22.2652 11.1054 22.5196 11.2929 22.7071C11.4804 22.8946 11.7348 23 12 23C12.2652 23 12.5196 22.8946 12.7071 22.7071C12.8946 22.5196 13 22.2652 13 22V13C13 12.7348 12.8946 12.4804 12.7071 12.2929C12.5196 12.1054 12.2652 12 12 12Z" fill="black"/>
<path d="M9 18C8.7348 18 8.48048 18.1054 8.29297 18.293C8.10548 18.4805 8.00015 18.7348 8.00015 19C8.00015 19.2652 8.10548 19.5195 8.29297 19.707L11.293 22.707C11.4805 22.8945 11.7348 22.9998 12 22.9998C12.2652 22.9998 12.5195 22.8945 12.707 22.707L15.707 19.707C15.8945 19.5195 15.9998 19.2652 15.9998 19C15.9998 18.7348 15.8945 18.4805 15.707 18.293C15.5195 18.1055 15.2652 18.0002 15 18.0002C14.7348 18.0002 14.4805 18.1055 14.293 18.293L12 20.5859L9.70703 18.293C9.51953 18.1054 9.2652 18 9 18Z" fill="black"/>
</g>
</g>
<defs>
<clipPath id="clip0_19819_482">
<rect width="24" height="24" fill="white"/>
</clipPath>
</defs>
</svg>
