<svg width="24" height="24" viewBox="0 0 24 24" fill="none" xmlns="http://www.w3.org/2000/svg">
<g clip-path="url(#clip0_19819_497)">
<mask id="mask0_19819_497" style="mask-type:luminance" maskUnits="userSpaceOnUse" x="0" y="0" width="24" height="24">
<path d="M24 0H0V24H24V0Z" fill="white"/>
</mask>
<g mask="url(#mask0_19819_497)">
<path d="M11.248 4.0586C10.4077 4.20669 9.60441 4.50243 8.88281 4.9336C7.64275 5.67451 6.79989 6.82837 6.32617 8.12696C5.07961 8.27383 3.88925 8.72833 2.98242 9.59571C1.90896 10.6225 1.29492 12.0296 1.29492 13.5C1.29492 14.9704 1.90896 16.3775 2.98242 17.4043C4.05588 18.4311 5.49896 19 7 19C7.26522 19 7.51957 18.8946 7.70711 18.7071C7.89464 18.5196 8 18.2652 8 18C8 17.7348 7.89464 17.4804 7.70711 17.2929C7.51957 17.1054 7.26522 17 7 17C6.00558 17 5.05631 16.62 4.36523 15.959C3.67416 15.298 3.29492 14.4166 3.29492 13.5C3.29492 12.5834 3.67416 11.702 4.36523 11.041C5.05632 10.38 6.00559 10 7 10C7.22733 10.0002 7.44794 9.92287 7.62546 9.78085C7.80298 9.63884 7.92682 9.44058 7.97656 9.21875C8.20738 8.19044 8.88757 7.26137 9.91016 6.6504C10.4163 6.34798 10.9898 6.13609 11.5957 6.0293C12.2017 5.92252 12.8265 5.92318 13.4316 6.03321C14.0367 6.14323 14.6094 6.35906 15.1133 6.66407C15.6173 6.96912 16.0425 7.35789 16.3691 7.80079C16.6959 8.2437 16.9184 8.73268 17.0293 9.2422C17.1401 9.75169 17.1377 10.2724 17.0234 10.7813C16.9906 10.9276 16.9912 11.0794 17.025 11.2255C17.0588 11.3716 17.1251 11.5083 17.2189 11.6253C17.3126 11.7423 17.4315 11.8368 17.5667 11.9016C17.702 11.9665 17.85 12.0001 18 12H19C19.6633 12 20.2986 12.2634 20.7676 12.7324C21.2367 13.2016 21.5 13.8367 21.5 14.5C21.5 15.1634 21.2368 15.7984 20.7676 16.2676C20.2986 16.7366 19.6634 17 19 17H18C17.7348 17 17.4804 17.1054 17.2929 17.2929C17.1054 17.4804 17 17.7348 17 18C17 18.2652 17.1054 18.5196 17.2929 18.7071C17.4804 18.8946 17.7348 19 18 19H19C20.193 19 21.338 18.5254 22.1816 17.6816C23.0253 16.838 23.5 15.6932 23.5 14.5C23.5 13.3069 23.0253 12.162 22.1816 11.3184C21.3381 10.4748 20.1931 10 19 10H18.9805C18.9805 9.6033 19.0693 9.20669 18.9844 8.81641C18.812 8.02429 18.467 7.27539 17.9785 6.61329C17.4902 5.95117 16.8674 5.38826 16.1484 4.95313C15.4295 4.51798 14.6284 4.21903 13.7891 4.06641C12.9496 3.9138 12.0884 3.91052 11.248 4.0586Z" fill="black"/>
<path d="M11.293 11.2928L8.29297 14.2928C8.10548 14.4803 8.00015 14.7346 8.00015 14.9998C8.00015 15.265 8.10548 15.5193 8.29297 15.7068C8.4805 15.8943 8.73482 15.9997 9 15.9997C9.26518 15.9997 9.5195 15.8943 9.70703 15.7068L12 13.4139L14.293 15.7068C14.4805 15.8943 14.7348 15.9997 15 15.9997C15.2652 15.9997 15.5195 15.8943 15.707 15.7068C15.8945 15.5193 15.9998 15.265 15.9998 14.9998C15.9998 14.7346 15.8945 14.4803 15.707 14.2928L12.707 11.2928C12.5195 11.1053 12.2652 11 12 11C11.7348 11 11.4805 11.1053 11.293 11.2928Z" fill="black"/>
<path d="M12 11C11.7348 11 11.4804 11.1054 11.2929 11.2929C11.1054 11.4804 11 11.7348 11 12V21C11 21.2652 11.1054 21.5196 11.2929 21.7071C11.4804 21.8946 11.7348 22 12 22C12.2652 22 12.5196 21.8946 12.7071 21.7071C12.8946 21.5196 13 21.2652 13 21V12C13 11.7348 12.8946 11.4804 12.7071 11.2929C12.5196 11.1054 12.2652 11 12 11Z" fill="black"/>
</g>
</g>
<defs>
<clipPath id="clip0_19819_497">
<rect width="24" height="24" fill="white"/>
</clipPath>
</defs>
</svg>
