<svg width="24" height="24" viewBox="0 0 24 24" fill="none" xmlns="http://www.w3.org/2000/svg">
<g clip-path="url(#clip0_19819_490)">
<mask id="mask0_19819_490" style="mask-type:luminance" maskUnits="userSpaceOnUse" x="0" y="0" width="24" height="24">
<path d="M24 0H0V24H24V0Z" fill="white"/>
</mask>
<g mask="url(#mask0_19819_490)">
<path d="M13.3828 4.11338C12.2871 3.91236 11.1379 3.97105 10.041 4.30479C9.73513 4.39773 9.44267 4.51108 9.16406 4.63877C9.04465 4.69351 8.93718 4.77123 8.84781 4.86751C8.75845 4.96379 8.68892 5.07673 8.64321 5.19989C8.59751 5.32304 8.57651 5.454 8.58143 5.58527C8.58635 5.71654 8.61708 5.84555 8.67188 5.96494C8.78243 6.20562 8.98394 6.39261 9.2322 6.48489C9.48046 6.57716 9.75519 6.56718 9.99609 6.45713C10.1975 6.36483 10.4089 6.28391 10.623 6.21885C12.1892 5.74233 13.9359 6.06936 15.1504 7.04307H15.1524C16.3677 8.01496 16.8779 9.43201 16.5704 10.8146C16.5379 10.9608 16.5387 11.1124 16.5727 11.2582C16.6067 11.4041 16.673 11.5404 16.7667 11.6572C16.8605 11.774 16.9792 11.8683 17.1143 11.933C17.2493 11.9978 17.3972 12.0314 17.5469 12.0314H18.5352C19.9046 12.0314 21 13.1285 21 14.5177C21 15.2079 20.7279 15.8198 20.2852 16.2696C20.099 16.4585 19.9954 16.7135 19.9973 16.9787C19.9991 17.2439 20.1062 17.4975 20.295 17.6837C20.4841 17.8696 20.7393 17.9729 21.0045 17.9707C21.2696 17.9685 21.5231 17.861 21.7091 17.672C22.5063 16.8618 23 15.7415 23 14.5177C23 12.0548 20.9918 10.0313 18.5352 10.0313H18.4355C18.4232 8.30622 17.8225 6.61932 16.4023 5.48252C15.5216 4.77638 14.4785 4.3144 13.3828 4.11338ZM7.91406 6.58408C7.69387 6.4366 7.42413 6.38256 7.16412 6.43383C6.9041 6.4851 6.67507 6.63749 6.52734 6.85752C6.26176 7.25348 6.1219 7.71927 5.95898 8.17197C3.20243 8.51979 1 10.723 1 13.5177C1 16.5551 3.56488 18.9992 6.65625 19.004H18C18.2652 19.004 18.5196 18.8986 18.7071 18.7111C18.8946 18.5236 19 18.2692 19 18.004C19 17.7388 18.8946 17.4844 18.7071 17.2969C18.5196 17.1094 18.2652 17.004 18 17.004H6.6582H6.65625C4.60459 16.9998 3 15.4317 3 13.5177C3 11.6043 4.60447 10.0353 6.65625 10.0353C6.88358 10.0354 7.10419 9.95812 7.28171 9.8161C7.45923 9.67409 7.58307 9.47583 7.63281 9.25401C7.73474 8.7977 7.92321 8.36679 8.1875 7.97276C8.26083 7.86365 8.31193 7.74116 8.33788 7.61229C8.36382 7.48343 8.3641 7.3507 8.33871 7.22173C8.31331 7.09275 8.26273 6.97004 8.18987 6.86063C8.117 6.75121 8.02328 6.65724 7.91406 6.58408Z" fill="black"/>
<path d="M2.99997 2C2.73477 2.00004 2.48045 2.10542 2.29294 2.29297C2.10545 2.4805 2.00012 2.73482 2.00012 3C2.00012 3.26518 2.10545 3.5195 2.29294 3.70703L20.2929 21.707C20.4805 21.8945 20.7348 21.9998 21 21.9998C21.2652 21.9998 21.5195 21.8945 21.707 21.707C21.8945 21.5195 21.9998 21.2652 21.9998 21C21.9998 20.7348 21.8945 20.4805 21.707 20.293L3.707 2.29297C3.5195 2.10542 3.26517 2.00004 2.99997 2Z" fill="black"/>
</g>
</g>
<defs>
<clipPath id="clip0_19819_490">
<rect width="24" height="24" fill="white"/>
</clipPath>
</defs>
</svg>
