<svg width="24" height="24" viewBox="0 0 24 24" fill="none" xmlns="http://www.w3.org/2000/svg">
<g clip-path="url(#clip0_19819_505)">
<mask id="mask0_19819_505" style="mask-type:luminance" maskUnits="userSpaceOnUse" x="0" y="0" width="24" height="24">
<path d="M24 0H0V24H24V0Z" fill="white"/>
</mask>
<g mask="url(#mask0_19819_505)">
<path d="M12 2C10.6868 2 9.38707 2.25918 8.17383 2.76172C6.96059 3.26427 5.85827 4.00111 4.92969 4.92969C4.00111 5.85827 3.26427 6.96059 2.76172 8.17383C2.25918 9.38707 2 10.6868 2 12C2 13.3132 2.25919 14.6129 2.76172 15.8262C3.26427 17.0394 4.00115 18.1417 4.92969 19.0703C5.85827 19.9989 6.96061 20.7357 8.17383 21.2383C9.38707 21.7408 10.6868 22 12 22C13.3132 22 14.6129 21.7408 15.8262 21.2383C17.0394 20.7357 18.1417 19.9988 19.0703 19.0703C19.9988 18.1417 20.7357 17.0394 21.2383 15.8262C21.7408 14.6129 22 13.3132 22 12C22 10.6868 21.7408 9.38707 21.2383 8.17383C20.7357 6.96061 19.9989 5.85827 19.0703 4.92969C18.1417 4.00115 17.0394 3.26427 15.8262 2.76172C14.6129 2.25919 13.3132 2 12 2ZM12 4C13.0506 4 14.0918 4.20732 15.0625 4.60938C16.0325 5.01141 16.9137 5.60122 17.6562 6.34375C18.3991 7.08663 18.9886 7.96882 19.3906 8.93945C19.7927 9.91007 20 10.9494 20 12C20 13.0499 19.7922 14.0903 19.3906 15.0605C18.9886 16.0311 18.3991 16.9133 17.6562 17.6562C16.9133 18.3991 16.0311 18.9886 15.0605 19.3906C14.0903 19.7922 13.0499 20 12 20C10.9494 20 9.91007 19.7927 8.93945 19.3906C7.96882 18.9886 7.08663 18.3991 6.34375 17.6562C5.60122 16.9137 5.01141 16.0325 4.60938 15.0625V15.0605C4.20781 14.0903 4 13.0499 4 12C4 10.9494 4.20733 9.91007 4.60938 8.93945C5.01143 7.96883 5.60087 7.08663 6.34375 6.34375C7.08663 5.60087 7.96883 5.01143 8.93945 4.60938C9.91007 4.20733 10.9494 4 12 4Z" fill="black"/>
<path d="M11 7.00022C10.2047 7.00022 9.44126 7.31677 8.87891 7.87913C8.31655 8.44147 8 9.20496 8 10.0002C8 10.7955 8.31659 11.559 8.87891 12.1213C9.44127 12.6837 10.2048 13.0002 11 13.0002H13C13.2656 13.0002 13.5192 13.1053 13.707 13.2932C13.8948 13.4809 14 13.7345 14 14.0002C14 14.2658 13.8949 14.5194 13.707 14.7073C13.5192 14.8951 13.2656 15.0002 13 15.0002H11C10.9889 15 10.9779 15 10.9668 15.0002C10.7855 15.0063 10.6058 14.9633 10.4473 14.8752C10.2888 14.7872 10.157 14.6574 10.0664 14.5002C9.934 14.2706 9.71581 14.1029 9.4598 14.034C9.2038 13.9652 8.93093 14.0008 8.70117 14.133C8.58719 14.1986 8.48726 14.286 8.4071 14.3902C8.32694 14.4945 8.26813 14.6135 8.23402 14.7405C8.19992 14.8675 8.19119 14.9999 8.20834 15.1303C8.22549 15.2607 8.26819 15.3864 8.33398 15.5002C8.60566 15.9714 9.00087 16.3591 9.47656 16.6233C9.95217 16.8876 10.4895 17.0185 11.0332 17.0002H13C13.7952 17.0002 14.5587 16.6837 15.1211 16.1213C15.6834 15.559 16 14.7955 16 14.0002C16 13.2049 15.6836 12.4414 15.1211 11.8791C14.5587 11.3168 13.7952 11.0002 13 11.0002H11C10.7344 11.0002 10.4807 10.895 10.293 10.7073C10.1051 10.5194 10 10.2658 10 10.0002C10 9.73462 10.1052 9.48099 10.293 9.29319C10.4808 9.1054 10.7345 9.00022 11 9.00022H13C13.0111 9.0004 13.0221 9.0004 13.0332 9.00022C13.2145 8.99412 13.3941 9.03709 13.5527 9.12522C13.7113 9.21329 13.8428 9.34283 13.9336 9.50022C14.066 9.72989 14.2842 9.89758 14.5402 9.96643C14.7962 10.0353 15.0691 9.99967 15.2988 9.86741C15.4128 9.80184 15.5127 9.71444 15.5929 9.61021C15.6731 9.50598 15.7319 9.38696 15.766 9.25997C15.8001 9.13298 15.8088 9.00051 15.7917 8.87014C15.7745 8.73977 15.7318 8.61407 15.666 8.50022C15.3944 8.02913 14.9991 7.6414 14.5234 7.37717C14.0479 7.11301 13.5105 6.98192 12.9668 7.00022H11Z" fill="black"/>
<path d="M12 6C11.7348 6 11.4804 6.10536 11.2929 6.29289C11.1054 6.48043 11 6.73478 11 7V17C11 17.2652 11.1054 17.5196 11.2929 17.7071C11.4804 17.8946 11.7348 18 12 18C12.2652 18 12.5196 17.8946 12.7071 17.7071C12.8946 17.5196 13 17.2652 13 17V7C13 6.73478 12.8946 6.48043 12.7071 6.29289C12.5196 6.10536 12.2652 6 12 6Z" fill="black"/>
</g>
</g>
<defs>
<clipPath id="clip0_19819_505">
<rect width="24" height="24" fill="white"/>
</clipPath>
</defs>
</svg>
