<?xml version="1.0" encoding="UTF-8" standalone="no"?>
<svg
   width="24"
   height="24"
   viewBox="0 0 24 24"
   fill="none"
   version="1.1"
   id="svg2"
   sodipodi:docname="currency-dolar.svg"
   inkscape:version="1.3.2 (091e20e, 2023-11-25)"
   xmlns:inkscape="http://www.inkscape.org/namespaces/inkscape"
   xmlns:sodipodi="http://sodipodi.sourceforge.net/DTD/sodipodi-0.dtd"
   xmlns="http://www.w3.org/2000/svg"
   xmlns:svg="http://www.w3.org/2000/svg">
  <defs
     id="defs2" />
  <sodipodi:namedview
     id="namedview2"
     pagecolor="#505050"
     bordercolor="#eeeeee"
     borderopacity="1"
     inkscape:showpageshadow="0"
     inkscape:pageopacity="0"
     inkscape:pagecheckerboard="0"
     inkscape:deskcolor="#505050"
     inkscape:zoom="9.8333333"
     inkscape:cx="11.949153"
     inkscape:cy="12"
     inkscape:window-width="1504"
     inkscape:window-height="449"
     inkscape:window-x="0"
     inkscape:window-y="25"
     inkscape:window-maximized="0"
     inkscape:current-layer="svg2" />
  <path
     style="color:#000000;fill:#000000;stroke-linecap:round;stroke-linejoin:round;-inkscape-stroke:none"
     d="M 10,5 C 8.9395194,5 7.9217482,5.4220018 7.171875,6.171875 6.4220018,6.9217482 6,7.9395194 6,9 6,10.060481 6.4219987,11.078262 7.171875,11.828125 7.9217349,12.577972 8.9394942,13 10,13 h 4 c 0.530726,0 1.038734,0.210609 1.414063,0.585938 C 15.789391,13.961266 16,14.469274 16,15 16,15.530726 15.789391,16.038734 15.414063,16.414062 15.038734,16.789391 14.530726,17 14,17 H 10.042969 C 9.6441051,16.982799 9.2603437,16.847052 8.9394531,16.609375 8.6184675,16.371561 8.3749165,16.044584 8.2421875,15.667969 a 1,1 0 0 0 -1.2753906,-0.611328 1,1 0 0 0 -0.609375,1.27539 c 0.2653706,0.752983 0.7492516,1.409581 1.390625,1.884766 C 8.3895153,18.691919 9.1593961,18.965601 9.9570313,19 A 1.0001,1.0001 0 0 0 10,19 h 4 c 1.060472,0 2.078254,-0.422004 2.828125,-1.171875 C 17.577996,17.078254 18,16.060472 18,15 18,13.939528 17.577996,12.921746 16.828125,12.171875 16.078254,11.422004 15.060472,11 14,11 H 10 C 9.4692074,11 8.9612965,10.789415 8.5859375,10.414063 8.210595,10.038727 8,9.5308178 8,9 8,8.4691822 8.2105918,7.9612832 8.5859375,7.5859375 8.9612832,7.2105918 9.4691822,7 10,7 h 3.957031 c 0.398982,0.017225 0.782598,0.1529173 1.103516,0.390625 0.320871,0.237722 0.56462,0.5649608 0.697266,0.9414063 a 1,1 0 0 0 1.27539,0.6113281 1,1 0 0 0 0.609375,-1.2753907 C 17.377224,6.9148954 16.893281,6.2583404 16.251953,5.7832031 15.610472,5.3080515 14.840586,5.034435 14.042969,5 A 1.0001,1.0001 0 0 0 14,5 Z"
     id="path1" />
  <path
     style="color:#000000;fill:#000000;stroke-linecap:round;stroke-linejoin:round;-inkscape-stroke:none"
     d="m 12,2 a 1,1 0 0 0 -1,1 v 3 a 1,1 0 0 0 1,1 1,1 0 0 0 1,-1 V 3 A 1,1 0 0 0 12,2 Z m 0,15 a 1,1 0 0 0 -1,1 v 3 a 1,1 0 0 0 1,1 1,1 0 0 0 1,-1 v -3 a 1,1 0 0 0 -1,-1 z"
     id="path2" />
</svg>
