<?xml version="1.0" encoding="UTF-8" standalone="no"?>
<svg
   width="24"
   height="24"
   viewBox="0 0 24 24"
   fill="none"
   version="1.1"
   id="svg5"
   sodipodi:docname="device-mobile-down.svg"
   inkscape:version="1.3.2 (091e20e, 2023-11-25)"
   xmlns:inkscape="http://www.inkscape.org/namespaces/inkscape"
   xmlns:sodipodi="http://sodipodi.sourceforge.net/DTD/sodipodi-0.dtd"
   xmlns="http://www.w3.org/2000/svg"
   xmlns:svg="http://www.w3.org/2000/svg">
  <defs
     id="defs5" />
  <sodipodi:namedview
     id="namedview5"
     pagecolor="#505050"
     bordercolor="#eeeeee"
     borderopacity="1"
     inkscape:showpageshadow="0"
     inkscape:pageopacity="0"
     inkscape:pagecheckerboard="0"
     inkscape:deskcolor="#505050"
     inkscape:zoom="9.8333333"
     inkscape:cx="11.949153"
     inkscape:cy="12"
     inkscape:window-width="1504"
     inkscape:window-height="449"
     inkscape:window-x="0"
     inkscape:window-y="25"
     inkscape:window-maximized="0"
     inkscape:current-layer="svg5" />
  <path
     style="color:#000000;fill:#000000;stroke-linecap:round;stroke-linejoin:round;-inkscape-stroke:none"
     d="M 8,2 C 7.2047416,2 6.4412465,2.316551 5.8789062,2.8789063 5.316551,3.4412465 5,4.2047416 5,5 v 14 c 0,0.795243 0.3165904,1.558748 0.8789062,2.121094 C 6.4412548,21.683487 7.2047542,22 8,22 h 4.5 a 1,1 0 0 0 1,-1 1,1 0 0 0 -1,-1 H 8 C 7.7343869,20 7.4807594,19.894837 7.2929687,19.707031 7.1051254,19.519178 7,19.265556 7,19 V 5 C 7,4.7343994 7.1051647,4.4807678 7.2929687,4.2929687 7.4807678,4.1051647 7.7343994,4 8,4 h 8 c 0.265556,0 0.519178,0.1051254 0.707031,0.2929687 C 16.894837,4.4807594 17,4.7343869 17,5 v 7 a 1,1 0 0 0 1,1 1,1 0 0 0 1,-1 V 5 C 19,4.2047542 18.683487,3.4412548 18.121094,2.8789063 17.558748,2.3165904 16.795243,2 16,2 Z"
     id="path1" />
  <path
     style="color:#000000;fill:#000000;stroke-linecap:round;stroke-linejoin:round;-inkscape-stroke:none"
     d="m 11,3 a 1,1 0 0 0 -1,1 1,1 0 0 0 1,1 h 2 A 1,1 0 0 0 14,4 1,1 0 0 0 13,3 Z"
     id="path2" />
  <path
     style="color:#000000;fill:#000000;stroke-linecap:round;stroke-linejoin:round;-inkscape-stroke:none"
     d="m 12,16 a 1,1 0 0 0 -1,1 v 0.0098 a 1,1 0 0 0 1,1 1,1 0 0 0 1,-1 V 17 a 1,1 0 0 0 -1,-1 z"
     id="path3" />
  <path
     style="color:#000000;fill:#000000;stroke-linecap:round;stroke-linejoin:round;-inkscape-stroke:none"
     d="m 19,15 a 1,1 0 0 0 -1,1 v 6 a 1,1 0 0 0 1,1 1,1 0 0 0 1,-1 v -6 a 1,1 0 0 0 -1,-1 z"
     id="path4" />
  <path
     style="color:#000000;fill:#000000;stroke-linecap:round;stroke-linejoin:round;-inkscape-stroke:none"
     d="m 15.292969,18.292969 a 1,1 0 0 0 0,1.414062 l 3,3 a 1.0001,1.0001 0 0 0 1.414062,0 l 3,-3 a 1,1 0 0 0 0,-1.414062 1,1 0 0 0 -1.414062,0 L 19,20.585937 16.707031,18.292969 a 1,1 0 0 0 -1.414062,0 z"
     id="path5" />
</svg>
