<svg width="24" height="24" viewBox="0 0 24 24" fill="none" xmlns="http://www.w3.org/2000/svg">
<g clip-path="url(#clip0_19819_513)">
<mask id="mask0_19819_513" style="mask-type:luminance" maskUnits="userSpaceOnUse" x="0" y="0" width="24" height="24">
<path d="M24 0H0V24H24V0Z" fill="white"/>
</mask>
<g mask="url(#mask0_19819_513)">
<path d="M12.0098 2.01172C11.588 2.01172 11.1706 2.09392 10.7812 2.25586C10.3919 2.41778 10.0377 2.65592 9.74023 2.95508L9.04297 3.65234C8.81822 3.87486 8.51557 3.99982 8.19922 4H7.19922C6.35091 4 5.53734 4.33766 4.9375 4.9375C4.33766 5.53734 4 6.35091 4 7.19922V8.19922C3.99982 8.51644 3.87408 8.81997 3.65039 9.04492L2.95312 9.74219C2.65516 10.0391 2.41747 10.3926 2.25586 10.7812C2.09398 11.1706 2.01172 11.588 2.01172 12.0098C2.01172 12.4315 2.09402 12.849 2.25586 13.2383C2.41779 13.6276 2.65593 13.9819 2.95508 14.2793L3.65234 14.9766C3.87484 15.2013 3.99982 15.504 4 15.8203V16.8203C4 17.6686 4.33757 18.4822 4.9375 19.082C5.53734 19.6819 6.3509 20.0195 7.19922 20.0195H8.19922C8.51638 20.0197 8.81996 20.1454 9.04492 20.3691L9.74219 21.0664C10.0391 21.3646 10.3926 21.6021 10.7812 21.7637C11.1706 21.9256 11.588 22.0078 12.0098 22.0078C12.4314 22.0078 12.8489 21.9256 13.2383 21.7637C13.628 21.6017 13.9821 21.3633 14.2793 21.0645L14.9766 20.3672C15.2013 20.1447 15.504 20.0197 15.8203 20.0195H16.8203C17.6686 20.0195 18.4822 19.6819 19.082 19.082C19.682 18.4822 20.0195 17.6687 20.0195 16.8203V15.8203C20.0197 15.504 20.1447 15.2013 20.3672 14.9766L20.3692 14.9746L21.0645 14.2793L21.0665 14.2773C21.3648 13.9802 21.6022 13.6264 21.7638 13.2382C21.9256 12.8489 22.0079 12.4314 22.0079 12.0097C22.0079 11.588 21.9256 11.1705 21.7638 10.7812C21.6022 10.3928 21.3645 10.039 21.0665 9.74209L21.0645 9.74014L20.3692 9.04483L20.3672 9.04288C20.1449 8.81861 20.0195 8.51397 20.0195 8.19922V7.19922C20.0195 6.3509 19.6819 5.53734 19.082 4.9375C18.4822 4.33767 17.6686 4 16.8203 4H15.8203C15.5056 4 15.2009 3.87463 14.9766 3.65234L14.2793 2.95508C13.982 2.65619 13.6278 2.41782 13.2383 2.25586C12.8489 2.09392 12.4315 2.01172 12.0098 2.01172ZM12.0098 4.01172C12.1678 4.01172 12.3247 4.0428 12.4707 4.10352C12.6168 4.16424 12.7496 4.25292 12.8613 4.36523C12.862 4.36589 12.8627 4.36654 12.8633 4.36718L13.5625 5.06641C13.5632 5.06706 13.5638 5.06771 13.5645 5.06836C14.1639 5.66491 14.9759 6 15.8203 6H16.8203C17.1388 6 17.4426 6.12624 17.668 6.35156C17.8933 6.57688 18.0195 6.8806 18.0195 7.19922V8.19922C18.0195 9.04359 18.3546 9.85562 18.9512 10.4551C18.9518 10.4557 18.9525 10.4564 18.9532 10.4571L19.6524 11.1563C19.6531 11.157 19.6537 11.1576 19.6544 11.1583C19.7666 11.27 19.8553 11.4027 19.9161 11.5489C19.9769 11.6951 20.0079 11.8517 20.0079 12.0099C20.0079 12.1681 19.9769 12.3245 19.9161 12.4708C19.8552 12.6171 19.7664 12.7501 19.6544 12.8614C19.6537 12.8621 19.6531 12.8628 19.6524 12.8634L18.9531 13.5625C18.9525 13.5632 18.9518 13.5638 18.9511 13.5645C18.3556 14.1634 18.0199 14.9757 18.0195 15.8204V16.8204C18.0195 17.139 17.8932 17.4428 17.6679 17.668C17.4426 17.8934 17.1388 18.0196 16.8203 18.0196H15.8203C14.9756 18.02 14.1633 18.3557 13.5644 18.9512C13.5637 18.9519 13.5631 18.9526 13.5624 18.9532L12.8632 19.6524C12.8625 19.6531 12.8619 19.6538 12.8612 19.6544C12.7494 19.7668 12.6164 19.8555 12.4706 19.9162C12.3245 19.9769 12.1678 20.008 12.0096 20.008C11.8513 20.008 11.6947 19.9769 11.5487 19.9162C11.4028 19.8555 11.2695 19.7665 11.1581 19.6544C11.1574 19.6538 11.1567 19.6531 11.1561 19.6524L10.4568 18.9532C10.4562 18.9526 10.4555 18.9519 10.4548 18.9512C9.85622 18.3557 9.04581 18.02 8.20117 18.0195C8.20052 18.0195 8.19987 18.0195 8.19922 18.0195H7.19922C6.8806 18.0195 6.57688 17.8933 6.35156 17.668C6.12634 17.4428 6 17.139 6 16.8203V15.8203C5.99952 14.9757 5.66389 14.1633 5.06836 13.5645C5.06771 13.5638 5.06706 13.5631 5.06641 13.5625L4.36719 12.8633C4.36654 12.8626 4.36589 12.8619 4.36524 12.8613C4.25319 12.7499 4.16425 12.6167 4.10352 12.4707C4.0427 12.3244 4.01172 12.168 4.01172 12.0098C4.01172 11.8517 4.04273 11.695 4.10352 11.5488C4.16422 11.4029 4.25291 11.2699 4.36523 11.1582C4.36589 11.1575 4.36654 11.1569 4.36718 11.1562L5.0664 10.457C5.06705 10.4563 5.0677 10.4557 5.06835 10.455C5.66387 9.85621 5.99952 9.04575 6 8.20117C6 8.20052 6 8.19987 6 8.19922V7.19922C6 6.88059 6.12625 6.57688 6.35156 6.35156C6.57688 6.12625 6.88059 6 7.19922 6H8.19922C8.19987 6 8.20052 6 8.20117 6C9.04573 5.99952 9.8562 5.66389 10.4551 5.06836C10.4557 5.06771 10.4564 5.06706 10.4571 5.06641L11.1562 4.36719C11.1569 4.36654 11.1576 4.36589 11.1582 4.36524C11.2696 4.2532 11.4028 4.16428 11.5489 4.10352C11.6949 4.0428 11.8515 4.01172 12.0098 4.01172Z" fill="black"/>
<path d="M15 9C14.7348 9.00004 14.4804 9.10542 14.2929 9.29297L11 12.5859L9.707 11.293C9.51947 11.1055 9.26515 11.0002 8.99997 11.0002C8.73479 11.0002 8.48047 11.1055 8.29294 11.293C8.10545 11.4805 8.00012 11.7348 8.00012 12C8.00012 12.2652 8.10545 12.5195 8.29294 12.707L10.2929 14.707C10.4805 14.8945 10.7348 14.9998 11 14.9998C11.2651 14.9998 11.5195 14.8945 11.707 14.707L15.707 10.707C15.8945 10.5195 15.9998 10.2652 15.9998 10C15.9998 9.73482 15.8945 9.4805 15.707 9.29297C15.5195 9.10542 15.2652 9.00004 15 9Z" fill="black"/>
</g>
</g>
<defs>
<clipPath id="clip0_19819_513">
<rect width="24" height="24" fill="white"/>
</clipPath>
</defs>
</svg>
