<svg width="24" height="24" viewBox="0 0 24 24" fill="none" xmlns="http://www.w3.org/2000/svg">
<g clip-path="url(#clip0_19819_526)">
<mask id="mask0_19819_526" style="mask-type:luminance" maskUnits="userSpaceOnUse" x="0" y="0" width="24" height="24">
<path d="M24 0H0V24H24V0Z" fill="white"/>
</mask>
<g mask="url(#mask0_19819_526)">
<path d="M12 10C11.4698 10 10.9607 10.2111 10.5859 10.5859C10.2111 10.9607 10 11.4698 10 12C10 12.5302 10.2111 13.0393 10.5859 13.4141C10.9607 13.7889 11.4698 14 12 14C12.5302 14 13.0393 13.7889 13.4141 13.4141C13.7889 13.0393 14 12.5302 14 12C14 11.4698 13.7889 10.9607 13.4141 10.5859C13.0393 10.2111 12.5302 10 12 10Z" fill="black"/>
<path d="M12 17C11.4698 17 10.9607 17.2111 10.5859 17.5859C10.2111 17.9607 10 18.4698 10 19C10 19.5302 10.2111 20.0393 10.5859 20.4141C10.9607 20.7889 11.4698 21 12 21C12.5302 21 13.0393 20.7889 13.4141 20.4141C13.7889 20.0393 14 19.5302 14 19C14 18.4698 13.7889 17.9607 13.4141 17.5859C13.0393 17.2111 12.5302 17 12 17Z" fill="black"/>
<path d="M12 3C11.4699 3 10.9608 3.21102 10.5859 3.58594C10.2113 3.96067 10 4.46984 10 5C10 5.53016 10.2113 6.03933 10.5859 6.41406C10.9608 6.78898 11.4699 7 12 7C12.5301 7 13.0392 6.78898 13.4141 6.41406C13.7887 6.03933 14 5.53016 14 5C14 4.46984 13.7887 3.96067 13.4141 3.58594C13.0392 3.21102 12.5301 3 12 3Z" fill="black"/>
</g>
</g>
<defs>
<clipPath id="clip0_19819_526">
<rect width="24" height="24" fill="white"/>
</clipPath>
</defs>
</svg>
