<svg width="24" height="24" viewBox="0 0 24 24" fill="none" xmlns="http://www.w3.org/2000/svg">
<g clip-path="url(#clip0_19819_541)">
<mask id="mask0_19819_541" style="mask-type:luminance" maskUnits="userSpaceOnUse" x="0" y="0" width="24" height="24">
<path d="M24 0H0V24H24V0Z" fill="white"/>
</mask>
<g mask="url(#mask0_19819_541)">
<path d="M3.05274 8.0019C2.78836 7.9878 2.52919 8.07911 2.33203 8.25581C2.13468 8.43297 2.01579 8.68127 2.00151 8.94609C1.98722 9.21091 2.07872 9.47056 2.25586 9.66792C4.82221 12.5198 8.15316 13.9999 12 13.9999C15.8469 13.9999 19.1778 12.5198 21.7441 9.66792C21.9213 9.47056 22.0128 9.21091 21.9985 8.94609C21.9842 8.68127 21.8653 8.43297 21.668 8.25581C21.4706 8.07866 21.211 7.98717 20.9461 8.00145C20.6813 8.01574 20.433 8.13463 20.2559 8.33198C18.0222 10.8141 15.3531 12 12 12C8.64686 12 5.9778 10.8141 3.74414 8.33198C3.65625 8.23422 3.54995 8.15474 3.43131 8.0981C3.31267 8.04146 3.18402 8.00877 3.05274 8.0019Z" fill="black"/>
<path d="M6.04883 10.3653C5.82736 10.2196 5.55709 10.1678 5.29741 10.2212C5.03774 10.2747 4.80993 10.4291 4.66407 10.6505L2.16407 14.4513C2.09199 14.5611 2.04225 14.684 2.01767 14.813C1.99309 14.942 1.99416 15.0745 2.02082 15.2031C2.04749 15.3317 2.09921 15.4538 2.17305 15.5624C2.24689 15.671 2.3414 15.764 2.45117 15.836C2.56095 15.9081 2.68385 15.9579 2.81285 15.9824C2.94185 16.007 3.07443 16.0059 3.20302 15.9793C3.33161 15.9526 3.45368 15.9009 3.56228 15.8271C3.67088 15.7532 3.76387 15.6587 3.83594 15.5489L6.33594 11.7501C6.40801 11.6403 6.45776 11.5174 6.48234 11.3884C6.50691 11.2594 6.50584 11.1269 6.47918 10.9983C6.45252 10.8697 6.40079 10.7476 6.32695 10.639C6.25311 10.5304 6.15861 10.4374 6.04883 10.3653Z" fill="black"/>
<path d="M18.709 10.2207C18.5803 10.1942 18.4477 10.1934 18.3186 10.2182C18.1896 10.243 18.0667 10.293 17.957 10.3653C17.736 10.5114 17.582 10.7394 17.5289 10.999C17.4758 11.2587 17.5279 11.5288 17.6738 11.75L20.166 15.5274C20.3122 15.7484 20.5401 15.9024 20.7998 15.9555C21.0594 16.0086 21.3296 15.9565 21.5508 15.8106C21.7719 15.6644 21.9259 15.4364 21.979 15.1768C22.0321 14.9171 21.9799 14.647 21.834 14.4258L19.3418 10.6485C19.1958 10.4278 18.9682 10.274 18.709 10.2207Z" fill="black"/>
<path d="M9.625 12.0078C9.49471 11.9914 9.36245 12.0008 9.23579 12.0355C9.10913 12.0702 8.99054 12.1295 8.8868 12.2101C8.78306 12.2906 8.6962 12.3908 8.63117 12.5048C8.56614 12.6189 8.52423 12.7447 8.50782 12.875L8.00782 16.875C7.9914 17.0053 8.0008 17.1376 8.0355 17.2642C8.07019 17.3909 8.1295 17.5095 8.21002 17.6132C8.29055 17.717 8.39072 17.8038 8.50482 17.8689C8.61892 17.9339 8.74471 17.9758 8.875 17.9922C9.0053 18.0086 9.13756 17.9992 9.26422 17.9645C9.39088 17.9298 9.50946 17.8705 9.61321 17.79C9.71695 17.7095 9.80381 17.6093 9.86884 17.4952C9.93386 17.3811 9.97578 17.2553 9.99219 17.125L10.4922 13.125C10.5086 12.9947 10.4992 12.8625 10.4645 12.7358C10.4298 12.6092 10.3705 12.4906 10.29 12.3868C10.2095 12.2831 10.1093 12.1962 9.99519 12.1312C9.88109 12.0662 9.7553 12.0243 9.625 12.0078Z" fill="black"/>
<path d="M14.375 12.0078C14.2447 12.0243 14.1189 12.0662 14.0048 12.1312C13.8907 12.1962 13.7905 12.2831 13.71 12.3868C13.6295 12.4906 13.5702 12.6092 13.5355 12.7358C13.5008 12.8625 13.4914 12.9947 13.5078 13.125L14.0078 17.125C14.0242 17.2553 14.0661 17.3811 14.1312 17.4952C14.1962 17.6093 14.2831 17.7095 14.3868 17.79C14.4905 17.8705 14.6091 17.9298 14.7358 17.9645C14.8625 17.9992 14.9947 18.0086 15.125 17.9922C15.2553 17.9758 15.3811 17.9339 15.4952 17.8689C15.6093 17.8038 15.7095 17.717 15.79 17.6132C15.8705 17.5095 15.9298 17.3909 15.9645 17.2642C15.9992 17.1376 16.0086 17.0053 15.9922 16.875L15.4922 12.875C15.4758 12.7447 15.4339 12.6189 15.3688 12.5048C15.3038 12.3908 15.2169 12.2906 15.1132 12.2101C15.0095 12.1295 14.8909 12.0702 14.7642 12.0355C14.6376 12.0008 14.5053 11.9914 14.375 12.0078Z" fill="black"/>
</g>
</g>
<defs>
<clipPath id="clip0_19819_541">
<rect width="24" height="24" fill="white"/>
</clipPath>
</defs>
</svg>
