<svg width="24" height="24" viewBox="0 0 24 24" fill="none" xmlns="http://www.w3.org/2000/svg">
<g clip-path="url(#clip0_19819_534)">
<mask id="mask0_19819_534" style="mask-type:luminance" maskUnits="userSpaceOnUse" x="0" y="0" width="24" height="24">
<path d="M24 0H0V24H24V0Z" fill="white"/>
</mask>
<g mask="url(#mask0_19819_534)">
<path d="M12 9C11.2048 9 10.4413 9.31655 9.87891 9.87891C9.31655 10.4413 9 11.2048 9 12C9 12.7952 9.31655 13.5587 9.87891 14.1211C10.4413 14.6834 11.2048 15 12 15C12.7952 15 13.5587 14.6834 14.1211 14.1211C14.6834 13.5587 15 12.7952 15 12C15 11.2048 14.6834 10.4413 14.1211 9.87891C13.5587 9.31655 12.7952 9 12 9ZM12 11C12.2656 11 12.5192 11.1051 12.707 11.293C12.8949 11.4808 13 11.7344 13 12C13 12.2656 12.8949 12.5192 12.707 12.707C12.5192 12.8949 12.2656 13 12 13C11.7344 13 11.4808 12.8949 11.293 12.707C11.1051 12.5192 11 12.2656 11 12C11 11.7344 11.1051 11.4808 11.293 11.293C11.4808 11.1051 11.7344 11 12 11Z" fill="black"/>
<path d="M12 5C8.02963 5 4.65607 7.29718 2.14258 11.4863C2.04965 11.6416 2.00058 11.8191 2.00058 12C2.00058 12.1809 2.04965 12.3584 2.14258 12.5137C4.65607 16.7028 8.02963 19 12 19C15.9704 19 19.3439 16.7028 21.8574 12.5137C21.9503 12.3584 21.9994 12.1809 21.9994 12C21.9994 11.8191 21.9503 11.6416 21.8574 11.4863C19.3439 7.29718 15.9704 5 12 5ZM12 7C15.0616 7 17.5697 8.59419 19.7715 12C17.5697 15.4058 15.0616 17 12 17C8.93838 17 6.43027 15.4058 4.22851 12C6.43027 8.59419 8.93838 7 12 7Z" fill="black"/>
</g>
</g>
<defs>
<clipPath id="clip0_19819_534">
<rect width="24" height="24" fill="white"/>
</clipPath>
</defs>
</svg>
