<svg width="24" height="24" viewBox="0 0 24 24" fill="none" xmlns="http://www.w3.org/2000/svg">
<g clip-path="url(#clip0_19819_670)">
<mask id="mask0_19819_670" style="mask-type:luminance" maskUnits="userSpaceOnUse" x="0" y="0" width="24" height="24">
<path d="M24 0H0V24H24V0Z" fill="white"/>
</mask>
<g mask="url(#mask0_19819_670)">
<path d="M14 2C13.7348 2 13.4804 2.10536 13.2929 2.29289C13.1054 2.48043 13 2.73478 13 3V7C13 7.53016 13.2113 8.03933 13.5859 8.41406C13.9608 8.78898 14.4699 9 15 9H19C19.2652 9 19.5196 8.89464 19.7071 8.70711C19.8946 8.51957 20 8.26522 20 8C20 7.73478 19.8946 7.48043 19.7071 7.29289C19.5196 7.10536 19.2652 7 19 7H15V3C15 2.73478 14.8946 2.48043 14.7071 2.29289C14.5196 2.10536 14.2652 2 14 2Z" fill="black"/>
<path d="M7 2C6.20474 2 5.44125 2.31655 4.87891 2.87891C4.31655 3.44125 4 4.20474 4 5V12C4 12.2652 4.10536 12.5196 4.29289 12.7071C4.48043 12.8946 4.73478 13 5 13C5.26522 13 5.51957 12.8946 5.70711 12.7071C5.89464 12.5196 6 12.2652 6 12V5C6 4.7344 6.10516 4.48077 6.29297 4.29297C6.48077 4.10516 6.7344 4 7 4H13.5859L18 8.41406V12C18 12.2652 18.1054 12.5196 18.2929 12.7071C18.4804 12.8946 18.7348 13 19 13C19.2652 13 19.5196 12.8946 19.7071 12.7071C19.8946 12.5196 20 12.2652 20 12V8C19.9999 7.7348 19.8946 7.48048 19.707 7.29297L14.707 2.29297C14.5195 2.10543 14.2652 2.00005 14 2H7Z" fill="black"/>
<path d="M5 14C4.73479 14 4.48045 14.1054 4.29292 14.2929C4.10539 14.4805 4.00003 14.7348 4 15V18V21C4 21.2652 4.10536 21.5196 4.29289 21.7071C4.48043 21.8946 4.73478 22 5 22C5.26522 22 5.51957 21.8946 5.70711 21.7071C5.89464 21.5196 6 21.2652 6 21V19H6.5C7.1626 19 7.79897 18.7362 8.26758 18.2676C8.7362 17.799 9 17.1627 9 16.5C9 15.8373 8.7362 15.201 8.26758 14.7324C7.79897 14.2638 7.1626 14 6.5 14H5ZM6 16H6.5C6.63304 16 6.75952 16.0525 6.85352 16.1465C6.94749 16.2405 7 16.3671 7 16.5C7 16.6329 6.94749 16.7595 6.85352 16.8535C6.75952 16.9475 6.63304 17 6.5 17H6V16Z" fill="black"/>
<path d="M17 17C16.7348 17 16.4804 17.1054 16.2929 17.2929C16.1054 17.4804 16 17.7348 16 18C16 18.2652 16.1054 18.5196 16.2929 18.7071C16.4804 18.8946 16.7348 19 17 19H19C19.2652 19 19.5196 18.8946 19.7071 18.7071C19.8946 18.5196 20 18.2652 20 18C20 17.7348 19.8946 17.4804 19.7071 17.2929C19.5196 17.1054 19.2652 17 19 17H17Z" fill="black"/>
<path d="M17 14C16.7348 14 16.4805 14.1054 16.2929 14.2929C16.1054 14.4805 16 14.7348 16 15V21C16 21.2652 16.1054 21.5196 16.2929 21.7071C16.4804 21.8946 16.7348 22 17 22C17.2652 22 17.5196 21.8946 17.7071 21.7071C17.8946 21.5196 18 21.2652 18 21V16H20C20.2652 16 20.5196 15.8946 20.7071 15.7071C20.8946 15.5196 21 15.2652 21 15C21 14.7348 20.8946 14.4804 20.7071 14.2929C20.5196 14.1054 20.2652 14 20 14H17Z" fill="black"/>
<path d="M11 14C10.7348 14 10.4805 14.1054 10.2929 14.2929C10.1054 14.4805 10 14.7348 10 15V21C10 21.2652 10.1054 21.5195 10.2929 21.7071C10.4805 21.8946 10.7348 22 11 22H12C12.7952 22 13.5587 21.6834 14.1211 21.1211C14.6834 20.5587 15 19.7952 15 19V17C15 16.2048 14.6834 15.4413 14.1211 14.8789C13.5587 14.3166 12.7952 14 12 14H11ZM12 16C12.2656 16 12.5192 16.1051 12.707 16.293C12.8949 16.4808 13 16.7344 13 17V19C13 19.2656 12.8949 19.5192 12.707 19.707C12.5192 19.8949 12.2656 20 12 20V16Z" fill="black"/>
</g>
</g>
<defs>
<clipPath id="clip0_19819_670">
<rect width="24" height="24" fill="white"/>
</clipPath>
</defs>
</svg>
