<svg width="24" height="24" viewBox="0 0 24 24" fill="none" xmlns="http://www.w3.org/2000/svg">
<g clip-path="url(#clip0_19819_651)">
<mask id="mask0_19819_651" style="mask-type:luminance" maskUnits="userSpaceOnUse" x="0" y="0" width="24" height="24">
<path d="M24 0H0V24H24V0Z" fill="white"/>
</mask>
<g mask="url(#mask0_19819_651)">
<path d="M14 2C13.7348 2 13.4804 2.10536 13.2929 2.29289C13.1054 2.48043 13 2.73478 13 3V7C13 7.53016 13.2113 8.03933 13.5859 8.41406C13.9608 8.78898 14.4699 9 15 9H19C19.2652 9 19.5196 8.89464 19.7071 8.70711C19.8946 8.51957 20 8.26522 20 8C20 7.73478 19.8946 7.48043 19.7071 7.29289C19.5196 7.10536 19.2652 7 19 7H15V3C15 2.73478 14.8946 2.48043 14.7071 2.29289C14.5196 2.10536 14.2652 2 14 2Z" fill="black"/>
<path d="M7 2C6.20474 2 5.44125 2.31655 4.87891 2.87891C4.31655 3.44125 4 4.20474 4 5V19C4 19.7952 4.31659 20.5587 4.87891 21.1211C5.44125 21.6835 6.20475 22 7 22H12C12.2652 22 12.5196 21.8946 12.7071 21.7071C12.8946 21.5196 13 21.2652 13 21C13 20.7348 12.8946 20.4804 12.7071 20.2929C12.5196 20.1054 12.2652 20 12 20H7C6.73439 20 6.48076 19.8948 6.29297 19.707C6.10513 19.5192 6 19.2656 6 19V5C6 4.7344 6.10516 4.48077 6.29297 4.29297C6.48077 4.10516 6.7344 4 7 4H13.5859L18 8.41406V12.5C18 12.7652 18.1054 13.0196 18.2929 13.2071C18.4804 13.3946 18.7348 13.5 19 13.5C19.2652 13.5 19.5196 13.3946 19.7071 13.2071C19.8946 13.0196 20 12.7652 20 12.5V8C19.9999 7.7348 19.8946 7.48048 19.707 7.29297L14.707 2.29297C14.5195 2.10543 14.2652 2.00005 14 2H7Z" fill="black"/>
<path d="M16.5 14C15.5721 14 14.6815 14.3694 14.0254 15.0254C13.3694 15.6815 13 16.5721 13 17.5C13 18.4279 13.3694 19.3185 14.0254 19.9746C14.6815 20.6306 15.5721 21 16.5 21C17.4279 21 18.3185 20.6306 18.9746 19.9746C19.6306 19.3185 20 18.4279 20 17.5C20 16.5721 19.6306 15.6815 18.9746 15.0254C18.3185 14.3694 17.4279 14 16.5 14ZM16.5 16C16.8981 16 17.2789 16.1579 17.5605 16.4395C17.8421 16.7211 18 17.1019 18 17.5C18 17.8981 17.8421 18.2789 17.5605 18.5605C17.2789 18.8421 16.8981 19 16.5 19C16.1019 19 15.7211 18.8421 15.4395 18.5605C15.1579 18.2789 15 17.8981 15 17.5C15 17.1019 15.1579 16.7211 15.4395 16.4395C15.7211 16.1579 16.1019 16 16.5 16Z" fill="black"/>
<path d="M17.793 18.7928C17.6055 18.9803 17.5002 19.2347 17.5002 19.4998C17.5002 19.765 17.6055 20.0194 17.793 20.2069L20.293 22.7069C20.4805 22.8944 20.7348 22.9997 21 22.9997C21.2652 22.9997 21.5195 22.8944 21.707 22.7069C21.8945 22.5194 21.9999 22.265 21.9999 21.9998C21.9999 21.7347 21.8945 21.4803 21.707 21.2928L19.207 18.7928C19.0195 18.6053 18.7652 18.5 18.5 18.5C18.2348 18.5 17.9805 18.6053 17.793 18.7928Z" fill="black"/>
</g>
</g>
<defs>
<clipPath id="clip0_19819_651">
<rect width="24" height="24" fill="white"/>
</clipPath>
</defs>
</svg>
