<svg width="24" height="24" viewBox="0 0 24 24" fill="none" xmlns="http://www.w3.org/2000/svg">
<g clip-path="url(#clip0_19819_603)">
<mask id="mask0_19819_603" style="mask-type:luminance" maskUnits="userSpaceOnUse" x="0" y="0" width="24" height="24">
<path d="M24 0H0V24H24V0Z" fill="white"/>
</mask>
<g mask="url(#mask0_19819_603)">
<path d="M14 2C13.7348 2 13.4804 2.10536 13.2929 2.29289C13.1054 2.48043 13 2.73478 13 3V7C13 7.53016 13.2113 8.03933 13.5859 8.41406C13.9608 8.78898 14.4699 9 15 9H19C19.2652 9 19.5196 8.89464 19.7071 8.70711C19.8946 8.51957 20 8.26522 20 8C20 7.73478 19.8946 7.48043 19.7071 7.29289C19.5196 7.10536 19.2652 7 19 7H15V3C15 2.73478 14.8946 2.48043 14.7071 2.29289C14.5196 2.10536 14.2652 2 14 2Z" fill="black"/>
<path d="M7 2C6.20474 2 5.44125 2.31655 4.87891 2.87891C4.31655 3.44125 4 4.20474 4 5V19C4 19.7952 4.31659 20.5587 4.87891 21.1211C5.44125 21.6835 6.20475 22 7 22H11.5C11.7652 22 12.0196 21.8946 12.2071 21.7071C12.3946 21.5196 12.5 21.2652 12.5 21C12.5 20.7348 12.3946 20.4804 12.2071 20.2929C12.0196 20.1054 11.7652 20 11.5 20H7C6.73439 20 6.48076 19.8948 6.29297 19.707C6.10513 19.5192 6 19.2656 6 19V5C6 4.7344 6.10516 4.48077 6.29297 4.29297C6.48077 4.10516 6.7344 4 7 4H13.5859L18 8.41406V13C18 13.2652 18.1054 13.5196 18.2929 13.7071C18.4804 13.8946 18.7348 14 19 14C19.2652 14 19.5196 13.8946 19.7071 13.7071C19.8946 13.5196 20 13.2652 20 13V8C19.9999 7.7348 19.8946 7.48048 19.707 7.29297L14.707 2.29297C14.5195 2.10543 14.2652 2.00005 14 2H7ZM17.293 15.293C17.1055 15.4805 17.0002 15.7348 17.0002 16C17.0002 16.2652 17.1055 16.5195 17.293 16.707L18.5859 18H14C13.7348 18 13.4804 18.1054 13.2929 18.2929C13.1054 18.4804 13 18.7348 13 19C13 19.2652 13.1054 19.5196 13.2929 19.7071C13.4804 19.8946 13.7348 20 14 20H18.5859L17.293 21.293C17.1055 21.4805 17.0002 21.7348 17.0002 22C17.0002 22.2652 17.1055 22.5195 17.293 22.707C17.4805 22.8945 17.7348 22.9998 18 22.9998C18.2652 22.9998 18.5195 22.8945 18.707 22.707L21.707 19.707C21.7999 19.6142 21.8735 19.5041 21.9238 19.3828C21.9741 19.2614 22 19.1314 22 19C22 18.8686 21.9741 18.7386 21.9238 18.6172C21.8735 18.4959 21.7999 18.3858 21.707 18.293L18.707 15.293C18.5195 15.1055 18.2652 15.0002 18 15.0002C17.7348 15.0002 17.4805 15.1055 17.293 15.293Z" fill="black"/>
</g>
</g>
<defs>
<clipPath id="clip0_19819_603">
<rect width="24" height="24" fill="white"/>
</clipPath>
</defs>
</svg>
