<svg width="24" height="24" viewBox="0 0 24 24" fill="none" xmlns="http://www.w3.org/2000/svg">
<g clip-path="url(#clip0_19819_701)">
<mask id="mask0_19819_701" style="mask-type:luminance" maskUnits="userSpaceOnUse" x="0" y="0" width="24" height="24">
<path d="M24 0H0V24H24V0Z" fill="white"/>
</mask>
<g mask="url(#mask0_19819_701)">
<path d="M15 2C14.7348 2 14.4804 2.10536 14.2929 2.29289C14.1054 2.48043 14 2.73478 14 3V7C14 7.53016 14.2113 8.03933 14.5859 8.41406C14.9608 8.78898 15.4699 9 16 9H20C20.2652 9 20.5196 8.89464 20.7071 8.70711C20.8946 8.51957 21 8.26522 21 8C21 7.73478 20.8946 7.48043 20.7071 7.29289C20.5196 7.10536 20.2652 7 20 7H16V3C16 2.73478 15.8946 2.48043 15.7071 2.29289C15.5196 2.10536 15.2652 2 15 2Z" fill="black"/>
<path d="M11 2C10.2048 2 9.44127 2.31653 8.87891 2.87891C8.31655 3.44125 8 4.20474 8 5V15C8 15.7952 8.31659 16.5587 8.87891 17.1211C9.44127 17.6835 10.2048 18 11 18H18C18.7952 18 19.5587 17.6834 20.1211 17.1211C20.6834 16.5587 21 15.7952 21 15V8C20.9999 7.7348 20.8946 7.48048 20.707 7.29297L15.707 2.29297C15.5195 2.10543 15.2652 2.00005 15 2H11ZM11 4H14.5859L19 8.41406V15C19 15.2656 18.8949 15.5192 18.707 15.707C18.5192 15.8949 18.2656 16 18 16H11C10.7344 16 10.4807 15.8948 10.293 15.707C10.1051 15.5192 10 15.2656 10 15V5C10 4.7344 10.1052 4.48077 10.293 4.29297C10.4807 4.10518 10.7344 4 11 4Z" fill="black"/>
<path d="M7 6C6.20474 6 5.44125 6.31655 4.87891 6.87891C4.31655 7.44125 4 8.20474 4 9V19C4 19.7952 4.31659 20.5587 4.87891 21.1211C5.44125 21.6835 6.20475 22 7 22H14C14.7952 22 15.5587 21.6834 16.1211 21.1211C16.6834 20.5587 17 19.7952 17 19V17C17 16.7348 16.8946 16.4804 16.7071 16.2929C16.5196 16.1054 16.2652 16 16 16C15.7348 16 15.4804 16.1054 15.2929 16.2929C15.1054 16.4804 15 16.7348 15 17V19C15 19.2656 14.8949 19.5192 14.707 19.707C14.5192 19.8949 14.2656 20 14 20H7C6.73439 20 6.48076 19.8948 6.29297 19.707C6.10513 19.5192 6 19.2656 6 19V9C6 8.7344 6.10516 8.48077 6.29297 8.29297C6.48077 8.10516 6.7344 8 7 8H9C9.26522 8 9.51957 7.89464 9.70711 7.70711C9.89464 7.51957 10 7.26522 10 7C10 6.73478 9.89464 6.48043 9.70711 6.29289C9.51957 6.10536 9.26522 6 9 6H7Z" fill="black"/>
</g>
</g>
<defs>
<clipPath id="clip0_19819_701">
<rect width="24" height="24" fill="white"/>
</clipPath>
</defs>
</svg>
