<svg width="24" height="24" viewBox="0 0 24 24" fill="none" xmlns="http://www.w3.org/2000/svg">
<g clip-path="url(#clip0_19819_692)">
<mask id="mask0_19819_692" style="mask-type:luminance" maskUnits="userSpaceOnUse" x="0" y="0" width="24" height="24">
<path d="M24 0H0V24H24V0Z" fill="white"/>
</mask>
<g mask="url(#mask0_19819_692)">
<path d="M14 2C13.7348 2 13.4804 2.10536 13.2929 2.29289C13.1054 2.48043 13 2.73478 13 3V7C13 7.53016 13.2113 8.03933 13.5859 8.41406C13.9608 8.78898 14.4699 9 15 9H19C19.2652 9 19.5196 8.89464 19.7071 8.70711C19.8946 8.51957 20 8.26522 20 8C20 7.73478 19.8946 7.48043 19.7071 7.29289C19.5196 7.10536 19.2652 7 19 7H15V3C15 2.73478 14.8946 2.48043 14.7071 2.29289C14.5196 2.10536 14.2652 2 14 2Z" fill="black"/>
<path d="M7 2C6.20474 2 5.44125 2.31655 4.87891 2.87891C4.31655 3.44125 4 4.20474 4 5V19C4 19.7952 4.31659 20.5587 4.87891 21.1211C5.44125 21.6835 6.20475 22 7 22H17C17.7952 22 18.5587 21.6834 19.1211 21.1211C19.6834 20.5587 20 19.7952 20 19V8C19.9999 7.7348 19.8946 7.48048 19.707 7.29297L14.707 2.29297C14.5195 2.10543 14.2652 2.00005 14 2H7ZM7 4H13.5859L18 8.41406V19C18 19.2656 17.8949 19.5192 17.707 19.707C17.5192 19.8949 17.2656 20 17 20H7C6.73439 20 6.48076 19.8948 6.29297 19.707C6.10513 19.5192 6 19.2656 6 19V5C6 4.7344 6.10516 4.48077 6.29297 4.29297C6.48077 4.10516 6.7344 4 7 4Z" fill="black"/>
<path d="M12 10C11.7348 10 11.4804 10.1054 11.2929 10.2929C11.1054 10.4804 11 10.7348 11 11V17C11 17.2652 11.1054 17.5196 11.2929 17.7071C11.4804 17.8946 11.7348 18 12 18C12.2652 18 12.5196 17.8946 12.7071 17.7071C12.8946 17.5196 13 17.2652 13 17V11C13 10.7348 12.8946 10.4804 12.7071 10.2929C12.5196 10.1054 12.2652 10 12 10Z" fill="black"/>
<path d="M11.293 10.2928L8.79297 12.7928C8.60548 12.9803 8.50015 13.2346 8.50015 13.4998C8.50015 13.765 8.60548 14.0193 8.79297 14.2068C8.9805 14.3943 9.23482 14.4997 9.5 14.4997C9.76518 14.4997 10.0195 14.3943 10.207 14.2068L12 12.4139L13.793 14.2068C13.9805 14.3943 14.2348 14.4997 14.5 14.4997C14.7652 14.4997 15.0195 14.3943 15.207 14.2068C15.3945 14.0193 15.4998 13.765 15.4998 13.4998C15.4998 13.2346 15.3945 12.9803 15.207 12.7928L12.707 10.2928C12.5195 10.1053 12.2652 10 12 10C11.7348 10 11.4805 10.1053 11.293 10.2928Z" fill="black"/>
</g>
</g>
<defs>
<clipPath id="clip0_19819_692">
<rect width="24" height="24" fill="white"/>
</clipPath>
</defs>
</svg>
