<svg width="24" height="24" viewBox="0 0 24 24" fill="none" xmlns="http://www.w3.org/2000/svg">
<g clip-path="url(#clip0_19819_681)">
<mask id="mask0_19819_681" style="mask-type:luminance" maskUnits="userSpaceOnUse" x="0" y="0" width="24" height="24">
<path d="M24 0H0V24H24V0Z" fill="white"/>
</mask>
<g mask="url(#mask0_19819_681)">
<path d="M14 2C13.7348 2 13.4804 2.10536 13.2929 2.29289C13.1054 2.48043 13 2.73478 13 3V7C13 7.53016 13.2113 8.03933 13.5859 8.41406C13.9608 8.78898 14.4699 9 15 9H19C19.2652 9 19.5196 8.89464 19.7071 8.70711C19.8946 8.51957 20 8.26522 20 8C20 7.73478 19.8946 7.48043 19.7071 7.29289C19.5196 7.10536 19.2652 7 19 7H15V3C15 2.73478 14.8946 2.48043 14.7071 2.29289C14.5196 2.10536 14.2652 2 14 2Z" fill="black"/>
<path d="M7 2C6.20474 2 5.44125 2.31655 4.87891 2.87891C4.31655 3.44125 4 4.20474 4 5V12C4 12.2652 4.10536 12.5196 4.29289 12.7071C4.48043 12.8946 4.73478 13 5 13C5.26522 13 5.51957 12.8946 5.70711 12.7071C5.89464 12.5196 6 12.2652 6 12V5C6 4.7344 6.10516 4.48077 6.29297 4.29297C6.48077 4.10516 6.7344 4 7 4H13.5859L18 8.41406V12C18 12.2652 18.1054 12.5196 18.2929 12.7071C18.4804 12.8946 18.7348 13 19 13C19.2652 13 19.5196 12.8946 19.7071 12.7071C19.8946 12.5196 20 12.2652 20 12V8C19.9999 7.7348 19.8946 7.48048 19.707 7.29297L14.707 2.29297C14.5195 2.10543 14.2652 2.00005 14 2H7Z" fill="black"/>
<path d="M4.19532 14.0193C3.93552 13.9675 3.66579 14.0209 3.44532 14.1678C3.22465 14.3149 3.07147 14.5436 3.01945 14.8037C2.96744 15.0637 3.02087 15.3338 3.16797 15.5545L7.16797 21.5545C7.31509 21.7751 7.54383 21.9283 7.80389 21.9803C8.06395 22.0323 8.33402 21.9789 8.55469 21.8318C8.77535 21.6847 8.92854 21.456 8.98055 21.1959C9.03256 20.9358 8.97914 20.6658 8.83203 20.4451L4.83203 14.4451C4.75909 14.3358 4.66531 14.2419 4.55606 14.1688C4.4468 14.0958 4.32422 14.045 4.19532 14.0193Z" fill="black"/>
<path d="M8.55469 14.1679C8.33402 14.0208 8.06395 13.9674 7.80389 14.0194C7.54383 14.0714 7.31509 14.2246 7.16797 14.4453L3.16797 20.4453C3.02087 20.666 2.96744 20.936 3.01945 21.1961C3.07147 21.4561 3.22465 21.6849 3.44532 21.832C3.66599 21.9791 3.93605 22.0325 4.19611 21.9805C4.45617 21.9285 4.68492 21.7753 4.83203 21.5547L8.83203 15.5547C8.97914 15.334 9.03256 15.0639 8.98055 14.8039C8.92854 14.5438 8.77535 14.3151 8.55469 14.1679Z" fill="black"/>
<path d="M18 14C17.4698 14 16.9607 14.2111 16.5859 14.5859C16.2111 14.9607 16 15.4698 16 16V17C16 17.5302 16.2111 18.0393 16.5859 18.4141C16.9607 18.7889 17.4698 19 18 19H19V20H17.9512C17.8965 19.7881 17.7739 19.6001 17.6021 19.4646C17.4303 19.3291 17.2188 19.2537 17 19.25C16.7348 19.25 16.4804 19.3554 16.2929 19.5429C16.1054 19.7304 16 19.9848 16 20.25C16 21.2051 16.7949 22 17.75 22H19C19.5302 22 20.0393 21.7889 20.4141 21.4141C20.7889 21.0393 21 20.5302 21 20V19C21 18.4698 20.7889 17.9607 20.4141 17.5859C20.0393 17.2111 19.5302 17 19 17H18V16H19.1035C19.1554 16.2032 19.2699 16.385 19.4308 16.5196C19.5917 16.6542 19.7908 16.7348 20 16.75C20.2652 16.75 20.5196 16.6446 20.7071 16.4571C20.8946 16.2696 21 16.0152 21 15.75C21 15.2872 20.8154 14.8415 20.4883 14.5137C20.1602 14.1854 19.7137 14 19.25 14H18Z" fill="black"/>
<path d="M11 14C10.7348 14 10.4804 14.1054 10.2929 14.2929C10.1054 14.4804 10 14.7348 10 15V21C10 21.2652 10.1054 21.5195 10.2929 21.7071C10.4805 21.8946 10.7348 22 11 22H14C14.2652 22 14.5196 21.8946 14.7071 21.7071C14.8946 21.5196 15 21.2652 15 21C15 20.7348 14.8946 20.4804 14.7071 20.2929C14.5196 20.1054 14.2652 20 14 20H12V15C12 14.7348 11.8946 14.4804 11.7071 14.2929C11.5196 14.1054 11.2652 14 11 14Z" fill="black"/>
</g>
</g>
<defs>
<clipPath id="clip0_19819_681">
<rect width="24" height="24" fill="white"/>
</clipPath>
</defs>
</svg>
