<svg width="24" height="24" viewBox="0 0 24 24" fill="none" xmlns="http://www.w3.org/2000/svg">
<g clip-path="url(#clip0_19819_617)">
<mask id="mask0_19819_617" style="mask-type:luminance" maskUnits="userSpaceOnUse" x="0" y="0" width="24" height="24">
<path d="M24 0H0V24H24V0Z" fill="white"/>
</mask>
<g mask="url(#mask0_19819_617)">
<path d="M14 2C13.7348 2 13.4804 2.10536 13.2929 2.29289C13.1054 2.48043 13 2.73478 13 3V7C13 7.53016 13.2113 8.03933 13.5859 8.41406C13.9608 8.78898 14.4699 9 15 9H19C19.2652 9 19.5196 8.89464 19.7071 8.70711C19.8946 8.51957 20 8.26522 20 8C20 7.73478 19.8946 7.48043 19.7071 7.29289C19.5196 7.10536 19.2652 7 19 7H15V3C15 2.73478 14.8946 2.48043 14.7071 2.29289C14.5196 2.10536 14.2652 2 14 2Z" fill="black"/>
<path d="M7 2C6.20474 2 5.44125 2.31655 4.87891 2.87891C4.31655 3.44125 4 4.20474 4 5V13C4 13.2652 4.10536 13.5196 4.29289 13.7071C4.48043 13.8946 4.73478 14 5 14C5.26522 14 5.51957 13.8946 5.70711 13.7071C5.89464 13.5196 6 13.2652 6 13V5C6 4.7344 6.10516 4.48077 6.29297 4.29297C6.48077 4.10516 6.7344 4 7 4H13.5859L18 8.41406V19C18 19.2656 17.8949 19.5192 17.707 19.707C17.5192 19.8949 17.2656 20 17 20H11.5C11.2348 20 10.9804 20.1054 10.7929 20.2929C10.6054 20.4804 10.5 20.7348 10.5 21C10.5 21.2652 10.6054 21.5196 10.7929 21.7071C10.9804 21.8946 11.2348 22 11.5 22H17C17.7952 22 18.5587 21.6834 19.1211 21.1211C19.6834 20.5587 20 19.7952 20 19V8C19.9999 7.7348 19.8946 7.48048 19.707 7.29297L14.707 2.29297C14.5195 2.10543 14.2652 2.00005 14 2H7ZM6 15C5.7348 15 5.48047 15.1054 5.29297 15.293C5.10548 15.4805 5.00015 15.7348 5.00015 16C5.00015 16.2652 5.10548 16.5195 5.29297 16.707L6.58594 18H2C1.73478 18 1.48043 18.1054 1.29289 18.2929C1.10536 18.4804 1 18.7348 1 19C1 19.2652 1.10536 19.5196 1.29289 19.7071C1.48043 19.8946 1.73478 20 2 20H6.58594L5.29297 21.293C5.10548 21.4805 5.00015 21.7348 5.00015 22C5.00015 22.2652 5.10548 22.5195 5.29297 22.707C5.4805 22.8945 5.73482 22.9998 6 22.9998C6.26518 22.9998 6.5195 22.8945 6.70703 22.707L9.70703 19.707C9.89458 19.5195 9.99996 19.2652 10 19C10 18.8686 9.97412 18.7386 9.92383 18.6172C9.87354 18.4959 9.79988 18.3858 9.70703 18.293L6.70703 15.293C6.51953 15.1054 6.2652 15 6 15Z" fill="black"/>
</g>
</g>
<defs>
<clipPath id="clip0_19819_617">
<rect width="24" height="24" fill="white"/>
</clipPath>
</defs>
</svg>
