<svg width="24" height="24" viewBox="0 0 24 24" fill="none" xmlns="http://www.w3.org/2000/svg">
<g clip-path="url(#clip0_19819_577)">
<mask id="mask0_19819_577" style="mask-type:luminance" maskUnits="userSpaceOnUse" x="0" y="0" width="24" height="24">
<path d="M24 0H0V24H24V0Z" fill="white"/>
</mask>
<g mask="url(#mask0_19819_577)">
<path d="M14 2C13.7348 2 13.4804 2.10536 13.2929 2.29289C13.1054 2.48043 13 2.73478 13 3V7C13 7.53016 13.2113 8.03933 13.5859 8.41406C13.9608 8.78898 14.4699 9 15 9H19C19.2652 9 19.5196 8.89464 19.7071 8.70711C19.8946 8.51957 20 8.26522 20 8C20 7.73478 19.8946 7.48043 19.7071 7.29289C19.5196 7.10536 19.2652 7 19 7H15V3C15 2.73478 14.8946 2.48043 14.7071 2.29289C14.5196 2.10536 14.2652 2 14 2Z" fill="black"/>
<path d="M7 2C6.20474 2 5.44125 2.31655 4.87891 2.87891C4.31655 3.44125 4 4.20474 4 5V19C4 19.7952 4.31659 20.5587 4.87891 21.1211C5.44125 21.6835 6.20475 22 7 22H17C17.7952 22 18.5587 21.6834 19.1211 21.1211C19.6834 20.5587 20 19.7952 20 19V8C19.9999 7.7348 19.8946 7.48048 19.707 7.29297L14.707 2.29297C14.5195 2.10543 14.2652 2.00005 14 2H7ZM7 4H13.5859L18 8.41406V19C18 19.2656 17.8949 19.5192 17.707 19.707C17.5192 19.8949 17.2656 20 17 20H7C6.73439 20 6.48076 19.8948 6.29297 19.707C6.10513 19.5192 6 19.2656 6 19V5C6 4.7344 6.10516 4.48077 6.29297 4.29297C6.48077 4.10516 6.7344 4 7 4Z" fill="black"/>
<path d="M15 12C14.7348 12 14.4804 12.1054 14.2929 12.293L11 15.5859L9.707 14.293C9.51947 14.1055 9.26515 14.0002 8.99997 14.0002C8.73479 14.0002 8.48047 14.1055 8.29294 14.293C8.10545 14.4805 8.00012 14.7348 8.00012 15C8.00012 15.2652 8.10545 15.5195 8.29294 15.707L10.2929 17.707C10.4805 17.8945 10.7348 17.9998 11 17.9998C11.2651 17.9998 11.5195 17.8945 11.707 17.707L15.707 13.707C15.8945 13.5195 15.9998 13.2652 15.9998 13C15.9998 12.7348 15.8945 12.4805 15.707 12.293C15.5195 12.1054 15.2652 12 15 12Z" fill="black"/>
</g>
</g>
<defs>
<clipPath id="clip0_19819_577">
<rect width="24" height="24" fill="white"/>
</clipPath>
</defs>
</svg>
