<svg width="24" height="24" viewBox="0 0 24 24" fill="none" xmlns="http://www.w3.org/2000/svg">
<g clip-path="url(#clip0_19819_660)">
<mask id="mask0_19819_660" style="mask-type:luminance" maskUnits="userSpaceOnUse" x="0" y="0" width="24" height="24">
<path d="M24 0H0V24H24V0Z" fill="white"/>
</mask>
<g mask="url(#mask0_19819_660)">
<path d="M14 2C13.7348 2 13.4804 2.10536 13.2929 2.29289C13.1054 2.48043 13 2.73478 13 3V7C13 7.53016 13.2113 8.03933 13.5859 8.41406C13.9608 8.78898 14.4699 9 15 9H19C19.2652 9 19.5196 8.89464 19.7071 8.70711C19.8946 8.51957 20 8.26522 20 8C20 7.73478 19.8946 7.48043 19.7071 7.29289C19.5196 7.10536 19.2652 7 19 7H15V3C15 2.73478 14.8946 2.48043 14.7071 2.29289C14.5196 2.10536 14.2652 2 14 2Z" fill="black"/>
<path d="M7 2C6.20474 2 5.44125 2.31655 4.87891 2.87891C4.31655 3.44125 4 4.20474 4 5V12C4 12.2652 4.10536 12.5196 4.29289 12.7071C4.48043 12.8946 4.73478 13 5 13C5.26522 13 5.51957 12.8946 5.70711 12.7071C5.89464 12.5196 6 12.2652 6 12V5C6 4.7344 6.10516 4.48077 6.29297 4.29297C6.48077 4.10516 6.7344 4 7 4H13.5859L18 8.41406V12C18 12.2652 18.1054 12.5196 18.2929 12.7071C18.4804 12.8946 18.7348 13 19 13C19.2652 13 19.5196 12.8946 19.7071 12.7071C19.8946 12.5196 20 12.2652 20 12V8C19.9999 7.7348 19.8946 7.48048 19.707 7.29297L14.707 2.29297C14.5195 2.10543 14.2652 2.00005 14 2H7Z" fill="black"/>
<path d="M5.5 14C4.8374 14 4.20103 14.2638 3.73242 14.7324C3.2638 15.201 3 15.8373 3 16.5V19.5C3 20.1627 3.2638 20.799 3.73242 21.2676C4.20103 21.7362 4.8374 22 5.5 22C6.1626 22 6.79897 21.7362 7.26758 21.2676C7.7362 20.799 8 20.1627 8 19.5C8 19.2348 7.89464 18.9804 7.70711 18.7929C7.51957 18.6054 7.26522 18.5 7 18.5C6.73478 18.5 6.48043 18.6054 6.29289 18.7929C6.10536 18.9804 6 19.2348 6 19.5C6 19.6329 5.94749 19.7595 5.85352 19.8535C5.75952 19.9475 5.63304 20 5.5 20C5.36696 20 5.24048 19.9475 5.14648 19.8535C5.05251 19.7595 5 19.6329 5 19.5V16.5C5 16.3671 5.05251 16.2405 5.14648 16.1465C5.24048 16.0525 5.36696 16 5.5 16C5.63304 16 5.75952 16.0525 5.85352 16.1465C5.94749 16.2405 6 16.3671 6 16.5C6 16.7652 6.10536 17.0196 6.29289 17.2071C6.48043 17.3946 6.73478 17.5 7 17.5C7.26522 17.5 7.51957 17.3946 7.70711 17.2071C7.89464 17.0196 8 16.7652 8 16.5C8 15.8373 7.7362 15.201 7.26758 14.7324C6.79897 14.2638 6.1626 14 5.5 14Z" fill="black"/>
<path d="M11 14C10.4698 14 9.96074 14.2111 9.58594 14.5859C9.21113 14.9607 9 15.4698 9 16V17C9 17.5302 9.21113 18.0393 9.58594 18.4141C9.96074 18.7889 10.4698 19 11 19H12V20H10.9512C10.8965 19.7881 10.7739 19.6001 10.6021 19.4646C10.4303 19.3291 10.2188 19.2537 10 19.25C9.73478 19.25 9.48043 19.3554 9.29289 19.5429C9.10536 19.7304 9 19.9848 9 20.25C9 21.2051 9.79494 22 10.75 22H12C12.5302 22 13.0393 21.7889 13.4141 21.4141C13.7889 21.0393 14 20.5302 14 20V19C14 18.4698 13.7889 17.9607 13.4141 17.5859C13.0393 17.2111 12.5302 17 12 17H11V16H12.25C12.185 16 12.1209 15.9735 12.0742 15.9277C12.0736 15.9271 12.0729 15.9264 12.0722 15.9257C12.0265 15.8791 12 15.815 12 15.75C12.0678 15.8475 12.1525 15.9322 12.25 16C12.2921 16.1828 12.3848 16.35 12.5174 16.4826C12.65 16.6152 12.8172 16.7079 13 16.75C13.2652 16.75 13.5196 16.6446 13.7071 16.4571C13.8946 16.2696 14 16.0152 14 15.75C14 15.2872 13.8154 14.8415 13.4883 14.5137C13.1602 14.1854 12.7137 14 12.25 14H11Z" fill="black"/>
<path d="M15.6836 14.051C15.5589 14.0925 15.4436 14.1582 15.3443 14.2442C15.245 14.3303 15.1636 14.4351 15.1049 14.5527C15.0461 14.6702 15.0111 14.7982 15.0018 14.9293C14.9925 15.0604 15.0092 15.192 15.0508 15.3166L17.0508 21.3166C17.117 21.5161 17.2443 21.6896 17.4147 21.8126C17.5851 21.9356 17.7899 22.0018 18 22.0018C18.2102 22.0018 18.415 21.9356 18.5853 21.8126C18.7557 21.6896 18.8831 21.5161 18.9492 21.3166L20.9492 15.3166C20.9909 15.192 21.0075 15.0604 20.9982 14.9293C20.989 14.7982 20.9539 14.6702 20.8952 14.5527C20.8364 14.4351 20.755 14.3303 20.6557 14.2442C20.5564 14.1582 20.4411 14.0925 20.3164 14.051C20.1918 14.0094 20.0601 13.9927 19.929 14.002C19.798 14.0113 19.67 14.0463 19.5524 14.1051C19.4349 14.1639 19.3301 14.2452 19.244 14.3445C19.1579 14.4438 19.0923 14.5591 19.0508 14.6838L18 17.8362L16.9492 14.6838C16.9077 14.5591 16.8421 14.4438 16.756 14.3445C16.6699 14.2452 16.5651 14.1639 16.4476 14.1051C16.33 14.0463 16.2021 14.0113 16.071 14.002C15.9399 13.9927 15.8083 14.0094 15.6836 14.051Z" fill="black"/>
</g>
</g>
<defs>
<clipPath id="clip0_19819_660">
<rect width="24" height="24" fill="white"/>
</clipPath>
</defs>
</svg>
