<svg width="24" height="24" viewBox="0 0 24 24" fill="none" xmlns="http://www.w3.org/2000/svg">
<g clip-path="url(#clip0_19819_709)">
<mask id="mask0_19819_709" style="mask-type:luminance" maskUnits="userSpaceOnUse" x="0" y="0" width="24" height="24">
<path d="M24 0H0V24H24V0Z" fill="white"/>
</mask>
<g mask="url(#mask0_19819_709)">
<path d="M4 3C3.73479 3.00003 3.48045 3.10539 3.29292 3.29292C3.10539 3.48045 3.00003 3.73479 3 4V6.22656C3.00008 6.97239 3.27766 7.69224 3.7793 8.24414L8 12.8867V21C7.99993 21.1585 8.03753 21.3148 8.10972 21.4559C8.1819 21.597 8.28659 21.719 8.41517 21.8117C8.54374 21.9044 8.6925 21.9652 8.8492 21.9891C9.0059 22.013 9.16603 21.9994 9.31641 21.9492L15.3164 19.9492C15.5156 19.8828 15.6888 19.7553 15.8115 19.585C15.9341 19.4146 16.0001 19.2099 16 19V12.4141L20.1211 8.29297C20.6835 7.73077 20.9998 6.96711 21 6.17188V4C21 3.73479 20.8946 3.48045 20.7071 3.29292C20.5195 3.10539 20.2652 3.00003 20 3H4ZM5 5H19V6.17188C19 6.43742 18.8949 6.69112 18.707 6.87891L14.293 11.293C14.1054 11.4805 14.0001 11.7348 14 12V18.2793L10 19.6113V12.5C9.99987 12.2515 9.90727 12.012 9.74023 11.8281L5.25977 6.89844C5.0923 6.71419 5.00003 6.47553 5 6.22656V5Z" fill="black"/>
</g>
</g>
<defs>
<clipPath id="clip0_19819_709">
<rect width="24" height="24" fill="white"/>
</clipPath>
</defs>
</svg>
