<?xml version="1.0" encoding="UTF-8" standalone="no"?>
<svg
   width="24"
   height="24"
   viewBox="0 0 24 24"
   fill="none"
   version="1.1"
   id="svg2"
   sodipodi:docname="filter-off.svg"
   inkscape:version="1.3.2 (091e20e, 2023-11-25)"
   xmlns:inkscape="http://www.inkscape.org/namespaces/inkscape"
   xmlns:sodipodi="http://sodipodi.sourceforge.net/DTD/sodipodi-0.dtd"
   xmlns="http://www.w3.org/2000/svg"
   xmlns:svg="http://www.w3.org/2000/svg">
  <defs
     id="defs2" />
  <sodipodi:namedview
     id="namedview2"
     pagecolor="#505050"
     bordercolor="#eeeeee"
     borderopacity="1"
     inkscape:showpageshadow="0"
     inkscape:pageopacity="0"
     inkscape:pagecheckerboard="0"
     inkscape:deskcolor="#505050"
     inkscape:zoom="9.8333333"
     inkscape:cx="11.949153"
     inkscape:cy="12"
     inkscape:window-width="1504"
     inkscape:window-height="449"
     inkscape:window-x="0"
     inkscape:window-y="25"
     inkscape:window-maximized="0"
     inkscape:current-layer="svg2" />
  <path
     style="color:#000000;fill:#000000;stroke-linecap:round;stroke-linejoin:round;-inkscape-stroke:none"
     d="M 4,3 A 1,1 0 0 0 3,4 v 2.2265625 c 7.5e-5,0.7458268 0.2776614,1.4656816 0.7792969,2.0175781 L 8,12.886719 V 21 a 1.0001,1.0001 0 0 0 1.3164063,0.949219 l 5.9999997,-2 A 1.0001,1.0001 0 0 0 16,19 v -4 a 1,1 0 0 0 -1,-1 1,1 0 0 0 -1,1 v 3.279297 l -4,1.332031 V 12.5 A 1.0001,1.0001 0 0 0 9.7402344,11.828125 L 5.2597656,6.8984375 C 5.0923018,6.7141947 5.000025,6.4755347 5,6.2265625 V 4 A 1,1 0 0 0 4,3 Z M 8,3 A 1,1 0 0 0 7,4 1,1 0 0 0 8,5 h 11 v 1.171875 c -5e-5,0.265548 -0.105132,0.5192494 -0.292969,0.7070312 l -3.914062,3.9140628 a 1,1 0 0 0 0,1.414062 1,1 0 0 0 1.414062,0 L 20.121094,8.2929688 C 20.683456,7.7307713 20.99985,6.9671059 21,6.171875 V 4 A 1.0001,1.0001 0 0 0 20,3 Z"
     id="path1" />
  <path
     style="color:#000000;fill:#000000;stroke-linecap:round;stroke-linejoin:round;-inkscape-stroke:none"
     d="m 3,2 a 1,1 0 0 0 -0.7070312,0.2929688 1,1 0 0 0 0,1.4140625 L 20.292969,21.707031 a 1,1 0 0 0 1.414062,0 1,1 0 0 0 0,-1.414062 L 3.7070313,2.2929688 A 1,1 0 0 0 3,2 Z"
     id="path2" />
</svg>
