<?xml version="1.0" encoding="UTF-8" standalone="no"?>
<svg
   width="24"
   height="24"
   viewBox="0 0 24 24"
   fill="none"
   version="1.1"
   id="svg2"
   sodipodi:docname="filter-edit.svg"
   inkscape:version="1.3.2 (091e20e, 2023-11-25)"
   xmlns:inkscape="http://www.inkscape.org/namespaces/inkscape"
   xmlns:sodipodi="http://sodipodi.sourceforge.net/DTD/sodipodi-0.dtd"
   xmlns="http://www.w3.org/2000/svg"
   xmlns:svg="http://www.w3.org/2000/svg">
  <defs
     id="defs2" />
  <sodipodi:namedview
     id="namedview2"
     pagecolor="#505050"
     bordercolor="#eeeeee"
     borderopacity="1"
     inkscape:showpageshadow="0"
     inkscape:pageopacity="0"
     inkscape:pagecheckerboard="0"
     inkscape:deskcolor="#505050"
     inkscape:zoom="9.8333333"
     inkscape:cx="11.949153"
     inkscape:cy="12"
     inkscape:window-width="1504"
     inkscape:window-height="449"
     inkscape:window-x="0"
     inkscape:window-y="25"
     inkscape:window-maximized="0"
     inkscape:current-layer="svg2" />
  <path
     style="color:#000000;fill:#000000;stroke-linecap:round;stroke-linejoin:round;-inkscape-stroke:none"
     d="M 4,3 A 1.0001,1.0001 0 0 0 3,4 v 2.2265625 c 7.5e-5,0.7458268 0.2776614,1.4656816 0.7792969,2.0175781 L 8,12.886719 V 21 a 1.0001,1.0001 0 0 0 1.3164063,0.949219 l 1.9687497,-0.65625 a 1,1 0 0 0 0.632813,-1.265625 1,1 0 0 0 -1.263672,-0.632813 L 10,19.613281 V 12.5 A 1.0001,1.0001 0 0 0 9.7402344,11.828125 L 5.2597656,6.8984375 C 5.0923018,6.7141947 5.000025,6.4755347 5,6.2265625 V 5 h 14 v 1.171875 c -5e-5,0.265548 -0.105132,0.5192494 -0.292969,0.7070312 L 14.292969,11.292969 A 1.0001,1.0001 0 0 0 14,12 v 1.5 a 1,1 0 0 0 1,1 1,1 0 0 0 1,-1 V 12.414063 L 20.121094,8.2929688 C 20.683456,7.7307713 20.99985,6.9671059 21,6.171875 V 4 A 1.0001,1.0001 0 0 0 20,3 Z"
     id="path1" />
  <path
     style="color:#000000;fill:#000000;stroke-linecap:round;stroke-linejoin:round;-inkscape-stroke:none"
     d="m 19.904297,13.994141 c -0.407054,0 -0.809283,0.08039 -1.185547,0.236328 -0.376238,0.155781 -0.718029,0.384045 -1.005859,0.671875 l -3.416016,3.386718 A 1.0001,1.0001 0 0 0 14,19 v 3 a 1.0001,1.0001 0 0 0 1,1 h 3 a 1.0001,1.0001 0 0 0 0.710937,-0.294922 l 3.386719,-3.417969 0.002,-0.002 c 0.28692,-0.287426 0.51449,-0.62851 0.669922,-1.003906 0.15594,-0.376264 0.236328,-0.778493 0.236328,-1.185547 0,-0.407054 -0.08039,-0.811236 -0.236328,-1.1875 -0.155745,-0.376002 -0.383924,-0.717908 -0.671875,-1.005859 -0.28783,-0.28783 -0.629621,-0.516094 -1.005859,-0.671875 -0.376264,-0.15594 -0.780446,-0.236328 -1.1875,-0.236328 z m 0,2 c 0.144545,0 0.288539,0.02872 0.421875,0.08398 0.133361,0.05522 0.255252,0.136112 0.357422,0.238281 0.102048,0.102049 0.183026,0.224025 0.238281,0.357422 0.05526,0.133336 0.08398,0.27733 0.08398,0.421875 0,0.144545 -0.02872,0.286587 -0.08398,0.419922 -0.05522,0.133361 -0.136112,0.255252 -0.238281,0.357422 a 1.0001,1.0001 0 0 0 -0.0039,0.0039 L 17.583984,21 H 16 v -1.582031 l 3.123047,-3.097657 a 1.0001,1.0001 0 0 0 0.0039,-0.0039 c 0.10217,-0.102169 0.224061,-0.183063 0.357422,-0.238281 0.133335,-0.05526 0.275377,-0.08398 0.419922,-0.08398 z"
     id="path2" />
</svg>
