<svg width="24" height="24" viewBox="0 0 24 24" fill="none" xmlns="http://www.w3.org/2000/svg">
<g clip-path="url(#clip0_19819_721)">
<mask id="mask0_19819_721" style="mask-type:luminance" maskUnits="userSpaceOnUse" x="0" y="0" width="24" height="24">
<path d="M24 0H0V24H24V0Z" fill="white"/>
</mask>
<g mask="url(#mask0_19819_721)">
<path d="M5 3C4.20474 3 3.44125 3.31655 2.87891 3.87891C2.31655 4.44125 2 5.20474 2 6V17C2 17.7952 2.31659 18.5587 2.87891 19.1211C3.44125 19.6835 4.20475 20 5 20H11C11.2652 20 11.5196 19.8946 11.7071 19.7071C11.8946 19.5196 12 19.2652 12 19C12 18.7348 11.8946 18.4804 11.7071 18.2929C11.5196 18.1054 11.2652 18 11 18H5C4.73439 18 4.48076 17.8948 4.29297 17.707C4.10513 17.5192 4 17.2656 4 17V6C4 5.7344 4.10516 5.48077 4.29297 5.29297C4.48077 5.10516 4.7344 5 5 5H8.58594L11.293 7.70703C11.4805 7.89457 11.7348 7.99995 12 8H19C19.2656 8 19.5192 8.10513 19.707 8.29297C19.8948 8.48076 20 8.73439 20 9V11.5C20 11.7652 20.1054 12.0196 20.2929 12.2071C20.4804 12.3946 20.7348 12.5 21 12.5C21.2652 12.5 21.5196 12.3946 21.7071 12.2071C21.8946 12.0196 22 11.7652 22 11.5V9C22 8.20475 21.6835 7.44125 21.1211 6.87891C20.5587 6.31659 19.7952 6 19 6H12.4141L9.70703 3.29297C9.51952 3.10543 9.2652 3.00005 9 3H5Z" fill="black"/>
<path d="M18 14C16.9395 14 15.9217 14.422 15.1719 15.1719C14.422 15.9217 14 16.9395 14 18C14 19.0605 14.422 20.0783 15.1719 20.8281C15.9217 21.578 16.9395 22 18 22C19.0605 22 20.0783 21.578 20.8281 20.8281C21.578 20.0783 22 19.0605 22 18C22 16.9395 21.578 15.9217 20.8281 15.1719C20.0783 14.422 19.0605 14 18 14ZM18 16C18.5307 16 19.0387 16.2106 19.4141 16.5859C19.7894 16.9613 20 17.4693 20 18C20 18.5307 19.7894 19.0387 19.4141 19.4141C19.0387 19.7894 18.5307 20 18 20C17.4693 20 16.9613 19.7894 16.5859 19.4141C16.2106 19.0387 16 18.5307 16 18C16 17.4693 16.2106 16.9613 16.5859 16.5859C16.9613 16.2106 17.4693 16 18 16Z" fill="black"/>
<path d="M19.4922 19.492C19.3047 19.6796 19.1994 19.9339 19.1994 20.1991C19.1994 20.4642 19.3047 20.7186 19.4922 20.9061L21.293 22.7069C21.4805 22.8944 21.7348 22.9997 22 22.9997C22.2652 22.9997 22.5195 22.8944 22.707 22.7069C22.8945 22.5194 22.9999 22.265 22.9999 21.9999C22.9999 21.7347 22.8945 21.4804 22.707 21.2928L20.9082 19.492C20.8153 19.3989 20.705 19.325 20.5835 19.2746C20.462 19.2242 20.3317 19.1982 20.2002 19.1982C20.0687 19.1982 19.9384 19.2242 19.8169 19.2746C19.6954 19.325 19.5851 19.3989 19.4922 19.492Z" fill="black"/>
</g>
</g>
<defs>
<clipPath id="clip0_19819_721">
<rect width="24" height="24" fill="white"/>
</clipPath>
</defs>
</svg>
