<svg width="24" height="24" viewBox="0 0 24 24" fill="none" xmlns="http://www.w3.org/2000/svg">
<g clip-path="url(#clip0_19819_736)">
<mask id="mask0_19819_736" style="mask-type:luminance" maskUnits="userSpaceOnUse" x="0" y="0" width="24" height="24">
<path d="M24 0H0V24H24V0Z" fill="white"/>
</mask>
<g mask="url(#mask0_19819_736)">
<path d="M16.293 5.29282C16.1055 5.48035 16.0002 5.73467 16.0002 5.99985C16.0002 6.26503 16.1055 6.51935 16.293 6.70688L19 9.41391V15.9998C19 16.1329 18.9475 16.2594 18.8535 16.3534C18.7596 16.4473 18.633 16.4998 18.5 16.4998C18.367 16.4998 18.2404 16.4473 18.1465 16.3534C18.0525 16.2594 18 16.1329 18 15.9998V12.9998C18 12.2046 17.6834 11.4411 17.1211 10.8788C16.5587 10.3164 15.7952 9.99985 15 9.99985H14C13.7348 9.99985 13.4804 10.1052 13.2929 10.2927C13.1054 10.4803 13 10.7346 13 10.9998C13 11.2651 13.1054 11.5194 13.2929 11.707C13.4804 11.8945 13.7348 11.9998 14 11.9998H15C15.2656 11.9998 15.5192 12.105 15.707 12.2928C15.8949 12.4807 16 12.7343 16 12.9998V15.9998C16 16.6624 16.2638 17.2988 16.7324 17.7674C17.2011 18.2361 17.8374 18.4998 18.5 18.4998C19.1626 18.4998 19.7989 18.2361 20.2676 17.7674C20.7362 17.2988 21 16.6624 21 15.9998V8.99985C20.9999 8.73465 20.8946 8.48033 20.707 8.29282L17.707 5.29282C17.5195 5.10533 17.2652 5 17 5C16.7348 5 16.4805 5.10533 16.293 5.29282Z" fill="black"/>
<path d="M6 3C5.20474 3 4.44125 3.31655 3.87891 3.87891C3.31655 4.44125 3 5.20474 3 6V20C3 20.2652 3.10536 20.5196 3.29289 20.7071C3.48043 20.8946 3.73478 21 4 21C4.26522 21 4.51957 20.8946 4.70711 20.7071C4.89464 20.5196 5 20.2652 5 20V6C5 5.7344 5.10516 5.48077 5.29297 5.29297C5.48077 5.10516 5.7344 5 6 5H12C12.2656 5 12.5192 5.10513 12.707 5.29297C12.8948 5.48076 13 5.73439 13 6V20C13 20.2652 13.1054 20.5196 13.2929 20.7071C13.4804 20.8946 13.7348 21 14 21C14.2652 21 14.5196 20.8946 14.7071 20.7071C14.8946 20.5196 15 20.2652 15 20V6C15 5.20475 14.6835 4.44125 14.1211 3.87891C13.5587 3.31659 12.7952 3 12 3H6Z" fill="black"/>
<path d="M3 19C2.73478 19 2.48043 19.1054 2.29289 19.2929C2.10536 19.4804 2 19.7348 2 20C2 20.2652 2.10536 20.5196 2.29289 20.7071C2.48043 20.8946 2.73478 21 3 21H15C15.2652 21 15.5196 20.8946 15.7071 20.7071C15.8946 20.5196 16 20.2652 16 20C16 19.7348 15.8946 19.4804 15.7071 19.2929C15.5196 19.1054 15.2652 19 15 19H3Z" fill="black"/>
<path d="M18 6C17.7348 6 17.4804 6.10536 17.2929 6.29289C17.1054 6.48043 17 6.73478 17 7V8C17 8.53016 17.2113 9.03933 17.5859 9.41406C17.9608 9.78898 18.4699 10 19 10H20C20.2652 10 20.5196 9.89464 20.7071 9.70711C20.8946 9.51957 21 9.26522 21 9C21 8.73478 20.8946 8.48043 20.7071 8.29289C20.5196 8.10536 20.2652 8 20 8H19V7C19 6.73478 18.8946 6.48043 18.7071 6.29289C18.5196 6.10536 18.2652 6 18 6Z" fill="black"/>
<path d="M4 10C3.73478 10 3.48043 10.1054 3.29289 10.2929C3.10536 10.4804 3 10.7348 3 11C3 11.2652 3.10536 11.5196 3.29289 11.7071C3.48043 11.8946 3.73478 12 4 12H14C14.2652 12 14.5196 11.8946 14.7071 11.7071C14.8946 11.5196 15 11.2652 15 11C15 10.7348 14.8946 10.4804 14.7071 10.2929C14.5196 10.1054 14.2652 10 14 10H4Z" fill="black"/>
</g>
</g>
<defs>
<clipPath id="clip0_19819_736">
<rect width="24" height="24" fill="white"/>
</clipPath>
</defs>
</svg>
