<?xml version="1.0" encoding="UTF-8" standalone="no"?>
<svg
   width="24"
   height="24"
   viewBox="0 0 24 24"
   fill="none"
   version="1.1"
   id="svg3"
   sodipodi:docname="help.svg"
   inkscape:version="1.3.2 (091e20e, 2023-11-25)"
   xmlns:inkscape="http://www.inkscape.org/namespaces/inkscape"
   xmlns:sodipodi="http://sodipodi.sourceforge.net/DTD/sodipodi-0.dtd"
   xmlns="http://www.w3.org/2000/svg"
   xmlns:svg="http://www.w3.org/2000/svg">
  <defs
     id="defs3" />
  <sodipodi:namedview
     id="namedview3"
     pagecolor="#505050"
     bordercolor="#eeeeee"
     borderopacity="1"
     inkscape:showpageshadow="0"
     inkscape:pageopacity="0"
     inkscape:pagecheckerboard="0"
     inkscape:deskcolor="#505050"
     inkscape:zoom="9.8333333"
     inkscape:cx="11.949153"
     inkscape:cy="12"
     inkscape:window-width="1504"
     inkscape:window-height="449"
     inkscape:window-x="0"
     inkscape:window-y="25"
     inkscape:window-maximized="0"
     inkscape:current-layer="svg3" />
  <path
     style="color:#000000;fill:#000000;stroke-linecap:round;stroke-linejoin:round;-inkscape-stroke:none"
     d="M 12,2 C 10.686793,2 9.3870706,2.2591797 8.1738281,2.7617188 6.9605912,3.2642666 5.858267,4.001108 4.9296875,4.9296875 4.001108,5.858267 3.2642666,6.9605912 2.7617188,8.1738281 2.2591797,9.3870706 2,10.686793 2,12 c 0,1.313207 0.2591926,2.612883 0.7617188,3.826172 0.5025518,1.213213 1.2394306,2.315525 2.1679687,3.24414 0.9285829,0.92855 2.0309181,1.665427 3.2441406,2.167969 C 9.3870698,21.740831 10.686787,22 12,22 c 1.313213,0 2.612884,-0.259182 3.826172,-0.761719 1.213199,-0.502546 2.315521,-1.23946 3.24414,-2.167969 0.928509,-0.928619 1.665423,-2.030941 2.167969,-3.24414 C 21.740818,14.612884 22,13.313213 22,12 22,10.686787 21.740831,9.3870698 21.238281,8.1738281 20.735739,6.9606056 19.998862,5.8582704 19.070312,4.9296875 18.141697,4.0011494 17.039385,3.2642706 15.826172,2.7617188 14.612883,2.2591926 13.313207,2 12,2 Z m 0,2 c 1.050591,0 2.091791,0.2073221 3.0625,0.609375 0.969987,0.4020327 1.851154,0.9918412 2.59375,1.734375 0.742849,0.7428754 1.332318,1.6250678 1.734375,2.5957031 C 19.792674,9.9100693 20,10.949415 20,12 c 0,1.04994 -0.207799,2.090348 -0.609375,3.060547 -0.402053,0.970599 -0.991485,1.852724 -1.734375,2.595703 -0.742979,0.74289 -1.625104,1.332322 -2.595703,1.734375 C 14.090348,19.792201 13.04994,20 12,20 10.949415,20 9.9100693,19.792674 8.9394531,19.390625 7.9688178,18.988568 7.0866254,18.399099 6.34375,17.65625 5.6012162,16.913654 5.0114077,16.032487 4.609375,15.0625 v -0.002 C 4.207808,14.090348 4,13.049946 4,12 4,10.949409 4.2073349,9.9100685 4.609375,8.9394531 5.0114263,7.9688322 5.6008712,7.0866288 6.34375,6.34375 7.0866288,5.6008712 7.9688322,5.0114263 8.9394531,4.609375 9.9100685,4.2073349 10.949409,4 12,4 Z"
     id="path1" />
  <path
     style="color:#000000;fill:#000000;stroke-linecap:round;stroke-linejoin:round;-inkscape-stroke:none"
     d="m 12,16 a 1,1 0 0 0 -1,1 v 0.0098 a 1,1 0 0 0 1,1 1,1 0 0 0 1,-1 V 17 a 1,1 0 0 0 -1,-1 z"
     id="path2" />
  <path
     style="color:#000000;fill:#000000;stroke-linecap:round;stroke-linejoin:round;-inkscape-stroke:none"
     d="M 12.082031,5.9726562 C 11.52487,5.9711055 10.974002,6.0986096 10.474609,6.3457031 9.9753996,6.5927746 9.5399429,6.9524719 9.203125,7.3964844 A 1,1 0 0 0 9.3964844,8.796875 1,1 0 0 0 10.796875,8.6054688 c 0.149582,-0.197187 0.342464,-0.3588819 0.564453,-0.46875 0.222007,-0.1098462 0.467206,-0.1647518 0.714844,-0.1640626 0.247653,6.893e-4 0.491512,0.056904 0.712891,0.1679688 0.221399,0.1110814 0.414,0.2726585 0.5625,0.4707031 0.148594,0.1980894 0.248352,0.4282805 0.292968,0.671875 0.04465,0.2434209 0.03357,0.4942784 -0.03516,0.7324219 -0.06869,0.237937 -0.191744,0.456266 -0.359375,0.638672 -0.16778,0.1825 -0.375972,0.323569 -0.607422,0.412109 l 0.02539,-0.0098 c -0.511158,0.179663 -0.949445,0.521824 -1.25,0.972656 -0.300397,0.450678 -0.446671,0.986387 -0.416016,1.527344 a 1,1 0 0 0 1.054688,0.941406 1,1 0 0 0 0.941406,-1.054688 c -0.0061,-0.108443 0.02378,-0.214366 0.08398,-0.304687 0.06025,-0.09037 0.147758,-0.159376 0.25,-0.195313 a 1.0001,1.0001 0 0 0 0.02539,-0.0098 c 0.52035,-0.199059 0.988215,-0.515683 1.365234,-0.925781 0.376969,-0.410194 0.652127,-0.902239 0.806641,-1.4375 0.154469,-0.535216 0.182585,-1.1001997 0.08203,-1.648438 C 15.510709,8.3747602 15.285055,7.8572045 14.951172,7.4121094 14.616872,6.9662746 14.183547,6.6033739 13.685547,6.3535156 13.187526,6.1036608 12.639177,5.974207 12.082031,5.9726562 Z"
     id="path3" />
</svg>
