<svg width="24" height="24" viewBox="0 0 24 24" fill="none" xmlns="http://www.w3.org/2000/svg">
<g clip-path="url(#clip0_19819_760)">
<mask id="mask0_19819_760" style="mask-type:luminance" maskUnits="userSpaceOnUse" x="0" y="0" width="24" height="24">
<path d="M24 0H0V24H24V0Z" fill="white"/>
</mask>
<g mask="url(#mask0_19819_760)">
<path d="M12 7C11.7348 7 11.4804 7.10536 11.2929 7.29289C11.1054 7.48043 11 7.73478 11 8V12C11.0001 12.2652 11.1054 12.5195 11.293 12.707L13.293 14.707C13.4805 14.8945 13.7348 14.9998 14 14.9998C14.2652 14.9998 14.5195 14.8945 14.707 14.707C14.8945 14.5195 14.9998 14.2652 14.9998 14C14.9998 13.7348 14.8945 13.4805 14.707 13.293L13 11.5859V8C13 7.73478 12.8946 7.48043 12.7071 7.29289C12.5196 7.10536 12.2652 7 12 7Z" fill="black"/>
<path d="M11.8887 1.91227C9.43205 1.94033 7.07147 2.87227 5.25781 4.52946C3.44416 6.18667 2.30366 8.45449 2.05469 10.8986C2.04145 11.0293 2.05409 11.1613 2.09189 11.2871C2.12969 11.4129 2.1919 11.53 2.27497 11.6318C2.35803 11.7335 2.46034 11.8179 2.57603 11.8801C2.69172 11.9423 2.81853 11.9811 2.94922 11.9943C3.21284 12.0211 3.47631 11.9421 3.68175 11.7747C3.88719 11.6074 4.01781 11.3653 4.04492 11.1017C4.24415 9.14596 5.15614 7.33211 6.60742 6.00602C8.0587 4.67994 9.94634 3.93472 11.9121 3.91227C13.8779 3.88982 15.7825 4.59234 17.2637 5.88493C18.7448 7.17752 19.6976 8.96942 19.9414 10.9201C20.1853 12.8708 19.7034 14.8417 18.5859 16.4591C17.4685 18.0765 15.7955 19.2255 13.8848 19.6877C11.9739 20.1498 9.95961 19.893 8.22656 18.965C6.95977 18.2866 6.01882 17.2112 5.28125 16.0002H8.04883C8.31404 16.0002 8.5684 15.8948 8.75593 15.7073C8.94347 15.5197 9.04883 15.2654 9.04883 15.0002C9.04883 14.7349 8.94347 14.4806 8.75593 14.2931C8.5684 14.1055 8.31404 14.0002 8.04883 14.0002H3.04883C2.78362 14.0002 2.52928 14.1056 2.34175 14.2931C2.15422 14.4806 2.04885 14.735 2.04883 15.0002V20.0002C2.04883 20.2654 2.15418 20.5197 2.34172 20.7073C2.52926 20.8948 2.78361 21.0002 3.04883 21.0002C3.31404 21.0002 3.5684 20.8948 3.75593 20.7073C3.94347 20.5197 4.04883 20.2654 4.04883 20.0002V17.7834C4.92357 18.9697 5.96334 20.0219 7.2832 20.7287C9.44897 21.8884 11.9656 22.2105 14.3535 21.633C16.7413 21.0554 18.834 19.6171 20.2305 17.5959C21.6269 15.5746 22.2305 13.1099 21.9258 10.672C21.621 8.2343 20.4291 5.99247 18.5781 4.37712C16.7271 2.76177 14.3453 1.88421 11.8887 1.91227Z" fill="black"/>
</g>
</g>
<defs>
<clipPath id="clip0_19819_760">
<rect width="24" height="24" fill="white"/>
</clipPath>
</defs>
</svg>
