<svg width="24" height="24" viewBox="0 0 24 24" fill="none" xmlns="http://www.w3.org/2000/svg">
<g clip-path="url(#clip0_19819_767)">
<mask id="mask0_19819_767" style="mask-type:luminance" maskUnits="userSpaceOnUse" x="0" y="0" width="24" height="24">
<path d="M24 0H0V24H24V0Z" fill="white"/>
</mask>
<g mask="url(#mask0_19819_767)">
<path d="M11.2929 2.29302L2.29292 11.293C2.15315 11.4329 2.05797 11.6111 2.01943 11.805C1.98088 11.9989 2.0007 12.2 2.07636 12.3827C2.15203 12.5653 2.28016 12.7215 2.44455 12.8314C2.60894 12.9413 2.80221 13 2.99995 13.0001H4.99995C5.26517 13.0001 5.51952 12.8947 5.70706 12.7072C5.8946 12.5196 5.99995 12.2653 5.99995 12.0001C5.99859 11.7966 5.93522 11.5985 5.81832 11.432C5.70141 11.2656 5.53653 11.1387 5.34566 11.0684L12 4.41411L18.707 11.1211C18.5144 11.1795 18.3439 11.2946 18.2177 11.4514C18.0916 11.6082 18.0157 11.7994 18 12.0001C18 12.2653 18.1053 12.5196 18.2928 12.7072C18.4804 12.8947 18.7347 13.0001 19 13.0001H21C21.1977 13 21.391 12.9413 21.5554 12.8314C21.7197 12.7215 21.8479 12.5653 21.9235 12.3827C21.9992 12.2 22.019 11.9989 21.9805 11.805C21.9419 11.6111 21.8468 11.4329 21.707 11.293L12.707 2.29302C12.5194 2.10555 12.2651 2.00024 12 2.00024C11.7348 2.00024 11.4805 2.10555 11.2929 2.29302Z" fill="black"/>
<path d="M5 11C4.73478 11 4.48043 11.1054 4.29289 11.2929C4.10536 11.4804 4 11.7348 4 12V19C4 19.7952 4.31659 20.5587 4.87891 21.1211C5.44125 21.6835 6.20475 22 7 22H17C17.7952 22 18.5587 21.6834 19.1211 21.1211C19.6834 20.5587 20 19.7952 20 19V12C20 11.7348 19.8946 11.4804 19.7071 11.2929C19.5196 11.1054 19.2652 11 19 11C18.7348 11 18.4804 11.1054 18.2929 11.2929C18.1054 11.4804 18 11.7348 18 12V19C18 19.2656 17.8949 19.5192 17.707 19.707C17.5192 19.8949 17.2656 20 17 20H7C6.73439 20 6.48076 19.8948 6.29297 19.707C6.10513 19.5192 6 19.2656 6 19V12C6 11.7348 5.89464 11.4804 5.70711 11.2929C5.51957 11.1054 5.26522 11 5 11Z" fill="black"/>
<path d="M11 12C10.2048 12 9.44127 12.3165 8.87891 12.8789C8.31659 13.4413 8 14.2048 8 15V21C8 21.2652 8.10536 21.5196 8.29289 21.7071C8.48043 21.8946 8.73478 22 9 22C9.26522 22 9.51957 21.8946 9.70711 21.7071C9.89464 21.5196 10 21.2652 10 21V15C10 14.7344 10.1051 14.4808 10.293 14.293C10.4807 14.1052 10.7344 14 11 14H13C13.2656 14 13.5192 14.1051 13.707 14.293C13.8949 14.4808 14 14.7344 14 15V21C14 21.2652 14.1054 21.5196 14.2929 21.7071C14.4804 21.8946 14.7348 22 15 22C15.2652 22 15.5196 21.8946 15.7071 21.7071C15.8946 21.5196 16 21.2652 16 21V15C16 14.2048 15.6834 13.4413 15.1211 12.8789C14.5587 12.3166 13.7952 12 13 12H11Z" fill="black"/>
</g>
</g>
<defs>
<clipPath id="clip0_19819_767">
<rect width="24" height="24" fill="white"/>
</clipPath>
</defs>
</svg>
