<svg width="24" height="24" viewBox="0 0 24 24" fill="none" xmlns="http://www.w3.org/2000/svg">
<g clip-path="url(#clip0_19819_805)">
<mask id="mask0_19819_805" style="mask-type:luminance" maskUnits="userSpaceOnUse" x="0" y="0" width="24" height="24">
<path d="M24 0H0V24H24V0Z" fill="white"/>
</mask>
<g mask="url(#mask0_19819_805)">
<path d="M6 3C5.20474 3 4.44125 3.31655 3.87891 3.87891C3.31655 4.44125 3 5.20474 3 6V8C3 8.79526 3.31655 9.55875 3.87891 10.1211C4.44125 10.6834 5.20474 11 6 11H18C18.7952 11 19.5587 10.6834 20.1211 10.1211C20.6835 9.55874 21 8.79525 21 8V6C21 5.20475 20.6835 4.44125 20.1211 3.87891C19.5587 3.31659 18.7952 3 18 3H6ZM6 5H18C18.2656 5 18.5192 5.10513 18.707 5.29297C18.8948 5.48076 19 5.73439 19 6V8C19 8.26561 18.8948 8.51924 18.707 8.70703C18.5192 8.89487 18.2656 9 18 9H6C5.7344 9 5.48077 8.89484 5.29297 8.70703C5.10516 8.51923 5 8.2656 5 8V6C5 5.7344 5.10516 5.48077 5.29297 5.29297C5.48077 5.10516 5.7344 5 6 5Z" fill="black"/>
<path d="M6 13C5.20475 13 4.44125 13.3165 3.87891 13.8789C3.31659 14.4413 3 15.2048 3 16V18C3 18.7952 3.31659 19.5587 3.87891 20.1211C4.44125 20.6835 5.20475 21 6 21H18C18.7952 21 19.5587 20.6834 20.1211 20.1211C20.6834 19.5587 21 18.7952 21 18V16C21 15.2048 20.6834 14.4413 20.1211 13.8789C19.5587 13.3166 18.7952 13 18 13H6ZM6 15H18C18.2656 15 18.5192 15.1051 18.707 15.293C18.8949 15.4808 19 15.7344 19 16V18C19 18.2656 18.8949 18.5192 18.707 18.707C18.5192 18.8949 18.2656 19 18 19H6C5.73439 19 5.48076 18.8948 5.29297 18.707C5.10513 18.5192 5 18.2656 5 18V16C5 15.7344 5.10513 15.4808 5.29297 15.293C5.48076 15.1052 5.73439 15 6 15Z" fill="black"/>
</g>
</g>
<defs>
<clipPath id="clip0_19819_805">
<rect width="24" height="24" fill="white"/>
</clipPath>
</defs>
</svg>
