<svg width="24" height="24" viewBox="0 0 24 24" fill="none" xmlns="http://www.w3.org/2000/svg">
<g clip-path="url(#clip0_19819_796)">
<mask id="mask0_19819_796" style="mask-type:luminance" maskUnits="userSpaceOnUse" x="0" y="0" width="24" height="24">
<path d="M24 0H0V24H24V0Z" fill="white"/>
</mask>
<g mask="url(#mask0_19819_796)">
<path d="M5 3C4.46994 3 3.96073 3.21117 3.58594 3.58594C3.21117 3.96073 3 4.46994 3 5V9C3 9.53006 3.21117 10.0393 3.58594 10.4141C3.96073 10.7888 4.46994 11 5 11H9C9.53006 11 10.0393 10.7888 10.4141 10.4141C10.7888 10.0393 11 9.53006 11 9V5C11 4.46994 10.7888 3.96073 10.4141 3.58594C10.0393 3.21117 9.53006 3 9 3H5ZM5 5H9V9H5V5Z" fill="black"/>
<path d="M15 3C14.4699 3 13.9608 3.21102 13.5859 3.58594C13.2113 3.96067 13 4.46984 13 5V9C13 9.53016 13.2113 10.0393 13.5859 10.4141C13.9608 10.789 14.4699 11 15 11H19C19.5301 11 20.0392 10.789 20.4141 10.4141C20.7887 10.0393 21 9.53016 21 9V5C21 4.46984 20.7887 3.96067 20.4141 3.58594C20.0392 3.21102 19.5301 3 19 3H15ZM15 5H19V9H15V5Z" fill="black"/>
<path d="M5 13C4.46984 13 3.96067 13.2113 3.58594 13.5859C3.21102 13.9608 3 14.4699 3 15V19C3 19.5301 3.21102 20.0392 3.58594 20.4141C3.96067 20.7887 4.46984 21 5 21H9C9.53016 21 10.0393 20.7887 10.4141 20.4141C10.789 20.0392 11 19.5301 11 19V15C11 14.4699 10.789 13.9608 10.4141 13.5859C10.0393 13.2113 9.53016 13 9 13H5ZM5 15H9V19H5V15Z" fill="black"/>
<path d="M15 13C14.4698 13 13.9607 13.2111 13.5859 13.5859C13.2111 13.9607 13 14.4698 13 15V19C13 19.5302 13.2111 20.0393 13.5859 20.4141C13.9607 20.7889 14.4698 21 15 21H19C19.5302 21 20.0393 20.7889 20.4141 20.4141C20.7889 20.0393 21 19.5302 21 19V15C21 14.4698 20.7889 13.9607 20.4141 13.5859C20.0393 13.2111 19.5302 13 19 13H15ZM15 15H19V19H15V15Z" fill="black"/>
</g>
</g>
<defs>
<clipPath id="clip0_19819_796">
<rect width="24" height="24" fill="white"/>
</clipPath>
</defs>
</svg>
