<svg width="24" height="24" viewBox="0 0 24 24" fill="none" xmlns="http://www.w3.org/2000/svg">
<g clip-path="url(#clip0_19819_789)">
<mask id="mask0_19819_789" style="mask-type:luminance" maskUnits="userSpaceOnUse" x="0" y="0" width="24" height="24">
<path d="M24 0H0V24H24V0Z" fill="white"/>
</mask>
<g mask="url(#mask0_19819_789)">
<path d="M6 3C5.20474 3 4.44125 3.31655 3.87891 3.87891C3.31655 4.44125 3 5.20474 3 6V18C3 18.7952 3.31659 19.5587 3.87891 20.1211C4.44125 20.6835 5.20475 21 6 21H8C8.79525 21 9.55874 20.6835 10.1211 20.1211C10.6834 19.5587 11 18.7952 11 18V6C11 5.20474 10.6834 4.44125 10.1211 3.87891C9.55875 3.31655 8.79526 3 8 3H6ZM6 5H8C8.2656 5 8.51923 5.10516 8.70703 5.29297C8.89484 5.48077 9 5.7344 9 6V18C9 18.2656 8.89487 18.5192 8.70703 18.707C8.51924 18.8948 8.26561 19 8 19H6C5.73439 19 5.48076 18.8948 5.29297 18.707C5.10513 18.5192 5 18.2656 5 18V6C5 5.7344 5.10516 5.48077 5.29297 5.29297C5.48077 5.10516 5.7344 5 6 5Z" fill="black"/>
<path d="M16 3C15.2048 3 14.4413 3.31659 13.8789 3.87891C13.3165 4.44125 13 5.20475 13 6V12C13 12.7952 13.3166 13.5587 13.8789 14.1211C14.4413 14.6834 15.2048 15 16 15H18C18.7952 15 19.5587 14.6834 20.1211 14.1211C20.6834 13.5587 21 12.7952 21 12V6C21 5.20475 20.6835 4.44125 20.1211 3.87891C19.5587 3.31659 18.7952 3 18 3H16ZM16 5H18C18.2656 5 18.5192 5.10513 18.707 5.29297C18.8948 5.48076 19 5.73439 19 6V12C19 12.2656 18.8949 12.5192 18.707 12.707C18.5192 12.8949 18.2656 13 18 13H16C15.7344 13 15.4808 12.8949 15.293 12.707C15.1051 12.5192 15 12.2656 15 12V6C15 5.73439 15.1052 5.48076 15.293 5.29297C15.4808 5.10513 15.7344 5 16 5Z" fill="black"/>
</g>
</g>
<defs>
<clipPath id="clip0_19819_789">
<rect width="24" height="24" fill="white"/>
</clipPath>
</defs>
</svg>
