<svg width="24" height="24" viewBox="0 0 24 24" fill="none" xmlns="http://www.w3.org/2000/svg">
<g clip-path="url(#clip0_19819_871)">
<mask id="mask0_19819_871" style="mask-type:luminance" maskUnits="userSpaceOnUse" x="0" y="0" width="24" height="24">
<path d="M24 0H0V24H24V0Z" fill="white"/>
</mask>
<g mask="url(#mask0_19819_871)">
<path d="M15 10C13.6743 10 12.4022 10.5273 11.4648 11.4648C10.5273 12.4022 10 13.6743 10 15C10 16.3257 10.5273 17.5978 11.4648 18.5352C12.4022 19.4727 13.6743 20 15 20C16.3257 20 17.5978 19.4727 18.5352 18.5352C19.4727 17.5978 20 16.3257 20 15C20 13.6743 19.4727 12.4022 18.5352 11.4648C17.5978 10.5273 16.3257 10 15 10ZM15 12C15.7961 12 16.5583 12.316 17.1211 12.8789C17.684 13.4417 18 14.2039 18 15C18 15.7961 17.684 16.5583 17.1211 17.1211C16.5583 17.684 15.7961 18 15 18C14.2039 18 13.4417 17.684 12.8789 17.1211C12.316 16.5583 12 15.7961 12 15C12 14.2039 12.316 13.4417 12.8789 12.8789C13.4417 12.316 14.2039 12 15 12Z" fill="black"/>
<path d="M17.7929 17.7928C17.6055 17.9803 17.5001 18.2347 17.5001 18.4998C17.5001 18.765 17.6055 19.0194 17.7929 19.2069L20.2929 21.7069C20.4805 21.8944 20.7348 21.9997 21 21.9997C21.2652 21.9997 21.5195 21.8944 21.707 21.7069C21.8945 21.5194 21.9998 21.265 21.9998 20.9998C21.9998 20.7347 21.8945 20.4803 21.707 20.2928L19.207 17.7928C19.0195 17.6053 18.7652 17.5 18.5 17.5C18.2348 17.5 17.9805 17.6053 17.7929 17.7928Z" fill="black"/>
<path d="M4 5C3.73478 5 3.48043 5.10536 3.29289 5.29289C3.10536 5.48043 3 5.73478 3 6C3 6.26522 3.10536 6.51957 3.29289 6.70711C3.48043 6.89464 3.73478 7 4 7H20C20.2652 7 20.5196 6.89464 20.7071 6.70711C20.8946 6.51957 21 6.26522 21 6C21 5.73478 20.8946 5.48043 20.7071 5.29289C20.5196 5.10536 20.2652 5 20 5H4Z" fill="black"/>
<path d="M4 11C3.73478 11 3.48043 11.1054 3.29289 11.2929C3.10536 11.4804 3 11.7348 3 12C3 12.2652 3.10536 12.5196 3.29289 12.7071C3.48043 12.8946 3.73478 13 4 13H8C8.26522 13 8.51957 12.8946 8.70711 12.7071C8.89464 12.5196 9 12.2652 9 12C9 11.7348 8.89464 11.4804 8.70711 11.2929C8.51957 11.1054 8.26522 11 8 11H4Z" fill="black"/>
<path d="M4 17C3.73478 17 3.48043 17.1054 3.29289 17.2929C3.10536 17.4804 3 17.7348 3 18C3 18.2652 3.10536 18.5196 3.29289 18.7071C3.48043 18.8946 3.73478 19 4 19H8C8.26522 19 8.51957 18.8946 8.70711 18.7071C8.89464 18.5196 9 18.2652 9 18C9 17.7348 8.89464 17.4804 8.70711 17.2929C8.51957 17.1054 8.26522 17 8 17H4Z" fill="black"/>
</g>
</g>
<defs>
<clipPath id="clip0_19819_871">
<rect width="24" height="24" fill="white"/>
</clipPath>
</defs>
</svg>
