<svg width="24" height="24" viewBox="0 0 24 24" fill="none" xmlns="http://www.w3.org/2000/svg">
<g clip-path="url(#clip0_19819_849)">
<mask id="mask0_19819_849" style="mask-type:luminance" maskUnits="userSpaceOnUse" x="0" y="0" width="24" height="24">
<path d="M24 0H0V24H24V0Z" fill="white"/>
</mask>
<g mask="url(#mask0_19819_849)">
<path d="M7.49997 3.5C7.23477 3.50004 6.98045 3.60542 6.79294 3.79297L4.99997 5.58594L4.207 4.79297C4.01947 4.60548 3.76515 4.50015 3.49997 4.50015C3.23479 4.50015 2.98047 4.60548 2.79294 4.79297C2.60545 4.9805 2.50012 5.23482 2.50012 5.5C2.50012 5.76518 2.60545 6.0195 2.79294 6.20703L4.29294 7.70703C4.48048 7.8945 4.7348 7.99981 4.99997 7.99981C5.26514 7.99981 5.51946 7.8945 5.707 7.70703L8.207 5.20703C8.39449 5.0195 8.49982 4.76518 8.49982 4.5C8.49982 4.23482 8.39449 3.9805 8.207 3.79297C8.0195 3.60542 7.76517 3.50004 7.49997 3.5Z" fill="black"/>
<path d="M7.49997 9.5C7.23477 9.50004 6.98044 9.60542 6.79294 9.79297L4.99997 11.5859L4.207 10.793C4.01947 10.6055 3.76515 10.5002 3.49997 10.5002C3.23479 10.5002 2.98047 10.6055 2.79294 10.793C2.60545 10.9805 2.50012 11.2348 2.50012 11.5C2.50012 11.7652 2.60545 12.0195 2.79294 12.207L4.29294 13.707C4.48048 13.8945 4.7348 13.9998 4.99997 13.9998C5.26514 13.9998 5.51946 13.8945 5.707 13.707L8.207 11.207C8.39449 11.0195 8.49982 10.7652 8.49982 10.5C8.49982 10.2348 8.39449 9.9805 8.207 9.79297C8.0195 9.60542 7.76517 9.50004 7.49997 9.5Z" fill="black"/>
<path d="M7.49997 15.5C7.23477 15.5 6.98044 15.6054 6.79294 15.793L4.99997 17.5859L4.207 16.793C4.01947 16.6055 3.76515 16.5002 3.49997 16.5002C3.23479 16.5002 2.98047 16.6055 2.79294 16.793C2.60545 16.9805 2.50012 17.2348 2.50012 17.5C2.50012 17.7652 2.60545 18.0195 2.79294 18.207L4.29294 19.707C4.48048 19.8945 4.7348 19.9998 4.99997 19.9998C5.26514 19.9998 5.51946 19.8945 5.707 19.707L8.207 17.207C8.39449 17.0195 8.49982 16.7652 8.49982 16.5C8.49982 16.2348 8.39449 15.9805 8.207 15.793C8.0195 15.6054 7.76517 15.5 7.49997 15.5Z" fill="black"/>
<path d="M11 5C10.7348 5 10.4804 5.10536 10.2929 5.29289C10.1054 5.48043 10 5.73478 10 6C10 6.26522 10.1054 6.51957 10.2929 6.70711C10.4804 6.89464 10.7348 7 11 7H20C20.2652 7 20.5196 6.89464 20.7071 6.70711C20.8946 6.51957 21 6.26522 21 6C21 5.73478 20.8946 5.48043 20.7071 5.29289C20.5196 5.10536 20.2652 5 20 5H11Z" fill="black"/>
<path d="M11 11C10.7348 11 10.4804 11.1054 10.2929 11.2929C10.1054 11.4804 10 11.7348 10 12C10 12.2652 10.1054 12.5196 10.2929 12.7071C10.4804 12.8946 10.7348 13 11 13H20C20.2652 13 20.5196 12.8946 20.7071 12.7071C20.8946 12.5196 21 12.2652 21 12C21 11.7348 20.8946 11.4804 20.7071 11.2929C20.5196 11.1054 20.2652 11 20 11H11Z" fill="black"/>
<path d="M11 17C10.7348 17 10.4804 17.1054 10.2929 17.2929C10.1054 17.4804 10 17.7348 10 18C10 18.2652 10.1054 18.5196 10.2929 18.7071C10.4804 18.8946 10.7348 19 11 19H20C20.2652 19 20.5196 18.8946 20.7071 18.7071C20.8946 18.5196 21 18.2652 21 18C21 17.7348 20.8946 17.4804 20.7071 17.2929C20.5196 17.1054 20.2652 17 20 17H11Z" fill="black"/>
</g>
</g>
<defs>
<clipPath id="clip0_19819_849">
<rect width="24" height="24" fill="white"/>
</clipPath>
</defs>
</svg>
