<svg width="24" height="24" viewBox="0 0 24 24" fill="none" xmlns="http://www.w3.org/2000/svg">
<g clip-path="url(#clip0_19819_860)">
<mask id="mask0_19819_860" style="mask-type:luminance" maskUnits="userSpaceOnUse" x="0" y="0" width="24" height="24">
<path d="M24 0H0V24H24V0Z" fill="white"/>
</mask>
<g mask="url(#mask0_19819_860)">
<path d="M13 4C12.7348 4 12.4804 4.10536 12.2929 4.29289C12.1054 4.48043 12 4.73478 12 5C12 5.26522 12.1054 5.51957 12.2929 5.70711C12.4804 5.89464 12.7348 6 13 6H21C21.2652 6 21.5196 5.89464 21.7071 5.70711C21.8946 5.51957 22 5.26522 22 5C22 4.73478 21.8946 4.48043 21.7071 4.29289C21.5196 4.10536 21.2652 4 21 4H13Z" fill="black"/>
<path d="M13 8C12.7348 8 12.4804 8.10536 12.2929 8.29289C12.1054 8.48043 12 8.73478 12 9C12 9.26522 12.1054 9.51957 12.2929 9.70711C12.4804 9.89464 12.7348 10 13 10H18C18.2652 10 18.5196 9.89464 18.7071 9.70711C18.8946 9.51957 19 9.26522 19 9C19 8.73478 18.8946 8.48043 18.7071 8.29289C18.5196 8.10536 18.2652 8 18 8H13Z" fill="black"/>
<path d="M13 14C12.7348 14 12.4804 14.1054 12.2929 14.2929C12.1054 14.4804 12 14.7348 12 15C12 15.2652 12.1054 15.5196 12.2929 15.7071C12.4804 15.8946 12.7348 16 13 16H21C21.2652 16 21.5196 15.8946 21.7071 15.7071C21.8946 15.5196 22 15.2652 22 15C22 14.7348 21.8946 14.4804 21.7071 14.2929C21.5196 14.1054 21.2652 14 21 14H13Z" fill="black"/>
<path d="M13 18C12.7348 18 12.4804 18.1054 12.2929 18.2929C12.1054 18.4804 12 18.7348 12 19C12 19.2652 12.1054 19.5196 12.2929 19.7071C12.4804 19.8946 12.7348 20 13 20H18C18.2652 20 18.5196 19.8946 18.7071 19.7071C18.8946 19.5196 19 19.2652 19 19C19 18.7348 18.8946 18.4804 18.7071 18.2929C18.5196 18.1054 18.2652 18 18 18H13Z" fill="black"/>
<path d="M4 3C3.46994 3 2.96073 3.21117 2.58594 3.58594C2.21117 3.96073 2 4.46994 2 5V9C2 9.53006 2.21117 10.0393 2.58594 10.4141C2.96073 10.7888 3.46994 11 4 11H8C8.53006 11 9.03927 10.7888 9.41406 10.4141C9.78883 10.0393 10 9.53006 10 9V5C10 4.46994 9.78883 3.96073 9.41406 3.58594C9.03927 3.21117 8.53006 3 8 3H4ZM4 5H8V9H4V5Z" fill="black"/>
<path d="M4 13C3.46984 13 2.96067 13.2113 2.58594 13.5859C2.21102 13.9608 2 14.4699 2 15V19C2 19.5301 2.21102 20.0392 2.58594 20.4141C2.96067 20.7887 3.46984 21 4 21H8C8.53016 21 9.03933 20.7887 9.41406 20.4141C9.78898 20.0392 10 19.5301 10 19V15C10 14.4699 9.78898 13.9608 9.41406 13.5859C9.03933 13.2113 8.53016 13 8 13H4ZM4 15H8V19H4V15Z" fill="black"/>
</g>
</g>
<defs>
<clipPath id="clip0_19819_860">
<rect width="24" height="24" fill="white"/>
</clipPath>
</defs>
</svg>
