<svg width="24" height="24" viewBox="0 0 24 24" fill="none" xmlns="http://www.w3.org/2000/svg">
<g clip-path="url(#clip0_19819_881)">
<mask id="mask0_19819_881" style="mask-type:luminance" maskUnits="userSpaceOnUse" x="0" y="0" width="24" height="24">
<path d="M24 0H0V24H24V0Z" fill="white"/>
</mask>
<g mask="url(#mask0_19819_881)">
<path d="M20.6602 2.05846L2.66016 8.55846C2.63432 8.56847 2.6089 8.57955 2.58398 8.59166C2.31421 8.71528 2.08408 8.91224 1.92383 9.16198C1.76357 9.41169 1.67969 9.70313 1.67969 9.99987C1.67969 10.2966 1.76381 10.5863 1.92383 10.8358C1.92448 10.8365 1.92513 10.8371 1.92578 10.8378C2.0861 11.0875 2.31461 11.2846 2.58398 11.4081L2.55273 11.3944L9.2539 14.746L12.5898 21.4159C12.7135 21.6862 12.9125 21.9158 13.1621 22.0761C13.1628 22.0761 13.1634 22.0761 13.1641 22.0761C13.4132 22.2356 13.7029 22.3202 14 22.3202C14.2972 22.3202 14.5867 22.2359 14.836 22.0761C14.8366 22.0761 14.8373 22.0761 14.838 22.0761C15.0882 21.9156 15.2848 21.685 15.4083 21.4159C15.4204 21.391 15.4315 21.3656 15.4415 21.3398L21.9415 3.33976C22.0064 3.16096 22.0189 2.96737 21.9777 2.78169C21.9364 2.59601 21.843 2.42595 21.7085 2.29146C21.574 2.15696 21.404 2.06361 21.2183 2.02235C21.0326 1.98109 20.839 1.99358 20.6602 2.05846ZM19.334 4.66588L13.9316 19.6268L10.8945 13.5526C10.7978 13.3591 10.6408 13.2021 10.4473 13.1053L4.37305 10.0682L19.334 4.66588Z" fill="black"/>
</g>
</g>
<defs>
<clipPath id="clip0_19819_881">
<rect width="24" height="24" fill="white"/>
</clipPath>
</defs>
</svg>
