<svg width="24" height="24" viewBox="0 0 24 24" fill="none" xmlns="http://www.w3.org/2000/svg">
<g clip-path="url(#clip0_19819_900)">
<mask id="mask0_19819_900" style="mask-type:luminance" maskUnits="userSpaceOnUse" x="0" y="0" width="24" height="24">
<path d="M24 0H0V24H24V0Z" fill="white"/>
</mask>
<g mask="url(#mask0_19819_900)">
<path d="M20.6602 2.05851L2.66016 8.55851C2.63432 8.56852 2.6089 8.5796 2.58398 8.59171C2.31421 8.71533 2.08408 8.91229 1.92383 9.16203C1.76357 9.41174 1.67969 9.70318 1.67969 9.99992C1.67969 10.2967 1.76381 10.5863 1.92383 10.8359L1.92578 10.8379C2.0861 11.0876 2.31461 11.2847 2.58398 11.4082L2.55273 11.3945L9.2539 14.7461L12.002 20.2382C12.0607 20.3557 12.142 20.4605 12.2412 20.5466C12.3404 20.6326 12.4556 20.6983 12.5802 20.7398C12.7048 20.7814 12.8364 20.7979 12.9674 20.7886C13.0984 20.7793 13.2263 20.7443 13.3437 20.6855C13.5805 20.5669 13.7606 20.3592 13.8444 20.1081C13.9283 19.8569 13.909 19.5827 13.791 19.3457L10.8945 13.5527C10.7978 13.3591 10.6408 13.2022 10.4473 13.1054L4.37305 10.0683L19.334 4.66593L16.5723 12.3163C16.5275 12.4399 16.5076 12.5712 16.5136 12.7025C16.5196 12.8338 16.5515 12.9627 16.6074 13.0817C16.6632 13.2007 16.742 13.3075 16.8392 13.396C16.9364 13.4846 17.0501 13.553 17.1738 13.5976C17.4233 13.6873 17.6981 13.6744 17.938 13.5616C18.1779 13.4488 18.3632 13.2454 18.4531 12.996L21.9414 3.33976C22.0063 3.16096 22.0188 2.96737 21.9776 2.78169C21.9363 2.59601 21.843 2.42595 21.7085 2.29146C21.574 2.15696 21.4039 2.06361 21.2182 2.02235C21.0325 1.98109 20.839 1.99363 20.6602 2.05851Z" fill="black"/>
<path d="M15.7929 15.7928C15.6054 15.9803 15.5001 16.2347 15.5001 16.4998C15.5001 16.765 15.6054 17.0193 15.7929 17.2069L20.7929 22.2069C20.9805 22.3944 21.2348 22.4997 21.5 22.4997C21.7651 22.4997 22.0195 22.3944 22.207 22.2069C22.3945 22.0193 22.4998 21.765 22.4998 21.4998C22.4998 21.2347 22.3945 20.9803 22.207 20.7928L17.207 15.7928C17.0195 15.6053 16.7651 15.5 16.5 15.5C16.2348 15.5 15.9805 15.6053 15.7929 15.7928Z" fill="black"/>
<path d="M20.7929 15.7928L15.7929 20.7928C15.6054 20.9803 15.5001 21.2347 15.5001 21.4998C15.5001 21.765 15.6054 22.0193 15.7929 22.2069C15.9805 22.3944 16.2348 22.4997 16.5 22.4997C16.7651 22.4997 17.0195 22.3944 17.207 22.2069L22.207 17.2069C22.3945 17.0193 22.4998 16.765 22.4998 16.4998C22.4998 16.2347 22.3945 15.9803 22.207 15.7928C22.0195 15.6053 21.7651 15.5 21.5 15.5C21.2348 15.5 20.9805 15.6053 20.7929 15.7928Z" fill="black"/>
</g>
</g>
<defs>
<clipPath id="clip0_19819_900">
<rect width="24" height="24" fill="white"/>
</clipPath>
</defs>
</svg>
