<svg width="24" height="24" viewBox="0 0 24 24" fill="none" xmlns="http://www.w3.org/2000/svg">
<g clip-path="url(#clip0_19819_893)">
<mask id="mask0_19819_893" style="mask-type:luminance" maskUnits="userSpaceOnUse" x="0" y="0" width="24" height="24">
<path d="M24 0H0V24H24V0Z" fill="white"/>
</mask>
<g mask="url(#mask0_19819_893)">
<path d="M20.6602 2.05851L10.3809 5.7714C10.1315 5.86136 9.92807 6.04664 9.81527 6.28653C9.70247 6.52642 9.68953 6.80128 9.7793 7.0507C9.82383 7.1744 9.89232 7.2881 9.98084 7.3853C10.0694 7.4825 10.1762 7.56129 10.2952 7.61716C10.4142 7.67304 10.543 7.7049 10.6744 7.71092C10.8057 7.71694 10.9369 7.69701 11.0605 7.65226L19.334 4.66593L16.3359 12.9726C16.2911 13.0961 16.2711 13.2272 16.277 13.3584C16.2829 13.4897 16.3146 13.6184 16.3703 13.7374C16.426 13.8564 16.5045 13.9633 16.6015 14.0519C16.6985 14.1405 16.812 14.2091 16.9355 14.2538C17.0592 14.2986 17.1904 14.3185 17.3217 14.3125C17.4531 14.3065 17.5819 14.2746 17.7009 14.2187C17.8199 14.1629 17.9267 14.0841 18.0153 13.9869C18.1038 13.8897 18.1723 13.776 18.2168 13.6523L21.9414 3.33976C22.0063 3.16096 22.0188 2.96737 21.9776 2.78169C21.9363 2.59601 21.843 2.42595 21.7085 2.29146C21.574 2.15696 21.4039 2.06361 21.2182 2.02235C21.0325 1.98109 20.839 1.99363 20.6602 2.05851ZM7.43555 6.83586L2.66016 8.55851C2.63432 8.56852 2.6089 8.5796 2.58398 8.59171C2.31421 8.71533 2.08408 8.91229 1.92383 9.16203C1.76357 9.41174 1.67969 9.70318 1.67969 9.99992C1.67969 10.2967 1.76381 10.5863 1.92383 10.8359C1.92448 10.8365 1.92513 10.8372 1.92578 10.8379C2.0861 11.0876 2.31461 11.2847 2.58398 11.4082L2.55273 11.3945L9.2539 14.7461L12.5898 21.416C12.7135 21.6863 12.9125 21.9158 13.1621 22.0761C13.1628 22.0761 13.1634 22.0761 13.1641 22.0761C13.4132 22.2356 13.7029 22.3203 14 22.3203C14.2972 22.3203 14.5867 22.236 14.836 22.0761C14.8366 22.0761 14.8373 22.0761 14.838 22.0761C15.0882 21.9156 15.2848 21.6851 15.4083 21.416C15.4204 21.3911 15.4315 21.3657 15.4415 21.3398L17.1602 16.5781C17.205 16.4546 17.2251 16.3235 17.2192 16.1922C17.2133 16.061 17.1816 15.9322 17.1259 15.8132C17.0702 15.6943 16.9916 15.5874 16.8946 15.4988C16.7977 15.4102 16.6842 15.3416 16.5606 15.2968C16.437 15.2521 16.3058 15.2322 16.1745 15.2382C16.0431 15.2442 15.9143 15.2761 15.7953 15.3319C15.6763 15.3878 15.5694 15.4666 15.4809 15.5638C15.3924 15.661 15.3239 15.7747 15.2794 15.8984L13.9337 19.6289L10.8946 13.5527C10.7978 13.3591 10.6409 13.2022 10.4473 13.1054L4.37305 10.0683L8.11523 8.71671C8.23876 8.67199 8.35225 8.60336 8.44925 8.51476C8.54624 8.42615 8.62482 8.31931 8.6805 8.20032C8.73618 8.08134 8.76788 7.95255 8.77377 7.82131C8.77966 7.69007 8.75964 7.55896 8.71484 7.43546C8.6245 7.18647 8.43905 6.98349 8.19921 6.87107C7.95936 6.75866 7.68472 6.74599 7.43555 6.83586Z" fill="black"/>
<path d="M2.99997 2C2.73477 2.00004 2.48045 2.10542 2.29294 2.29297C2.10545 2.4805 2.00012 2.73482 2.00012 3C2.00012 3.26518 2.10545 3.5195 2.29294 3.70703L20.2929 21.707C20.4805 21.8945 20.7348 21.9998 21 21.9998C21.2652 21.9998 21.5195 21.8945 21.707 21.707C21.8945 21.5195 21.9998 21.2652 21.9998 21C21.9998 20.7348 21.8945 20.4805 21.707 20.293L3.707 2.29297C3.5195 2.10542 3.26517 2.00004 2.99997 2Z" fill="black"/>
</g>
</g>
<defs>
<clipPath id="clip0_19819_893">
<rect width="24" height="24" fill="white"/>
</clipPath>
</defs>
</svg>
