<?xml version="1.0" encoding="UTF-8" standalone="no"?>
<svg
   width="24"
   height="24"
   viewBox="0 0 24 24"
   fill="none"
   version="1.1"
   id="svg3"
   sodipodi:docname="lock-open.svg"
   inkscape:version="1.3.2 (091e20e, 2023-11-25)"
   xmlns:inkscape="http://www.inkscape.org/namespaces/inkscape"
   xmlns:sodipodi="http://sodipodi.sourceforge.net/DTD/sodipodi-0.dtd"
   xmlns="http://www.w3.org/2000/svg"
   xmlns:svg="http://www.w3.org/2000/svg">
  <defs
     id="defs3" />
  <sodipodi:namedview
     id="namedview3"
     pagecolor="#505050"
     bordercolor="#eeeeee"
     borderopacity="1"
     inkscape:showpageshadow="0"
     inkscape:pageopacity="0"
     inkscape:pagecheckerboard="0"
     inkscape:deskcolor="#505050"
     inkscape:zoom="9.8333333"
     inkscape:cx="11.949153"
     inkscape:cy="12"
     inkscape:window-width="1504"
     inkscape:window-height="449"
     inkscape:window-x="0"
     inkscape:window-y="25"
     inkscape:window-maximized="0"
     inkscape:current-layer="svg3" />
  <path
     style="color:#000000;fill:#000000;stroke-linecap:round;stroke-linejoin:round;-inkscape-stroke:none"
     d="M 7,10 C 6.2047542,10 5.4412548,10.316513 4.8789062,10.878906 4.3165904,11.441252 4,12.204757 4,13 v 6 c 0,0.795243 0.3165904,1.558748 0.8789062,2.121094 C 5.4412548,21.683487 6.2047542,22 7,22 h 10 c 0.795231,0 1.55874,-0.316552 2.121094,-0.878906 C 19.683448,20.55874 20,19.795231 20,19 V 13 C 20,12.204769 19.683448,11.44126 19.121094,10.878906 18.55874,10.316552 17.795231,10 17,10 Z m 0,2 h 10 c 0.265568,0 0.519186,0.105124 0.707031,0.292969 C 17.894876,12.480814 18,12.734432 18,13 v 6 c 0,0.265568 -0.105124,0.519186 -0.292969,0.707031 C 17.519186,19.894876 17.265568,20 17,20 H 7 C 6.7343869,20 6.4807594,19.894837 6.2929687,19.707031 6.1051254,19.519178 6,19.265556 6,19 V 13 C 6,12.734444 6.1051254,12.480822 6.2929687,12.292969 6.4807594,12.105163 6.7343869,12 7,12 Z"
     id="path1" />
  <path
     style="color:#000000;fill:#000000;stroke-linecap:round;stroke-linejoin:round;-inkscape-stroke:none"
     d="m 12,14 c -0.530157,0 -1.039258,0.211133 -1.414062,0.585938 C 10.211133,14.960742 10,15.469843 10,16 c 0,0.530157 0.211133,1.039258 0.585938,1.414062 C 10.960742,17.788867 11.469843,18 12,18 12.530157,18 13.039258,17.788867 13.414063,17.414062 13.788867,17.039258 14,16.530157 14,16 14,15.469843 13.788867,14.960742 13.414063,14.585938 13.039258,14.211133 12.530157,14 12,14 Z"
     id="path2" />
  <path
     style="color:#000000;fill:#000000;stroke-linecap:round;stroke-linejoin:round;-inkscape-stroke:none"
     d="M 12,1 C 10.674276,1 9.4022439,1.5274561 8.4648438,2.4648438 7.5274467,3.4022533 7,4.6742984 7,6 v 5 a 1,1 0 0 0 1,1 1,1 0 0 0 1,-1 V 6 C 9,5.2039637 9.3160248,4.4417952 9.8789063,3.8789063 10.441805,3.3160154 11.203926,3 12,3 12.796074,3 13.558267,3.3160492 14.121094,3.8789063 14.684008,4.4417827 15,5.2039449 15,6 a 1,1 0 0 0 1,1 1,1 0 0 0 1,-1 C 17,4.6743172 16.472641,3.4022658 15.535156,2.4648438 14.597785,1.5274223 13.325724,1 12,1 Z"
     id="path3" />
</svg>
