<?xml version="1.0" encoding="UTF-8" standalone="no"?>
<svg
   width="24"
   height="24"
   viewBox="0 0 24 24"
   fill="none"
   version="1.1"
   id="svg6"
   sodipodi:docname="lock-access.svg"
   inkscape:version="1.3.2 (091e20e, 2023-11-25)"
   xmlns:inkscape="http://www.inkscape.org/namespaces/inkscape"
   xmlns:sodipodi="http://sodipodi.sourceforge.net/DTD/sodipodi-0.dtd"
   xmlns="http://www.w3.org/2000/svg"
   xmlns:svg="http://www.w3.org/2000/svg">
  <defs
     id="defs6" />
  <sodipodi:namedview
     id="namedview6"
     pagecolor="#505050"
     bordercolor="#eeeeee"
     borderopacity="1"
     inkscape:showpageshadow="0"
     inkscape:pageopacity="0"
     inkscape:pagecheckerboard="0"
     inkscape:deskcolor="#505050"
     inkscape:zoom="9.8333333"
     inkscape:cx="11.949153"
     inkscape:cy="12"
     inkscape:window-width="1504"
     inkscape:window-height="449"
     inkscape:window-x="0"
     inkscape:window-y="25"
     inkscape:window-maximized="0"
     inkscape:current-layer="svg6" />
  <path
     style="color:#000000;fill:#000000;stroke-linecap:round;stroke-linejoin:round;-inkscape-stroke:none"
     d="M 6,3 C 5.2047416,3 4.4412465,3.316551 3.8789063,3.8789063 3.316551,4.4412465 3,5.2047416 3,6 V 8 A 1,1 0 0 0 4,9 1,1 0 0 0 5,8 V 6 C 5,5.7343994 5.1051647,5.4807678 5.2929687,5.2929687 5.4807678,5.1051647 5.7343994,5 6,5 H 8 A 1,1 0 0 0 9,4 1,1 0 0 0 8,3 Z"
     id="path1" />
  <path
     style="color:#000000;fill:#000000;stroke-linecap:round;stroke-linejoin:round;-inkscape-stroke:none"
     d="m 4,15 a 1,1 0 0 0 -1,1 v 2 c 0,0.795243 0.3165904,1.558748 0.8789063,2.121094 C 4.4412548,20.683487 5.2047542,21 6,21 H 8 A 1,1 0 0 0 9,20 1,1 0 0 0 8,19 H 6 C 5.7343869,19 5.4807594,18.894837 5.2929687,18.707031 5.1051254,18.519178 5,18.265556 5,18 V 16 A 1,1 0 0 0 4,15 Z"
     id="path2" />
  <path
     style="color:#000000;fill:#000000;stroke-linecap:round;stroke-linejoin:round;-inkscape-stroke:none"
     d="m 16,3 a 1,1 0 0 0 -1,1 1,1 0 0 0 1,1 h 2 c 0.265556,0 0.519178,0.1051254 0.707031,0.2929687 C 18.894837,5.4807594 19,5.7343869 19,6 v 2 a 1,1 0 0 0 1,1 1,1 0 0 0 1,-1 V 6 C 21,5.2047542 20.683487,4.4412548 20.121094,3.8789063 19.558748,3.3165904 18.795243,3 18,3 Z"
     id="path3" />
  <path
     style="color:#000000;fill:#000000;stroke-linecap:round;stroke-linejoin:round;-inkscape-stroke:none"
     d="m 20,15 a 1,1 0 0 0 -1,1 v 2 c 0,0.265568 -0.105124,0.519186 -0.292969,0.707031 C 18.519186,18.894876 18.265568,19 18,19 h -2 a 1,1 0 0 0 -1,1 1,1 0 0 0 1,1 h 2 c 0.795231,0 1.55874,-0.316552 2.121094,-0.878906 C 20.683448,19.55874 21,18.795231 21,18 v -2 a 1,1 0 0 0 -1,-1 z"
     id="path4" />
  <path
     style="color:#000000;fill:#000000;stroke-linecap:round;stroke-linejoin:round;-inkscape-stroke:none"
     d="M 9,10 C 8.4698432,10 7.9606708,10.211284 7.5859375,10.585938 7.2110167,10.960798 7,11.469944 7,12 v 3 c 0,0.530056 0.2110167,1.039202 0.5859375,1.414062 C 7.9606708,16.788716 8.4698432,17 9,17 h 6 c 0.530157,0 1.039258,-0.211133 1.414062,-0.585938 C 16.788867,16.039258 17,15.530157 17,15 V 12 C 17,11.469843 16.788867,10.960742 16.414062,10.585938 16.039258,10.211133 15.530157,10 15,10 Z m 0,2 h 6 v 3 H 9 Z"
     id="path5" />
  <path
     style="color:#000000;fill:#000000;stroke-linecap:round;stroke-linejoin:round;-inkscape-stroke:none"
     d="M 12,6 C 11.204757,6 10.441252,6.3165904 9.8789063,6.8789062 9.3165127,7.4412548 9,8.2047542 9,9 v 2 a 1,1 0 0 0 1,1 1,1 0 0 0 1,-1 V 9 C 11,8.7343869 11.105163,8.4807594 11.292969,8.2929688 11.480822,8.1051254 11.734444,8 12,8 12.265556,8 12.519178,8.1051254 12.707031,8.2929688 12.894837,8.4807594 13,8.7343869 13,9 v 2 a 1,1 0 0 0 1,1 1,1 0 0 0 1,-1 V 9 C 15,8.2047542 14.683487,7.4412548 14.121094,6.8789062 13.558748,6.3165904 12.795243,6 12,6 Z"
     id="path6" />
</svg>
