<?xml version="1.0" encoding="UTF-8" standalone="no"?>
<svg
   width="24"
   height="24"
   viewBox="0 0 24 24"
   fill="none"
   version="1.1"
   id="svg3"
   sodipodi:docname="login.svg"
   inkscape:version="1.3.2 (091e20e, 2023-11-25)"
   xmlns:inkscape="http://www.inkscape.org/namespaces/inkscape"
   xmlns:sodipodi="http://sodipodi.sourceforge.net/DTD/sodipodi-0.dtd"
   xmlns="http://www.w3.org/2000/svg"
   xmlns:svg="http://www.w3.org/2000/svg">
  <defs
     id="defs3" />
  <sodipodi:namedview
     id="namedview3"
     pagecolor="#505050"
     bordercolor="#eeeeee"
     borderopacity="1"
     inkscape:showpageshadow="0"
     inkscape:pageopacity="0"
     inkscape:pagecheckerboard="0"
     inkscape:deskcolor="#505050"
     inkscape:zoom="9.8333333"
     inkscape:cx="11.949153"
     inkscape:cy="12"
     inkscape:window-width="1504"
     inkscape:window-height="449"
     inkscape:window-x="0"
     inkscape:window-y="25"
     inkscape:window-maximized="0"
     inkscape:current-layer="svg3" />
  <path
     style="color:#000000;fill:#000000;stroke-linecap:round;stroke-linejoin:round;-inkscape-stroke:none"
     d="M 6,3 C 5.2047416,3 4.4412465,3.316551 3.8789063,3.8789063 3.316551,4.4412465 3,5.2047416 3,6 v 12 c 0,0.795243 0.3165904,1.558748 0.8789063,2.121094 C 4.4412548,20.683487 5.2047542,21 6,21 h 7 c 0.795231,0 1.55874,-0.316552 2.121094,-0.878906 C 15.683448,19.55874 16,18.795231 16,18 v -2 a 1,1 0 0 0 -1,-1 1,1 0 0 0 -1,1 v 2 c 0,0.265568 -0.105124,0.519186 -0.292969,0.707031 C 13.519186,18.894876 13.265568,19 13,19 H 6 C 5.7343869,19 5.4807594,18.894837 5.2929687,18.707031 5.1051254,18.519178 5,18.265556 5,18 V 6 C 5,5.7343994 5.1051647,5.4807678 5.2929687,5.2929687 5.4807678,5.1051647 5.7343994,5 6,5 h 7 c 0.265556,0 0.519178,0.1051254 0.707031,0.2929687 C 13.894837,5.4807594 14,5.7343869 14,6 v 2 a 1,1 0 0 0 1,1 1,1 0 0 0 1,-1 V 6 C 16,5.2047542 15.683487,4.4412548 15.121094,3.8789063 14.558748,3.3165904 13.795243,3 13,3 Z"
     id="path1" />
  <path
     style="color:#000000;fill:#000000;stroke-linecap:round;stroke-linejoin:round;-inkscape-stroke:none"
     d="M 11,8 A 1,1 0 0 0 10.292969,8.2929688 L 7.2929687,11.292969 A 1.0001,1.0001 0 0 0 8,13 h 13 a 1,1 0 0 0 1,-1 1,1 0 0 0 -1,-1 H 10.414063 l 1.292968,-1.2929687 a 1,1 0 0 0 0,-1.4140625 A 1,1 0 0 0 11,8 Z"
     id="path2" />
  <path
     style="color:#000000;fill:#000000;stroke-linecap:round;stroke-linejoin:round;-inkscape-stroke:none"
     d="m 8,11 a 1,1 0 0 0 -0.7070313,0.292969 1,1 0 0 0 0,1.414062 l 3.0000003,3 a 1,1 0 0 0 1.414062,0 1,1 0 0 0 0,-1.414062 l -2.9999997,-3 A 1,1 0 0 0 8,11 Z"
     id="path3" />
</svg>
