<svg width="24" height="24" viewBox="0 0 24 24" fill="none" xmlns="http://www.w3.org/2000/svg">
<g clip-path="url(#clip0_19819_908)">
<mask id="mask0_19819_908" style="mask-type:luminance" maskUnits="userSpaceOnUse" x="0" y="0" width="24" height="24">
<path d="M24 0H0V24H24V0Z" fill="white"/>
</mask>
<g mask="url(#mask0_19819_908)">
<path d="M5 3C4.20474 3 3.44125 3.31655 2.87891 3.87891C2.31655 4.44125 2 5.20474 2 6V18C2 18.7952 2.31659 19.5587 2.87891 20.1211C3.44125 20.6835 4.20475 21 5 21H12C12.7952 21 13.5587 20.6834 14.1211 20.1211C14.6834 19.5587 15 18.7952 15 18V16C15 15.7348 14.8946 15.4804 14.7071 15.2929C14.5196 15.1054 14.2652 15 14 15C13.7348 15 13.4804 15.1054 13.2929 15.2929C13.1054 15.4804 13 15.7348 13 16V18C13 18.2656 12.8949 18.5192 12.707 18.707C12.5192 18.8949 12.2656 19 12 19H5C4.73439 19 4.48076 18.8948 4.29297 18.707C4.10513 18.5192 4 18.2656 4 18V6C4 5.7344 4.10516 5.48077 4.29297 5.29297C4.48077 5.10516 4.7344 5 5 5H12C12.2656 5 12.5192 5.10513 12.707 5.29297C12.8948 5.48076 13 5.73439 13 6V8C13 8.26522 13.1054 8.51957 13.2929 8.70711C13.4804 8.89464 13.7348 9 14 9C14.2652 9 14.5196 8.89464 14.7071 8.70711C14.8946 8.51957 15 8.26522 15 8V6C15 5.20475 14.6835 4.44125 14.1211 3.87891C13.5587 3.31659 12.7952 3 12 3H5Z" fill="black"/>
<path d="M17.293 8.29306C17.1055 8.48059 17.0002 8.73491 17.0002 9.00009C17.0002 9.26527 17.1055 9.51959 17.293 9.70712L18.5859 11.0001H9C8.73478 11.0001 8.48043 11.1054 8.29289 11.293C8.10536 11.4805 8 11.7349 8 12.0001C8 12.2653 8.10536 12.5197 8.29289 12.7072C8.48043 12.8947 8.73478 13.0001 9 13.0001H21C21.1977 13 21.391 12.9413 21.5554 12.8314C21.7198 12.7215 21.8479 12.5654 21.9236 12.3827C21.9993 12.2 22.0191 11.999 21.9805 11.805C21.942 11.6111 21.8468 11.4329 21.707 11.2931L18.707 8.29306C18.5195 8.10557 18.2652 8.00024 18 8.00024C17.7348 8.00024 17.4805 8.10557 17.293 8.29306Z" fill="black"/>
<path d="M20.2929 11.2931L17.2929 14.2931C17.1055 14.4806 17.0001 14.7349 17.0001 15.0001C17.0001 15.2653 17.1055 15.5196 17.2929 15.7071C17.4805 15.8946 17.7348 15.9999 18 15.9999C18.2652 15.9999 18.5195 15.8946 18.707 15.7071L21.707 12.7071C21.8945 12.5196 21.9998 12.2653 21.9998 12.0001C21.9998 11.7349 21.8945 11.4806 21.707 11.2931C21.5195 11.1056 21.2652 11.0002 21 11.0002C20.7348 11.0002 20.4805 11.1056 20.2929 11.2931Z" fill="black"/>
</g>
</g>
<defs>
<clipPath id="clip0_19819_908">
<rect width="24" height="24" fill="white"/>
</clipPath>
</defs>
</svg>
