<svg width="24" height="24" viewBox="0 0 24 24" fill="none" xmlns="http://www.w3.org/2000/svg">
<g clip-path="url(#clip0_19819_1005)">
<mask id="mask0_19819_1005" style="mask-type:luminance" maskUnits="userSpaceOnUse" x="0" y="0" width="24" height="24">
<path d="M24 0H0V24H24V0Z" fill="white"/>
</mask>
<g mask="url(#mask0_19819_1005)">
<path d="M12 7C10.9396 7 9.92177 7.42199 9.17188 8.17188C8.42198 8.92177 8 9.93955 8 11C8 12.0604 8.42198 13.0782 9.17188 13.8281C9.92176 14.578 10.9395 15 12 15C13.0605 15 14.0783 14.578 14.8281 13.8281C15.578 13.0783 16 12.0605 16 11C16 9.93953 15.578 8.92176 14.8281 8.17188C14.0782 7.42198 13.0604 7 12 7ZM12 9C12.5308 9 13.0387 9.21062 13.4141 9.58594C13.7894 9.96128 14 10.4693 14 11C14 11.5307 13.7894 12.0387 13.4141 12.4141C13.0387 12.7894 12.5307 13 12 13C11.4693 13 10.9613 12.7894 10.5859 12.4141C10.2106 12.0387 10 11.5308 10 11C10 10.4692 10.2106 9.96126 10.5859 9.58594C10.9613 9.2106 11.4692 9 12 9Z" fill="black"/>
<path d="M12.5488 2.01968C11.7472 1.97095 10.9375 2.02828 10.1445 2.19546C8.55871 2.52982 7.09395 3.28632 5.90235 4.38491C4.71078 5.48349 3.83687 6.88412 3.37501 8.43764C2.91314 9.99114 2.87946 11.6399 3.27735 13.2111C3.67524 14.7822 4.49112 16.217 5.63673 17.3634L9.88087 21.6076C10.3526 22.0792 10.9669 22.3806 11.6289 22.463C12.2908 22.5457 12.9619 22.4041 13.5352 22.0626C13.648 21.9955 13.7466 21.9067 13.8251 21.8014C13.9037 21.6962 13.9607 21.5764 13.993 21.4491C14.0253 21.3218 14.0322 21.1894 14.0133 21.0594C13.9944 20.9294 13.95 20.8044 13.8828 20.6916C13.7468 20.4639 13.526 20.2996 13.2689 20.2348C13.0117 20.17 12.7394 20.2099 12.5117 20.3458C12.3208 20.4596 12.0977 20.5062 11.877 20.4787C11.6561 20.4512 11.4524 20.3509 11.2949 20.1935L7.05079 15.9494C6.15965 15.0576 5.5263 13.9429 5.21681 12.7208C4.9073 11.4986 4.93373 10.2163 5.29298 9.00796C5.65224 7.79956 6.33096 6.71013 7.25782 5.85561C8.18469 5.00109 9.32508 4.41257 10.5586 4.15249C11.7921 3.89241 13.0726 3.97147 14.2656 4.37905C15.4586 4.78662 16.5193 5.50837 17.3359 6.46889C18.1525 7.42942 18.6941 8.59119 18.9043 9.83413C19.1146 11.0771 18.9846 12.3538 18.5293 13.5294C18.4817 13.652 18.4588 13.7828 18.4618 13.9143C18.4648 14.0457 18.4937 14.1753 18.5468 14.2956C18.6 14.4159 18.6764 14.5245 18.7715 14.6152C18.8667 14.706 18.9789 14.777 19.1016 14.8244C19.3489 14.9199 19.6241 14.9133 19.8665 14.8059C20.109 14.6986 20.2989 14.4994 20.3945 14.2521C20.9799 12.7407 21.1453 11.1001 20.875 9.5021C20.6048 7.904 19.9091 6.40681 18.8594 5.17202C17.8096 3.93723 16.4458 3.01046 14.9121 2.48647C14.1453 2.22449 13.3505 2.06841 12.5488 2.01968Z" fill="black"/>
<path d="M16.293 16.2933C16.1055 16.4808 16.0002 16.7352 16.0002 17.0003C16.0002 17.2655 16.1055 17.5198 16.293 17.7074L21.293 22.7074C21.4805 22.8949 21.7349 23.0002 22 23.0002C22.2652 23.0002 22.5195 22.8949 22.7071 22.7074C22.8946 22.5198 22.9999 22.2655 22.9999 22.0003C22.9999 21.7352 22.8946 21.4808 22.7071 21.2933L17.7071 16.2933C17.5195 16.1058 17.2652 16.0005 17 16.0005C16.7349 16.0005 16.4805 16.1058 16.293 16.2933Z" fill="black"/>
<path d="M21.293 16.2933L16.293 21.2933C16.1055 21.4808 16.0002 21.7352 16.0002 22.0003C16.0002 22.2655 16.1055 22.5198 16.293 22.7074C16.4805 22.8949 16.7349 23.0002 17 23.0002C17.2652 23.0002 17.5195 22.8949 17.7071 22.7074L22.7071 17.7074C22.8946 17.5198 22.9999 17.2655 22.9999 17.0003C22.9999 16.7352 22.8946 16.4808 22.7071 16.2933C22.5195 16.1058 22.2652 16.0005 22 16.0005C21.7349 16.0005 21.4805 16.1058 21.293 16.2933Z" fill="black"/>
</g>
</g>
<defs>
<clipPath id="clip0_19819_1005">
<rect width="24" height="24" fill="white"/>
</clipPath>
</defs>
</svg>
