<svg width="24" height="24" viewBox="0 0 24 24" fill="none" xmlns="http://www.w3.org/2000/svg">
<g clip-path="url(#clip0_19819_997)">
<mask id="mask0_19819_997" style="mask-type:luminance" maskUnits="userSpaceOnUse" x="0" y="0" width="24" height="24">
<path d="M24 0H0V24H24V0Z" fill="white"/>
</mask>
<g mask="url(#mask0_19819_997)">
<path d="M11.9999 7C11.7347 7 11.4804 7.10536 11.2928 7.29289C11.1053 7.48043 10.9999 7.73478 10.9999 8C10.9999 8.26522 11.1053 8.51957 11.2928 8.70711C11.4804 8.89464 11.7347 9 11.9999 9C12.5307 9 13.0387 9.21062 13.414 9.58594C13.7893 9.96128 13.9999 10.4693 13.9999 11C13.9999 11.2652 14.1053 11.5196 14.2928 11.7071C14.4804 11.8946 14.7347 12 14.9999 12C15.2652 12 15.5195 11.8946 15.7071 11.7071C15.8946 11.5196 15.9999 11.2652 15.9999 11C15.9999 9.93953 15.5779 8.92176 14.8281 8.17188C14.0782 7.42198 13.0604 7 11.9999 7ZM9.96479 8.58008C9.73891 8.44137 9.46721 8.39801 9.20938 8.45954C8.95155 8.52107 8.7287 8.68244 8.58979 8.9082C8.12062 9.67274 7.92132 10.5739 8.02534 11.4648C8.12935 12.3558 8.53136 13.1864 9.16401 13.8223C9.79669 14.4582 10.6253 14.864 11.5156 14.9727C12.406 15.0812 13.3073 14.8871 14.0742 14.4219C14.1866 14.3537 14.2845 14.2641 14.3622 14.1581C14.44 14.0521 14.4961 13.9317 14.5273 13.804C14.5585 13.6763 14.5642 13.5437 14.5441 13.4138C14.524 13.2839 14.4784 13.1592 14.4101 13.0469C14.2725 12.8203 14.0506 12.6577 13.7931 12.5947C13.5357 12.5317 13.2637 12.5735 13.0371 12.7109C12.6533 12.9437 12.2032 13.0406 11.7578 12.9863C11.3123 12.932 10.8985 12.7302 10.582 12.4121C10.2655 12.094 10.0637 11.6781 10.0117 11.2324C9.95963 10.7868 10.0602 10.3375 10.2949 9.95508C10.4334 9.72896 10.4765 9.45708 10.4146 9.19923C10.3527 8.94137 10.1909 8.71866 9.96479 8.58008Z" fill="black"/>
<path d="M13.205 2.08194C11.2522 1.81753 9.26644 2.20083 7.55269 3.17374C7.32222 3.30483 7.15325 3.52209 7.08293 3.77774C7.01261 4.03339 7.04669 4.3065 7.17769 4.53702C7.30878 4.76749 7.52604 4.93646 7.78169 5.00678C8.03734 5.0771 8.31045 5.04302 8.54097 4.91202C9.87425 4.15511 11.4181 3.8567 12.9375 4.06241C14.4567 4.26812 15.8651 4.96649 16.9492 6.05069C18.0331 7.13491 18.7321 8.54508 18.9375 10.0644C19.1429 11.5837 18.845 13.1276 18.0878 14.4608C17.9568 14.6914 17.9228 14.9645 17.9931 15.2201C18.0634 15.4758 18.2324 15.693 18.4628 15.8241C18.6934 15.9551 18.9665 15.9892 19.2221 15.9189C19.4778 15.8486 19.695 15.6796 19.8261 15.4491C20.7992 13.7356 21.184 11.7497 20.9199 9.79679C20.6559 7.84385 19.7584 6.03021 18.3652 4.63663C16.9718 3.24304 15.1578 2.34635 13.205 2.08194ZM5.77925 4.8671C5.64828 4.87846 5.52084 4.91552 5.40421 4.97619C5.28758 5.03685 5.18406 5.11991 5.09956 5.22061C3.65505 6.94512 2.90866 9.14901 3.00777 11.3964C3.10687 13.6438 4.044 15.7725 5.63472 17.3632L9.87886 21.6073H9.88081C10.443 22.1689 11.2051 22.4843 12 22.4843C12.7947 22.4843 13.5588 22.1688 14.121 21.6073L17.8593 17.8691C18.0468 17.6815 18.1521 17.4272 18.1521 17.162C18.1521 16.8968 18.0468 16.6425 17.8593 16.455C17.6718 16.2675 17.4175 16.1622 17.1523 16.1622C16.8871 16.1622 16.6328 16.2675 16.4453 16.455L12.707 20.1933C12.519 20.381 12.2652 20.4843 12 20.4843C11.7346 20.4843 11.4807 20.3809 11.2929 20.1933L7.05074 15.9491C5.81316 14.7116 5.08291 13.0569 5.00581 11.3085C4.9287 9.56003 5.50892 7.84744 6.63277 6.50577C6.71739 6.40515 6.78135 6.28883 6.82097 6.16347C6.86059 6.0381 6.87511 5.90615 6.86368 5.77518C6.85225 5.6442 6.8151 5.51676 6.75437 5.40015C6.69363 5.28354 6.6105 5.18006 6.50972 5.09561C6.40893 5.01143 6.29255 4.94791 6.16721 4.90871C6.04188 4.8695 5.91005 4.85536 5.77925 4.8671Z" fill="black"/>
<path d="M2.99997 2C2.73477 2.00004 2.48045 2.10542 2.29294 2.29297C2.10545 2.4805 2.00012 2.73482 2.00012 3C2.00012 3.26518 2.10545 3.5195 2.29294 3.70703L20.2929 21.707C20.4805 21.8945 20.7348 21.9998 21 21.9998C21.2652 21.9998 21.5195 21.8945 21.707 21.707C21.8945 21.5195 21.9998 21.2652 21.9998 21C21.9998 20.7348 21.8945 20.4805 21.707 20.293L3.707 2.29297C3.5195 2.10542 3.26517 2.00004 2.99997 2Z" fill="black"/>
</g>
</g>
<defs>
<clipPath id="clip0_19819_997">
<rect width="24" height="24" fill="white"/>
</clipPath>
</defs>
</svg>
