<svg width="24" height="24" viewBox="0 0 24 24" fill="none" xmlns="http://www.w3.org/2000/svg">
<g clip-path="url(#clip0_19819_982)">
<mask id="mask0_19819_982" style="mask-type:luminance" maskUnits="userSpaceOnUse" x="0" y="0" width="24" height="24">
<path d="M24 0H0V24H24V0Z" fill="white"/>
</mask>
<g mask="url(#mask0_19819_982)">
<path d="M12 7C10.9396 7 9.92177 7.42199 9.17188 8.17188C8.42198 8.92177 8 9.93955 8 11C8 12.0604 8.42198 13.0782 9.17188 13.8281C9.92176 14.578 10.9395 15 12 15C13.0605 15 14.0783 14.578 14.8281 13.8281C15.578 13.0783 16 12.0605 16 11C16 9.93953 15.578 8.92176 14.8281 8.17188C14.0782 7.42198 13.0604 7 12 7ZM12 9C12.5308 9 13.0387 9.21062 13.4141 9.58594C13.7894 9.96128 14 10.4693 14 11C14 11.5307 13.7894 12.0387 13.4141 12.4141C13.0387 12.7894 12.5307 13 12 13C11.4693 13 10.9613 12.7894 10.5859 12.4141C10.2106 12.0387 10 11.5308 10 11C10 10.4692 10.2106 9.96126 10.5859 9.58594C10.9613 9.2106 11.4692 9 12 9Z" fill="black"/>
<path d="M11.3223 2.02546C10.5662 2.0826 9.81712 2.23566 9.09377 2.48249C7.64705 2.97615 6.34946 3.83107 5.32424 4.96492C4.29902 6.09876 3.58036 7.474 3.23439 8.96296C2.88843 10.4519 2.92738 12.005 3.34768 13.4747C3.76795 14.9444 4.55584 16.2824 5.63674 17.3634L9.87893 21.6075H9.88088C10.4432 22.1693 11.2053 22.4844 12 22.4844C12.7947 22.4844 13.5588 22.1693 14.1211 21.6075L15.711 20.0177C15.8987 19.8304 16.0044 19.5762 16.0048 19.311C16.0051 19.0459 15.9002 18.7914 15.713 18.6036C15.5254 18.4161 15.2711 18.3108 15.0059 18.3108C14.7407 18.3108 14.4864 18.4161 14.2989 18.6036L12.7071 20.1934C12.5193 20.381 12.2655 20.4844 12 20.4844C11.7345 20.4844 11.4807 20.381 11.293 20.1934L7.0508 15.9493C6.21012 15.1086 5.59646 14.0691 5.26955 12.9259C4.94265 11.7827 4.91256 10.5742 5.18166 9.41609C5.45076 8.25794 6.01117 7.1867 6.80861 6.30476C7.60607 5.42281 8.61496 4.75905 9.74025 4.37507C10.8655 3.99109 12.07 3.90088 13.2403 4.1114C14.4104 4.32192 15.5069 4.82615 16.4278 5.5782C17.3487 6.33028 18.0619 7.3057 18.502 8.41023C18.9421 9.51475 19.0948 10.7134 18.9434 11.8927C18.9096 12.1555 18.9816 12.421 19.1434 12.6309C19.3053 12.8407 19.5438 12.9777 19.8067 13.0118C19.9371 13.0288 20.0696 13.0199 20.1966 12.9855C20.3236 12.9512 20.4426 12.8922 20.5467 12.8118C20.6509 12.7314 20.7382 12.6313 20.8035 12.5171C20.8689 12.403 20.9111 12.2771 20.9278 12.1466C21.1224 10.6304 20.9272 9.09009 20.3613 7.66999C19.7956 6.24991 18.8774 4.99627 17.6934 4.02937C16.5094 3.06244 15.0982 2.4133 13.5938 2.14265C12.8415 2.00733 12.0784 1.96833 11.3223 2.02546Z" fill="black"/>
<path d="M19 15C18.7348 15 18.4804 15.1054 18.2929 15.2929C18.1054 15.4804 18 15.7348 18 16V19C18 19.2652 18.1054 19.5196 18.2929 19.7071C18.4804 19.8946 18.7348 20 19 20C19.2652 20 19.5196 19.8946 19.7071 19.7071C19.8946 19.5196 20 19.2652 20 19V16C20 15.7348 19.8946 15.4804 19.7071 15.2929C19.5196 15.1054 19.2652 15 19 15Z" fill="black"/>
<path d="M19 21C18.7348 21 18.4804 21.1054 18.2929 21.2929C18.1054 21.4804 18 21.7348 18 22V22.0098C18 22.275 18.1054 22.5294 18.2929 22.7169C18.4804 22.9044 18.7348 23.0098 19 23.0098C19.2652 23.0098 19.5196 22.9044 19.7071 22.7169C19.8946 22.5294 20 22.275 20 22.0098V22C20 21.7348 19.8946 21.4804 19.7071 21.2929C19.5196 21.1054 19.2652 21 19 21Z" fill="black"/>
</g>
</g>
<defs>
<clipPath id="clip0_19819_982">
<rect width="24" height="24" fill="white"/>
</clipPath>
</defs>
</svg>
