<svg width="24" height="24" viewBox="0 0 24 24" fill="none" xmlns="http://www.w3.org/2000/svg">
<g clip-path="url(#clip0_19819_975)">
<mask id="mask0_19819_975" style="mask-type:luminance" maskUnits="userSpaceOnUse" x="0" y="0" width="24" height="24">
<path d="M24 0H0V24H24V0Z" fill="white"/>
</mask>
<g mask="url(#mask0_19819_975)">
<path d="M12 7C10.9396 7 9.92177 7.42199 9.17188 8.17188C8.42198 8.92177 8 9.93955 8 11C8 12.0604 8.42198 13.0782 9.17188 13.8281C9.92176 14.578 10.9395 15 12 15C13.0605 15 14.0783 14.578 14.8281 13.8281C15.578 13.0783 16 12.0605 16 11C16 9.93953 15.578 8.92176 14.8281 8.17188C14.0782 7.42198 13.0604 7 12 7ZM12 9C12.5308 9 13.0387 9.21062 13.4141 9.58594C13.7894 9.96128 14 10.4693 14 11C14 11.5307 13.7894 12.0387 13.4141 12.4141C13.0387 12.7894 12.5307 13 12 13C11.4693 13 10.9613 12.7894 10.5859 12.4141C10.2106 12.0387 10 11.5308 10 11C10 10.4692 10.2106 9.96126 10.5859 9.58594C10.9613 9.2106 11.4692 9 12 9Z" fill="black"/>
<path d="M12 2C10.2201 2 8.47995 2.52872 6.99998 3.51758C5.52003 4.50644 4.36669 5.91222 3.68553 7.55664C3.00436 9.20106 2.8266 11.0101 3.17381 12.7559C3.52103 14.5015 4.37812 16.1047 5.6367 17.3633L9.88084 21.6074C10.443 22.169 11.2052 22.4844 12 22.4844C12.7948 22.4844 13.5589 22.169 14.1211 21.6074L18.3633 17.3633C19.6219 16.1047 20.479 14.5016 20.8262 12.7559C21.1734 11.01 20.9956 9.20104 20.3144 7.55664C19.6333 5.91221 18.48 4.50643 17 3.51758C15.52 2.52873 13.7799 2 12 2ZM12 4C13.3845 4 14.7374 4.41048 15.8887 5.17969C17.0399 5.94889 17.9369 7.04314 18.4668 8.32227C18.9966 9.60144 19.1353 11.0072 18.8652 12.3652C18.5952 13.7231 17.9282 14.9702 16.9492 15.9492L12.707 20.1934C12.5192 20.381 12.2654 20.4844 12 20.4844C11.7352 20.4844 11.4826 20.3801 11.2949 20.1934H11.2929L7.05077 15.9492C6.07179 14.9702 5.40484 13.7231 5.13475 12.3652C4.86466 11.0072 5.00332 9.60142 5.53319 8.32227C6.06304 7.04313 6.96011 5.94889 8.11131 5.17969C9.26253 4.41049 10.6155 4 12 4Z" fill="black"/>
</g>
</g>
<defs>
<clipPath id="clip0_19819_975">
<rect width="24" height="24" fill="white"/>
</clipPath>
</defs>
</svg>
