<?xml version="1.0" encoding="UTF-8" standalone="no"?>
<svg
   width="24"
   height="24"
   viewBox="0 0 24 24"
   fill="none"
   version="1.1"
   id="svg4"
   sodipodi:docname="map-off.svg"
   inkscape:version="1.3.2 (091e20e, 2023-11-25)"
   xmlns:inkscape="http://www.inkscape.org/namespaces/inkscape"
   xmlns:sodipodi="http://sodipodi.sourceforge.net/DTD/sodipodi-0.dtd"
   xmlns="http://www.w3.org/2000/svg"
   xmlns:svg="http://www.w3.org/2000/svg">
  <defs
     id="defs4" />
  <sodipodi:namedview
     id="namedview4"
     pagecolor="#505050"
     bordercolor="#eeeeee"
     borderopacity="1"
     inkscape:showpageshadow="0"
     inkscape:pageopacity="0"
     inkscape:pagecheckerboard="0"
     inkscape:deskcolor="#505050"
     inkscape:zoom="9.8333333"
     inkscape:cx="11.949153"
     inkscape:cy="12"
     inkscape:window-width="1504"
     inkscape:window-height="449"
     inkscape:window-x="0"
     inkscape:window-y="25"
     inkscape:window-maximized="0"
     inkscape:current-layer="svg4" />
  <path
     style="color:#000000;fill:#000000;stroke-linecap:round;stroke-linejoin:round;-inkscape-stroke:none"
     d="M 8.5527344,3.1054688 7.8730469,3.4453125 A 1,1 0 0 0 7.4257812,4.7871094 1,1 0 0 0 8.7675781,5.234375 L 9,5.1171875 14.552734,7.8945312 a 1.0001,1.0001 0 0 0 0.894532,0 L 20,5.6171875 V 17 a 1,1 0 0 0 1,1 1,1 0 0 0 1,-1 V 4 A 1.0001,1.0001 0 0 0 20.552734,3.1054688 L 15,5.8828125 9.4472656,3.1054688 a 1.0001,1.0001 0 0 0 -0.8945312,0 z M 5.9804687,4.71875 A 1,1 0 0 0 5.2167969,4.7734375 L 2.5527344,6.1054687 A 1.0001,1.0001 0 0 0 2,7 v 13 a 1.0001,1.0001 0 0 0 1.4472656,0.894531 L 9,18.117187 l 5.552734,2.777344 a 1.0001,1.0001 0 0 0 0.894532,0 l 3.330078,-1.666015 a 1,1 0 0 0 0.447265,-1.339844 1,1 0 0 0 -1.341797,-0.447266 L 15,18.882812 9.4472656,16.105469 a 1.0001,1.0001 0 0 0 -0.8945312,0 L 4,18.382812 V 7.6171875 L 6.1132812,6.5605469 A 1,1 0 0 0 6.5585937,5.21875 a 1,1 0 0 0 -0.578125,-0.5 z"
     id="path1" />
  <path
     style="color:#000000;fill:#000000;stroke-linecap:round;stroke-linejoin:round;-inkscape-stroke:none"
     d="M 9,3 A 1,1 0 0 0 8,4 V 5 A 1,1 0 0 0 9,6 1,1 0 0 0 10,5 V 4 A 1,1 0 0 0 9,3 Z M 9,8 A 1,1 0 0 0 8,9 v 8 a 1,1 0 0 0 1,1 1,1 0 0 0 1,-1 V 9 A 1,1 0 0 0 9,8 Z"
     id="path2" />
  <path
     style="color:#000000;fill:#000000;stroke-linecap:round;stroke-linejoin:round;-inkscape-stroke:none"
     d="m 15,6 a 1,1 0 0 0 -1,1 v 4 a 1,1 0 0 0 1,1 1,1 0 0 0 1,-1 V 7 A 1,1 0 0 0 15,6 Z m 0,8 a 1,1 0 0 0 -1,1 v 5 a 1,1 0 0 0 1,1 1,1 0 0 0 1,-1 v -5 a 1,1 0 0 0 -1,-1 z"
     id="path3" />
  <path
     style="color:#000000;fill:#000000;stroke-linecap:round;stroke-linejoin:round;-inkscape-stroke:none"
     d="m 3,2 a 1,1 0 0 0 -0.7070312,0.2929688 1,1 0 0 0 0,1.4140625 L 20.292969,21.707031 a 1,1 0 0 0 1.414062,0 1,1 0 0 0 0,-1.414062 L 3.7070313,2.2929688 A 1,1 0 0 0 3,2 Z"
     id="path4" />
</svg>
