<?xml version="1.0" encoding="UTF-8" standalone="no"?>
<svg
   width="24"
   height="24"
   viewBox="0 0 24 24"
   fill="none"
   version="1.1"
   id="svg3"
   sodipodi:docname="map-pin-check.svg"
   inkscape:version="1.3.2 (091e20e, 2023-11-25)"
   xmlns:inkscape="http://www.inkscape.org/namespaces/inkscape"
   xmlns:sodipodi="http://sodipodi.sourceforge.net/DTD/sodipodi-0.dtd"
   xmlns="http://www.w3.org/2000/svg"
   xmlns:svg="http://www.w3.org/2000/svg">
  <defs
     id="defs3" />
  <sodipodi:namedview
     id="namedview3"
     pagecolor="#505050"
     bordercolor="#eeeeee"
     borderopacity="1"
     inkscape:showpageshadow="0"
     inkscape:pageopacity="0"
     inkscape:pagecheckerboard="0"
     inkscape:deskcolor="#505050"
     inkscape:zoom="9.8333333"
     inkscape:cx="11.949153"
     inkscape:cy="12"
     inkscape:window-width="1504"
     inkscape:window-height="449"
     inkscape:window-x="0"
     inkscape:window-y="25"
     inkscape:window-maximized="0"
     inkscape:current-layer="svg3" />
  <path
     style="color:#000000;fill:#000000;stroke-linecap:round;stroke-linejoin:round;-inkscape-stroke:none"
     d="M 12,7 C 10.939553,7 9.9217709,7.4219924 9.171875,8.171875 8.4219809,8.9217691 8,9.9395527 8,11 8,12.060447 8.4219777,13.078241 9.171875,13.828125 9.9217577,14.577981 10.939528,15 12,15 13.060472,15 14.078254,14.577996 14.828125,13.828125 15.577996,13.078254 16,12.060472 16,11 16,9.9395276 15.577993,8.9217559 14.828125,8.171875 14.078241,7.4219777 13.060447,7 12,7 Z m 0,2 c 0.530751,0 1.038748,0.2106159 1.414063,0.5859375 C 13.789394,9.9612755 14,10.469274 14,11 14,11.530726 13.789391,12.038734 13.414063,12.414063 13.038734,12.789391 12.530726,13 12,13 11.469274,13 10.961294,12.789405 10.585938,12.414063 10.210616,12.038748 10,11.530751 10,11 10,10.469249 10.210613,9.9612623 10.585938,9.5859375 10.96128,9.2106012 11.469249,9 12,9 Z"
     id="path1" />
  <path
     style="color:#000000;fill:#000000;stroke-linecap:round;stroke-linejoin:round;-inkscape-stroke:none"
     d="M 12.074219,2.0019531 C 11.288418,1.9955124 10.503393,2.0914887 9.7363281,2.2910156 8.2022071,2.6900844 6.7989559,3.4869012 5.671875,4.6015625 4.5447845,5.7162221 3.7324606,7.109067 3.3164063,8.6386719 2.9003671,10.168296 2.8955331,11.780531 3.3027344,13.3125 c 0.4072011,1.531968 1.2113935,2.929626 2.3320312,4.050781 a 1.0001,1.0001 0 0 0 0.00195,0 l 4.2421876,4.244141 c 0.5147427,0.515193 1.2010367,0.824999 1.9277347,0.871094 a 1,1 0 0 0 1.060547,-0.935547 1,1 0 0 0 -0.933594,-1.060547 c -0.241302,-0.01531 -0.467816,-0.118057 -0.638672,-0.289063 L 7.0507812,15.949219 C 6.179141,15.077176 5.5530663,13.990457 5.2363281,12.798828 4.9195902,11.6072 4.9224737,10.353896 5.2460937,9.1640625 5.5697187,7.9742701 6.2014375,6.8904559 7.078125,6.0234375 7.9548021,5.1564208 9.044985,4.536973 10.238281,4.2265625 c 1.193328,-0.3104054 2.44869,-0.3006333 3.636719,0.029297 1.188047,0.3299353 2.266578,0.9683541 3.128906,1.8496093 0.862344,0.8812705 1.477173,1.9749896 1.78125,3.1699219 0.304074,1.1949524 0.287373,2.4484354 -0.04883,3.6347654 a 1,1 0 0 0 0.689453,1.234375 1,1 0 0 0 1.234375,-0.689453 c 0.432198,-1.525067 0.453426,-3.137563 0.0625,-4.673828 C 20.331734,7.245045 19.542248,5.8400188 18.433594,4.7070312 17.324924,3.5740285 15.937506,2.7542421 14.410156,2.3300781 13.646472,2.1179936 12.860019,2.0083939 12.074219,2.0019531 Z"
     id="path2" />
  <path
     style="color:#000000;fill:#000000;stroke-linecap:round;stroke-linejoin:round;-inkscape-stroke:none"
     d="M 20.292969,16.292969 17,19.585937 15.707031,18.292969 a 1,1 0 0 0 -1.414062,0 1,1 0 0 0 0,1.414062 l 2,2 a 1.0001,1.0001 0 0 0 1.414062,0 l 4,-4 a 1,1 0 0 0 0,-1.414062 1,1 0 0 0 -1.414062,0 z"
     id="path3" />
</svg>
