<svg width="24" height="24" viewBox="0 0 24 24" fill="none" xmlns="http://www.w3.org/2000/svg">
<g clip-path="url(#clip0_19819_1023)">
<mask id="mask0_19819_1023" style="mask-type:luminance" maskUnits="userSpaceOnUse" x="0" y="0" width="24" height="24">
<path d="M24 0H0V24H24V0Z" fill="white"/>
</mask>
<g mask="url(#mask0_19819_1023)">
<path d="M8.55273 3.10559L2.55273 6.10559C2.38663 6.18866 2.24694 6.31635 2.14931 6.47435C2.05169 6.63234 1.99999 6.8144 2 7.00012V20.0001C2.00001 20.1706 2.04358 20.3382 2.12659 20.4871C2.2096 20.636 2.32929 20.7612 2.47429 20.8508C2.61929 20.9404 2.78479 20.9915 2.95508 20.9992C3.12537 21.0068 3.29479 20.9709 3.44727 20.8946L9 18.1173L10.5527 18.8946C10.6702 18.9534 10.7981 18.9884 10.9291 18.9978C11.0601 19.0071 11.1917 18.9905 11.3163 18.949C11.4409 18.9074 11.5561 18.8418 11.6553 18.7557C11.7545 18.6696 11.8358 18.5649 11.8945 18.4474C11.9533 18.3299 11.9883 18.202 11.9976 18.071C12.007 17.94 11.9904 17.8084 11.9488 17.6838C11.9073 17.5592 11.8416 17.444 11.7556 17.3448C11.6695 17.2456 11.5647 17.1643 11.4473 17.1056L9.44727 16.1056C9.30839 16.0361 9.15526 16 9 16C8.84474 16 8.69161 16.0361 8.55273 16.1056L4 18.3829V7.61731L9 5.11731L14.5527 7.89465C14.6916 7.96409 14.8447 8.00024 15 8.00024C15.1553 8.00024 15.3084 7.96409 15.4473 7.89465L20 5.61731V11.5001C20 11.7653 20.1054 12.0197 20.2929 12.2072C20.4804 12.3948 20.7348 12.5001 21 12.5001C21.2652 12.5001 21.5196 12.3948 21.7071 12.2072C21.8946 12.0197 22 11.7653 22 11.5001V4.00012C22 3.82966 21.9564 3.66202 21.8734 3.51314C21.7904 3.36425 21.6707 3.23906 21.5257 3.14943C21.3807 3.05981 21.2152 3.00874 21.0449 3.00106C20.8746 2.99339 20.7052 3.02937 20.5527 3.10559L15 5.88293L9.44727 3.10559C9.30839 3.03615 9.15526 3 9 3C8.84474 3 8.69161 3.03615 8.55273 3.10559Z" fill="black"/>
<path d="M9 3C8.73478 3 8.48043 3.10536 8.29289 3.29289C8.10536 3.48043 8 3.73478 8 4V17C8 17.2652 8.10536 17.5196 8.29289 17.7071C8.48043 17.8946 8.73478 18 9 18C9.26522 18 9.51957 17.8946 9.70711 17.7071C9.89464 17.5196 10 17.2652 10 17V4C10 3.73478 9.89464 3.48043 9.70711 3.29289C9.51957 3.10536 9.26522 3 9 3Z" fill="black"/>
<path d="M15 6C14.7348 6 14.4804 6.10536 14.2929 6.29289C14.1054 6.48043 14 6.73478 14 7V12C14 12.2652 14.1054 12.5196 14.2929 12.7071C14.4804 12.8946 14.7348 13 15 13C15.2652 13 15.5196 12.8946 15.7071 12.7071C15.8946 12.5196 16 12.2652 16 12V7C16 6.73478 15.8946 6.48043 15.7071 6.29289C15.5196 6.10536 15.2652 6 15 6Z" fill="black"/>
<path d="M18 14C16.9395 14 15.9217 14.422 15.1719 15.1719C14.422 15.9217 14 16.9395 14 18C14 19.0605 14.422 20.0783 15.1719 20.8281C15.9217 21.578 16.9395 22 18 22C19.0605 22 20.0783 21.578 20.8281 20.8281C21.578 20.0783 22 19.0605 22 18C22 16.9395 21.578 15.9217 20.8281 15.1719C20.0783 14.422 19.0605 14 18 14ZM18 16C18.5307 16 19.0387 16.2106 19.4141 16.5859C19.7894 16.9613 20 17.4693 20 18C20 18.5307 19.7894 19.0387 19.4141 19.4141C19.0387 19.7894 18.5307 20 18 20C17.4693 20 16.9613 19.7894 16.5859 19.4141C16.2106 19.0387 16 18.5307 16 18C16 17.4693 16.2106 16.9613 16.5859 16.5859C16.9613 16.2106 17.4693 16 18 16Z" fill="black"/>
<path d="M19.4922 19.4925C19.3047 19.6801 19.1993 19.9344 19.1993 20.1996C19.1993 20.4647 19.3047 20.7191 19.4922 20.9066L21.2929 22.7074C21.4805 22.8949 21.7348 23.0002 22 23.0002C22.2652 23.0002 22.5195 22.8949 22.707 22.7074C22.8945 22.5198 22.9998 22.2655 22.9998 22.0003C22.9998 21.7352 22.8945 21.4808 22.707 21.2933L20.9062 19.4925C20.7187 19.305 20.4644 19.1997 20.1992 19.1997C19.934 19.1997 19.6797 19.305 19.4922 19.4925Z" fill="black"/>
</g>
</g>
<defs>
<clipPath id="clip0_19819_1023">
<rect width="24" height="24" fill="white"/>
</clipPath>
</defs>
</svg>
