<?xml version="1.0" encoding="UTF-8" standalone="no"?>
<svg
   width="24"
   height="24"
   viewBox="0 0 24 24"
   fill="none"
   version="1.1"
   id="svg4"
   sodipodi:docname="map-pin-exclamation-1.svg"
   inkscape:version="1.3.2 (091e20e, 2023-11-25)"
   xmlns:inkscape="http://www.inkscape.org/namespaces/inkscape"
   xmlns:sodipodi="http://sodipodi.sourceforge.net/DTD/sodipodi-0.dtd"
   xmlns="http://www.w3.org/2000/svg"
   xmlns:svg="http://www.w3.org/2000/svg">
  <defs
     id="defs4" />
  <sodipodi:namedview
     id="namedview4"
     pagecolor="#505050"
     bordercolor="#eeeeee"
     borderopacity="1"
     inkscape:showpageshadow="0"
     inkscape:pageopacity="0"
     inkscape:pagecheckerboard="0"
     inkscape:deskcolor="#505050"
     inkscape:zoom="9.8333333"
     inkscape:cx="11.949153"
     inkscape:cy="12"
     inkscape:window-width="1504"
     inkscape:window-height="449"
     inkscape:window-x="0"
     inkscape:window-y="25"
     inkscape:window-maximized="0"
     inkscape:current-layer="svg4" />
  <path
     style="color:#000000;fill:#000000;stroke-linecap:round;stroke-linejoin:round;-inkscape-stroke:none"
     d="M 12,7 C 10.939553,7 9.9217709,7.4219924 9.171875,8.171875 8.4219809,8.9217691 8,9.9395527 8,11 8,12.060447 8.4219777,13.078241 9.171875,13.828125 9.9217577,14.577981 10.939528,15 12,15 13.060472,15 14.078254,14.577996 14.828125,13.828125 15.577996,13.078254 16,12.060472 16,11 16,9.9395276 15.577993,8.9217559 14.828125,8.171875 14.078241,7.4219777 13.060447,7 12,7 Z m 0,2 c 0.530751,0 1.038748,0.2106159 1.414063,0.5859375 C 13.789394,9.9612755 14,10.469274 14,11 14,11.530726 13.789391,12.038734 13.414063,12.414063 13.038734,12.789391 12.530726,13 12,13 11.469274,13 10.961294,12.789405 10.585938,12.414063 10.210616,12.038748 10,11.530751 10,11 10,10.469249 10.210613,9.9612623 10.585938,9.5859375 10.96128,9.2106012 11.469249,9 12,9 Z"
     id="path1" />
  <path
     style="color:#000000;fill:#000000;stroke-linecap:round;stroke-linejoin:round;-inkscape-stroke:none"
     d="M 12.933594,2.0488281 C 11.458182,1.8950321 9.9668565,2.1085094 8.59375,2.6699219 7.2206609,3.2313477 6.0075307,4.124114 5.0625,5.2675781 4.1174783,6.4110337 3.4705195,7.7703585 3.1777344,9.2246094 2.8849469,10.678838 2.9558572,12.183458 3.3847656,13.603516 c 0.4289057,1.42016 1.2031021,2.710734 2.2519531,3.759765 l 4.2441407,4.244141 C 10.443122,22.169085 11.205297,22.484375 12,22.484375 c 0.794703,0 1.558831,-0.31529 2.121094,-0.876953 l 1.583984,-1.583985 a 1,1 0 0 0 0,-1.414062 1,1 0 0 0 -1.416015,0 l -1.582032,1.583984 C 12.519295,20.380896 12.265496,20.484375 12,20.484375 c -0.264868,0 -0.517475,-0.104312 -0.705078,-0.291016 h -0.002 L 7.0507812,15.949219 C 6.2349542,15.133252 5.6324417,14.128074 5.2988281,13.023438 4.9652173,11.918898 4.9109398,10.750249 5.1386719,9.6191406 5.3664062,8.4879941 5.8704121,7.430418 6.6054687,6.5410156 7.3405363,5.6516018 8.283534,4.9581776 9.3515625,4.5214844 10.419614,4.0847978 11.578976,3.9194388 12.726563,4.0390625 13.874153,4.1586866 14.974678,4.5594732 15.929688,5.2070312 16.884704,5.8545943 17.663468,6.7281709 18.199219,7.75 18.735082,8.7718758 19.010413,9.9106035 19,11.064453 A 1,1 0 0 0 19.990234,12.072266 1,1 0 0 0 21,11.082031 C 21.013387,9.5986435 20.659639,8.1340943 19.970703,6.8203125 19.281855,5.5064839 18.278563,4.3832967 17.050781,3.5507813 15.822992,2.7182608 14.409001,2.2026237 12.933594,2.0488281 Z"
     id="path2" />
  <path
     style="color:#000000;fill:#000000;stroke-linecap:round;stroke-linejoin:round;-inkscape-stroke:none"
     d="m 19,21 a 1,1 0 0 0 -1,1 v 0.0098 a 1,1 0 0 0 1,1 1,1 0 0 0 1,-1 V 22 a 1,1 0 0 0 -1,-1 z"
     id="path3" />
  <path
     style="color:#000000;fill:#000000;stroke-linecap:round;stroke-linejoin:round;-inkscape-stroke:none"
     d="m 18.425781,14.058594 c -0.659464,0.131953 -1.25493,0.482731 -1.689453,0.996094 a 1,1 0 0 0 0.117188,1.410156 1,1 0 0 0 1.410156,-0.117188 c 0.143076,-0.169036 0.337552,-0.284678 0.554687,-0.328125 0.216432,-0.04331 0.442089,-0.01232 0.638672,0.08789 0.19836,0.103328 0.356343,0.269138 0.449219,0.472656 0.09337,0.204653 0.115264,0.433974 0.0625,0.652344 -0.05287,0.21854 -0.177366,0.411684 -0.353516,0.550781 C 19.439098,17.92234 19.220968,17.999248 18.996094,18 A 1,1 0 0 0 18,19.003906 1,1 0 0 0 19.003906,20 c 0.671725,-0.0022 1.3241,-0.229822 1.851563,-0.646484 0.52745,-0.416503 0.898708,-0.997532 1.05664,-1.650391 0.157837,-0.653229 0.09133,-1.341979 -0.1875,-1.953125 -0.27893,-0.61122 -0.754707,-1.111152 -1.351562,-1.419922 a 1.0001,1.0001 0 0 0 -0.0039,-0.002 c -0.598593,-0.30667 -1.283842,-0.401495 -1.94336,-0.269531 z"
     id="path4" />
</svg>
