<?xml version="1.0" encoding="UTF-8" standalone="no"?>
<svg
   width="24"
   height="24"
   viewBox="0 0 24 24"
   fill="none"
   version="1.1"
   id="svg4"
   sodipodi:docname="map-pin-plus.svg"
   inkscape:version="1.3.2 (091e20e, 2023-11-25)"
   xmlns:inkscape="http://www.inkscape.org/namespaces/inkscape"
   xmlns:sodipodi="http://sodipodi.sourceforge.net/DTD/sodipodi-0.dtd"
   xmlns="http://www.w3.org/2000/svg"
   xmlns:svg="http://www.w3.org/2000/svg">
  <defs
     id="defs4" />
  <sodipodi:namedview
     id="namedview4"
     pagecolor="#505050"
     bordercolor="#eeeeee"
     borderopacity="1"
     inkscape:showpageshadow="0"
     inkscape:pageopacity="0"
     inkscape:pagecheckerboard="0"
     inkscape:deskcolor="#505050"
     inkscape:zoom="9.8333333"
     inkscape:cx="11.949153"
     inkscape:cy="12"
     inkscape:window-width="1504"
     inkscape:window-height="449"
     inkscape:window-x="0"
     inkscape:window-y="25"
     inkscape:window-maximized="0"
     inkscape:current-layer="svg4" />
  <path
     style="color:#000000;fill:#000000;stroke-linecap:round;stroke-linejoin:round;-inkscape-stroke:none"
     d="M 12,7 C 10.939553,7 9.9217709,7.4219924 9.171875,8.171875 8.4219809,8.9217691 8,9.9395527 8,11 8,12.060447 8.4219777,13.078241 9.171875,13.828125 9.9217577,14.577981 10.939528,15 12,15 13.060472,15 14.078254,14.577996 14.828125,13.828125 15.577996,13.078254 16,12.060472 16,11 16,9.9395276 15.577993,8.9217559 14.828125,8.171875 14.078241,7.4219777 13.060447,7 12,7 Z m 0,2 c 0.530751,0 1.038748,0.2106159 1.414063,0.5859375 C 13.789394,9.9612755 14,10.469274 14,11 14,11.530726 13.789391,12.038734 13.414063,12.414063 13.038734,12.789391 12.530726,13 12,13 11.469274,13 10.961294,12.789405 10.585938,12.414063 10.210616,12.038748 10,11.530751 10,11 10,10.469249 10.210613,9.9612623 10.585938,9.5859375 10.96128,9.2106012 11.469249,9 12,9 Z"
     id="path1" />
  <path
     style="color:#000000;fill:#000000;stroke-linecap:round;stroke-linejoin:round;-inkscape-stroke:none"
     d="M 11.335938,2.0253906 C 10.579299,2.0813798 9.8296397,2.2325505 9.1054688,2.4785156 7.6571461,2.9704621 6.3591384,3.8235696 5.3320312,4.9570312 4.3049251,6.0904806 3.5836616,7.4673953 3.2363281,8.9570313 2.8890108,10.446702 2.9258149,11.999902 3.3457031,13.470703 c 0.4198819,1.470892 1.2096245,2.810816 2.2910156,3.892578 l 4.2441407,4.244141 c 0.4248206,0.424821 0.9665556,0.7113 1.5566406,0.824219 0.590165,0.112783 1.200314,0.04677 1.751953,-0.191407 a 1,1 0 0 0 0.523438,-1.314453 1,1 0 0 0 -1.314453,-0.521484 c -0.183355,0.07916 -0.387756,0.101551 -0.583985,0.06445 -0.196914,-0.03768 -0.377752,-0.133612 -0.519531,-0.275391 L 7.0507812,15.949219 C 6.2096343,15.107783 5.5961286,14.065981 5.2695312,12.921875 4.9429402,11.777879 4.9134317,10.570855 5.1835937,9.4121094 5.4537597,8.2534279 6.0155411,7.1824099 6.8144531,6.3007812 7.6133641,5.419145 8.6234453,4.7556996 9.75,4.3730469 10.876595,3.990398 12.081323,3.90062 13.251953,4.1132812 c 1.170626,0.2126693 2.267615,0.7201947 3.1875,1.4746094 0.920012,0.7544378 1.632645,1.731646 2.070313,2.8378907 0.437776,1.1062971 0.586258,2.3047507 0.43164,3.4843747 a 1,1 0 0 0 0.861328,1.123047 1,1 0 0 0 1.121094,-0.863281 C 21.12261,10.653349 20.931963,9.1117535 20.369141,7.6894531 19.80641,6.2671003 18.889817,5.0109362 17.707031,4.0410156 16.524319,3.071052 15.114347,2.4198947 13.609375,2.1464844 12.856891,2.0097852 12.092576,1.9694014 11.335938,2.0253906 Z"
     id="path2" />
  <path
     style="color:#000000;fill:#000000;stroke-linecap:round;stroke-linejoin:round;-inkscape-stroke:none"
     d="m 16,18 a 1,1 0 0 0 -1,1 1,1 0 0 0 1,1 h 6 a 1,1 0 0 0 1,-1 1,1 0 0 0 -1,-1 z"
     id="path3" />
  <path
     style="color:#000000;fill:#000000;stroke-linecap:round;stroke-linejoin:round;-inkscape-stroke:none"
     d="m 19,15 a 1,1 0 0 0 -1,1 v 6 a 1,1 0 0 0 1,1 1,1 0 0 0 1,-1 v -6 a 1,1 0 0 0 -1,-1 z"
     id="path4" />
</svg>
