<?xml version="1.0" encoding="UTF-8" standalone="no"?>
<svg
   width="24"
   height="24"
   viewBox="0 0 24 24"
   fill="none"
   version="1.1"
   id="svg9"
   sodipodi:docname="map-pin-cog.svg"
   inkscape:version="1.3.2 (091e20e, 2023-11-25)"
   xmlns:inkscape="http://www.inkscape.org/namespaces/inkscape"
   xmlns:sodipodi="http://sodipodi.sourceforge.net/DTD/sodipodi-0.dtd"
   xmlns="http://www.w3.org/2000/svg"
   xmlns:svg="http://www.w3.org/2000/svg">
  <defs
     id="defs9" />
  <sodipodi:namedview
     id="namedview9"
     pagecolor="#505050"
     bordercolor="#eeeeee"
     borderopacity="1"
     inkscape:showpageshadow="0"
     inkscape:pageopacity="0"
     inkscape:pagecheckerboard="0"
     inkscape:deskcolor="#505050"
     inkscape:zoom="9.8333333"
     inkscape:cx="11.949153"
     inkscape:cy="12"
     inkscape:window-width="1504"
     inkscape:window-height="449"
     inkscape:window-x="0"
     inkscape:window-y="25"
     inkscape:window-maximized="0"
     inkscape:current-layer="svg9" />
  <path
     style="color:#000000;fill:#000000;stroke-linecap:round;stroke-linejoin:round;-inkscape-stroke:none"
     d="M 12,7 C 10.939553,7 9.9217709,7.4219924 9.171875,8.171875 8.4219809,8.9217691 8,9.9395527 8,11 8,12.060447 8.4219777,13.078241 9.171875,13.828125 9.9217577,14.577981 10.939528,15 12,15 13.060472,15 14.078254,14.577996 14.828125,13.828125 15.577996,13.078254 16,12.060472 16,11 16,9.9395276 15.577993,8.9217559 14.828125,8.171875 14.078241,7.4219777 13.060447,7 12,7 Z m 0,2 c 0.530751,0 1.038748,0.2106159 1.414063,0.5859375 C 13.789394,9.9612755 14,10.469274 14,11 14,11.530726 13.789391,12.038734 13.414063,12.414063 13.038734,12.789391 12.530726,13 12,13 11.469274,13 10.961294,12.789405 10.585938,12.414063 10.210616,12.038748 10,11.530751 10,11 10,10.469249 10.210613,9.9612623 10.585938,9.5859375 10.96128,9.2106012 11.469249,9 12,9 Z"
     id="path1" />
  <path
     style="color:#000000;fill:#000000;stroke-linecap:round;stroke-linejoin:round;-inkscape-stroke:none"
     d="M 11.060547,2.0488281 C 10.316023,2.1269546 9.5824974,2.2985012 8.875,2.5605469 7.4600301,3.0846456 6.199061,3.957029 5.2089844,5.0957031 4.2189121,6.2343723 3.5294696,7.6040682 3.2070313,9.078125 c -0.3224357,1.474067 -0.268007,3.005074 0.15625,4.453125 0.4242485,1.448061 1.2065309,2.766965 2.2734374,3.833984 l 4.2421876,4.242188 c 0.2792137,0.279514 0.6110357,0.501568 0.9765627,0.652344 0.365481,0.150757 0.757201,0.22596 1.152344,0.224609 a 1,1 0 0 0 0.998046,-1.001953 1,1 0 0 0 -1.003906,-0.998047 c -0.131256,4.49e-4 -0.261494,-0.02418 -0.382812,-0.07422 -0.121273,-0.05002 -0.231234,-0.123711 -0.324219,-0.216797 L 7.0507812,15.949219 C 6.2208896,15.11924 5.6131939,14.095087 5.2832031,12.96875 4.9532008,11.842404 4.9113056,10.650496 5.1621094,9.5039063 5.4129105,8.3573457 5.9466909,7.2938919 6.7167969,6.4082031 7.4868985,5.5225193 8.4677518,4.8432072 9.5683594,4.4355469 10.669022,4.0278791 11.854371,3.9039026 13.015625,4.0742187 c 1.161248,0.1703153 2.261934,0.629373 3.199219,1.3359375 0.937153,0.7065314 1.680685,1.6374855 2.164062,2.7070313 0.483351,1.0694957 0.690559,2.2436385 0.601563,3.4140625 a 1,1 0 0 0 0.919922,1.072266 1,1 0 0 0 1.074218,-0.919922 C 21.089013,10.179021 20.82262,8.6699837 20.201172,7.2949219 19.57975,5.9199301 18.622813,4.7228002 17.417969,3.8144531 16.213056,2.9061393 14.79959,2.3146675 13.306641,2.0957031 12.560169,1.9862214 11.805071,1.9707016 11.060547,2.0488281 Z"
     id="path2" />
  <path
     style="color:#000000;fill:#000000;stroke-linecap:round;stroke-linejoin:round;-inkscape-stroke:none"
     d="m 19.001953,16 c -0.795281,0 -1.560732,0.316442 -2.123047,0.878906 C 16.316552,17.44126 16.001953,18.204769 16.001953,19 c 0,0.795231 0.314599,1.55874 0.876953,2.121094 C 17.441221,21.683558 18.206672,22 19.001953,22 c 0.795231,0 1.55874,-0.316552 2.121094,-0.878906 C 21.685401,20.55874 22.001953,19.795231 22.001953,19 c 0,-0.795231 -0.316552,-1.55874 -0.878906,-2.121094 C 20.560693,16.316552 19.797184,16 19.001953,16 Z m 0,2 c 0.265568,0 0.519186,0.105124 0.707031,0.292969 0.187845,0.187845 0.292969,0.441463 0.292969,0.707031 0,0.265568 -0.105124,0.519186 -0.292969,0.707031 C 19.521139,19.894876 19.267521,20 19.001953,20 18.736235,20 18.482607,19.894766 18.294922,19.707031 a 1.0001,1.0001 0 0 0 -0.002,0 C 18.105124,19.519186 18.001953,19.265568 18.001953,19 c 0,-0.265568 0.103171,-0.519186 0.291016,-0.707031 a 1.0001,1.0001 0 0 0 0.002,0 C 18.482607,18.105234 18.736235,18 19.001953,18 Z"
     id="path3" />
  <path
     style="color:#000000;fill:#000000;stroke-linecap:round;stroke-linejoin:round;-inkscape-stroke:none"
     d="m 19.001953,14.5 a 1,1 0 0 0 -1,1 V 17 a 1,1 0 0 0 1,1 1,1 0 0 0 1,-1 v -1.5 a 1,1 0 0 0 -1,-1 z"
     id="path4" />
  <path
     style="color:#000000;fill:#000000;stroke-linecap:round;stroke-linejoin:round;-inkscape-stroke:none"
     d="m 19.001953,20 a 1,1 0 0 0 -1,1 v 1.5 a 1,1 0 0 0 1,1 1,1 0 0 0 1,-1 V 21 a 1,1 0 0 0 -1,-1 z"
     id="path5" />
  <path
     style="color:#000000;fill:#000000;stroke-linecap:round;stroke-linejoin:round;-inkscape-stroke:none"
     d="m 22.291016,16.283203 a 1,1 0 0 0 -0.759766,0.101563 l -1.298828,0.75 A 1,1 0 0 0 19.867187,18.5 a 1,1 0 0 0 1.365235,0.365234 l 1.298828,-0.75 A 1,1 0 0 0 22.898437,16.75 1,1 0 0 0 22.291016,16.283203 Z"
     id="path6" />
  <path
     style="color:#000000;fill:#000000;stroke-linecap:round;stroke-linejoin:round;-inkscape-stroke:none"
     d="m 17.529297,19.033203 a 1,1 0 0 0 -0.759766,0.101563 l -1.298828,0.75 A 1,1 0 0 0 15.103516,21.25 1,1 0 0 0 16.46875,21.615234 l 1.300781,-0.75 A 1,1 0 0 0 18.136719,19.5 1,1 0 0 0 17.529297,19.033203 Z"
     id="path7" />
  <path
     style="color:#000000;fill:#000000;stroke-linecap:round;stroke-linejoin:round;-inkscape-stroke:none"
     d="M 16.46875,16.384766 A 1,1 0 0 0 15.103516,16.75 a 1,1 0 0 0 0.367187,1.365234 l 1.298828,0.75 A 1,1 0 0 0 18.136719,18.5 1,1 0 0 0 17.769531,17.134766 Z"
     id="path8" />
  <path
     style="color:#000000;fill:#000000;stroke-linecap:round;stroke-linejoin:round;-inkscape-stroke:none"
     d="M 20.474609,19.033203 A 1,1 0 0 0 19.867187,19.5 a 1,1 0 0 0 0.365235,1.365234 l 1.300781,0.75 A 1,1 0 0 0 22.898437,21.25 1,1 0 0 0 22.533203,19.884766 l -1.300781,-0.75 a 1,1 0 0 0 -0.757813,-0.101563 z"
     id="path9" />
</svg>
