<svg width="24" height="24" viewBox="0 0 24 24" fill="none" xmlns="http://www.w3.org/2000/svg">
<g clip-path="url(#clip0_19819_948)">
<mask id="mask0_19819_948" style="mask-type:luminance" maskUnits="userSpaceOnUse" x="0" y="0" width="24" height="24">
<path d="M24 0H0V24H24V0Z" fill="white"/>
</mask>
<g mask="url(#mask0_19819_948)">
<path d="M8.55273 3.10559L2.55273 6.10559C2.38663 6.18866 2.24694 6.31635 2.14931 6.47435C2.05169 6.63234 1.99999 6.8144 2 7.00012V20.0001C2.00001 20.1706 2.04358 20.3382 2.12659 20.4871C2.2096 20.636 2.32929 20.7612 2.47429 20.8508C2.61929 20.9404 2.78479 20.9915 2.95508 20.9992C3.12537 21.0068 3.29479 20.9709 3.44727 20.8946L9 18.1173L14.5527 20.8946C14.6916 20.9641 14.8447 21.0002 15 21.0002C15.1553 21.0002 15.3084 20.9641 15.4473 20.8946L21.4473 17.8946C21.6134 17.8116 21.7531 17.6839 21.8507 17.5259C21.9483 17.3679 22 17.1858 22 17.0001V4.00012C22 3.82966 21.9564 3.66202 21.8734 3.51314C21.7904 3.36425 21.6707 3.23906 21.5257 3.14943C21.3807 3.05981 21.2152 3.00874 21.0449 3.00106C20.8746 2.99339 20.7052 3.02937 20.5527 3.10559L15 5.88293L9.44727 3.10559C9.30839 3.03615 9.15526 3 9 3C8.84474 3 8.69161 3.03615 8.55273 3.10559ZM9 5.11731L14.5527 7.89465C14.6916 7.96409 14.8447 8.00024 15 8.00024C15.1553 8.00024 15.3084 7.96409 15.4473 7.89465L20 5.61731V16.3829L15 18.8829L9.44727 16.1056C9.30839 16.0361 9.15526 16 9 16C8.84474 16 8.69161 16.0361 8.55273 16.1056L4 18.3829V7.61731L9 5.11731Z" fill="black"/>
<path d="M9 3C8.73478 3 8.48043 3.10536 8.29289 3.29289C8.10536 3.48043 8 3.73478 8 4V17C8 17.2652 8.10536 17.5196 8.29289 17.7071C8.48043 17.8946 8.73478 18 9 18C9.26522 18 9.51957 17.8946 9.70711 17.7071C9.89464 17.5196 10 17.2652 10 17V4C10 3.73478 9.89464 3.48043 9.70711 3.29289C9.51957 3.10536 9.26522 3 9 3Z" fill="black"/>
<path d="M15 6C14.7348 6 14.4804 6.10536 14.2929 6.29289C14.1054 6.48043 14 6.73478 14 7V20C14 20.2652 14.1054 20.5196 14.2929 20.7071C14.4804 20.8946 14.7348 21 15 21C15.2652 21 15.5196 20.8946 15.7071 20.7071C15.8946 20.5196 16 20.2652 16 20V7C16 6.73478 15.8946 6.48043 15.7071 6.29289C15.5196 6.10536 15.2652 6 15 6Z" fill="black"/>
</g>
</g>
<defs>
<clipPath id="clip0_19819_948">
<rect width="24" height="24" fill="white"/>
</clipPath>
</defs>
</svg>
