<?xml version="1.0" encoding="UTF-8" standalone="no"?>
<svg
   width="24"
   height="24"
   viewBox="0 0 24 24"
   fill="none"
   version="1.1"
   id="svg2"
   sodipodi:docname="messages.svg"
   inkscape:version="1.3.2 (091e20e, 2023-11-25)"
   xmlns:inkscape="http://www.inkscape.org/namespaces/inkscape"
   xmlns:sodipodi="http://sodipodi.sourceforge.net/DTD/sodipodi-0.dtd"
   xmlns="http://www.w3.org/2000/svg"
   xmlns:svg="http://www.w3.org/2000/svg">
  <defs
     id="defs2" />
  <sodipodi:namedview
     id="namedview2"
     pagecolor="#505050"
     bordercolor="#eeeeee"
     borderopacity="1"
     inkscape:showpageshadow="0"
     inkscape:pageopacity="0"
     inkscape:pagecheckerboard="0"
     inkscape:deskcolor="#505050"
     inkscape:zoom="9.8333333"
     inkscape:cx="11.949153"
     inkscape:cy="12"
     inkscape:window-width="1504"
     inkscape:window-height="449"
     inkscape:window-x="0"
     inkscape:window-y="25"
     inkscape:window-maximized="0"
     inkscape:current-layer="svg2" />
  <path
     style="color:#000000;fill:#000000;stroke-linecap:round;stroke-linejoin:round;-inkscape-stroke:none"
     d="M 11,2 C 10.469944,2 9.9607983,2.2110167 9.5859375,2.5859375 9.2112842,2.9606708 9,3.4698432 9,4 v 6 c 0,0.530157 0.2111331,1.039258 0.5859375,1.414063 C 9.9607419,11.788867 10.469843,12 11,12 h 6.585937 l 2.707032,2.707031 A 1.0001,1.0001 0 0 0 22,14 V 4 C 22,3.4698432 21.788716,2.9606708 21.414062,2.5859375 21.039202,2.2110167 20.530056,2 20,2 Z m 0,2 h 9 v 7.585938 L 18.707031,10.292969 A 1.0001,1.0001 0 0 0 18,10 h -7 z"
     id="path1" />
  <path
     style="color:#000000;fill:#000000;stroke-linecap:round;stroke-linejoin:round;-inkscape-stroke:none"
     d="M 4,9 C 3.4698432,9 2.9606708,9.2112842 2.5859375,9.5859375 2.2110167,9.9607983 2,10.469944 2,11 v 10 a 1.0001,1.0001 0 0 0 1.7070313,0.707031 L 6.4140625,19 H 13 c 0.530157,0 1.039258,-0.211133 1.414063,-0.585938 C 14.788867,18.039258 15,17.530157 15,17 v -2 a 1,1 0 0 0 -1,-1 1,1 0 0 0 -1,1 v 2 H 6 A 1.0001,1.0001 0 0 0 5.2929687,17.292969 L 4,18.585937 V 11 H 6 A 1,1 0 0 0 7,10 1,1 0 0 0 6,9 Z"
     id="path2" />
</svg>
