<svg width="24" height="24" viewBox="0 0 24 24" fill="none" xmlns="http://www.w3.org/2000/svg">
<g clip-path="url(#clip0_19819_1076)">
<mask id="mask0_19819_1076" style="mask-type:luminance" maskUnits="userSpaceOnUse" x="0" y="0" width="24" height="24">
<path d="M24 0H0V24H24V0Z" fill="white"/>
</mask>
<g mask="url(#mask0_19819_1076)">
<path d="M6 3C4.93952 3 3.92175 3.422 3.17188 4.17188C2.422 4.92175 2 5.93952 2 7V15C2 16.0604 2.42198 17.0782 3.17188 17.8281C3.92173 18.578 4.93949 19 6 19H7V21C7.00013 21.1768 7.04714 21.3504 7.13623 21.5032C7.22533 21.6559 7.35333 21.7823 7.50718 21.8694C7.66103 21.9566 7.83524 22.0014 8.01205 21.9993C8.18886 21.9972 8.36195 21.9482 8.51367 21.8574L13.2773 19H18C19.0605 19 20.0783 18.578 20.8281 17.8281C21.578 17.0783 22 16.0605 22 15V7C22 5.93949 21.578 4.92173 20.8281 4.17188C20.0782 3.42198 19.0604 3 18 3H6ZM6 5H18C18.5308 5 19.0387 5.21062 19.4141 5.58594C19.7894 5.9613 20 6.46921 20 7V15C20 15.5307 19.7894 16.0387 19.4141 16.4141C19.0387 16.7894 18.5307 17 18 17H13C12.819 17.0002 12.6415 17.0495 12.4863 17.1426L9 19.2344V18C8.99997 17.7348 8.89461 17.4805 8.70708 17.2929C8.51955 17.1054 8.26521 17 8 17H6C5.46921 17 4.9613 16.7894 4.58594 16.4141C4.21062 16.0387 4 15.5308 4 15V7C4 6.46918 4.21059 5.96128 4.58594 5.58594C4.96128 5.21059 5.46918 5 6 5Z" fill="black"/>
<path d="M12 7C11.7348 7 11.4804 7.10536 11.2929 7.29289C11.1054 7.48043 11 7.73478 11 8V11C11 11.2652 11.1054 11.5196 11.2929 11.7071C11.4804 11.8946 11.7348 12 12 12C12.2652 12 12.5196 11.8946 12.7071 11.7071C12.8946 11.5196 13 11.2652 13 11V8C13 7.73478 12.8946 7.48043 12.7071 7.29289C12.5196 7.10536 12.2652 7 12 7Z" fill="black"/>
<path d="M12 13C11.7348 13 11.4804 13.1054 11.2929 13.2929C11.1054 13.4804 11 13.7348 11 14V14.0098C11 14.275 11.1054 14.5294 11.2929 14.7169C11.4804 14.9044 11.7348 15.0098 12 15.0098C12.2652 15.0098 12.5196 14.9044 12.7071 14.7169C12.8946 14.5294 13 14.275 13 14.0098V14C13 13.7348 12.8946 13.4804 12.7071 13.2929C12.5196 13.1054 12.2652 13 12 13Z" fill="black"/>
</g>
</g>
<defs>
<clipPath id="clip0_19819_1076">
<rect width="24" height="24" fill="white"/>
</clipPath>
</defs>
</svg>
