<svg width="24" height="24" viewBox="0 0 24 24" fill="none" xmlns="http://www.w3.org/2000/svg">
<g clip-path="url(#clip0_19819_1066)">
<mask id="mask0_19819_1066" style="mask-type:luminance" maskUnits="userSpaceOnUse" x="0" y="0" width="24" height="24">
<path d="M24 0H0V24H24V0Z" fill="white"/>
</mask>
<g mask="url(#mask0_19819_1066)">
<path d="M8 8C7.73478 8 7.48043 8.10536 7.29289 8.29289C7.10536 8.48043 7 8.73478 7 9C7 9.26522 7.10536 9.51957 7.29289 9.70711C7.48043 9.89464 7.73478 10 8 10H16C16.2652 10 16.5196 9.89464 16.7071 9.70711C16.8946 9.51957 17 9.26522 17 9C17 8.73478 16.8946 8.48043 16.7071 8.29289C16.5196 8.10536 16.2652 8 16 8H8Z" fill="black"/>
<path d="M8 12C7.73478 12 7.48043 12.1054 7.29289 12.2929C7.10536 12.4804 7 12.7348 7 13C7 13.2652 7.10536 13.5196 7.29289 13.7071C7.48043 13.8946 7.73478 14 8 14H14C14.2652 14 14.5196 13.8946 14.7071 13.7071C14.8946 13.5196 15 13.2652 15 13C15 12.7348 14.8946 12.4804 14.7071 12.2929C14.5196 12.1054 14.2652 12 14 12H8Z" fill="black"/>
<path d="M6 3C4.93952 3 3.92175 3.422 3.17188 4.17188C2.422 4.92175 2 5.93952 2 7V15C2 16.0604 2.42198 17.0782 3.17188 17.8281C3.92173 18.578 4.93949 19 6 19H7V21C7.00013 21.1768 7.04714 21.3504 7.13623 21.5032C7.22533 21.6559 7.35333 21.7823 7.50718 21.8694C7.66103 21.9566 7.83524 22.0014 8.01205 21.9993C8.18886 21.9972 8.36195 21.9482 8.51367 21.8574L12.5254 19.4512C12.7524 19.3145 12.9158 19.0934 12.9799 18.8363C13.044 18.5793 13.0035 18.3073 12.8672 18.0801C12.7309 17.8528 12.5099 17.6889 12.2528 17.6244C11.9957 17.56 11.7235 17.6002 11.4961 17.7363L9 19.2344V18C8.99997 17.7348 8.89461 17.4805 8.70708 17.2929C8.51955 17.1054 8.26521 17 8 17H6C5.46921 17 4.9613 16.7894 4.58594 16.4141C4.21062 16.0387 4 15.5308 4 15V7C4 6.46918 4.21059 5.96128 4.58594 5.58594C4.96128 5.21059 5.46918 5 6 5H18C18.5308 5 19.0387 5.21062 19.4141 5.58594C19.7894 5.9613 20 6.46921 20 7V12.5C20 12.7652 20.1054 13.0196 20.2929 13.2071C20.4804 13.3946 20.7348 13.5 21 13.5C21.2652 13.5 21.5196 13.3946 21.7071 13.2071C21.8946 13.0196 22 12.7652 22 12.5V7C22 5.93949 21.578 4.92173 20.8281 4.17188C20.0782 3.42198 19.0604 3 18 3H6Z" fill="black"/>
<path d="M16 18C15.7348 18 15.4804 18.1054 15.2929 18.2929C15.1054 18.4804 15 18.7348 15 19C15 19.2652 15.1054 19.5196 15.2929 19.7071C15.4804 19.8946 15.7348 20 16 20H22C22.2652 20 22.5196 19.8946 22.7071 19.7071C22.8946 19.5196 23 19.2652 23 19C23 18.7348 22.8946 18.4804 22.7071 18.2929C22.5196 18.1054 22.2652 18 22 18H16Z" fill="black"/>
<path d="M19 15C18.7348 15 18.4804 15.1054 18.2929 15.2929C18.1054 15.4804 18 15.7348 18 16V22C18 22.2652 18.1054 22.5196 18.2929 22.7071C18.4804 22.8946 18.7348 23 19 23C19.2652 23 19.5196 22.8946 19.7071 22.7071C19.8946 22.5196 20 22.2652 20 22V16C20 15.7348 19.8946 15.4804 19.7071 15.2929C19.5196 15.1054 19.2652 15 19 15Z" fill="black"/>
</g>
</g>
<defs>
<clipPath id="clip0_19819_1066">
<rect width="24" height="24" fill="white"/>
</clipPath>
</defs>
</svg>
