<?xml version="1.0" encoding="UTF-8" standalone="no"?>
<svg
   width="24"
   height="24"
   viewBox="0 0 24 24"
   fill="none"
   version="1.1"
   id="svg5"
   sodipodi:docname="message-up.svg"
   inkscape:version="1.3.2 (091e20e, 2023-11-25)"
   xmlns:inkscape="http://www.inkscape.org/namespaces/inkscape"
   xmlns:sodipodi="http://sodipodi.sourceforge.net/DTD/sodipodi-0.dtd"
   xmlns="http://www.w3.org/2000/svg"
   xmlns:svg="http://www.w3.org/2000/svg">
  <defs
     id="defs5" />
  <sodipodi:namedview
     id="namedview5"
     pagecolor="#505050"
     bordercolor="#eeeeee"
     borderopacity="1"
     inkscape:showpageshadow="0"
     inkscape:pageopacity="0"
     inkscape:pagecheckerboard="0"
     inkscape:deskcolor="#505050"
     inkscape:zoom="9.8333333"
     inkscape:cx="11.949153"
     inkscape:cy="12"
     inkscape:window-width="1504"
     inkscape:window-height="449"
     inkscape:window-x="0"
     inkscape:window-y="25"
     inkscape:window-maximized="0"
     inkscape:current-layer="svg5" />
  <path
     style="color:#000000;fill:#000000;stroke-linecap:round;stroke-linejoin:round;-inkscape-stroke:none"
     d="m 8,8 a 1,1 0 0 0 -1,1 1,1 0 0 0 1,1 h 8 A 1,1 0 0 0 17,9 1,1 0 0 0 16,8 Z"
     id="path1" />
  <path
     style="color:#000000;fill:#000000;stroke-linecap:round;stroke-linejoin:round;-inkscape-stroke:none"
     d="m 8,12 a 1,1 0 0 0 -1,1 1,1 0 0 0 1,1 h 6 a 1,1 0 0 0 1,-1 1,1 0 0 0 -1,-1 z"
     id="path2" />
  <path
     style="color:#000000;fill:#000000;stroke-linecap:round;stroke-linejoin:round;-inkscape-stroke:none"
     d="M 6,3 C 4.9395194,3 3.9217482,3.4220018 3.171875,4.171875 2.4220018,4.9217482 2,5.9395194 2,7 v 8 c 0,1.060447 0.4219777,2.078241 1.171875,2.828125 C 3.9217349,18.577972 4.9394942,19 6,19 h 1 v 2 a 1.0001,1.0001 0 0 0 1.5136719,0.857422 l 3.9902341,-2.394531 a 1,1 0 0 0 0.34375,-1.371094 1,1 0 0 0 -1.373047,-0.34375 L 9,19.234375 V 18 A 1.0001,1.0001 0 0 0 8,17 H 6 C 5.4692074,17 4.9612965,16.789415 4.5859375,16.414062 4.2106159,16.038748 4,15.530751 4,15 V 7 C 4,6.4691822 4.2105918,5.9612832 4.5859375,5.5859375 4.9612832,5.2105918 5.4691822,5 6,5 h 12 c 0.530751,0 1.038748,0.2106159 1.414062,0.5859375 C 19.789415,5.9612965 20,6.4692074 20,7 v 5.5 a 1,1 0 0 0 1,1 1,1 0 0 0 1,-1 V 7 C 22,5.9394942 21.577972,4.9217349 20.828125,4.171875 20.078241,3.4219777 19.060447,3 18,3 Z"
     id="path3" />
  <path
     style="color:#000000;fill:#000000;stroke-linecap:round;stroke-linejoin:round;-inkscape-stroke:none"
     d="m 19,15 a 1,1 0 0 0 -1,1 v 6 a 1,1 0 0 0 1,1 1,1 0 0 0 1,-1 v -6 a 1,1 0 0 0 -1,-1 z"
     id="path4" />
  <path
     style="color:#000000;fill:#000000;stroke-linecap:round;stroke-linejoin:round;-inkscape-stroke:none"
     d="m 18.292969,15.292969 -3,3 a 1,1 0 0 0 0,1.414062 1,1 0 0 0 1.414062,0 L 19,17.414062 l 2.292969,2.292969 a 1,1 0 0 0 1.414062,0 1,1 0 0 0 0,-1.414062 l -3,-3 a 1.0001,1.0001 0 0 0 -1.414062,0 z"
     id="path5" />
</svg>
