<?xml version="1.0" encoding="UTF-8" standalone="no"?>
<svg
   width="24"
   height="24"
   viewBox="0 0 24 24"
   fill="none"
   version="1.1"
   id="svg4"
   sodipodi:docname="message-star.svg"
   inkscape:version="1.3.2 (091e20e, 2023-11-25)"
   xmlns:inkscape="http://www.inkscape.org/namespaces/inkscape"
   xmlns:sodipodi="http://sodipodi.sourceforge.net/DTD/sodipodi-0.dtd"
   xmlns="http://www.w3.org/2000/svg"
   xmlns:svg="http://www.w3.org/2000/svg">
  <defs
     id="defs4" />
  <sodipodi:namedview
     id="namedview4"
     pagecolor="#505050"
     bordercolor="#eeeeee"
     borderopacity="1"
     inkscape:showpageshadow="0"
     inkscape:pageopacity="0"
     inkscape:pagecheckerboard="0"
     inkscape:deskcolor="#505050"
     inkscape:zoom="9.8333333"
     inkscape:cx="11.949153"
     inkscape:cy="12"
     inkscape:window-width="1504"
     inkscape:window-height="449"
     inkscape:window-x="0"
     inkscape:window-y="25"
     inkscape:window-maximized="0"
     inkscape:current-layer="svg4" />
  <path
     style="color:#000000;fill:#000000;stroke-linecap:round;stroke-linejoin:round;-inkscape-stroke:none"
     d="m 8,8 a 1,1 0 0 0 -1,1 1,1 0 0 0 1,1 h 8 A 1,1 0 0 0 17,9 1,1 0 0 0 16,8 Z"
     id="path1" />
  <path
     style="color:#000000;fill:#000000;stroke-linecap:round;stroke-linejoin:round;-inkscape-stroke:none"
     d="m 8,12 a 1,1 0 0 0 -1,1 1,1 0 0 0 1,1 h 4.5 a 1,1 0 0 0 1,-1 1,1 0 0 0 -1,-1 z"
     id="path2" />
  <path
     style="color:#000000;fill:#000000;stroke-linecap:round;stroke-linejoin:round;-inkscape-stroke:none"
     d="M 6,3 C 4.9395194,3 3.9217482,3.4220018 3.171875,4.171875 2.4220018,4.9217482 2,5.9395194 2,7 v 8 c 0,1.060447 0.4219777,2.078241 1.171875,2.828125 C 3.9217349,18.577972 4.9394942,19 6,19 h 1 v 2 a 1.0001,1.0001 0 0 0 1.5136719,0.857422 L 10.839844,20.462891 A 1,1 0 0 0 11.181641,19.089844 1,1 0 0 0 9.8105469,18.748047 L 9,19.234375 V 18 A 1.0001,1.0001 0 0 0 8,17 H 6 C 5.4692074,17 4.9612965,16.789415 4.5859375,16.414062 4.2106159,16.038748 4,15.530751 4,15 V 7 C 4,6.4691822 4.2105918,5.9612832 4.5859375,5.5859375 4.9612832,5.2105918 5.4691822,5 6,5 h 12 c 0.530751,0 1.038748,0.2106159 1.414062,0.5859375 C 19.789415,5.9612965 20,6.4692074 20,7 v 4.5 a 1,1 0 0 0 1,1 1,1 0 0 0 1,-1 V 7 C 22,5.9394942 21.577972,4.9217349 20.828125,4.171875 20.078241,3.4219777 19.060447,3 18,3 Z"
     id="path3" />
  <path
     style="color:#000000;fill:#000000;stroke-linecap:round;stroke-linejoin:round;-inkscape-stroke:none"
     d="m 17.800781,13 c -0.259301,0 -0.513445,0.07162 -0.732422,0.207031 a 1.0001,1.0001 0 0 0 -0.002,0.002 c -0.220779,0.136741 -0.396727,0.331456 -0.511719,0.5625 a 1.0001,1.0001 0 0 0 -0.002,0.002 l -0.853515,1.722656 -1.908203,0.27539 h 0.0078 c -0.257899,0.03567 -0.501864,0.143983 -0.701172,0.310547 -0.19938,0.166923 -0.348825,0.386812 -0.429687,0.634766 -0.08067,0.247852 -0.08933,0.512903 -0.02734,0.763672 a 1.0001,1.0001 0 0 0 0,0.002 c 0.06272,0.252293 0.195333,0.4819 0.380859,0.662109 l 1.378907,1.339844 -0.326172,1.890625 a 1.0001,1.0001 0 0 0 -0.002,0.01172 c -0.04079,0.25433 -0.01097,0.515294 0.08789,0.753906 0.09897,0.238892 0.263411,0.44472 0.472657,0.595703 0.209321,0.151038 0.456013,0.240987 0.71289,0.259766 0.257899,0.01888 0.515984,-0.0358 0.744141,-0.154297 a 1.0001,1.0001 0 0 0 0.002,-0.002 l 1.708984,-0.894532 1.703125,0.892579 0.0039,0.002 c 0.228139,0.119903 0.485298,0.174408 0.744141,0.15625 0.259248,-0.01816 0.508932,-0.107816 0.71875,-0.259766 0.210034,-0.152364 0.372732,-0.36073 0.470703,-0.601562 a 1.0001,1.0001 0 0 0 0.002,-0.002 c 0.09769,-0.24065 0.124363,-0.503344 0.08008,-0.759765 l 0.002,0.002 -0.326172,-1.890625 1.378906,-1.339844 a 1.0001,1.0001 0 0 0 0.002,-0.002 c 0.185779,-0.1815 0.317204,-0.4114 0.378906,-0.662109 0.0621,-0.252318 0.05309,-0.51738 -0.02734,-0.763672 -0.08021,-0.245585 -0.228037,-0.465324 -0.427735,-0.632813 -0.19749,-0.165934 -0.437928,-0.275335 -0.695312,-0.3125 h -0.002 l -1.90625,-0.27539 -0.853516,-1.722656 a 1.0001,1.0001 0 0 0 0,-0.002 C 18.932101,13.540877 18.753786,13.345708 18.533203,13.208984 18.313404,13.072851 18.060238,13 17.800781,13 Z m 0,2.761719 0.541016,1.091797 a 1.0001,1.0001 0 0 0 0.751953,0.546875 l 1.201172,0.173828 -0.867188,0.841797 a 1.0001,1.0001 0 0 0 -0.289062,0.886718 l 0.205078,1.19336 -1.080078,-0.564453 a 1.0001,1.0001 0 0 0 -0.927735,0 l -1.080078,0.566406 0.205078,-1.195313 a 1.0001,1.0001 0 0 0 -0.289062,-0.886718 l -0.867187,-0.841797 1.201171,-0.173828 a 1.0001,1.0001 0 0 0 0.753907,-0.546875 z"
     id="path4" />
</svg>
