<svg width="24" height="24" viewBox="0 0 24 24" fill="none" xmlns="http://www.w3.org/2000/svg">
<g clip-path="url(#clip0_19819_1094)">
<mask id="mask0_19819_1094" style="mask-type:luminance" maskUnits="userSpaceOnUse" x="0" y="0" width="24" height="24">
<path d="M24 0H0V24H24V0Z" fill="white"/>
</mask>
<g mask="url(#mask0_19819_1094)">
<path d="M8 8C7.73478 8 7.48043 8.10536 7.29289 8.29289C7.10536 8.48043 7 8.73478 7 9C7 9.26522 7.10536 9.51957 7.29289 9.70711C7.48043 9.89464 7.73478 10 8 10H16C16.2652 10 16.5196 9.89464 16.7071 9.70711C16.8946 9.51957 17 9.26522 17 9C17 8.73478 16.8946 8.48043 16.7071 8.29289C16.5196 8.10536 16.2652 8 16 8H8Z" fill="black"/>
<path d="M8 12C7.73478 12 7.48043 12.1054 7.29289 12.2929C7.10536 12.4804 7 12.7348 7 13C7 13.2652 7.10536 13.5196 7.29289 13.7071C7.48043 13.8946 7.73478 14 8 14H14C14.2652 14 14.5196 13.8946 14.7071 13.7071C14.8946 13.5196 15 13.2652 15 13C15 12.7348 14.8946 12.4804 14.7071 12.2929C14.5196 12.1054 14.2652 12 14 12H8Z" fill="black"/>
<path d="M6 3C4.93952 3 3.92175 3.422 3.17188 4.17188C2.422 4.92175 2 5.93952 2 7V15C2 16.0604 2.42198 17.0782 3.17188 17.8281C3.92173 18.578 4.93949 19 6 19H7V21C7.00013 21.1768 7.04714 21.3504 7.13623 21.5032C7.22533 21.6559 7.35333 21.7823 7.50718 21.8694C7.66103 21.9566 7.83524 22.0014 8.01205 21.9993C8.18886 21.9972 8.36195 21.9482 8.51367 21.8574L13.5137 18.8574C13.741 18.7211 13.9049 18.5001 13.9693 18.243C14.0338 17.9859 13.9935 17.7138 13.8574 17.4863C13.7211 17.259 13.5001 17.0951 13.243 17.0307C12.9859 16.9662 12.7138 17.0065 12.4863 17.1426L9 19.2344V18C8.99997 17.7348 8.89461 17.4805 8.70708 17.2929C8.51955 17.1054 8.26521 17 8 17H6C5.46921 17 4.9613 16.7894 4.58594 16.4141C4.21062 16.0387 4 15.5308 4 15V7C4 6.46918 4.21059 5.96128 4.58594 5.58594C4.96128 5.21059 5.46918 5 6 5H18C18.5308 5 19.0387 5.21062 19.4141 5.58594C19.7894 5.9613 20 6.46921 20 7V13C20 13.2652 20.1054 13.5196 20.2929 13.7071C20.4804 13.8946 20.7348 14 21 14C21.2652 14 21.5196 13.8946 21.7071 13.7071C21.8946 13.5196 22 13.2652 22 13V7C22 5.93949 21.578 4.92173 20.8281 4.17188C20.0782 3.42198 19.0604 3 18 3H6Z" fill="black"/>
<path d="M16.293 16.2931C16.1055 16.4806 16.0002 16.7349 16.0002 17.0001C16.0002 17.2653 16.1055 17.5196 16.293 17.7071L21.293 22.7071C21.4805 22.8946 21.7348 22.9999 22 22.9999C22.2652 22.9999 22.5195 22.8946 22.707 22.7071C22.8945 22.5196 22.9999 22.2653 22.9999 22.0001C22.9999 21.7349 22.8945 21.4806 22.707 21.2931L17.707 16.2931C17.5195 16.1056 17.2652 16.0002 17 16.0002C16.7348 16.0002 16.4805 16.1056 16.293 16.2931Z" fill="black"/>
<path d="M21.293 16.2931L16.293 21.2931C16.1055 21.4806 16.0002 21.7349 16.0002 22.0001C16.0002 22.2653 16.1055 22.5196 16.293 22.7071C16.4805 22.8946 16.7348 22.9999 17 22.9999C17.2652 22.9999 17.5195 22.8946 17.707 22.7071L22.707 17.7071C22.8945 17.5196 22.9999 17.2653 22.9999 17.0001C22.9999 16.7349 22.8945 16.4806 22.707 16.2931C22.5195 16.1056 22.2652 16.0002 22 16.0002C21.7348 16.0002 21.4805 16.1056 21.293 16.2931Z" fill="black"/>
</g>
</g>
<defs>
<clipPath id="clip0_19819_1094">
<rect width="24" height="24" fill="white"/>
</clipPath>
</defs>
</svg>
