<?xml version="1.0" encoding="UTF-8" standalone="no"?>
<svg
   width="24"
   height="24"
   viewBox="0 0 24 24"
   fill="none"
   version="1.1"
   id="svg10"
   sodipodi:docname="message-cog.svg"
   inkscape:version="1.3.2 (091e20e, 2023-11-25)"
   xmlns:inkscape="http://www.inkscape.org/namespaces/inkscape"
   xmlns:sodipodi="http://sodipodi.sourceforge.net/DTD/sodipodi-0.dtd"
   xmlns="http://www.w3.org/2000/svg"
   xmlns:svg="http://www.w3.org/2000/svg">
  <defs
     id="defs10" />
  <sodipodi:namedview
     id="namedview10"
     pagecolor="#505050"
     bordercolor="#eeeeee"
     borderopacity="1"
     inkscape:showpageshadow="0"
     inkscape:pageopacity="0"
     inkscape:pagecheckerboard="0"
     inkscape:deskcolor="#505050"
     inkscape:zoom="9.8333333"
     inkscape:cx="11.949153"
     inkscape:cy="12"
     inkscape:window-width="1504"
     inkscape:window-height="449"
     inkscape:window-x="0"
     inkscape:window-y="25"
     inkscape:window-maximized="0"
     inkscape:current-layer="svg10" />
  <path
     style="color:#000000;fill:#000000;stroke-linecap:round;stroke-linejoin:round;-inkscape-stroke:none"
     d="m 8,8 a 1,1 0 0 0 -1,1 1,1 0 0 0 1,1 h 8 A 1,1 0 0 0 17,9 1,1 0 0 0 16,8 Z"
     id="path1" />
  <path
     style="color:#000000;fill:#000000;stroke-linecap:round;stroke-linejoin:round;-inkscape-stroke:none"
     d="m 8,12 a 1,1 0 0 0 -1,1 1,1 0 0 0 1,1 h 6 a 1,1 0 0 0 1,-1 1,1 0 0 0 -1,-1 z"
     id="path2" />
  <path
     style="color:#000000;fill:#000000;stroke-linecap:round;stroke-linejoin:round;-inkscape-stroke:none"
     d="M 6,3 C 4.9395194,3 3.9217482,3.4220018 3.171875,4.171875 2.4220018,4.9217482 2,5.9395194 2,7 v 8 c 0,1.060447 0.4219777,2.078241 1.171875,2.828125 C 3.9217349,18.577972 4.9394942,19 6,19 h 1 v 2 a 1.0001,1.0001 0 0 0 1.5136719,0.857422 L 12.544922,19.4375 a 1,1 0 0 0 0.34375,-1.371094 1,1 0 0 0 -1.373047,-0.34375 L 9,19.234375 V 18 A 1.0001,1.0001 0 0 0 8,17 H 6 C 5.4692074,17 4.9612965,16.789415 4.5859375,16.414062 4.2106159,16.038748 4,15.530751 4,15 V 7 C 4,6.4691822 4.2105918,5.9612832 4.5859375,5.5859375 4.9612832,5.2105918 5.4691822,5 6,5 h 12 c 0.530751,0 1.038748,0.2106159 1.414062,0.5859375 C 19.789415,5.9612965 20,6.4692074 20,7 v 5 a 1,1 0 0 0 1,1 1,1 0 0 0 1,-1 V 7 C 22,5.9394942 21.577972,4.9217349 20.828125,4.171875 20.078241,3.4219777 19.060447,3 18,3 Z"
     id="path3" />
  <path
     style="color:#000000;fill:#000000;stroke-linecap:round;stroke-linejoin:round;-inkscape-stroke:none"
     d="m 19.001953,16 c -0.795281,0 -1.560732,0.316442 -2.123047,0.878906 C 16.316552,17.44126 16.001953,18.204769 16.001953,19 c 0,0.795231 0.314599,1.55874 0.876953,2.121094 C 17.441221,21.683558 18.206672,22 19.001953,22 c 0.795231,0 1.55874,-0.316552 2.121094,-0.878906 C 21.685401,20.55874 22.001953,19.795231 22.001953,19 c 0,-0.795231 -0.316552,-1.55874 -0.878906,-2.121094 C 20.560693,16.316552 19.797184,16 19.001953,16 Z m 0,2 c 0.265568,0 0.519186,0.105124 0.707031,0.292969 0.187845,0.187845 0.292969,0.441463 0.292969,0.707031 0,0.265568 -0.105124,0.519186 -0.292969,0.707031 C 19.521139,19.894876 19.267521,20 19.001953,20 18.736235,20 18.482607,19.894766 18.294922,19.707031 a 1.0001,1.0001 0 0 0 -0.002,0 C 18.105124,19.519186 18.001953,19.265568 18.001953,19 c 0,-0.265568 0.103171,-0.519186 0.291016,-0.707031 a 1.0001,1.0001 0 0 0 0.002,0 C 18.482607,18.105234 18.736235,18 19.001953,18 Z"
     id="path4" />
  <path
     style="color:#000000;fill:#000000;stroke-linecap:round;stroke-linejoin:round;-inkscape-stroke:none"
     d="m 19.001953,14.5 a 1,1 0 0 0 -1,1 V 17 a 1,1 0 0 0 1,1 1,1 0 0 0 1,-1 v -1.5 a 1,1 0 0 0 -1,-1 z"
     id="path5" />
  <path
     style="color:#000000;fill:#000000;stroke-linecap:round;stroke-linejoin:round;-inkscape-stroke:none"
     d="m 19.001953,20 a 1,1 0 0 0 -1,1 v 1.5 a 1,1 0 0 0 1,1 1,1 0 0 0 1,-1 V 21 a 1,1 0 0 0 -1,-1 z"
     id="path6" />
  <path
     style="color:#000000;fill:#000000;stroke-linecap:round;stroke-linejoin:round;-inkscape-stroke:none"
     d="m 22.291016,16.283203 a 1,1 0 0 0 -0.759766,0.101563 l -1.298828,0.75 A 1,1 0 0 0 19.867187,18.5 a 1,1 0 0 0 1.365235,0.365234 l 1.298828,-0.75 A 1,1 0 0 0 22.898437,16.75 1,1 0 0 0 22.291016,16.283203 Z"
     id="path7" />
  <path
     style="color:#000000;fill:#000000;stroke-linecap:round;stroke-linejoin:round;-inkscape-stroke:none"
     d="m 17.529297,19.033203 a 1,1 0 0 0 -0.759766,0.101563 l -1.298828,0.75 A 1,1 0 0 0 15.103516,21.25 1,1 0 0 0 16.46875,21.615234 l 1.300781,-0.75 A 1,1 0 0 0 18.136719,19.5 1,1 0 0 0 17.529297,19.033203 Z"
     id="path8" />
  <path
     style="color:#000000;fill:#000000;stroke-linecap:round;stroke-linejoin:round;-inkscape-stroke:none"
     d="M 16.46875,16.384766 A 1,1 0 0 0 15.103516,16.75 a 1,1 0 0 0 0.367187,1.365234 l 1.298828,0.75 A 1,1 0 0 0 18.136719,18.5 1,1 0 0 0 17.769531,17.134766 Z"
     id="path9" />
  <path
     style="color:#000000;fill:#000000;stroke-linecap:round;stroke-linejoin:round;-inkscape-stroke:none"
     d="M 20.474609,19.033203 A 1,1 0 0 0 19.867187,19.5 a 1,1 0 0 0 0.365235,1.365234 l 1.300781,0.75 A 1,1 0 0 0 22.898437,21.25 1,1 0 0 0 22.533203,19.884766 l -1.300781,-0.75 a 1,1 0 0 0 -0.757813,-0.101563 z"
     id="path10" />
</svg>
