<?xml version="1.0" encoding="UTF-8" standalone="no"?>
<svg
   width="24"
   height="24"
   viewBox="0 0 24 24"
   fill="none"
   version="1.1"
   id="svg4"
   sodipodi:docname="message-heart.svg"
   inkscape:version="1.3.2 (091e20e, 2023-11-25)"
   xmlns:inkscape="http://www.inkscape.org/namespaces/inkscape"
   xmlns:sodipodi="http://sodipodi.sourceforge.net/DTD/sodipodi-0.dtd"
   xmlns="http://www.w3.org/2000/svg"
   xmlns:svg="http://www.w3.org/2000/svg">
  <defs
     id="defs4" />
  <sodipodi:namedview
     id="namedview4"
     pagecolor="#505050"
     bordercolor="#eeeeee"
     borderopacity="1"
     inkscape:showpageshadow="0"
     inkscape:pageopacity="0"
     inkscape:pagecheckerboard="0"
     inkscape:deskcolor="#505050"
     inkscape:zoom="9.8333333"
     inkscape:cx="11.949153"
     inkscape:cy="12"
     inkscape:window-width="1504"
     inkscape:window-height="449"
     inkscape:window-x="0"
     inkscape:window-y="25"
     inkscape:window-maximized="0"
     inkscape:current-layer="svg4" />
  <path
     style="color:#000000;fill:#000000;stroke-linecap:round;stroke-linejoin:round;-inkscape-stroke:none"
     d="m 8,8 a 1,1 0 0 0 -1,1 1,1 0 0 0 1,1 h 8 A 1,1 0 0 0 17,9 1,1 0 0 0 16,8 Z"
     id="path1" />
  <path
     style="color:#000000;fill:#000000;stroke-linecap:round;stroke-linejoin:round;-inkscape-stroke:none"
     d="m 8,12 a 1,1 0 0 0 -1,1 1,1 0 0 0 1,1 h 3.5 a 1,1 0 0 0 1,-1 1,1 0 0 0 -1,-1 z"
     id="path2" />
  <path
     style="color:#000000;fill:#000000;stroke-linecap:round;stroke-linejoin:round;-inkscape-stroke:none"
     d="M 6,3 C 4.9395194,3 3.9217482,3.4220018 3.171875,4.171875 2.4220018,4.9217482 2,5.9395194 2,7 v 8 c 0,1.060447 0.4219777,2.078241 1.171875,2.828125 C 3.9217349,18.577972 4.9394942,19 6,19 h 1 v 2 a 1.0001,1.0001 0 0 0 1.5136719,0.857422 l 2.4804691,-1.488281 a 1,1 0 0 0 0.34375,-1.371094 1,1 0 0 0 -1.3730472,-0.34375 L 9,19.234375 V 18 A 1.0001,1.0001 0 0 0 8,17 H 6 C 5.4692074,17 4.9612965,16.789415 4.5859375,16.414062 4.2106159,16.038748 4,15.530751 4,15 V 7 C 4,6.4691822 4.2105918,5.9612832 4.5859375,5.5859375 4.9612832,5.2105918 5.4691822,5 6,5 h 12 c 0.530751,0 1.038748,0.2106159 1.414062,0.5859375 C 19.789415,5.9612965 20,6.4692074 20,7 v 4 a 1,1 0 0 0 1,1 1,1 0 0 0 1,-1 V 7 C 22,5.9394942 21.577972,4.9217349 20.828125,4.171875 20.078241,3.4219777 19.060447,3 18,3 Z"
     id="path3" />
  <path
     style="color:#000000;fill:#000000;stroke-linecap:round;stroke-linejoin:round;-inkscape-stroke:none"
     d="m 16.21875,14 c -0.844448,-0.0016 -1.657492,0.328192 -2.263672,0.916016 -0.301304,0.292213 -0.541064,0.640781 -0.705078,1.027343 -0.164189,0.386629 -0.249266,0.80274 -0.25,1.222657 -8.8e-4,0.419944 0.0816,0.835532 0.244141,1.222656 0.162205,0.386481 0.4001,0.736391 0.699218,1.029297 l 3.355469,3.294922 a 1.0001,1.0001 0 0 0 1.400391,0.002 l 3.347656,-3.28125 c 0.301327,-0.292378 0.541182,-0.642865 0.705078,-1.029297 0.163842,-0.386502 0.247314,-0.801019 0.248047,-1.220703 7.33e-4,-0.419947 -0.08151,-0.835651 -0.244141,-1.222656 -0.162609,-0.387095 -0.402708,-0.737875 -0.703125,-1.03125 -0.603797,-0.589679 -1.415449,-0.92224 -2.259765,-0.923829 -0.594139,-0.0011 -1.090019,0.343522 -1.591797,0.644532 l 0.273437,0.271484 c -0.125855,-0.122681 -0.328463,-0.0918 -0.470703,-0.191406 -0.143589,0.09984 -0.347569,0.06812 -0.474609,0.191406 l 0.277344,-0.273437 C 17.306435,14.34626 16.812061,14.001117 16.21875,14 Z m -0.0039,2 c 0.32411,6.1e-4 0.633566,0.12706 0.865234,0.353516 l 0.21875,0.216796 a 1.0001,1.0001 0 0 0 1.404297,0.002 l 0.21875,-0.214844 c 0.232587,-0.225711 0.543031,-0.352173 0.867187,-0.351563 0.324057,6.1e-4 0.635326,0.126814 0.867188,0.353516 a 1.0001,1.0001 0 0 0 0,0.002 c 0.109183,0.106624 0.196669,0.234095 0.255859,0.375 0.05917,0.140794 0.08816,0.290707 0.08789,0.443359 -2.67e-4,0.152716 -0.03029,0.304816 -0.08984,0.445313 -0.0597,0.140767 -0.146386,0.266825 -0.255859,0.373047 a 1.0001,1.0001 0 0 0 -0.0039,0.0039 L 18,20.599609 15.345703,17.990234 a 1.0001,1.0001 0 0 0 -0.002,-0.002 c -0.109362,-0.106904 -0.194865,-0.234324 -0.253906,-0.375 C 15.03078,17.472606 14.99968,17.322577 15,17.169922 c 2.66e-4,-0.152483 0.03023,-0.304941 0.08984,-0.445313 0.05959,-0.140436 0.148117,-0.26666 0.257812,-0.373047 C 15.580276,16.125987 15.890893,15.99939 16.214844,16 Z"
     id="path4" />
</svg>
