<svg width="24" height="24" viewBox="0 0 24 24" fill="none" xmlns="http://www.w3.org/2000/svg">
<g clip-path="url(#clip0_19819_1084)">
<mask id="mask0_19819_1084" style="mask-type:luminance" maskUnits="userSpaceOnUse" x="0" y="0" width="24" height="24">
<path d="M24 0H0V24H24V0Z" fill="white"/>
</mask>
<g mask="url(#mask0_19819_1084)">
<path d="M8 8C7.73478 8 7.48043 8.10536 7.29289 8.29289C7.10536 8.48043 7 8.73478 7 9C7 9.26522 7.10536 9.51957 7.29289 9.70711C7.48043 9.89464 7.73478 10 8 10H16C16.2652 10 16.5196 9.89464 16.7071 9.70711C16.8946 9.51957 17 9.26522 17 9C17 8.73478 16.8946 8.48043 16.7071 8.29289C16.5196 8.10536 16.2652 8 16 8H8Z" fill="black"/>
<path d="M8 12C7.73478 12 7.48043 12.1054 7.29289 12.2929C7.10536 12.4804 7 12.7348 7 13C7 13.2652 7.10536 13.5196 7.29289 13.7071C7.48043 13.8946 7.73478 14 8 14H13C13.2652 14 13.5196 13.8946 13.7071 13.7071C13.8946 13.5196 14 13.2652 14 13C14 12.7348 13.8946 12.4804 13.7071 12.2929C13.5196 12.1054 13.2652 12 13 12H8Z" fill="black"/>
<path d="M6 3C4.93952 3 3.92175 3.422 3.17188 4.17188C2.422 4.92175 2 5.93952 2 7V15C2 16.0604 2.42198 17.0782 3.17188 17.8281C3.92173 18.578 4.93949 19 6 19H7V21C7.00013 21.1768 7.04714 21.3504 7.13623 21.5032C7.22533 21.6559 7.35333 21.7823 7.50718 21.8694C7.66103 21.9566 7.83524 22.0014 8.01205 21.9993C8.18886 21.9972 8.36195 21.9482 8.51367 21.8574L11.5234 20.0527C11.6361 19.9851 11.7343 19.8959 11.8125 19.7902C11.8906 19.6846 11.9472 19.5646 11.9789 19.4371C12.0107 19.3095 12.017 19.177 11.9974 19.0471C11.9779 18.9171 11.933 18.7923 11.8652 18.6797C11.7286 18.4527 11.5075 18.2892 11.2504 18.2252C10.9933 18.1611 10.7213 18.2016 10.4941 18.3379L9 19.2344V18C8.99997 17.7348 8.89461 17.4805 8.70708 17.2929C8.51955 17.1054 8.26521 17 8 17H6C5.46921 17 4.9613 16.7894 4.58594 16.4141C4.21062 16.0387 4 15.5308 4 15V7C4 6.46918 4.21059 5.96128 4.58594 5.58594C4.96128 5.21059 5.46918 5 6 5H18C18.5308 5 19.0387 5.21062 19.4141 5.58594C19.7894 5.9613 20 6.46921 20 7V11.5C20 11.7652 20.1054 12.0196 20.2929 12.2071C20.4804 12.3946 20.7348 12.5 21 12.5C21.2652 12.5 21.5196 12.3946 21.7071 12.2071C21.8946 12.0196 22 11.7652 22 11.5V7C22 5.93949 21.578 4.92173 20.8281 4.17188C20.0782 3.42198 19.0604 3 18 3H6Z" fill="black"/>
<path d="M18 14C16.9395 14 15.9217 14.422 15.1719 15.1719C14.422 15.9217 14 16.9395 14 18C14 19.0605 14.422 20.0783 15.1719 20.8281C15.9217 21.578 16.9395 22 18 22C19.0605 22 20.0783 21.578 20.8281 20.8281C21.578 20.0783 22 19.0605 22 18C22 16.9395 21.578 15.9217 20.8281 15.1719C20.0783 14.422 19.0605 14 18 14ZM18 16C18.5307 16 19.0387 16.2106 19.4141 16.5859C19.7894 16.9613 20 17.4693 20 18C20 18.5307 19.7894 19.0387 19.4141 19.4141C19.0387 19.7894 18.5307 20 18 20C17.4693 20 16.9613 19.7894 16.5859 19.4141C16.2106 19.0387 16 18.5307 16 18C16 17.4693 16.2106 16.9613 16.5859 16.5859C16.9613 16.2106 17.4693 16 18 16Z" fill="black"/>
<path d="M19.4922 19.4923C19.3047 19.6798 19.1993 19.9341 19.1993 20.1993C19.1993 20.4645 19.3047 20.7188 19.4922 20.9063L21.2929 22.7071C21.4805 22.8946 21.7348 22.9999 22 22.9999C22.2652 22.9999 22.5195 22.8946 22.707 22.7071C22.8945 22.5196 22.9998 22.2653 22.9998 22.0001C22.9998 21.7349 22.8945 21.4806 22.707 21.2931L20.9082 19.4923C20.8153 19.3992 20.7049 19.3253 20.5834 19.2749C20.4619 19.2244 20.3317 19.1985 20.2002 19.1985C20.0686 19.1985 19.9384 19.2244 19.8169 19.2749C19.6954 19.3253 19.5851 19.3992 19.4922 19.4923Z" fill="black"/>
</g>
</g>
<defs>
<clipPath id="clip0_19819_1084">
<rect width="24" height="24" fill="white"/>
</clipPath>
</defs>
</svg>
