<svg width="24" height="24" viewBox="0 0 24 24" fill="none" xmlns="http://www.w3.org/2000/svg">
<g clip-path="url(#clip0_19819_1139)">
<mask id="mask0_19819_1139" style="mask-type:luminance" maskUnits="userSpaceOnUse" x="0" y="0" width="24" height="24">
<path d="M24 0H0V24H24V0Z" fill="white"/>
</mask>
<g mask="url(#mask0_19819_1139)">
<path d="M15 7C14.7348 7 14.4804 7.10536 14.2929 7.29289C14.1054 7.48043 14 7.73478 14 8C14 8.26522 14.1054 8.51957 14.2929 8.70711C14.4804 8.89464 14.7348 9 15 9H15.0098C15.275 9 15.5294 8.89464 15.7169 8.70711C15.9044 8.51957 16.0098 8.26522 16.0098 8C16.0098 7.73478 15.9044 7.48043 15.7169 7.29289C15.5294 7.10536 15.275 7 15.0098 7H15Z" fill="black"/>
<path d="M7 3C5.93952 3 4.92175 3.422 4.17188 4.17188C3.422 4.92175 3 5.93952 3 7V17C3 18.0604 3.42198 19.0782 4.17188 19.8281C4.92173 20.578 5.93949 21 7 21H11C11.2652 21 11.5196 20.8946 11.7071 20.7071C11.8946 20.5196 12 20.2652 12 20C12 19.7348 11.8946 19.4804 11.7071 19.2929C11.5196 19.1054 11.2652 19 11 19H7C6.46921 19 5.9613 18.7894 5.58594 18.4141C5.21062 18.0387 5 17.5308 5 17V7C5 6.46918 5.21059 5.96128 5.58594 5.58594C5.96128 5.21059 6.46918 5 7 5H17C17.5308 5 18.0387 5.21062 18.4141 5.58594C18.7894 5.9613 19 6.46921 19 7V11C19 11.2652 19.1054 11.5196 19.2929 11.7071C19.4804 11.8946 19.7348 12 20 12C20.2652 12 20.5196 11.8946 20.7071 11.7071C20.8946 11.5196 21 11.2652 21 11V7C21 5.93949 20.578 4.92173 19.8281 4.17188C19.0782 3.42198 18.0604 3 17 3H7Z" fill="black"/>
<path d="M9.49997 9.33008C8.69465 9.33008 7.91855 9.69044 7.30661 10.2793C7.30201 10.2838 7.29745 10.2884 7.29294 10.293L3.29294 14.293C3.10545 14.4805 3.00012 14.7348 3.00012 15C3.00012 15.2652 3.10545 15.5195 3.29294 15.707C3.48047 15.8945 3.73479 15.9998 3.99997 15.9998C4.26515 15.9998 4.51947 15.8945 4.707 15.707L8.69333 11.7207C9.00939 11.4166 9.26929 11.3301 9.49997 11.3301C9.73065 11.3301 9.99055 11.4166 10.3066 11.7207L13.2929 14.707C13.4805 14.8945 13.7348 14.9998 14 14.9998C14.2652 14.9998 14.5195 14.8945 14.707 14.707C14.8945 14.5195 14.9998 14.2652 14.9998 14C14.9998 13.7348 14.8945 13.4805 14.707 13.293L11.707 10.293C11.7025 10.2884 11.6979 10.2838 11.6933 10.2793C11.0814 9.69044 10.3053 9.33008 9.49997 9.33008Z" fill="black"/>
<path d="M15.709 11.4436C15.1892 11.5936 14.715 11.8869 14.3067 12.2795C14.3021 12.284 14.2975 12.2886 14.293 12.2932L13.293 13.2932C13.1055 13.4807 13.0002 13.735 13.0002 14.0002C13.0002 14.2654 13.1055 14.5197 13.293 14.7072C13.4805 14.8947 13.7349 15 14 15C14.2652 15 14.5195 14.8947 14.7071 14.7072L15.6934 13.7209C15.905 13.5175 16.0976 13.4134 16.2637 13.3654C16.3899 13.329 16.5077 13.2681 16.6104 13.1862C16.713 13.1042 16.7985 13.0029 16.862 12.8879C16.9255 12.7729 16.9657 12.6465 16.9803 12.516C16.995 12.3855 16.9837 12.2533 16.9473 12.1272C16.9109 12.0009 16.85 11.8832 16.7681 11.7805C16.6861 11.6778 16.5848 11.5923 16.4698 11.5288C16.3548 11.4654 16.2284 11.4252 16.0979 11.4105C15.9673 11.3959 15.8352 11.4071 15.709 11.4436Z" fill="black"/>
<path d="M19.9043 13.9941C19.4972 13.9941 19.0948 14.0748 18.7188 14.2305C18.3427 14.3863 18.0007 14.6145 17.7129 14.9023L14.2969 18.2891C14.2028 18.3821 14.1282 18.4928 14.0772 18.6148C14.0263 18.7368 14 18.8678 14 19V22C14 22.2652 14.1054 22.5195 14.2929 22.7071C14.4805 22.8946 14.7348 23 15 23H18C18.1322 23 18.2632 22.9737 18.3852 22.9228C18.5072 22.8718 18.6179 22.7972 18.7109 22.7031L22.0977 19.2871L22.0997 19.2832C22.386 18.996 22.6144 18.6561 22.7696 18.2813C22.9255 17.905 23.0059 17.5028 23.0059 17.0957C23.0059 16.6887 22.9255 16.2845 22.7696 15.9082C22.6138 15.532 22.3855 15.1902 22.0977 14.9024C21.8099 14.6145 21.4678 14.3863 21.0918 14.2305C20.7158 14.0748 20.3114 13.9941 19.9043 13.9941ZM19.9043 15.9941C20.0488 15.9941 20.1927 16.0229 20.3262 16.0781C20.4598 16.1335 20.5814 16.2142 20.6836 16.3164C20.7858 16.4186 20.8667 16.5405 20.9219 16.6738C20.9771 16.8072 21.0059 16.9512 21.0059 17.0957C21.0059 17.2402 20.9771 17.3823 20.9219 17.5156C20.8667 17.649 20.7858 17.7709 20.6836 17.873C20.6823 17.8743 20.681 17.8756 20.6797 17.8769L17.584 21H16V19.416L19.123 16.3203C19.1244 16.319 19.1257 16.3177 19.1269 16.3164C19.2291 16.2142 19.3508 16.1335 19.4844 16.0781C19.6179 16.0229 19.7598 15.9941 19.9043 15.9941Z" fill="black"/>
</g>
</g>
<defs>
<clipPath id="clip0_19819_1139">
<rect width="24" height="24" fill="white"/>
</clipPath>
</defs>
</svg>
