<svg width="24" height="24" viewBox="0 0 24 24" fill="none" xmlns="http://www.w3.org/2000/svg">
<g clip-path="url(#clip0_19819_1193)">
<mask id="mask0_19819_1193" style="mask-type:luminance" maskUnits="userSpaceOnUse" x="0" y="0" width="24" height="24">
<path d="M24 0H0V24H24V0Z" fill="white"/>
</mask>
<g mask="url(#mask0_19819_1193)">
<path d="M15 7C14.7348 7 14.4804 7.10536 14.2929 7.29289C14.1054 7.48043 14 7.73478 14 8C14 8.26522 14.1054 8.51957 14.2929 8.70711C14.4804 8.89464 14.7348 9 15 9H15.0098C15.275 9 15.5294 8.89464 15.7169 8.70711C15.9044 8.51957 16.0098 8.26522 16.0098 8C16.0098 7.73478 15.9044 7.48043 15.7169 7.29289C15.5294 7.10536 15.275 7 15.0098 7H15Z" fill="black"/>
<path d="M6 2C4.93952 2 3.92175 2.422 3.17188 3.17188C2.422 3.92175 2 4.93952 2 6V18C2 19.0604 2.42198 20.0782 3.17188 20.8281C3.92173 21.578 4.93949 22 6 22H12.5C12.7652 22 13.0196 21.8946 13.2071 21.7071C13.3946 21.5196 13.5 21.2652 13.5 21C13.5 20.7348 13.3946 20.4804 13.2071 20.2929C13.0196 20.1054 12.7652 20 12.5 20H6C5.46921 20 4.9613 19.7894 4.58594 19.4141C4.21062 19.0387 4 18.5308 4 18V6C4 5.46918 4.21059 4.96128 4.58594 4.58594C4.96128 4.21059 5.46918 4 6 4H18C18.5308 4 19.0387 4.21062 19.4141 4.58594C19.7894 4.9613 20 5.46921 20 6V12.5C20 12.7652 20.1054 13.0196 20.2929 13.2071C20.4804 13.3946 20.7348 13.5 21 13.5C21.2652 13.5 21.5196 13.3946 21.7071 13.2071C21.8946 13.0196 22 12.7652 22 12.5V6C22 4.93949 21.578 3.92173 20.8281 3.17188C20.0782 2.42198 19.0604 2 18 2H6Z" fill="black"/>
<path d="M9.49997 9.33008C8.69465 9.33008 7.91855 9.69044 7.30661 10.2793C7.30201 10.2838 7.29745 10.2884 7.29294 10.293L2.29294 15.293C2.10545 15.4805 2.00012 15.7348 2.00012 16C2.00012 16.2652 2.10545 16.5195 2.29294 16.707C2.48047 16.8945 2.73479 16.9998 2.99997 16.9998C3.26515 16.9998 3.51947 16.8945 3.707 16.707L8.69333 11.7207C9.00939 11.4166 9.26929 11.3301 9.49997 11.3301C9.73065 11.3301 9.99055 11.4166 10.3066 11.7207L14.2929 15.707C14.4805 15.8945 14.7348 15.9998 15 15.9998C15.2652 15.9998 15.5195 15.8945 15.707 15.707C15.8945 15.5195 15.9998 15.2652 15.9998 15C15.9998 14.7348 15.8945 14.4805 15.707 14.293L11.707 10.293C11.7025 10.2884 11.6979 10.2838 11.6933 10.2793C11.0814 9.69044 10.3053 9.33008 9.49997 9.33008Z" fill="black"/>
<path d="M15.8477 11.4277C15.2848 11.5623 14.7479 11.8551 14.3067 12.2792C14.3021 12.2838 14.2975 12.2883 14.293 12.2929L13.293 13.2929C13.1055 13.4804 13.0002 13.7348 13.0002 13.9999C13.0002 14.2651 13.1055 14.5194 13.293 14.707C13.4805 14.8945 13.7349 14.9998 14 14.9998C14.2652 14.9998 14.5195 14.8945 14.7071 14.707L15.6934 13.7206C16.151 13.2808 16.4445 13.2467 16.8203 13.3925C16.9428 13.4402 17.0735 13.4632 17.2048 13.4603C17.3362 13.4575 17.4657 13.4287 17.586 13.3758C17.7063 13.3228 17.8149 13.2466 17.9057 13.1517C17.9965 13.0567 18.0677 12.9447 18.1153 12.8222C18.1629 12.6996 18.1858 12.5689 18.1828 12.4374C18.1798 12.3059 18.1509 12.1763 18.0977 12.056C18.0446 11.9358 17.9682 11.8272 17.873 11.7364C17.7778 11.6457 17.6657 11.5746 17.543 11.5273C16.9989 11.3162 16.4105 11.2931 15.8477 11.4277Z" fill="black"/>
<path d="M16 18C15.7348 18 15.4804 18.1054 15.2929 18.2929C15.1054 18.4804 15 18.7348 15 19C15 19.2652 15.1054 19.5196 15.2929 19.7071C15.4804 19.8946 15.7348 20 16 20H22C22.2652 20 22.5196 19.8946 22.7071 19.7071C22.8946 19.5196 23 19.2652 23 19C23 18.7348 22.8946 18.4804 22.7071 18.2929C22.5196 18.1054 22.2652 18 22 18H16Z" fill="black"/>
<path d="M19 15C18.7348 15 18.4804 15.1054 18.2929 15.2929C18.1054 15.4804 18 15.7348 18 16V22C18 22.2652 18.1054 22.5196 18.2929 22.7071C18.4804 22.8946 18.7348 23 19 23C19.2652 23 19.5196 22.8946 19.7071 22.7071C19.8946 22.5196 20 22.2652 20 22V16C20 15.7348 19.8946 15.4804 19.7071 15.2929C19.5196 15.1054 19.2652 15 19 15Z" fill="black"/>
</g>
</g>
<defs>
<clipPath id="clip0_19819_1193">
<rect width="24" height="24" fill="white"/>
</clipPath>
</defs>
</svg>
