<svg width="24" height="24" viewBox="0 0 24 24" fill="none" xmlns="http://www.w3.org/2000/svg">
<g clip-path="url(#clip0_19819_1174)">
<mask id="mask0_19819_1174" style="mask-type:luminance" maskUnits="userSpaceOnUse" x="0" y="0" width="24" height="24">
<path d="M24 0H0V24H24V0Z" fill="white"/>
</mask>
<g mask="url(#mask0_19819_1174)">
<path d="M15 7C14.7348 7 14.4804 7.10536 14.2929 7.29289C14.1054 7.48043 14 7.73478 14 8C14 8.26522 14.1054 8.51957 14.2929 8.70711C14.4804 8.89464 14.7348 9 15 9H15.0098C15.275 9 15.5294 8.89464 15.7169 8.70711C15.9044 8.51957 16.0098 8.26522 16.0098 8C16.0098 7.73478 15.9044 7.48043 15.7169 7.29289C15.5294 7.10536 15.275 7 15.0098 7H15Z" fill="black"/>
<path d="M7 2C6.73478 2 6.48043 2.10536 6.29289 2.29289C6.10536 2.48043 6 2.73478 6 3C6 3.26522 6.10536 3.51957 6.29289 3.70711C6.48043 3.89464 6.73478 4 7 4H18C18.5308 4 19.0387 4.21062 19.4141 4.58594C19.7894 4.9613 20 5.46921 20 6V17C20 17.2652 20.1054 17.5196 20.2929 17.7071C20.4804 17.8946 20.7348 18 21 18C21.2652 18 21.5196 17.8946 21.7071 17.7071C21.8946 17.5196 22 17.2652 22 17V6C22 4.93949 21.578 3.92173 20.8281 3.17188C20.0782 2.42198 19.0604 2 18 2H7ZM3.92383 2.84766C3.65895 2.84354 3.40326 2.94469 3.21289 3.12891C2.46598 3.85451 2 4.87966 2 6V18C2 19.0604 2.42198 20.0782 3.17188 20.8281C3.92173 21.578 4.93949 22 6 22H17.998C18.531 22.0008 19.0593 21.8941 19.5508 21.6875C20.0422 21.481 20.487 21.178 20.8594 20.7969C21.0448 20.6073 21.1473 20.3518 21.1444 20.0866C21.1415 19.8214 21.0333 19.5683 20.8437 19.3828C20.7497 19.2908 20.6384 19.2183 20.5163 19.1694C20.3942 19.1205 20.2636 19.0961 20.1321 19.0978C20.0005 19.0994 19.8706 19.127 19.7498 19.1789C19.6289 19.2308 19.5195 19.3061 19.4277 19.4004C19.2419 19.5907 19.0203 19.7408 18.7754 19.8438C18.5302 19.9468 18.2678 20.0004 18.002 20H18H6C5.46921 20 4.9613 19.7894 4.58594 19.4141C4.21062 19.0387 4 18.5308 4 18V6C4 5.43035 4.23233 4.92885 4.60742 4.56445C4.79753 4.37953 4.90638 4.12665 4.91004 3.86147C4.91371 3.59628 4.81188 3.3405 4.62695 3.15039C4.53538 3.05622 4.42615 2.98102 4.30551 2.92908C4.18486 2.87713 4.05517 2.84947 3.92383 2.84766Z" fill="black"/>
<path d="M9.49997 9.33008C8.69465 9.33008 7.91855 9.69044 7.30661 10.2793C7.30201 10.2838 7.29745 10.2884 7.29294 10.293L2.29294 15.293C2.10545 15.4805 2.00012 15.7348 2.00012 16C2.00012 16.2652 2.10545 16.5195 2.29294 16.707C2.48047 16.8945 2.73479 16.9998 2.99997 16.9998C3.26515 16.9998 3.51947 16.8945 3.707 16.707L8.69333 11.7207C9.00939 11.4166 9.26929 11.3301 9.49997 11.3301C9.73065 11.3301 9.99055 11.4166 10.3066 11.7207L15.2929 16.707C15.4805 16.8945 15.7348 16.9998 16 16.9998C16.2652 16.9998 16.5195 16.8945 16.707 16.707C16.8945 16.5195 16.9998 16.2652 16.9998 16C16.9998 15.7348 16.8945 15.4805 16.707 15.293L11.707 10.293C11.7025 10.2884 11.6979 10.2838 11.6933 10.2793C11.0814 9.69044 10.3053 9.33008 9.49997 9.33008Z" fill="black"/>
<path d="M16.2363 11.3418C16.1055 11.3541 15.9783 11.392 15.8622 11.4534C15.746 11.5148 15.6431 11.5985 15.5593 11.6998C15.4755 11.801 15.4124 11.9177 15.3738 12.0433C15.3351 12.1689 15.3216 12.3009 15.334 12.4317C15.3462 12.5625 15.3841 12.6897 15.4455 12.8058C15.507 12.922 15.5907 13.0249 15.6919 13.1087C15.7931 13.1925 15.9098 13.2556 16.0354 13.2942C16.161 13.3329 16.293 13.3464 16.4238 13.334C16.683 13.3097 16.9559 13.3829 17.3066 13.7208L20.293 16.7071C20.4805 16.8946 20.7348 16.9999 21 16.9999C21.2652 16.9999 21.5195 16.8946 21.707 16.7071C21.8945 16.5196 21.9998 16.2652 21.9998 16.0001C21.9998 15.7349 21.8945 15.4806 21.707 15.293L18.707 12.293C18.7025 12.2884 18.698 12.2839 18.6934 12.2794C18.0141 11.6252 17.1251 11.2582 16.2363 11.3418Z" fill="black"/>
<path d="M2.99997 2C2.73477 2.00004 2.48045 2.10542 2.29294 2.29297C2.10545 2.4805 2.00012 2.73482 2.00012 3C2.00012 3.26518 2.10545 3.5195 2.29294 3.70703L20.2929 21.707C20.4805 21.8945 20.7348 21.9998 21 21.9998C21.2652 21.9998 21.5195 21.8945 21.707 21.707C21.8945 21.5195 21.9998 21.2652 21.9998 21C21.9998 20.7348 21.8945 20.4805 21.707 20.293L3.707 2.29297C3.5195 2.10542 3.26517 2.00004 2.99997 2Z" fill="black"/>
</g>
</g>
<defs>
<clipPath id="clip0_19819_1174">
<rect width="24" height="24" fill="white"/>
</clipPath>
</defs>
</svg>
