<svg width="24" height="24" viewBox="0 0 24 24" fill="none" xmlns="http://www.w3.org/2000/svg">
<g clip-path="url(#clip0_19819_1204)">
<mask id="mask0_19819_1204" style="mask-type:luminance" maskUnits="userSpaceOnUse" x="0" y="0" width="24" height="24">
<path d="M24 0H0V24H24V0Z" fill="white"/>
</mask>
<g mask="url(#mask0_19819_1204)">
<path d="M15 7C14.7348 7 14.4804 7.10536 14.2929 7.29289C14.1054 7.48043 14 7.73478 14 8C14 8.26522 14.1054 8.51957 14.2929 8.70711C14.4804 8.89464 14.7348 9 15 9H15.0098C15.275 9 15.5294 8.89464 15.7169 8.70711C15.9044 8.51957 16.0098 8.26522 16.0098 8C16.0098 7.73478 15.9044 7.48043 15.7169 7.29289C15.5294 7.10536 15.275 7 15.0098 7H15Z" fill="black"/>
<path d="M9.5 9.00195C9.20935 9.00195 8.92209 9.05907 8.6543 9.16992C8.38623 9.28107 8.14088 9.44287 7.93555 9.64844L5.29297 12.293C5.10548 12.4805 5.00015 12.7348 5.00015 13C5.00015 13.2652 5.10548 13.5195 5.29297 13.707C5.4805 13.8945 5.73482 13.9998 6 13.9998C6.26518 13.9998 6.5195 13.8945 6.70703 13.707L9.35156 11.0625C9.37098 11.0431 9.39423 11.0282 9.41992 11.0176C9.44589 11.0068 9.47268 11.002 9.5 11.002C9.52733 11.002 9.55411 11.0069 9.58008 11.0176C9.60571 11.0282 9.62885 11.0429 9.64844 11.0625L13.293 14.707C13.4805 14.8945 13.7348 14.9998 14 14.9998C14.2652 14.9998 14.5195 14.8945 14.707 14.707C14.8945 14.5195 14.9998 14.2652 14.9998 14C14.9998 13.7348 14.8945 13.4805 14.707 13.293L11.0625 9.64844C10.8573 9.44304 10.6138 9.28109 10.3457 9.16992C10.0779 9.05907 9.79066 9.00195 9.5 9.00195Z" fill="black"/>
<path d="M15.5 10.002C15.2093 10.002 14.922 10.0591 14.6543 10.1699C14.3861 10.2811 14.1427 10.443 13.9375 10.6484L12.293 12.293C12.1055 12.4805 12.0002 12.7348 12.0002 13C12.0002 13.2652 12.1055 13.5195 12.293 13.707C12.4805 13.8945 12.7348 13.9998 13 13.9998C13.2652 13.9998 13.5195 13.8945 13.707 13.707L15.3516 12.0625C15.3712 12.0429 15.3943 12.0282 15.4199 12.0176C15.446 12.0068 15.4727 12.002 15.5 12.002C15.5273 12.002 15.554 12.0068 15.5801 12.0176C15.6057 12.0282 15.6289 12.0429 15.6484 12.0625L17.293 13.707C17.4805 13.8945 17.7348 13.9998 18 13.9998C18.2652 13.9998 18.5195 13.8945 18.707 13.707C18.8945 13.5195 18.9999 13.2652 18.9999 13C18.9999 12.7348 18.8945 12.4805 18.707 12.293L17.0625 10.6484C16.8573 10.443 16.6139 10.2811 16.3457 10.1699C16.078 10.0591 15.7907 10.002 15.5 10.002Z" fill="black"/>
<path d="M6 3C5.20474 3 4.44125 3.31655 3.87891 3.87891C3.31655 4.44125 3 5.20474 3 6V8C3 8.26522 3.10536 8.51957 3.29289 8.70711C3.48043 8.89464 3.73478 9 4 9C4.26522 9 4.51957 8.89464 4.70711 8.70711C4.89464 8.51957 5 8.26522 5 8V6C5 5.7344 5.10516 5.48077 5.29297 5.29297C5.48077 5.10516 5.7344 5 6 5H8C8.26522 5 8.51957 4.89464 8.70711 4.70711C8.89464 4.51957 9 4.26522 9 4C9 3.73478 8.89464 3.48043 8.70711 3.29289C8.51957 3.10536 8.26522 3 8 3H6Z" fill="black"/>
<path d="M4 15C3.73478 15 3.48043 15.1054 3.29289 15.2929C3.10536 15.4804 3 15.7348 3 16V18C3 18.7952 3.31659 19.5587 3.87891 20.1211C4.44125 20.6835 5.20475 21 6 21H8C8.26522 21 8.51957 20.8946 8.70711 20.7071C8.89464 20.5196 9 20.2652 9 20C9 19.7348 8.89464 19.4804 8.70711 19.2929C8.51957 19.1054 8.26522 19 8 19H6C5.73439 19 5.48076 18.8948 5.29297 18.707C5.10513 18.5192 5 18.2656 5 18V16C5 15.7348 4.89464 15.4804 4.70711 15.2929C4.51957 15.1054 4.26522 15 4 15Z" fill="black"/>
<path d="M16 3C15.7348 3 15.4804 3.10536 15.2929 3.29289C15.1054 3.48043 15 3.73478 15 4C15 4.26522 15.1054 4.51957 15.2929 4.70711C15.4804 4.89464 15.7348 5 16 5H18C18.2656 5 18.5192 5.10513 18.707 5.29297C18.8948 5.48076 19 5.73439 19 6V8C19 8.26522 19.1054 8.51957 19.2929 8.70711C19.4804 8.89464 19.7348 9 20 9C20.2652 9 20.5196 8.89464 20.7071 8.70711C20.8946 8.51957 21 8.26522 21 8V6C21 5.20475 20.6835 4.44125 20.1211 3.87891C19.5587 3.31659 18.7952 3 18 3H16Z" fill="black"/>
<path d="M20 15C19.7348 15 19.4804 15.1054 19.2929 15.2929C19.1054 15.4804 19 15.7348 19 16V18C19 18.2656 18.8949 18.5192 18.707 18.707C18.5192 18.8949 18.2656 19 18 19H16C15.7348 19 15.4804 19.1054 15.2929 19.2929C15.1054 19.4804 15 19.7348 15 20C15 20.2652 15.1054 20.5196 15.2929 20.7071C15.4804 20.8946 15.7348 21 16 21H18C18.7952 21 19.5587 20.6834 20.1211 20.1211C20.6834 19.5587 21 18.7952 21 18V16C21 15.7348 20.8946 15.4804 20.7071 15.2929C20.5196 15.1054 20.2652 15 20 15Z" fill="black"/>
</g>
</g>
<defs>
<clipPath id="clip0_19819_1204">
<rect width="24" height="24" fill="white"/>
</clipPath>
</defs>
</svg>
