<svg width="24" height="24" viewBox="0 0 24 24" fill="none" xmlns="http://www.w3.org/2000/svg">
<g clip-path="url(#clip0_19819_1216)">
<mask id="mask0_19819_1216" style="mask-type:luminance" maskUnits="userSpaceOnUse" x="0" y="0" width="24" height="24">
<path d="M24 0H0V24H24V0Z" fill="white"/>
</mask>
<g mask="url(#mask0_19819_1216)">
<path d="M15 7C14.7348 7 14.4804 7.10536 14.2929 7.29289C14.1054 7.48043 14 7.73478 14 8C14 8.26522 14.1054 8.51957 14.2929 8.70711C14.4804 8.89464 14.7348 9 15 9H15.0098C15.275 9 15.5294 8.89464 15.7169 8.70711C15.9044 8.51957 16.0098 8.26522 16.0098 8C16.0098 7.73478 15.9044 7.48043 15.7169 7.29289C15.5294 7.10536 15.275 7 15.0098 7H15Z" fill="black"/>
<path d="M6 2C4.93952 2 3.92175 2.422 3.17188 3.17188C2.422 3.92175 2 4.93952 2 6V18C2 19.0604 2.42198 20.0782 3.17188 20.8281C3.92173 21.578 4.93949 22 6 22H11.5C11.7652 22 12.0196 21.8946 12.2071 21.7071C12.3946 21.5196 12.5 21.2652 12.5 21C12.5 20.7348 12.3946 20.4804 12.2071 20.2929C12.0196 20.1054 11.7652 20 11.5 20H6C5.46921 20 4.9613 19.7894 4.58594 19.4141C4.21062 19.0387 4 18.5308 4 18V6C4 5.46918 4.21059 4.96128 4.58594 4.58594C4.96128 4.21059 5.46918 4 6 4H18C18.5308 4 19.0387 4.21062 19.4141 4.58594C19.7894 4.9613 20 5.46921 20 6V11.5C20 11.7652 20.1054 12.0196 20.2929 12.2071C20.4804 12.3946 20.7348 12.5 21 12.5C21.2652 12.5 21.5196 12.3946 21.7071 12.2071C21.8946 12.0196 22 11.7652 22 11.5V6C22 4.93949 21.578 3.92173 20.8281 3.17188C20.0782 2.42198 19.0604 2 18 2H6Z" fill="black"/>
<path d="M18 14C16.9395 14 15.9217 14.422 15.1719 15.1719C14.422 15.9217 14 16.9395 14 18C14 19.0605 14.422 20.0783 15.1719 20.8281C15.9217 21.578 16.9395 22 18 22C19.0605 22 20.0783 21.578 20.8281 20.8281C21.578 20.0783 22 19.0605 22 18C22 16.9395 21.578 15.9217 20.8281 15.1719C20.0783 14.422 19.0605 14 18 14ZM18 16C18.5307 16 19.0387 16.2106 19.4141 16.5859C19.7894 16.9613 20 17.4693 20 18C20 18.5307 19.7894 19.0387 19.4141 19.4141C19.0387 19.7894 18.5307 20 18 20C17.4693 20 16.9613 19.7894 16.5859 19.4141C16.2106 19.0387 16 18.5307 16 18C16 17.4693 16.2106 16.9613 16.5859 16.5859C16.9613 16.2106 17.4693 16 18 16Z" fill="black"/>
<path d="M19.4922 19.492C19.3047 19.6796 19.1993 19.9339 19.1993 20.1991C19.1993 20.4642 19.3047 20.7186 19.4922 20.9061L21.2929 22.7069C21.4805 22.8944 21.7348 22.9997 22 22.9997C22.2652 22.9997 22.5195 22.8944 22.707 22.7069C22.8945 22.5194 22.9998 22.265 22.9998 21.9998C22.9998 21.7347 22.8945 21.4803 22.707 21.2928L20.9062 19.492C20.7187 19.3045 20.4644 19.1992 20.1992 19.1992C19.934 19.1992 19.6797 19.3045 19.4922 19.492Z" fill="black"/>
<path d="M9.49997 9.33008C8.69465 9.33008 7.91855 9.69044 7.30661 10.2793C7.30201 10.2838 7.29745 10.2884 7.29294 10.293L2.29294 15.293C2.10545 15.4805 2.00012 15.7348 2.00012 16C2.00012 16.2652 2.10545 16.5195 2.29294 16.707C2.48047 16.8945 2.73479 16.9998 2.99997 16.9998C3.26515 16.9998 3.51947 16.8945 3.707 16.707L8.69333 11.7207C9.00939 11.4166 9.26929 11.3301 9.49997 11.3301C9.73065 11.3301 9.99055 11.4166 10.3066 11.7207L12.2929 13.707C12.4805 13.8945 12.7348 13.9998 13 13.9998C13.2652 13.9998 13.5195 13.8945 13.707 13.707C13.8945 13.5195 13.9998 13.2652 13.9998 13C13.9998 12.7348 13.8945 12.4805 13.707 12.293L11.707 10.293C11.7025 10.2884 11.6979 10.2838 11.6933 10.2793C11.0814 9.69044 10.3053 9.33008 9.49997 9.33008Z" fill="black"/>
</g>
</g>
<defs>
<clipPath id="clip0_19819_1216">
<rect width="24" height="24" fill="white"/>
</clipPath>
</defs>
</svg>
