<svg width="24" height="24" viewBox="0 0 24 24" fill="none" xmlns="http://www.w3.org/2000/svg">
<g clip-path="url(#clip0_19819_1237)">
<mask id="mask0_19819_1237" style="mask-type:luminance" maskUnits="userSpaceOnUse" x="0" y="0" width="24" height="24">
<path d="M24 0H0V24H24V0Z" fill="white"/>
</mask>
<g mask="url(#mask0_19819_1237)">
<path d="M15 7C14.7348 7 14.4804 7.10536 14.2929 7.29289C14.1054 7.48043 14 7.73478 14 8C14 8.26522 14.1054 8.51957 14.2929 8.70711C14.4804 8.89464 14.7348 9 15 9H15.0098C15.275 9 15.5294 8.89464 15.7169 8.70711C15.9044 8.51957 16.0098 8.26522 16.0098 8C16.0098 7.73478 15.9044 7.48043 15.7169 7.29289C15.5294 7.10536 15.275 7 15.0098 7H15Z" fill="black"/>
<path d="M6 2C4.93952 2 3.92175 2.422 3.17188 3.17188C2.422 3.92175 2 4.93952 2 6V18C2 19.0604 2.42198 20.0782 3.17188 20.8281C3.92173 21.578 4.93949 22 6 22H13C13.2652 22 13.5196 21.8946 13.7071 21.7071C13.8946 21.5196 14 21.2652 14 21C14 20.7348 13.8946 20.4804 13.7071 20.2929C13.5196 20.1054 13.2652 20 13 20H6C5.46921 20 4.9613 19.7894 4.58594 19.4141C4.21062 19.0387 4 18.5308 4 18V6C4 5.46918 4.21059 4.96128 4.58594 4.58594C4.96128 4.21059 5.46918 4 6 4H18C18.5308 4 19.0387 4.21062 19.4141 4.58594C19.7894 4.9613 20 5.46921 20 6V13C20 13.2652 20.1054 13.5196 20.2929 13.7071C20.4804 13.8946 20.7348 14 21 14C21.2652 14 21.5196 13.8946 21.7071 13.7071C21.8946 13.5196 22 13.2652 22 13V6C22 4.93949 21.578 3.92173 20.8281 3.17188C20.0782 2.42198 19.0604 2 18 2H6Z" fill="black"/>
<path d="M9.49997 9.33008C8.69465 9.33008 7.91855 9.69044 7.30661 10.2793C7.30201 10.2838 7.29745 10.2884 7.29294 10.293L2.29294 15.293C2.10545 15.4805 2.00012 15.7348 2.00012 16C2.00012 16.2652 2.10545 16.5195 2.29294 16.707C2.48047 16.8945 2.73479 16.9998 2.99997 16.9998C3.26515 16.9998 3.51947 16.8945 3.707 16.707L8.69333 11.7207C9.00939 11.4166 9.26929 11.3301 9.49997 11.3301C9.73065 11.3301 9.99055 11.4166 10.3066 11.7207L13.2929 14.707C13.4805 14.8945 13.7348 14.9998 14 14.9998C14.2652 14.9998 14.5195 14.8945 14.707 14.707C14.8945 14.5195 14.9998 14.2652 14.9998 14C14.9998 13.7348 14.8945 13.4805 14.707 13.293L11.707 10.293C11.7025 10.2884 11.6979 10.2838 11.6933 10.2793C11.0814 9.69044 10.3053 9.33008 9.49997 9.33008Z" fill="black"/>
<path d="M16.5 11.3301C15.6947 11.3301 14.9186 11.6904 14.3067 12.2793C14.3021 12.2838 14.2975 12.2884 14.293 12.293L13.293 13.293C13.1055 13.4805 13.0002 13.7348 13.0002 14C13.0002 14.2652 13.1055 14.5195 13.293 14.707C13.4805 14.8945 13.7349 14.9998 14 14.9998C14.2652 14.9998 14.5195 14.8945 14.7071 14.707L15.6934 13.7207C16.0095 13.4166 16.2694 13.3301 16.5 13.3301C16.7307 13.3301 16.9906 13.4166 17.3067 13.7207C17.4013 13.8118 17.513 13.8833 17.6352 13.9312C17.7575 13.9791 17.8881 14.0025 18.0194 13.9999C18.1507 13.9974 18.2802 13.969 18.4005 13.9164C18.5209 13.8638 18.6297 13.788 18.7207 13.6934C18.8118 13.5987 18.8833 13.4871 18.9312 13.3648C18.9791 13.2425 19.0025 13.112 19 12.9807C18.9974 12.8494 18.969 12.7198 18.9164 12.5995C18.8638 12.4791 18.788 12.3703 18.6934 12.2793C18.0815 11.6904 17.3054 11.3301 16.5 11.3301Z" fill="black"/>
<path d="M16.2929 16.2928C16.1055 16.4803 16.0001 16.7347 16.0001 16.9998C16.0001 17.265 16.1055 17.5194 16.2929 17.7069L21.2929 22.7069C21.4805 22.8944 21.7348 22.9997 22 22.9997C22.2652 22.9997 22.5195 22.8944 22.707 22.7069C22.8945 22.5194 22.9998 22.265 22.9998 21.9998C22.9998 21.7347 22.8945 21.4803 22.707 21.2928L17.707 16.2928C17.5195 16.1053 17.2652 16 17 16C16.7348 16 16.4805 16.1053 16.2929 16.2928Z" fill="black"/>
<path d="M21.2929 16.2928L16.2929 21.2928C16.1055 21.4803 16.0001 21.7347 16.0001 21.9998C16.0001 22.265 16.1055 22.5194 16.2929 22.7069C16.4805 22.8944 16.7348 22.9997 17 22.9997C17.2652 22.9997 17.5195 22.8944 17.707 22.7069L22.707 17.7069C22.8945 17.5194 22.9998 17.265 22.9998 16.9998C22.9998 16.7347 22.8945 16.4803 22.707 16.2928C22.5195 16.1053 22.2652 16 22 16C21.7348 16 21.4805 16.1053 21.2929 16.2928Z" fill="black"/>
</g>
</g>
<defs>
<clipPath id="clip0_19819_1237">
<rect width="24" height="24" fill="white"/>
</clipPath>
</defs>
</svg>
