<svg width="24" height="24" viewBox="0 0 24 24" fill="none" xmlns="http://www.w3.org/2000/svg">
<g clip-path="url(#clip0_19819_1110)">
<mask id="mask0_19819_1110" style="mask-type:luminance" maskUnits="userSpaceOnUse" x="0" y="0" width="24" height="24">
<path d="M24 0H0V24H24V0Z" fill="white"/>
</mask>
<g mask="url(#mask0_19819_1110)">
<path d="M15 7C14.7348 7 14.4804 7.10536 14.2929 7.29289C14.1054 7.48043 14 7.73478 14 8C14 8.26522 14.1054 8.51957 14.2929 8.70711C14.4804 8.89464 14.7348 9 15 9H15.0098C15.275 9 15.5294 8.89464 15.7169 8.70711C15.9044 8.51957 16.0098 8.26522 16.0098 8C16.0098 7.73478 15.9044 7.48043 15.7169 7.29289C15.5294 7.10536 15.275 7 15.0098 7H15Z" fill="black"/>
<path d="M6 2C4.93952 2 3.92175 2.422 3.17188 3.17188C2.422 3.92175 2 4.93952 2 6V18C2 19.0604 2.42198 20.0782 3.17188 20.8281C3.92173 21.578 4.93949 22 6 22H18C19.0605 22 20.0783 21.578 20.8281 20.8281C21.578 20.0783 22 19.0605 22 18V6C22 4.93949 21.578 3.92173 20.8281 3.17188C20.0782 2.42198 19.0604 2 18 2H6ZM6 4H18C18.5308 4 19.0387 4.21062 19.4141 4.58594C19.7894 4.9613 20 5.46921 20 6V18C20 18.5307 19.7894 19.0387 19.4141 19.4141C19.0387 19.7894 18.5307 20 18 20H6C5.46921 20 4.9613 19.7894 4.58594 19.4141C4.21062 19.0387 4 18.5308 4 18V6C4 5.46918 4.21059 4.96128 4.58594 4.58594C4.96128 4.21059 5.46918 4 6 4Z" fill="black"/>
<path d="M9.49997 9.33008C8.69465 9.33008 7.91855 9.69044 7.30661 10.2793C7.30201 10.2838 7.29745 10.2884 7.29294 10.293L2.29294 15.293C2.10545 15.4805 2.00012 15.7348 2.00012 16C2.00012 16.2652 2.10545 16.5195 2.29294 16.707C2.48047 16.8945 2.73479 16.9998 2.99997 16.9998C3.26515 16.9998 3.51947 16.8945 3.707 16.707L8.69333 11.7207C9.00939 11.4166 9.26929 11.3301 9.49997 11.3301C9.73065 11.3301 9.99055 11.4166 10.3066 11.7207L15.2929 16.707C15.4805 16.8945 15.7348 16.9998 16 16.9998C16.2652 16.9998 16.5195 16.8945 16.707 16.707C16.8945 16.5195 16.9998 16.2652 16.9998 16C16.9998 15.7348 16.8945 15.4805 16.707 15.293L11.707 10.293C11.7025 10.2884 11.6979 10.2838 11.6933 10.2793C11.0814 9.69044 10.3053 9.33008 9.49997 9.33008Z" fill="black"/>
<path d="M16.5 11.3301C15.6947 11.3301 14.9186 11.6904 14.3067 12.2793C14.3021 12.2838 14.2975 12.2884 14.293 12.293L13.293 13.293C13.1055 13.4805 13.0002 13.7348 13.0002 14C13.0002 14.2652 13.1055 14.5195 13.293 14.707C13.4805 14.8945 13.7349 14.9998 14 14.9998C14.2652 14.9998 14.5195 14.8945 14.7071 14.707L15.6934 13.7207C16.0095 13.4166 16.2694 13.3301 16.5 13.3301C16.7307 13.3301 16.9906 13.4166 17.3067 13.7207L20.293 16.707C20.4805 16.8945 20.7349 16.9998 21 16.9998C21.2652 16.9998 21.5195 16.8945 21.7071 16.707C21.8946 16.5195 21.9999 16.2652 21.9999 16C21.9999 15.7348 21.8946 15.4805 21.7071 15.293L18.7071 12.293C18.7026 12.2884 18.698 12.2838 18.6934 12.2793C18.0815 11.6904 17.3054 11.3301 16.5 11.3301Z" fill="black"/>
</g>
</g>
<defs>
<clipPath id="clip0_19819_1110">
<rect width="24" height="24" fill="white"/>
</clipPath>
</defs>
</svg>
