<svg width="24" height="24" viewBox="0 0 24 24" fill="none" xmlns="http://www.w3.org/2000/svg">
<g clip-path="url(#clip0_19819_1269)">
<mask id="mask0_19819_1269" style="mask-type:luminance" maskUnits="userSpaceOnUse" x="0" y="0" width="24" height="24">
<path d="M24 0H0V24H24V0Z" fill="white"/>
</mask>
<g mask="url(#mask0_19819_1269)">
<path d="M5 3C4.46994 3 3.96073 3.21117 3.58594 3.58594C3.21117 3.96073 3 4.46994 3 5V9C3 9.53006 3.21117 10.0393 3.58594 10.4141C3.96073 10.7888 4.46994 11 5 11H9C9.53006 11 10.0393 10.7888 10.4141 10.4141C10.7888 10.0393 11 9.53006 11 9V5C11 4.46994 10.7888 3.96073 10.4141 3.58594C10.0393 3.21117 9.53006 3 9 3H5ZM5 5H9V9H5V5Z" fill="black"/>
<path d="M7 16C6.73478 16 6.48043 16.1054 6.29289 16.2929C6.10536 16.4804 6 16.7348 6 17V17.0098C6 17.275 6.10536 17.5294 6.29289 17.7169C6.48043 17.9044 6.73478 18.0098 7 18.0098C7.26522 18.0098 7.51957 17.9044 7.70711 17.7169C7.89464 17.5294 8 17.275 8 17.0098V17C8 16.7348 7.89464 16.4804 7.70711 16.2929C7.51957 16.1054 7.26522 16 7 16Z" fill="black"/>
<path d="M15 3C14.4699 3 13.9608 3.21102 13.5859 3.58594C13.2113 3.96067 13 4.46984 13 5V9C13 9.53016 13.2113 10.0393 13.5859 10.4141C13.9608 10.789 14.4699 11 15 11H19C19.5301 11 20.0392 10.789 20.4141 10.4141C20.7887 10.0393 21 9.53016 21 9V5C21 4.46984 20.7887 3.96067 20.4141 3.58594C20.0392 3.21102 19.5301 3 19 3H15ZM15 5H19V9H15V5Z" fill="black"/>
<path d="M7 6C6.73478 6 6.48043 6.10536 6.29289 6.29289C6.10536 6.48043 6 6.73478 6 7V7.00977C6 7.27499 6.10536 7.52934 6.29289 7.71688C6.48043 7.90441 6.73478 8.00977 7 8.00977C7.26522 8.00977 7.51957 7.90441 7.70711 7.71688C7.89464 7.52934 8 7.27499 8 7.00977V7C8 6.73478 7.89464 6.48043 7.70711 6.29289C7.51957 6.10536 7.26522 6 7 6Z" fill="black"/>
<path d="M5 13C4.46984 13 3.96067 13.2113 3.58594 13.5859C3.21102 13.9608 3 14.4699 3 15V19C3 19.5301 3.21102 20.0392 3.58594 20.4141C3.96067 20.7887 4.46984 21 5 21H9C9.53016 21 10.0393 20.7887 10.4141 20.4141C10.789 20.0392 11 19.5301 11 19V15C11 14.4699 10.789 13.9608 10.4141 13.5859C10.0393 13.2113 9.53016 13 9 13H5ZM5 15H9V19H5V15Z" fill="black"/>
<path d="M17 6C16.7348 6 16.4804 6.10536 16.2929 6.29289C16.1054 6.48043 16 6.73478 16 7V7.00977C16 7.27499 16.1054 7.52934 16.2929 7.71688C16.4804 7.90441 16.7348 8.00977 17 8.00977C17.2652 8.00977 17.5196 7.90441 17.7071 7.71688C17.8946 7.52934 18 7.27499 18 7.00977V7C18 6.73478 17.8946 6.48043 17.7071 6.29289C17.5196 6.10536 17.2652 6 17 6Z" fill="black"/>
<path d="M14 13C13.7348 13 13.4804 13.1054 13.2929 13.2929C13.1054 13.4804 13 13.7348 13 14C13 14.2652 13.1054 14.5196 13.2929 14.7071C13.4804 14.8946 13.7348 15 14 15H17C17.2652 15 17.5196 14.8946 17.7071 14.7071C17.8946 14.5196 18 14.2652 18 14C18 13.7348 17.8946 13.4804 17.7071 13.2929C17.5196 13.1054 17.2652 13 17 13H14Z" fill="black"/>
<path d="M20 13C19.7348 13 19.4804 13.1054 19.2929 13.2929C19.1054 13.4804 19 13.7348 19 14V14.0098C19 14.275 19.1054 14.5294 19.2929 14.7169C19.4804 14.9044 19.7348 15.0098 20 15.0098C20.2652 15.0098 20.5196 14.9044 20.7071 14.7169C20.8946 14.5294 21 14.275 21 14.0098V14C21 13.7348 20.8946 13.4804 20.7071 13.2929C20.5196 13.1054 20.2652 13 20 13Z" fill="black"/>
<path d="M14 13C13.7348 13 13.4804 13.1054 13.2929 13.2929C13.1054 13.4804 13 13.7348 13 14V17C13 17.2652 13.1054 17.5196 13.2929 17.7071C13.4804 17.8946 13.7348 18 14 18C14.2652 18 14.5196 17.8946 14.7071 17.7071C14.8946 17.5196 15 17.2652 15 17V14C15 13.7348 14.8946 13.4804 14.7071 13.2929C14.5196 13.1054 14.2652 13 14 13Z" fill="black"/>
<path d="M14 19C13.7348 19 13.4804 19.1054 13.2929 19.2929C13.1054 19.4804 13 19.7348 13 20C13 20.2652 13.1054 20.5196 13.2929 20.7071C13.4804 20.8946 13.7348 21 14 21H17C17.2652 21 17.5196 20.8946 17.7071 20.7071C17.8946 20.5196 18 20.2652 18 20C18 19.7348 17.8946 19.4804 17.7071 19.2929C17.5196 19.1054 17.2652 19 17 19H14Z" fill="black"/>
<path d="M17 16C16.7348 16 16.4804 16.1054 16.2929 16.2929C16.1054 16.4804 16 16.7348 16 17C16 17.2652 16.1054 17.5196 16.2929 17.7071C16.4804 17.8946 16.7348 18 17 18H20C20.2652 18 20.5196 17.8946 20.7071 17.7071C20.8946 17.5196 21 17.2652 21 17C21 16.7348 20.8946 16.4804 20.7071 16.2929C20.5196 16.1054 20.2652 16 20 16H17Z" fill="black"/>
<path d="M20 16C19.7348 16 19.4804 16.1054 19.2929 16.2929C19.1054 16.4804 19 16.7348 19 17V20C19 20.2652 19.1054 20.5196 19.2929 20.7071C19.4804 20.8946 19.7348 21 20 21C20.2652 21 20.5196 20.8946 20.7071 20.7071C20.8946 20.5196 21 20.2652 21 20V17C21 16.7348 20.8946 16.4804 20.7071 16.2929C20.5196 16.1054 20.2652 16 20 16Z" fill="black"/>
</g>
</g>
<defs>
<clipPath id="clip0_19819_1269">
<rect width="24" height="24" fill="white"/>
</clipPath>
</defs>
</svg>
