<?xml version="1.0" encoding="UTF-8" standalone="no"?>
<svg
   width="24"
   height="24"
   viewBox="0 0 24 24"
   fill="none"
   version="1.1"
   id="svg3"
   sodipodi:docname="refresh-off.svg"
   inkscape:version="1.3.2 (091e20e, 2023-11-25)"
   xmlns:inkscape="http://www.inkscape.org/namespaces/inkscape"
   xmlns:sodipodi="http://sodipodi.sourceforge.net/DTD/sodipodi-0.dtd"
   xmlns="http://www.w3.org/2000/svg"
   xmlns:svg="http://www.w3.org/2000/svg">
  <defs
     id="defs3" />
  <sodipodi:namedview
     id="namedview3"
     pagecolor="#505050"
     bordercolor="#eeeeee"
     borderopacity="1"
     inkscape:showpageshadow="0"
     inkscape:pageopacity="0"
     inkscape:pagecheckerboard="0"
     inkscape:deskcolor="#505050"
     inkscape:zoom="9.8333333"
     inkscape:cx="11.949153"
     inkscape:cy="12"
     inkscape:window-width="1504"
     inkscape:window-height="449"
     inkscape:window-x="0"
     inkscape:window-y="25"
     inkscape:window-maximized="0"
     inkscape:current-layer="svg3" />
  <path
     style="color:#000000;fill:#000000;stroke-linecap:round;stroke-linejoin:round;-inkscape-stroke:none"
     d="M 12.419922,3.0253906 C 11.01607,2.9569619 9.6157169,3.2156693 8.328125,3.7792969 A 1,1 0 0 0 7.8125,5.0957031 1,1 0 0 0 9.1308594,5.6113281 C 10.135505,5.1715567 11.22692,4.9700464 12.322266,5.0234375 c 1.095454,0.053401 2.163957,0.3591172 3.121093,0.8945312 0.957113,0.5354099 1.777693,1.2858869 2.396485,2.1914063 0.618741,0.9054451 1.018881,1.941054 1.169922,3.027344 a 1,1 0 0 0 1.128906,0.853515 1,1 0 0 0 0.851562,-1.128906 c -0.193559,-1.3920875 -0.706942,-2.7203264 -1.5,-3.8808593 -0.793006,-1.1604585 -1.843627,-2.1204316 -3.070312,-2.8066406 -1.226662,-0.6861847 -2.596057,-1.0799985 -4,-1.1484375 z M 4,4 A 1,1 0 0 0 3,5 v 4 a 1.0001,1.0001 0 0 0 1,1 H 8 A 1,1 0 0 0 9,9 1,1 0 0 0 8,8 H 6.3632812 C 6.5940938,7.6848611 6.7365413,7.3092451 7.0175781,7.0351562 A 1,1 0 0 0 7.0351562,5.6210937 1,1 0 0 0 5.6210937,5.6035156 C 5.354655,5.8633673 5.231656,6.2283342 5,6.5175781 V 5 A 1,1 0 0 0 4,4 Z"
     id="path1" />
  <path
     style="color:#000000;fill:#000000;stroke-linecap:round;stroke-linejoin:round;-inkscape-stroke:none"
     d="M 3.8632813,12.009766 A 1,1 0 0 0 3.0097656,13.136719 C 3.241312,14.802963 3.9303144,16.373581 5,17.671875 c 1.069705,1.298331 2.4791683,2.274334 4.0703125,2.820312 1.5911665,0.545994 3.3019785,0.641347 4.9433595,0.273438 1.641409,-0.368028 3.149701,-1.184458 4.355469,-2.357422 a 1,1 0 0 0 0.01953,-1.414062 1,1 0 0 0 -1.414063,-0.01953 C 16.033779,17.889844 14.85696,18.525329 13.576172,18.8125 12.295356,19.09959 10.960241,19.027568 9.71875,18.601562 8.477197,18.175542 7.3776419,17.413457 6.5429687,16.400391 5.7082562,15.387287 5.1709076,14.163434 4.9902344,12.863281 A 1,1 0 0 0 3.8632813,12.009766 Z M 19,14 a 1,1 0 0 0 -1,1 1,1 0 0 0 1,1 1,1 0 0 0 1,1 1,1 0 0 0 1,-1 v -1 a 1.0001,1.0001 0 0 0 -1,-1 z"
     id="path2" />
  <path
     style="color:#000000;fill:#000000;stroke-linecap:round;stroke-linejoin:round;-inkscape-stroke:none"
     d="m 3,2 a 1,1 0 0 0 -0.7070312,0.2929688 1,1 0 0 0 0,1.4140625 L 20.292969,21.707031 a 1,1 0 0 0 1.414062,0 1,1 0 0 0 0,-1.414062 L 3.7070313,2.2929688 A 1,1 0 0 0 3,2 Z"
     id="path3" />
</svg>
