<svg width="24" height="24" viewBox="0 0 24 24" fill="none" xmlns="http://www.w3.org/2000/svg">
<g clip-path="url(#clip0_19819_1308)">
<mask id="mask0_19819_1308" style="mask-type:luminance" maskUnits="userSpaceOnUse" x="0" y="0" width="24" height="24">
<path d="M24 0H0V24H24V0Z" fill="white"/>
</mask>
<g mask="url(#mask0_19819_1308)">
<path d="M13.1426 3.08986C11.1631 2.83446 9.154 3.23793 7.42578 4.23635C6.48416 4.78033 5.68465 5.50735 5 6.334V5.00002C5 4.7348 4.89464 4.48045 4.70711 4.29291C4.51957 4.10538 4.26522 4.00002 4 4.00002C3.73478 4.00002 3.48043 4.10538 3.29289 4.29291C3.10536 4.48045 3 4.7348 3 5.00002V9.00002C3.00003 9.26523 3.10539 9.51957 3.29292 9.7071C3.48045 9.89463 3.73479 9.99999 4 10H8C8.26522 10 8.51957 9.89466 8.70711 9.70713C8.89464 9.51959 9 9.26524 9 9.00002C9 8.7348 8.89464 8.48045 8.70711 8.29291C8.51957 8.10538 8.26522 8.00002 8 8.00002H6.28711C6.86934 7.19488 7.55478 6.47 8.42578 5.96682C9.7744 5.1877 11.3401 4.87493 12.8848 5.07424C14.4295 5.27356 15.866 5.9744 16.9727 7.07033C18.0794 8.16624 18.7953 9.59403 19.0098 11.1367C19.0461 11.3993 19.1852 11.6367 19.3966 11.7968C19.6079 11.9568 19.8741 12.0264 20.1367 11.9903C20.3993 11.9539 20.6367 11.8148 20.7968 11.6035C20.9568 11.3921 21.0264 11.1259 20.9902 10.8633C20.7155 8.88647 19.7991 7.05287 18.3809 5.64846C16.9627 4.24405 15.1221 3.34528 13.1426 3.08986Z" fill="black"/>
<path d="M3.86329 12.0098C3.60071 12.0462 3.36331 12.1853 3.20326 12.3966C3.04321 12.608 2.97362 12.8742 3.00978 13.1368C3.28451 15.1137 4.201 16.9472 5.61915 18.3516C7.03733 19.7561 8.87796 20.6549 10.8574 20.9102C12.8369 21.1657 14.846 20.764 16.5742 19.7657C17.5158 19.2217 18.3153 18.4928 19 17.6661V19.0001C19 19.2653 19.1054 19.5196 19.2929 19.7072C19.4804 19.8947 19.7348 20.0001 20 20.0001C20.2652 20.0001 20.5196 19.8947 20.7071 19.7072C20.8947 19.5196 21 19.2653 21 19.0001V15.0001C21 14.7349 20.8946 14.4805 20.7071 14.293C20.5196 14.1055 20.2652 14.0001 20 14.0001H16C15.7348 14.0001 15.4804 14.1054 15.2929 14.293C15.1054 14.4805 15 14.7349 15 15.0001C15 15.2653 15.1054 15.5196 15.2929 15.7072C15.4804 15.8947 15.7348 16.0001 16 16.0001H17.7129C17.1307 16.8052 16.4452 17.5301 15.5742 18.0333C14.2256 18.8123 12.6599 19.1252 11.1152 18.9259H11.1132C9.56865 18.7266 8.13403 18.0257 7.02736 16.9298C5.92065 15.8338 5.20463 14.406 4.99025 12.8634C4.95389 12.6008 4.81477 12.3634 4.60345 12.2033C4.39212 12.0433 4.1259 11.9737 3.86329 12.0098Z" fill="black"/>
<path d="M12 8C11.7348 8 11.4804 8.10536 11.2929 8.29289C11.1054 8.48043 11 8.73478 11 9V12C11 12.2652 11.1054 12.5196 11.2929 12.7071C11.4804 12.8946 11.7348 13 12 13C12.2652 13 12.5196 12.8946 12.7071 12.7071C12.8946 12.5196 13 12.2652 13 12V9C13 8.73478 12.8946 8.48043 12.7071 8.29289C12.5196 8.10536 12.2652 8 12 8Z" fill="black"/>
<path d="M12 14C11.7348 14 11.4804 14.1054 11.2929 14.2929C11.1054 14.4804 11 14.7348 11 15C11 15.2652 11.1054 15.5196 11.2929 15.7071C11.4804 15.8946 11.7348 16 12 16H12.0098C12.275 16 12.5294 15.8946 12.7169 15.7071C12.9044 15.5196 13.0098 15.2652 13.0098 15C13.0098 14.7348 12.9044 14.4804 12.7169 14.2929C12.5294 14.1054 12.275 14 12.0098 14H12Z" fill="black"/>
</g>
</g>
<defs>
<clipPath id="clip0_19819_1308">
<rect width="24" height="24" fill="white"/>
</clipPath>
</defs>
</svg>
