<svg width="24" height="24" viewBox="0 0 24 24" fill="none" xmlns="http://www.w3.org/2000/svg">
<g clip-path="url(#clip0_19819_1317)">
<mask id="mask0_19819_1317" style="mask-type:luminance" maskUnits="userSpaceOnUse" x="0" y="0" width="24" height="24">
<path d="M24 0H0V24H24V0Z" fill="white"/>
</mask>
<g mask="url(#mask0_19819_1317)">
<path d="M13.0254 3.05459C11.9573 2.93433 10.8527 3.00475 9.75975 3.28506C8.17746 3.69206 6.73424 4.52141 5.58787 5.68545C4.4415 6.84949 3.63468 8.30415 3.25194 9.89248C2.86917 11.4807 2.92569 13.1426 3.416 14.7011C3.9063 16.2596 4.812 17.6551 6.03514 18.7382C7.25829 19.8212 8.75299 20.5515 10.3594 20.8495C11.9657 21.1475 13.622 21.0019 15.1523 20.4296C16.6826 19.8573 18.0302 18.8804 19.0469 17.6015C20.0636 16.3225 20.7113 14.7916 20.9238 13.1718C20.9411 13.0415 20.9325 12.909 20.8986 12.782C20.8646 12.655 20.806 12.536 20.726 12.4317C20.646 12.3274 20.5462 12.2399 20.4324 12.1741C20.3185 12.1084 20.1928 12.0658 20.0625 12.0487C19.7996 12.0144 19.5339 12.0858 19.3236 12.2473C19.1134 12.4088 18.9759 12.6472 18.9414 12.9101C18.7761 14.1701 18.2713 15.3625 17.4805 16.3573C16.6897 17.352 15.6435 18.1114 14.4531 18.5565C13.2628 19.0017 11.9741 19.1145 10.7246 18.8827C9.47517 18.6509 8.31278 18.0845 7.36131 17.2421C6.40983 16.3996 5.70558 15.3137 5.3242 14.1015C4.94283 12.8893 4.89758 11.5966 5.1953 10.3612C5.49301 9.12576 6.12195 7.99519 7.01366 7.08975C7.90492 6.18474 9.02575 5.53735 10.2558 5.22061C13.6821 4.34186 17.1982 6.09157 18.5039 9.36904C18.5523 9.49116 18.6244 9.60253 18.7159 9.69679C18.8074 9.79106 18.9165 9.86637 19.0372 9.91842C19.1578 9.97048 19.2875 9.99826 19.4188 10.0002C19.5502 10.0021 19.6806 9.97811 19.8027 9.92959C19.9249 9.88097 20.0363 9.80873 20.1305 9.717C20.2247 9.62528 20.2999 9.51588 20.3518 9.39505C20.4037 9.27423 20.4312 9.14436 20.4329 9.01288C20.4345 8.8814 20.4102 8.75088 20.3613 8.62881C19.1056 5.47692 16.2297 3.41538 13.0254 3.05459Z" fill="black"/>
<path d="M20 3C19.7348 3 19.4804 3.10536 19.2929 3.29289C19.1054 3.48043 19 3.73478 19 4V8H15C14.7348 8 14.4804 8.10536 14.2929 8.29289C14.1054 8.48043 14 8.73478 14 9C14 9.26522 14.1054 9.51957 14.2929 9.70711C14.4804 9.89464 14.7348 10 15 10H20C20.2652 9.99997 20.5195 9.89461 20.7071 9.70708C20.8946 9.51955 21 9.26521 21 9V4C21 3.73478 20.8946 3.48043 20.7071 3.29289C20.5196 3.10536 20.2652 3 20 3Z" fill="black"/>
</g>
</g>
<defs>
<clipPath id="clip0_19819_1317">
<rect width="24" height="24" fill="white"/>
</clipPath>
</defs>
</svg>
