<svg width="24" height="24" viewBox="0 0 24 24" fill="none" xmlns="http://www.w3.org/2000/svg">
<g clip-path="url(#clip0_19819_1346)">
<mask id="mask0_19819_1346" style="mask-type:luminance" maskUnits="userSpaceOnUse" x="0" y="0" width="24" height="24">
<path d="M24 0H0V24H24V0Z" fill="white"/>
</mask>
<g mask="url(#mask0_19819_1346)">
<path d="M6 4C5.20474 4 4.44125 4.31655 3.87891 4.87891C3.31655 5.44125 3 6.20474 3 7V19C3 19.7952 3.31659 20.5587 3.87891 21.1211C4.44125 21.6835 5.20475 22 6 22H11.6973C11.9625 22 12.2168 21.8946 12.4044 21.7071C12.5919 21.5196 12.6973 21.2652 12.6973 21C12.6973 20.7348 12.5919 20.4804 12.4044 20.2929C12.2168 20.1054 11.9625 20 11.6973 20H6C5.73439 20 5.48076 19.8948 5.29297 19.707C5.10513 19.5192 5 19.2656 5 19V7C5 6.7344 5.10516 6.48077 5.29297 6.29297C5.48077 6.10516 5.7344 6 6 6H8C8.26522 6 8.51957 5.89464 8.70711 5.70711C8.89464 5.51957 9 5.26522 9 5C9 4.73478 8.89464 4.48043 8.70711 4.29289C8.51957 4.10536 8.26522 4 8 4H6Z" fill="black"/>
<path d="M14 4C13.7348 4 13.4804 4.10536 13.2929 4.29289C13.1054 4.48043 13 4.73478 13 5C13 5.26522 13.1054 5.51957 13.2929 5.70711C13.4804 5.89464 13.7348 6 14 6H16C16.2656 6 16.5192 6.10513 16.707 6.29297C16.8948 6.48076 17 6.73439 17 7V12C17 12.2652 17.1054 12.5196 17.2929 12.7071C17.4804 12.8946 17.7348 13 18 13C18.2652 13 18.5196 12.8946 18.7071 12.7071C18.8946 12.5196 19 12.2652 19 12V7C19 6.20475 18.6835 5.44125 18.1211 4.87891C17.5587 4.31659 16.7952 4 16 4H14Z" fill="black"/>
<path d="M10 2C9.20474 2 8.44125 2.31655 7.87891 2.87891C7.31655 3.44125 7 4.20474 7 5C7 5.79526 7.31655 6.55875 7.87891 7.12109C8.44125 7.68345 9.20474 8 10 8H12C12.7952 8 13.5587 7.68341 14.1211 7.12109C14.6835 6.55875 15 5.79525 15 5C15 4.20475 14.6835 3.44125 14.1211 2.87891C13.5587 2.31659 12.7952 2 12 2H10ZM10 4H12C12.2656 4 12.5192 4.10513 12.707 4.29297C12.8948 4.48076 13 4.73439 13 5C13 5.26561 12.8948 5.51924 12.707 5.70703C12.5192 5.89487 12.2656 6 12 6H10C9.7344 6 9.48077 5.89484 9.29297 5.70703C9.10516 5.51923 9 5.2656 9 5C9 4.7344 9.10516 4.48077 9.29297 4.29297C9.48077 4.10516 9.7344 4 10 4Z" fill="black"/>
<path d="M8 10C7.73478 10 7.48043 10.1054 7.29289 10.2929C7.10536 10.4804 7 10.7348 7 11C7 11.2652 7.10536 11.5196 7.29289 11.7071C7.48043 11.8946 7.73478 12 8 12H12C12.2652 12 12.5196 11.8946 12.7071 11.7071C12.8946 11.5196 13 11.2652 13 11C13 10.7348 12.8946 10.4804 12.7071 10.2929C12.5196 10.1054 12.2652 10 12 10H8Z" fill="black"/>
<path d="M8 14C7.73478 14 7.48043 14.1054 7.29289 14.2929C7.10536 14.4804 7 14.7348 7 15C7 15.2652 7.10536 15.5196 7.29289 15.7071C7.48043 15.8946 7.73478 16 8 16H11C11.2652 16 11.5196 15.8946 11.7071 15.7071C11.8946 15.5196 12 15.2652 12 15C12 14.7348 11.8946 14.4804 11.7071 14.2929C11.5196 14.1054 11.2652 14 11 14H8Z" fill="black"/>
<path d="M16.5 14C15.5721 14 14.6815 14.3694 14.0254 15.0254C13.3694 15.6815 13 16.5721 13 17.5C13 18.4279 13.3694 19.3185 14.0254 19.9746C14.6815 20.6306 15.5721 21 16.5 21C17.4279 21 18.3185 20.6306 18.9746 19.9746C19.6306 19.3185 20 18.4279 20 17.5C20 16.5721 19.6306 15.6815 18.9746 15.0254C18.3185 14.3694 17.4279 14 16.5 14ZM16.5 16C16.8981 16 17.2789 16.1579 17.5605 16.4395C17.8421 16.7211 18 17.1019 18 17.5C18 17.8981 17.8421 18.2789 17.5605 18.5605C17.2789 18.8421 16.8981 19 16.5 19C16.1019 19 15.7211 18.8421 15.4395 18.5605C15.1579 18.2789 15 17.8981 15 17.5C15 17.1019 15.1579 16.7211 15.4395 16.4395C15.7211 16.1579 16.1019 16 16.5 16Z" fill="black"/>
<path d="M17.793 18.7928C17.6055 18.9803 17.5002 19.2347 17.5002 19.4998C17.5002 19.765 17.6055 20.0194 17.793 20.2069L20.293 22.7069C20.4805 22.8944 20.7348 22.9997 21 22.9997C21.2652 22.9997 21.5195 22.8944 21.707 22.7069C21.8945 22.5194 21.9999 22.265 21.9999 21.9998C21.9999 21.7347 21.8945 21.4803 21.707 21.2928L19.207 18.7928C19.0195 18.6053 18.7652 18.5 18.5 18.5C18.2348 18.5 17.9805 18.6053 17.793 18.7928Z" fill="black"/>
</g>
</g>
<defs>
<clipPath id="clip0_19819_1346">
<rect width="24" height="24" fill="white"/>
</clipPath>
</defs>
</svg>
