<svg width="24" height="24" viewBox="0 0 24 24" fill="none" xmlns="http://www.w3.org/2000/svg">
<g clip-path="url(#clip0_19819_1336)">
<mask id="mask0_19819_1336" style="mask-type:luminance" maskUnits="userSpaceOnUse" x="0" y="0" width="24" height="24">
<path d="M24 0H0V24H24V0Z" fill="white"/>
</mask>
<g mask="url(#mask0_19819_1336)">
<path d="M7 4C6.20474 4 5.44125 4.31655 4.87891 4.87891C4.31655 5.44125 4 6.20474 4 7V19C4 19.7952 4.31659 20.5587 4.87891 21.1211C5.44125 21.6835 6.20475 22 7 22H17C17.7952 22 18.5587 21.6834 19.1211 21.1211C19.6834 20.5587 20 19.7952 20 19V7C20 6.20475 19.6835 5.44125 19.1211 4.87891C18.5587 4.31659 17.7952 4 17 4H15C14.7348 4 14.4804 4.10536 14.2929 4.29289C14.1054 4.48043 14 4.73478 14 5C14 5.26522 14.1054 5.51957 14.2929 5.70711C14.4804 5.89464 14.7348 6 15 6H17C17.2656 6 17.5192 6.10513 17.707 6.29297C17.8948 6.48076 18 6.73439 18 7V19C18 19.2656 17.8949 19.5192 17.707 19.707C17.5192 19.8949 17.2656 20 17 20H7C6.73439 20 6.48076 19.8948 6.29297 19.707C6.10513 19.5192 6 19.2656 6 19V7C6 6.7344 6.10516 6.48077 6.29297 6.29297C6.48077 6.10516 6.7344 6 7 6H9C9.26522 6 9.51957 5.89464 9.70711 5.70711C9.89464 5.51957 10 5.26522 10 5C10 4.73478 9.89464 4.48043 9.70711 4.29289C9.51957 4.10536 9.26522 4 9 4H7Z" fill="black"/>
<path d="M11 2C10.2048 2 9.44127 2.31653 8.87891 2.87891C8.31655 3.44125 8 4.20474 8 5C8 5.79526 8.31655 6.55875 8.87891 7.12109C9.44127 7.68347 10.2048 8 11 8H13C13.7952 8 14.5587 7.68341 15.1211 7.12109C15.6835 6.55875 16 5.79525 16 5C16 4.20475 15.6835 3.44125 15.1211 2.87891C14.5587 2.31659 13.7952 2 13 2H11ZM11 4H13C13.2656 4 13.5192 4.10513 13.707 4.29297C13.8948 4.48076 14 4.73439 14 5C14 5.26561 13.8948 5.51924 13.707 5.70703C13.5192 5.89487 13.2656 6 13 6H11C10.7344 6 10.4807 5.89482 10.293 5.70703C10.1052 5.51923 10 5.2656 10 5C10 4.7344 10.1052 4.48077 10.293 4.29297C10.4807 4.10518 10.7344 4 11 4Z" fill="black"/>
<path d="M9 11C8.73478 11 8.48043 11.1054 8.29289 11.2929C8.10536 11.4804 8 11.7348 8 12V17C8 17.2652 8.10536 17.5196 8.29289 17.7071C8.48043 17.8946 8.73478 18 9 18C9.26522 18 9.51957 17.8946 9.70711 17.7071C9.89464 17.5196 10 17.2652 10 17V12C10 11.7348 9.89464 11.4804 9.70711 11.2929C9.51957 11.1054 9.26522 11 9 11Z" fill="black"/>
<path d="M12 15C11.7348 15 11.4804 15.1054 11.2929 15.2929C11.1054 15.4804 11 15.7348 11 16V17C11 17.2652 11.1054 17.5196 11.2929 17.7071C11.4804 17.8946 11.7348 18 12 18C12.2652 18 12.5196 17.8946 12.7071 17.7071C12.8946 17.5196 13 17.2652 13 17V16C13 15.7348 12.8946 15.4804 12.7071 15.2929C12.5196 15.1054 12.2652 15 12 15Z" fill="black"/>
<path d="M15 13C14.7348 13 14.4804 13.1054 14.2929 13.2929C14.1054 13.4804 14 13.7348 14 14V17C14 17.2652 14.1054 17.5196 14.2929 17.7071C14.4804 17.8946 14.7348 18 15 18C15.2652 18 15.5196 17.8946 15.7071 17.7071C15.8946 17.5196 16 17.2652 16 17V14C16 13.7348 15.8946 13.4804 15.7071 13.2929C15.5196 13.1054 15.2652 13 15 13Z" fill="black"/>
</g>
</g>
<defs>
<clipPath id="clip0_19819_1336">
<rect width="24" height="24" fill="white"/>
</clipPath>
</defs>
</svg>
