<svg width="24" height="24" viewBox="0 0 24 24" fill="none" xmlns="http://www.w3.org/2000/svg">
<g clip-path="url(#clip0_19819_1324)">
<mask id="mask0_19819_1324" style="mask-type:luminance" maskUnits="userSpaceOnUse" x="4" y="0" width="24" height="24">
<path d="M28 0H4V24H28V0Z" fill="white"/>
</mask>
<g mask="url(#mask0_19819_1324)">
<path d="M10 4C9.20474 4 8.44125 4.31655 7.87891 4.87891C7.31655 5.44125 7 6.20474 7 7V19C7 19.7952 7.31659 20.5587 7.87891 21.1211C8.44125 21.6835 9.20475 22 10 22H15.6973C15.9625 22 16.2168 21.8946 16.4044 21.7071C16.5919 21.5196 16.6973 21.2652 16.6973 21C16.6973 20.7348 16.5919 20.4804 16.4044 20.2929C16.2168 20.1054 15.9625 20 15.6973 20H10C9.73439 20 9.48076 19.8948 9.29297 19.707C9.10513 19.5192 9 19.2656 9 19V7C9 6.7344 9.10516 6.48077 9.29297 6.29297C9.48077 6.10516 9.7344 6 10 6H12C12.2652 6 12.5196 5.89464 12.7071 5.70711C12.8946 5.51957 13 5.26522 13 5C13 4.73478 12.8946 4.48043 12.7071 4.29289C12.5196 4.10536 12.2652 4 12 4H10Z" fill="black"/>
<path d="M22 13C21.7348 13 21.4804 13.1054 21.2929 13.2929C21.1054 13.4804 21 13.7348 21 14V18C21 18.2652 21.1054 18.5195 21.2929 18.7071C21.4805 18.8946 21.7348 19 22 19H26C26.2652 19 26.5196 18.8946 26.7071 18.7071C26.8946 18.5196 27 18.2652 27 18C27 17.7348 26.8946 17.4804 26.7071 17.2929C26.5196 17.1054 26.2652 17 26 17H23V14C23 13.7348 22.8946 13.4804 22.7071 13.2929C22.5196 13.1054 22.2652 13 22 13Z" fill="black"/>
<path d="M18 4C17.7348 4 17.4804 4.10536 17.2929 4.29289C17.1054 4.48043 17 4.73478 17 5C17 5.26522 17.1054 5.51957 17.2929 5.70711C17.4804 5.89464 17.7348 6 18 6H20C20.2656 6 20.5192 6.10513 20.707 6.29297C20.8948 6.48076 21 6.73439 21 7V11C21 11.2652 21.1054 11.5196 21.2929 11.7071C21.4804 11.8946 21.7348 12 22 12C22.2652 12 22.5196 11.8946 22.7071 11.7071C22.8946 11.5196 23 11.2652 23 11V7C23 6.20475 22.6835 5.44125 22.1211 4.87891C21.5587 4.31659 20.7952 4 20 4H18Z" fill="black"/>
<path d="M14 2C13.2047 2 12.4412 2.31655 11.8789 2.87891C11.3166 3.44125 11 4.20474 11 5C11 5.79526 11.3166 6.55875 11.8789 7.12109C12.4412 7.68345 13.2047 8 14 8H16C16.7952 8 17.5587 7.68341 18.1211 7.12109C18.6835 6.55875 19 5.79525 19 5C19 4.20475 18.6835 3.44125 18.1211 2.87891C17.5587 2.31659 16.7952 2 16 2H14ZM14 4H16C16.2656 4 16.5192 4.10513 16.707 4.29297C16.8948 4.48076 17 4.73439 17 5C17 5.26561 16.8948 5.51924 16.707 5.70703C16.5192 5.89487 16.2656 6 16 6H14C13.7344 6 13.4808 5.89484 13.293 5.70703C13.1052 5.51923 13 5.2656 13 5C13 4.7344 13.1052 4.48077 13.293 4.29297C13.4808 4.10516 13.7344 4 14 4Z" fill="black"/>
<path d="M22 13C20.6743 13 19.4022 13.5273 18.4648 14.4648C17.5273 15.4022 17 16.6743 17 18C17 19.3257 17.5273 20.5978 18.4648 21.5352C19.4022 22.4727 20.6743 23 22 23C23.3257 23 24.5978 22.4727 25.5352 21.5352C26.4727 20.5978 27 19.3257 27 18C27 16.6743 26.4727 15.4022 25.5352 14.4648C24.5978 13.5273 23.3257 13 22 13ZM22 15C22.7961 15 23.5583 15.316 24.1211 15.8789C24.684 16.4417 25 17.2039 25 18C25 18.7961 24.684 19.5583 24.1211 20.1211C23.5583 20.684 22.7961 21 22 21C21.2039 21 20.4417 20.684 19.8789 20.1211C19.316 19.5583 19 18.7961 19 18C19 17.2039 19.316 16.4417 19.8789 15.8789C20.4417 15.316 21.2039 15 22 15Z" fill="black"/>
<path d="M12 10C11.7348 10 11.4804 10.1054 11.2929 10.2929C11.1054 10.4804 11 10.7348 11 11C11 11.2652 11.1054 11.5196 11.2929 11.7071C11.4804 11.8946 11.7348 12 12 12H16C16.2652 12 16.5196 11.8946 16.7071 11.7071C16.8946 11.5196 17 11.2652 17 11C17 10.7348 16.8946 10.4804 16.7071 10.2929C16.5196 10.1054 16.2652 10 16 10H12Z" fill="black"/>
<path d="M12 14C11.7348 14 11.4804 14.1054 11.2929 14.2929C11.1054 14.4804 11 14.7348 11 15C11 15.2652 11.1054 15.5196 11.2929 15.7071C11.4804 15.8946 11.7348 16 12 16H15C15.2652 16 15.5196 15.8946 15.7071 15.7071C15.8946 15.5196 16 15.2652 16 15C16 14.7348 15.8946 14.4804 15.7071 14.2929C15.5196 14.1054 15.2652 14 15 14H12Z" fill="black"/>
</g>
</g>
<defs>
<clipPath id="clip0_19819_1324">
<rect width="24" height="24" fill="white"/>
</clipPath>
</defs>
</svg>
