<svg width="24" height="24" viewBox="0 0 24 24" fill="none" xmlns="http://www.w3.org/2000/svg">
<g clip-path="url(#clip0_19819_1358)">
<mask id="mask0_19819_1358" style="mask-type:luminance" maskUnits="userSpaceOnUse" x="0" y="0" width="24" height="24">
<path d="M24 0H0V24H24V0Z" fill="white"/>
</mask>
<g mask="url(#mask0_19819_1358)">
<path d="M10 2C8.94944 2 7.91004 2.20735 6.93945 2.60938C5.96887 3.01141 5.08661 3.60089 4.34375 4.34375C3.60089 5.08661 3.01141 5.96887 2.60938 6.93945C2.20735 7.91004 2 8.94944 2 10C2 11.0506 2.20736 12.09 2.60938 13.0605C3.01142 14.0312 3.60091 14.9134 4.34375 15.6562C5.08664 16.3992 5.96888 16.9886 6.93945 17.3906C7.90998 17.7925 8.94941 18 10 18C11.0506 18 12.09 17.7925 13.0605 17.3906C14.0312 16.9886 14.9134 16.3992 15.6562 15.6562C16.3992 14.9134 16.9886 14.0312 17.3906 13.0605C17.7925 12.09 18 11.0506 18 10C18 8.94941 17.7925 7.90998 17.3906 6.93945C16.9886 5.96888 16.3992 5.08664 15.6562 4.34375C14.9134 3.60091 14.0312 3.01142 13.0605 2.60938C12.09 2.20736 11.0506 2 10 2ZM10 4C10.788 4 11.5689 4.15549 12.2969 4.45703C13.0248 4.75857 13.685 5.20063 14.2422 5.75781C14.7994 6.31494 15.2414 6.97514 15.543 7.70312C15.8445 8.43116 16 9.21209 16 10C16 10.788 15.8445 11.5688 15.543 12.2969C15.2414 13.0249 14.7994 13.685 14.2422 14.2422C13.685 14.7994 13.0249 15.2414 12.2969 15.543C11.5688 15.8445 10.788 16 10 16C9.21209 16 8.43116 15.8445 7.70312 15.543C6.97514 15.2414 6.31494 14.7994 5.75781 14.2422C5.20063 13.685 4.75857 13.0248 4.45703 12.2969C4.15549 11.5689 4 10.788 4 10C4 9.21206 4.1555 8.43109 4.45703 7.70312C4.75857 6.97515 5.20066 6.31497 5.75781 5.75781C6.31497 5.20066 6.97515 4.75857 7.70312 4.45703C8.43109 4.1555 9.21206 4 10 4Z" fill="black"/>
<path d="M15 14C14.7348 14 14.4804 14.1054 14.2929 14.293C14.1054 14.4805 14.0001 14.7348 14.0001 15C14.0001 15.2652 14.1054 15.5195 14.2929 15.707L20.2929 21.707C20.4805 21.8945 20.7348 21.9998 21 21.9998C21.2651 21.9998 21.5195 21.8945 21.707 21.707C21.8945 21.5195 21.9998 21.2652 21.9998 21C21.9998 20.7348 21.8945 20.4805 21.707 20.293L15.707 14.293C15.5195 14.1054 15.2652 14 15 14Z" fill="black"/>
</g>
</g>
<defs>
<clipPath id="clip0_19819_1358">
<rect width="24" height="24" fill="white"/>
</clipPath>
</defs>
</svg>
