<svg width="24" height="24" viewBox="0 0 24 24" fill="none" xmlns="http://www.w3.org/2000/svg">
<g clip-path="url(#clip0_19819_1365)">
<mask id="mask0_19819_1365" style="mask-type:luminance" maskUnits="userSpaceOnUse" x="0" y="0" width="24" height="24">
<path d="M24 0H0V24H24V0Z" fill="white"/>
</mask>
<g mask="url(#mask0_19819_1365)">
<path d="M20.293 2.29306L9.29297 13.2931C9.10548 13.4806 9.00015 13.7349 9.00015 14.0001C9.00015 14.2653 9.10548 14.5196 9.29297 14.7071C9.4805 14.8946 9.73482 14.9999 10 14.9999C10.2652 14.9999 10.5195 14.8946 10.707 14.7071L21.707 3.70712C21.8945 3.51959 21.9999 3.26527 21.9999 3.00009C21.9999 2.73491 21.8945 2.48059 21.707 2.29306C21.5195 2.10557 21.2652 2.00024 21 2.00024C20.7348 2.00024 20.4805 2.10557 20.293 2.29306Z" fill="black"/>
<path d="M20.6602 2.0587L2.66016 8.5587C2.63432 8.56871 2.6089 8.57979 2.58398 8.59191C2.31421 8.71552 2.08408 8.91249 1.92383 9.16222C1.76357 9.41193 1.67969 9.70337 1.67969 10.0001C1.67969 10.2969 1.76381 10.5865 1.92383 10.836C1.92448 10.8367 1.92513 10.8374 1.92578 10.838C2.0861 11.0878 2.31461 11.2848 2.58398 11.4084L2.55273 11.3947L9.2539 14.7463L12.5898 21.4162C12.7135 21.6865 12.9125 21.916 13.1621 22.0763C13.1628 22.0763 13.1634 22.0763 13.1641 22.0763C13.4132 22.2358 13.7029 22.3205 14 22.3205C14.2972 22.3205 14.5867 22.2362 14.836 22.0763C14.8366 22.0763 14.8373 22.0763 14.838 22.0763C15.0882 21.9158 15.2848 21.6853 15.4083 21.4162C15.4204 21.3913 15.4315 21.3658 15.4415 21.34L21.9415 3.34001C22.0064 3.16121 22.0189 2.96761 21.9777 2.78194C21.9364 2.59626 21.843 2.4262 21.7085 2.2917C21.574 2.15721 21.404 2.06385 21.2183 2.02259C21.0326 1.98133 20.839 1.99383 20.6602 2.0587ZM19.334 4.66613L13.9316 19.6271L10.8945 13.5528C10.7978 13.3593 10.6408 13.2024 10.4473 13.1056L4.37305 10.0685L19.334 4.66613Z" fill="black"/>
</g>
</g>
<defs>
<clipPath id="clip0_19819_1365">
<rect width="24" height="24" fill="white"/>
</clipPath>
</defs>
</svg>
