<svg width="24" height="24" viewBox="0 0 24 24" fill="none" xmlns="http://www.w3.org/2000/svg">
<g clip-path="url(#clip0_19819_1381)">
<mask id="mask0_19819_1381" style="mask-type:luminance" maskUnits="userSpaceOnUse" x="0" y="0" width="24" height="24">
<path d="M24 0H0V24H24V0Z" fill="white"/>
</mask>
<g mask="url(#mask0_19819_1381)">
<path d="M12 2C10.8686 2 9.67209 2.76883 9.35352 4.08203C9.22946 4.5879 8.72146 4.79974 8.27344 4.52734C7.11906 3.82455 5.72968 4.1295 4.92969 4.92969C4.1297 5.72987 3.8263 7.11752 4.5293 8.27148V8.27343C4.58866 8.37079 4.624 8.48009 4.63281 8.59375C4.64162 8.70744 4.62371 8.82046 4.58008 8.92578C4.53642 9.03115 4.46748 9.12509 4.38086 9.19922C4.29426 9.27334 4.19281 9.32668 4.08203 9.35352C2.76883 9.67209 2 10.8686 2 12C2 13.1309 2.76794 14.3273 4.08008 14.6465C4.19076 14.6734 4.29427 14.7266 4.38086 14.8008C4.46742 14.875 4.53453 14.967 4.57812 15.0723C4.6217 15.1775 4.63965 15.2928 4.63086 15.4062C4.62207 15.5199 4.58672 15.6291 4.52734 15.7266C3.82455 16.8809 4.1295 18.2703 4.92969 19.0703C5.72987 19.8703 7.11752 20.1737 8.27148 19.4707H8.27343C8.37081 19.4113 8.48006 19.376 8.59375 19.3672C8.70717 19.3584 8.82029 19.3762 8.92578 19.4199H8.92773C9.0327 19.4634 9.125 19.5324 9.19921 19.6191C9.27328 19.7057 9.32667 19.8072 9.35351 19.918C9.67209 21.2312 10.8686 22 12 22C13.1309 22 14.3273 21.2321 14.6465 19.9199V19.9179C14.6735 19.8079 14.7269 19.7053 14.8008 19.6191C14.8746 19.533 14.9674 19.4655 15.0723 19.4218C15.1777 19.3782 15.2927 19.3603 15.4062 19.3691C15.5197 19.3779 15.629 19.4132 15.7266 19.4726C16.8809 20.1754 18.2703 19.8705 19.0703 19.0703C19.8703 18.2701 20.1737 16.8824 19.4707 15.7285V15.7265C19.4112 15.6289 19.376 15.5198 19.3672 15.4062C19.3584 15.2928 19.3763 15.1794 19.4199 15.0741V15.0721C19.4634 14.9671 19.5324 14.8749 19.6191 14.8006C19.7057 14.7266 19.8072 14.6732 19.918 14.6463C21.2312 14.3279 22 13.1314 22 12C22 10.8691 21.2321 9.67273 19.9199 9.35352H19.9179C19.8079 9.32647 19.7053 9.27304 19.6191 9.19922C19.5331 9.12549 19.4656 9.03256 19.4219 8.92773V8.92578C19.3788 8.82084 19.3604 8.70672 19.3691 8.59375C19.3779 8.48037 19.4133 8.37085 19.4727 8.27344C20.1754 7.11906 19.8705 5.72968 19.0703 4.92969C18.2701 4.1297 16.8825 3.8263 15.7285 4.5293H15.7265C15.629 4.58874 15.5198 4.624 15.4062 4.63281C15.2926 4.64162 15.1793 4.62365 15.0742 4.58008C14.9688 4.53642 14.8749 4.46748 14.8008 4.38086C14.7267 4.29425 14.6733 4.19281 14.6465 4.08203C14.3279 2.76883 13.1314 2 12 2ZM12 4C12.3306 4 12.5957 4.10994 12.7031 4.55273C12.8041 4.96956 13.0024 5.35581 13.2812 5.68164C13.5601 6.00745 13.9124 6.2636 14.3086 6.42773C14.7048 6.59194 15.133 6.6601 15.5605 6.62695C15.9881 6.5938 16.4015 6.45948 16.7676 6.23633C17.1566 5.99933 17.4222 6.10974 17.6562 6.34375C17.8903 6.57776 18.0009 6.8428 17.7637 7.23242C17.5408 7.59833 17.408 8.01198 17.375 8.43945C17.342 8.86671 17.4104 9.29563 17.5742 9.69141C17.7382 10.0872 17.9928 10.4399 18.3184 10.7188C18.6437 10.9974 19.0308 11.1956 19.4473 11.2969C19.8901 11.4043 20 11.6694 20 12C20 12.3306 19.8901 12.5957 19.4473 12.7031C19.0305 12.8041 18.6442 13.0023 18.3184 13.2812C17.9927 13.56 17.7364 13.912 17.5723 14.3086C17.4081 14.7047 17.3398 15.1327 17.373 15.5605C17.4062 15.9881 17.5405 16.4015 17.7637 16.7676C18.0007 17.1566 17.8903 17.4222 17.6562 17.6562C17.4222 17.8903 17.1572 18.0009 16.7676 17.7637C16.4018 17.5409 15.9881 17.408 15.5605 17.375C15.1333 17.342 14.7044 17.4104 14.3086 17.5742C13.9128 17.7381 13.5601 17.9929 13.2812 18.3184C13.0027 18.6437 12.8044 19.0308 12.7031 19.4473C12.5957 19.8901 12.3306 20 12 20C11.6694 20 11.4043 19.8901 11.2969 19.4473C11.1959 19.0305 10.9977 18.6442 10.7188 18.3184C10.44 17.9927 10.088 17.7364 9.69141 17.5723C9.29538 17.4082 8.86727 17.3398 8.43945 17.373C8.01252 17.4062 7.59815 17.541 7.23242 17.7637C6.84339 18.0007 6.57782 17.8903 6.34375 17.6562C6.10968 17.4222 5.99912 17.1572 6.23633 16.7676C6.45915 16.4017 6.59193 15.9879 6.625 15.5605C6.65809 15.1332 6.58975 14.7046 6.42578 14.3086C6.26183 13.9127 6.00706 13.5601 5.68164 13.2812C5.35627 13.0026 4.96917 12.8044 4.55273 12.7031C4.10994 12.5957 4 12.3306 4 12C4 11.6694 4.10994 11.4043 4.55273 11.2969C4.96956 11.1959 5.3558 10.9976 5.68164 10.7188C6.00746 10.4399 6.26359 10.0876 6.42773 9.69141C6.59188 9.2952 6.6601 8.867 6.62695 8.43945C6.59385 8.0125 6.45898 7.59816 6.23633 7.23242V7.23047C6.00134 6.84281 6.11025 6.57731 6.34375 6.34375C6.57776 6.10968 6.8428 5.99912 7.23242 6.23633H7.23437C8.78584 7.17962 10.8682 6.31561 11.2969 4.55273C11.4043 4.10994 11.6694 4 12 4Z" fill="black"/>
<path d="M12 8C10.9396 8 9.92177 8.42199 9.17188 9.17188C8.42199 9.92177 8 10.9396 8 12C8 13.0604 8.42198 14.0782 9.17188 14.8281C9.92176 15.578 10.9395 16 12 16C13.0605 16 14.0783 15.578 14.8281 14.8281C15.578 14.0783 16 13.0605 16 12C16 10.9395 15.578 9.92176 14.8281 9.17188C14.0782 8.42198 13.0604 8 12 8ZM12 10C12.5308 10 13.0387 10.2106 13.4141 10.5859C13.7894 10.9613 14 11.4693 14 12C14 12.5307 13.7894 13.0387 13.4141 13.4141C13.0387 13.7894 12.5307 14 12 14C11.4693 14 10.9613 13.7894 10.5859 13.4141C10.2106 13.0387 10 12.5308 10 12C10 11.4692 10.2106 10.9613 10.5859 10.5859C10.9613 10.2106 11.4692 10 12 10Z" fill="black"/>
</g>
</g>
<defs>
<clipPath id="clip0_19819_1381">
<rect width="24" height="24" fill="white"/>
</clipPath>
</defs>
</svg>
