<svg width="24" height="24" viewBox="0 0 24 24" fill="none" xmlns="http://www.w3.org/2000/svg">
<g clip-path="url(#clip0_19819_1372)">
<mask id="mask0_19819_1372" style="mask-type:luminance" maskUnits="userSpaceOnUse" x="0" y="0" width="24" height="24">
<path d="M24 0H0V24H24V0Z" fill="white"/>
</mask>
<g mask="url(#mask0_19819_1372)">
<path d="M12 2C10.8686 2 9.67209 2.76883 9.35352 4.08203C9.22946 4.5879 8.72146 4.79974 8.27344 4.52734C7.11906 3.82455 5.72968 4.1295 4.92969 4.92969C4.1297 5.72987 3.8263 7.11752 4.5293 8.27148V8.27343C4.58866 8.37079 4.624 8.48009 4.63281 8.59375C4.64162 8.70744 4.62371 8.82046 4.58008 8.92578C4.53642 9.03115 4.46748 9.12509 4.38086 9.19922C4.29426 9.27334 4.19281 9.32668 4.08203 9.35352C2.76883 9.67209 2 10.8686 2 12C2 13.1309 2.76794 14.3273 4.08008 14.6465C4.19076 14.6734 4.29427 14.7266 4.38086 14.8008C4.46742 14.875 4.53453 14.967 4.57812 15.0723C4.6217 15.1775 4.63965 15.2928 4.63086 15.4062C4.62207 15.5199 4.58672 15.6291 4.52734 15.7266C3.82455 16.8809 4.1295 18.2703 4.92969 19.0703C5.72987 19.8703 7.11752 20.1737 8.27148 19.4707H8.27343C8.37081 19.4113 8.48006 19.376 8.59375 19.3672C8.70717 19.3584 8.82029 19.3762 8.92578 19.4199H8.92773C9.0327 19.4634 9.125 19.5324 9.19921 19.6191C9.27328 19.7057 9.32667 19.8072 9.35351 19.918L9.34765 19.8984C9.46009 20.4096 9.72044 20.876 10.0957 21.2402C10.4711 21.6046 10.9467 21.8502 11.4609 21.9473C11.7215 21.9964 11.9909 21.9401 12.2099 21.7906C12.4289 21.6412 12.5796 21.4109 12.6289 21.1504C12.6781 20.8898 12.6217 20.6204 12.4723 20.4014C12.3229 20.1824 12.0926 20.0317 11.832 19.9824C11.703 19.9581 11.5846 19.8963 11.4902 19.8047C11.3959 19.7131 11.3289 19.5968 11.3008 19.4687C11.2996 19.4616 11.2983 19.4544 11.2969 19.4473C11.1959 19.0305 10.9977 18.6442 10.7188 18.3184C10.44 17.9927 10.088 17.7364 9.69141 17.5723C9.29538 17.4082 8.86727 17.3398 8.43945 17.373C8.01252 17.4062 7.59815 17.541 7.23242 17.7637C6.84339 18.0007 6.57782 17.8903 6.34375 17.6562C6.10968 17.4222 5.99912 17.1572 6.23633 16.7676C6.45915 16.4017 6.59193 15.9879 6.625 15.5605C6.65809 15.1332 6.58975 14.7046 6.42578 14.3086C6.26183 13.9127 6.00706 13.5601 5.68164 13.2812C5.35627 13.0026 4.96917 12.8044 4.55273 12.7031C4.10994 12.5957 4 12.3306 4 12C4 11.6694 4.10994 11.4043 4.55273 11.2969C4.96956 11.1959 5.3558 10.9976 5.68164 10.7188C6.00746 10.4399 6.26359 10.0876 6.42773 9.69141C6.59188 9.2952 6.6601 8.867 6.62695 8.43945C6.59385 8.0125 6.45898 7.59816 6.23633 7.23242V7.23047C6.00134 6.84281 6.11025 6.57731 6.34375 6.34375C6.57776 6.10968 6.8428 5.99912 7.23242 6.23633H7.23437C8.78584 7.17962 10.8682 6.31561 11.2969 4.55273C11.4043 4.10994 11.6694 4 12 4C12.3306 4 12.5957 4.10994 12.7031 4.55273C12.8041 4.96956 13.0024 5.35581 13.2812 5.68164C13.5601 6.00745 13.9124 6.2636 14.3086 6.42773C14.7048 6.59194 15.133 6.6601 15.5605 6.62695C15.9881 6.5938 16.4015 6.45948 16.7676 6.23633C17.1566 5.99933 17.4222 6.10974 17.6562 6.34375C17.8903 6.57776 18.0009 6.8428 17.7637 7.23242C17.5408 7.59833 17.408 8.01198 17.375 8.43945C17.342 8.86671 17.4104 9.29563 17.5742 9.69141C17.7382 10.0872 17.9928 10.4399 18.3184 10.7188C18.6437 10.9974 19.0308 11.1956 19.4473 11.2969C19.8145 11.3862 19.929 11.5713 19.9844 11.834C20.0388 12.0935 20.1941 12.3207 20.416 12.4658C20.638 12.6108 20.9085 12.6617 21.168 12.6074C21.2967 12.5805 21.4188 12.5284 21.5273 12.4542C21.6359 12.38 21.7287 12.2852 21.8005 12.175C21.8724 12.0649 21.9218 11.9417 21.946 11.8125C21.9701 11.6832 21.9686 11.5505 21.9414 11.4219C21.7468 10.4985 21.0087 9.61823 19.9199 9.35352C19.8092 9.3266 19.7058 9.27342 19.6191 9.19922C19.5331 9.12549 19.4656 9.03256 19.4219 8.92773V8.92578C19.3788 8.82084 19.3604 8.70672 19.3691 8.59375C19.3779 8.48037 19.4133 8.37085 19.4727 8.27344C20.1754 7.11906 19.8705 5.72968 19.0703 4.92969C18.2701 4.1297 16.8825 3.8263 15.7285 4.5293H15.7265C15.629 4.58874 15.5198 4.624 15.4062 4.63281C15.2926 4.64162 15.1793 4.62365 15.0742 4.58008C14.9688 4.53642 14.8749 4.46748 14.8008 4.38086C14.7267 4.29425 14.6733 4.19281 14.6465 4.08203C14.3279 2.76883 13.1314 2 12 2Z" fill="black"/>
<path d="M11.1211 8.09768C10.3833 8.2641 9.70671 8.63708 9.17189 9.1719C8.63717 9.70669 8.2641 10.3814 8.09767 11.1192C7.93125 11.8569 7.97901 12.6273 8.23244 13.3399C8.48585 14.0525 8.93639 14.6795 9.53126 15.1465C10.1262 15.6135 10.8414 15.9015 11.5938 15.9785C11.8574 16.0053 12.1209 15.9263 12.3263 15.759C12.5317 15.5916 12.6624 15.3496 12.6895 15.086C12.703 14.9553 12.6906 14.8232 12.6531 14.6973C12.6155 14.5714 12.5535 14.4541 12.4706 14.3522C12.3877 14.2502 12.2856 14.1656 12.17 14.1032C12.0544 14.0408 11.9276 14.0017 11.7969 13.9883C11.4205 13.9498 11.0631 13.8059 10.7656 13.5723C10.4682 13.3387 10.242 13.0264 10.1152 12.6699C9.9885 12.3135 9.9656 11.9276 10.0488 11.5586C10.1321 11.1896 10.3184 10.8536 10.5859 10.586C10.8534 10.3185 11.1915 10.1321 11.5606 10.0489C11.9294 9.96564 12.3135 9.98852 12.6699 10.1153C13.0263 10.242 13.3405 10.468 13.5742 10.7657C13.8071 11.0629 13.9518 11.4193 13.9902 11.795C14.0034 11.9256 14.0422 12.0525 14.1044 12.1681C14.1666 12.2838 14.251 12.3861 14.3528 12.4692C14.4545 12.5523 14.5717 12.6145 14.6975 12.6523C14.8233 12.6901 14.9553 12.7027 15.0859 12.6895C15.2168 12.6763 15.3438 12.6374 15.4596 12.5751C15.5755 12.5128 15.6779 12.4282 15.761 12.3262C15.844 12.2243 15.9062 12.1069 15.9439 11.9809C15.9815 11.8549 15.994 11.7227 15.9805 11.5918C15.9034 10.8395 15.6135 10.1242 15.1465 9.52932C14.6794 8.93453 14.0525 8.48392 13.3399 8.2305C12.6272 7.97707 11.8589 7.93122 11.1211 8.09768Z" fill="black"/>
<path d="M18 14C16.9395 14 15.9217 14.422 15.1719 15.1719C14.422 15.9217 14 16.9395 14 18C14 19.0605 14.422 20.0783 15.1719 20.8281C15.9217 21.578 16.9395 22 18 22C19.0605 22 20.0783 21.578 20.8281 20.8281C21.578 20.0783 22 19.0605 22 18C22 16.9395 21.578 15.9217 20.8281 15.1719C20.0783 14.422 19.0605 14 18 14ZM18 16C18.5307 16 19.0387 16.2106 19.4141 16.5859C19.7894 16.9613 20 17.4693 20 18C20 18.5307 19.7894 19.0387 19.4141 19.4141C19.0387 19.7894 18.5307 20 18 20C17.4693 20 16.9613 19.7894 16.5859 19.4141C16.2106 19.0387 16 18.5307 16 18C16 17.4693 16.2106 16.9613 16.5859 16.5859C16.9613 16.2106 17.4693 16 18 16Z" fill="black"/>
<path d="M19.4922 19.492C19.3047 19.6796 19.1994 19.9339 19.1994 20.1991C19.1994 20.4642 19.3047 20.7186 19.4922 20.9061L21.293 22.7069C21.4805 22.8944 21.7348 22.9997 22 22.9997C22.2652 22.9997 22.5195 22.8944 22.707 22.7069C22.8945 22.5194 22.9999 22.265 22.9999 21.9998C22.9999 21.7347 22.8945 21.4803 22.707 21.2928L20.9063 19.492C20.7187 19.3045 20.4644 19.1992 20.1992 19.1992C19.934 19.1992 19.6797 19.3045 19.4922 19.492Z" fill="black"/>
</g>
</g>
<defs>
<clipPath id="clip0_19819_1372">
<rect width="24" height="24" fill="white"/>
</clipPath>
</defs>
</svg>
