<?xml version="1.0" encoding="UTF-8" standalone="no"?>
<svg
   width="24"
   height="24"
   viewBox="0 0 24 24"
   fill="none"
   version="1.1"
   id="svg1"
   sodipodi:docname="share.svg"
   inkscape:version="1.3.2 (091e20e, 2023-11-25)"
   xmlns:inkscape="http://www.inkscape.org/namespaces/inkscape"
   xmlns:sodipodi="http://sodipodi.sourceforge.net/DTD/sodipodi-0.dtd"
   xmlns="http://www.w3.org/2000/svg"
   xmlns:svg="http://www.w3.org/2000/svg">
  <defs
     id="defs1" />
  <sodipodi:namedview
     id="namedview1"
     pagecolor="#505050"
     bordercolor="#eeeeee"
     borderopacity="1"
     inkscape:showpageshadow="0"
     inkscape:pageopacity="0"
     inkscape:pagecheckerboard="0"
     inkscape:deskcolor="#505050"
     inkscape:zoom="9.8333333"
     inkscape:cx="11.949153"
     inkscape:cy="12"
     inkscape:window-width="1504"
     inkscape:window-height="449"
     inkscape:window-x="0"
     inkscape:window-y="25"
     inkscape:window-maximized="0"
     inkscape:current-layer="svg1" />
  <path
     style="color:#000000;fill:#000000;stroke-linecap:round;stroke-linejoin:round;-inkscape-stroke:none"
     d="M 12.585938,3.0898438 A 1.0001,1.0001 0 0 0 12,4 V 7.234375 C 8.9106519,7.9457005 6.6174496,9.6662565 5.0820312,11.857422 3.4032182,14.253223 2.5231239,17.125775 2.0175781,19.814453 a 1.0001,1.0001 0 0 0 -0.00195,0.0078 C 2.0061426,19.875059 1.9999783,20.036498 2,20.037109 c 2.17e-5,6.11e-4 0.087703,0.374582 0.087891,0.375 1.871e-4,4.19e-4 0.3687888,0.431413 0.3691407,0.431641 3.518e-4,2.28e-4 0.4701873,0.158165 0.4707031,0.158203 5.157e-4,3.9e-5 0.2903366,-0.01938 0.2910156,-0.01953 6.79e-4,-1.49e-4 0.118971,-0.03318 0.1582031,-0.04883 0.078464,-0.0313 0.1193263,-0.05621 0.1523438,-0.07617 0.1320697,-0.07984 0.1474108,-0.105133 0.1835937,-0.136719 0.072366,-0.06317 0.1325454,-0.121325 0.2128907,-0.199219 0.1606905,-0.155788 0.3810131,-0.375783 0.6621093,-0.644531 0.5621926,-0.537496 1.3591427,-1.267784 2.2871094,-2 C 8.4263869,16.652824 10.315335,15.655208 12,15.292969 V 18 a 1.0001,1.0001 0 0 0 1.658203,0.751953 l 8,-7 a 1.0001,1.0001 0 0 0 0,-1.503906 l -8,-7.0000001 A 1.0001,1.0001 0 0 0 12.585938,3.0898438 Z M 14,6.203125 19.482422,11 14,15.796875 V 14 A 1.0001,1.0001 0 0 0 12.992188,13 C 10.242055,13.02264 7.6340758,14.729076 5.6347656,16.306641 5.3049819,16.566858 5.125883,16.757819 4.8339844,17.007812 5.3075443,15.572219 5.8920607,14.186445 6.7207031,13.003906 8.1531345,10.959712 10.12974,9.4611708 13.154297,8.9882813 A 1.0001,1.0001 0 0 0 14,8 Z"
     id="path1" />
</svg>
