<svg width="24" height="24" viewBox="0 0 24 24" fill="none" xmlns="http://www.w3.org/2000/svg">
<g clip-path="url(#clip0_19819_1525)">
<mask id="mask0_19819_1525" style="mask-type:luminance" maskUnits="userSpaceOnUse" x="0" y="0" width="24" height="24">
<path d="M24 0H0V24H24V0Z" fill="white"/>
</mask>
<g mask="url(#mask0_19819_1525)">
<path d="M4 5C3.73478 5 3.48043 5.10536 3.29289 5.29289C3.10536 5.48043 3 5.73478 3 6C3 6.26522 3.10536 6.51957 3.29289 6.70711C3.48043 6.89464 3.73478 7 4 7H13C13.2652 7 13.5196 6.89464 13.7071 6.70711C13.8946 6.51957 14 6.26522 14 6C14 5.73478 13.8946 5.48043 13.7071 5.29289C13.5196 5.10536 13.2652 5 13 5H4Z" fill="black"/>
<path d="M4 11C3.73478 11 3.48043 11.1054 3.29289 11.2929C3.10536 11.4804 3 11.7348 3 12C3 12.2652 3.10536 12.5196 3.29289 12.7071C3.48043 12.8946 3.73478 13 4 13H11C11.2652 13 11.5196 12.8946 11.7071 12.7071C11.8946 12.5196 12 12.2652 12 12C12 11.7348 11.8946 11.4804 11.7071 11.2929C11.5196 11.1054 11.2652 11 11 11H4Z" fill="black"/>
<path d="M4 17C3.73478 17 3.48043 17.1054 3.29289 17.2929C3.10536 17.4804 3 17.7348 3 18C3 18.2652 3.10536 18.5196 3.29289 18.7071C3.48043 18.8946 3.73478 19 4 19H11C11.2652 19 11.5196 18.8946 11.7071 18.7071C11.8946 18.5196 12 18.2652 12 18C12 17.7348 11.8946 17.4804 11.7071 17.2929C11.5196 17.1054 11.2652 17 11 17H4Z" fill="black"/>
<path d="M15 14C14.7348 14 14.4804 14.1054 14.2929 14.293C14.1054 14.4805 14.0001 14.7348 14.0001 15C14.0001 15.2652 14.1054 15.5195 14.2929 15.707L17.2929 18.707C17.4805 18.8945 17.7348 18.9998 18 18.9998C18.2651 18.9998 18.5195 18.8945 18.707 18.707L21.707 15.707C21.8945 15.5195 21.9998 15.2652 21.9998 15C21.9998 14.7348 21.8945 14.4805 21.707 14.293C21.5195 14.1055 21.2651 14.0002 21 14.0002C20.7348 14.0002 20.4805 14.1055 20.2929 14.293L18 16.5859L15.707 14.293C15.5195 14.1054 15.2652 14 15 14Z" fill="black"/>
<path d="M18 5C17.7348 5 17.4804 5.10536 17.2929 5.29289C17.1054 5.48043 17 5.73478 17 6V18C17 18.2652 17.1054 18.5196 17.2929 18.7071C17.4804 18.8946 17.7348 19 18 19C18.2652 19 18.5196 18.8946 18.7071 18.7071C18.8946 18.5196 19 18.2652 19 18V6C19 5.73478 18.8946 5.48043 18.7071 5.29289C18.5196 5.10536 18.2652 5 18 5Z" fill="black"/>
</g>
</g>
<defs>
<clipPath id="clip0_19819_1525">
<rect width="24" height="24" fill="white"/>
</clipPath>
</defs>
</svg>
