<svg width="24" height="24" viewBox="0 0 24 24" fill="none" xmlns="http://www.w3.org/2000/svg">
<g clip-path="url(#clip0_19819_1515)">
<mask id="mask0_19819_1515" style="mask-type:luminance" maskUnits="userSpaceOnUse" x="0" y="0" width="24" height="24">
<path d="M24 0H0V24H24V0Z" fill="white"/>
</mask>
<g mask="url(#mask0_19819_1515)">
<path d="M4 5C3.73478 5 3.48043 5.10536 3.29289 5.29289C3.10536 5.48043 3 5.73478 3 6C3 6.26522 3.10536 6.51957 3.29289 6.70711C3.48043 6.89464 3.73478 7 4 7H11C11.2652 7 11.5196 6.89464 11.7071 6.70711C11.8946 6.51957 12 6.26522 12 6C12 5.73478 11.8946 5.48043 11.7071 5.29289C11.5196 5.10536 11.2652 5 11 5H4Z" fill="black"/>
<path d="M4 11C3.73478 11 3.48043 11.1054 3.29289 11.2929C3.10536 11.4804 3 11.7348 3 12C3 12.2652 3.10536 12.5196 3.29289 12.7071C3.48043 12.8946 3.73478 13 4 13H11C11.2652 13 11.5196 12.8946 11.7071 12.7071C11.8946 12.5196 12 12.2652 12 12C12 11.7348 11.8946 11.4804 11.7071 11.2929C11.5196 11.1054 11.2652 11 11 11H4Z" fill="black"/>
<path d="M4 17C3.73478 17 3.48043 17.1054 3.29289 17.2929C3.10536 17.4804 3 17.7348 3 18C3 18.2652 3.10536 18.5196 3.29289 18.7071C3.48043 18.8946 3.73478 19 4 19H13C13.2652 19 13.5196 18.8946 13.7071 18.7071C13.8946 18.5196 14 18.2652 14 18C14 17.7348 13.8946 17.4804 13.7071 17.2929C13.5196 17.1054 13.2652 17 13 17H4Z" fill="black"/>
<path d="M17.2929 5.29278L14.2929 8.29278C14.1054 8.48031 14.0001 8.73463 14.0001 8.99981C14.0001 9.26499 14.1054 9.51931 14.2929 9.70684C14.4805 9.89433 14.7348 9.99966 15 9.99966C15.2651 9.99966 15.5195 9.89433 15.707 9.70684L18 7.41387L20.2929 9.70684C20.4805 9.89433 20.7348 9.99966 21 9.99966C21.2651 9.99966 21.5195 9.89433 21.707 9.70684C21.8945 9.51931 21.9998 9.26499 21.9998 8.99981C21.9998 8.73463 21.8945 8.48031 21.707 8.29278L18.707 5.29278C18.5195 5.10531 18.2651 5 18 5C17.7348 5 17.4805 5.10531 17.2929 5.29278Z" fill="black"/>
<path d="M18 5C17.7348 5 17.4804 5.10536 17.2929 5.29289C17.1054 5.48043 17 5.73478 17 6V18C17 18.2652 17.1054 18.5196 17.2929 18.7071C17.4804 18.8946 17.7348 19 18 19C18.2652 19 18.5196 18.8946 18.7071 18.7071C18.8946 18.5196 19 18.2652 19 18V6C19 5.73478 18.8946 5.48043 18.7071 5.29289C18.5196 5.10536 18.2652 5 18 5Z" fill="black"/>
</g>
</g>
<defs>
<clipPath id="clip0_19819_1515">
<rect width="24" height="24" fill="white"/>
</clipPath>
</defs>
</svg>
