<svg width="24" height="24" viewBox="0 0 24 24" fill="none" xmlns="http://www.w3.org/2000/svg">
<g clip-path="url(#clip0_19819_1542)">
<mask id="mask0_19819_1542" style="mask-type:luminance" maskUnits="userSpaceOnUse" x="0" y="0" width="24" height="24">
<path d="M24 0H0V24H24V0Z" fill="white"/>
</mask>
<g mask="url(#mask0_19819_1542)">
<path d="M4 2.99977C3.46994 2.99977 2.96073 3.21091 2.58594 3.58571C2.21113 3.96051 2 4.46971 2 4.99977V11.9998C2 12.5298 2.21102 13.039 2.58594 13.4138C2.96067 13.7885 3.46984 13.9998 4 13.9998H7C7.79605 13.9998 8.55822 14.3158 9.12109 14.8787C9.68396 15.4415 10 16.2037 10 16.9998V17.9998C10 18.795 10.3166 19.5585 10.8789 20.1209C11.4413 20.6832 12.2048 20.9998 13 20.9998C13.7952 20.9998 14.5587 20.6832 15.1211 20.1209C15.6834 19.5585 16 18.795 16 17.9998V13.9998H18C18.7952 13.9998 19.5587 13.6832 20.1211 13.1209C20.6834 12.5585 21 11.795 21 10.9998C20.9999 10.9342 20.9934 10.8688 20.9805 10.8045L19.9805 5.80446C19.9781 5.79334 19.9755 5.78227 19.9727 5.77125C19.7938 5.00802 19.4563 4.31745 18.9297 3.79078C18.403 3.2642 17.6713 2.93942 16.916 3.00367L17 2.99977H10C9.09454 2.99977 8.25387 3.36111 7.55078 3.91774C7.4815 3.81647 7.50199 3.67363 7.41406 3.58571C7.03927 3.21091 6.53006 2.99977 6 2.99977H4ZM17.084 4.99586C17.1943 4.98648 17.3207 5.01194 17.5156 5.2068C17.7096 5.40083 17.9164 5.7632 18.0254 6.22438C18.0258 6.22615 18.0269 6.22651 18.0274 6.22829L18.9864 11.031C18.9775 11.2836 18.8866 11.5273 18.7071 11.7068C18.5192 11.8946 18.2656 11.9998 18 11.9998H15C14.7348 11.9998 14.4805 12.1052 14.2929 12.2927C14.1054 12.4802 14 12.7346 14 12.9998V17.9998C14 18.2653 13.8949 18.519 13.707 18.7068C13.5192 18.8946 13.2656 18.9998 13 18.9998C12.7344 18.9998 12.4808 18.8946 12.293 18.7068C12.1051 18.519 12 18.2653 12 17.9998V16.9998C12 15.6741 11.4726 14.402 10.5352 13.4646C9.84262 12.772 8.94461 12.3965 8 12.199V6.99977C8 6.46895 8.21059 5.96105 8.58594 5.58571C8.96128 5.21036 9.46918 4.99977 10 4.99977H17C17.028 4.99964 17.0561 4.99834 17.084 4.99586ZM4 4.99977H6V6.99977V11.9998H4V4.99977Z" fill="black"/>
</g>
</g>
<defs>
<clipPath id="clip0_19819_1542">
<rect width="24" height="24" fill="white"/>
</clipPath>
</defs>
</svg>
