<svg width="24" height="24" viewBox="0 0 24 24" fill="none" xmlns="http://www.w3.org/2000/svg">
<g clip-path="url(#clip0_19819_1555)">
<mask id="mask0_19819_1555" style="mask-type:luminance" maskUnits="userSpaceOnUse" x="0" y="0" width="24" height="24">
<path d="M24 0H0V24H24V0Z" fill="white"/>
</mask>
<g mask="url(#mask0_19819_1555)">
<path d="M13 3C12.2048 3 11.4413 3.31659 10.8789 3.87891C10.3165 4.44125 10 5.20475 10 6V7C10 7.79605 9.68399 8.55822 9.12109 9.12109C8.55822 9.68399 7.79605 10 7 10H4C3.46984 10 2.96067 10.2113 2.58594 10.5859C2.21102 10.9608 2 11.4699 2 12V19C2 19.5301 2.21102 20.0392 2.58594 20.4141C2.96067 20.7887 3.46984 21 4 21H6C6.53016 21 7.03933 20.7887 7.41406 20.4141C7.50202 20.3261 7.48149 20.1833 7.55078 20.082C8.25385 20.6387 9.09452 21 10 21H17L16.916 20.9961C17.6712 21.0603 18.403 20.7356 18.9297 20.209C19.4562 19.6824 19.7938 18.9918 19.9727 18.2285C19.9754 18.2175 19.978 18.2064 19.9805 18.1953L20.9805 13.1953C20.9934 13.131 20.9999 13.0656 21 13C21 12.2048 20.6834 11.4413 20.1211 10.8789C19.5587 10.3166 18.7952 10 18 10H16V6C16 5.20475 15.6835 4.44125 15.1211 3.87891C14.5587 3.31659 13.7952 3 13 3ZM13 5C13.2656 5 13.5192 5.10513 13.707 5.29297C13.8948 5.48076 14 5.73439 14 6V11C14 11.2652 14.1054 11.5195 14.2929 11.7071C14.4805 11.8946 14.7348 12 15 12H18C18.2656 12 18.5192 12.1051 18.707 12.293C18.8865 12.4724 18.9774 12.7161 18.9863 12.9688L18.0254 17.7754C17.9165 18.2359 17.7095 18.5985 17.5156 18.793C17.3207 18.9878 17.1944 19.0133 17.084 19.0039C17.0561 19.0014 17.028 19.0001 17 19H10C9.46921 19 8.9613 18.7894 8.58594 18.4141C8.21062 18.0387 8 17.5308 8 17V11.8008C8.94461 11.6032 9.84262 11.2277 10.5352 10.5352C11.4726 9.59774 12 8.32568 12 7V6C12 5.73439 12.1052 5.48076 12.293 5.29297C12.4808 5.10513 12.7344 5 13 5ZM4 12H6V17V19H4V12Z" fill="black"/>
</g>
</g>
<defs>
<clipPath id="clip0_19819_1555">
<rect width="24" height="24" fill="white"/>
</clipPath>
</defs>
</svg>
