<svg width="24" height="24" viewBox="0 0 24 24" fill="none" xmlns="http://www.w3.org/2000/svg">
<g clip-path="url(#clip0_19819_1568)">
<mask id="mask0_19819_1568" style="mask-type:luminance" maskUnits="userSpaceOnUse" x="4" y="0" width="24" height="24">
<path d="M28 0H4V24H28V0Z" fill="white"/>
</mask>
<g mask="url(#mask0_19819_1568)">
<path d="M16 17C15.2048 17 14.4413 17.3166 13.8789 17.8789C13.3166 18.4413 13 19.2048 13 20C13 20.7952 13.3166 21.5587 13.8789 22.1211C14.4413 22.6834 15.2048 23 16 23C16.7952 23 17.5587 22.6834 18.1211 22.1211C18.6834 21.5587 19 20.7952 19 20C19 19.2048 18.6834 18.4413 18.1211 17.8789C17.5587 17.3166 16.7952 17 16 17ZM16 19C16.2656 19 16.5192 19.1051 16.707 19.293C16.8949 19.4808 17 19.7344 17 20C17 20.2656 16.8949 20.5192 16.707 20.707C16.5192 20.8949 16.2656 21 16 21C15.7344 21 15.4808 20.8949 15.293 20.707C15.1051 20.5192 15 20.2656 15 20C15 19.7344 15.1051 19.4808 15.293 19.293C15.4808 19.1051 15.7344 19 16 19Z" fill="black"/>
<path d="M8 19C7.73478 19 7.48043 19.1054 7.29289 19.2929C7.10536 19.4804 7 19.7348 7 20C7 20.2652 7.10536 20.5196 7.29289 20.7071C7.48043 20.8946 7.73478 21 8 21H14C14.2652 21 14.5196 20.8946 14.7071 20.7071C14.8946 20.5196 15 20.2652 15 20C15 19.7348 14.8946 19.4804 14.7071 19.2929C14.5196 19.1054 14.2652 19 14 19H8Z" fill="black"/>
<path d="M18 19C17.7348 19 17.4804 19.1054 17.2929 19.2929C17.1054 19.4804 17 19.7348 17 20C17 20.2652 17.1054 20.5196 17.2929 20.7071C17.4804 20.8946 17.7348 21 18 21H24C24.2652 21 24.5196 20.8946 24.7071 20.7071C24.8946 20.5196 25 20.2652 25 20C25 19.7348 24.8946 19.4804 24.7071 19.2929C24.5196 19.1054 24.2652 19 24 19H18Z" fill="black"/>
<path d="M11 2C10.4699 2 9.96073 2.21117 9.58594 2.58594C9.21117 2.96073 9 3.46994 9 4V12C9 12.5301 9.21102 13.0392 9.58594 13.4141C9.96067 13.7887 10.4698 14 11 14H13.5859L15.293 15.707C15.4805 15.8945 15.7348 15.9998 16 15.9998C16.2652 15.9998 16.5195 15.8945 16.707 15.707L18.4141 14H21C21.5302 14 22.0393 13.7889 22.4141 13.4141C22.7889 13.0393 23 12.5302 23 12V4C23 3.46984 22.7887 2.96067 22.4141 2.58594C22.0392 2.21102 21.5301 2 21 2H11ZM11 4H21V12H18C17.7348 12.0001 17.4805 12.1054 17.293 12.293L16 13.5859L14.707 12.293C14.5195 12.1054 14.2652 12.0001 14 12H11V4Z" fill="black"/>
</g>
</g>
<defs>
<clipPath id="clip0_19819_1568">
<rect width="24" height="24" fill="white"/>
</clipPath>
</defs>
</svg>
