<svg width="24" height="24" viewBox="0 0 24 24" fill="none" xmlns="http://www.w3.org/2000/svg">
<g clip-path="url(#clip0_19819_1616)">
<mask id="mask0_19819_1616" style="mask-type:luminance" maskUnits="userSpaceOnUse" x="0" y="0" width="24" height="24">
<path d="M24 0H0V24H24V0Z" fill="white"/>
</mask>
<g mask="url(#mask0_19819_1616)">
<path d="M12 17C11.2048 17 10.4413 17.3166 9.87891 17.8789C9.31655 18.4413 9 19.2048 9 20C9 20.7952 9.31655 21.5587 9.87891 22.1211C10.4413 22.6834 11.2048 23 12 23C12.7952 23 13.5587 22.6834 14.1211 22.1211C14.6834 21.5587 15 20.7952 15 20C15 19.2048 14.6834 18.4413 14.1211 17.8789C13.5587 17.3166 12.7952 17 12 17ZM12 19C12.2656 19 12.5192 19.1051 12.707 19.293C12.8949 19.4808 13 19.7344 13 20C13 20.2656 12.8949 20.5192 12.707 20.707C12.5192 20.8949 12.2656 21 12 21C11.7344 21 11.4808 20.8949 11.293 20.707C11.1051 20.5192 11 20.2656 11 20C11 19.7344 11.1051 19.4808 11.293 19.293C11.4808 19.1051 11.7344 19 12 19Z" fill="black"/>
<path d="M4 19C3.73478 19 3.48043 19.1054 3.29289 19.2929C3.10536 19.4804 3 19.7348 3 20C3 20.2652 3.10536 20.5196 3.29289 20.7071C3.48043 20.8946 3.73478 21 4 21H10C10.2652 21 10.5196 20.8946 10.7071 20.7071C10.8946 20.5196 11 20.2652 11 20C11 19.7348 10.8946 19.4804 10.7071 19.2929C10.5196 19.1054 10.2652 19 10 19H4Z" fill="black"/>
<path d="M14 19C13.7348 19 13.4804 19.1054 13.2929 19.2929C13.1054 19.4804 13 19.7348 13 20C13 20.2652 13.1054 20.5196 13.2929 20.7071C13.4804 20.8946 13.7348 21 14 21H20C20.2652 21 20.5196 20.8946 20.7071 20.7071C20.8946 20.5196 21 20.2652 21 20C21 19.7348 20.8946 19.4804 20.7071 19.2929C20.5196 19.1054 20.2652 19 20 19H14Z" fill="black"/>
<path d="M7 2C6.46994 2 5.96073 2.21117 5.58594 2.58594C5.21117 2.96073 5 3.46994 5 4V12C5 12.5301 5.21102 13.0392 5.58594 13.4141C5.96067 13.7887 6.46984 14 7 14H9.58594L11.293 15.707C11.4805 15.8945 11.7348 15.9998 12 15.9998C12.2652 15.9998 12.5195 15.8945 12.707 15.707L14.4141 14H17C17.5302 14 18.0393 13.7889 18.4141 13.4141C18.7889 13.0393 19 12.5302 19 12V4C19 3.46984 18.7887 2.96067 18.4141 2.58594C18.0392 2.21102 17.5301 2 17 2H7ZM7 4H17V12H14C13.7348 12.0001 13.4805 12.1054 13.293 12.293L12 13.5859L10.707 12.293C10.5195 12.1054 10.2652 12.0001 10 12H7V4Z" fill="black"/>
<path d="M9 5C8.73478 5 8.48043 5.10536 8.29289 5.29289C8.10536 5.48043 8 5.73478 8 6C8 6.26522 8.10536 6.51957 8.29289 6.70711C8.48043 6.89464 8.73478 7 9 7H15C15.2652 7 15.5196 6.89464 15.7071 6.70711C15.8946 6.51957 16 6.26522 16 6C16 5.73478 15.8946 5.48043 15.7071 5.29289C15.5196 5.10536 15.2652 5 15 5H9Z" fill="black"/>
<path d="M9 8C8.73478 8 8.48043 8.10536 8.29289 8.29289C8.10536 8.48043 8 8.73478 8 9C8 9.26522 8.10536 9.51957 8.29289 9.70711C8.48043 9.89464 8.73478 10 9 10H12C12.2652 10 12.5196 9.89464 12.7071 9.70711C12.8946 9.51957 13 9.26522 13 9C13 8.73478 12.8946 8.48043 12.7071 8.29289C12.5196 8.10536 12.2652 8 12 8H9Z" fill="black"/>
</g>
</g>
<defs>
<clipPath id="clip0_19819_1616">
<rect width="24" height="24" fill="white"/>
</clipPath>
</defs>
</svg>
