<?xml version="1.0" encoding="UTF-8" standalone="no"?>
<svg
   width="24"
   height="24"
   viewBox="0 0 24 24"
   fill="none"
   version="1.1"
   id="svg5"
   sodipodi:docname="trash.svg"
   inkscape:version="1.3.2 (091e20e, 2023-11-25)"
   xmlns:inkscape="http://www.inkscape.org/namespaces/inkscape"
   xmlns:sodipodi="http://sodipodi.sourceforge.net/DTD/sodipodi-0.dtd"
   xmlns="http://www.w3.org/2000/svg"
   xmlns:svg="http://www.w3.org/2000/svg">
  <defs
     id="defs5" />
  <sodipodi:namedview
     id="namedview5"
     pagecolor="#505050"
     bordercolor="#eeeeee"
     borderopacity="1"
     inkscape:showpageshadow="0"
     inkscape:pageopacity="0"
     inkscape:pagecheckerboard="0"
     inkscape:deskcolor="#505050"
     inkscape:zoom="9.8333333"
     inkscape:cx="11.949153"
     inkscape:cy="12"
     inkscape:window-width="1504"
     inkscape:window-height="449"
     inkscape:window-x="0"
     inkscape:window-y="25"
     inkscape:window-maximized="0"
     inkscape:current-layer="svg5" />
  <path
     style="color:#000000;fill:#000000;stroke-linecap:round;stroke-linejoin:round;-inkscape-stroke:none"
     d="M 4,6 A 1,1 0 0 0 3,7 1,1 0 0 0 4,8 H 20 A 1,1 0 0 0 21,7 1,1 0 0 0 20,6 Z"
     id="path1" />
  <path
     style="color:#000000;fill:#000000;stroke-linecap:round;stroke-linejoin:round;-inkscape-stroke:none"
     d="m 10,10 a 1,1 0 0 0 -1,1 v 6 a 1,1 0 0 0 1,1 1,1 0 0 0 1,-1 v -6 a 1,1 0 0 0 -1,-1 z"
     id="path2" />
  <path
     style="color:#000000;fill:#000000;stroke-linecap:round;stroke-linejoin:round;-inkscape-stroke:none"
     d="m 14,10 a 1,1 0 0 0 -1,1 v 6 a 1,1 0 0 0 1,1 1,1 0 0 0 1,-1 v -6 a 1,1 0 0 0 -1,-1 z"
     id="path3" />
  <path
     style="color:#000000;fill:#000000;stroke-linecap:round;stroke-linejoin:round;-inkscape-stroke:none"
     d="M 4.9160156,6.0039062 A 1,1 0 0 0 4.0039062,7.0839844 l 1,11.9999996 L 5,19 c 0,0.795243 0.3165904,1.558748 0.8789062,2.121094 C 6.4412548,21.683487 7.2047542,22 8,22 h 8 c 0.795231,0 1.55874,-0.316552 2.121094,-0.878906 C 18.683448,20.55874 19,19.795231 19,19 l -0.0039,0.08398 1,-11.9999996 a 1,1 0 0 0 -0.91211,-1.0800782 1,1 0 0 0 -1.080078,0.9121094 l -1,12.0000004 A 1.0001,1.0001 0 0 0 17,19 c 0,0.265568 -0.105124,0.519186 -0.292969,0.707031 C 16.519186,19.894876 16.265568,20 16,20 H 8 C 7.7343869,20 7.4807594,19.894837 7.2929687,19.707031 7.1051254,19.519178 7,19.265556 7,19 a 1.0001,1.0001 0 0 0 -0.00391,-0.08398 l -1,-12.0000004 A 1,1 0 0 0 4.9160156,6.0039062 Z"
     id="path4" />
  <path
     style="color:#000000;fill:#000000;stroke-linecap:round;stroke-linejoin:round;-inkscape-stroke:none"
     d="M 10,2 C 9.4699438,2 8.9607273,2.2111677 8.5859375,2.5859375 8.2111677,2.9607273 8,3.4699438 8,4 V 7 A 1,1 0 0 0 9,8 1,1 0 0 0 10,7 V 4 h 4 v 3 a 1,1 0 0 0 1,1 1,1 0 0 0 1,-1 V 4 C 16,3.4698432 15.788716,2.9606708 15.414063,2.5859375 15.039202,2.2110167 14.530056,2 14,2 Z"
     id="path5" />
</svg>
