<svg width="24" height="24" viewBox="0 0 24 24" fill="none" xmlns="http://www.w3.org/2000/svg">
<g clip-path="url(#clip0_19819_1719)">
<mask id="mask0_19819_1719" style="mask-type:luminance" maskUnits="userSpaceOnUse" x="0" y="0" width="24" height="24">
<path d="M24 0H0V24H24V0Z" fill="white"/>
</mask>
<g mask="url(#mask0_19819_1719)">
<path d="M9 2C7.6743 2 6.40225 2.52745 5.46484 3.46484C4.52745 4.40225 4 5.6743 4 7C4 8.3257 4.52745 9.59775 5.46484 10.5352C6.40226 11.4726 7.67432 12 9 12C10.3257 12 11.5978 11.4726 12.5352 10.5352C13.4726 9.59773 14 8.32568 14 7C14 5.67432 13.4726 4.40227 12.5352 3.46484C11.5978 2.52742 10.3257 2 9 2ZM9 4C9.79607 4 10.5583 4.31605 11.1211 4.87891C11.684 5.44178 12 6.20395 12 7C12 7.79605 11.684 8.55822 11.1211 9.12109C10.5583 9.68396 9.79609 10 9 10C8.20395 10 7.44178 9.68399 6.87891 9.12109C6.31602 8.5582 6 7.79604 6 7C6 6.20396 6.31602 5.4418 6.87891 4.87891C7.4418 4.31602 8.20396 4 9 4Z" fill="black"/>
<path d="M7 14C5.67432 14 4.40227 14.5274 3.46484 15.4648C2.52742 16.4022 2 17.6743 2 19V21C2 21.2652 2.10536 21.5196 2.29289 21.7071C2.48043 21.8946 2.73478 22 3 22C3.26522 22 3.51957 21.8946 3.70711 21.7071C3.89464 21.5196 4 21.2652 4 21V19C4 18.2039 4.31605 17.4417 4.87891 16.8789C5.44178 16.316 6.20395 16 7 16H11C11.7961 16 12.5583 16.316 13.1211 16.8789C13.684 17.4417 14 18.2039 14 19V21C14 21.2652 14.1054 21.5196 14.2929 21.7071C14.4804 21.8946 14.7348 22 15 22C15.2652 22 15.5196 21.8946 15.7071 21.7071C15.8946 21.5196 16 21.2652 16 21V19C16 17.6743 15.4727 16.4022 14.5352 15.4648C13.5978 14.5273 12.3257 14 11 14H7Z" fill="black"/>
<path d="M16.248 2.16211C16.1208 2.12954 15.9884 2.12234 15.8584 2.14093C15.7284 2.15952 15.6034 2.20353 15.4904 2.27046C15.3774 2.33738 15.2787 2.4259 15.1999 2.53097C15.1211 2.63604 15.0638 2.7556 15.0313 2.88281C14.9987 3.01003 14.9915 3.14242 15.0101 3.27242C15.0287 3.40242 15.0727 3.52749 15.1396 3.64048C15.2065 3.75347 15.295 3.85217 15.4001 3.93095C15.5052 4.00973 15.6247 4.06704 15.752 4.09961C16.3974 4.26488 16.9684 4.63967 17.377 5.16602C17.7855 5.69234 18.0078 6.33957 18.0078 7.00586C18.0078 7.67216 17.7855 8.31741 17.377 8.84375C16.9684 9.3701 16.3974 9.74685 15.752 9.91211C15.6247 9.94469 15.5052 10.002 15.4001 10.0808C15.295 10.1596 15.2065 10.2583 15.1396 10.3712C15.0727 10.4842 15.0287 10.6093 15.0101 10.7393C14.9915 10.8693 14.9987 11.0017 15.0313 11.1289C15.0638 11.2561 15.1211 11.3757 15.1999 11.4808C15.2787 11.5858 15.3774 11.6743 15.4904 11.7413C15.6034 11.8082 15.7284 11.8522 15.8584 11.8708C15.9884 11.8894 16.1208 11.8822 16.248 11.8496C17.3234 11.5743 18.2764 10.9472 18.957 10.0703C19.6377 9.19343 20.0078 8.11592 20.0078 7.00586C20.0078 5.89581 19.6377 4.81633 18.957 3.93946C18.2764 3.06258 17.3234 2.43746 16.248 2.16211Z" fill="black"/>
<path d="M18.25 14.1817C18.1228 14.1489 17.9903 14.1413 17.8602 14.1597C17.7301 14.178 17.6048 14.2218 17.4916 14.2885C17.3785 14.3553 17.2795 14.4437 17.2005 14.5487C17.1215 14.6537 17.064 14.7732 17.0312 14.9005C16.9983 15.0277 16.9908 15.1602 17.0092 15.2903C17.0275 15.4204 17.0713 15.5456 17.138 15.6588C17.2048 15.772 17.2932 15.8709 17.3982 15.9499C17.5032 16.0289 17.6227 16.0865 17.75 16.1192C18.3912 16.2848 18.96 16.6573 19.3672 17.1798C19.7742 17.7022 19.9962 18.3437 20 19.006V21.0001C20 21.2653 20.1053 21.5197 20.2929 21.7072C20.4804 21.8948 20.7348 22.0001 21 22.0001C21.2652 22.0001 21.5196 21.8948 21.7071 21.7072C21.8946 21.5197 22 21.2653 22 21.0001V19.0001V18.9942C21.9936 17.8909 21.6215 16.8197 20.9433 15.9493C20.2651 15.079 19.3183 14.4576 18.25 14.1817Z" fill="black"/>
</g>
</g>
<defs>
<clipPath id="clip0_19819_1719">
<rect width="24" height="24" fill="white"/>
</clipPath>
</defs>
</svg>
