<svg width="24" height="24" viewBox="0 0 24 24" fill="none" xmlns="http://www.w3.org/2000/svg">
<g clip-path="url(#clip0_19819_1653)">
<mask id="mask0_19819_1653" style="mask-type:luminance" maskUnits="userSpaceOnUse" x="0" y="0" width="24" height="24">
<path d="M24 0H0V24H24V0Z" fill="white"/>
</mask>
<g mask="url(#mask0_19819_1653)">
<path d="M12 2C10.6868 2 9.38707 2.25918 8.17383 2.76172C6.96059 3.26427 5.85827 4.00111 4.92969 4.92969C4.00111 5.85827 3.26427 6.96059 2.76172 8.17383C2.25918 9.38707 2 10.6868 2 12C2 13.3132 2.25919 14.6129 2.76172 15.8262C3.26427 17.0394 4.00115 18.1417 4.92969 19.0703C5.85827 19.9989 6.96061 20.7357 8.17383 21.2383C9.38707 21.7408 10.6868 22 12 22C13.3132 22 14.6129 21.7408 15.8262 21.2383C17.0394 20.7357 18.1417 19.9988 19.0703 19.0703C19.9988 18.1417 20.7357 17.0394 21.2383 15.8262C21.7408 14.6129 22 13.3132 22 12C22 10.6868 21.7408 9.38707 21.2383 8.17383C20.7357 6.96061 19.9989 5.85827 19.0703 4.92969C18.1417 4.00115 17.0394 3.26427 15.8262 2.76172C14.6129 2.25919 13.3132 2 12 2ZM12 4C13.0506 4 14.0918 4.20732 15.0625 4.60938C16.0325 5.01141 16.9137 5.60122 17.6562 6.34375C18.3991 7.08663 18.9886 7.96882 19.3906 8.93945C19.7927 9.91007 20 10.9494 20 12C20 13.0499 19.7922 14.0903 19.3906 15.0605C18.9886 16.0311 18.3991 16.9133 17.6562 17.6562C16.9133 18.3991 16.0311 18.9886 15.0605 19.3906C14.0903 19.7922 13.0499 20 12 20C10.9494 20 9.91007 19.7927 8.93945 19.3906C7.96882 18.9886 7.08663 18.3991 6.34375 17.6562C5.60122 16.9137 5.01141 16.0325 4.60938 15.0625V15.0605C4.20781 14.0903 4 13.0499 4 12C4 10.9494 4.20733 9.91007 4.60938 8.93945C5.01143 7.96883 5.60087 7.08663 6.34375 6.34375C7.08663 5.60087 7.96883 5.01143 8.93945 4.60938C9.91007 4.20733 10.9494 4 12 4Z" fill="black"/>
<path d="M12 6C10.9396 6 9.92177 6.42199 9.17188 7.17188C8.422 7.92175 8 8.93952 8 10C8 11.0604 8.42198 12.0782 9.17188 12.8281C9.92176 13.578 10.9395 14 12 14C13.0605 14 14.0783 13.578 14.8281 12.8281C15.578 12.0783 16 11.0605 16 10C16 8.93949 15.578 7.92173 14.8281 7.17188C14.0782 6.42198 13.0604 6 12 6ZM12 8C12.5308 8 13.0387 8.21062 13.4141 8.58594C13.7894 8.9613 14 9.46921 14 10C14 10.5307 13.7894 11.0387 13.4141 11.4141C13.0387 11.7894 12.5307 12 12 12C11.4693 12 10.9613 11.7894 10.5859 11.4141C10.2106 11.0387 10 10.5308 10 10C10 9.46918 10.2106 8.96128 10.5859 8.58594C10.9613 8.2106 11.4692 8 12 8Z" fill="black"/>
<path d="M9.99999 15C8.92485 14.9996 7.87831 15.3469 7.01562 15.9883C6.1529 16.6297 5.52028 17.5309 5.21093 18.5605C5.17305 18.6864 5.16032 18.8184 5.17349 18.9491C5.18666 19.0798 5.22546 19.2067 5.28768 19.3224C5.34989 19.4381 5.4343 19.5405 5.53608 19.6236C5.63786 19.7066 5.75502 19.7689 5.88085 19.8066C6.13467 19.8826 6.40824 19.8547 6.64151 19.729C6.87477 19.6034 7.04866 19.3904 7.12499 19.1367C7.31066 18.5187 7.69114 17.9768 8.20898 17.5918C8.72682 17.2068 9.35484 16.9998 9.99999 17H14C14.646 16.9998 15.2747 17.2079 15.793 17.5938C16.3111 17.9796 16.69 18.5215 16.875 19.1406C16.9126 19.2666 16.9746 19.384 17.0576 19.486C17.1406 19.588 17.2429 19.6726 17.3587 19.735C17.4744 19.7974 17.6013 19.8364 17.7322 19.8497C17.863 19.863 17.9952 19.8503 18.1211 19.8125C18.3751 19.7366 18.5886 19.5629 18.7146 19.3295C18.8406 19.0962 18.8688 18.8224 18.793 18.5684C18.4848 17.537 17.8515 16.6331 16.9883 15.9902C16.1249 15.3473 15.0764 14.9996 14 15H9.99999Z" fill="black"/>
</g>
</g>
<defs>
<clipPath id="clip0_19819_1653">
<rect width="24" height="24" fill="white"/>
</clipPath>
</defs>
</svg>
