<svg width="24" height="24" viewBox="0 0 24 24" fill="none" xmlns="http://www.w3.org/2000/svg">
<g clip-path="url(#clip0_19819_1710)">
<mask id="mask0_19819_1710" style="mask-type:luminance" maskUnits="userSpaceOnUse" x="0" y="0" width="24" height="24">
<path d="M24 0H0V24H24V0Z" fill="white"/>
</mask>
<g mask="url(#mask0_19819_1710)">
<path d="M12 2C10.6743 2 9.40224 2.52746 8.46484 3.46484C7.52745 4.40225 7 5.6743 7 7C7 8.3257 7.52745 9.59775 8.46484 10.5352C9.40225 11.4726 10.6743 12 12 12C13.3257 12 14.5978 11.4726 15.5352 10.5352C16.4726 9.59773 17 8.32568 17 7C17 5.67432 16.4726 4.40227 15.5352 3.46484C14.5978 2.52742 13.3257 2 12 2ZM12 4C12.7961 4 13.5583 4.31605 14.1211 4.87891C14.684 5.44178 15 6.20395 15 7C15 7.79605 14.684 8.55822 14.1211 9.12109C13.5583 9.68396 12.7961 10 12 10C11.2039 10 10.4418 9.684 9.87891 9.12109C9.31602 8.5582 9 7.79604 9 7C9 6.20396 9.31602 5.4418 9.87891 4.87891C10.4418 4.31602 11.2039 4 12 4Z" fill="black"/>
<path d="M10 14C8.67432 14 7.40227 14.5274 6.46484 15.4648C5.52742 16.4022 5 17.6743 5 19V21C5 21.2652 5.10536 21.5196 5.29289 21.7071C5.48043 21.8946 5.73478 22 6 22C6.26522 22 6.51957 21.8946 6.70711 21.7071C6.89464 21.5196 7 21.2652 7 21V19C7 18.2039 7.31605 17.4417 7.87891 16.8789C8.44178 16.316 9.20395 16 10 16H13.5C13.7652 16 14.0196 15.8946 14.2071 15.7071C14.3946 15.5196 14.5 15.2652 14.5 15C14.5 14.7348 14.3946 14.4804 14.2071 14.2929C14.0196 14.1054 13.7652 14 13.5 14H10Z" fill="black"/>
<path d="M16.2929 16.2928C16.1055 16.4803 16.0001 16.7347 16.0001 16.9998C16.0001 17.265 16.1055 17.5194 16.2929 17.7069L21.2929 22.7069C21.4805 22.8944 21.7348 22.9997 22 22.9997C22.2652 22.9997 22.5195 22.8944 22.707 22.7069C22.8945 22.5194 22.9998 22.265 22.9998 21.9998C22.9998 21.7347 22.8945 21.4803 22.707 21.2928L17.707 16.2928C17.5195 16.1053 17.2652 16 17 16C16.7348 16 16.4805 16.1053 16.2929 16.2928Z" fill="black"/>
<path d="M21.2929 16.2928L16.2929 21.2928C16.1055 21.4803 16.0001 21.7347 16.0001 21.9998C16.0001 22.265 16.1055 22.5194 16.2929 22.7069C16.4805 22.8944 16.7348 22.9997 17 22.9997C17.2652 22.9997 17.5195 22.8944 17.707 22.7069L22.707 17.7069C22.8945 17.5194 22.9998 17.265 22.9998 16.9998C22.9998 16.7347 22.8945 16.4803 22.707 16.2928C22.5195 16.1053 22.2652 16 22 16C21.7348 16 21.4805 16.1053 21.2929 16.2928Z" fill="black"/>
</g>
</g>
<defs>
<clipPath id="clip0_19819_1710">
<rect width="24" height="24" fill="white"/>
</clipPath>
</defs>
</svg>
