<svg width="24" height="24" viewBox="0 0 24 24" fill="none" xmlns="http://www.w3.org/2000/svg">
<g clip-path="url(#clip0_19819_1638)">
<mask id="mask0_19819_1638" style="mask-type:luminance" maskUnits="userSpaceOnUse" x="0" y="0" width="24" height="24">
<path d="M24 0H0V24H24V0Z" fill="white"/>
</mask>
<g mask="url(#mask0_19819_1638)">
<path d="M12 2C10.6743 2 9.40224 2.52746 8.46484 3.46484C7.52745 4.40225 7 5.6743 7 7C7 8.3257 7.52745 9.59775 8.46484 10.5352C9.40225 11.4726 10.6743 12 12 12C13.3257 12 14.5978 11.4726 15.5352 10.5352C16.4726 9.59773 17 8.32568 17 7C17 5.67432 16.4726 4.40227 15.5352 3.46484C14.5978 2.52742 13.3257 2 12 2ZM12 4C12.7961 4 13.5583 4.31605 14.1211 4.87891C14.684 5.44178 15 6.20395 15 7C15 7.79605 14.684 8.55822 14.1211 9.12109C13.5583 9.68396 12.7961 10 12 10C11.2039 10 10.4418 9.684 9.87891 9.12109C9.31602 8.5582 9 7.79604 9 7C9 6.20396 9.31602 5.4418 9.87891 4.87891C10.4418 4.31602 11.2039 4 12 4Z" fill="black"/>
<path d="M10 14C8.67432 14 7.40227 14.5274 6.46484 15.4648C5.52742 16.4022 5 17.6743 5 19V21C5 21.2652 5.10536 21.5196 5.29289 21.7071C5.48043 21.8946 5.73478 22 6 22C6.26522 22 6.51957 21.8946 6.70711 21.7071C6.89464 21.5196 7 21.2652 7 21V19C7 18.2039 7.31605 17.4417 7.87891 16.8789C8.44178 16.316 9.20395 16 10 16H14C14.7961 16 15.5583 16.316 16.1211 16.8789C16.684 17.4417 17 18.2039 17 19V21C17 21.2652 17.1054 21.5196 17.2929 21.7071C17.4804 21.8946 17.7348 22 18 22C18.2652 22 18.5196 21.8946 18.7071 21.7071C18.8946 21.5196 19 21.2652 19 21V19C19 17.6743 18.4727 16.4022 17.5352 15.4648C16.5978 14.5273 15.3257 14 14 14H10Z" fill="black"/>
</g>
</g>
<defs>
<clipPath id="clip0_19819_1638">
<rect width="24" height="24" fill="white"/>
</clipPath>
</defs>
</svg>
