<?xml version="1.0" encoding="UTF-8" standalone="no"?>
<svg
   width="24"
   height="24"
   viewBox="0 0 24 24"
   fill="none"
   version="1.1"
   id="svg4"
   sodipodi:docname="user-pin.svg"
   inkscape:version="1.3.2 (091e20e, 2023-11-25)"
   xmlns:inkscape="http://www.inkscape.org/namespaces/inkscape"
   xmlns:sodipodi="http://sodipodi.sourceforge.net/DTD/sodipodi-0.dtd"
   xmlns="http://www.w3.org/2000/svg"
   xmlns:svg="http://www.w3.org/2000/svg">
  <defs
     id="defs4" />
  <sodipodi:namedview
     id="namedview4"
     pagecolor="#505050"
     bordercolor="#eeeeee"
     borderopacity="1"
     inkscape:showpageshadow="0"
     inkscape:pageopacity="0"
     inkscape:pagecheckerboard="0"
     inkscape:deskcolor="#505050"
     inkscape:zoom="9.8333333"
     inkscape:cx="11.949153"
     inkscape:cy="12"
     inkscape:window-width="1504"
     inkscape:window-height="449"
     inkscape:window-x="0"
     inkscape:window-y="25"
     inkscape:window-maximized="0"
     inkscape:current-layer="svg4" />
  <path
     style="color:#000000;fill:#000000;stroke-linecap:round;stroke-linejoin:round;-inkscape-stroke:none"
     d="M 12,2 C 10.674276,2 9.4022439,2.5274561 8.4648438,3.4648438 7.5274467,4.4022533 7,5.6742984 7,7 7,8.3257016 7.5274467,9.5977467 8.4648438,10.535156 9.4022548,11.472592 10.674295,12 12,12 13.325705,12 14.597774,11.472626 15.535156,10.535156 16.472641,9.5977342 17,8.3256828 17,7 17,5.6743172 16.472641,4.4022658 15.535156,3.4648438 14.597785,2.5274223 13.325724,2 12,2 Z m 0,2 c 0.796074,0 1.558267,0.3160492 2.121094,0.8789062 C 14.684008,5.4417827 15,6.2039449 15,7 15,7.7960551 14.684008,8.5582173 14.121094,9.1210938 13.558278,9.6839623 12.796093,10 12,10 11.203907,10 10.441794,9.6839962 9.8789063,9.1210938 9.3160248,8.5582048 9,7.7960363 9,7 9,6.2039637 9.3160248,5.4417952 9.8789063,4.8789062 10.441805,4.3160154 11.203926,4 12,4 Z"
     id="path1" />
  <path
     style="color:#000000;fill:#000000;stroke-linecap:round;stroke-linejoin:round;-inkscape-stroke:none"
     d="M 10,14 C 8.6743172,14 7.4022658,14.527359 6.4648437,15.464844 5.5274223,16.402215 5,17.674276 5,19 v 2 a 1,1 0 0 0 1,1 1,1 0 0 0 1,-1 V 19 C 7,18.203926 7.3160492,17.441733 7.8789062,16.878906 8.4417827,16.315992 9.2039449,16 10,16 h 2.5 a 1,1 0 0 0 1,-1 1,1 0 0 0 -1,-1 z"
     id="path2" />
  <path
     style="color:#000000;fill:#000000;stroke-linecap:round;stroke-linejoin:round;-inkscape-stroke:none"
     d="m 19,14 c -0.79113,0 -1.564943,0.234331 -2.222656,0.673828 -0.657714,0.439498 -1.170005,1.063892 -1.472656,1.794922 -0.302811,0.730959 -0.382873,1.534764 -0.228516,2.310547 0.154407,0.776035 0.536457,1.489582 1.095703,2.048828 0.464461,0.465572 1.179293,1.096867 2.185547,1.939453 a 1.0001,1.0001 0 0 0 1.289062,-0.0039 c 1.058458,-0.896315 1.765203,-1.517959 2.181641,-1.935547 0.559246,-0.559246 0.941296,-1.272793 1.095703,-2.048828 0.154357,-0.775783 0.07429,-1.579588 -0.228516,-2.310547 C 22.392661,15.73772 21.88037,15.113326 21.222656,14.673828 20.564943,14.234331 19.79113,14 19,14 Z m 0,2 c 0.395669,0 0.782242,0.116035 1.111328,0.335937 0.329085,0.219902 0.58498,0.53287 0.736328,0.898438 0.151389,0.36544 0.190524,0.768034 0.113281,1.15625 -0.07719,0.387964 -0.266921,0.743484 -0.546875,1.023437 a 1.0001,1.0001 0 0 0 -0.002,0.002 C 20.201181,19.627527 19.566692,20.171975 19,20.664062 c -0.550799,-0.476104 -1.156858,-0.994137 -1.412109,-1.25 a 1.0001,1.0001 0 0 0 -0.002,0 c -0.279953,-0.279953 -0.469682,-0.635473 -0.546875,-1.023437 -0.07724,-0.388216 -0.03811,-0.79081 0.113282,-1.15625 0.151348,-0.365568 0.407243,-0.678536 0.736328,-0.898438 C 18.217758,16.116035 18.604331,16 19,16 Z"
     id="path3" />
  <path
     style="color:#000000;fill:#000000;stroke-linecap:round;stroke-linejoin:round;-inkscape-stroke:none"
     d="m 19,17 a 1,1 0 0 0 -1,1 v 0.0098 a 1,1 0 0 0 1,1 1,1 0 0 0 1,-1 V 18 a 1,1 0 0 0 -1,-1 z"
     id="path4" />
</svg>
