<svg width="24" height="24" viewBox="0 0 24 24" fill="none" xmlns="http://www.w3.org/2000/svg">
<g clip-path="url(#clip0_19819_1684)">
<mask id="mask0_19819_1684" style="mask-type:luminance" maskUnits="userSpaceOnUse" x="0" y="0" width="24" height="24">
<path d="M24 0H0V24H24V0Z" fill="white"/>
</mask>
<g mask="url(#mask0_19819_1684)">
<path d="M12 2C10.6743 2 9.40224 2.52746 8.46484 3.46484C7.52745 4.40225 7 5.6743 7 7C7 8.3257 7.52745 9.59775 8.46484 10.5352C9.40225 11.4726 10.6743 12 12 12C13.3257 12 14.5978 11.4726 15.5352 10.5352C16.4726 9.59773 17 8.32568 17 7C17 5.67432 16.4726 4.40227 15.5352 3.46484C14.5978 2.52742 13.3257 2 12 2ZM12 4C12.7961 4 13.5583 4.31605 14.1211 4.87891C14.684 5.44178 15 6.20395 15 7C15 7.79605 14.684 8.55822 14.1211 9.12109C13.5583 9.68396 12.7961 10 12 10C11.2039 10 10.4418 9.684 9.87891 9.12109C9.31602 8.5582 9 7.79604 9 7C9 6.20396 9.31602 5.4418 9.87891 4.87891C10.4418 4.31602 11.2039 4 12 4Z" fill="black"/>
<path d="M16 18C15.7348 18 15.4804 18.1054 15.2929 18.2929C15.1054 18.4804 15 18.7348 15 19C15 19.2652 15.1054 19.5196 15.2929 19.7071C15.4804 19.8946 15.7348 20 16 20H22C22.2652 20 22.5196 19.8946 22.7071 19.7071C22.8946 19.5196 23 19.2652 23 19C23 18.7348 22.8946 18.4804 22.7071 18.2929C22.5196 18.1054 22.2652 18 22 18H16Z" fill="black"/>
<path d="M19 15C18.7348 15 18.4804 15.1054 18.2929 15.2929C18.1054 15.4804 18 15.7348 18 16V22C18 22.2652 18.1054 22.5196 18.2929 22.7071C18.4804 22.8946 18.7348 23 19 23C19.2652 23 19.5196 22.8946 19.7071 22.7071C19.8946 22.5196 20 22.2652 20 22V16C20 15.7348 19.8946 15.4804 19.7071 15.2929C19.5196 15.1054 19.2652 15 19 15Z" fill="black"/>
<path d="M10 14C8.67432 14 7.40227 14.5274 6.46484 15.4648C5.52742 16.4022 5 17.6743 5 19V21C5 21.2652 5.10536 21.5196 5.29289 21.7071C5.48043 21.8946 5.73478 22 6 22C6.26522 22 6.51957 21.8946 6.70711 21.7071C6.89464 21.5196 7 21.2652 7 21V19C7 18.2039 7.31605 17.4417 7.87891 16.8789C8.44178 16.316 9.20395 16 10 16H14C14.2652 16 14.5196 15.8946 14.7071 15.7071C14.8946 15.5196 15 15.2652 15 15C15 14.7348 14.8946 14.4804 14.7071 14.2929C14.5196 14.1054 14.2652 14 14 14H10Z" fill="black"/>
</g>
</g>
<defs>
<clipPath id="clip0_19819_1684">
<rect width="24" height="24" fill="white"/>
</clipPath>
</defs>
</svg>
