<svg width="24" height="24" viewBox="0 0 24 24" fill="none" xmlns="http://www.w3.org/2000/svg">
<g clip-path="url(#clip0_19819_1728)">
<mask id="mask0_19819_1728" style="mask-type:luminance" maskUnits="userSpaceOnUse" x="0" y="0" width="24" height="24">
<path d="M24 0H0V24H24V0Z" fill="white"/>
</mask>
<g mask="url(#mask0_19819_1728)">
<path d="M12 10C11.2048 10 10.4413 10.3166 9.87891 10.8789C9.31655 11.4413 9 12.2048 9 13C9 13.7952 9.31655 14.5587 9.87891 15.1211C10.4413 15.6834 11.2048 16 12 16C12.7952 16 13.5587 15.6834 14.1211 15.1211C14.6834 14.5587 15 13.7952 15 13C15 12.2048 14.6834 11.4413 14.1211 10.8789C13.5587 10.3166 12.7952 10 12 10ZM12 12C12.2656 12 12.5192 12.1051 12.707 12.293C12.8949 12.4808 13 12.7344 13 13C13 13.2656 12.8949 13.5192 12.707 13.707C12.5192 13.8949 12.2656 14 12 14C11.7344 14 11.4808 13.8949 11.293 13.707C11.1051 13.5192 11 13.2656 11 13C11 12.7344 11.1051 12.4808 11.293 12.293C11.4808 12.1051 11.7344 12 12 12Z" fill="black"/>
<path d="M10 17C9.20475 17 8.44125 17.3165 7.87891 17.8789C7.31659 18.4413 7 19.2048 7 20V21C7 21.2652 7.10536 21.5196 7.29289 21.7071C7.48043 21.8946 7.73478 22 8 22C8.26522 22 8.51957 21.8946 8.70711 21.7071C8.89464 21.5196 9 21.2652 9 21V20C9 19.7344 9.10513 19.4808 9.29297 19.293C9.48076 19.1052 9.73439 19 10 19H14C14.2656 19 14.5192 19.1051 14.707 19.293C14.8949 19.4808 15 19.7344 15 20V21C15 21.2652 15.1054 21.5196 15.2929 21.7071C15.4804 21.8946 15.7348 22 16 22C16.2652 22 16.5196 21.8946 16.7071 21.7071C16.8946 21.5196 17 21.2652 17 21V20C17 19.2048 16.6834 18.4413 16.1211 17.8789C15.5587 17.3166 14.7952 17 14 17H10Z" fill="black"/>
<path d="M17 2C16.2048 2 15.4413 2.31659 14.8789 2.87891C14.3165 3.44125 14 4.20475 14 5C14 5.79525 14.3165 6.55875 14.8789 7.12109C15.4413 7.68341 16.2048 8 17 8C17.7952 8 18.5587 7.68341 19.1211 7.12109C19.6835 6.55875 20 5.79525 20 5C20 4.20475 19.6835 3.44125 19.1211 2.87891C18.5587 2.31659 17.7952 2 17 2ZM17 4C17.2656 4 17.5192 4.10513 17.707 4.29297C17.8948 4.48076 18 4.73439 18 5C18 5.26561 17.8948 5.51924 17.707 5.70703C17.5192 5.89487 17.2656 6 17 6C16.7344 6 16.4808 5.89487 16.293 5.70703C16.1052 5.51924 16 5.26561 16 5C16 4.73439 16.1052 4.48076 16.293 4.29297C16.4808 4.10513 16.7344 4 17 4Z" fill="black"/>
<path d="M17 9C16.7348 9 16.4804 9.10536 16.2929 9.29289C16.1054 9.48043 16 9.73478 16 10C16 10.2652 16.1054 10.5196 16.2929 10.7071C16.4804 10.8946 16.7348 11 17 11H19C19.2656 11 19.5192 11.1051 19.707 11.293C19.8949 11.4808 20 11.7344 20 12V13C20 13.2652 20.1054 13.5196 20.2929 13.7071C20.4804 13.8946 20.7348 14 21 14C21.2652 14 21.5196 13.8946 21.7071 13.7071C21.8946 13.5196 22 13.2652 22 13V12C22 11.2048 21.6834 10.4413 21.1211 9.87891C20.5587 9.31655 19.7952 9 19 9H17Z" fill="black"/>
<path d="M7 2C6.20474 2 5.44125 2.31655 4.87891 2.87891C4.31655 3.44125 4 4.20474 4 5C4 5.79526 4.31655 6.55875 4.87891 7.12109C5.44125 7.68345 6.20474 8 7 8C7.79526 8 8.55875 7.68345 9.12109 7.12109C9.68345 6.55875 10 5.79526 10 5C10 4.20474 9.68345 3.44125 9.12109 2.87891C8.55875 2.31655 7.79526 2 7 2ZM7 4C7.2656 4 7.51923 4.10516 7.70703 4.29297C7.89484 4.48077 8 4.7344 8 5C8 5.2656 7.89484 5.51923 7.70703 5.70703C7.51923 5.89484 7.2656 6 7 6C6.7344 6 6.48077 5.89484 6.29297 5.70703C6.10516 5.51923 6 5.2656 6 5C6 4.7344 6.10516 4.48077 6.29297 4.29297C6.48077 4.10516 6.7344 4 7 4Z" fill="black"/>
<path d="M5 9C4.20475 9 3.44125 9.31651 2.87891 9.87891C2.31659 10.4413 2 11.2048 2 12V13C2 13.2652 2.10536 13.5196 2.29289 13.7071C2.48043 13.8946 2.73478 14 3 14C3.26522 14 3.51957 13.8946 3.70711 13.7071C3.89464 13.5196 4 13.2652 4 13V12C4 11.7344 4.10513 11.4808 4.29297 11.293C4.48076 11.1052 4.73439 11 5 11H7C7.26522 11 7.51957 10.8946 7.70711 10.7071C7.89464 10.5196 8 10.2652 8 10C8 9.73478 7.89464 9.48043 7.70711 9.29289C7.51957 9.10536 7.26522 9 7 9H5Z" fill="black"/>
</g>
</g>
<defs>
<clipPath id="clip0_19819_1728">
<rect width="24" height="24" fill="white"/>
</clipPath>
</defs>
</svg>
