<svg width="24" height="24" viewBox="0 0 24 24" fill="none" xmlns="http://www.w3.org/2000/svg">
<g clip-path="url(#clip0_19819_1693)">
<mask id="mask0_19819_1693" style="mask-type:luminance" maskUnits="userSpaceOnUse" x="0" y="0" width="24" height="24">
<path d="M24 0H0V24H24V0Z" fill="white"/>
</mask>
<g mask="url(#mask0_19819_1693)">
<path d="M12 2C10.6743 2 9.40224 2.52746 8.46484 3.46484C7.52745 4.40225 7 5.6743 7 7C7 8.3257 7.52745 9.59775 8.46484 10.5352C9.40225 11.4726 10.6743 12 12 12C13.3257 12 14.5978 11.4726 15.5352 10.5352C16.4726 9.59773 17 8.32568 17 7C17 5.67432 16.4726 4.40227 15.5352 3.46484C14.5978 2.52742 13.3257 2 12 2ZM12 4C12.7961 4 13.5583 4.31605 14.1211 4.87891C14.684 5.44178 15 6.20395 15 7C15 7.79605 14.684 8.55822 14.1211 9.12109C13.5583 9.68396 12.7961 10 12 10C11.2039 10 10.4418 9.684 9.87891 9.12109C9.31602 8.5582 9 7.79604 9 7C9 6.20396 9.31602 5.4418 9.87891 4.87891C10.4418 4.31602 11.2039 4 12 4Z" fill="black"/>
<path d="M10 14C8.67432 14 7.40227 14.5274 6.46484 15.4648C5.52742 16.4022 5 17.6743 5 19V21C5 21.2652 5.10536 21.5196 5.29289 21.7071C5.48043 21.8946 5.73478 22 6 22C6.26522 22 6.51957 21.8946 6.70711 21.7071C6.89464 21.5196 7 21.2652 7 21V19C7 18.2039 7.31605 17.4417 7.87891 16.8789C8.44178 16.316 9.20395 16 10 16H11.5C11.7652 16 12.0196 15.8946 12.2071 15.7071C12.3946 15.5196 12.5 15.2652 12.5 15C12.5 14.7348 12.3946 14.4804 12.2071 14.2929C12.0196 14.1054 11.7652 14 11.5 14H10Z" fill="black"/>
<path d="M18 14C16.9395 14 15.9217 14.422 15.1719 15.1719C14.422 15.9217 14 16.9395 14 18C14 19.0605 14.422 20.0783 15.1719 20.8281C15.9217 21.578 16.9395 22 18 22C19.0605 22 20.0783 21.578 20.8281 20.8281C21.578 20.0783 22 19.0605 22 18C22 16.9395 21.578 15.9217 20.8281 15.1719C20.0783 14.422 19.0605 14 18 14ZM18 16C18.5307 16 19.0387 16.2106 19.4141 16.5859C19.7894 16.9613 20 17.4693 20 18C20 18.5307 19.7894 19.0387 19.4141 19.4141C19.0387 19.7894 18.5307 20 18 20C17.4693 20 16.9613 19.7894 16.5859 19.4141C16.2106 19.0387 16 18.5307 16 18C16 17.4693 16.2106 16.9613 16.5859 16.5859C16.9613 16.2106 17.4693 16 18 16Z" fill="black"/>
<path d="M19.4922 19.492C19.3047 19.6796 19.1993 19.9339 19.1993 20.1991C19.1993 20.4642 19.3047 20.7186 19.4922 20.9061L21.2929 22.7069C21.4805 22.8944 21.7348 22.9997 22 22.9997C22.2652 22.9997 22.5195 22.8944 22.707 22.7069C22.8945 22.5194 22.9998 22.265 22.9998 21.9999C22.9998 21.7347 22.8945 21.4804 22.707 21.2928L20.9082 19.492C20.8153 19.3989 20.7049 19.325 20.5834 19.2746C20.4619 19.2242 20.3317 19.1982 20.2002 19.1982C20.0686 19.1982 19.9384 19.2242 19.8169 19.2746C19.6954 19.325 19.5851 19.3989 19.4922 19.492Z" fill="black"/>
</g>
</g>
<defs>
<clipPath id="clip0_19819_1693">
<rect width="24" height="24" fill="white"/>
</clipPath>
</defs>
</svg>
