<svg width="24" height="24" viewBox="0 0 24 24" fill="none" xmlns="http://www.w3.org/2000/svg">
<g clip-path="url(#clip0_19819_1661)">
<mask id="mask0_19819_1661" style="mask-type:luminance" maskUnits="userSpaceOnUse" x="0" y="0" width="24" height="24">
<path d="M24 0H0V24H24V0Z" fill="white"/>
</mask>
<g mask="url(#mask0_19819_1661)">
<path d="M12 2C10.6743 2 9.40224 2.52746 8.46484 3.46484C7.52745 4.40225 7 5.6743 7 7C7 8.3257 7.52745 9.59775 8.46484 10.5352C9.40225 11.4726 10.6743 12 12 12C13.3257 12 14.5978 11.4726 15.5352 10.5352C16.4726 9.59773 17 8.32568 17 7C17 5.67432 16.4726 4.40227 15.5352 3.46484C14.5978 2.52742 13.3257 2 12 2ZM12 4C12.7961 4 13.5583 4.31605 14.1211 4.87891C14.684 5.44178 15 6.20395 15 7C15 7.79605 14.684 8.55822 14.1211 9.12109C13.5583 9.68396 12.7961 10 12 10C11.2039 10 10.4418 9.684 9.87891 9.12109C9.31602 8.5582 9 7.79604 9 7C9 6.20396 9.31602 5.4418 9.87891 4.87891C10.4418 4.31602 11.2039 4 12 4Z" fill="black"/>
<path d="M10 14C8.67432 14 7.40227 14.5274 6.46484 15.4648C5.52742 16.4022 5 17.6743 5 19V21C5 21.2652 5.10536 21.5196 5.29289 21.7071C5.48043 21.8946 5.73478 22 6 22C6.26522 22 6.51957 21.8946 6.70711 21.7071C6.89464 21.5196 7 21.2652 7 21V19C7 18.2039 7.31605 17.4417 7.87891 16.8789C8.44178 16.316 9.20395 16 10 16H13.5C13.7652 16 14.0196 15.8946 14.2071 15.7071C14.3946 15.5196 14.5 15.2652 14.5 15C14.5 14.7348 14.3946 14.4804 14.2071 14.2929C14.0196 14.1054 13.7652 14 13.5 14H10Z" fill="black"/>
<path d="M19.9043 13.9941C19.4972 13.9941 19.0948 14.0748 18.7188 14.2305C18.3427 14.3863 18.0007 14.6145 17.7129 14.9023L14.2969 18.2891C14.2028 18.3821 14.1282 18.4928 14.0772 18.6148C14.0263 18.7368 14 18.8678 14 19V22C14 22.2652 14.1054 22.5195 14.2929 22.7071C14.4805 22.8946 14.7348 23 15 23H18C18.1322 23 18.2632 22.9737 18.3852 22.9228C18.5072 22.8718 18.6179 22.7972 18.7109 22.7031L22.0977 19.2871L22.0997 19.2832C22.386 18.996 22.6144 18.6561 22.7696 18.2813C22.9255 17.905 23.0059 17.5028 23.0059 17.0957C23.0059 16.6887 22.9255 16.2845 22.7696 15.9082C22.6138 15.532 22.3855 15.1902 22.0977 14.9024C21.8099 14.6145 21.4678 14.3863 21.0918 14.2305C20.7158 14.0748 20.3114 13.9941 19.9043 13.9941ZM19.9043 15.9941C20.0488 15.9941 20.1927 16.0229 20.3262 16.0781C20.4598 16.1335 20.5814 16.2142 20.6836 16.3164C20.7858 16.4186 20.8667 16.5405 20.9219 16.6738C20.9771 16.8072 21.0059 16.9512 21.0059 17.0957C21.0059 17.2402 20.9771 17.3823 20.9219 17.5156C20.8667 17.649 20.7858 17.7709 20.6836 17.873C20.6823 17.8743 20.681 17.8756 20.6797 17.8769L17.584 21H16V19.416L19.123 16.3203C19.1244 16.319 19.1257 16.3177 19.1269 16.3164C19.2291 16.2142 19.3508 16.1335 19.4844 16.0781C19.6179 16.0229 19.7598 15.9941 19.9043 15.9941Z" fill="black"/>
</g>
</g>
<defs>
<clipPath id="clip0_19819_1661">
<rect width="24" height="24" fill="white"/>
</clipPath>
</defs>
</svg>
