<svg width="24" height="24" viewBox="0 0 24 24" fill="none" xmlns="http://www.w3.org/2000/svg">
<g clip-path="url(#clip0_19819_1748)">
<mask id="mask0_19819_1748" style="mask-type:luminance" maskUnits="userSpaceOnUse" x="0" y="0" width="24" height="24">
<path d="M24 0H0V24H24V0Z" fill="white"/>
</mask>
<g mask="url(#mask0_19819_1748)">
<path d="M12 17C11.7348 17 11.4804 17.1054 11.2929 17.2929C11.1054 17.4804 11 17.7348 11 18C11 18.2652 11.1054 18.5196 11.2929 18.7071C11.4804 18.8946 11.7348 19 12 19H12.0098C12.275 19 12.5294 18.8946 12.7169 18.7071C12.9044 18.5196 13.0098 18.2652 13.0098 18C13.0098 17.7348 12.9044 17.4804 12.7169 17.2929C12.5294 17.1054 12.275 17 12.0098 17H12Z" fill="black"/>
<path d="M12 13C10.6746 13 9.40221 13.5277 8.46481 14.4648C8.27732 14.6524 8.172 14.9067 8.172 15.1719C8.172 15.4371 8.27732 15.6914 8.46481 15.8789C8.65234 16.0664 8.90667 16.1717 9.17185 16.1717C9.43702 16.1717 9.69135 16.0664 9.87888 15.8789C10.4417 15.3162 11.2041 15 12 15C12.7959 15 13.5582 15.3162 14.1211 15.8789C14.3086 16.0664 14.5629 16.1717 14.8281 16.1717C15.0933 16.1717 15.3476 16.0664 15.5351 15.8789C15.7226 15.6914 15.8279 15.4371 15.8279 15.1719C15.8279 14.9067 15.7226 14.6524 15.5351 14.4648C14.5978 13.5277 13.3254 13 12 13Z" fill="black"/>
<path d="M9.98435 9.22867C8.33655 9.60539 6.82828 10.44 5.63474 11.6369C5.44751 11.8247 5.34253 12.0791 5.3429 12.3443C5.34326 12.6095 5.44894 12.8637 5.63669 13.0509C5.82448 13.2382 6.07896 13.3431 6.34413 13.3428C6.60931 13.3424 6.86349 13.2367 7.05075 13.0489C7.97807 12.1191 9.14944 11.4706 10.4297 11.1779C10.6881 11.1188 10.9125 10.9594 11.0535 10.7349C11.1945 10.5104 11.2406 10.2391 11.1816 9.98062C11.1225 9.72218 10.9632 9.49779 10.7387 9.35678C10.5141 9.21578 10.2428 9.1697 9.98435 9.22867ZM14.6679 9.40445C14.4149 9.32559 14.1409 9.35042 13.9061 9.47347C13.6714 9.59652 13.4951 9.80774 13.416 10.0607C13.3371 10.3137 13.362 10.5877 13.485 10.8225C13.6081 11.0573 13.8193 11.2335 14.0722 11.3127C15.1589 11.652 16.1446 12.2516 16.9453 13.0607C17.0377 13.1543 17.1476 13.2288 17.2688 13.2799C17.39 13.331 17.5201 13.3577 17.6517 13.3584C17.7832 13.3591 17.9136 13.3339 18.0354 13.2841C18.1571 13.2344 18.2679 13.1611 18.3613 13.0685C18.5496 12.8818 18.656 12.6279 18.6571 12.3627C18.6582 12.0975 18.5539 11.8428 18.3672 11.6544C17.3365 10.613 16.0666 9.84116 14.6679 9.40445Z" fill="black"/>
<path d="M13.0508 5.04104C12.0388 4.95889 11.0161 4.99572 10.0058 5.15237C9.74409 5.19325 9.50926 5.33632 9.3529 5.55017C9.19654 5.76402 9.13142 6.03118 9.17185 6.293C9.21226 6.5551 9.35514 6.79041 9.56904 6.94718C9.78295 7.10395 10.0504 7.16933 10.3125 7.12893C12.0222 6.86383 13.7715 7.00559 15.416 7.543C17.0605 8.08039 18.5541 8.99722 19.7773 10.2207C19.9648 10.4082 20.2192 10.5135 20.4843 10.5135C20.7495 10.5135 21.0038 10.4082 21.1914 10.2207C21.3789 10.0332 21.4842 9.77888 21.4842 9.5137C21.4842 9.24852 21.3789 8.9942 21.1914 8.80667C19.7458 7.36072 17.9806 6.27574 16.0371 5.64065C15.0653 5.32311 14.0627 5.1232 13.0508 5.04104ZM7.41208 6.12503C7.28919 6.07843 7.15831 6.05651 7.02694 6.06053C6.89557 6.06456 6.76627 6.09444 6.64646 6.14847C5.21663 6.79594 3.91533 7.6976 2.80661 8.80862C2.61938 8.99641 2.51441 9.25088 2.51477 9.51606C2.51514 9.78124 2.62082 10.0354 2.80856 10.2227C2.99636 10.4099 3.25083 10.5149 3.51601 10.5145C3.78119 10.5141 4.03536 10.4084 4.22263 10.2207C5.16079 9.28062 6.26081 8.5186 7.47068 7.97073C7.71225 7.86161 7.90061 7.66104 7.99437 7.41309C8.08813 7.16515 8.07961 6.89013 7.97068 6.64847C7.91651 6.52881 7.83929 6.42099 7.74345 6.33118C7.64761 6.24137 7.53501 6.17132 7.41208 6.12503Z" fill="black"/>
<path d="M2.99997 2C2.73477 2.00004 2.48045 2.10542 2.29294 2.29297C2.10545 2.4805 2.00012 2.73482 2.00012 3C2.00012 3.26518 2.10545 3.5195 2.29294 3.70703L20.2929 21.707C20.4805 21.8945 20.7348 21.9998 21 21.9998C21.2652 21.9998 21.5195 21.8945 21.707 21.707C21.8945 21.5195 21.9998 21.2652 21.9998 21C21.9998 20.7348 21.8945 20.4805 21.707 20.293L3.707 2.29297C3.5195 2.10542 3.26517 2.00004 2.99997 2Z" fill="black"/>
</g>
</g>
<defs>
<clipPath id="clip0_19819_1748">
<rect width="24" height="24" fill="white"/>
</clipPath>
</defs>
</svg>
