<svg width="24" height="24" viewBox="0 0 24 24" fill="none" xmlns="http://www.w3.org/2000/svg">
<g clip-path="url(#clip0_19819_1739)">
<mask id="mask0_19819_1739" style="mask-type:luminance" maskUnits="userSpaceOnUse" x="0" y="0" width="24" height="24">
<path d="M24 0H0V24H24V0Z" fill="white"/>
</mask>
<g mask="url(#mask0_19819_1739)">
<path d="M12 17C11.7348 17 11.4804 17.1054 11.2929 17.2929C11.1054 17.4804 11 17.7348 11 18C11 18.2652 11.1054 18.5196 11.2929 18.7071C11.4804 18.8946 11.7348 19 12 19H12.0098C12.275 19 12.5294 18.8946 12.7169 18.7071C12.9044 18.5196 13.0098 18.2652 13.0098 18C13.0098 17.7348 12.9044 17.4804 12.7169 17.2929C12.5294 17.1054 12.275 17 12.0098 17H12Z" fill="black"/>
<path d="M12 13C10.6746 13 9.40221 13.5277 8.46481 14.4648C8.27732 14.6524 8.172 14.9067 8.172 15.1719C8.172 15.4371 8.27732 15.6914 8.46481 15.8789C8.65234 16.0664 8.90667 16.1717 9.17185 16.1717C9.43702 16.1717 9.69135 16.0664 9.87888 15.8789C10.4417 15.3162 11.2041 15 12 15C12.7959 15 13.5582 15.3162 14.1211 15.8789C14.3086 16.0664 14.5629 16.1717 14.8281 16.1717C15.0933 16.1717 15.3476 16.0664 15.5351 15.8789C15.7226 15.6914 15.8279 15.4371 15.8279 15.1719C15.8279 14.9067 15.7226 14.6524 15.5351 14.4648C14.5978 13.5277 13.3254 13 12 13Z" fill="black"/>
<path d="M12 9C10.8181 9 9.64859 9.23318 8.55661 9.68555C7.46468 10.1379 6.47241 10.801 5.63669 11.6367C5.4492 11.8242 5.34387 12.0786 5.34387 12.3438C5.34387 12.6089 5.4492 12.8633 5.63669 13.0508C5.82422 13.2383 6.07854 13.3436 6.34372 13.3436C6.6089 13.3436 6.86322 13.2383 7.05075 13.0508C7.70077 12.4007 8.47093 11.8851 9.32028 11.5332C10.1696 11.1814 11.0807 11 12 11C12.9193 11 13.8303 11.1814 14.6797 11.5332C15.529 11.8851 16.2991 12.4007 16.9492 13.0508C17.1367 13.2383 17.391 13.3436 17.6562 13.3436C17.9214 13.3436 18.1757 13.2383 18.3633 13.0508C18.5507 12.8633 18.6561 12.6089 18.6561 12.3438C18.6561 12.0786 18.5507 11.8242 18.3633 11.6367C17.5275 10.801 16.5352 10.1379 15.4433 9.68555C14.3513 9.23319 13.1819 9 12 9Z" fill="black"/>
<path d="M12.0039 5.00586C8.67148 5.00597 5.34263 6.27399 2.80856 8.80859C2.62107 8.99612 2.51575 9.25045 2.51575 9.51562C2.51575 9.7808 2.62107 10.0351 2.80856 10.2227C2.99609 10.4101 3.25042 10.5155 3.5156 10.5155C3.78078 10.5155 4.0351 10.4101 4.22263 10.2227C8.52649 5.91788 15.4754 5.91618 19.8105 10.2247C19.9986 10.4116 20.2532 10.5163 20.5184 10.5155C20.7835 10.5148 21.0376 10.4088 21.2246 10.2208C21.4116 10.0327 21.5162 9.7781 21.5154 9.51292C21.5147 9.24774 21.4087 8.99371 21.2207 8.80669C18.6722 6.27386 15.3363 5.00575 12.0039 5.00586Z" fill="black"/>
</g>
</g>
<defs>
<clipPath id="clip0_19819_1739">
<rect width="24" height="24" fill="white"/>
</clipPath>
</defs>
</svg>
