<?xml version="1.0" encoding="UTF-8" standalone="no"?>
<svg
   width="24"
   height="24"
   viewBox="0 0 24 24"
   fill="none"
   version="1.1"
   id="svg9"
   sodipodi:docname="adjustments.svg"
   inkscape:version="1.3.2 (091e20e, 2023-11-25)"
   xmlns:inkscape="http://www.inkscape.org/namespaces/inkscape"
   xmlns:sodipodi="http://sodipodi.sourceforge.net/DTD/sodipodi-0.dtd"
   xmlns="http://www.w3.org/2000/svg"
   xmlns:svg="http://www.w3.org/2000/svg">
  <defs
     id="defs9" />
  <sodipodi:namedview
     id="namedview9"
     pagecolor="#505050"
     bordercolor="#eeeeee"
     borderopacity="1"
     inkscape:showpageshadow="0"
     inkscape:pageopacity="0"
     inkscape:pagecheckerboard="0"
     inkscape:deskcolor="#505050"
     inkscape:zoom="9.8333333"
     inkscape:cx="11.949153"
     inkscape:cy="12"
     inkscape:window-width="1504"
     inkscape:window-height="449"
     inkscape:window-x="0"
     inkscape:window-y="25"
     inkscape:window-maximized="0"
     inkscape:current-layer="svg9" />
  <path
     style="color:#000000;fill:#000000;stroke-linecap:round;stroke-linejoin:round;-inkscape-stroke:none"
     d="M 4,7.25 A 0.750075,0.750075 0 0 0 3.25,8 v 4 A 0.750075,0.750075 0 0 0 4,12.75 H 8 A 0.750075,0.750075 0 0 0 8.75,12 V 8 A 0.750075,0.750075 0 0 0 8,7.25 Z m 0.75,1.5 h 2.5 v 2.5 h -2.5 z"
     id="path1" />
  <path
     style="color:#000000;fill:#000000;stroke-linecap:round;stroke-linejoin:round;-inkscape-stroke:none"
     d="M 6,3.25 A 0.75,0.75 0 0 0 5.25,4 V 8 A 0.75,0.75 0 0 0 6,8.75 0.75,0.75 0 0 0 6.75,8 V 4 A 0.75,0.75 0 0 0 6,3.25 Z"
     id="path2" />
  <path
     style="color:#000000;fill:#000000;stroke-linecap:round;stroke-linejoin:round;-inkscape-stroke:none"
     d="M 6,11.25 A 0.75,0.75 0 0 0 5.25,12 v 8 A 0.75,0.75 0 0 0 6,20.75 0.75,0.75 0 0 0 6.75,20 V 12 A 0.75,0.75 0 0 0 6,11.25 Z"
     id="path3" />
  <path
     style="color:#000000;fill:#000000;stroke-linecap:round;stroke-linejoin:round;-inkscape-stroke:none"
     d="M 10,13.25 A 0.750075,0.750075 0 0 0 9.25,14 v 4 A 0.750075,0.750075 0 0 0 10,18.75 h 4 A 0.750075,0.750075 0 0 0 14.75,18 V 14 A 0.750075,0.750075 0 0 0 14,13.25 Z m 0.75,1.5 h 2.5 v 2.5 h -2.5 z"
     id="path4" />
  <path
     style="color:#000000;fill:#000000;stroke-linecap:round;stroke-linejoin:round;-inkscape-stroke:none"
     d="M 12,3.25 A 0.75,0.75 0 0 0 11.25,4 V 14 A 0.75,0.75 0 0 0 12,14.75 0.75,0.75 0 0 0 12.75,14 V 4 A 0.75,0.75 0 0 0 12,3.25 Z"
     id="path5" />
  <path
     style="color:#000000;fill:#000000;stroke-linecap:round;stroke-linejoin:round;-inkscape-stroke:none"
     d="M 12,17.25 A 0.75,0.75 0 0 0 11.25,18 v 2 A 0.75,0.75 0 0 0 12,20.75 0.75,0.75 0 0 0 12.75,20 V 18 A 0.75,0.75 0 0 0 12,17.25 Z"
     id="path6" />
  <path
     style="color:#000000;fill:#000000;stroke-linecap:round;stroke-linejoin:round;-inkscape-stroke:none"
     d="M 16,4.25 A 0.750075,0.750075 0 0 0 15.25,5 V 9 A 0.750075,0.750075 0 0 0 16,9.75 h 4 A 0.750075,0.750075 0 0 0 20.75,9 V 5 A 0.750075,0.750075 0 0 0 20,4.25 Z m 0.75,1.5 h 2.5 v 2.5 h -2.5 z"
     id="path7" />
  <path
     style="color:#000000;fill:#000000;stroke-linecap:round;stroke-linejoin:round;-inkscape-stroke:none"
     d="M 18,3.25 A 0.75,0.75 0 0 0 17.25,4 V 5 A 0.75,0.75 0 0 0 18,5.75 0.75,0.75 0 0 0 18.75,5 V 4 A 0.75,0.75 0 0 0 18,3.25 Z"
     id="path8" />
  <path
     style="color:#000000;fill:#000000;stroke-linecap:round;stroke-linejoin:round;-inkscape-stroke:none"
     d="M 18,8.25 A 0.75,0.75 0 0 0 17.25,9 V 20 A 0.75,0.75 0 0 0 18,20.75 0.75,0.75 0 0 0 18.75,20 V 9 A 0.75,0.75 0 0 0 18,8.25 Z"
     id="path9" />
</svg>
