<?xml version="1.0" encoding="UTF-8" standalone="no"?>
<svg
   width="24"
   height="24"
   viewBox="0 0 24 24"
   fill="none"
   version="1.1"
   id="svg3"
   sodipodi:docname="alert-triangle.svg"
   inkscape:version="1.3.2 (091e20e, 2023-11-25)"
   xmlns:inkscape="http://www.inkscape.org/namespaces/inkscape"
   xmlns:sodipodi="http://sodipodi.sourceforge.net/DTD/sodipodi-0.dtd"
   xmlns="http://www.w3.org/2000/svg"
   xmlns:svg="http://www.w3.org/2000/svg">
  <defs
     id="defs3" />
  <sodipodi:namedview
     id="namedview3"
     pagecolor="#505050"
     bordercolor="#eeeeee"
     borderopacity="1"
     inkscape:showpageshadow="0"
     inkscape:pageopacity="0"
     inkscape:pagecheckerboard="0"
     inkscape:deskcolor="#505050"
     inkscape:zoom="9.8333333"
     inkscape:cx="11.949153"
     inkscape:cy="12"
     inkscape:window-width="1504"
     inkscape:window-height="449"
     inkscape:window-x="0"
     inkscape:window-y="25"
     inkscape:window-maximized="0"
     inkscape:current-layer="svg3" />
  <path
     style="color:#000000;fill:#000000;stroke-linecap:round;stroke-linejoin:round;-inkscape-stroke:none"
     d="M 12,8.25 A 0.75,0.75 0 0 0 11.25,9 v 4 A 0.75,0.75 0 0 0 12,13.75 0.75,0.75 0 0 0 12.75,13 V 9 A 0.75,0.75 0 0 0 12,8.25 Z"
     id="path1" />
  <path
     style="color:#000000;fill:#000000;stroke-linecap:round;stroke-linejoin:round;-inkscape-stroke:none"
     d="m 12,1.9179687 c -0.458042,0 -0.907518,0.1189306 -1.306641,0.3437501 a 0.750075,0.750075 0 0 0 -0.002,0 C 10.29242,2.486526 9.9580675,2.8092771 9.7207031,3.2011719 a 0.750075,0.750075 0 0 0 -0.00195,0.00391 L 1.6132812,16.740234 A 0.750075,0.750075 0 0 0 1.6074219,16.75 C 1.3748552,17.152757 1.2513223,17.609176 1.25,18.074219 c -0.00134,0.465098 0.1193354,0.922107 0.3496094,1.326172 0.2302793,0.404189 0.562134,0.742637 0.9628906,0.978515 0.400924,0.236125 0.8573956,0.361901 1.3222656,0.367188 a 0.750075,0.750075 0 0 0 0.00781,0 H 20.107422 a 0.750075,0.750075 0 0 0 0.0078,0 c 0.464781,-0.0054 0.91977,-0.131427 1.320313,-0.367188 a 0.750075,0.750075 0 0 0 0.002,0 c 0.40043,-0.235833 0.7307,-0.572602 0.960937,-0.976562 0.230165,-0.403832 0.350723,-0.861355 0.34961,-1.326172 -0.0011,-0.465069 -0.123353,-0.921634 -0.355469,-1.324219 a 0.750075,0.750075 0 0 0 -0.0059,-0.01172 L 14.28125,3.2050781 a 0.750075,0.750075 0 0 0 -0.002,-0.00391 C 14.041948,2.8095322 13.705835,2.4865651 13.306641,2.2617188 12.907534,2.0368298 12.458042,1.9179687 12,1.9179687 Z m 0,1.5000001 c 0.200157,0 0.39602,0.05218 0.570313,0.1503906 a 0.750075,0.750075 0 0 0 0.002,0 c 0.174404,0.098233 0.319977,0.2387965 0.423828,0.4101562 L 21.09375,17.5 v 0.0039 c 0.100248,0.1752 0.153814,0.374319 0.154297,0.576172 4.87e-4,0.203183 -0.05171,0.401558 -0.152344,0.578125 -0.100562,0.176439 -0.244752,0.324568 -0.419922,0.427734 -0.175056,0.103039 -0.374906,0.157784 -0.578125,0.160157 H 3.9023438 C 3.6989144,19.24378 3.4992342,19.189013 3.3242188,19.085937 3.149016,18.982816 3.0029641,18.834813 2.9023438,18.658203 2.801738,18.481669 2.749416,18.281426 2.75,18.078125 2.7505777,17.874968 2.804597,17.676042 2.90625,17.5 L 11.003906,3.9785156 c 4.86e-4,-8.012e-4 0.0015,-0.00115 0.002,-0.00195 C 11.109405,3.8065348 11.254138,3.6661716 11.427734,3.5683594 11.602211,3.4700791 11.799843,3.4179688 12,3.4179688 Z"
     id="path2" />
  <path
     style="color:#000000;fill:#000000;stroke-linecap:round;stroke-linejoin:round;-inkscape-stroke:none"
     d="M 12,15.25 A 0.75,0.75 0 0 0 11.25,16 0.75,0.75 0 0 0 12,16.75 h 0.0098 a 0.75,0.75 0 0 0 0.75,-0.75 0.75,0.75 0 0 0 -0.75,-0.75 z"
     id="path3" />
</svg>
