<?xml version="1.0" encoding="UTF-8" standalone="no"?>
<svg
   width="24"
   height="24"
   viewBox="0 0 24 24"
   fill="none"
   version="1.1"
   id="svg9"
   sodipodi:docname="bell-cog.svg"
   inkscape:version="1.3.2 (091e20e, 2023-11-25)"
   xmlns:inkscape="http://www.inkscape.org/namespaces/inkscape"
   xmlns:sodipodi="http://sodipodi.sourceforge.net/DTD/sodipodi-0.dtd"
   xmlns="http://www.w3.org/2000/svg"
   xmlns:svg="http://www.w3.org/2000/svg">
  <defs
     id="defs9" />
  <sodipodi:namedview
     id="namedview9"
     pagecolor="#505050"
     bordercolor="#eeeeee"
     borderopacity="1"
     inkscape:showpageshadow="0"
     inkscape:pageopacity="0"
     inkscape:pagecheckerboard="0"
     inkscape:deskcolor="#505050"
     inkscape:zoom="9.8333333"
     inkscape:cx="11.949153"
     inkscape:cy="12"
     inkscape:window-width="1504"
     inkscape:window-height="449"
     inkscape:window-x="0"
     inkscape:window-y="25"
     inkscape:window-maximized="0"
     inkscape:current-layer="svg9" />
  <path
     style="color:#000000;fill:#000000;stroke-linecap:round;stroke-linejoin:round;-inkscape-stroke:none"
     d="m 12,2.25 c -0.729032,0 -1.429778,0.2891807 -1.945312,0.8046875 C 9.6834643,3.4258811 9.5878715,3.9506347 9.4746094,4.4550781 8.298498,5.0576502 7.2775029,5.9275009 6.5429687,7.0292969 5.7628454,8.1994764 5.3159392,9.5600041 5.25,10.964844 A 0.750075,0.750075 0 0 0 5.25,11 v 2.925781 c -0.063054,0.499095 -0.238491,0.97791 -0.5175781,1.396485 -0.2822511,0.423401 -0.6587542,0.774628 -1.1015625,1.02539 A 0.750075,0.750075 0 0 0 4,17.75 h 8 A 0.75,0.75 0 0 0 12.75,17 0.75,0.75 0 0 0 12,16.25 H 5.8769531 c 0.027567,-0.03877 0.077083,-0.05605 0.1035156,-0.0957 0.4125451,-0.618735 0.6743051,-1.326221 0.7636719,-2.064453 A 0.750075,0.750075 0 0 0 6.75,14 V 11.035156 C 6.8031807,9.9021384 7.1618404,8.8050865 7.7910156,7.8613281 8.4201926,6.9175671 9.2949063,6.1626016 10.320313,5.6777344 A 0.750075,0.750075 0 0 0 10.75,5 c 0,-0.3318172 0.130605,-0.6501552 0.365234,-0.8847656 C 11.349899,3.880582 11.668233,3.75 12,3.75 c 0.331767,0 0.650101,0.130582 0.884766,0.3652344 C 13.119395,4.3498448 13.25,4.6681828 13.25,5 a 0.750075,0.750075 0 0 0 0.429688,0.6777344 c 1.025398,0.4848678 1.900064,1.2398171 2.529296,2.1835937 C 16.838113,8.805084 17.196782,9.9021069 17.25,11.035156 V 11.5 A 0.75,0.75 0 0 0 18,12.25 0.75,0.75 0 0 0 18.75,11.5 V 11 a 0.750075,0.750075 0 0 0 0,-0.03516 C 18.684018,9.5600357 18.237101,8.1994789 17.457031,7.0292969 16.722455,5.9275156 15.701492,5.0576491 14.525391,4.4550781 14.412129,3.9506347 14.316536,3.4258811 13.945313,3.0546875 13.429778,2.5391807 12.729032,2.25 12,2.25 Z"
     id="path1" />
  <path
     style="color:#000000;fill:#000000;stroke-linecap:round;stroke-linejoin:round;-inkscape-stroke:none"
     d="m 19.001953,16.25 c -0.729085,0 -1.429827,0.289064 -1.945312,0.804687 C 16.5411,17.570228 16.251953,18.270977 16.251953,19 c 0,0.729023 0.289147,1.429772 0.804688,1.945312 0.515485,0.515624 1.216227,0.804688 1.945312,0.804688 0.729023,0 1.427819,-0.289147 1.943359,-0.804688 0.515541,-0.51554 0.806641,-1.216289 0.806641,-1.945312 0,-0.729023 -0.2911,-1.429772 -0.806641,-1.945313 C 20.429772,16.539147 19.730976,16.25 19.001953,16.25 Z m 0,1.5 c 0.331776,0 0.648154,0.130576 0.882813,0.365234 0.234658,0.234659 0.367187,0.55299 0.367187,0.884766 0,0.331776 -0.132529,0.650107 -0.367187,0.884766 C 19.650107,20.119424 19.333729,20.25 19.001953,20.25 18.67004,20.25 18.351701,20.119342 18.117187,19.884766 17.882529,19.650107 17.751953,19.331776 17.751953,19 c 0,-0.331776 0.130576,-0.650107 0.365234,-0.884766 C 18.351701,17.880658 18.67004,17.75 19.001953,17.75 Z"
     id="path2" />
  <path
     style="color:#000000;fill:#000000;stroke-linecap:round;stroke-linejoin:round;-inkscape-stroke:none"
     d="m 19.001953,14.75 a 0.75,0.75 0 0 0 -0.75,0.75 V 17 a 0.75,0.75 0 0 0 0.75,0.75 0.75,0.75 0 0 0 0.75,-0.75 v -1.5 a 0.75,0.75 0 0 0 -0.75,-0.75 z"
     id="path3" />
  <path
     style="color:#000000;fill:#000000;stroke-linecap:round;stroke-linejoin:round;-inkscape-stroke:none"
     d="m 19.001953,20.25 a 0.75,0.75 0 0 0 -0.75,0.75 v 1.5 a 0.75,0.75 0 0 0 0.75,0.75 0.75,0.75 0 0 0 0.75,-0.75 V 21 a 0.75,0.75 0 0 0 -0.75,-0.75 z"
     id="path4" />
  <path
     style="color:#000000;fill:#000000;stroke-linecap:round;stroke-linejoin:round;-inkscape-stroke:none"
     d="m 21.65625,16.599609 -1.298828,0.75 a 0.75,0.75 0 0 0 -0.273438,1.025391 0.75,0.75 0 0 0 1.023438,0.275391 l 1.298828,-0.75 A 0.75,0.75 0 0 0 22.681641,16.875 0.75,0.75 0 0 0 21.65625,16.599609 Z"
     id="path5" />
  <path
     style="color:#000000;fill:#000000;stroke-linecap:round;stroke-linejoin:round;-inkscape-stroke:none"
     d="m 17.464844,19.275391 a 0.75,0.75 0 0 0 -0.570313,0.07422 l -1.298828,0.75 a 0.75,0.75 0 0 0 -0.27539,1.025391 0.75,0.75 0 0 0 1.02539,0.275391 l 1.298828,-0.75 A 0.75,0.75 0 0 0 17.919922,19.625 0.75,0.75 0 0 0 17.464844,19.275391 Z"
     id="path6" />
  <path
     style="color:#000000;fill:#000000;stroke-linecap:round;stroke-linejoin:round;-inkscape-stroke:none"
     d="m 15.775391,16.525391 a 0.75,0.75 0 0 0 -0.455078,0.349609 0.75,0.75 0 0 0 0.27539,1.025391 l 1.298828,0.75 A 0.75,0.75 0 0 0 17.919922,18.375 0.75,0.75 0 0 0 17.644531,17.349609 l -1.298828,-0.75 a 0.75,0.75 0 0 0 -0.570312,-0.07422 z"
     id="path7" />
  <path
     style="color:#000000;fill:#000000;stroke-linecap:round;stroke-linejoin:round;-inkscape-stroke:none"
     d="m 20.539062,19.275391 a 0.75,0.75 0 0 0 -0.455078,0.349609 0.75,0.75 0 0 0 0.273438,1.025391 l 1.300781,0.75 A 0.75,0.75 0 0 0 22.683594,21.125 0.75,0.75 0 0 0 22.408203,20.099609 l -1.300781,-0.75 a 0.75,0.75 0 0 0 -0.56836,-0.07422 z"
     id="path8" />
  <path
     style="color:#000000;fill:#000000;stroke-linecap:round;stroke-linejoin:round;-inkscape-stroke:none"
     d="M 9,16.25 A 0.75,0.75 0 0 0 8.25,17 v 1 c 0,0.994235 0.3945809,1.949281 1.0976563,2.652344 C 10.050723,21.355386 11.005746,21.75 12,21.75 A 0.75,0.75 0 0 0 12.75,21 0.75,0.75 0 0 0 12,20.25 c -0.596944,0 -1.169625,-0.236046 -1.591797,-0.658203 C 9.9860596,19.169661 9.75,18.596963 9.75,18 V 17 A 0.75,0.75 0 0 0 9,16.25 Z"
     id="path9" />
</svg>
