<?xml version="1.0" encoding="UTF-8" standalone="no"?>
<svg
   width="24"
   height="24"
   viewBox="0 0 24 24"
   fill="none"
   version="1.1"
   id="svg2"
   sodipodi:docname="bolt-off.svg"
   inkscape:version="1.3.2 (091e20e, 2023-11-25)"
   xmlns:inkscape="http://www.inkscape.org/namespaces/inkscape"
   xmlns:sodipodi="http://sodipodi.sourceforge.net/DTD/sodipodi-0.dtd"
   xmlns="http://www.w3.org/2000/svg"
   xmlns:svg="http://www.w3.org/2000/svg">
  <defs
     id="defs2" />
  <sodipodi:namedview
     id="namedview2"
     pagecolor="#505050"
     bordercolor="#eeeeee"
     borderopacity="1"
     inkscape:showpageshadow="0"
     inkscape:pageopacity="0"
     inkscape:pagecheckerboard="0"
     inkscape:deskcolor="#505050"
     inkscape:zoom="9.8333333"
     inkscape:cx="11.949153"
     inkscape:cy="12"
     inkscape:window-width="1504"
     inkscape:window-height="449"
     inkscape:window-x="0"
     inkscape:window-y="25"
     inkscape:window-maximized="0"
     inkscape:current-layer="svg2" />
  <path
     style="color:#000000;fill:#000000;stroke-linecap:round;stroke-linejoin:round;-inkscape-stroke:none"
     d="m 3,2.25 a 0.75,0.75 0 0 0 -0.53125,0.21875 0.75,0.75 0 0 0 0,1.0625 l 18,18 a 0.75,0.75 0 0 0 1.0625,0 0.75,0.75 0 0 0 0,-1.0625 l -18,-18 A 0.75,0.75 0 0 0 3,2.25 Z"
     id="path1" />
  <path
     style="color:#000000;fill:#000000;stroke-linecap:round;stroke-linejoin:round;-inkscape-stroke:none"
     d="M 13.232422,2.2871094 A 0.750075,0.750075 0 0 0 12.394531,2.5585938 L 9.8691406,6.0292969 a 0.75,0.75 0 0 0 0.1640624,1.046875 0.75,0.75 0 0 0 1.048828,-0.1640625 L 12.25,5.3066406 V 9 A 0.75,0.75 0 0 0 13,9.75 0.75,0.75 0 0 0 13.425781,9.5742188 0.75,0.75 0 0 0 13.25,10 0.75,0.75 0 0 0 14,10.75 h 3.525391 l -1.236329,1.701172 A 0.75,0.75 0 0 0 16.455078,13.5 0.75,0.75 0 0 0 17.501953,13.333984 l 2.105469,-2.892578 A 0.750075,0.750075 0 0 0 19,9.25 H 14 A 0.75,0.75 0 0 0 13.574219,9.4257813 0.75,0.75 0 0 0 13.75,9 V 3 A 0.750075,0.750075 0 0 0 13.232422,2.2871094 Z M 9.2304688,8.1835938 A 0.75,0.75 0 0 0 8.1835938,8.3496094 L 4.3925781,13.558594 A 0.750075,0.750075 0 0 0 5,14.75 h 5.25 V 21 a 0.750075,0.750075 0 0 0 1.357422,0.441406 l 4.210937,-5.791015 a 0.75,0.75 0 0 0 -0.166015,-1.046875 0.75,0.75 0 0 0 -1.046875,0.166015 L 11.75,18.693359 V 14 A 0.750075,0.750075 0 0 0 11,13.25 H 6.4746094 L 9.3964844,9.2304688 A 0.75,0.75 0 0 0 9.2304688,8.1835938 Z"
     id="path2" />
</svg>
