<?xml version="1.0" encoding="UTF-8" standalone="no"?>
<svg
   width="24"
   height="24"
   viewBox="0 0 24 24"
   fill="none"
   version="1.1"
   id="svg1"
   sodipodi:docname="bolt.svg"
   inkscape:version="1.3.2 (091e20e, 2023-11-25)"
   xmlns:inkscape="http://www.inkscape.org/namespaces/inkscape"
   xmlns:sodipodi="http://sodipodi.sourceforge.net/DTD/sodipodi-0.dtd"
   xmlns="http://www.w3.org/2000/svg"
   xmlns:svg="http://www.w3.org/2000/svg">
  <defs
     id="defs1" />
  <sodipodi:namedview
     id="namedview1"
     pagecolor="#505050"
     bordercolor="#eeeeee"
     borderopacity="1"
     inkscape:showpageshadow="0"
     inkscape:pageopacity="0"
     inkscape:pagecheckerboard="0"
     inkscape:deskcolor="#505050"
     inkscape:zoom="9.8333333"
     inkscape:cx="11.949153"
     inkscape:cy="12"
     inkscape:window-width="1504"
     inkscape:window-height="449"
     inkscape:window-x="0"
     inkscape:window-y="25"
     inkscape:window-maximized="0"
     inkscape:current-layer="svg1" />
  <path
     style="color:#000000;fill:#000000;stroke-linecap:round;stroke-linejoin:round;-inkscape-stroke:none"
     d="M 13.232422,2.2871094 A 0.750075,0.750075 0 0 0 12.392578,2.5585938 L 4.3925781,13.558594 A 0.750075,0.750075 0 0 0 5,14.75 h 5.25 V 21 a 0.750075,0.750075 0 0 0 1.357422,0.441406 l 8,-11 A 0.750075,0.750075 0 0 0 19,9.25 H 13.75 V 3 A 0.750075,0.750075 0 0 0 13.232422,2.2871094 Z M 12.25,5.3085937 V 10 A 0.750075,0.750075 0 0 0 13,10.75 h 4.525391 L 11.75,18.691406 V 14 A 0.750075,0.750075 0 0 0 11,13.25 H 6.4746094 Z"
     id="path1" />
</svg>
