<?xml version="1.0" encoding="UTF-8" standalone="no"?>
<svg
   width="24"
   height="24"
   viewBox="0 0 24 24"
   fill="none"
   version="1.1"
   id="svg3"
   sodipodi:docname="brand-google-play.svg"
   inkscape:version="1.3.2 (091e20e, 2023-11-25)"
   xmlns:inkscape="http://www.inkscape.org/namespaces/inkscape"
   xmlns:sodipodi="http://sodipodi.sourceforge.net/DTD/sodipodi-0.dtd"
   xmlns="http://www.w3.org/2000/svg"
   xmlns:svg="http://www.w3.org/2000/svg">
  <defs
     id="defs3" />
  <sodipodi:namedview
     id="namedview3"
     pagecolor="#505050"
     bordercolor="#eeeeee"
     borderopacity="1"
     inkscape:showpageshadow="0"
     inkscape:pageopacity="0"
     inkscape:pagecheckerboard="0"
     inkscape:deskcolor="#505050"
     inkscape:zoom="9.8333333"
     inkscape:cx="11.949153"
     inkscape:cy="12"
     inkscape:window-width="1504"
     inkscape:window-height="449"
     inkscape:window-x="0"
     inkscape:window-y="25"
     inkscape:window-maximized="0"
     inkscape:current-layer="svg3" />
  <path
     style="color:#000000;fill:#000000;stroke-linecap:round;stroke-linejoin:round;-inkscape-stroke:none"
     d="M 4.6992187,2.2597656 C 4.4446266,2.2598485 4.1950473,2.3276491 3.9746094,2.4550781 3.754143,2.5825236 3.5704786,2.765723 3.4433594,2.9863281 3.3172555,3.2051712 3.24971,3.4562823 3.25,3.7109375 V 20.289062 a 0.750075,0.750075 0 0 0 0,0.002 c 8.28e-5,0.254432 0.068058,0.50427 0.1953125,0.724609 0.1272041,0.22001 0.3086872,0.40199 0.5292969,0.529297 0.2204368,0.127195 0.4702992,0.195312 0.7246093,0.195312 0.2543109,0 0.5059239,-0.06778 0.7265625,-0.195312 L 20.046875,13.125 c 0.198294,-0.114191 0.362433,-0.277068 0.476562,-0.474609 C 20.637895,12.452455 20.697266,12.22807 20.697266,12 c 0,-0.227432 -0.05975,-0.452673 -0.173829,-0.650391 v -0.002 C 20.409198,11.150183 20.243876,10.986728 20.046875,10.873047 L 5.4257812,2.4550781 C 5.2052871,2.3277768 4.9538459,2.2597035 4.6992187,2.2597656 Z M 4.75,3.796875 18.994141,12 4.75,20.203125 Z"
     id="path1" />
  <path
     style="color:#000000;fill:#000000;stroke-linecap:round;stroke-linejoin:round;-inkscape-stroke:none"
     d="M 14.966797,8.25 A 0.75,0.75 0 0 0 14.445313,8.4941406 L 3.9453125,19.994141 a 0.75,0.75 0 0 0 0.048828,1.060546 0.75,0.75 0 0 0 1.0605469,-0.04883 L 15.554688,9.5058594 A 0.75,0.75 0 0 0 15.505859,8.4453125 0.75,0.75 0 0 0 14.966797,8.25 Z"
     id="path2" />
  <path
     style="color:#000000;fill:#000000;stroke-linecap:round;stroke-linejoin:round;-inkscape-stroke:none"
     d="M 4.5332031,2.75 A 0.75,0.75 0 0 0 3.9941406,2.9453125 0.75,0.75 0 0 0 3.9453125,4.0058594 L 14.445313,15.505859 a 0.75,0.75 0 0 0 1.060546,0.04883 0.75,0.75 0 0 0 0.04883,-1.060547 L 5.0546875,2.9941406 A 0.75,0.75 0 0 0 4.5332031,2.75 Z"
     id="path3" />
</svg>
