<svg width="24" height="24" viewBox="0 0 24 24" fill="none" xmlns="http://www.w3.org/2000/svg">
<path d="M6 3.25C4.74051 3.25 3.53122 3.75004 2.64062 4.64062C1.75004 5.53122 1.25 6.74051 1.25 8V16C1.25 17.2595 1.75002 18.4688 2.64062 19.3594C3.53123 20.25 4.74052 20.75 6 20.75H18C19.2595 20.75 20.4688 20.2501 21.3594 19.3594C22.2501 18.4688 22.75 17.2595 22.75 16V8C22.75 6.74052 22.25 5.53123 21.3594 4.64062C20.4688 3.75002 19.2595 3.25 18 3.25H6ZM6 4.75H18C18.8623 4.75 19.6892 5.09149 20.2988 5.70117C20.9086 6.31087 21.25 7.13774 21.25 8V16C21.25 16.8623 20.9085 17.6892 20.2988 18.2988C19.6892 18.9085 18.8623 19.25 18 19.25H6C5.13774 19.25 4.31087 18.9086 3.70117 18.2988C3.09149 17.6892 2.75 16.8623 2.75 16V8C2.75 7.13776 3.09148 6.31088 3.70117 5.70117C4.31088 5.09148 5.13776 4.75 6 4.75Z" fill="black"/>
<path d="M9.63086 8.3476C9.51534 8.41293 9.41923 8.50773 9.35232 8.62233C9.28541 8.73694 9.2501 8.86724 9.25 8.99995V14.9999C9.25003 15.1327 9.28531 15.2631 9.35224 15.3778C9.41918 15.4925 9.51536 15.5874 9.63096 15.6527C9.74656 15.7181 9.87744 15.7516 10.0102 15.7498C10.143 15.748 10.2729 15.711 10.3867 15.6425L15.3867 12.6425C15.4975 12.5758 15.5892 12.4816 15.6528 12.369C15.7164 12.2564 15.7499 12.1293 15.7499 11.9999C15.7499 11.8706 15.7164 11.7435 15.6528 11.6309C15.5892 11.5183 15.4975 11.4241 15.3867 11.3574L10.3867 8.35737C10.2729 8.28897 10.1429 8.25202 10.0101 8.25031C9.87731 8.24859 9.74643 8.28217 9.63086 8.3476ZM10.75 10.3242L13.543 11.9999L10.75 13.6757V10.3242Z" fill="black"/>
</svg>
