<?xml version="1.0" encoding="UTF-8" standalone="no"?>
<svg
   width="24"
   height="24"
   viewBox="0 0 24 24"
   fill="none"
   version="1.1"
   id="svg2"
   sodipodi:docname="brand-speedtest.svg"
   inkscape:version="1.3.2 (091e20e, 2023-11-25)"
   xmlns:inkscape="http://www.inkscape.org/namespaces/inkscape"
   xmlns:sodipodi="http://sodipodi.sourceforge.net/DTD/sodipodi-0.dtd"
   xmlns="http://www.w3.org/2000/svg"
   xmlns:svg="http://www.w3.org/2000/svg">
  <defs
     id="defs2" />
  <sodipodi:namedview
     id="namedview2"
     pagecolor="#505050"
     bordercolor="#eeeeee"
     borderopacity="1"
     inkscape:showpageshadow="0"
     inkscape:pageopacity="0"
     inkscape:pagecheckerboard="0"
     inkscape:deskcolor="#505050"
     inkscape:zoom="9.8333333"
     inkscape:cx="11.949153"
     inkscape:cy="12"
     inkscape:window-width="1504"
     inkscape:window-height="449"
     inkscape:window-x="0"
     inkscape:window-y="25"
     inkscape:window-maximized="0"
     inkscape:current-layer="svg2" />
  <path
     style="color:#000000;fill:#000000;stroke-linecap:round;stroke-linejoin:round;-inkscape-stroke:none"
     d="M 12,3.25 C 10.071732,3.25 8.1873056,3.8212744 6.5839844,4.8925781 4.9806624,5.9638716 3.7301161,7.4880338 2.9921875,9.2695313 2.2542682,11.051071 2.0613193,13.011041 2.4375,14.902344 2.8136852,16.793561 3.7419813,18.531 5.1054687,19.894531 a 0.75,0.75 0 0 0 1.0605469,0 0.75,0.75 0 0 0 0,-1.060547 C 5.0121856,17.680118 4.2265373,16.209754 3.9082031,14.609375 3.5898645,13.008881 3.7544469,11.351367 4.3789062,9.84375 5.0033563,8.3362108 6.0592606,7.0471695 7.4160156,6.140625 8.7727715,5.2340707 10.368271,4.75 12,4.75 c 1.631729,0 3.227277,0.4840789 4.583984,1.390625 1.356803,0.9065397 2.412644,2.1955709 3.03711,3.703125 0.624464,1.507605 0.788991,3.165107 0.470703,4.765625 -0.318376,1.600405 -1.103955,3.070752 -2.257813,4.224609 a 0.75,0.75 0 0 0 0,1.060547 0.75,0.75 0 0 0 1.060547,0 c 1.36354,-1.36354 2.291746,-3.100995 2.667969,-4.992187 0.376111,-1.891278 0.183247,-3.851261 -0.554688,-5.6328127 C 20.269879,7.4880487 19.01941,5.9638764 17.416016,4.8925781 15.812725,3.8212662 13.928268,3.25 12,3.25 Z"
     id="path1" />
  <path
     style="color:#000000;fill:#000000;stroke-linecap:round;stroke-linejoin:round;-inkscape-stroke:none"
     d="m 16,8.25 a 0.75,0.75 0 0 0 -0.53125,0.21875 l -4,4 a 0.75,0.75 0 0 0 0,1.0625 0.75,0.75 0 0 0 1.0625,0 l 4,-4 a 0.75,0.75 0 0 0 0,-1.0625 A 0.75,0.75 0 0 0 16,8.25 Z"
     id="path2" />
</svg>
