<?xml version="1.0" encoding="UTF-8" standalone="no"?>
<svg
   width="24"
   height="24"
   viewBox="0 0 24 24"
   fill="none"
   version="1.1"
   id="svg2"
   sodipodi:docname="brand-apple.svg"
   inkscape:version="1.3.2 (091e20e, 2023-11-25)"
   xmlns:inkscape="http://www.inkscape.org/namespaces/inkscape"
   xmlns:sodipodi="http://sodipodi.sourceforge.net/DTD/sodipodi-0.dtd"
   xmlns="http://www.w3.org/2000/svg"
   xmlns:svg="http://www.w3.org/2000/svg">
  <defs
     id="defs2" />
  <sodipodi:namedview
     id="namedview2"
     pagecolor="#505050"
     bordercolor="#eeeeee"
     borderopacity="1"
     inkscape:showpageshadow="0"
     inkscape:pageopacity="0"
     inkscape:pagecheckerboard="0"
     inkscape:deskcolor="#505050"
     inkscape:zoom="9.8333333"
     inkscape:cx="11.949153"
     inkscape:cy="12"
     inkscape:window-width="1504"
     inkscape:window-height="449"
     inkscape:window-x="0"
     inkscape:window-y="25"
     inkscape:window-maximized="0"
     inkscape:current-layer="svg2" />
  <path
     style="color:#000000;fill:#000000;stroke-linecap:round;stroke-linejoin:round;-inkscape-stroke:none"
     d="m 8.2851563,6.2578125 c -1.8590888,0 -3.2280995,1.0102428 -3.9960938,2.3222656 C 3.5210682,9.8921009 3.25,11.483293 3.25,12.927734 c 0,1.780417 0.5624905,3.86349 1.4179687,5.582032 0.4277392,0.85927 0.9290928,1.625729 1.5136719,2.21289 C 6.7662197,21.309818 7.4669176,21.75 8.2851563,21.75 a 0.750075,0.750075 0 0 0 0.033203,0 C 8.999468,21.720768 9.5248624,21.562104 9.9921875,21.4375 10.459513,21.312896 10.87872,21.212891 11.5,21.212891 c 0.607338,0 0.871721,0.09734 1.306641,0.234375 C 13.24156,21.5843 13.827648,21.75 14.714844,21.75 c 0.652916,0 1.228565,-0.287562 1.779297,-0.675781 0.550731,-0.38822 1.076562,-0.902522 1.548828,-1.486328 C 18.987501,18.420278 19.75,17.006361 19.75,15.619141 a 0.750075,0.750075 0 0 0 -0.492188,-0.705078 c -4.68e-4,-1.72e-4 -0.08835,-0.02528 -0.09766,-0.02734 -0.0093,-0.0021 -0.01351,-0.0031 -0.01758,-0.0039 -0.0081,-0.0017 -0.01556,-0.0042 -0.02344,-0.0059 -0.01576,-0.0033 -0.03614,-0.0068 -0.06445,-0.01367 -0.05663,-0.01374 -0.139682,-0.0362 -0.240234,-0.07031 -0.201104,-0.06823 -0.470721,-0.183577 -0.728516,-0.361328 -0.515589,-0.355502 -1.003132,-0.88651 -1.015625,-2.050782 -0.0068,-0.886152 0.456803,-1.446335 1.00586,-1.86914 0.274754,-0.211577 0.564308,-0.370336 0.787109,-0.476563 0.111401,-0.053113 0.205079,-0.092649 0.275391,-0.1210935 0.03516,-0.014222 0.0642,-0.02704 0.08984,-0.037109 0.02564,-0.010069 -0.01036,0.020244 0.130859,-0.056641 A 0.750075,0.750075 0 0 0 19.619141,8.7382813 C 18.968172,7.7843977 18.059323,7.1863906 17.246094,6.8144531 16.434375,6.4432063 15.753455,6.2906892 15.304688,6.2597656 14.326891,6.1844924 13.459287,6.5135663 12.769531,6.8125 12.078761,7.1118735 11.442217,7.3359375 11.5,7.3359375 c 0.0048,0 -0.532703,-0.1892536 -1.115234,-0.4667969 C 9.8022341,6.5915974 9.1027208,6.2578125 8.2851563,6.2578125 Z m 6.9062497,1.4980469 a 0.750075,0.750075 0 0 0 0.0078,0 c 0.139269,0.00947 0.783058,0.1307663 1.423828,0.4238281 0.381543,0.1745021 0.697654,0.5379471 1.046875,0.8359375 -0.173263,0.1035311 -0.322223,0.1656792 -0.507813,0.3085938 -0.772489,0.5948609 -1.604195,1.6227342 -1.591796,3.0703122 a 0.750075,0.750075 0 0 0 0,0.002 c 0.01751,1.631726 0.855153,2.711785 1.664062,3.269532 0.298731,0.205977 0.557309,0.301719 0.810547,0.404296 -0.139646,0.765304 -0.490098,1.736248 -1.167969,2.574219 -0.398358,0.492443 -0.844498,0.920611 -1.248047,1.205078 C 15.225358,20.134077 14.865427,20.25 14.714844,20.25 13.995041,20.25 13.676642,20.14759 13.257813,20.015625 12.838983,19.88366 12.298661,19.712891 11.5,19.712891 c -0.793718,0 -1.399857,0.143494 -1.8945312,0.27539 -0.486139,0.12962 -0.8562556,0.234382 -1.328125,0.257813 C 8.0242575,20.243703 7.6610248,20.082788 7.2441406,19.664062 6.8241895,19.242256 6.3876038,18.594947 6.0117187,17.839844 5.2599486,16.329638 4.75,14.376315 4.75,12.927734 4.75,11.682178 5.01298,10.313381 5.5839844,9.3378906 6.1549887,8.3624007 6.9282482,7.7578125 8.2851563,7.7578125 c 0.3604342,0 0.9054076,0.2038875 1.453125,0.4648438 C 10.285999,8.4836125 10.766159,8.8359375 11.5,8.8359375 c 0.775782,0 1.24621,-0.3773584 1.867188,-0.6464844 0.620977,-0.2691259 1.268783,-0.4770154 1.824218,-0.4335937 z"
     id="path1" />
  <path
     style="color:#000000;fill:#000000;stroke-linecap:round;stroke-linejoin:round;-inkscape-stroke:none"
     d="m 14,1.25 c -0.729032,0 -1.429778,0.2891807 -1.945312,0.8046875 C 11.539117,2.5702164 11.25,3.2709583 11.25,4 A 0.750075,0.750075 0 0 0 12,4.75 c 0.729032,0 1.429778,-0.2891807 1.945313,-0.8046875 C 14.460883,3.4297836 14.75,2.7290417 14.75,2 A 0.750075,0.750075 0 0 0 14,1.25 Z"
     id="path2" />
</svg>
