<?xml version="1.0" encoding="UTF-8" standalone="no"?>
<svg
   width="24"
   height="24"
   viewBox="0 0 24 24"
   fill="none"
   version="1.1"
   id="svg6"
   sodipodi:docname="calendar-search.svg"
   inkscape:version="1.3.2 (091e20e, 2023-11-25)"
   xmlns:inkscape="http://www.inkscape.org/namespaces/inkscape"
   xmlns:sodipodi="http://sodipodi.sourceforge.net/DTD/sodipodi-0.dtd"
   xmlns="http://www.w3.org/2000/svg"
   xmlns:svg="http://www.w3.org/2000/svg">
  <defs
     id="defs6" />
  <sodipodi:namedview
     id="namedview6"
     pagecolor="#505050"
     bordercolor="#eeeeee"
     borderopacity="1"
     inkscape:showpageshadow="0"
     inkscape:pageopacity="0"
     inkscape:pagecheckerboard="0"
     inkscape:deskcolor="#505050"
     inkscape:zoom="9.8333333"
     inkscape:cx="11.949153"
     inkscape:cy="12"
     inkscape:window-width="1504"
     inkscape:window-height="449"
     inkscape:window-x="0"
     inkscape:window-y="25"
     inkscape:window-maximized="0"
     inkscape:current-layer="svg6" />
  <path
     style="color:#000000;fill:#000000;stroke-linecap:round;stroke-linejoin:round;-inkscape-stroke:none"
     d="M 6,4.25 C 5.2709489,4.25 4.5702101,4.5391512 4.0546875,5.0546875 3.5391512,5.5702101 3.25,6.2709489 3.25,7 v 12 c 0,0.729032 0.2891807,1.429778 0.8046875,1.945312 C 4.5702164,21.460883 5.2709583,21.75 6,21.75 h 5.5 A 0.75,0.75 0 0 0 12.25,21 0.75,0.75 0 0 0 11.5,20.25 H 6 C 5.6681828,20.25 5.3498448,20.119395 5.1152344,19.884766 4.880582,19.650101 4.75,19.331767 4.75,19 V 7 C 4.75,6.6681922 4.8806115,6.349851 5.1152344,6.1152344 5.349851,5.8806115 5.6681922,5.75 6,5.75 h 12 c 0.331767,0 0.650101,0.130582 0.884766,0.3652344 C 19.119395,6.3498448 19.25,6.6681828 19.25,7 v 4.5 A 0.75,0.75 0 0 0 20,12.25 0.75,0.75 0 0 0 20.75,11.5 V 7 C 20.75,6.2709583 20.460883,5.5702164 19.945312,5.0546875 19.429778,4.5391807 18.729032,4.25 18,4.25 Z"
     id="path1" />
  <path
     style="color:#000000;fill:#000000;stroke-linecap:round;stroke-linejoin:round;-inkscape-stroke:none"
     d="M 16,2.25 A 0.75,0.75 0 0 0 15.25,3 V 7 A 0.75,0.75 0 0 0 16,7.75 0.75,0.75 0 0 0 16.75,7 V 3 A 0.75,0.75 0 0 0 16,2.25 Z"
     id="path2" />
  <path
     style="color:#000000;fill:#000000;stroke-linecap:round;stroke-linejoin:round;-inkscape-stroke:none"
     d="M 8,2.25 A 0.75,0.75 0 0 0 7.25,3 V 7 A 0.75,0.75 0 0 0 8,7.75 0.75,0.75 0 0 0 8.75,7 V 3 A 0.75,0.75 0 0 0 8,2.25 Z"
     id="path3" />
  <path
     style="color:#000000;fill:#000000;stroke-linecap:round;stroke-linejoin:round;-inkscape-stroke:none"
     d="M 4,10.25 A 0.75,0.75 0 0 0 3.25,11 0.75,0.75 0 0 0 4,11.75 H 20 A 0.75,0.75 0 0 0 20.75,11 0.75,0.75 0 0 0 20,10.25 Z"
     id="path4" />
  <path
     style="color:#000000;fill:#000000;stroke-linecap:round;stroke-linejoin:round;-inkscape-stroke:none"
     d="m 18,14.25 c -0.994254,0 -1.949291,0.394603 -2.652344,1.097656 C 14.644603,16.050709 14.25,17.005746 14.25,18 c 0,0.994254 0.394603,1.949291 1.097656,2.652344 C 16.050709,21.355397 17.005746,21.75 18,21.75 c 0.994254,0 1.949291,-0.394603 2.652344,-1.097656 C 21.355397,19.949291 21.75,18.994254 21.75,18 21.75,17.005746 21.355397,16.050709 20.652344,15.347656 19.949291,14.644603 18.994254,14.25 18,14.25 Z m 0,1.5 c 0.596944,0 1.169651,0.236057 1.591797,0.658203 C 20.013943,16.830349 20.25,17.403056 20.25,18 c 0,0.596944 -0.236057,1.169651 -0.658203,1.591797 C 19.169651,20.013943 18.596944,20.25 18,20.25 17.403056,20.25 16.830349,20.013943 16.408203,19.591797 15.986057,19.169651 15.75,18.596944 15.75,18 c 0,-0.596944 0.236057,-1.169651 0.658203,-1.591797 C 16.830349,15.986057 17.403056,15.75 18,15.75 Z"
     id="path5" />
  <path
     style="color:#000000;fill:#000000;stroke-linecap:round;stroke-linejoin:round;-inkscape-stroke:none"
     d="m 20.199219,19.451172 a 0.75,0.75 0 0 0 -0.529297,0.21875 0.75,0.75 0 0 0 0,1.060547 l 1.798828,1.800781 a 0.75,0.75 0 0 0 1.0625,0 0.75,0.75 0 0 0 0,-1.060547 l -1.800781,-1.800781 a 0.75,0.75 0 0 0 -0.53125,-0.21875 z"
     id="path6" />
</svg>
