<?xml version="1.0" encoding="UTF-8" standalone="no"?>
<svg
   width="24"
   height="24"
   viewBox="0 0 24 24"
   fill="none"
   version="1.1"
   id="svg6"
   sodipodi:docname="calendar-time.svg"
   inkscape:version="1.3.2 (091e20e, 2023-11-25)"
   xmlns:inkscape="http://www.inkscape.org/namespaces/inkscape"
   xmlns:sodipodi="http://sodipodi.sourceforge.net/DTD/sodipodi-0.dtd"
   xmlns="http://www.w3.org/2000/svg"
   xmlns:svg="http://www.w3.org/2000/svg">
  <defs
     id="defs6" />
  <sodipodi:namedview
     id="namedview6"
     pagecolor="#505050"
     bordercolor="#eeeeee"
     borderopacity="1"
     inkscape:showpageshadow="0"
     inkscape:pageopacity="0"
     inkscape:pagecheckerboard="0"
     inkscape:deskcolor="#505050"
     inkscape:zoom="9.8333333"
     inkscape:cx="11.949153"
     inkscape:cy="12"
     inkscape:window-width="1504"
     inkscape:window-height="449"
     inkscape:window-x="0"
     inkscape:window-y="25"
     inkscape:window-maximized="0"
     inkscape:current-layer="svg6" />
  <path
     style="color:#000000;fill:#000000;stroke-linecap:round;stroke-linejoin:round;-inkscape-stroke:none"
     d="M 5,4.25 C 4.2709489,4.25 3.5702101,4.5391512 3.0546875,5.0546875 2.5391512,5.5702101 2.25,6.2709489 2.25,7 v 12 c 0,0.729032 0.2891807,1.429778 0.8046875,1.945312 C 3.5702164,21.460883 4.2709583,21.75 5,21.75 h 6.794922 a 0.75,0.75 0 0 0 0.75,-0.75 0.75,0.75 0 0 0 -0.75,-0.75 H 5 C 4.6681828,20.25 4.3498448,20.119395 4.1152344,19.884766 3.880582,19.650101 3.75,19.331767 3.75,19 V 7 C 3.75,6.6681922 3.8806115,6.349851 4.1152344,6.1152344 4.349851,5.8806115 4.6681922,5.75 5,5.75 h 12 c 0.331767,0 0.650101,0.130582 0.884766,0.3652344 C 18.119395,6.3498448 18.25,6.6681828 18.25,7 v 4 A 0.75,0.75 0 0 0 19,11.75 0.75,0.75 0 0 0 19.75,11 V 7 C 19.75,6.2709583 19.460883,5.5702164 18.945312,5.0546875 18.429778,4.5391807 17.729032,4.25 17,4.25 Z"
     id="path1" />
  <path
     style="color:#000000;fill:#000000;stroke-linecap:round;stroke-linejoin:round;-inkscape-stroke:none"
     d="m 18,13.25 c -1.259504,0 -2.468812,0.499943 -3.359375,1.390625 C 13.749943,15.531188 13.25,16.740496 13.25,18 c 0,1.259504 0.499943,2.468812 1.390625,3.359375 C 15.531188,22.250057 16.740496,22.75 18,22.75 c 1.259504,0 2.468812,-0.499943 3.359375,-1.390625 C 22.250057,20.468812 22.75,19.259504 22.75,18 22.75,16.740496 22.250057,15.531188 21.359375,14.640625 20.468812,13.749943 19.259504,13.25 18,13.25 Z m 0,1.5 c 0.862294,0 1.689192,0.341455 2.298828,0.951172 C 20.908545,16.310808 21.25,17.137706 21.25,18 c 0,0.862294 -0.341455,1.689192 -0.951172,2.298828 C 19.689192,20.908545 18.862294,21.25 18,21.25 17.137706,21.25 16.310808,20.908545 15.701172,20.298828 15.091455,19.689192 14.75,18.862294 14.75,18 c 0,-0.862294 0.341455,-1.689192 0.951172,-2.298828 C 16.310808,15.091455 17.137706,14.75 18,14.75 Z"
     id="path2" />
  <path
     style="color:#000000;fill:#000000;stroke-linecap:round;stroke-linejoin:round;-inkscape-stroke:none"
     d="M 15,2.25 A 0.75,0.75 0 0 0 14.25,3 V 7 A 0.75,0.75 0 0 0 15,7.75 0.75,0.75 0 0 0 15.75,7 V 3 A 0.75,0.75 0 0 0 15,2.25 Z"
     id="path3" />
  <path
     style="color:#000000;fill:#000000;stroke-linecap:round;stroke-linejoin:round;-inkscape-stroke:none"
     d="M 7,2.25 A 0.75,0.75 0 0 0 6.25,3 V 7 A 0.75,0.75 0 0 0 7,7.75 0.75,0.75 0 0 0 7.75,7 V 3 A 0.75,0.75 0 0 0 7,2.25 Z"
     id="path4" />
  <path
     style="color:#000000;fill:#000000;stroke-linecap:round;stroke-linejoin:round;-inkscape-stroke:none"
     d="M 3,10.25 A 0.75,0.75 0 0 0 2.25,11 0.75,0.75 0 0 0 3,11.75 H 19 A 0.75,0.75 0 0 0 19.75,11 0.75,0.75 0 0 0 19,10.25 Z"
     id="path5" />
  <path
     style="color:#000000;fill:#000000;stroke-linecap:round;stroke-linejoin:round;-inkscape-stroke:none"
     d="m 18,15.746094 a 0.75,0.75 0 0 0 -0.75,0.75 V 18 a 0.750075,0.750075 0 0 0 0.21875,0.53125 l 1,1 a 0.75,0.75 0 0 0 1.0625,0 0.75,0.75 0 0 0 0,-1.060547 L 18.75,17.689453 v -1.193359 a 0.75,0.75 0 0 0 -0.75,-0.75 z"
     id="path6" />
</svg>
