<?xml version="1.0" encoding="UTF-8" standalone="no"?>
<svg
   width="24"
   height="24"
   viewBox="0 0 24 24"
   fill="none"
   version="1.1"
   id="svg5"
   sodipodi:docname="calendar-due.svg"
   inkscape:version="1.3.2 (091e20e, 2023-11-25)"
   xmlns:inkscape="http://www.inkscape.org/namespaces/inkscape"
   xmlns:sodipodi="http://sodipodi.sourceforge.net/DTD/sodipodi-0.dtd"
   xmlns="http://www.w3.org/2000/svg"
   xmlns:svg="http://www.w3.org/2000/svg">
  <defs
     id="defs5" />
  <sodipodi:namedview
     id="namedview5"
     pagecolor="#505050"
     bordercolor="#eeeeee"
     borderopacity="1"
     inkscape:showpageshadow="0"
     inkscape:pageopacity="0"
     inkscape:pagecheckerboard="0"
     inkscape:deskcolor="#505050"
     inkscape:zoom="9.8333333"
     inkscape:cx="11.949153"
     inkscape:cy="12"
     inkscape:window-width="1504"
     inkscape:window-height="449"
     inkscape:window-x="0"
     inkscape:window-y="25"
     inkscape:window-maximized="0"
     inkscape:current-layer="svg5" />
  <path
     style="color:#000000;fill:#000000;stroke-linecap:round;stroke-linejoin:round;-inkscape-stroke:none"
     d="M 6,4.25 C 5.2709489,4.25 4.5702101,4.5391512 4.0546875,5.0546875 3.5391512,5.5702101 3.25,6.2709489 3.25,7 v 12 c 0,0.729032 0.2891807,1.429778 0.8046875,1.945312 C 4.5702164,21.460883 5.2709583,21.75 6,21.75 h 12 c 0.729023,0 1.429772,-0.289147 1.945312,-0.804688 C 20.460853,20.429772 20.75,19.729023 20.75,19 V 7 C 20.75,6.2709583 20.460883,5.5702164 19.945312,5.0546875 19.429778,4.5391807 18.729032,4.25 18,4.25 Z m 0,1.5 h 12 c 0.331767,0 0.650101,0.130582 0.884766,0.3652344 C 19.119395,6.3498448 19.25,6.6681828 19.25,7 v 12 c 0,0.331776 -0.130576,0.650107 -0.365234,0.884766 C 18.650107,20.119424 18.331776,20.25 18,20.25 H 6 C 5.6681828,20.25 5.3498448,20.119395 5.1152344,19.884766 4.880582,19.650101 4.75,19.331767 4.75,19 V 7 C 4.75,6.6681922 4.8806115,6.349851 5.1152344,6.1152344 5.349851,5.8806115 5.6681922,5.75 6,5.75 Z"
     id="path1" />
  <path
     style="color:#000000;fill:#000000;stroke-linecap:round;stroke-linejoin:round;-inkscape-stroke:none"
     d="M 16,2.25 A 0.75,0.75 0 0 0 15.25,3 V 7 A 0.75,0.75 0 0 0 16,7.75 0.75,0.75 0 0 0 16.75,7 V 3 A 0.75,0.75 0 0 0 16,2.25 Z"
     id="path2" />
  <path
     style="color:#000000;fill:#000000;stroke-linecap:round;stroke-linejoin:round;-inkscape-stroke:none"
     d="M 8,2.25 A 0.75,0.75 0 0 0 7.25,3 V 7 A 0.75,0.75 0 0 0 8,7.75 0.75,0.75 0 0 0 8.75,7 V 3 A 0.75,0.75 0 0 0 8,2.25 Z"
     id="path3" />
  <path
     style="color:#000000;fill:#000000;stroke-linecap:round;stroke-linejoin:round;-inkscape-stroke:none"
     d="M 4,10.25 A 0.75,0.75 0 0 0 3.25,11 0.75,0.75 0 0 0 4,11.75 H 20 A 0.75,0.75 0 0 0 20.75,11 0.75,0.75 0 0 0 20,10.25 Z"
     id="path4" />
  <path
     style="color:#000000;fill:#000000;stroke-linecap:round;stroke-linejoin:round;-inkscape-stroke:none"
     d="m 12,14.25 c -0.463917,0 -0.910303,0.183741 -1.238281,0.511719 C 10.433741,15.089697 10.25,15.536083 10.25,16 c 0,0.463917 0.183741,0.910303 0.511719,1.238281 C 11.089697,17.566259 11.536083,17.75 12,17.75 c 0.463917,0 0.910303,-0.183741 1.238281,-0.511719 C 13.566259,16.910303 13.75,16.463917 13.75,16 13.75,15.536083 13.566259,15.089697 13.238281,14.761719 12.910303,14.433741 12.463917,14.25 12,14.25 Z m 0,1.5 c 0.06648,0 0.130713,0.02524 0.177734,0.07227 C 12.224756,15.869287 12.25,15.933518 12.25,16 c 0,0.06648 -0.02524,0.130713 -0.07227,0.177734 C 12.130713,16.224756 12.066482,16.25 12,16.25 c -0.06648,0 -0.130713,-0.02524 -0.177734,-0.07227 C 11.775244,16.130713 11.75,16.066482 11.75,16 c 0,-0.06648 0.02524,-0.130713 0.07227,-0.177734 C 11.869287,15.775244 11.933518,15.75 12,15.75 Z"
     id="path5" />
</svg>
