<?xml version="1.0" encoding="UTF-8" standalone="no"?>
<svg
   width="24"
   height="24"
   viewBox="0 0 24 24"
   fill="none"
   version="1.1"
   id="svg11"
   sodipodi:docname="calendar-cog.svg"
   inkscape:version="1.3.2 (091e20e, 2023-11-25)"
   xmlns:inkscape="http://www.inkscape.org/namespaces/inkscape"
   xmlns:sodipodi="http://sodipodi.sourceforge.net/DTD/sodipodi-0.dtd"
   xmlns="http://www.w3.org/2000/svg"
   xmlns:svg="http://www.w3.org/2000/svg">
  <defs
     id="defs11" />
  <sodipodi:namedview
     id="namedview11"
     pagecolor="#505050"
     bordercolor="#eeeeee"
     borderopacity="1"
     inkscape:showpageshadow="0"
     inkscape:pageopacity="0"
     inkscape:pagecheckerboard="0"
     inkscape:deskcolor="#505050"
     inkscape:zoom="9.8333333"
     inkscape:cx="11.949153"
     inkscape:cy="12"
     inkscape:window-width="1504"
     inkscape:window-height="449"
     inkscape:window-x="0"
     inkscape:window-y="25"
     inkscape:window-maximized="0"
     inkscape:current-layer="svg11" />
  <path
     style="color:#000000;fill:#000000;stroke-linecap:round;stroke-linejoin:round;-inkscape-stroke:none"
     d="M 6,4.25 C 5.2709489,4.25 4.5702101,4.5391512 4.0546875,5.0546875 3.5391512,5.5702101 3.25,6.2709489 3.25,7 v 12 c 0,0.729032 0.2891807,1.429778 0.8046875,1.945312 C 4.5702164,21.460883 5.2709583,21.75 6,21.75 h 6 A 0.75,0.75 0 0 0 12.75,21 0.75,0.75 0 0 0 12,20.25 H 6 C 5.6681828,20.25 5.3498448,20.119395 5.1152344,19.884766 4.880582,19.650101 4.75,19.331767 4.75,19 V 7 C 4.75,6.6681922 4.8806115,6.349851 5.1152344,6.1152344 5.349851,5.8806115 5.6681922,5.75 6,5.75 h 12 c 0.331767,0 0.650101,0.130582 0.884766,0.3652344 C 19.119395,6.3498448 19.25,6.6681828 19.25,7 v 5 A 0.75,0.75 0 0 0 20,12.75 0.75,0.75 0 0 0 20.75,12 V 7 C 20.75,6.2709583 20.460883,5.5702164 19.945312,5.0546875 19.429778,4.5391807 18.729032,4.25 18,4.25 Z"
     id="path1" />
  <path
     style="color:#000000;fill:#000000;stroke-linecap:round;stroke-linejoin:round;-inkscape-stroke:none"
     d="M 16,2.25 A 0.75,0.75 0 0 0 15.25,3 V 7 A 0.75,0.75 0 0 0 16,7.75 0.75,0.75 0 0 0 16.75,7 V 3 A 0.75,0.75 0 0 0 16,2.25 Z"
     id="path2" />
  <path
     style="color:#000000;fill:#000000;stroke-linecap:round;stroke-linejoin:round;-inkscape-stroke:none"
     d="M 8,2.25 A 0.75,0.75 0 0 0 7.25,3 V 7 A 0.75,0.75 0 0 0 8,7.75 0.75,0.75 0 0 0 8.75,7 V 3 A 0.75,0.75 0 0 0 8,2.25 Z"
     id="path3" />
  <path
     style="color:#000000;fill:#000000;stroke-linecap:round;stroke-linejoin:round;-inkscape-stroke:none"
     d="M 4,10.25 A 0.75,0.75 0 0 0 3.25,11 0.75,0.75 0 0 0 4,11.75 H 20 A 0.75,0.75 0 0 0 20.75,11 0.75,0.75 0 0 0 20,10.25 Z"
     id="path4" />
  <path
     style="color:#000000;fill:#000000;stroke-linecap:round;stroke-linejoin:round;-inkscape-stroke:none"
     d="m 19.001953,16.25 c -0.729085,0 -1.429827,0.289064 -1.945312,0.804687 C 16.5411,17.570228 16.251953,18.270977 16.251953,19 c 0,0.729023 0.289147,1.429772 0.804688,1.945312 0.515485,0.515624 1.216227,0.804688 1.945312,0.804688 0.729023,0 1.427819,-0.289147 1.943359,-0.804688 0.515541,-0.51554 0.806641,-1.216289 0.806641,-1.945312 0,-0.729023 -0.2911,-1.429772 -0.806641,-1.945313 C 20.429772,16.539147 19.730976,16.25 19.001953,16.25 Z m 0,1.5 c 0.331776,0 0.648154,0.130576 0.882813,0.365234 0.234658,0.234659 0.367187,0.55299 0.367187,0.884766 0,0.331776 -0.132529,0.650107 -0.367187,0.884766 C 19.650107,20.119424 19.333729,20.25 19.001953,20.25 18.67004,20.25 18.351701,20.119342 18.117187,19.884766 17.882529,19.650107 17.751953,19.331776 17.751953,19 c 0,-0.331776 0.130576,-0.650107 0.365234,-0.884766 C 18.351701,17.880658 18.67004,17.75 19.001953,17.75 Z"
     id="path5" />
  <path
     style="color:#000000;fill:#000000;stroke-linecap:round;stroke-linejoin:round;-inkscape-stroke:none"
     d="m 19.001953,14.75 a 0.75,0.75 0 0 0 -0.75,0.75 V 17 a 0.75,0.75 0 0 0 0.75,0.75 0.75,0.75 0 0 0 0.75,-0.75 v -1.5 a 0.75,0.75 0 0 0 -0.75,-0.75 z"
     id="path6" />
  <path
     style="color:#000000;fill:#000000;stroke-linecap:round;stroke-linejoin:round;-inkscape-stroke:none"
     d="m 19.001953,20.25 a 0.75,0.75 0 0 0 -0.75,0.75 v 1.5 a 0.75,0.75 0 0 0 0.75,0.75 0.75,0.75 0 0 0 0.75,-0.75 V 21 a 0.75,0.75 0 0 0 -0.75,-0.75 z"
     id="path7" />
  <path
     style="color:#000000;fill:#000000;stroke-linecap:round;stroke-linejoin:round;-inkscape-stroke:none"
     d="m 21.65625,16.599609 -1.298828,0.75 a 0.75,0.75 0 0 0 -0.273438,1.025391 0.75,0.75 0 0 0 1.023438,0.275391 l 1.298828,-0.75 A 0.75,0.75 0 0 0 22.681641,16.875 0.75,0.75 0 0 0 21.65625,16.599609 Z"
     id="path8" />
  <path
     style="color:#000000;fill:#000000;stroke-linecap:round;stroke-linejoin:round;-inkscape-stroke:none"
     d="m 17.464844,19.275391 a 0.75,0.75 0 0 0 -0.570313,0.07422 l -1.298828,0.75 a 0.75,0.75 0 0 0 -0.27539,1.025391 0.75,0.75 0 0 0 1.02539,0.275391 l 1.298828,-0.75 A 0.75,0.75 0 0 0 17.919922,19.625 0.75,0.75 0 0 0 17.464844,19.275391 Z"
     id="path9" />
  <path
     style="color:#000000;fill:#000000;stroke-linecap:round;stroke-linejoin:round;-inkscape-stroke:none"
     d="m 15.775391,16.525391 a 0.75,0.75 0 0 0 -0.455078,0.349609 0.75,0.75 0 0 0 0.27539,1.025391 l 1.298828,0.75 A 0.75,0.75 0 0 0 17.919922,18.375 0.75,0.75 0 0 0 17.644531,17.349609 l -1.298828,-0.75 a 0.75,0.75 0 0 0 -0.570312,-0.07422 z"
     id="path10" />
  <path
     style="color:#000000;fill:#000000;stroke-linecap:round;stroke-linejoin:round;-inkscape-stroke:none"
     d="m 20.539062,19.275391 a 0.75,0.75 0 0 0 -0.455078,0.349609 0.75,0.75 0 0 0 0.273438,1.025391 l 1.300781,0.75 A 0.75,0.75 0 0 0 22.683594,21.125 0.75,0.75 0 0 0 22.408203,20.099609 l -1.300781,-0.75 a 0.75,0.75 0 0 0 -0.56836,-0.07422 z"
     id="path11" />
</svg>
