<?xml version="1.0" encoding="UTF-8" standalone="no"?>
<svg
   width="24"
   height="24"
   viewBox="0 0 24 24"
   fill="none"
   version="1.1"
   id="svg4"
   sodipodi:docname="camera-exclamation.svg"
   inkscape:version="1.3.2 (091e20e, 2023-11-25)"
   xmlns:inkscape="http://www.inkscape.org/namespaces/inkscape"
   xmlns:sodipodi="http://sodipodi.sourceforge.net/DTD/sodipodi-0.dtd"
   xmlns="http://www.w3.org/2000/svg"
   xmlns:svg="http://www.w3.org/2000/svg">
  <defs
     id="defs4" />
  <sodipodi:namedview
     id="namedview4"
     pagecolor="#505050"
     bordercolor="#eeeeee"
     borderopacity="1"
     inkscape:showpageshadow="0"
     inkscape:pageopacity="0"
     inkscape:pagecheckerboard="0"
     inkscape:deskcolor="#505050"
     inkscape:zoom="9.8333333"
     inkscape:cx="11.949153"
     inkscape:cy="12"
     inkscape:window-width="1504"
     inkscape:window-height="449"
     inkscape:window-x="0"
     inkscape:window-y="25"
     inkscape:window-maximized="0"
     inkscape:current-layer="svg4" />
  <path
     style="color:#000000;fill:#000000;stroke-linecap:round;stroke-linejoin:round;-inkscape-stroke:none"
     d="M 9,3.25 C 8.5361529,3.25 8.089696,3.433759 7.7617187,3.7617188 7.433759,4.089696 7.25,4.5361529 7.25,5 7.25,5.3318078 7.1193885,5.650149 6.8847656,5.8847656 6.650149,6.1193885 6.3318078,6.25 6,6.25 H 5 C 4.2709489,6.25 3.5702101,6.5391512 3.0546875,7.0546875 2.5391512,7.5702101 2.25,8.2709489 2.25,9 v 9 c 0,0.729032 0.2891807,1.429778 0.8046875,1.945312 C 3.5702164,20.460883 4.2709583,20.75 5,20.75 H 15 A 0.75,0.75 0 0 0 15.75,20 0.75,0.75 0 0 0 15,19.25 H 5 C 4.6681828,19.25 4.3498448,19.119395 4.1152344,18.884766 3.880582,18.650101 3.75,18.331767 3.75,18 V 9 C 3.75,8.6681922 3.8806115,8.349851 4.1152344,8.1152344 4.349851,7.8806115 4.6681922,7.75 5,7.75 H 6 C 6.7290511,7.75 7.4297899,7.4608488 7.9453125,6.9453125 8.4608488,6.4297899 8.75,5.7290511 8.75,5 8.75,4.9334076 8.7751658,4.869368 8.8222656,4.8222656 8.869368,4.7751658 8.9334076,4.75 9,4.75 h 6 c 0.06656,0 0.128802,0.025279 0.175781,0.072266 C 15.222916,4.8694103 15.25,4.933483 15.25,5 c 0,0.7290417 0.289117,1.4297836 0.804687,1.9453125 C 16.570222,7.4608193 17.270968,7.75 18,7.75 h 1 c 0.331767,0 0.650101,0.130582 0.884766,0.3652344 C 20.119395,8.3498448 20.25,8.6681828 20.25,9 v 3.5 A 0.75,0.75 0 0 0 21,13.25 0.75,0.75 0 0 0 21.75,12.5 V 9 C 21.75,8.2709583 21.460883,7.5702164 20.945312,7.0546875 20.429778,6.5391807 19.729032,6.25 19,6.25 H 18 C 17.668233,6.25 17.349899,6.119418 17.115234,5.8847656 16.880605,5.6501552 16.75,5.3318172 16.75,5 16.75,4.5360775 16.566146,4.0896536 16.238281,3.7617188 15.910261,3.4336457 15.463842,3.25 15,3.25 Z"
     id="path1" />
  <path
     style="color:#000000;fill:#000000;stroke-linecap:round;stroke-linejoin:round;-inkscape-stroke:none"
     d="m 12,9.25 c -0.994254,0 -1.949277,0.3946144 -2.6523437,1.097656 C 8.6445809,11.050719 8.25,12.005765 8.25,13 c 0,0.994235 0.3945809,1.949281 1.0976563,2.652344 C 10.050723,16.355386 11.005746,16.75 12,16.75 c 0.994254,0 1.949291,-0.394603 2.652344,-1.097656 C 15.355397,14.949291 15.75,13.994254 15.75,13 15.75,12.005746 15.355397,11.050709 14.652344,10.347656 13.949291,9.6446034 12.994254,9.25 12,9.25 Z m 0,1.5 c 0.596944,0 1.169651,0.236057 1.591797,0.658203 C 14.013943,11.830349 14.25,12.403056 14.25,13 c 0,0.596944 -0.236057,1.169651 -0.658203,1.591797 C 13.169651,15.013943 12.596944,15.25 12,15.25 11.403056,15.25 10.830375,15.013954 10.408203,14.591797 9.9860596,14.169661 9.75,13.596963 9.75,13 9.75,12.403037 9.9860596,11.830339 10.408203,11.408203 10.830375,10.986046 11.403056,10.75 12,10.75 Z"
     id="path2" />
  <path
     style="color:#000000;fill:#000000;stroke-linecap:round;stroke-linejoin:round;-inkscape-stroke:none"
     d="M 19,15.25 A 0.75,0.75 0 0 0 18.25,16 v 3 A 0.75,0.75 0 0 0 19,19.75 0.75,0.75 0 0 0 19.75,19 V 16 A 0.75,0.75 0 0 0 19,15.25 Z"
     id="path3" />
  <path
     style="color:#000000;fill:#000000;stroke-linecap:round;stroke-linejoin:round;-inkscape-stroke:none"
     d="M 19,21.25 A 0.75,0.75 0 0 0 18.25,22 v 0.0098 a 0.75,0.75 0 0 0 0.75,0.75 0.75,0.75 0 0 0 0.75,-0.75 V 22 A 0.75,0.75 0 0 0 19,21.25 Z"
     id="path4" />
</svg>
