<?xml version="1.0" encoding="UTF-8" standalone="no"?>
<svg
   width="24"
   height="24"
   viewBox="0 0 24 24"
   fill="none"
   version="1.1"
   id="svg3"
   sodipodi:docname="car.svg"
   inkscape:version="1.3.2 (091e20e, 2023-11-25)"
   xmlns:inkscape="http://www.inkscape.org/namespaces/inkscape"
   xmlns:sodipodi="http://sodipodi.sourceforge.net/DTD/sodipodi-0.dtd"
   xmlns="http://www.w3.org/2000/svg"
   xmlns:svg="http://www.w3.org/2000/svg">
  <defs
     id="defs3" />
  <sodipodi:namedview
     id="namedview3"
     pagecolor="#505050"
     bordercolor="#eeeeee"
     borderopacity="1"
     inkscape:showpageshadow="0"
     inkscape:pageopacity="0"
     inkscape:pagecheckerboard="0"
     inkscape:deskcolor="#505050"
     inkscape:zoom="9.8333333"
     inkscape:cx="11.949153"
     inkscape:cy="12"
     inkscape:window-width="1504"
     inkscape:window-height="449"
     inkscape:window-x="0"
     inkscape:window-y="25"
     inkscape:window-maximized="0"
     inkscape:current-layer="svg3" />
  <path
     style="color:#000000;fill:#000000;stroke-linecap:round;stroke-linejoin:round;-inkscape-stroke:none"
     d="m 7,14.25 c -0.7290417,0 -1.4297836,0.289117 -1.9453125,0.804688 C 4.5391807,15.570222 4.25,16.270968 4.25,17 c 0,0.729032 0.2891807,1.429778 0.8046875,1.945312 C 5.5702164,19.460883 6.2709583,19.75 7,19.75 7.7290417,19.75 8.4297836,19.460883 8.9453125,18.945312 9.4608193,18.429778 9.75,17.729032 9.75,17 9.75,16.270968 9.4608193,15.570222 8.9453125,15.054688 8.4297836,14.539117 7.7290417,14.25 7,14.25 Z m 0,1.5 c 0.3318172,0 0.6501552,0.130605 0.8847656,0.365234 C 8.119418,16.349899 8.25,16.668233 8.25,17 8.25,17.331767 8.119418,17.650101 7.8847656,17.884766 7.6501552,18.119395 7.3318172,18.25 7,18.25 6.6681828,18.25 6.3498448,18.119395 6.1152344,17.884766 5.880582,17.650101 5.75,17.331767 5.75,17 5.75,16.668233 5.880582,16.349899 6.1152344,16.115234 6.3498448,15.880605 6.6681828,15.75 7,15.75 Z"
     id="path1" />
  <path
     style="color:#000000;fill:#000000;stroke-linecap:round;stroke-linejoin:round;-inkscape-stroke:none"
     d="m 17,14.25 c -0.729023,0 -1.429772,0.289147 -1.945312,0.804688 C 14.539147,15.570228 14.25,16.270977 14.25,17 c 0,0.729023 0.289147,1.429772 0.804688,1.945312 C 15.570228,19.460853 16.270977,19.75 17,19.75 c 0.729023,0 1.429772,-0.289147 1.945312,-0.804688 C 19.460853,18.429772 19.75,17.729023 19.75,17 19.75,16.270977 19.460853,15.570228 18.945312,15.054688 18.429772,14.539147 17.729023,14.25 17,14.25 Z m 0,1.5 c 0.331776,0 0.650107,0.130576 0.884766,0.365234 C 18.119424,16.349893 18.25,16.668224 18.25,17 c 0,0.331776 -0.130576,0.650107 -0.365234,0.884766 C 17.650107,18.119424 17.331776,18.25 17,18.25 16.668224,18.25 16.349893,18.119424 16.115234,17.884766 15.880576,17.650107 15.75,17.331776 15.75,17 c 0,-0.331776 0.130576,-0.650107 0.365234,-0.884766 C 16.349893,15.880576 16.668224,15.75 17,15.75 Z"
     id="path2" />
  <path
     style="color:#000000;fill:#000000;stroke-linecap:round;stroke-linejoin:round;-inkscape-stroke:none"
     d="M 5,5.25 A 0.750075,0.750075 0 0 0 4.3027344,5.7207031 l -2,4.9999999 a 0.75,0.75 0 0 0 0.03125,0.07422 A 0.75,0.75 0 0 0 2.25,11 v 6 A 0.750075,0.750075 0 0 0 3,17.75 H 5 A 0.75,0.75 0 0 0 5.75,17 0.75,0.75 0 0 0 5,16.25 H 3.75 v -4.5 h 8.25 6 1 c 0.331776,0 0.650107,0.130576 0.884766,0.365234 C 20.119424,12.349893 20.25,12.668224 20.25,13 v 3.25 H 19 A 0.75,0.75 0 0 0 18.25,17 0.75,0.75 0 0 0 19,17.75 h 2 A 0.750075,0.750075 0 0 0 21.75,17 v -4 c 0,-0.729023 -0.289147,-1.429772 -0.804688,-1.945312 C 20.429772,10.539147 19.729023,10.25 19,10.25 H 18.361328 L 14.585938,5.53125 A 0.750075,0.750075 0 0 0 14,5.25 h -2 z m 0.5078125,1.5 H 11.25 v 3.5 H 4.109375 Z M 12.75,6.75 h 0.888672 l 2.800781,3.5 H 12.75 Z M 9,16.25 A 0.75,0.75 0 0 0 8.25,17 0.75,0.75 0 0 0 9,17.75 h 6 A 0.75,0.75 0 0 0 15.75,17 0.75,0.75 0 0 0 15,16.25 Z"
     id="path3" />
</svg>
