<?xml version="1.0" encoding="UTF-8" standalone="no"?>
<svg
   width="24"
   height="24"
   viewBox="0 0 24 24"
   fill="none"
   version="1.1"
   id="svg3"
   sodipodi:docname="circle-plus.svg"
   inkscape:version="1.3.2 (091e20e, 2023-11-25)"
   xmlns:inkscape="http://www.inkscape.org/namespaces/inkscape"
   xmlns:sodipodi="http://sodipodi.sourceforge.net/DTD/sodipodi-0.dtd"
   xmlns="http://www.w3.org/2000/svg"
   xmlns:svg="http://www.w3.org/2000/svg">
  <defs
     id="defs3" />
  <sodipodi:namedview
     id="namedview3"
     pagecolor="#505050"
     bordercolor="#eeeeee"
     borderopacity="1"
     inkscape:showpageshadow="0"
     inkscape:pageopacity="0"
     inkscape:pagecheckerboard="0"
     inkscape:deskcolor="#505050"
     inkscape:zoom="9.8333333"
     inkscape:cx="11.949153"
     inkscape:cy="12"
     inkscape:window-width="1504"
     inkscape:window-height="449"
     inkscape:window-x="0"
     inkscape:window-y="25"
     inkscape:window-maximized="0"
     inkscape:current-layer="svg3" />
  <path
     style="color:#000000;fill:#000000;stroke-linecap:round;stroke-linejoin:round;-inkscape-stroke:none"
     d="M 12,2.25 C 9.4144288,2.25 6.9337449,3.2771926 5.1054687,5.1054687 3.2771926,6.9337449 2.25,9.4144288 2.25,12 c 0,1.28038 0.2522205,2.547502 0.7421875,3.730469 0.4899888,1.182884 1.2079454,2.258651 2.1132812,3.164062 0.9053695,0.905337 1.9811635,1.6233 3.1640626,2.113281 C 9.4524447,21.4978 10.719616,21.75 12,21.75 c 1.280384,0 2.547503,-0.25221 3.730469,-0.742188 1.182874,-0.489984 2.258648,-1.207975 3.164062,-2.113281 0.905306,-0.905414 1.623297,-1.981188 2.113281,-3.164062 C 21.49779,14.547503 21.75,13.280384 21.75,12 21.75,9.4144309 20.722775,6.9337454 18.894531,5.1054687 17.06619,3.2772034 14.585525,2.25 12,2.25 Z m 0,1.5 c 2.18827,0 4.286529,0.8686244 5.833984,2.4160156 C 19.381337,7.7133956 20.25,9.8116739 20.25,12 c 0,1.083413 -0.214285,2.155218 -0.628906,3.15625 -0.414615,1.000924 -1.021017,1.91155 -1.78711,2.677734 -0.766184,0.766093 -1.67681,1.372495 -2.677734,1.78711 C 14.155218,20.035715 13.083413,20.25 12,20.25 10.916587,20.25 9.8446944,20.035706 8.84375,19.621094 7.8427913,19.206476 6.9321045,18.600046 6.1660156,17.833984 5.3998932,17.067798 4.7935166,16.157163 4.3789062,15.15625 3.9642942,14.155219 3.75,13.083418 3.75,12 3.75,9.811676 4.6186351,7.7133961 6.1660156,6.1660156 7.7133961,4.6186351 9.811676,3.75 12,3.75 Z"
     id="path1" />
  <path
     style="color:#000000;fill:#000000;stroke-linecap:round;stroke-linejoin:round;-inkscape-stroke:none"
     d="M 9,11.25 A 0.75,0.75 0 0 0 8.25,12 0.75,0.75 0 0 0 9,12.75 h 6 A 0.75,0.75 0 0 0 15.75,12 0.75,0.75 0 0 0 15,11.25 Z"
     id="path2" />
  <path
     style="color:#000000;fill:#000000;stroke-linecap:round;stroke-linejoin:round;-inkscape-stroke:none"
     d="M 12,8.25 A 0.75,0.75 0 0 0 11.25,9 v 6 A 0.75,0.75 0 0 0 12,15.75 0.75,0.75 0 0 0 12.75,15 V 9 A 0.75,0.75 0 0 0 12,8.25 Z"
     id="path3" />
</svg>
