<?xml version="1.0" encoding="UTF-8" standalone="no"?>
<svg
   width="24"
   height="24"
   viewBox="0 0 24 24"
   fill="none"
   version="1.1"
   id="svg4"
   sodipodi:docname="clipboard-plus.svg"
   inkscape:version="1.3.2 (091e20e, 2023-11-25)"
   xmlns:inkscape="http://www.inkscape.org/namespaces/inkscape"
   xmlns:sodipodi="http://sodipodi.sourceforge.net/DTD/sodipodi-0.dtd"
   xmlns="http://www.w3.org/2000/svg"
   xmlns:svg="http://www.w3.org/2000/svg">
  <defs
     id="defs4" />
  <sodipodi:namedview
     id="namedview4"
     pagecolor="#505050"
     bordercolor="#eeeeee"
     borderopacity="1"
     inkscape:showpageshadow="0"
     inkscape:pageopacity="0"
     inkscape:pagecheckerboard="0"
     inkscape:deskcolor="#505050"
     inkscape:zoom="9.8333333"
     inkscape:cx="11.949153"
     inkscape:cy="12"
     inkscape:window-width="1504"
     inkscape:window-height="449"
     inkscape:window-x="0"
     inkscape:window-y="25"
     inkscape:window-maximized="0"
     inkscape:current-layer="svg4" />
  <path
     style="color:#000000;fill:#000000;stroke-linecap:round;stroke-linejoin:round;-inkscape-stroke:none"
     d="M 7,4.25 C 6.2709489,4.25 5.5702101,4.5391512 5.0546875,5.0546875 4.5391512,5.5702101 4.25,6.2709489 4.25,7 v 12 c 0,0.729032 0.2891807,1.429778 0.8046875,1.945312 C 5.5702164,21.460883 6.2709583,21.75 7,21.75 h 10 c 0.729023,0 1.429772,-0.289147 1.945312,-0.804688 C 19.460853,20.429772 19.75,19.729023 19.75,19 V 7 C 19.75,6.2709583 19.460883,5.5702164 18.945312,5.0546875 18.429778,4.5391807 17.729032,4.25 17,4.25 H 15 A 0.75,0.75 0 0 0 14.25,5 0.75,0.75 0 0 0 15,5.75 h 2 c 0.331767,0 0.650101,0.130582 0.884766,0.3652344 C 18.119395,6.3498448 18.25,6.6681828 18.25,7 v 12 c 0,0.331776 -0.130576,0.650107 -0.365234,0.884766 C 17.650107,20.119424 17.331776,20.25 17,20.25 H 7 C 6.6681828,20.25 6.3498448,20.119395 6.1152344,19.884766 5.880582,19.650101 5.75,19.331767 5.75,19 V 7 C 5.75,6.6681922 5.8806115,6.349851 6.1152344,6.1152344 6.349851,5.8806115 6.6681922,5.75 7,5.75 H 9 A 0.75,0.75 0 0 0 9.75,5 0.75,0.75 0 0 0 9,4.25 Z"
     id="path1" />
  <path
     style="color:#000000;fill:#000000;stroke-linecap:round;stroke-linejoin:round;-inkscape-stroke:none"
     d="M 11,2.25 C 10.270968,2.25 9.5702242,2.539137 9.0546875,3.0546875 8.5391512,3.5702101 8.25,4.2709489 8.25,5 8.25,5.7290511 8.5391512,6.4297899 9.0546875,6.9453125 9.5702242,7.460863 10.270968,7.75 11,7.75 h 2 c 0.729032,0 1.429778,-0.2891807 1.945313,-0.8046875 C 15.460883,6.4297836 15.75,5.7290417 15.75,5 15.75,4.2709583 15.460883,3.5702164 14.945313,3.0546875 14.429778,2.5391807 13.729032,2.25 13,2.25 Z m 0,1.5 h 2 c 0.331767,0 0.650101,0.130582 0.884766,0.3652344 C 14.119395,4.3498448 14.25,4.6681828 14.25,5 14.25,5.3318172 14.119395,5.6501552 13.884766,5.8847656 13.650101,6.119418 13.331767,6.25 13,6.25 H 11 C 10.668233,6.25 10.349837,6.1193744 10.115234,5.8847656 9.8806115,5.650149 9.75,5.3318078 9.75,5 9.75,4.6681922 9.8806115,4.349851 10.115234,4.1152344 10.349837,3.8806256 10.668233,3.75 11,3.75 Z"
     id="path2" />
  <path
     style="color:#000000;fill:#000000;stroke-linecap:round;stroke-linejoin:round;-inkscape-stroke:none"
     d="M 10,13.25 A 0.75,0.75 0 0 0 9.25,14 0.75,0.75 0 0 0 10,14.75 h 4 A 0.75,0.75 0 0 0 14.75,14 0.75,0.75 0 0 0 14,13.25 Z"
     id="path3" />
  <path
     style="color:#000000;fill:#000000;stroke-linecap:round;stroke-linejoin:round;-inkscape-stroke:none"
     d="M 12,11.25 A 0.75,0.75 0 0 0 11.25,12 v 4 A 0.75,0.75 0 0 0 12,16.75 0.75,0.75 0 0 0 12.75,16 V 12 A 0.75,0.75 0 0 0 12,11.25 Z"
     id="path4" />
</svg>
