<?xml version="1.0" encoding="UTF-8" standalone="no"?>
<svg
   width="24"
   height="24"
   viewBox="0 0 24 24"
   fill="none"
   version="1.1"
   id="svg3"
   sodipodi:docname="clock-edit.svg"
   inkscape:version="1.3.2 (091e20e, 2023-11-25)"
   xmlns:inkscape="http://www.inkscape.org/namespaces/inkscape"
   xmlns:sodipodi="http://sodipodi.sourceforge.net/DTD/sodipodi-0.dtd"
   xmlns="http://www.w3.org/2000/svg"
   xmlns:svg="http://www.w3.org/2000/svg">
  <defs
     id="defs3" />
  <sodipodi:namedview
     id="namedview3"
     pagecolor="#505050"
     bordercolor="#eeeeee"
     borderopacity="1"
     inkscape:showpageshadow="0"
     inkscape:pageopacity="0"
     inkscape:pagecheckerboard="0"
     inkscape:deskcolor="#505050"
     inkscape:zoom="9.8333333"
     inkscape:cx="11.949153"
     inkscape:cy="12"
     inkscape:window-width="1504"
     inkscape:window-height="449"
     inkscape:window-x="0"
     inkscape:window-y="25"
     inkscape:window-maximized="0"
     inkscape:current-layer="svg3" />
  <path
     style="color:#000000;fill:#000000;stroke-linecap:round;stroke-linejoin:round;-inkscape-stroke:none"
     d="M 13.283203,2.3359375 C 12.359243,2.2133188 11.416609,2.223004 10.486328,2.3691406 8.6258032,2.6614042 6.8900476,3.4863121 5.4882812,4.7441406 4.0865175,6.0019668 3.0792633,7.6388904 2.5878906,9.4570313 2.0965157,11.275148 2.1414212,13.197497 2.71875,14.990234 c 0.5773329,1.792642 1.663003,3.378676 3.1230469,4.56836 1.4600253,1.189668 3.2331152,1.931322 5.1054691,2.134765 a 0.750075,0.750075 0 0 0 0.002,0 C 11.294454,21.730041 11.644561,21.75 12,21.75 A 0.75,0.75 0 0 0 12.75,21 0.75,0.75 0 0 0 12,20.25 c -0.300561,0 -0.597814,-0.01751 -0.892578,-0.04883 l 0.002,0.002 C 9.5249719,20.030969 8.0245745,19.403213 6.7890625,18.396484 5.5535691,17.38977 4.6350304,16.046252 4.1464844,14.529297 3.6579343,13.012238 3.619352,11.386157 4.0351562,9.8476563 4.4509626,8.3091204 5.3040407,6.9237665 6.4902344,5.859375 7.6764254,4.7949858 9.1443584,4.0969252 10.71875,3.8496094 c 1.574435,-0.2473262 3.187129,-0.032242 4.642578,0.6171875 1.455351,0.6494167 2.691017,1.706008 3.558594,3.0429687 C 19.787401,8.8467091 20.249908,10.406231 20.25,12 A 0.75,0.75 0 0 0 21,12.75 0.75,0.75 0 0 0 21.75,12 C 21.749892,10.116572 21.204806,8.273253 20.179687,6.6933594 19.154466,5.113463 17.692502,3.8650981 15.972656,3.0976563 a 0.750075,0.750075 0 0 0 0,-0.00195 C 15.112682,2.7119783 14.207163,2.4585562 13.283203,2.3359375 Z"
     id="path1" />
  <path
     style="color:#000000;fill:#000000;stroke-linecap:round;stroke-linejoin:round;-inkscape-stroke:none"
     d="M 12,6.25 A 0.75,0.75 0 0 0 11.25,7 v 5 a 0.750075,0.750075 0 0 0 0.21875,0.53125 l 2,2 a 0.75,0.75 0 0 0 1.0625,0 0.75,0.75 0 0 0 0,-1.0625 L 12.75,11.689453 V 7 A 0.75,0.75 0 0 0 12,6.25 Z"
     id="path2" />
  <path
     style="color:#000000;fill:#000000;stroke-linecap:round;stroke-linejoin:round;-inkscape-stroke:none"
     d="m 19.904297,14.244141 c -0.374241,0 -0.743946,0.07539 -1.089844,0.21875 -0.345879,0.143211 -0.659205,0.352565 -0.923828,0.617187 l -3.417969,3.386719 A 0.750075,0.750075 0 0 0 14.25,19 v 3 A 0.750075,0.750075 0 0 0 15,22.75 h 3 a 0.750075,0.750075 0 0 0 0.533203,-0.222656 l 3.386719,-3.416016 0.002,-0.0039 c 0.263169,-0.263977 0.474533,-0.577342 0.617187,-0.921875 h -0.002 c 0.143355,-0.345898 0.21875,-0.715603 0.21875,-1.089844 0,-0.37424 -0.0754,-0.745899 -0.21875,-1.091797 h 0.002 c -0.143183,-0.345676 -0.354427,-0.659115 -0.61914,-0.923828 -0.264623,-0.264622 -0.577949,-0.473976 -0.923828,-0.617187 -0.345898,-0.143355 -0.717557,-0.21875 -1.091797,-0.21875 z m 0,1.5 c 0.177359,0 0.353877,0.03567 0.517578,0.103515 0.163721,0.06779 0.312123,0.167592 0.4375,0.292969 0.125286,0.125286 0.225153,0.273777 0.292969,0.4375 0.06785,0.163701 0.103515,0.340219 0.103515,0.517578 0,0.177359 -0.03567,0.351924 -0.103515,0.515625 -0.06779,0.163721 -0.167592,0.314076 -0.292969,0.439453 a 0.750075,0.750075 0 0 0 -0.002,0.002 L 17.6875,21.25 H 15.75 v -1.9375 l 3.197266,-3.169922 a 0.750075,0.750075 0 0 0 0.0039,-0.002 c 0.125377,-0.125377 0.273779,-0.22518 0.4375,-0.292969 0.163701,-0.06785 0.338266,-0.103515 0.515625,-0.103515 z"
     id="path3" />
</svg>
