<?xml version="1.0" encoding="UTF-8" standalone="no"?>
<svg
   width="24"
   height="24"
   viewBox="0 0 24 24"
   fill="none"
   version="1.1"
   id="svg4"
   sodipodi:docname="clock-plus.svg"
   inkscape:version="1.3.2 (091e20e, 2023-11-25)"
   xmlns:inkscape="http://www.inkscape.org/namespaces/inkscape"
   xmlns:sodipodi="http://sodipodi.sourceforge.net/DTD/sodipodi-0.dtd"
   xmlns="http://www.w3.org/2000/svg"
   xmlns:svg="http://www.w3.org/2000/svg">
  <defs
     id="defs4" />
  <sodipodi:namedview
     id="namedview4"
     pagecolor="#505050"
     bordercolor="#eeeeee"
     borderopacity="1"
     inkscape:showpageshadow="0"
     inkscape:pageopacity="0"
     inkscape:pagecheckerboard="0"
     inkscape:deskcolor="#505050"
     inkscape:zoom="9.8333333"
     inkscape:cx="11.949153"
     inkscape:cy="12"
     inkscape:window-width="1504"
     inkscape:window-height="449"
     inkscape:window-x="0"
     inkscape:window-y="25"
     inkscape:window-maximized="0"
     inkscape:current-layer="svg4" />
  <path
     style="color:#000000;fill:#000000;stroke-linecap:round;stroke-linejoin:round;-inkscape-stroke:none"
     d="M 13.177734,2.3222656 C 12.207604,2.2041516 11.220357,2.2305917 10.248047,2.4082031 8.3033519,2.7634346 6.5126008,3.7013049 5.1132812,5.0976562 3.713953,6.4940054 2.7714798,8.2846287 2.4121094,10.228516 c -0.3593566,1.943946 -0.118147,3.949502 0.6894531,5.753906 0.807617,1.804334 2.1448785,3.320604 3.8339844,4.347656 1.68913,1.026959 3.6494351,1.517607 5.6230471,1.404297 a 0.75,0.75 0 0 0 0.707031,-0.792969 0.75,0.75 0 0 0 -0.792969,-0.705078 c -1.670184,0.09589 -3.3284254,-0.31846 -4.7578123,-1.1875 C 6.2854328,18.179682 5.1541246,16.897957 4.4707031,15.371094 3.7872647,13.844101 3.5826159,12.14505 3.8867188,10.5 4.1908277,8.8550305 4.9877258,7.3417845 6.171875,6.1601562 7.3560128,4.9785302 8.8719167,4.1853735 10.517578,3.8847656 c 1.645576,-0.3005965 3.343741,-0.094871 4.869141,0.5917969 1.525497,0.6866802 2.805863,1.8207277 3.671875,3.2519531 0.866016,1.4312408 1.275244,3.0918444 1.175781,4.7617184 a 0.75,0.75 0 0 0 0.705078,0.792969 0.75,0.75 0 0 0 0.792969,-0.703125 C 21.849959,10.606756 21.365179,8.6444411 20.341797,6.953125 19.318411,5.2618136 17.804652,3.9208333 16.001953,3.109375 15.100655,2.7036499 14.147864,2.4403797 13.177734,2.3222656 Z"
     id="path1" />
  <path
     style="color:#000000;fill:#000000;stroke-linecap:round;stroke-linejoin:round;-inkscape-stroke:none"
     d="M 16,18.25 A 0.75,0.75 0 0 0 15.25,19 0.75,0.75 0 0 0 16,19.75 h 6 A 0.75,0.75 0 0 0 22.75,19 0.75,0.75 0 0 0 22,18.25 Z"
     id="path2" />
  <path
     style="color:#000000;fill:#000000;stroke-linecap:round;stroke-linejoin:round;-inkscape-stroke:none"
     d="M 19,15.25 A 0.75,0.75 0 0 0 18.25,16 v 6 A 0.75,0.75 0 0 0 19,22.75 0.75,0.75 0 0 0 19.75,22 V 16 A 0.75,0.75 0 0 0 19,15.25 Z"
     id="path3" />
  <path
     style="color:#000000;fill:#000000;stroke-linecap:round;stroke-linejoin:round;-inkscape-stroke:none"
     d="M 12,6.25 A 0.75,0.75 0 0 0 11.25,7 v 5 a 0.750075,0.750075 0 0 0 0.21875,0.53125 l 3,3 a 0.75,0.75 0 0 0 1.0625,0 0.75,0.75 0 0 0 0,-1.0625 L 12.75,11.689453 V 7 A 0.75,0.75 0 0 0 12,6.25 Z"
     id="path4" />
</svg>
