<?xml version="1.0" encoding="UTF-8" standalone="no"?>
<svg
   width="24"
   height="24"
   viewBox="0 0 24 24"
   fill="none"
   version="1.1"
   id="svg2"
   sodipodi:docname="cloud-off.svg"
   inkscape:version="1.3.2 (091e20e, 2023-11-25)"
   xmlns:inkscape="http://www.inkscape.org/namespaces/inkscape"
   xmlns:sodipodi="http://sodipodi.sourceforge.net/DTD/sodipodi-0.dtd"
   xmlns="http://www.w3.org/2000/svg"
   xmlns:svg="http://www.w3.org/2000/svg">
  <defs
     id="defs2" />
  <sodipodi:namedview
     id="namedview2"
     pagecolor="#505050"
     bordercolor="#eeeeee"
     borderopacity="1"
     inkscape:showpageshadow="0"
     inkscape:pageopacity="0"
     inkscape:pagecheckerboard="0"
     inkscape:deskcolor="#505050"
     inkscape:zoom="9.8333333"
     inkscape:cx="11.949153"
     inkscape:cy="12"
     inkscape:window-width="1504"
     inkscape:window-height="449"
     inkscape:window-x="0"
     inkscape:window-y="25"
     inkscape:window-maximized="0"
     inkscape:current-layer="svg2" />
  <path
     style="color:#000000;fill:#000000;stroke-linecap:round;stroke-linejoin:round;-inkscape-stroke:none"
     d="M 13.337891,4.359375 C 12.28109,4.1655144 11.17096,4.2231175 10.113281,4.5449219 9.818866,4.6343788 9.5365323,4.7419637 9.2675781,4.8652344 A 0.75,0.75 0 0 0 8.8984375,5.8613281 0.75,0.75 0 0 0 9.8925781,6.2304687 c 0.2110449,-0.096729 0.4326189,-0.1834102 0.6582029,-0.2519531 1.644639,-0.5003902 3.472995,-0.1593925 4.75586,0.8691406 1.28345,1.0264151 1.836501,2.5420908 1.507812,4.0195318 a 0.750075,0.750075 0 0 0 0.732422,0.914062 h 0.988281 c 1.505262,0 2.714844,1.212978 2.714844,2.736328 0,0.756895 -0.300092,1.432862 -0.787109,1.927734 a 0.75,0.75 0 0 0 0.0078,1.060547 0.75,0.75 0 0 0 1.060547,-0.0098 C 22.284231,16.730968 22.75,15.674681 22.75,14.517578 22.75,12.188932 20.85589,10.28125 18.535156,10.28125 H 18.212891 C 18.28509,8.5419862 17.680875,6.8247824 16.244141,5.6757812 15.397871,4.9976889 14.394103,4.5531275 13.337891,4.359375 Z M 7.7753906,6.7929687 A 0.75,0.75 0 0 0 6.734375,6.9980469 C 6.4531683,7.4173004 6.2943794,7.9032445 6.1347656,8.3867188 3.4244129,8.6529855 1.25,10.801668 1.25,13.517578 c 0,2.897039 2.4447214,5.231722 5.40625,5.236328 H 18 a 0.75,0.75 0 0 0 0.75,-0.75 0.75,0.75 0 0 0 -0.75,-0.75 H 6.6582031 6.65625 C 4.4747352,17.249484 2.75,15.571903 2.75,13.517578 2.75,11.463792 4.4744194,9.7851563 6.65625,9.7851563 A 0.750075,0.750075 0 0 0 7.3886719,9.1992188 C 7.4976154,8.711487 7.6997503,8.250557 7.9804687,7.8320312 A 0.75,0.75 0 0 0 7.7753906,6.7929687 Z"
     id="path1" />
  <path
     style="color:#000000;fill:#000000;stroke-linecap:round;stroke-linejoin:round;-inkscape-stroke:none"
     d="m 3,2.25 a 0.75,0.75 0 0 0 -0.53125,0.21875 0.75,0.75 0 0 0 0,1.0625 l 18,18 a 0.75,0.75 0 0 0 1.0625,0 0.75,0.75 0 0 0 0,-1.0625 l -18,-18 A 0.75,0.75 0 0 0 3,2.25 Z"
     id="path2" />
</svg>
