<?xml version="1.0" encoding="UTF-8" standalone="no"?>
<svg
   width="24"
   height="24"
   viewBox="0 0 24 24"
   fill="none"
   version="1.1"
   id="svg3"
   sodipodi:docname="cloud-download.svg"
   inkscape:version="1.3.2 (091e20e, 2023-11-25)"
   xmlns:inkscape="http://www.inkscape.org/namespaces/inkscape"
   xmlns:sodipodi="http://sodipodi.sourceforge.net/DTD/sodipodi-0.dtd"
   xmlns="http://www.w3.org/2000/svg"
   xmlns:svg="http://www.w3.org/2000/svg">
  <defs
     id="defs3" />
  <sodipodi:namedview
     id="namedview3"
     pagecolor="#505050"
     bordercolor="#eeeeee"
     borderopacity="1"
     inkscape:showpageshadow="0"
     inkscape:pageopacity="0"
     inkscape:pagecheckerboard="0"
     inkscape:deskcolor="#505050"
     inkscape:zoom="9.8333333"
     inkscape:cx="11.949153"
     inkscape:cy="12"
     inkscape:window-width="1504"
     inkscape:window-height="449"
     inkscape:window-x="0"
     inkscape:window-y="25"
     inkscape:window-maximized="0"
     inkscape:current-layer="svg3" />
  <path
     style="color:#000000;fill:#000000;stroke-linecap:round;stroke-linejoin:round;-inkscape-stroke:none"
     d="M 11.291016,4.3066406 C 10.479897,4.4495622 9.7063852,4.7333983 9.0117188,5.1484375 7.783059,5.8825395 6.9490123,7.0257211 6.5097656,8.3144531 5.4631233,8.3721888 4.4436466,8.6644581 3.5957031,9.2773438 2.6054152,9.9931463 1.8974716,11.023395 1.6054687,12.191406 c -0.2920022,1.168009 -0.1489531,2.400451 0.4003907,3.476563 0.5493465,1.076094 1.4681623,1.929301 2.59375,2.419922 A 0.75,0.75 0 0 0 5.5878906,17.699219 0.75,0.75 0 0 0 5.1992187,16.712891 C 4.3829884,16.357112 3.7288094,15.744432 3.3417969,14.986328 2.9548016,14.228242 2.8562496,13.371877 3.0605469,12.554688 3.2648436,11.737501 3.7604259,11.008957 4.4726562,10.494141 5.1848842,9.9793489 6.0708214,9.713947 6.9707031,9.75 A 0.750075,0.750075 0 0 0 7.7324219,9.1640625 C 7.9792163,8.0646048 8.7043557,7.0809249 9.78125,6.4375 c 0.533152,-0.3185401 1.136204,-0.5423587 1.771484,-0.6542969 0.635189,-0.1119464 1.289382,-0.1094969 1.923829,0.00586 0.634433,0.1153451 1.234687,0.3407771 1.765625,0.6621094 0.530823,0.3213069 0.981126,0.7308083 1.328124,1.2011718 0.346931,0.4703868 0.584699,0.9924221 0.703125,1.5371094 0.118538,0.544821 0.116288,1.1023089 -0.0059,1.6464849 A 0.750075,0.750075 0 0 0 18,11.75 h 1 c 0.72971,0 1.429359,0.288734 1.945312,0.804688 C 21.461266,13.070641 21.75,13.77029 21.75,14.5 c 0,0.72971 -0.288734,1.429359 -0.804688,1.945312 C 20.429328,16.961218 19.729657,17.25 19,17.25 A 0.75,0.75 0 0 0 18.25,18 0.75,0.75 0 0 0 19,18.75 c 1.126942,0 2.209045,-0.447448 3.005859,-1.244141 C 22.802705,16.709014 23.25,15.626888 23.25,14.5 23.25,13.373112 22.802705,12.290986 22.005859,11.494141 21.209014,10.697295 20.126888,10.25 19,10.25 h -0.263672 c 0.0219,-0.462014 0.102928,-0.923785 0.0039,-1.3789062 C 18.575661,8.1141624 18.247366,7.3963509 17.779297,6.7617187 17.311096,6.1270634 16.711507,5.5868211 16.019531,5.1679687 15.32747,4.7491218 14.556259,4.4597947 13.746094,4.3125 12.935942,4.1651966 12.102026,4.1637073 11.291016,4.3066406 Z"
     id="path1" />
  <path
     style="color:#000000;fill:#000000;stroke-linecap:round;stroke-linejoin:round;-inkscape-stroke:none"
     d="M 12,12.25 A 0.75,0.75 0 0 0 11.25,13 v 9 A 0.75,0.75 0 0 0 12,22.75 0.75,0.75 0 0 0 12.75,22 V 13 A 0.75,0.75 0 0 0 12,12.25 Z"
     id="path2" />
  <path
     style="color:#000000;fill:#000000;stroke-linecap:round;stroke-linejoin:round;-inkscape-stroke:none"
     d="m 9,18.25 a 0.75,0.75 0 0 0 -0.53125,0.21875 0.75,0.75 0 0 0 0,1.0625 l 3,3 a 0.750075,0.750075 0 0 0 1.0625,0 l 3,-3 a 0.75,0.75 0 0 0 0,-1.0625 0.75,0.75 0 0 0 -1.0625,0 L 12,20.9375 9.53125,18.46875 A 0.75,0.75 0 0 0 9,18.25 Z"
     id="path3" />
</svg>
