<?xml version="1.0" encoding="UTF-8" standalone="no"?>
<svg
   width="24"
   height="24"
   viewBox="0 0 24 24"
   fill="none"
   version="1.1"
   id="svg3"
   sodipodi:docname="cloud-upload.svg"
   inkscape:version="1.3.2 (091e20e, 2023-11-25)"
   xmlns:inkscape="http://www.inkscape.org/namespaces/inkscape"
   xmlns:sodipodi="http://sodipodi.sourceforge.net/DTD/sodipodi-0.dtd"
   xmlns="http://www.w3.org/2000/svg"
   xmlns:svg="http://www.w3.org/2000/svg">
  <defs
     id="defs3" />
  <sodipodi:namedview
     id="namedview3"
     pagecolor="#505050"
     bordercolor="#eeeeee"
     borderopacity="1"
     inkscape:showpageshadow="0"
     inkscape:pageopacity="0"
     inkscape:pagecheckerboard="0"
     inkscape:deskcolor="#505050"
     inkscape:zoom="9.8333333"
     inkscape:cx="11.949153"
     inkscape:cy="12"
     inkscape:window-width="1504"
     inkscape:window-height="449"
     inkscape:window-x="0"
     inkscape:window-y="25"
     inkscape:window-maximized="0"
     inkscape:current-layer="svg3" />
  <path
     style="color:#000000;fill:#000000;stroke-linecap:round;stroke-linejoin:round;-inkscape-stroke:none"
     d="M 11.291016,4.3066406 C 10.479897,4.4495622 9.7063852,4.7333983 9.0117188,5.1484375 7.7724745,5.8888575 6.9288342,7.0427198 6.4941406,8.3457031 5.247457,8.4608724 4.0550276,8.9138328 3.1542969,9.7753906 2.1286164,10.756453 1.5449219,12.098856 1.5449219,13.5 c 0,1.401144 0.5836945,2.743547 1.609375,3.724609 C 4.1799597,18.205666 5.5622949,18.75 7,18.75 A 0.75,0.75 0 0 0 7.75,18 0.75,0.75 0 0 0 7,17.25 C 5.9422676,17.25 4.9302816,16.847367 4.1914062,16.140625 3.4525285,15.433889 3.0449219,14.485853 3.0449219,13.5 c 0,-0.985853 0.4076066,-1.933889 1.1464843,-2.640625 C 4.9302816,10.152633 5.9422676,9.75 7,9.75 A 0.750075,0.750075 0 0 0 7.7324219,9.1640625 C 7.9792171,8.0646013 8.704348,7.0809243 9.78125,6.4375 c 0.533152,-0.3185401 1.136204,-0.5423587 1.771484,-0.6542969 0.635189,-0.1119464 1.289382,-0.1094969 1.923829,0.00586 0.634433,0.1153451 1.234687,0.3407771 1.765625,0.6621094 0.530823,0.3213069 0.981126,0.7308083 1.328124,1.2011718 0.346896,0.4703396 0.584582,0.992272 0.703125,1.5371094 0.118538,0.544821 0.116288,1.1023089 -0.0059,1.6464849 A 0.750075,0.750075 0 0 0 18,11.75 h 1 c 0.72971,0 1.429359,0.288734 1.945312,0.804688 C 21.461266,13.070641 21.75,13.77029 21.75,14.5 c 0,0.72971 -0.288734,1.429359 -0.804688,1.945312 C 20.429328,16.961218 19.729657,17.25 19,17.25 H 18 A 0.75,0.75 0 0 0 17.25,18 0.75,0.75 0 0 0 18,18.75 h 1 c 1.126942,0 2.209045,-0.447448 3.005859,-1.244141 C 22.802705,16.709014 23.25,15.626888 23.25,14.5 23.25,13.373112 22.802705,12.290986 22.005859,11.494141 21.209014,10.697295 20.126888,10.25 19,10.25 h -0.263672 c 0.0219,-0.462014 0.102928,-0.923785 0.0039,-1.3789062 C 18.575578,8.1143125 18.2474,7.3963981 17.779297,6.7617187 17.311096,6.1270634 16.711507,5.5868211 16.019531,5.1679687 15.32747,4.7491218 14.556259,4.4597947 13.746094,4.3125 12.935942,4.1651966 12.102026,4.1637073 11.291016,4.3066406 Z"
     id="path1" />
  <path
     style="color:#000000;fill:#000000;stroke-linecap:round;stroke-linejoin:round;-inkscape-stroke:none"
     d="m 11.46875,11.46875 -3,3 a 0.75,0.75 0 0 0 0,1.0625 0.75,0.75 0 0 0 1.0625,0 L 12,13.0625 l 2.46875,2.46875 a 0.75,0.75 0 0 0 1.0625,0 0.75,0.75 0 0 0 0,-1.0625 l -3,-3 a 0.750075,0.750075 0 0 0 -1.0625,0 z"
     id="path2" />
  <path
     style="color:#000000;fill:#000000;stroke-linecap:round;stroke-linejoin:round;-inkscape-stroke:none"
     d="M 12,11.25 A 0.75,0.75 0 0 0 11.25,12 v 9 A 0.75,0.75 0 0 0 12,21.75 0.75,0.75 0 0 0 12.75,21 V 12 A 0.75,0.75 0 0 0 12,11.25 Z"
     id="path3" />
</svg>
