<?xml version="1.0" encoding="UTF-8" standalone="no"?>
<svg
   width="24"
   height="24"
   viewBox="0 0 24 24"
   fill="none"
   version="1.1"
   id="svg2"
   sodipodi:docname="currency-dolar.svg"
   inkscape:version="1.3.2 (091e20e, 2023-11-25)"
   xmlns:inkscape="http://www.inkscape.org/namespaces/inkscape"
   xmlns:sodipodi="http://sodipodi.sourceforge.net/DTD/sodipodi-0.dtd"
   xmlns="http://www.w3.org/2000/svg"
   xmlns:svg="http://www.w3.org/2000/svg">
  <defs
     id="defs2" />
  <sodipodi:namedview
     id="namedview2"
     pagecolor="#505050"
     bordercolor="#eeeeee"
     borderopacity="1"
     inkscape:showpageshadow="0"
     inkscape:pageopacity="0"
     inkscape:pagecheckerboard="0"
     inkscape:deskcolor="#505050"
     inkscape:zoom="9.8333333"
     inkscape:cx="11.949153"
     inkscape:cy="12"
     inkscape:window-width="1504"
     inkscape:window-height="449"
     inkscape:window-x="0"
     inkscape:window-y="25"
     inkscape:window-maximized="0"
     inkscape:current-layer="svg2" />
  <path
     style="color:#000000;fill:#000000;stroke-linecap:round;stroke-linejoin:round;-inkscape-stroke:none"
     d="M 10,5.25 C 9.0057272,5.25 8.0507135,5.644599 7.3476562,6.3476562 6.644599,7.0507135 6.25,8.0057272 6.25,9 c 0,0.9942728 0.3945966,1.949297 1.0976562,2.652344 C 8.0507035,12.355379 9.0057084,12.75 10,12.75 h 4 c 0.596944,0 1.169651,0.236057 1.591797,0.658203 C 16.013943,13.830349 16.25,14.403056 16.25,15 c 0,0.596944 -0.236057,1.169651 -0.658203,1.591797 C 15.169651,17.013943 14.596944,17.25 14,17.25 H 10.033203 C 9.584493,17.230649 9.1519784,17.077905 8.7910156,16.810547 8.4299815,16.543061 8.1571217,16.173662 8.0078125,15.75 A 0.75,0.75 0 0 0 7.0507812,15.292969 0.75,0.75 0 0 0 6.5917969,16.25 c 0.2487904,0.705937 0.7033626,1.320111 1.3046875,1.765625 0.6013962,0.445442 1.3225238,0.702126 2.0703125,0.734375 A 0.750075,0.750075 0 0 0 10,18.75 h 4 c 0.994254,0 1.949291,-0.394603 2.652344,-1.097656 C 17.355397,16.949291 17.75,15.994254 17.75,15 17.75,14.005746 17.355397,13.050709 16.652344,12.347656 15.949291,11.644603 14.994254,11.25 14,11.25 H 10 C 9.4029932,11.25 8.8303747,11.013961 8.4082031,10.591797 7.9860439,10.169645 7.75,9.5970256 7.75,9 7.75,8.4029744 7.9860415,7.8303648 8.4082031,7.4082031 8.8303648,6.9860415 9.4029744,6.75 10,6.75 h 3.966797 c 0.448811,0.019376 0.881199,0.172065 1.242187,0.4394531 C 15.569913,7.456852 15.842954,7.826476 15.992188,8.25 A 0.75,0.75 0 0 0 16.949219,8.7070313 0.75,0.75 0 0 0 17.408203,7.75 C 17.159437,7.0440051 16.704787,6.4298354 16.103516,5.984375 15.502105,5.5389039 14.780991,5.2822837 14.033203,5.25 A 0.750075,0.750075 0 0 0 14,5.25 Z"
     id="path1" />
  <path
     style="color:#000000;fill:#000000;stroke-linecap:round;stroke-linejoin:round;-inkscape-stroke:none"
     d="M 12,2.25 A 0.75,0.75 0 0 0 11.25,3 V 6 A 0.75,0.75 0 0 0 12,6.75 0.75,0.75 0 0 0 12.75,6 V 3 A 0.75,0.75 0 0 0 12,2.25 Z m 0,15 A 0.75,0.75 0 0 0 11.25,18 v 3 A 0.75,0.75 0 0 0 12,21.75 0.75,0.75 0 0 0 12.75,21 V 18 A 0.75,0.75 0 0 0 12,17.25 Z"
     id="path2" />
</svg>
