<?xml version="1.0" encoding="UTF-8" standalone="no"?>
<svg
   width="24"
   height="24"
   viewBox="0 0 24 24"
   fill="none"
   version="1.1"
   id="svg5"
   sodipodi:docname="device-mobile-down.svg"
   inkscape:version="1.3.2 (091e20e, 2023-11-25)"
   xmlns:inkscape="http://www.inkscape.org/namespaces/inkscape"
   xmlns:sodipodi="http://sodipodi.sourceforge.net/DTD/sodipodi-0.dtd"
   xmlns="http://www.w3.org/2000/svg"
   xmlns:svg="http://www.w3.org/2000/svg">
  <defs
     id="defs5" />
  <sodipodi:namedview
     id="namedview5"
     pagecolor="#505050"
     bordercolor="#eeeeee"
     borderopacity="1"
     inkscape:showpageshadow="0"
     inkscape:pageopacity="0"
     inkscape:pagecheckerboard="0"
     inkscape:deskcolor="#505050"
     inkscape:zoom="9.8333333"
     inkscape:cx="11.949153"
     inkscape:cy="12"
     inkscape:window-width="1504"
     inkscape:window-height="449"
     inkscape:window-x="0"
     inkscape:window-y="25"
     inkscape:window-maximized="0"
     inkscape:current-layer="svg5" />
  <path
     style="color:#000000;fill:#000000;stroke-linecap:round;stroke-linejoin:round;-inkscape-stroke:none"
     d="M 8,2.25 C 7.2709489,2.25 6.5702101,2.5391512 6.0546875,3.0546875 5.5391512,3.5702101 5.25,4.2709489 5.25,5 v 14 c 0,0.729032 0.2891807,1.429778 0.8046875,1.945312 C 6.5702164,21.460883 7.2709583,21.75 8,21.75 h 4.5 A 0.75,0.75 0 0 0 13.25,21 0.75,0.75 0 0 0 12.5,20.25 H 8 C 7.6681828,20.25 7.3498448,20.119395 7.1152344,19.884766 6.880582,19.650101 6.75,19.331767 6.75,19 V 5 C 6.75,4.6681922 6.8806115,4.349851 7.1152344,4.1152344 7.349851,3.8806115 7.6681922,3.75 8,3.75 h 8 c 0.331767,0 0.650101,0.130582 0.884766,0.3652344 C 17.119395,4.3498448 17.25,4.6681828 17.25,5 v 7 A 0.75,0.75 0 0 0 18,12.75 0.75,0.75 0 0 0 18.75,12 V 5 C 18.75,4.2709583 18.460883,3.5702164 17.945312,3.0546875 17.429778,2.5391807 16.729032,2.25 16,2.25 Z"
     id="path1" />
  <path
     style="color:#000000;fill:#000000;stroke-linecap:round;stroke-linejoin:round;-inkscape-stroke:none"
     d="M 11,3.25 A 0.75,0.75 0 0 0 10.25,4 0.75,0.75 0 0 0 11,4.75 h 2 A 0.75,0.75 0 0 0 13.75,4 0.75,0.75 0 0 0 13,3.25 Z"
     id="path2" />
  <path
     style="color:#000000;fill:#000000;stroke-linecap:round;stroke-linejoin:round;-inkscape-stroke:none"
     d="M 12,16.25 A 0.75,0.75 0 0 0 11.25,17 v 0.0098 a 0.75,0.75 0 0 0 0.75,0.75 0.75,0.75 0 0 0 0.75,-0.75 V 17 A 0.75,0.75 0 0 0 12,16.25 Z"
     id="path3" />
  <path
     style="color:#000000;fill:#000000;stroke-linecap:round;stroke-linejoin:round;-inkscape-stroke:none"
     d="M 19,15.25 A 0.75,0.75 0 0 0 18.25,16 v 6 A 0.75,0.75 0 0 0 19,22.75 0.75,0.75 0 0 0 19.75,22 V 16 A 0.75,0.75 0 0 0 19,15.25 Z"
     id="path4" />
  <path
     style="color:#000000;fill:#000000;stroke-linecap:round;stroke-linejoin:round;-inkscape-stroke:none"
     d="m 16,18.25 a 0.75,0.75 0 0 0 -0.53125,0.21875 0.75,0.75 0 0 0 0,1.0625 l 3,3 a 0.750075,0.750075 0 0 0 1.0625,0 l 3,-3 a 0.75,0.75 0 0 0 0,-1.0625 0.75,0.75 0 0 0 -1.0625,0 L 19,20.9375 16.53125,18.46875 A 0.75,0.75 0 0 0 16,18.25 Z"
     id="path5" />
</svg>
