<?xml version="1.0" encoding="UTF-8" standalone="no"?>
<svg
   width="24"
   height="24"
   viewBox="0 0 24 24"
   fill="none"
   version="1.1"
   id="svg2"
   sodipodi:docname="discount-check.svg"
   inkscape:version="1.3.2 (091e20e, 2023-11-25)"
   xmlns:inkscape="http://www.inkscape.org/namespaces/inkscape"
   xmlns:sodipodi="http://sodipodi.sourceforge.net/DTD/sodipodi-0.dtd"
   xmlns="http://www.w3.org/2000/svg"
   xmlns:svg="http://www.w3.org/2000/svg">
  <defs
     id="defs2" />
  <sodipodi:namedview
     id="namedview2"
     pagecolor="#505050"
     bordercolor="#eeeeee"
     borderopacity="1"
     inkscape:showpageshadow="0"
     inkscape:pageopacity="0"
     inkscape:pagecheckerboard="0"
     inkscape:deskcolor="#505050"
     inkscape:zoom="9.8333333"
     inkscape:cx="11.949153"
     inkscape:cy="12"
     inkscape:window-width="1504"
     inkscape:window-height="449"
     inkscape:window-x="0"
     inkscape:window-y="25"
     inkscape:window-maximized="0"
     inkscape:current-layer="svg2" />
  <path
     style="color:#000000;fill:#000000;stroke-linecap:round;stroke-linejoin:round;-inkscape-stroke:none"
     d="m 12.009766,2.2617188 c -0.388828,-1e-7 -0.773841,0.077275 -1.132813,0.2265625 -0.358946,0.149277 -0.684831,0.3668149 -0.9589842,0.6425781 L 9.21875,3.8300781 C 8.9472514,4.0990722 8.5814777,4.2497828 8.1992188,4.25 H 7.1992187 C 6.4171189,4.25 5.6663077,4.5602548 5.1132812,5.1132812 4.5602548,5.6663077 4.25,6.4171189 4.25,7.1992187 V 8.1992188 C 4.2497823,8.582362 4.0982896,8.9490149 3.828125,9.2207031 L 3.1289063,9.9199219 c -0.274849,0.2737531 -0.4916984,0.5989281 -0.640625,0.9570311 -0.1492878,0.358972 -0.2265625,0.743985 -0.2265625,1.132813 -1e-7,0.388761 0.077275,0.77384 0.2265625,1.132812 0.1493034,0.359144 0.3670215,0.684902 0.6425781,0.958985 l 0.6992187,0.699218 C 4.0990605,15.072262 4.2497828,15.438054 4.25,15.820313 v 0.999999 c 0,0.782054 0.3102612,1.532891 0.8632812,2.085938 0.5530236,0.55305 1.3038292,0.863281 2.0859375,0.863281 h 1.0000001 c 0.3830926,1.98e-4 0.7497831,0.151698 1.0214843,0.421875 l 0.6992188,0.699219 c 0.2738041,0.2749 0.5991331,0.493644 0.9570311,0.642578 0.358965,0.149245 0.74402,0.22461 1.132813,0.224609 0.388726,0 0.773847,-0.07536 1.132812,-0.224609 0.358937,-0.149311 0.684851,-0.368923 0.958985,-0.644531 l 0.697265,-0.697266 0.002,-0.002 c 0.271493,-0.268995 0.637323,-0.419724 1.019532,-0.419922 h 0.999999 c 0.782063,0 1.532894,-0.310237 2.085938,-0.863281 0.553044,-0.553044 0.863281,-1.303875 0.863281,-2.085938 v -0.999999 c 1.98e-4,-0.382209 0.150927,-0.748039 0.419922,-1.019532 l 0.002,-0.002 0.697266,-0.697265 0.002,-0.002 c 0.274696,-0.273733 0.493617,-0.598936 0.642578,-0.957031 0.149245,-0.358965 0.22461,-0.744086 0.224609,-1.132812 0,-0.388793 -0.07536,-0.773848 -0.224609,-1.132813 -0.148934,-0.357898 -0.367678,-0.683227 -0.642578,-0.9570311 l -0.002,-0.00195 -0.697266,-0.6972657 -0.002,-0.00195 C 19.920533,8.9475257 19.769531,8.5800615 19.769531,8.1992188 V 7.1992187 C 19.769531,6.4171104 19.4593,5.6663048 18.90625,5.1132812 18.353203,4.5602612 17.602366,4.25 16.820312,4.25 h -0.999999 c -0.380843,0 -0.748307,-0.1510019 -1.019532,-0.4199219 l -0.002,-0.00195 -0.697265,-0.6972656 C 13.82748,2.8553028 13.501722,2.6375847 13.142578,2.4882813 12.783606,2.3389935 12.398527,2.2617187 12.009766,2.2617188 Z m 0,1.5 c 0.191038,0 0.380213,0.037956 0.55664,0.1113281 0.176456,0.073356 0.337739,0.1807632 0.472657,0.3164062 L 13.740234,4.890625 C 14.292826,5.4405346 15.042037,5.75 15.820313,5.75 h 0.999999 c 0.384746,0 0.753239,0.151689 1.025391,0.4238281 0.272149,0.2721356 0.423828,0.6405602 0.423828,1.0253906 v 1.0000001 c 0,0.778275 0.309466,1.527486 0.859375,2.0800782 a 0.750075,0.750075 0 0 0 0,0.002 l 0.701172,0.699219 a 0.750075,0.750075 0 0 0 0.002,0.002 c 0.135385,0.134594 0.242892,0.294043 0.316406,0.470703 0.07336,0.176435 0.109375,0.365434 0.109375,0.556641 0,0.191072 -0.03602,0.380206 -0.109375,0.55664 -0.07349,0.176663 -0.180814,0.337791 -0.316406,0.472657 a 0.750075,0.750075 0 0 0 -0.002,0 l -0.701172,0.701171 c -0.549033,0.552117 -0.858973,1.301372 -0.859375,2.080079 v 0.999999 c 0,0.384737 -0.151673,0.753236 -0.423828,1.025391 -0.272155,0.272155 -0.640654,0.423828 -1.025391,0.423828 h -0.999999 c -0.778707,4.02e-4 -1.527962,0.310342 -2.080079,0.859375 l -0.701171,0.701172 a 0.750075,0.750075 0 0 0 0,0.002 c -0.134866,0.135592 -0.295994,0.242918 -0.472657,0.316406 -0.176434,0.07336 -0.365568,0.109375 -0.55664,0.109375 -0.191207,0 -0.380206,-0.03602 -0.556641,-0.109375 -0.17666,-0.07351 -0.336109,-0.181021 -0.470703,-0.316406 a 0.750075,0.750075 0 0 0 -0.002,-0.002 L 10.28125,19.128906 a 0.750075,0.750075 0 0 0 -0.002,0 C 9.7271789,18.579885 8.9798781,18.269933 8.2011719,18.269531 a 0.750075,0.750075 0 0 0 -0.00195,0 H 7.1992187 c -0.3848304,0 -0.753255,-0.151679 -1.0253906,-0.423828 C 5.901689,17.573551 5.75,17.205058 5.75,16.820312 V 15.820313 C 5.7495577,15.041657 5.4416245,14.292364 4.8925781,13.740234 a 0.750075,0.750075 0 0 0 -0.00195,0 L 4.1894531,13.039063 C 4.0538101,12.904145 3.9464032,12.742862 3.8730469,12.566406 3.7996749,12.389979 3.7617188,12.200804 3.7617188,12.009766 c 0,-0.191173 0.037956,-0.380213 0.1113281,-0.556641 0.073383,-0.176453 0.1809699,-0.336057 0.3164062,-0.470703 a 0.750075,0.750075 0 0 0 0,-0.002 L 4.890625,10.28125 a 0.750075,0.750075 0 0 0 0.00195,-0.002 C 5.4416127,9.7271659 5.7495577,8.9798275 5.75,8.2011719 a 0.750075,0.750075 0 0 0 0,-0.00195 V 7.1992187 C 5.75,6.8143797 5.9016954,6.4459608 6.1738281,6.1738281 6.4459608,5.9016954 6.8143797,5.75 7.1992187,5.75 h 1.0000001 a 0.750075,0.750075 0 0 0 0.00195,0 C 8.9798275,5.7495577 9.7271659,5.4416127 10.279297,4.8925781 a 0.750075,0.750075 0 0 0 0.002,-0.00195 l 0.699219,-0.7011719 a 0.750075,0.750075 0 0 0 0.002,0 c 0.134646,-0.1354363 0.29425,-0.2430235 0.470703,-0.3164062 0.176428,-0.073372 0.365468,-0.1113281 0.556641,-0.1113281 z"
     id="path1" />
  <path
     style="color:#000000;fill:#000000;stroke-linecap:round;stroke-linejoin:round;-inkscape-stroke:none"
     d="M 15,9.25 A 0.75,0.75 0 0 0 14.46875,9.46875 L 11,12.9375 9.53125,11.46875 a 0.75,0.75 0 0 0 -1.0625,0 0.75,0.75 0 0 0 0,1.0625 l 2,2 a 0.750075,0.750075 0 0 0 1.0625,0 l 4,-4 a 0.75,0.75 0 0 0 0,-1.0625 A 0.75,0.75 0 0 0 15,9.25 Z"
     id="path2" />
</svg>
