<?xml version="1.0" encoding="UTF-8" standalone="no"?>
<svg
   width="24"
   height="24"
   viewBox="0 0 24 24"
   fill="none"
   version="1.1"
   id="svg3"
   sodipodi:docname="dots-vertical.svg"
   inkscape:version="1.3.2 (091e20e, 2023-11-25)"
   xmlns:inkscape="http://www.inkscape.org/namespaces/inkscape"
   xmlns:sodipodi="http://sodipodi.sourceforge.net/DTD/sodipodi-0.dtd"
   xmlns="http://www.w3.org/2000/svg"
   xmlns:svg="http://www.w3.org/2000/svg">
  <defs
     id="defs3" />
  <sodipodi:namedview
     id="namedview3"
     pagecolor="#505050"
     bordercolor="#eeeeee"
     borderopacity="1"
     inkscape:showpageshadow="0"
     inkscape:pageopacity="0"
     inkscape:pagecheckerboard="0"
     inkscape:deskcolor="#505050"
     inkscape:zoom="9.8333333"
     inkscape:cx="11.949153"
     inkscape:cy="12"
     inkscape:window-width="1504"
     inkscape:window-height="449"
     inkscape:window-x="0"
     inkscape:window-y="25"
     inkscape:window-maximized="0"
     inkscape:current-layer="svg3" />
  <path
     style="color:#000000;fill:#000000;stroke-linecap:round;stroke-linejoin:round;-inkscape-stroke:none"
     d="m 12,10.25 c -0.463917,0 -0.910303,0.183741 -1.238281,0.511719 C 10.433741,11.089697 10.25,11.536083 10.25,12 c 0,0.463917 0.183741,0.910303 0.511719,1.238281 C 11.089697,13.566259 11.536083,13.75 12,13.75 c 0.463917,0 0.910303,-0.183741 1.238281,-0.511719 C 13.566259,12.910303 13.75,12.463917 13.75,12 13.75,11.536083 13.566259,11.089697 13.238281,10.761719 12.910303,10.433741 12.463917,10.25 12,10.25 Z m 0,1.5 c 0.06648,0 0.130713,0.02524 0.177734,0.07227 C 12.224756,11.869287 12.25,11.933518 12.25,12 c 0,0.06648 -0.02524,0.130713 -0.07227,0.177734 C 12.130713,12.224756 12.066482,12.25 12,12.25 c -0.06648,0 -0.130713,-0.02524 -0.177734,-0.07227 C 11.775244,12.130713 11.75,12.066482 11.75,12 c 0,-0.06648 0.02524,-0.130713 0.07227,-0.177734 C 11.869287,11.775244 11.933518,11.75 12,11.75 Z"
     id="path1" />
  <path
     style="color:#000000;fill:#000000;stroke-linecap:round;stroke-linejoin:round;-inkscape-stroke:none"
     d="m 12,17.25 c -0.463917,0 -0.910303,0.183741 -1.238281,0.511719 C 10.433741,18.089697 10.25,18.536083 10.25,19 c 0,0.463917 0.183741,0.910303 0.511719,1.238281 C 11.089697,20.566259 11.536083,20.75 12,20.75 c 0.463917,0 0.910303,-0.183741 1.238281,-0.511719 C 13.566259,19.910303 13.75,19.463917 13.75,19 13.75,18.536083 13.566259,18.089697 13.238281,17.761719 12.910303,17.433741 12.463917,17.25 12,17.25 Z m 0,1.5 c 0.06648,0 0.130713,0.02524 0.177734,0.07227 C 12.224756,18.869287 12.25,18.933518 12.25,19 c 0,0.06648 -0.02524,0.130713 -0.07227,0.177734 C 12.130713,19.224756 12.066482,19.25 12,19.25 c -0.06648,0 -0.130713,-0.02524 -0.177734,-0.07227 C 11.775244,19.130713 11.75,19.066482 11.75,19 c 0,-0.06648 0.02524,-0.130713 0.07227,-0.177734 C 11.869287,18.775244 11.933518,18.75 12,18.75 Z"
     id="path2" />
  <path
     style="color:#000000;fill:#000000;stroke-linecap:round;stroke-linejoin:round;-inkscape-stroke:none"
     d="m 12,3.25 c -0.463842,0 -0.910261,0.1836457 -1.238281,0.5117188 C 10.433854,4.0896536 10.25,4.5360775 10.25,5 c 0,0.4639225 0.183854,0.9103464 0.511719,1.2382812 C 11.089739,6.5663543 11.536158,6.75 12,6.75 12.463842,6.75 12.910261,6.5663543 13.238281,6.2382812 13.566146,5.9103464 13.75,5.4639225 13.75,5 13.75,4.5360775 13.566146,4.0896536 13.238281,3.7617188 12.910261,3.4336457 12.463842,3.25 12,3.25 Z m 0,1.5 c 0.06656,0 0.128802,0.025279 0.175781,0.072266 C 12.222916,4.8694103 12.25,4.933483 12.25,5 c 0,0.066517 -0.02708,0.1305897 -0.07422,0.1777344 C 12.128802,5.2247209 12.066557,5.25 12,5.25 11.933443,5.25 11.871198,5.2247209 11.824219,5.1777344 11.777084,5.1305897 11.75,5.066517 11.75,5 c 0,-0.066517 0.02708,-0.1305897 0.07422,-0.1777344 C 11.871198,4.7752791 11.933443,4.75 12,4.75 Z"
     id="path3" />
</svg>
