<?xml version="1.0" encoding="UTF-8" standalone="no"?>
<svg
   width="24"
   height="24"
   viewBox="0 0 24 24"
   fill="none"
   version="1.1"
   id="svg5"
   sodipodi:docname="eye-closed.svg"
   inkscape:version="1.3.2 (091e20e, 2023-11-25)"
   xmlns:inkscape="http://www.inkscape.org/namespaces/inkscape"
   xmlns:sodipodi="http://sodipodi.sourceforge.net/DTD/sodipodi-0.dtd"
   xmlns="http://www.w3.org/2000/svg"
   xmlns:svg="http://www.w3.org/2000/svg">
  <defs
     id="defs5" />
  <sodipodi:namedview
     id="namedview5"
     pagecolor="#505050"
     bordercolor="#eeeeee"
     borderopacity="1"
     inkscape:showpageshadow="0"
     inkscape:pageopacity="0"
     inkscape:pagecheckerboard="0"
     inkscape:deskcolor="#505050"
     inkscape:zoom="9.8333333"
     inkscape:cx="11.949153"
     inkscape:cy="12"
     inkscape:window-width="1504"
     inkscape:window-height="449"
     inkscape:window-x="0"
     inkscape:window-y="25"
     inkscape:window-maximized="0"
     inkscape:current-layer="svg5" />
  <path
     style="color:#000000;fill:#000000;stroke-linecap:round;stroke-linejoin:round;-inkscape-stroke:none"
     d="M 3.0390625,8.2519531 A 0.75,0.75 0 0 0 2.4980469,8.4433594 0.75,0.75 0 0 0 2.4433594,9.5019531 C 4.9681157,12.307589 8.2148649,13.75 12,13.75 c 3.785135,0 7.031884,-1.442411 9.556641,-4.2480469 a 0.75,0.75 0 0 0 -0.05469,-1.0585937 0.75,0.75 0 0 0 -1.058594,0.054687 C 18.16812,11.026406 15.414858,12.25 12,12.25 8.5851423,12.25 5.8318795,11.026406 3.5566406,8.4980469 A 0.75,0.75 0 0 0 3.0390625,8.2519531 Z"
     id="path1" />
  <path
     style="color:#000000;fill:#000000;stroke-linecap:round;stroke-linejoin:round;-inkscape-stroke:none"
     d="m 5.3476562,10.464844 a 0.75,0.75 0 0 0 -0.4746093,0.322265 l -2.5,3.800782 a 0.75,0.75 0 0 0 0.2148437,1.039062 0.75,0.75 0 0 0 1.0390625,-0.214844 l 2.5,-3.798828 A 0.75,0.75 0 0 0 5.9121094,10.574219 0.75,0.75 0 0 0 5.3476562,10.464844 Z"
     id="path2" />
  <path
     style="color:#000000;fill:#000000;stroke-linecap:round;stroke-linejoin:round;-inkscape-stroke:none"
     d="m 18.658203,10.464844 a 0.75,0.75 0 0 0 -0.5625,0.109375 0.75,0.75 0 0 0 -0.212891,1.039062 L 20.375,15.388672 A 0.75,0.75 0 0 0 21.414062,15.601563 0.75,0.75 0 0 0 21.625,14.5625 l -2.490234,-3.775391 a 0.75,0.75 0 0 0 -0.476563,-0.322265 z"
     id="path3" />
  <path
     style="color:#000000;fill:#000000;stroke-linecap:round;stroke-linejoin:round;-inkscape-stroke:none"
     d="M 9.59375,12.255859 A 0.75,0.75 0 0 0 8.7558594,12.90625 l -0.5,4 A 0.75,0.75 0 0 0 8.90625,17.744141 0.75,0.75 0 0 0 9.7441406,17.09375 l 0.5000004,-4 A 0.75,0.75 0 0 0 9.59375,12.255859 Z"
     id="path4" />
  <path
     style="color:#000000;fill:#000000;stroke-linecap:round;stroke-linejoin:round;-inkscape-stroke:none"
     d="m 14.40625,12.255859 a 0.75,0.75 0 0 0 -0.650391,0.837891 l 0.5,4 a 0.75,0.75 0 0 0 0.837891,0.650391 0.75,0.75 0 0 0 0.650391,-0.837891 l -0.5,-4 A 0.75,0.75 0 0 0 14.40625,12.255859 Z"
     id="path5" />
</svg>
