<?xml version="1.0" encoding="UTF-8" standalone="no"?>
<svg
   width="24"
   height="24"
   viewBox="0 0 24 24"
   fill="none"
   version="1.1"
   id="svg2"
   sodipodi:docname="eye.svg"
   inkscape:version="1.3.2 (091e20e, 2023-11-25)"
   xmlns:inkscape="http://www.inkscape.org/namespaces/inkscape"
   xmlns:sodipodi="http://sodipodi.sourceforge.net/DTD/sodipodi-0.dtd"
   xmlns="http://www.w3.org/2000/svg"
   xmlns:svg="http://www.w3.org/2000/svg">
  <defs
     id="defs2" />
  <sodipodi:namedview
     id="namedview2"
     pagecolor="#505050"
     bordercolor="#eeeeee"
     borderopacity="1"
     inkscape:showpageshadow="0"
     inkscape:pageopacity="0"
     inkscape:pagecheckerboard="0"
     inkscape:deskcolor="#505050"
     inkscape:zoom="9.8333333"
     inkscape:cx="11.949153"
     inkscape:cy="12"
     inkscape:window-width="1504"
     inkscape:window-height="449"
     inkscape:window-x="0"
     inkscape:window-y="25"
     inkscape:window-maximized="0"
     inkscape:current-layer="svg2" />
  <path
     style="color:#000000;fill:#000000;stroke-linecap:round;stroke-linejoin:round;-inkscape-stroke:none"
     d="m 12,9.25 c -0.729023,0 -1.429772,0.2891469 -1.945312,0.804688 C 9.5391469,10.570228 9.25,11.270977 9.25,12 c 0,0.729023 0.2891469,1.429772 0.804688,1.945313 C 10.570228,14.460853 11.270977,14.75 12,14.75 c 0.729023,0 1.429772,-0.289147 1.945313,-0.804687 C 14.460853,13.429772 14.75,12.729023 14.75,12 14.75,11.270977 14.460853,10.570228 13.945313,10.054688 13.429772,9.5391469 12.729023,9.25 12,9.25 Z m 0,1.5 c 0.331776,0 0.650107,0.130576 0.884766,0.365234 C 13.119424,11.349893 13.25,11.668224 13.25,12 c 0,0.331776 -0.130576,0.650107 -0.365234,0.884766 C 12.650107,13.119424 12.331776,13.25 12,13.25 11.668224,13.25 11.349893,13.119424 11.115234,12.884766 10.880576,12.650107 10.75,12.331776 10.75,12 c 0,-0.331776 0.130576,-0.650107 0.365234,-0.884766 C 11.349893,10.880576 11.668224,10.75 12,10.75 Z"
     id="path1" />
  <path
     style="color:#000000;fill:#000000;stroke-linecap:round;stroke-linejoin:round;-inkscape-stroke:none"
     d="m 12,5.25 c -3.8777739,0 -7.1574618,2.2214208 -9.6425781,6.363281 a 0.750075,0.750075 0 0 0 0,0.773438 C 4.8425382,16.528579 8.1222261,18.75 12,18.75 c 3.877774,0 7.157462,-2.221421 9.642578,-6.363281 a 0.750075,0.750075 0 0 0 0,-0.773438 C 19.157462,7.4714208 15.877774,5.25 12,5.25 Z m 0,1.5 c 3.194334,0 5.822101,1.6939502 8.078125,5.25 C 17.822101,15.55605 15.194334,17.25 12,17.25 8.8056656,17.25 6.177899,15.55605 3.921875,12 6.177899,8.4439502 8.8056656,6.75 12,6.75 Z"
     id="path2" />
</svg>
