<?xml version="1.0" encoding="UTF-8" standalone="no"?>
<svg
   width="24"
   height="24"
   viewBox="0 0 24 24"
   fill="none"
   version="1.1"
   id="svg3"
   sodipodi:docname="file-check.svg"
   inkscape:version="1.3.2 (091e20e, 2023-11-25)"
   xmlns:inkscape="http://www.inkscape.org/namespaces/inkscape"
   xmlns:sodipodi="http://sodipodi.sourceforge.net/DTD/sodipodi-0.dtd"
   xmlns="http://www.w3.org/2000/svg"
   xmlns:svg="http://www.w3.org/2000/svg">
  <defs
     id="defs3" />
  <sodipodi:namedview
     id="namedview3"
     pagecolor="#505050"
     bordercolor="#eeeeee"
     borderopacity="1"
     inkscape:showpageshadow="0"
     inkscape:pageopacity="0"
     inkscape:pagecheckerboard="0"
     inkscape:deskcolor="#505050"
     inkscape:zoom="9.8333333"
     inkscape:cx="11.949153"
     inkscape:cy="12"
     inkscape:window-width="1504"
     inkscape:window-height="449"
     inkscape:window-x="0"
     inkscape:window-y="25"
     inkscape:window-maximized="0"
     inkscape:current-layer="svg3" />
  <path
     style="color:#000000;fill:#000000;stroke-linecap:round;stroke-linejoin:round;-inkscape-stroke:none"
     d="M 14,2.25 A 0.75,0.75 0 0 0 13.25,3 v 4 c 0,0.4639225 0.183854,0.9103464 0.511719,1.2382813 C 14.089739,8.5663543 14.536158,8.75 15,8.75 h 4 A 0.75,0.75 0 0 0 19.75,8 0.75,0.75 0 0 0 19,7.25 h -4 c -0.06656,0 -0.128802,-0.025279 -0.175781,-0.072266 C 14.777084,7.1305897 14.75,7.066517 14.75,7 V 3 A 0.75,0.75 0 0 0 14,2.25 Z"
     id="path1" />
  <path
     style="color:#000000;fill:#000000;stroke-linecap:round;stroke-linejoin:round;-inkscape-stroke:none"
     d="M 7,2.25 C 6.2709489,2.25 5.5702101,2.5391512 5.0546875,3.0546875 4.5391512,3.5702101 4.25,4.2709489 4.25,5 v 14 c 0,0.729032 0.2891807,1.429778 0.8046875,1.945312 C 5.5702164,21.460883 6.2709583,21.75 7,21.75 h 10 c 0.729023,0 1.429772,-0.289147 1.945312,-0.804688 C 19.460853,20.429772 19.75,19.729023 19.75,19 V 8 A 0.750075,0.750075 0 0 0 19.53125,7.46875 l -5,-5 A 0.750075,0.750075 0 0 0 14,2.25 Z m 0,1.5 h 6.689453 L 18.25,8.3105469 V 19 c 0,0.331776 -0.130576,0.650107 -0.365234,0.884766 C 17.650107,20.119424 17.331776,20.25 17,20.25 H 7 C 6.6681828,20.25 6.3498448,20.119395 6.1152344,19.884766 5.880582,19.650101 5.75,19.331767 5.75,19 V 5 C 5.75,4.6681922 5.8806115,4.349851 6.1152344,4.1152344 6.349851,3.8806115 6.6681922,3.75 7,3.75 Z"
     id="path2" />
  <path
     style="color:#000000;fill:#000000;stroke-linecap:round;stroke-linejoin:round;-inkscape-stroke:none"
     d="m 15,12.25 a 0.75,0.75 0 0 0 -0.53125,0.21875 L 11,15.9375 9.53125,14.46875 a 0.75,0.75 0 0 0 -1.0625,0 0.75,0.75 0 0 0 0,1.0625 l 2,2 a 0.750075,0.750075 0 0 0 1.0625,0 l 4,-4 a 0.75,0.75 0 0 0 0,-1.0625 A 0.75,0.75 0 0 0 15,12.25 Z"
     id="path3" />
</svg>
