<?xml version="1.0" encoding="UTF-8" standalone="no"?>
<svg
   width="24"
   height="24"
   viewBox="0 0 24 24"
   fill="none"
   version="1.1"
   id="svg6"
   sodipodi:docname="file-type-pdf.svg"
   inkscape:version="1.3.2 (091e20e, 2023-11-25)"
   xmlns:inkscape="http://www.inkscape.org/namespaces/inkscape"
   xmlns:sodipodi="http://sodipodi.sourceforge.net/DTD/sodipodi-0.dtd"
   xmlns="http://www.w3.org/2000/svg"
   xmlns:svg="http://www.w3.org/2000/svg">
  <defs
     id="defs6" />
  <sodipodi:namedview
     id="namedview6"
     pagecolor="#505050"
     bordercolor="#eeeeee"
     borderopacity="1"
     inkscape:showpageshadow="0"
     inkscape:pageopacity="0"
     inkscape:pagecheckerboard="0"
     inkscape:deskcolor="#505050"
     inkscape:zoom="9.8333333"
     inkscape:cx="11.949153"
     inkscape:cy="12"
     inkscape:window-width="1504"
     inkscape:window-height="449"
     inkscape:window-x="0"
     inkscape:window-y="25"
     inkscape:window-maximized="0"
     inkscape:current-layer="svg6" />
  <path
     style="color:#000000;fill:#000000;stroke-linecap:round;stroke-linejoin:round;-inkscape-stroke:none"
     d="M 14,2.25 A 0.75,0.75 0 0 0 13.25,3 v 4 c 0,0.4639225 0.183854,0.9103464 0.511719,1.2382813 C 14.089739,8.5663543 14.536158,8.75 15,8.75 h 4 A 0.75,0.75 0 0 0 19.75,8 0.75,0.75 0 0 0 19,7.25 h -4 c -0.06656,0 -0.128802,-0.025279 -0.175781,-0.072266 C 14.777084,7.1305897 14.75,7.066517 14.75,7 V 3 A 0.75,0.75 0 0 0 14,2.25 Z"
     id="path1" />
  <path
     style="color:#000000;fill:#000000;stroke-linecap:round;stroke-linejoin:round;-inkscape-stroke:none"
     d="M 7,2.25 C 6.2709489,2.25 5.5702101,2.5391512 5.0546875,3.0546875 4.5391512,3.5702101 4.25,4.2709489 4.25,5 v 7 A 0.75,0.75 0 0 0 5,12.75 0.75,0.75 0 0 0 5.75,12 V 5 C 5.75,4.6681922 5.8806115,4.349851 6.1152344,4.1152344 6.349851,3.8806115 6.6681922,3.75 7,3.75 h 6.689453 L 18.25,8.3105469 V 12 A 0.75,0.75 0 0 0 19,12.75 0.75,0.75 0 0 0 19.75,12 V 8 A 0.750075,0.750075 0 0 0 19.53125,7.46875 l -5,-5 A 0.750075,0.750075 0 0 0 14,2.25 Z"
     id="path2" />
  <path
     style="color:#000000;fill:#000000;stroke-linecap:round;stroke-linejoin:round;-inkscape-stroke:none"
     d="M 5,14.25 A 0.750075,0.750075 0 0 0 4.25,15 v 3 3 A 0.75,0.75 0 0 0 5,21.75 0.75,0.75 0 0 0 5.75,21 V 18.75 H 6.5 c 0.5964017,0 1.1700186,-0.236425 1.5917969,-0.658203 C 8.5135877,17.670006 8.75,17.096442 8.75,16.5 8.75,15.903558 8.5135877,15.329994 8.0917969,14.908203 7.6700186,14.486425 7.0964017,14.25 6.5,14.25 Z m 0.75,1.5 H 6.5 c 0.1992375,0 0.3904289,0.07793 0.53125,0.21875 C 7.1720586,16.109559 7.25,16.300843 7.25,16.5 c 0,0.199157 -0.077941,0.390441 -0.21875,0.53125 C 6.8904289,17.172071 6.6992375,17.25 6.5,17.25 H 5.75 Z"
     id="path3" />
  <path
     style="color:#000000;fill:#000000;stroke-linecap:round;stroke-linejoin:round;-inkscape-stroke:none"
     d="M 17,17.25 A 0.75,0.75 0 0 0 16.25,18 0.75,0.75 0 0 0 17,18.75 h 2 A 0.75,0.75 0 0 0 19.75,18 0.75,0.75 0 0 0 19,17.25 Z"
     id="path4" />
  <path
     style="color:#000000;fill:#000000;stroke-linecap:round;stroke-linejoin:round;-inkscape-stroke:none"
     d="M 17,14.25 A 0.750075,0.750075 0 0 0 16.25,15 v 6 A 0.75,0.75 0 0 0 17,21.75 0.75,0.75 0 0 0 17.75,21 V 15.75 H 20 A 0.75,0.75 0 0 0 20.75,15 0.75,0.75 0 0 0 20,14.25 Z"
     id="path5" />
  <path
     style="color:#000000;fill:#000000;stroke-linecap:round;stroke-linejoin:round;-inkscape-stroke:none"
     d="M 11,14.25 A 0.750075,0.750075 0 0 0 10.25,15 v 6 A 0.750075,0.750075 0 0 0 11,21.75 h 1 c 0.729023,0 1.429772,-0.289147 1.945313,-0.804688 C 14.460853,20.429772 14.75,19.729023 14.75,19 v -2 c 0,-0.729023 -0.289147,-1.429772 -0.804687,-1.945312 C 13.429772,14.539147 12.729023,14.25 12,14.25 Z m 0.75,1.5 H 12 c 0.331776,0 0.650107,0.130576 0.884766,0.365234 C 13.119424,16.349893 13.25,16.668224 13.25,17 v 2 c 0,0.331776 -0.130576,0.650107 -0.365234,0.884766 C 12.650107,20.119424 12.331776,20.25 12,20.25 h -0.25 z"
     id="path6" />
</svg>
