<?xml version="1.0" encoding="UTF-8" standalone="no"?>
<svg
   width="24"
   height="24"
   viewBox="0 0 24 24"
   fill="none"
   version="1.1"
   id="svg5"
   sodipodi:docname="file-type-csv.svg"
   inkscape:version="1.3.2 (091e20e, 2023-11-25)"
   xmlns:inkscape="http://www.inkscape.org/namespaces/inkscape"
   xmlns:sodipodi="http://sodipodi.sourceforge.net/DTD/sodipodi-0.dtd"
   xmlns="http://www.w3.org/2000/svg"
   xmlns:svg="http://www.w3.org/2000/svg">
  <defs
     id="defs5" />
  <sodipodi:namedview
     id="namedview5"
     pagecolor="#505050"
     bordercolor="#eeeeee"
     borderopacity="1"
     inkscape:showpageshadow="0"
     inkscape:pageopacity="0"
     inkscape:pagecheckerboard="0"
     inkscape:deskcolor="#505050"
     inkscape:zoom="9.8333333"
     inkscape:cx="11.949153"
     inkscape:cy="12"
     inkscape:window-width="1504"
     inkscape:window-height="449"
     inkscape:window-x="0"
     inkscape:window-y="25"
     inkscape:window-maximized="0"
     inkscape:current-layer="svg5" />
  <path
     style="color:#000000;fill:#000000;stroke-linecap:round;stroke-linejoin:round;-inkscape-stroke:none"
     d="M 14,2.25 A 0.75,0.75 0 0 0 13.25,3 v 4 c 0,0.4639225 0.183854,0.9103464 0.511719,1.2382813 C 14.089739,8.5663543 14.536158,8.75 15,8.75 h 4 A 0.75,0.75 0 0 0 19.75,8 0.75,0.75 0 0 0 19,7.25 h -4 c -0.06656,0 -0.128802,-0.025279 -0.175781,-0.072266 C 14.777084,7.1305897 14.75,7.066517 14.75,7 V 3 A 0.75,0.75 0 0 0 14,2.25 Z"
     id="path1" />
  <path
     style="color:#000000;fill:#000000;stroke-linecap:round;stroke-linejoin:round;-inkscape-stroke:none"
     d="M 7,2.25 C 6.2709489,2.25 5.5702101,2.5391512 5.0546875,3.0546875 4.5391512,3.5702101 4.25,4.2709489 4.25,5 v 7 A 0.75,0.75 0 0 0 5,12.75 0.75,0.75 0 0 0 5.75,12 V 5 C 5.75,4.6681922 5.8806115,4.349851 6.1152344,4.1152344 6.349851,3.8806115 6.6681922,3.75 7,3.75 h 6.689453 L 18.25,8.3105469 V 12 A 0.75,0.75 0 0 0 19,12.75 0.75,0.75 0 0 0 19.75,12 V 8 A 0.750075,0.750075 0 0 0 19.53125,7.46875 l -5,-5 A 0.750075,0.750075 0 0 0 14,2.25 Z"
     id="path2" />
  <path
     style="color:#000000;fill:#000000;stroke-linecap:round;stroke-linejoin:round;-inkscape-stroke:none"
     d="m 5.5,14.25 c -0.5964017,0 -1.1700186,0.236425 -1.5917969,0.658203 C 3.4864123,15.329994 3.25,15.903558 3.25,16.5 v 3 c 0,0.596442 0.2364123,1.170006 0.6582031,1.591797 C 4.3299814,21.513575 4.9035983,21.75 5.5,21.75 6.0964017,21.75 6.6700186,21.513575 7.0917969,21.091797 7.5135877,20.670006 7.75,20.096442 7.75,19.5 A 0.75,0.75 0 0 0 7,18.75 0.75,0.75 0 0 0 6.25,19.5 c 0,0.199157 -0.077941,0.390441 -0.21875,0.53125 C 5.8904289,20.172071 5.6992375,20.25 5.5,20.25 5.3007625,20.25 5.1095711,20.172071 4.96875,20.03125 4.8279414,19.890441 4.75,19.699157 4.75,19.5 v -3 c 0,-0.199157 0.077941,-0.390441 0.21875,-0.53125 C 5.1095711,15.827929 5.3007625,15.75 5.5,15.75 c 0.1992375,0 0.3904289,0.07793 0.53125,0.21875 C 6.1720586,16.109559 6.25,16.300843 6.25,16.5 A 0.75,0.75 0 0 0 7,17.25 0.75,0.75 0 0 0 7.75,16.5 C 7.75,15.903558 7.5135877,15.329994 7.0917969,14.908203 6.6700186,14.486425 6.0964017,14.25 5.5,14.25 Z"
     id="path3" />
  <path
     style="color:#000000;fill:#000000;stroke-linecap:round;stroke-linejoin:round;-inkscape-stroke:none"
     d="m 11,14.25 c -0.463917,0 -0.910303,0.183741 -1.2382812,0.511719 C 9.4337405,15.089697 9.25,15.536083 9.25,16 v 1 c 0,0.463917 0.1837405,0.910303 0.5117188,1.238281 C 10.089697,18.566259 10.536083,18.75 11,18.75 h 1 c 0.06648,0 0.130713,0.02524 0.177734,0.07227 C 12.224756,18.869287 12.25,18.933518 12.25,19 v 1 c 0,0.06648 -0.02524,0.130713 -0.07227,0.177734 C 12.130713,20.224756 12.066482,20.25 12,20.25 H 10.75 A 0.75,0.75 0 0 0 10,19.5 0.75,0.75 0 0 0 9.25,20.25 c 0,0.819796 0.6802037,1.5 1.5,1.5 H 12 c 0.463917,0 0.910303,-0.183741 1.238281,-0.511719 C 13.566259,20.910303 13.75,20.463917 13.75,20 v -1 c 0,-0.463917 -0.183741,-0.910303 -0.511719,-1.238281 C 12.910303,17.433741 12.463917,17.25 12,17.25 h -1 c -0.06648,0 -0.130713,-0.02524 -0.177734,-0.07227 C 10.775244,17.130713 10.75,17.066482 10.75,17 v -1 c 0,-0.06648 0.02524,-0.130713 0.07227,-0.177734 C 10.869287,15.775244 10.933518,15.75 11,15.75 h 1.25 A 0.75,0.75 0 0 0 13,16.5 0.75,0.75 0 0 0 13.75,15.75 c 0,-0.397492 -0.158066,-0.77936 -0.439453,-1.060547 C 13.02936,14.408066 12.647492,14.25 12.25,14.25 Z"
     id="path4" />
  <path
     style="color:#000000;fill:#000000;stroke-linecap:round;stroke-linejoin:round;-inkscape-stroke:none"
     d="m 15.763672,14.289063 a 0.75,0.75 0 0 0 -0.474609,0.947265 l 1.999999,6 a 0.750075,0.750075 0 0 0 1.421875,0 l 2,-6 a 0.75,0.75 0 0 0 -0.474609,-0.947265 0.75,0.75 0 0 0 -0.947266,0.474609 L 18,18.630859 16.710937,14.763672 a 0.75,0.75 0 0 0 -0.947265,-0.474609 z"
     id="path5" />
</svg>
