<?xml version="1.0" encoding="UTF-8" standalone="no"?>
<svg
   width="24"
   height="24"
   viewBox="0 0 24 24"
   fill="none"
   version="1.1"
   id="svg6"
   sodipodi:docname="file-type-xls.svg"
   inkscape:version="1.3.2 (091e20e, 2023-11-25)"
   xmlns:inkscape="http://www.inkscape.org/namespaces/inkscape"
   xmlns:sodipodi="http://sodipodi.sourceforge.net/DTD/sodipodi-0.dtd"
   xmlns="http://www.w3.org/2000/svg"
   xmlns:svg="http://www.w3.org/2000/svg">
  <defs
     id="defs6" />
  <sodipodi:namedview
     id="namedview6"
     pagecolor="#505050"
     bordercolor="#eeeeee"
     borderopacity="1"
     inkscape:showpageshadow="0"
     inkscape:pageopacity="0"
     inkscape:pagecheckerboard="0"
     inkscape:deskcolor="#505050"
     inkscape:zoom="9.8333333"
     inkscape:cx="11.949153"
     inkscape:cy="12"
     inkscape:window-width="1504"
     inkscape:window-height="449"
     inkscape:window-x="0"
     inkscape:window-y="25"
     inkscape:window-maximized="0"
     inkscape:current-layer="svg6" />
  <path
     style="color:#000000;fill:#000000;stroke-linecap:round;stroke-linejoin:round;-inkscape-stroke:none"
     d="M 14,2.25 A 0.75,0.75 0 0 0 13.25,3 v 4 c 0,0.4639225 0.183854,0.9103464 0.511719,1.2382813 C 14.089739,8.5663543 14.536158,8.75 15,8.75 h 4 A 0.75,0.75 0 0 0 19.75,8 0.75,0.75 0 0 0 19,7.25 h -4 c -0.06656,0 -0.128802,-0.025279 -0.175781,-0.072266 C 14.777084,7.1305897 14.75,7.066517 14.75,7 V 3 A 0.75,0.75 0 0 0 14,2.25 Z"
     id="path1" />
  <path
     style="color:#000000;fill:#000000;stroke-linecap:round;stroke-linejoin:round;-inkscape-stroke:none"
     d="M 7,2.25 C 6.2709489,2.25 5.5702101,2.5391512 5.0546875,3.0546875 4.5391512,3.5702101 4.25,4.2709489 4.25,5 v 7 A 0.75,0.75 0 0 0 5,12.75 0.75,0.75 0 0 0 5.75,12 V 5 C 5.75,4.6681922 5.8806115,4.349851 6.1152344,4.1152344 6.349851,3.8806115 6.6681922,3.75 7,3.75 h 6.689453 L 18.25,8.3105469 V 12 A 0.75,0.75 0 0 0 19,12.75 0.75,0.75 0 0 0 19.75,12 V 8 A 0.750075,0.750075 0 0 0 19.53125,7.46875 l -5,-5 A 0.750075,0.750075 0 0 0 14,2.25 Z"
     id="path2" />
  <path
     style="color:#000000;fill:#000000;stroke-linecap:round;stroke-linejoin:round;-inkscape-stroke:none"
     d="M 4.1464844,14.263672 A 0.75,0.75 0 0 0 3.5839844,14.375 0.75,0.75 0 0 0 3.375,15.416016 l 4,6 A 0.75,0.75 0 0 0 8.4160156,21.625 0.75,0.75 0 0 0 8.625,20.583984 l -4,-6 A 0.75,0.75 0 0 0 4.1464844,14.263672 Z"
     id="path3" />
  <path
     style="color:#000000;fill:#000000;stroke-linecap:round;stroke-linejoin:round;-inkscape-stroke:none"
     d="M 7.8535156,14.263672 A 0.75,0.75 0 0 0 7.375,14.583984 l -4,6 A 0.75,0.75 0 0 0 3.5839844,21.625 0.75,0.75 0 0 0 4.625,21.416016 l 4,-6 A 0.75,0.75 0 0 0 8.4160156,14.375 a 0.75,0.75 0 0 0 -0.5625,-0.111328 z"
     id="path4" />
  <path
     style="color:#000000;fill:#000000;stroke-linecap:round;stroke-linejoin:round;-inkscape-stroke:none"
     d="m 18,14.25 c -0.463917,0 -0.910303,0.183741 -1.238281,0.511719 C 16.433741,15.089697 16.25,15.536083 16.25,16 v 1 c 0,0.463917 0.183741,0.910303 0.511719,1.238281 C 17.089697,18.566259 17.536083,18.75 18,18.75 h 1 c 0.06648,0 0.130713,0.02524 0.177734,0.07227 C 19.224756,18.869287 19.25,18.933518 19.25,19 v 1 c 0,0.06648 -0.02524,0.130713 -0.07227,0.177734 C 19.130713,20.224756 19.066482,20.25 19,20.25 H 17.75 A 0.75,0.75 0 0 0 17,19.5 0.75,0.75 0 0 0 16.25,20.25 c 0,0.819796 0.680204,1.5 1.5,1.5 H 19 c 0.463917,0 0.910303,-0.183741 1.238281,-0.511719 C 20.566259,20.910303 20.75,20.463917 20.75,20 v -1 c 0,-0.463917 -0.183741,-0.910303 -0.511719,-1.238281 C 19.910303,17.433741 19.463917,17.25 19,17.25 h -1 c -0.06648,0 -0.130713,-0.02524 -0.177734,-0.07227 C 17.775244,17.130713 17.75,17.066482 17.75,17 v -1 c 0,-0.06648 0.02524,-0.130713 0.07227,-0.177734 C 17.869287,15.775244 17.933518,15.75 18,15.75 h 1.25 A 0.75,0.75 0 0 0 20,16.5 0.75,0.75 0 0 0 20.75,15.75 c 0,-0.397492 -0.158066,-0.77936 -0.439453,-1.060547 C 20.02936,14.408066 19.647492,14.25 19.25,14.25 Z"
     id="path5" />
  <path
     style="color:#000000;fill:#000000;stroke-linecap:round;stroke-linejoin:round;-inkscape-stroke:none"
     d="M 11,14.25 A 0.75,0.75 0 0 0 10.25,15 v 6 A 0.750075,0.750075 0 0 0 11,21.75 h 3 A 0.75,0.75 0 0 0 14.75,21 0.75,0.75 0 0 0 14,20.25 H 11.75 V 15 A 0.75,0.75 0 0 0 11,14.25 Z"
     id="path6" />
</svg>
