<?xml version="1.0" encoding="UTF-8" standalone="no"?>
<svg
   width="24"
   height="24"
   viewBox="0 0 24 24"
   fill="none"
   version="1.1"
   id="svg2"
   sodipodi:docname="filter-edit.svg"
   inkscape:version="1.3.2 (091e20e, 2023-11-25)"
   xmlns:inkscape="http://www.inkscape.org/namespaces/inkscape"
   xmlns:sodipodi="http://sodipodi.sourceforge.net/DTD/sodipodi-0.dtd"
   xmlns="http://www.w3.org/2000/svg"
   xmlns:svg="http://www.w3.org/2000/svg">
  <defs
     id="defs2" />
  <sodipodi:namedview
     id="namedview2"
     pagecolor="#505050"
     bordercolor="#eeeeee"
     borderopacity="1"
     inkscape:showpageshadow="0"
     inkscape:pageopacity="0"
     inkscape:pagecheckerboard="0"
     inkscape:deskcolor="#505050"
     inkscape:zoom="9.8333333"
     inkscape:cx="11.949153"
     inkscape:cy="12"
     inkscape:window-width="1504"
     inkscape:window-height="449"
     inkscape:window-x="0"
     inkscape:window-y="25"
     inkscape:window-maximized="0"
     inkscape:current-layer="svg2" />
  <path
     style="color:#000000;fill:#000000;stroke-linecap:round;stroke-linejoin:round;-inkscape-stroke:none"
     d="M 4,3.25 A 0.750075,0.750075 0 0 0 3.25,4 v 2.2265625 c 6.87e-5,0.68372 0.2549797,1.3436696 0.7148438,1.8496094 L 8.25,12.789063 V 21 a 0.750075,0.750075 0 0 0 0.9863281,0.710937 l 1.9707029,-0.65625 a 0.75,0.75 0 0 0 0.47461,-0.947265 0.75,0.75 0 0 0 -0.949219,-0.47461 L 9.75,19.960937 V 12.5 A 0.750075,0.750075 0 0 0 9.5546875,11.996094 L 5.0742187,7.0683594 C 4.8649834,6.8381599 4.7500313,6.5376415 4.75,6.2265625 V 4.75 h 14.5 v 1.421875 c -6.3e-5,0.3317584 -0.132535,0.6482287 -0.367188,0.8828125 a 0.750075,0.750075 0 0 0 0,0.00195 L 14.46875,11.46875 A 0.750075,0.750075 0 0 0 14.25,12 v 1.5 A 0.75,0.75 0 0 0 15,14.25 0.75,0.75 0 0 0 15.75,13.5 V 12.310547 L 19.943359,8.1171875 C 20.458906,7.601792 20.749863,6.9008956 20.75,6.171875 V 4 A 0.750075,0.750075 0 0 0 20,3.25 Z"
     id="path1" />
  <path
     style="color:#000000;fill:#000000;stroke-linecap:round;stroke-linejoin:round;-inkscape-stroke:none"
     d="m 19.904297,14.244141 c -0.374241,0 -0.743946,0.07539 -1.089844,0.21875 -0.345879,0.143211 -0.659205,0.352565 -0.923828,0.617187 l -3.417969,3.386719 A 0.750075,0.750075 0 0 0 14.25,19 v 3 A 0.750075,0.750075 0 0 0 15,22.75 h 3 a 0.750075,0.750075 0 0 0 0.533203,-0.222656 l 3.386719,-3.416016 0.002,-0.0039 c 0.263169,-0.263977 0.474533,-0.577342 0.617187,-0.921875 h -0.002 c 0.143355,-0.345898 0.21875,-0.715603 0.21875,-1.089844 0,-0.37424 -0.0754,-0.745899 -0.21875,-1.091797 h 0.002 c -0.143183,-0.345676 -0.354427,-0.659115 -0.61914,-0.923828 -0.264623,-0.264622 -0.577949,-0.473976 -0.923828,-0.617187 -0.345898,-0.143355 -0.717557,-0.21875 -1.091797,-0.21875 z m 0,1.5 c 0.177359,0 0.353877,0.03567 0.517578,0.103515 0.163721,0.06779 0.312123,0.167592 0.4375,0.292969 0.125286,0.125286 0.225153,0.273777 0.292969,0.4375 0.06785,0.163701 0.103515,0.340219 0.103515,0.517578 0,0.177359 -0.03567,0.351924 -0.103515,0.515625 -0.06779,0.163721 -0.167592,0.314076 -0.292969,0.439453 a 0.750075,0.750075 0 0 0 -0.002,0.002 L 17.6875,21.25 H 15.75 v -1.9375 l 3.197266,-3.169922 a 0.750075,0.750075 0 0 0 0.0039,-0.002 c 0.125377,-0.125377 0.273779,-0.22518 0.4375,-0.292969 0.163701,-0.06785 0.338266,-0.103515 0.515625,-0.103515 z"
     id="path2" />
</svg>
