<?xml version="1.0" encoding="UTF-8" standalone="no"?>
<svg
   width="24"
   height="24"
   viewBox="0 0 24 24"
   fill="none"
   version="1.1"
   id="svg2"
   sodipodi:docname="filter-off.svg"
   inkscape:version="1.3.2 (091e20e, 2023-11-25)"
   xmlns:inkscape="http://www.inkscape.org/namespaces/inkscape"
   xmlns:sodipodi="http://sodipodi.sourceforge.net/DTD/sodipodi-0.dtd"
   xmlns="http://www.w3.org/2000/svg"
   xmlns:svg="http://www.w3.org/2000/svg">
  <defs
     id="defs2" />
  <sodipodi:namedview
     id="namedview2"
     pagecolor="#505050"
     bordercolor="#eeeeee"
     borderopacity="1"
     inkscape:showpageshadow="0"
     inkscape:pageopacity="0"
     inkscape:pagecheckerboard="0"
     inkscape:deskcolor="#505050"
     inkscape:zoom="9.8333333"
     inkscape:cx="11.949153"
     inkscape:cy="12"
     inkscape:window-width="1504"
     inkscape:window-height="449"
     inkscape:window-x="0"
     inkscape:window-y="25"
     inkscape:window-maximized="0"
     inkscape:current-layer="svg2" />
  <path
     style="color:#000000;fill:#000000;stroke-linecap:round;stroke-linejoin:round;-inkscape-stroke:none"
     d="M 4,3.25 A 0.75,0.75 0 0 0 3.25,4 v 2.2265625 c 6.87e-5,0.68372 0.2549797,1.3436696 0.7148438,1.8496094 L 8.25,12.789063 V 21 a 0.750075,0.750075 0 0 0 0.9863281,0.710937 l 5.9999999,-2 A 0.750075,0.750075 0 0 0 15.75,19 V 15 A 0.75,0.75 0 0 0 15,14.25 0.75,0.75 0 0 0 14.25,15 v 3.458984 l -4.5,1.501953 V 12.5 A 0.750075,0.750075 0 0 0 9.5546875,11.996094 L 5.0742187,7.0683594 C 4.8649834,6.8381599 4.7500313,6.5376415 4.75,6.2265625 V 4 A 0.75,0.75 0 0 0 4,3.25 Z m 4,0 A 0.75,0.75 0 0 0 7.25,4 0.75,0.75 0 0 0 8,4.75 h 11.25 v 1.421875 c -6.3e-5,0.3317584 -0.132535,0.6482287 -0.367188,0.8828125 a 0.750075,0.750075 0 0 0 0,0.00195 L 14.96875,10.96875 a 0.75,0.75 0 0 0 0,1.0625 0.75,0.75 0 0 0 1.0625,0 L 19.943359,8.1171875 C 20.458906,7.601792 20.749863,6.9008956 20.75,6.171875 V 4 A 0.750075,0.750075 0 0 0 20,3.25 Z"
     id="path1" />
  <path
     style="color:#000000;fill:#000000;stroke-linecap:round;stroke-linejoin:round;-inkscape-stroke:none"
     d="m 3,2.25 a 0.75,0.75 0 0 0 -0.53125,0.21875 0.75,0.75 0 0 0 0,1.0625 l 18,18 a 0.75,0.75 0 0 0 1.0625,0 0.75,0.75 0 0 0 0,-1.0625 l -18,-18 A 0.75,0.75 0 0 0 3,2.25 Z"
     id="path2" />
</svg>
