<?xml version="1.0" encoding="UTF-8" standalone="no"?>
<svg
   width="24"
   height="24"
   viewBox="0 0 24 24"
   fill="none"
   version="1.1"
   id="svg8"
   sodipodi:docname="filter-cog.svg"
   inkscape:version="1.3.2 (091e20e, 2023-11-25)"
   xmlns:inkscape="http://www.inkscape.org/namespaces/inkscape"
   xmlns:sodipodi="http://sodipodi.sourceforge.net/DTD/sodipodi-0.dtd"
   xmlns="http://www.w3.org/2000/svg"
   xmlns:svg="http://www.w3.org/2000/svg">
  <defs
     id="defs8" />
  <sodipodi:namedview
     id="namedview8"
     pagecolor="#505050"
     bordercolor="#eeeeee"
     borderopacity="1"
     inkscape:showpageshadow="0"
     inkscape:pageopacity="0"
     inkscape:pagecheckerboard="0"
     inkscape:deskcolor="#505050"
     inkscape:zoom="9.8333333"
     inkscape:cx="11.949153"
     inkscape:cy="12"
     inkscape:window-width="1504"
     inkscape:window-height="449"
     inkscape:window-x="0"
     inkscape:window-y="25"
     inkscape:window-maximized="0"
     inkscape:current-layer="svg8" />
  <path
     style="color:#000000;fill:#000000;stroke-linecap:round;stroke-linejoin:round;-inkscape-stroke:none"
     d="M 4,3.25 A 0.750075,0.750075 0 0 0 3.25,4 v 2.2265625 c 6.87e-5,0.68372 0.2549797,1.3436696 0.7148438,1.8496094 L 8.25,12.789063 V 21 a 0.750075,0.750075 0 0 0 0.9863281,0.710937 l 2.9999999,-1 a 0.75,0.75 0 0 0 0.47461,-0.947265 0.75,0.75 0 0 0 -0.947266,-0.47461 L 9.75,19.960937 V 12.5 A 0.750075,0.750075 0 0 0 9.5546875,11.996094 L 5.0742187,7.0683594 C 4.8649834,6.8381599 4.7500313,6.5376415 4.75,6.2265625 V 4.75 h 14.5 v 1.421875 c -6.3e-5,0.3317584 -0.132535,0.6482287 -0.367188,0.8828125 a 0.750075,0.750075 0 0 0 0,0.00195 L 14.46875,11.46875 A 0.750075,0.750075 0 0 0 14.25,12 v 1.5 A 0.75,0.75 0 0 0 15,14.25 0.75,0.75 0 0 0 15.75,13.5 V 12.310547 L 19.943359,8.1171875 C 20.458906,7.601792 20.749863,6.9008956 20.75,6.171875 V 4 A 0.750075,0.750075 0 0 0 20,3.25 Z"
     id="path1" />
  <path
     style="color:#000000;fill:#000000;stroke-linecap:round;stroke-linejoin:round;-inkscape-stroke:none"
     d="m 19.001953,16.25 c -0.729023,0 -1.429772,0.289147 -1.945312,0.804687 C 16.5411,17.570228 16.251953,18.270977 16.251953,19 c 0,0.729023 0.289147,1.429772 0.804688,1.945312 0.51554,0.515541 1.216289,0.804688 1.945312,0.804688 0.729023,0 1.427819,-0.289147 1.943359,-0.804688 0.515541,-0.51554 0.806641,-1.216289 0.806641,-1.945312 0,-0.729023 -0.2911,-1.429772 -0.806641,-1.945313 C 20.429772,16.539147 19.730976,16.25 19.001953,16.25 Z m 0,1.5 c 0.331776,0 0.648154,0.130576 0.882813,0.365234 0.234658,0.234659 0.367187,0.55299 0.367187,0.884766 0,0.331776 -0.132529,0.650107 -0.367187,0.884766 C 19.650107,20.119424 19.333729,20.25 19.001953,20.25 18.670177,20.25 18.351846,20.119424 18.117187,19.884766 17.882529,19.650107 17.751953,19.331776 17.751953,19 c 0,-0.331776 0.130576,-0.650107 0.365234,-0.884766 C 18.351846,17.880576 18.670177,17.75 19.001953,17.75 Z"
     id="path2" />
  <path
     style="color:#000000;fill:#000000;stroke-linecap:round;stroke-linejoin:round;-inkscape-stroke:none"
     d="m 19.001953,14.75 a 0.75,0.75 0 0 0 -0.75,0.75 V 17 a 0.75,0.75 0 0 0 0.75,0.75 0.75,0.75 0 0 0 0.75,-0.75 v -1.5 a 0.75,0.75 0 0 0 -0.75,-0.75 z"
     id="path3" />
  <path
     style="color:#000000;fill:#000000;stroke-linecap:round;stroke-linejoin:round;-inkscape-stroke:none"
     d="m 19.001953,20.25 a 0.75,0.75 0 0 0 -0.75,0.75 v 1.5 a 0.75,0.75 0 0 0 0.75,0.75 0.75,0.75 0 0 0 0.75,-0.75 V 21 a 0.75,0.75 0 0 0 -0.75,-0.75 z"
     id="path4" />
  <path
     style="color:#000000;fill:#000000;stroke-linecap:round;stroke-linejoin:round;-inkscape-stroke:none"
     d="m 21.65625,16.599609 -1.298828,0.75 a 0.75,0.75 0 0 0 -0.273438,1.025391 0.75,0.75 0 0 0 1.023438,0.275391 l 1.298828,-0.75 A 0.75,0.75 0 0 0 22.681641,16.875 0.75,0.75 0 0 0 21.65625,16.599609 Z"
     id="path5" />
  <path
     style="color:#000000;fill:#000000;stroke-linecap:round;stroke-linejoin:round;-inkscape-stroke:none"
     d="m 17.464844,19.275391 a 0.75,0.75 0 0 0 -0.570313,0.07422 l -1.298828,0.75 a 0.75,0.75 0 0 0 -0.27539,1.025391 0.75,0.75 0 0 0 1.02539,0.275391 l 1.298828,-0.75 A 0.75,0.75 0 0 0 17.919922,19.625 0.75,0.75 0 0 0 17.464844,19.275391 Z"
     id="path6" />
  <path
     style="color:#000000;fill:#000000;stroke-linecap:round;stroke-linejoin:round;-inkscape-stroke:none"
     d="m 15.775391,16.525391 a 0.75,0.75 0 0 0 -0.455078,0.349609 0.75,0.75 0 0 0 0.27539,1.025391 l 1.298828,0.75 A 0.75,0.75 0 0 0 17.919922,18.375 0.75,0.75 0 0 0 17.644531,17.349609 l -1.298828,-0.75 a 0.75,0.75 0 0 0 -0.570312,-0.07422 z"
     id="path7" />
  <path
     style="color:#000000;fill:#000000;stroke-linecap:round;stroke-linejoin:round;-inkscape-stroke:none"
     d="m 20.539062,19.275391 a 0.75,0.75 0 0 0 -0.455078,0.349609 0.75,0.75 0 0 0 0.273438,1.025391 l 1.300781,0.75 A 0.75,0.75 0 0 0 22.683594,21.125 0.75,0.75 0 0 0 22.408203,20.099609 l -1.300781,-0.75 a 0.75,0.75 0 0 0 -0.56836,-0.07422 z"
     id="path8" />
</svg>
