<?xml version="1.0" encoding="UTF-8" standalone="no"?>
<svg
   width="24"
   height="24"
   viewBox="0 0 24 24"
   fill="none"
   version="1.1"
   id="svg5"
   sodipodi:docname="gas-station.svg"
   inkscape:version="1.3.2 (091e20e, 2023-11-25)"
   xmlns:inkscape="http://www.inkscape.org/namespaces/inkscape"
   xmlns:sodipodi="http://sodipodi.sourceforge.net/DTD/sodipodi-0.dtd"
   xmlns="http://www.w3.org/2000/svg"
   xmlns:svg="http://www.w3.org/2000/svg">
  <defs
     id="defs5" />
  <sodipodi:namedview
     id="namedview5"
     pagecolor="#505050"
     bordercolor="#eeeeee"
     borderopacity="1"
     inkscape:showpageshadow="0"
     inkscape:pageopacity="0"
     inkscape:pagecheckerboard="0"
     inkscape:deskcolor="#505050"
     inkscape:zoom="9.8333333"
     inkscape:cx="11.949153"
     inkscape:cy="12"
     inkscape:window-width="1504"
     inkscape:window-height="449"
     inkscape:window-x="0"
     inkscape:window-y="25"
     inkscape:window-maximized="0"
     inkscape:current-layer="svg5" />
  <path
     style="color:#000000;fill:#000000;stroke-linecap:round;stroke-linejoin:round;-inkscape-stroke:none"
     d="m 17,5.25 a 0.75,0.75 0 0 0 -0.53125,0.21875 0.75,0.75 0 0 0 0,1.0625 L 19.25,9.3105469 V 16 c 0,0.199208 -0.07797,0.390467 -0.21875,0.53125 C 18.890467,16.672033 18.699208,16.75 18.5,16.75 c -0.199208,0 -0.390467,-0.07797 -0.53125,-0.21875 C 17.827967,16.390467 17.75,16.199208 17.75,16 v -3 c 0,-0.729023 -0.289147,-1.429772 -0.804688,-1.945312 C 16.429772,10.539147 15.729023,10.25 15,10.25 H 14 A 0.75,0.75 0 0 0 13.25,11 0.75,0.75 0 0 0 14,11.75 h 1 c 0.331776,0 0.650107,0.130576 0.884766,0.365234 C 16.119424,12.349893 16.25,12.668224 16.25,13 v 3 c 0,0.596392 0.236387,1.169981 0.658203,1.591797 C 17.330019,18.013613 17.903608,18.25 18.5,18.25 c 0.596392,0 1.169981,-0.236387 1.591797,-0.658203 C 20.513613,17.169981 20.75,16.596392 20.75,16 V 9 A 0.750075,0.750075 0 0 0 20.53125,8.46875 l -3,-3 A 0.75,0.75 0 0 0 17,5.25 Z"
     id="path1" />
  <path
     style="color:#000000;fill:#000000;stroke-linecap:round;stroke-linejoin:round;-inkscape-stroke:none"
     d="M 6,3.25 C 5.2709489,3.25 4.5702101,3.5391512 4.0546875,4.0546875 3.5391512,4.5702101 3.25,5.2709489 3.25,6 V 20 A 0.75,0.75 0 0 0 4,20.75 0.75,0.75 0 0 0 4.75,20 V 6 C 4.75,5.6681922 4.8806115,5.349851 5.1152344,5.1152344 5.349851,4.8806115 5.6681922,4.75 6,4.75 h 6 c 0.331767,0 0.650101,0.130582 0.884766,0.3652344 C 13.119395,5.3498448 13.25,5.6681828 13.25,6 V 20 A 0.75,0.75 0 0 0 14,20.75 0.75,0.75 0 0 0 14.75,20 V 6 C 14.75,5.2709583 14.460883,4.5702164 13.945313,4.0546875 13.429778,3.5391807 12.729032,3.25 12,3.25 Z"
     id="path2" />
  <path
     style="color:#000000;fill:#000000;stroke-linecap:round;stroke-linejoin:round;-inkscape-stroke:none"
     d="M 3,19.25 A 0.75,0.75 0 0 0 2.25,20 0.75,0.75 0 0 0 3,20.75 H 15 A 0.75,0.75 0 0 0 15.75,20 0.75,0.75 0 0 0 15,19.25 Z"
     id="path3" />
  <path
     style="color:#000000;fill:#000000;stroke-linecap:round;stroke-linejoin:round;-inkscape-stroke:none"
     d="M 18,6.25 A 0.75,0.75 0 0 0 17.25,7 v 1 c 0,0.4639225 0.183854,0.9103464 0.511719,1.2382813 C 18.089739,9.5663543 18.536158,9.75 19,9.75 h 1 A 0.75,0.75 0 0 0 20.75,9 0.75,0.75 0 0 0 20,8.25 h -1 c -0.06656,0 -0.128802,-0.025279 -0.175781,-0.072266 C 18.777084,8.1305897 18.75,8.066517 18.75,8 V 7 A 0.75,0.75 0 0 0 18,6.25 Z"
     id="path4" />
  <path
     style="color:#000000;fill:#000000;stroke-linecap:round;stroke-linejoin:round;-inkscape-stroke:none"
     d="M 4,10.25 A 0.75,0.75 0 0 0 3.25,11 0.75,0.75 0 0 0 4,11.75 H 14 A 0.75,0.75 0 0 0 14.75,11 0.75,0.75 0 0 0 14,10.25 Z"
     id="path5" />
</svg>
