<?xml version="1.0" encoding="UTF-8" standalone="no"?>
<svg
   width="24"
   height="24"
   viewBox="0 0 24 24"
   fill="none"
   version="1.1"
   id="svg2"
   sodipodi:docname="history.svg"
   inkscape:version="1.3.2 (091e20e, 2023-11-25)"
   xmlns:inkscape="http://www.inkscape.org/namespaces/inkscape"
   xmlns:sodipodi="http://sodipodi.sourceforge.net/DTD/sodipodi-0.dtd"
   xmlns="http://www.w3.org/2000/svg"
   xmlns:svg="http://www.w3.org/2000/svg">
  <defs
     id="defs2" />
  <sodipodi:namedview
     id="namedview2"
     pagecolor="#505050"
     bordercolor="#eeeeee"
     borderopacity="1"
     inkscape:showpageshadow="0"
     inkscape:pageopacity="0"
     inkscape:pagecheckerboard="0"
     inkscape:deskcolor="#505050"
     inkscape:zoom="9.8333333"
     inkscape:cx="11.949153"
     inkscape:cy="12"
     inkscape:window-width="1504"
     inkscape:window-height="449"
     inkscape:window-x="0"
     inkscape:window-y="25"
     inkscape:window-maximized="0"
     inkscape:current-layer="svg2" />
  <path
     style="color:#000000;fill:#000000;stroke-linecap:round;stroke-linejoin:round;-inkscape-stroke:none"
     d="M 12,7.25 A 0.75,0.75 0 0 0 11.25,8 v 4 a 0.750075,0.750075 0 0 0 0.21875,0.53125 l 2,2 a 0.75,0.75 0 0 0 1.0625,0 0.75,0.75 0 0 0 0,-1.0625 L 12.75,11.689453 V 8 A 0.75,0.75 0 0 0 12,7.25 Z"
     id="path1" />
  <path
     style="color:#000000;fill:#000000;stroke-linecap:round;stroke-linejoin:round;-inkscape-stroke:none"
     d="M 11.892578,2.1621094 C 9.4973128,2.1894612 7.1960936,3.0990374 5.4277344,4.7148437 3.6593744,6.3306616 2.5474311,8.5407294 2.3046875,10.923828 A 0.75,0.75 0 0 0 2.9746094,11.746094 0.75,0.75 0 0 0 3.796875,11.076172 C 4.002311,9.059335 4.9428763,7.1897448 6.4394531,5.8222656 7.9360306,4.4547949 9.883026,3.6852575 11.910156,3.6621094 c 2.027132,-0.023157 3.990176,0.7002714 5.517578,2.0332031 1.527405,1.3329334 2.510252,3.1817616 2.761719,5.1933595 0.251463,2.011518 -0.246172,4.045044 -1.398437,5.71289 -1.152365,1.66795 -2.877277,2.85355 -4.847657,3.330079 -1.970481,0.476531 -4.0468467,0.21091 -5.833984,-0.746094 C 6.6718128,18.415739 5.6119545,17.17074 4.8476562,15.75 h 3.2031251 a 0.75,0.75 0 0 0 0.75,-0.75 0.75,0.75 0 0 0 -0.75,-0.75 h -5 a 0.750075,0.750075 0 0 0 -0.75,0.75 v 5 a 0.75,0.75 0 0 0 0.75,0.75 0.75,0.75 0 0 0 0.75,-0.75 v -3.121094 c 0.8994939,1.483552 2.050133,2.799169 3.5996093,3.628906 2.1116788,1.130795 4.5662174,1.443928 6.8945314,0.88086 2.328216,-0.56307 4.368836,-1.962747 5.730469,-3.933594 1.361532,-1.97075 1.94948,-4.375076 1.652343,-6.751953 C 21.380602,8.3262272 20.218855,6.1414099 18.414062,4.5664062 16.609268,2.9914008 14.287842,2.1347467 11.892578,2.1621094 Z"
     id="path2" />
</svg>
