<?xml version="1.0" encoding="UTF-8" standalone="no"?>
<svg
   width="24"
   height="24"
   viewBox="0 0 24 24"
   fill="none"
   version="1.1"
   id="svg3"
   sodipodi:docname="home.svg"
   inkscape:version="1.3.2 (091e20e, 2023-11-25)"
   xmlns:inkscape="http://www.inkscape.org/namespaces/inkscape"
   xmlns:sodipodi="http://sodipodi.sourceforge.net/DTD/sodipodi-0.dtd"
   xmlns="http://www.w3.org/2000/svg"
   xmlns:svg="http://www.w3.org/2000/svg">
  <defs
     id="defs3" />
  <sodipodi:namedview
     id="namedview3"
     pagecolor="#505050"
     bordercolor="#eeeeee"
     borderopacity="1"
     inkscape:showpageshadow="0"
     inkscape:pageopacity="0"
     inkscape:pagecheckerboard="0"
     inkscape:deskcolor="#505050"
     inkscape:zoom="9.8333333"
     inkscape:cx="11.949153"
     inkscape:cy="12"
     inkscape:window-width="1504"
     inkscape:window-height="449"
     inkscape:window-x="0"
     inkscape:window-y="25"
     inkscape:window-maximized="0"
     inkscape:current-layer="svg3" />
  <path
     style="color:#000000;fill:#000000;stroke-linecap:round;stroke-linejoin:round;-inkscape-stroke:none"
     d="m 11.46875,2.46875 -9,9 A 0.750075,0.750075 0 0 0 3,12.75 H 5 A 0.75,0.75 0 0 0 5.75,12 0.75,0.75 0 0 0 5,11.25 H 4.8125 L 12,4.0625 19.1875,11.25 H 19 A 0.75,0.75 0 0 0 18.25,12 0.75,0.75 0 0 0 19,12.75 h 2 a 0.750075,0.750075 0 0 0 0.53125,-1.28125 l -9,-9 a 0.750075,0.750075 0 0 0 -1.0625,0 z"
     id="path1" />
  <path
     style="color:#000000;fill:#000000;stroke-linecap:round;stroke-linejoin:round;-inkscape-stroke:none"
     d="M 5,11.25 A 0.75,0.75 0 0 0 4.25,12 v 7 c 0,0.729032 0.2891807,1.429778 0.8046875,1.945312 C 5.5702164,21.460883 6.2709583,21.75 7,21.75 h 10 c 0.729023,0 1.429772,-0.289147 1.945312,-0.804688 C 19.460853,20.429772 19.75,19.729023 19.75,19 V 12 A 0.75,0.75 0 0 0 19,11.25 0.75,0.75 0 0 0 18.25,12 v 7 c 0,0.331776 -0.130576,0.650107 -0.365234,0.884766 C 17.650107,20.119424 17.331776,20.25 17,20.25 H 7 C 6.6681828,20.25 6.3498448,20.119395 6.1152344,19.884766 5.880582,19.650101 5.75,19.331767 5.75,19 V 12 A 0.75,0.75 0 0 0 5,11.25 Z"
     id="path2" />
  <path
     style="color:#000000;fill:#000000;stroke-linecap:round;stroke-linejoin:round;-inkscape-stroke:none"
     d="m 11,12.25 c -0.729023,0 -1.4297695,0.289103 -1.9453125,0.804688 C 8.5391807,13.570222 8.25,14.270968 8.25,15 v 6 A 0.75,0.75 0 0 0 9,21.75 0.75,0.75 0 0 0 9.75,21 v -6 c 0,-0.331767 0.130582,-0.650101 0.365234,-0.884766 C 10.349831,13.880619 10.668224,13.75 11,13.75 h 2 c 0.331776,0 0.650107,0.130576 0.884766,0.365234 C 14.119424,14.349893 14.25,14.668224 14.25,15 v 6 A 0.75,0.75 0 0 0 15,21.75 0.75,0.75 0 0 0 15.75,21 v -6 c 0,-0.729023 -0.289147,-1.429772 -0.804687,-1.945312 C 14.429772,12.539147 13.729023,12.25 13,12.25 Z"
     id="path3" />
</svg>
