<?xml version="1.0" encoding="UTF-8" standalone="no"?>
<svg
   width="24"
   height="24"
   viewBox="0 0 24 24"
   fill="none"
   version="1.1"
   id="svg4"
   sodipodi:docname="layout-grid.svg"
   inkscape:version="1.3.2 (091e20e, 2023-11-25)"
   xmlns:inkscape="http://www.inkscape.org/namespaces/inkscape"
   xmlns:sodipodi="http://sodipodi.sourceforge.net/DTD/sodipodi-0.dtd"
   xmlns="http://www.w3.org/2000/svg"
   xmlns:svg="http://www.w3.org/2000/svg">
  <defs
     id="defs4" />
  <sodipodi:namedview
     id="namedview4"
     pagecolor="#505050"
     bordercolor="#eeeeee"
     borderopacity="1"
     inkscape:showpageshadow="0"
     inkscape:pageopacity="0"
     inkscape:pagecheckerboard="0"
     inkscape:deskcolor="#505050"
     inkscape:zoom="9.8333333"
     inkscape:cx="11.949153"
     inkscape:cy="12"
     inkscape:window-width="1504"
     inkscape:window-height="449"
     inkscape:window-x="0"
     inkscape:window-y="25"
     inkscape:window-maximized="0"
     inkscape:current-layer="svg4" />
  <path
     style="color:#000000;fill:#000000;stroke-linecap:round;stroke-linejoin:round;-inkscape-stroke:none"
     d="M 5,3.25 C 4.5361529,3.25 4.089696,3.433759 3.7617188,3.7617188 3.433759,4.089696 3.25,4.5361529 3.25,5 v 4 c 0,0.4638471 0.183759,0.910304 0.5117188,1.238281 C 4.089696,10.566241 4.5361529,10.75 5,10.75 h 4 c 0.4638471,0 0.910304,-0.183759 1.238281,-0.511719 C 10.566241,9.910304 10.75,9.4638471 10.75,9 V 5 C 10.75,4.5361529 10.566241,4.089696 10.238281,3.7617188 9.910304,3.433759 9.4638471,3.25 9,3.25 Z m 0,1.5 h 4 c 0.066592,0 0.130632,0.025166 0.1777344,0.072266 C 9.2248342,4.869368 9.25,4.9334076 9.25,5 v 4 c 0,0.066592 -0.025166,0.130632 -0.072266,0.1777344 C 9.130632,9.2248342 9.0665924,9.25 9,9.25 H 5 C 4.9334076,9.25 4.869368,9.2248342 4.8222656,9.1777344 4.7751658,9.130632 4.75,9.0665924 4.75,9 V 5 c 0,-0.066592 0.025166,-0.130632 0.072266,-0.1777344 C 4.869368,4.7751658 4.9334076,4.75 5,4.75 Z"
     id="path1" />
  <path
     style="color:#000000;fill:#000000;stroke-linecap:round;stroke-linejoin:round;-inkscape-stroke:none"
     d="m 15,3.25 c -0.463842,0 -0.910261,0.1836457 -1.238281,0.5117188 C 13.433854,4.0896536 13.25,4.5360775 13.25,5 v 4 c 0,0.4639225 0.183854,0.9103464 0.511719,1.238281 C 14.089739,10.566354 14.536158,10.75 15,10.75 h 4 c 0.463842,0 0.910261,-0.183646 1.238281,-0.511719 C 20.566146,9.9103464 20.75,9.4639225 20.75,9 V 5 C 20.75,4.5360775 20.566146,4.0896536 20.238281,3.7617188 19.910261,3.4336457 19.463842,3.25 19,3.25 Z m 0,1.5 h 4 c 0.06656,0 0.128802,0.025279 0.175781,0.072266 C 19.222916,4.8694103 19.25,4.933483 19.25,5 v 4 c 0,0.066517 -0.02708,0.1305897 -0.07422,0.1777344 C 19.128802,9.2247209 19.066557,9.25 19,9.25 h -4 c -0.06656,0 -0.128802,-0.025279 -0.175781,-0.072266 C 14.777084,9.1305897 14.75,9.066517 14.75,9 V 5 c 0,-0.066517 0.02708,-0.1305897 0.07422,-0.1777344 C 14.871198,4.7752791 14.933443,4.75 15,4.75 Z"
     id="path2" />
  <path
     style="color:#000000;fill:#000000;stroke-linecap:round;stroke-linejoin:round;-inkscape-stroke:none"
     d="m 5,13.25 c -0.4639225,0 -0.9103464,0.183854 -1.2382812,0.511719 C 3.4336457,14.089739 3.25,14.536158 3.25,15 v 4 c 0,0.463842 0.1836457,0.910261 0.5117188,1.238281 C 4.0896536,20.566146 4.5360775,20.75 5,20.75 h 4 c 0.4639225,0 0.9103464,-0.183854 1.238281,-0.511719 C 10.566354,19.910261 10.75,19.463842 10.75,19 v -4 c 0,-0.463842 -0.183646,-0.910261 -0.511719,-1.238281 C 9.9103464,13.433854 9.4639225,13.25 9,13.25 Z m 0,1.5 h 4 c 0.066517,0 0.1305897,0.02708 0.1777344,0.07422 C 9.2247209,14.871198 9.25,14.933443 9.25,15 v 4 c 0,0.06656 -0.025279,0.128802 -0.072266,0.175781 C 9.1305897,19.222916 9.066517,19.25 9,19.25 H 5 c -0.066517,0 -0.1305897,-0.02708 -0.1777344,-0.07422 C 4.7752791,19.128802 4.75,19.066557 4.75,19 v -4 c 0,-0.06656 0.025279,-0.128802 0.072266,-0.175781 C 4.8694103,14.777084 4.933483,14.75 5,14.75 Z"
     id="path3" />
  <path
     style="color:#000000;fill:#000000;stroke-linecap:round;stroke-linejoin:round;-inkscape-stroke:none"
     d="m 15,13.25 c -0.463917,0 -0.910303,0.183741 -1.238281,0.511719 C 13.433741,14.089697 13.25,14.536083 13.25,15 v 4 c 0,0.463917 0.183741,0.910303 0.511719,1.238281 C 14.089697,20.566259 14.536083,20.75 15,20.75 h 4 c 0.463917,0 0.910303,-0.183741 1.238281,-0.511719 C 20.566259,19.910303 20.75,19.463917 20.75,19 v -4 c 0,-0.463917 -0.183741,-0.910303 -0.511719,-1.238281 C 19.910303,13.433741 19.463917,13.25 19,13.25 Z m 0,1.5 h 4 c 0.06648,0 0.130713,0.02524 0.177734,0.07227 C 19.224756,14.869287 19.25,14.933518 19.25,15 v 4 c 0,0.06648 -0.02524,0.130713 -0.07227,0.177734 C 19.130713,19.224756 19.066482,19.25 19,19.25 h -4 c -0.06648,0 -0.130713,-0.02524 -0.177734,-0.07227 C 14.775244,19.130713 14.75,19.066482 14.75,19 v -4 c 0,-0.06648 0.02524,-0.130713 0.07227,-0.177734 C 14.869287,14.775244 14.933518,14.75 15,14.75 Z"
     id="path4" />
</svg>
