<?xml version="1.0" encoding="UTF-8" standalone="no"?>
<svg
   width="24"
   height="24"
   viewBox="0 0 24 24"
   fill="none"
   version="1.1"
   id="svg2"
   sodipodi:docname="layout-list.svg"
   inkscape:version="1.3.2 (091e20e, 2023-11-25)"
   xmlns:inkscape="http://www.inkscape.org/namespaces/inkscape"
   xmlns:sodipodi="http://sodipodi.sourceforge.net/DTD/sodipodi-0.dtd"
   xmlns="http://www.w3.org/2000/svg"
   xmlns:svg="http://www.w3.org/2000/svg">
  <defs
     id="defs2" />
  <sodipodi:namedview
     id="namedview2"
     pagecolor="#505050"
     bordercolor="#eeeeee"
     borderopacity="1"
     inkscape:showpageshadow="0"
     inkscape:pageopacity="0"
     inkscape:pagecheckerboard="0"
     inkscape:deskcolor="#505050"
     inkscape:zoom="9.8333333"
     inkscape:cx="11.949153"
     inkscape:cy="12"
     inkscape:window-width="1504"
     inkscape:window-height="449"
     inkscape:window-x="0"
     inkscape:window-y="25"
     inkscape:window-maximized="0"
     inkscape:current-layer="svg2" />
  <path
     style="color:#000000;fill:#000000;stroke-linecap:round;stroke-linejoin:round;-inkscape-stroke:none"
     d="M 6,3.25 C 5.2709489,3.25 4.5702101,3.5391512 4.0546875,4.0546875 3.5391512,4.5702101 3.25,5.2709489 3.25,6 v 2 c 0,0.7290511 0.2891512,1.4297899 0.8046875,1.9453125 C 4.5702101,10.460849 5.2709489,10.75 6,10.75 h 12 c 0.729032,0 1.429778,-0.289181 1.945312,-0.8046875 C 20.460883,9.4297836 20.75,8.7290417 20.75,8 V 6 C 20.75,5.2709583 20.460883,4.5702164 19.945312,4.0546875 19.429778,3.5391807 18.729032,3.25 18,3.25 Z m 0,1.5 h 12 c 0.331767,0 0.650101,0.130582 0.884766,0.3652344 C 19.119395,5.3498448 19.25,5.6681828 19.25,6 v 2 c 0,0.3318172 -0.130605,0.6501552 -0.365234,0.8847656 C 18.650101,9.119418 18.331767,9.25 18,9.25 H 6 C 5.6681922,9.25 5.349851,9.1193885 5.1152344,8.8847656 4.8806115,8.650149 4.75,8.3318078 4.75,8 V 6 C 4.75,5.6681922 4.8806115,5.349851 5.1152344,5.1152344 5.349851,4.8806115 5.6681922,4.75 6,4.75 Z"
     id="path1" />
  <path
     style="color:#000000;fill:#000000;stroke-linecap:round;stroke-linejoin:round;-inkscape-stroke:none"
     d="m 6,13.25 c -0.7290417,0 -1.4297836,0.289117 -1.9453125,0.804688 C 3.5391807,14.570222 3.25,15.270968 3.25,16 v 2 c 0,0.729032 0.2891807,1.429778 0.8046875,1.945312 C 4.5702164,20.460883 5.2709583,20.75 6,20.75 h 12 c 0.729023,0 1.429772,-0.289147 1.945312,-0.804688 C 20.460853,19.429772 20.75,18.729023 20.75,18 v -2 c 0,-0.729023 -0.289147,-1.429772 -0.804688,-1.945312 C 19.429772,13.539147 18.729023,13.25 18,13.25 Z m 0,1.5 h 12 c 0.331776,0 0.650107,0.130576 0.884766,0.365234 C 19.119424,15.349893 19.25,15.668224 19.25,16 v 2 c 0,0.331776 -0.130576,0.650107 -0.365234,0.884766 C 18.650107,19.119424 18.331776,19.25 18,19.25 H 6 C 5.6681828,19.25 5.3498448,19.119395 5.1152344,18.884766 4.880582,18.650101 4.75,18.331767 4.75,18 v -2 c 0,-0.331767 0.130582,-0.650101 0.3652344,-0.884766 C 5.3498448,14.880605 5.6681828,14.75 6,14.75 Z"
     id="path2" />
</svg>
