<?xml version="1.0" encoding="UTF-8" standalone="no"?>
<svg
   width="24"
   height="24"
   viewBox="0 0 24 24"
   fill="none"
   version="1.1"
   id="svg5"
   sodipodi:docname="library-photo.svg"
   inkscape:version="1.3.2 (091e20e, 2023-11-25)"
   xmlns:inkscape="http://www.inkscape.org/namespaces/inkscape"
   xmlns:sodipodi="http://sodipodi.sourceforge.net/DTD/sodipodi-0.dtd"
   xmlns="http://www.w3.org/2000/svg"
   xmlns:svg="http://www.w3.org/2000/svg">
  <defs
     id="defs5" />
  <sodipodi:namedview
     id="namedview5"
     pagecolor="#505050"
     bordercolor="#eeeeee"
     borderopacity="1"
     inkscape:showpageshadow="0"
     inkscape:pageopacity="0"
     inkscape:pagecheckerboard="0"
     inkscape:deskcolor="#505050"
     inkscape:zoom="9.8333333"
     inkscape:cx="11.949153"
     inkscape:cy="12"
     inkscape:window-width="1504"
     inkscape:window-height="449"
     inkscape:window-x="0"
     inkscape:window-y="25"
     inkscape:window-maximized="0"
     inkscape:current-layer="svg5" />
  <path
     style="color:#000000;fill:#000000;stroke-linecap:round;stroke-linejoin:round;-inkscape-stroke:none"
     d="m 9.6679688,2.25 c -0.9059564,0 -1.7773629,0.3593941 -2.4179688,1 -0.6406059,0.6406059 -1,1.5120124 -1,2.4179687 v 8.6640623 c 0,0.905935 0.3594047,1.777322 1,2.417969 0.6405989,0.640522 1.5120054,1 2.4179688,1 h 8.6640622 c 0.448715,0 0.894078,-0.08812 1.308594,-0.259766 C 20.055324,17.318511 20.43276,17.067112 20.75,16.75 21.067112,16.43276 21.318511,16.055324 21.490234,15.640625 21.661882,15.226109 21.75,14.780746 21.75,14.332031 V 5.6679687 C 21.75,5.2192253 21.66189,4.7738851 21.490234,4.359375 21.318513,3.9447199 21.067169,3.5672326 20.75,3.25 20.432699,2.9327498 20.055221,2.6814847 19.640625,2.5097656 19.226054,2.338057 18.780717,2.25 18.332031,2.25 Z m 0,1.5 h 8.6640622 c 0.251713,0 0.501747,0.050133 0.734375,0.1464844 0.232604,0.096341 0.444949,0.2359931 0.623047,0.4140625 0.178031,0.1780668 0.317784,0.3905626 0.414063,0.6230468 C 20.19986,5.166243 20.25,5.4162329 20.25,5.6679687 v 8.6640623 c 0,0.251685 -0.05013,0.501692 -0.146484,0.734375 -0.09593,0.23166 -0.236885,0.44334 -0.414063,0.621094 -0.178159,0.178087 -0.390547,0.319739 -0.623047,0.416016 C 18.833723,16.199868 18.583716,16.25 18.332031,16.25 H 9.6679688 C 9.1592736,16.25 8.670267,16.04913 8.3105469,15.689453 7.9508231,15.329701 7.75,14.840695 7.75,14.332031 V 5.6679687 C 7.75,5.1592665 7.9508338,4.6702599 8.3105469,4.3105469 8.6702599,3.9508338 9.1592665,3.75 9.6679688,3.75 Z"
     id="path1" />
  <path
     style="color:#000000;fill:#000000;stroke-linecap:round;stroke-linejoin:round;-inkscape-stroke:none"
     d="M 4.2109375,6.5371094 A 0.75,0.75 0 0 0 3.640625,6.6074219 C 3.219289,6.8476161 2.8691447,7.1961667 2.625,7.6152344 2.3808484,8.0342903 2.2511679,8.5091434 2.25,8.9941406 a 0.750075,0.750075 0 0 0 0,0.00195 V 18.996094 c 0,1.509089 1.2409106,2.75 2.75,2.75 h 10 c 0.503333,0 0.9787,-0.147123 1.34375,-0.41211 0.36505,-0.264986 0.612241,-0.61254 0.8125,-0.972656 a 0.75,0.75 0 0 0 -0.291016,-1.019531 0.75,0.75 0 0 0 -1.021484,0.291015 c -0.14174,0.254884 -0.26891,0.407019 -0.380859,0.488282 -0.11195,0.08126 -0.216225,0.125 -0.462891,0.125 H 5 c -0.6909084,0 -1.25,-0.559092 -1.25,-1.25 V 8.9980469 8.9960938 C 3.7508671,8.7757755 3.8089958,8.5595314 3.9199219,8.3691406 4.0311568,8.1782089 4.1908291,8.0215548 4.3828125,7.9121094 a 0.75,0.75 0 0 0 0.28125,-1.0234375 0.75,0.75 0 0 0 -0.453125,-0.3515625 z"
     id="path2" />
  <path
     style="color:#000000;fill:#000000;stroke-linecap:round;stroke-linejoin:round;-inkscape-stroke:none"
     d="M 17,6.25 A 0.75,0.75 0 0 0 16.25,7 0.75,0.75 0 0 0 17,7.75 h 0.0098 a 0.75,0.75 0 0 0 0.75,-0.75 0.75,0.75 0 0 0 -0.75,-0.75 z"
     id="path3" />
  <path
     style="color:#000000;fill:#000000;stroke-linecap:round;stroke-linejoin:round;-inkscape-stroke:none"
     d="m 11.5,8.2519531 c -0.257522,0 -0.512127,0.049855 -0.75,0.1484375 -0.237989,0.09863 -0.454776,0.2437087 -0.636719,0.4257813 L 6.46875,12.46875 a 0.75,0.75 0 0 0 0,1.060547 0.75,0.75 0 0 0 1.0625,0 l 3.642578,-3.6425782 c 0.04286,-0.042887 0.09458,-0.078433 0.150391,-0.1015625 0.05593,-0.023178 0.115303,-0.033203 0.175781,-0.033203 0.06048,0 0.119854,0.010025 0.175781,0.033203 0.05581,0.02313 0.107534,0.058675 0.150391,0.1015625 l 3.642578,3.6425782 a 0.75,0.75 0 0 0 1.0625,0 0.75,0.75 0 0 0 0,-1.060547 L 12.886719,8.8261719 C 12.704776,8.6440993 12.487989,8.4990208 12.25,8.4003906 12.012127,8.3018086 11.757522,8.2519531 11.5,8.2519531 Z"
     id="path4" />
  <path
     style="color:#000000;fill:#000000;stroke-linecap:round;stroke-linejoin:round;-inkscape-stroke:none"
     d="m 17.5,9.2519531 c -0.257427,0 -0.512002,0.049771 -0.75,0.1484375 -0.237847,0.098604 -0.45471,0.2436104 -0.636719,0.4257813 L 14.46875,11.46875 a 0.75,0.75 0 0 0 0,1.060547 0.75,0.75 0 0 0 1.0625,0 l 1.642578,-1.642578 c 0.04279,-0.04283 0.09444,-0.07837 0.150391,-0.101563 0.0558,-0.02313 0.115209,-0.0332 0.175781,-0.0332 0.06057,0 0.119979,0.01007 0.175781,0.0332 0.05595,0.0232 0.1076,0.05873 0.150391,0.101563 l 2.642578,2.642578 a 0.75,0.75 0 0 0 1.0625,0 0.75,0.75 0 0 0 0,-1.060547 L 18.886719,9.8261719 C 18.70471,9.644001 18.487847,9.4989942 18.25,9.4003906 18.012002,9.3017244 17.757427,9.2519531 17.5,9.2519531 Z"
     id="path5" />
</svg>
