<?xml version="1.0" encoding="UTF-8" standalone="no"?>
<svg
   width="24"
   height="24"
   viewBox="0 0 24 24"
   fill="none"
   version="1.1"
   id="svg6"
   sodipodi:docname="list-check.svg"
   inkscape:version="1.3.2 (091e20e, 2023-11-25)"
   xmlns:inkscape="http://www.inkscape.org/namespaces/inkscape"
   xmlns:sodipodi="http://sodipodi.sourceforge.net/DTD/sodipodi-0.dtd"
   xmlns="http://www.w3.org/2000/svg"
   xmlns:svg="http://www.w3.org/2000/svg">
  <defs
     id="defs6" />
  <sodipodi:namedview
     id="namedview6"
     pagecolor="#505050"
     bordercolor="#eeeeee"
     borderopacity="1"
     inkscape:showpageshadow="0"
     inkscape:pageopacity="0"
     inkscape:pagecheckerboard="0"
     inkscape:deskcolor="#505050"
     inkscape:zoom="9.8333333"
     inkscape:cx="11.949153"
     inkscape:cy="12"
     inkscape:window-width="1504"
     inkscape:window-height="449"
     inkscape:window-x="0"
     inkscape:window-y="25"
     inkscape:window-maximized="0"
     inkscape:current-layer="svg6" />
  <path
     style="color:#000000;fill:#000000;stroke-linecap:round;stroke-linejoin:round;-inkscape-stroke:none"
     d="M 7.5,3.75 A 0.75,0.75 0 0 0 6.96875,3.96875 L 5,5.9375 4.03125,4.96875 a 0.75,0.75 0 0 0 -1.0625,0 0.75,0.75 0 0 0 0,1.0625 l 1.5,1.5 a 0.750075,0.750075 0 0 0 1.0625,0 l 2.5,-2.5 a 0.75,0.75 0 0 0 0,-1.0625 A 0.75,0.75 0 0 0 7.5,3.75 Z"
     id="path1" />
  <path
     style="color:#000000;fill:#000000;stroke-linecap:round;stroke-linejoin:round;-inkscape-stroke:none"
     d="M 7.5,9.75 A 0.75,0.75 0 0 0 6.96875,9.96875 L 5,11.9375 4.03125,10.96875 a 0.75,0.75 0 0 0 -1.0625,0 0.75,0.75 0 0 0 0,1.0625 l 1.5,1.5 a 0.750075,0.750075 0 0 0 1.0625,0 l 2.5,-2.5 a 0.75,0.75 0 0 0 0,-1.0625 A 0.75,0.75 0 0 0 7.5,9.75 Z"
     id="path2" />
  <path
     style="color:#000000;fill:#000000;stroke-linecap:round;stroke-linejoin:round;-inkscape-stroke:none"
     d="M 7.5,15.75 A 0.75,0.75 0 0 0 6.96875,15.96875 L 5,17.9375 4.03125,16.96875 a 0.75,0.75 0 0 0 -1.0625,0 0.75,0.75 0 0 0 0,1.0625 l 1.5,1.5 a 0.750075,0.750075 0 0 0 1.0625,0 l 2.5,-2.5 a 0.75,0.75 0 0 0 0,-1.0625 A 0.75,0.75 0 0 0 7.5,15.75 Z"
     id="path3" />
  <path
     style="color:#000000;fill:#000000;stroke-linecap:round;stroke-linejoin:round;-inkscape-stroke:none"
     d="M 11,5.25 A 0.75,0.75 0 0 0 10.25,6 0.75,0.75 0 0 0 11,6.75 h 9 A 0.75,0.75 0 0 0 20.75,6 0.75,0.75 0 0 0 20,5.25 Z"
     id="path4" />
  <path
     style="color:#000000;fill:#000000;stroke-linecap:round;stroke-linejoin:round;-inkscape-stroke:none"
     d="M 11,11.25 A 0.75,0.75 0 0 0 10.25,12 0.75,0.75 0 0 0 11,12.75 h 9 A 0.75,0.75 0 0 0 20.75,12 0.75,0.75 0 0 0 20,11.25 Z"
     id="path5" />
  <path
     style="color:#000000;fill:#000000;stroke-linecap:round;stroke-linejoin:round;-inkscape-stroke:none"
     d="M 11,17.25 A 0.75,0.75 0 0 0 10.25,18 0.75,0.75 0 0 0 11,18.75 h 9 A 0.75,0.75 0 0 0 20.75,18 0.75,0.75 0 0 0 20,17.25 Z"
     id="path6" />
</svg>
