<?xml version="1.0" encoding="UTF-8" standalone="no"?>
<svg
   width="24"
   height="24"
   viewBox="0 0 24 24"
   fill="none"
   version="1.1"
   id="svg6"
   sodipodi:docname="list-details.svg"
   inkscape:version="1.3.2 (091e20e, 2023-11-25)"
   xmlns:inkscape="http://www.inkscape.org/namespaces/inkscape"
   xmlns:sodipodi="http://sodipodi.sourceforge.net/DTD/sodipodi-0.dtd"
   xmlns="http://www.w3.org/2000/svg"
   xmlns:svg="http://www.w3.org/2000/svg">
  <defs
     id="defs6" />
  <sodipodi:namedview
     id="namedview6"
     pagecolor="#505050"
     bordercolor="#eeeeee"
     borderopacity="1"
     inkscape:showpageshadow="0"
     inkscape:pageopacity="0"
     inkscape:pagecheckerboard="0"
     inkscape:deskcolor="#505050"
     inkscape:zoom="9.8333333"
     inkscape:cx="11.949153"
     inkscape:cy="12"
     inkscape:window-width="1504"
     inkscape:window-height="449"
     inkscape:window-x="0"
     inkscape:window-y="25"
     inkscape:window-maximized="0"
     inkscape:current-layer="svg6" />
  <path
     style="color:#000000;fill:#000000;stroke-linecap:round;stroke-linejoin:round;-inkscape-stroke:none"
     d="M 13,4.25 A 0.75,0.75 0 0 0 12.25,5 0.75,0.75 0 0 0 13,5.75 h 8 A 0.75,0.75 0 0 0 21.75,5 0.75,0.75 0 0 0 21,4.25 Z"
     id="path1" />
  <path
     style="color:#000000;fill:#000000;stroke-linecap:round;stroke-linejoin:round;-inkscape-stroke:none"
     d="M 13,8.25 A 0.75,0.75 0 0 0 12.25,9 0.75,0.75 0 0 0 13,9.75 h 5 A 0.75,0.75 0 0 0 18.75,9 0.75,0.75 0 0 0 18,8.25 Z"
     id="path2" />
  <path
     style="color:#000000;fill:#000000;stroke-linecap:round;stroke-linejoin:round;-inkscape-stroke:none"
     d="M 13,14.25 A 0.75,0.75 0 0 0 12.25,15 0.75,0.75 0 0 0 13,15.75 h 8 A 0.75,0.75 0 0 0 21.75,15 0.75,0.75 0 0 0 21,14.25 Z"
     id="path3" />
  <path
     style="color:#000000;fill:#000000;stroke-linecap:round;stroke-linejoin:round;-inkscape-stroke:none"
     d="M 13,18.25 A 0.75,0.75 0 0 0 12.25,19 0.75,0.75 0 0 0 13,19.75 h 5 A 0.75,0.75 0 0 0 18.75,19 0.75,0.75 0 0 0 18,18.25 Z"
     id="path4" />
  <path
     style="color:#000000;fill:#000000;stroke-linecap:round;stroke-linejoin:round;-inkscape-stroke:none"
     d="M 4,3.25 C 3.5361529,3.25 3.089696,3.433759 2.7617188,3.7617188 2.433759,4.089696 2.25,4.5361529 2.25,5 v 4 c 0,0.4638471 0.183759,0.910304 0.5117188,1.238281 C 3.089696,10.566241 3.5361529,10.75 4,10.75 h 4 c 0.4638471,0 0.910304,-0.183759 1.2382813,-0.511719 C 9.566241,9.910304 9.75,9.4638471 9.75,9 V 5 C 9.75,4.5361529 9.566241,4.089696 9.2382813,3.7617188 8.910304,3.433759 8.4638471,3.25 8,3.25 Z m 0,1.5 h 4 c 0.066592,0 0.130632,0.025166 0.1777344,0.072266 C 8.2248342,4.869368 8.25,4.9334076 8.25,5 v 4 c 0,0.066592 -0.025166,0.130632 -0.072266,0.1777344 C 8.130632,9.2248342 8.0665924,9.25 8,9.25 H 4 C 3.9334076,9.25 3.869368,9.2248342 3.8222656,9.1777344 3.7751658,9.130632 3.75,9.0665924 3.75,9 V 5 c 0,-0.066592 0.025166,-0.130632 0.072266,-0.1777344 C 3.869368,4.7751658 3.9334076,4.75 4,4.75 Z"
     id="path5" />
  <path
     style="color:#000000;fill:#000000;stroke-linecap:round;stroke-linejoin:round;-inkscape-stroke:none"
     d="m 4,13.25 c -0.4639225,0 -0.9103464,0.183854 -1.2382812,0.511719 C 2.4336457,14.089739 2.25,14.536158 2.25,15 v 4 c 0,0.463842 0.1836457,0.910261 0.5117188,1.238281 C 3.0896536,20.566146 3.5360775,20.75 4,20.75 h 4 c 0.4639225,0 0.9103464,-0.183854 1.2382813,-0.511719 C 9.5663543,19.910261 9.75,19.463842 9.75,19 V 15 C 9.75,14.536158 9.5663543,14.089739 9.2382813,13.761719 8.9103464,13.433854 8.4639225,13.25 8,13.25 Z m 0,1.5 h 4 c 0.066517,0 0.1305897,0.02708 0.1777344,0.07422 C 8.2247209,14.871198 8.25,14.933443 8.25,15 v 4 c 0,0.06656 -0.025279,0.128802 -0.072266,0.175781 C 8.1305897,19.222916 8.066517,19.25 8,19.25 H 4 c -0.066517,0 -0.1305897,-0.02708 -0.1777344,-0.07422 C 3.7752791,19.128802 3.75,19.066557 3.75,19 v -4 c 0,-0.06656 0.025279,-0.128802 0.072266,-0.175781 C 3.8694103,14.777084 3.933483,14.75 4,14.75 Z"
     id="path6" />
</svg>
