<?xml version="1.0" encoding="UTF-8" standalone="no"?>
<svg
   width="24"
   height="24"
   viewBox="0 0 24 24"
   fill="none"
   version="1.1"
   id="svg5"
   sodipodi:docname="list-search.svg"
   inkscape:version="1.3.2 (091e20e, 2023-11-25)"
   xmlns:inkscape="http://www.inkscape.org/namespaces/inkscape"
   xmlns:sodipodi="http://sodipodi.sourceforge.net/DTD/sodipodi-0.dtd"
   xmlns="http://www.w3.org/2000/svg"
   xmlns:svg="http://www.w3.org/2000/svg">
  <defs
     id="defs5" />
  <sodipodi:namedview
     id="namedview5"
     pagecolor="#505050"
     bordercolor="#eeeeee"
     borderopacity="1"
     inkscape:showpageshadow="0"
     inkscape:pageopacity="0"
     inkscape:pagecheckerboard="0"
     inkscape:deskcolor="#505050"
     inkscape:zoom="9.8333333"
     inkscape:cx="11.949153"
     inkscape:cy="12"
     inkscape:window-width="1504"
     inkscape:window-height="449"
     inkscape:window-x="0"
     inkscape:window-y="25"
     inkscape:window-maximized="0"
     inkscape:current-layer="svg5" />
  <path
     style="color:#000000;fill:#000000;stroke-linecap:round;stroke-linejoin:round;-inkscape-stroke:none"
     d="m 15,10.25 c -1.259504,0 -2.468812,0.499943 -3.359375,1.390625 C 10.749943,12.531188 10.25,13.740496 10.25,15 c 0,1.259504 0.499943,2.468812 1.390625,3.359375 C 12.531188,19.250057 13.740496,19.75 15,19.75 c 1.259504,0 2.468812,-0.499943 3.359375,-1.390625 C 19.250057,17.468812 19.75,16.259504 19.75,15 19.75,13.740496 19.250057,12.531188 18.359375,11.640625 17.468812,10.749943 16.259504,10.25 15,10.25 Z m 0,1.5 c 0.862294,0 1.689192,0.341455 2.298828,0.951172 C 17.908545,13.310808 18.25,14.137706 18.25,15 c 0,0.862294 -0.341455,1.689192 -0.951172,2.298828 C 16.689192,17.908545 15.862294,18.25 15,18.25 14.137706,18.25 13.310808,17.908545 12.701172,17.298828 12.091455,16.689192 11.75,15.862294 11.75,15 c 0,-0.862294 0.341455,-1.689192 0.951172,-2.298828 C 13.310808,12.091455 14.137706,11.75 15,11.75 Z"
     id="path1" />
  <path
     style="color:#000000;fill:#000000;stroke-linecap:round;stroke-linejoin:round;-inkscape-stroke:none"
     d="m 18.5,17.75 a 0.75,0.75 0 0 0 -0.53125,0.21875 0.75,0.75 0 0 0 0,1.0625 l 2.5,2.5 a 0.75,0.75 0 0 0 1.0625,0 0.75,0.75 0 0 0 0,-1.0625 l -2.5,-2.5 A 0.75,0.75 0 0 0 18.5,17.75 Z"
     id="path2" />
  <path
     style="color:#000000;fill:#000000;stroke-linecap:round;stroke-linejoin:round;-inkscape-stroke:none"
     d="M 4,5.25 A 0.75,0.75 0 0 0 3.25,6 0.75,0.75 0 0 0 4,6.75 H 20 A 0.75,0.75 0 0 0 20.75,6 0.75,0.75 0 0 0 20,5.25 Z"
     id="path3" />
  <path
     style="color:#000000;fill:#000000;stroke-linecap:round;stroke-linejoin:round;-inkscape-stroke:none"
     d="M 4,11.25 A 0.75,0.75 0 0 0 3.25,12 0.75,0.75 0 0 0 4,12.75 H 8 A 0.75,0.75 0 0 0 8.75,12 0.75,0.75 0 0 0 8,11.25 Z"
     id="path4" />
  <path
     style="color:#000000;fill:#000000;stroke-linecap:round;stroke-linejoin:round;-inkscape-stroke:none"
     d="M 4,17.25 A 0.75,0.75 0 0 0 3.25,18 0.75,0.75 0 0 0 4,18.75 H 8 A 0.75,0.75 0 0 0 8.75,18 0.75,0.75 0 0 0 8,17.25 Z"
     id="path5" />
</svg>
