<?xml version="1.0" encoding="UTF-8" standalone="no"?>
<svg
   width="24"
   height="24"
   viewBox="0 0 24 24"
   fill="none"
   version="1.1"
   id="svg3"
   sodipodi:docname="location-x.svg"
   inkscape:version="1.3.2 (091e20e, 2023-11-25)"
   xmlns:inkscape="http://www.inkscape.org/namespaces/inkscape"
   xmlns:sodipodi="http://sodipodi.sourceforge.net/DTD/sodipodi-0.dtd"
   xmlns="http://www.w3.org/2000/svg"
   xmlns:svg="http://www.w3.org/2000/svg">
  <defs
     id="defs3" />
  <sodipodi:namedview
     id="namedview3"
     pagecolor="#505050"
     bordercolor="#eeeeee"
     borderopacity="1"
     inkscape:showpageshadow="0"
     inkscape:pageopacity="0"
     inkscape:pagecheckerboard="0"
     inkscape:deskcolor="#505050"
     inkscape:zoom="9.8333333"
     inkscape:cx="11.949153"
     inkscape:cy="12"
     inkscape:window-width="1504"
     inkscape:window-height="449"
     inkscape:window-x="0"
     inkscape:window-y="25"
     inkscape:window-maximized="0"
     inkscape:current-layer="svg3" />
  <path
     style="color:#000000;fill:#000000;stroke-linecap:round;stroke-linejoin:round;-inkscape-stroke:none"
     d="m 20.746094,2.2949219 -18.0000002,6.5 A 0.750075,0.750075 0 0 0 2.6875,8.8183594 C 2.4612515,8.922031 2.2691963,9.0893355 2.1347656,9.2988281 2.0003304,9.5083041 1.9296875,9.7511652 1.9296875,10 c 0,0.248842 0.070824,0.491813 0.2050781,0.701172 a 0.750075,0.750075 0 0 0 0,0.002 c 0.1344815,0.209477 0.326789,0.374912 0.5527344,0.478516 l 6.7539063,3.376953 2.7832027,5.568359 a 0.75,0.75 0 0 0 1.00586,0.335938 0.75,0.75 0 0 0 0.335937,-1.00586 L 10.669922,13.664063 A 0.750075,0.750075 0 0 0 10.335938,13.330078 L 3.7363281,10.03125 19.751953,4.2480469 16.806641,12.402344 a 0.75,0.75 0 0 0 0.451171,0.960937 0.75,0.75 0 0 0 0.960938,-0.451172 L 21.705078,3.2539063 A 0.750075,0.750075 0 0 0 20.746094,2.2949219 Z"
     id="path1" />
  <path
     style="color:#000000;fill:#000000;stroke-linecap:round;stroke-linejoin:round;-inkscape-stroke:none"
     d="m 16.5,15.75 a 0.75,0.75 0 0 0 -0.53125,0.21875 0.75,0.75 0 0 0 0,1.0625 l 5,5 a 0.75,0.75 0 0 0 1.0625,0 0.75,0.75 0 0 0 0,-1.0625 l -5,-5 A 0.75,0.75 0 0 0 16.5,15.75 Z"
     id="path2" />
  <path
     style="color:#000000;fill:#000000;stroke-linecap:round;stroke-linejoin:round;-inkscape-stroke:none"
     d="m 21.5,15.75 a 0.75,0.75 0 0 0 -0.53125,0.21875 l -5,5 a 0.75,0.75 0 0 0 0,1.0625 0.75,0.75 0 0 0 1.0625,0 l 5,-5 a 0.75,0.75 0 0 0 0,-1.0625 A 0.75,0.75 0 0 0 21.5,15.75 Z"
     id="path3" />
</svg>
