<?xml version="1.0" encoding="UTF-8" standalone="no"?>
<svg
   width="24"
   height="24"
   viewBox="0 0 24 24"
   fill="none"
   version="1.1"
   id="svg2"
   sodipodi:docname="location-off.svg"
   inkscape:version="1.3.2 (091e20e, 2023-11-25)"
   xmlns:inkscape="http://www.inkscape.org/namespaces/inkscape"
   xmlns:sodipodi="http://sodipodi.sourceforge.net/DTD/sodipodi-0.dtd"
   xmlns="http://www.w3.org/2000/svg"
   xmlns:svg="http://www.w3.org/2000/svg">
  <defs
     id="defs2" />
  <sodipodi:namedview
     id="namedview2"
     pagecolor="#505050"
     bordercolor="#eeeeee"
     borderopacity="1"
     inkscape:showpageshadow="0"
     inkscape:pageopacity="0"
     inkscape:pagecheckerboard="0"
     inkscape:deskcolor="#505050"
     inkscape:zoom="9.8333333"
     inkscape:cx="11.949153"
     inkscape:cy="12"
     inkscape:window-width="1504"
     inkscape:window-height="449"
     inkscape:window-x="0"
     inkscape:window-y="25"
     inkscape:window-maximized="0"
     inkscape:current-layer="svg2" />
  <path
     style="color:#000000;fill:#000000;stroke-linecap:round;stroke-linejoin:round;-inkscape-stroke:none"
     d="m 20.746094,2.2949219 -10.28125,3.7109375 a 0.75,0.75 0 0 0 -0.451172,0.9609375 0.75,0.75 0 0 0 0.960937,0.4511718 l 8.777344,-3.1699218 -3.181641,8.8105471 a 0.75,0.75 0 0 0 0.451172,0.958984 0.75,0.75 0 0 0 0.958985,-0.449219 L 21.705078,3.2539063 A 0.750075,0.750075 0 0 0 20.746094,2.2949219 Z M 7.5195312,7.0703125 2.7460938,8.7949219 A 0.750075,0.750075 0 0 0 2.6875,8.8183594 C 2.4612515,8.922031 2.2691963,9.0893355 2.1347656,9.2988281 2.0003304,9.5083041 1.9296875,9.7511652 1.9296875,10 c 0,0.248842 0.070824,0.491813 0.2050781,0.701172 a 0.750075,0.750075 0 0 0 0,0.002 c 0.1344815,0.209477 0.326789,0.374912 0.5527344,0.478516 l 6.7539063,3.376953 3.3867187,6.777343 -0.0098,-0.02344 c 0.103743,0.226155 0.269144,0.418273 0.478516,0.552734 a 0.750075,0.750075 0 0 0 0.002,0 c 0.209126,0.134068 0.451998,0.205078 0.701172,0.205078 0.249138,0 0.492046,-0.07101 0.701172,-0.205078 a 0.750075,0.750075 0 0 0 0.002,0 c 0.209372,-0.134461 0.374786,-0.326091 0.478516,-0.552734 a 0.750075,0.750075 0 0 0 0.02344,-0.05859 l 1.720703,-4.761719 a 0.75,0.75 0 0 0 -0.451172,-0.958984 0.75,0.75 0 0 0 -0.960937,0.449219 l -1.544922,4.28125 -3.298828,-6.599609 A 0.750075,0.750075 0 0 0 10.335938,13.330078 L 3.7363281,10.03125 8.0292969,8.4804688 A 0.75,0.75 0 0 0 8.4804688,7.5214844 0.75,0.75 0 0 0 7.5195312,7.0703125 Z"
     id="path1" />
  <path
     style="color:#000000;fill:#000000;stroke-linecap:round;stroke-linejoin:round;-inkscape-stroke:none"
     d="m 3,2.25 a 0.75,0.75 0 0 0 -0.53125,0.21875 0.75,0.75 0 0 0 0,1.0625 l 18,18 a 0.75,0.75 0 0 0 1.0625,0 0.75,0.75 0 0 0 0,-1.0625 l -18,-18 A 0.75,0.75 0 0 0 3,2.25 Z"
     id="path2" />
</svg>
