<?xml version="1.0" encoding="UTF-8" standalone="no"?>
<svg
   width="24"
   height="24"
   viewBox="0 0 24 24"
   fill="none"
   version="1.1"
   id="svg3"
   sodipodi:docname="lock.svg"
   inkscape:version="1.3.2 (091e20e, 2023-11-25)"
   xmlns:inkscape="http://www.inkscape.org/namespaces/inkscape"
   xmlns:sodipodi="http://sodipodi.sourceforge.net/DTD/sodipodi-0.dtd"
   xmlns="http://www.w3.org/2000/svg"
   xmlns:svg="http://www.w3.org/2000/svg">
  <defs
     id="defs3" />
  <sodipodi:namedview
     id="namedview3"
     pagecolor="#505050"
     bordercolor="#eeeeee"
     borderopacity="1"
     inkscape:showpageshadow="0"
     inkscape:pageopacity="0"
     inkscape:pagecheckerboard="0"
     inkscape:deskcolor="#505050"
     inkscape:zoom="9.8333333"
     inkscape:cx="11.949153"
     inkscape:cy="12"
     inkscape:window-width="1504"
     inkscape:window-height="449"
     inkscape:window-x="0"
     inkscape:window-y="25"
     inkscape:window-maximized="0"
     inkscape:current-layer="svg3" />
  <path
     style="color:#000000;fill:#000000;stroke-linecap:round;stroke-linejoin:round;-inkscape-stroke:none"
     d="m 7,10.25 c -0.7290417,0 -1.4297836,0.289117 -1.9453125,0.804688 C 4.5391807,11.570222 4.25,12.270968 4.25,13 v 6 c 0,0.729032 0.2891807,1.429778 0.8046875,1.945312 C 5.5702164,21.460883 6.2709583,21.75 7,21.75 h 10 c 0.729023,0 1.429772,-0.289147 1.945312,-0.804688 C 19.460853,20.429772 19.75,19.729023 19.75,19 v -6 c 0,-0.729023 -0.289147,-1.429772 -0.804688,-1.945312 C 18.429772,10.539147 17.729023,10.25 17,10.25 Z m 0,1.5 h 10 c 0.331776,0 0.650107,0.130576 0.884766,0.365234 C 18.119424,12.349893 18.25,12.668224 18.25,13 v 6 c 0,0.331776 -0.130576,0.650107 -0.365234,0.884766 C 17.650107,20.119424 17.331776,20.25 17,20.25 H 7 C 6.6681828,20.25 6.3498448,20.119395 6.1152344,19.884766 5.880582,19.650101 5.75,19.331767 5.75,19 v -6 c 0,-0.331767 0.130582,-0.650101 0.3652344,-0.884766 C 6.3498448,11.880605 6.6681828,11.75 7,11.75 Z"
     id="path1" />
  <path
     style="color:#000000;fill:#000000;stroke-linecap:round;stroke-linejoin:round;-inkscape-stroke:none"
     d="m 12,14.25 c -0.463917,0 -0.910303,0.183741 -1.238281,0.511719 C 10.433741,15.089697 10.25,15.536083 10.25,16 c 0,0.463917 0.183741,0.910303 0.511719,1.238281 C 11.089697,17.566259 11.536083,17.75 12,17.75 c 0.463917,0 0.910303,-0.183741 1.238281,-0.511719 C 13.566259,16.910303 13.75,16.463917 13.75,16 13.75,15.536083 13.566259,15.089697 13.238281,14.761719 12.910303,14.433741 12.463917,14.25 12,14.25 Z m 0,1.5 c 0.06648,0 0.130713,0.02524 0.177734,0.07227 C 12.224756,15.869287 12.25,15.933518 12.25,16 c 0,0.06648 -0.02524,0.130713 -0.07227,0.177734 C 12.130713,16.224756 12.066482,16.25 12,16.25 c -0.06648,0 -0.130713,-0.02524 -0.177734,-0.07227 C 11.775244,16.130713 11.75,16.066482 11.75,16 c 0,-0.06648 0.02524,-0.130713 0.07227,-0.177734 C 11.869287,15.775244 11.933518,15.75 12,15.75 Z"
     id="path2" />
  <path
     style="color:#000000;fill:#000000;stroke-linecap:round;stroke-linejoin:round;-inkscape-stroke:none"
     d="M 12,2.25 C 10.740482,2.25 9.5312124,2.7500495 8.640625,3.640625 7.7500424,4.5312195 7.25,5.7405065 7.25,7 v 4 A 0.75,0.75 0 0 0 8,11.75 0.75,0.75 0 0 0 8.75,11 V 7 C 8.75,6.1377556 9.091476,5.3108759 9.7011719,4.7011719 10.310883,4.0914689 11.13772,3.75 12,3.75 c 0.86228,0 1.689183,0.3414943 2.298828,0.9511719 C 14.908563,5.3108665 15.25,6.1377414 15.25,7 v 4 A 0.75,0.75 0 0 0 16,11.75 0.75,0.75 0 0 0 16.75,11 V 7 C 16.75,5.7405207 16.250038,4.5312289 15.359375,3.640625 14.468822,2.7500241 13.259518,2.25 12,2.25 Z"
     id="path3" />
</svg>
