<?xml version="1.0" encoding="UTF-8" standalone="no"?>
<svg
   width="24"
   height="24"
   viewBox="0 0 24 24"
   fill="none"
   version="1.1"
   id="svg6"
   sodipodi:docname="lock-access.svg"
   inkscape:version="1.3.2 (091e20e, 2023-11-25)"
   xmlns:inkscape="http://www.inkscape.org/namespaces/inkscape"
   xmlns:sodipodi="http://sodipodi.sourceforge.net/DTD/sodipodi-0.dtd"
   xmlns="http://www.w3.org/2000/svg"
   xmlns:svg="http://www.w3.org/2000/svg">
  <defs
     id="defs6" />
  <sodipodi:namedview
     id="namedview6"
     pagecolor="#505050"
     bordercolor="#eeeeee"
     borderopacity="1"
     inkscape:showpageshadow="0"
     inkscape:pageopacity="0"
     inkscape:pagecheckerboard="0"
     inkscape:deskcolor="#505050"
     inkscape:zoom="9.8333333"
     inkscape:cx="11.949153"
     inkscape:cy="12"
     inkscape:window-width="1504"
     inkscape:window-height="449"
     inkscape:window-x="0"
     inkscape:window-y="25"
     inkscape:window-maximized="0"
     inkscape:current-layer="svg6" />
  <path
     style="color:#000000;fill:#000000;stroke-linecap:round;stroke-linejoin:round;-inkscape-stroke:none"
     d="M 6,3.25 C 5.2709489,3.25 4.5702101,3.5391512 4.0546875,4.0546875 3.5391512,4.5702101 3.25,5.2709489 3.25,6 V 8 A 0.75,0.75 0 0 0 4,8.75 0.75,0.75 0 0 0 4.75,8 V 6 C 4.75,5.6681922 4.8806115,5.349851 5.1152344,5.1152344 5.349851,4.8806115 5.6681922,4.75 6,4.75 H 8 A 0.75,0.75 0 0 0 8.75,4 0.75,0.75 0 0 0 8,3.25 Z"
     id="path1" />
  <path
     style="color:#000000;fill:#000000;stroke-linecap:round;stroke-linejoin:round;-inkscape-stroke:none"
     d="M 4,15.25 A 0.75,0.75 0 0 0 3.25,16 v 2 c 0,0.729032 0.2891807,1.429778 0.8046875,1.945312 C 4.5702164,20.460883 5.2709583,20.75 6,20.75 H 8 A 0.75,0.75 0 0 0 8.75,20 0.75,0.75 0 0 0 8,19.25 H 6 C 5.6681828,19.25 5.3498448,19.119395 5.1152344,18.884766 4.880582,18.650101 4.75,18.331767 4.75,18 V 16 A 0.75,0.75 0 0 0 4,15.25 Z"
     id="path2" />
  <path
     style="color:#000000;fill:#000000;stroke-linecap:round;stroke-linejoin:round;-inkscape-stroke:none"
     d="M 16,3.25 A 0.75,0.75 0 0 0 15.25,4 0.75,0.75 0 0 0 16,4.75 h 2 c 0.331767,0 0.650101,0.130582 0.884766,0.3652344 C 19.119395,5.3498448 19.25,5.6681828 19.25,6 V 8 A 0.75,0.75 0 0 0 20,8.75 0.75,0.75 0 0 0 20.75,8 V 6 C 20.75,5.2709583 20.460883,4.5702164 19.945312,4.0546875 19.429778,3.5391807 18.729032,3.25 18,3.25 Z"
     id="path3" />
  <path
     style="color:#000000;fill:#000000;stroke-linecap:round;stroke-linejoin:round;-inkscape-stroke:none"
     d="M 20,15.25 A 0.75,0.75 0 0 0 19.25,16 v 2 c 0,0.331776 -0.130576,0.650107 -0.365234,0.884766 C 18.650107,19.119424 18.331776,19.25 18,19.25 H 16 A 0.75,0.75 0 0 0 15.25,20 0.75,0.75 0 0 0 16,20.75 h 2 c 0.729023,0 1.429772,-0.289147 1.945312,-0.804688 C 20.460853,19.429772 20.75,18.729023 20.75,18 V 16 A 0.75,0.75 0 0 0 20,15.25 Z"
     id="path4" />
  <path
     style="color:#000000;fill:#000000;stroke-linecap:round;stroke-linejoin:round;-inkscape-stroke:none"
     d="m 9,10.25 c -0.4639225,0 -0.9103464,0.183854 -1.2382813,0.511719 C 7.4336457,11.089739 7.25,11.536158 7.25,12 v 3 c 0,0.463842 0.1836457,0.910261 0.5117187,1.238281 C 8.0896536,16.566146 8.5360775,16.75 9,16.75 h 6 c 0.463917,0 0.910303,-0.183741 1.238281,-0.511719 C 16.566259,15.910303 16.75,15.463917 16.75,15 v -3 c 0,-0.463917 -0.183741,-0.910303 -0.511719,-1.238281 C 15.910303,10.433741 15.463917,10.25 15,10.25 Z m 0,1.5 h 6 c 0.06648,0 0.130713,0.02524 0.177734,0.07227 C 15.224756,11.869287 15.25,11.933518 15.25,12 v 3 c 0,0.06648 -0.02524,0.130713 -0.07227,0.177734 C 15.130713,15.224756 15.066482,15.25 15,15.25 H 9 c -0.066517,0 -0.1305897,-0.02708 -0.1777344,-0.07422 C 8.7752791,15.128802 8.75,15.066557 8.75,15 v -3 c 0,-0.06656 0.025279,-0.128802 0.072266,-0.175781 C 8.8694103,11.777084 8.933483,11.75 9,11.75 Z"
     id="path5" />
  <path
     style="color:#000000;fill:#000000;stroke-linecap:round;stroke-linejoin:round;-inkscape-stroke:none"
     d="m 12,6.25 c -0.729032,0 -1.429778,0.2891807 -1.945312,0.8046875 C 9.5391174,7.5702164 9.25,8.2709583 9.25,9 v 2 A 0.75,0.75 0 0 0 10,11.75 0.75,0.75 0 0 0 10.75,11 V 9 c 0,-0.3318172 0.130605,-0.6501552 0.365234,-0.8847656 C 11.349899,7.880582 11.668233,7.75 12,7.75 c 0.331767,0 0.650101,0.130582 0.884766,0.3652344 C 13.119395,8.3498448 13.25,8.6681828 13.25,9 v 2 A 0.75,0.75 0 0 0 14,11.75 0.75,0.75 0 0 0 14.75,11 V 9 C 14.75,8.2709583 14.460883,7.5702164 13.945313,7.0546875 13.429778,6.5391807 12.729032,6.25 12,6.25 Z"
     id="path6" />
</svg>
