<?xml version="1.0" encoding="UTF-8" standalone="no"?>
<svg
   width="24"
   height="24"
   viewBox="0 0 24 24"
   fill="none"
   version="1.1"
   id="svg3"
   sodipodi:docname="login.svg"
   inkscape:version="1.3.2 (091e20e, 2023-11-25)"
   xmlns:inkscape="http://www.inkscape.org/namespaces/inkscape"
   xmlns:sodipodi="http://sodipodi.sourceforge.net/DTD/sodipodi-0.dtd"
   xmlns="http://www.w3.org/2000/svg"
   xmlns:svg="http://www.w3.org/2000/svg">
  <defs
     id="defs3" />
  <sodipodi:namedview
     id="namedview3"
     pagecolor="#505050"
     bordercolor="#eeeeee"
     borderopacity="1"
     inkscape:showpageshadow="0"
     inkscape:pageopacity="0"
     inkscape:pagecheckerboard="0"
     inkscape:deskcolor="#505050"
     inkscape:zoom="9.8333333"
     inkscape:cx="11.949153"
     inkscape:cy="12"
     inkscape:window-width="1504"
     inkscape:window-height="449"
     inkscape:window-x="0"
     inkscape:window-y="25"
     inkscape:window-maximized="0"
     inkscape:current-layer="svg3" />
  <path
     style="color:#000000;fill:#000000;stroke-linecap:round;stroke-linejoin:round;-inkscape-stroke:none"
     d="M 6,3.25 C 5.2709489,3.25 4.5702101,3.5391512 4.0546875,4.0546875 3.5391512,4.5702101 3.25,5.2709489 3.25,6 v 12 c 0,0.729032 0.2891807,1.429778 0.8046875,1.945312 C 4.5702164,20.460883 5.2709583,20.75 6,20.75 h 7 c 0.729023,0 1.429772,-0.289147 1.945313,-0.804688 C 15.460853,19.429772 15.75,18.729023 15.75,18 V 16 A 0.75,0.75 0 0 0 15,15.25 0.75,0.75 0 0 0 14.25,16 v 2 c 0,0.331776 -0.130576,0.650107 -0.365234,0.884766 C 13.650107,19.119424 13.331776,19.25 13,19.25 H 6 C 5.6681828,19.25 5.3498448,19.119395 5.1152344,18.884766 4.880582,18.650101 4.75,18.331767 4.75,18 V 6 C 4.75,5.6681922 4.8806115,5.349851 5.1152344,5.1152344 5.349851,4.8806115 5.6681922,4.75 6,4.75 h 7 c 0.331767,0 0.650101,0.130582 0.884766,0.3652344 C 14.119395,5.3498448 14.25,5.6681828 14.25,6 V 8 A 0.75,0.75 0 0 0 15,8.75 0.75,0.75 0 0 0 15.75,8 V 6 C 15.75,5.2709583 15.460883,4.5702164 14.945313,4.0546875 14.429778,3.5391807 13.729032,3.25 13,3.25 Z"
     id="path1" />
  <path
     style="color:#000000;fill:#000000;stroke-linecap:round;stroke-linejoin:round;-inkscape-stroke:none"
     d="m 11,8.25 a 0.75,0.75 0 0 0 -0.53125,0.21875 l -3,3 A 0.750075,0.750075 0 0 0 8,12.75 H 21 A 0.75,0.75 0 0 0 21.75,12 0.75,0.75 0 0 0 21,11.25 H 9.8125 l 1.71875,-1.71875 a 0.75,0.75 0 0 0 0,-1.0625 A 0.75,0.75 0 0 0 11,8.25 Z"
     id="path2" />
  <path
     style="color:#000000;fill:#000000;stroke-linecap:round;stroke-linejoin:round;-inkscape-stroke:none"
     d="m 8,11.25 a 0.75,0.75 0 0 0 -0.53125,0.21875 0.75,0.75 0 0 0 0,1.0625 l 3,3 a 0.75,0.75 0 0 0 1.0625,0 0.75,0.75 0 0 0 0,-1.0625 l -3,-3 A 0.75,0.75 0 0 0 8,11.25 Z"
     id="path3" />
</svg>
