<?xml version="1.0" encoding="UTF-8" standalone="no"?>
<svg
   width="24"
   height="24"
   viewBox="0 0 24 24"
   fill="none"
   version="1.1"
   id="svg4"
   sodipodi:docname="map-pin-x.svg"
   inkscape:version="1.3.2 (091e20e, 2023-11-25)"
   xmlns:inkscape="http://www.inkscape.org/namespaces/inkscape"
   xmlns:sodipodi="http://sodipodi.sourceforge.net/DTD/sodipodi-0.dtd"
   xmlns="http://www.w3.org/2000/svg"
   xmlns:svg="http://www.w3.org/2000/svg">
  <defs
     id="defs4" />
  <sodipodi:namedview
     id="namedview4"
     pagecolor="#505050"
     bordercolor="#eeeeee"
     borderopacity="1"
     inkscape:showpageshadow="0"
     inkscape:pageopacity="0"
     inkscape:pagecheckerboard="0"
     inkscape:deskcolor="#505050"
     inkscape:zoom="9.8333333"
     inkscape:cx="11.949153"
     inkscape:cy="12"
     inkscape:window-width="1504"
     inkscape:window-height="449"
     inkscape:window-x="0"
     inkscape:window-y="25"
     inkscape:window-maximized="0"
     inkscape:current-layer="svg4" />
  <path
     style="color:#000000;fill:#000000;stroke-linecap:round;stroke-linejoin:round;-inkscape-stroke:none"
     d="M 12,7.25 C 11.005765,7.25 10.050733,7.644592 9.3476563,8.3476563 8.6445833,9.0507292 8.25,10.005765 8.25,11 c 0,0.994235 0.3945809,1.949281 1.0976563,2.652344 C 10.050723,14.355386 11.005746,14.75 12,14.75 c 0.994254,0 1.949291,-0.394603 2.652344,-1.097656 C 15.355397,12.949291 15.75,11.994254 15.75,11 15.75,10.005746 15.355394,9.0507193 14.652344,8.3476563 13.949281,7.6445809 12.994235,7.25 12,7.25 Z m 0,1.5 c 0.596963,0 1.169661,0.2360596 1.591797,0.6582031 C 14.013945,9.830359 14.25,10.403056 14.25,11 c 0,0.596944 -0.236057,1.169651 -0.658203,1.591797 C 13.169651,13.013943 12.596944,13.25 12,13.25 11.403056,13.25 10.830375,13.013954 10.408203,12.591797 9.9860596,12.169661 9.75,11.596963 9.75,11 9.75,10.403037 9.9860572,9.8303491 10.408203,9.4082031 10.830365,8.9860485 11.403037,8.75 12,8.75 Z"
     id="path1" />
  <path
     style="color:#000000;fill:#000000;stroke-linecap:round;stroke-linejoin:round;-inkscape-stroke:none"
     d="m 12.533203,2.2675781 c -0.77939,-0.047376 -1.565029,0.00934 -2.335937,0.171875 C 8.6554386,2.7645284 7.228811,3.5002894 6.0703125,4.5683594 4.9118166,5.6364378 4.0642615,6.9974168 3.6152344,8.5078125 3.1661994,10.018231 3.1326941,11.622904 3.5195313,13.150391 3.9063791,14.677876 4.6986645,16.072975 5.8125,17.1875 l 4.244141,4.242187 c 0.432471,0.432334 0.996678,0.709543 1.603515,0.785157 0.606716,0.07575 1.222591,-0.05428 1.748047,-0.367188 a 0.75,0.75 0 0 0 0.259766,-1.027344 0.75,0.75 0 0 0 -1.027344,-0.261718 c -0.238943,0.14229 -0.519039,0.202415 -0.794922,0.167968 -0.275962,-0.03439 -0.531787,-0.160756 -0.728515,-0.357421 L 6.8730469,16.126953 C 5.9501444,15.20348 5.2951609,14.046962 4.9746094,12.78125 4.6540672,11.515539 4.6806502,10.187126 5.0527344,8.9355469 5.4248065,7.6840053 6.1279286,6.5569146 7.0878906,5.671875 8.04785,4.7868469 9.2282692,4.1775673 10.505859,3.9082031 c 1.277581,-0.269364 2.604319,-0.1897029 3.839844,0.2324219 1.235619,0.4221261 2.333926,1.171204 3.179688,2.1660156 0.845649,0.9947773 1.407218,2.1989143 1.625,3.4863282 0.217776,1.2873612 0.08285,2.6087172 -0.388672,3.8261722 a 0.75,0.75 0 0 0 0.429687,0.970703 0.75,0.75 0 0 0 0.970703,-0.427735 C 20.731187,12.692767 20.89173,11.096625 20.628906,9.5429688 20.366089,7.9893255 19.688518,6.5345049 18.667969,5.3339844 17.647332,4.1334782 16.321256,3.2320892 14.830078,2.7226563 14.084542,2.4679391 13.312593,2.3149546 12.533203,2.2675781 Z"
     id="path2" />
  <path
     style="color:#000000;fill:#000000;stroke-linecap:round;stroke-linejoin:round;-inkscape-stroke:none"
     d="m 17,16.25 a 0.75,0.75 0 0 0 -0.53125,0.21875 0.75,0.75 0 0 0 0,1.0625 l 5,5 a 0.75,0.75 0 0 0 1.0625,0 0.75,0.75 0 0 0 0,-1.0625 l -5,-5 A 0.75,0.75 0 0 0 17,16.25 Z"
     id="path3" />
  <path
     style="color:#000000;fill:#000000;stroke-linecap:round;stroke-linejoin:round;-inkscape-stroke:none"
     d="m 22,16.25 a 0.75,0.75 0 0 0 -0.53125,0.21875 l -5,5 a 0.75,0.75 0 0 0 0,1.0625 0.75,0.75 0 0 0 1.0625,0 l 5,-5 a 0.75,0.75 0 0 0 0,-1.0625 A 0.75,0.75 0 0 0 22,16.25 Z"
     id="path4" />
</svg>
