<?xml version="1.0" encoding="UTF-8" standalone="no"?>
<svg
   width="24"
   height="24"
   viewBox="0 0 24 24"
   fill="none"
   version="1.1"
   id="svg5"
   sodipodi:docname="map-search.svg"
   inkscape:version="1.3.2 (091e20e, 2023-11-25)"
   xmlns:inkscape="http://www.inkscape.org/namespaces/inkscape"
   xmlns:sodipodi="http://sodipodi.sourceforge.net/DTD/sodipodi-0.dtd"
   xmlns="http://www.w3.org/2000/svg"
   xmlns:svg="http://www.w3.org/2000/svg">
  <defs
     id="defs5" />
  <sodipodi:namedview
     id="namedview5"
     pagecolor="#505050"
     bordercolor="#eeeeee"
     borderopacity="1"
     inkscape:showpageshadow="0"
     inkscape:pageopacity="0"
     inkscape:pagecheckerboard="0"
     inkscape:deskcolor="#505050"
     inkscape:zoom="9.8333333"
     inkscape:cx="11.949153"
     inkscape:cy="12"
     inkscape:window-width="1504"
     inkscape:window-height="449"
     inkscape:window-x="0"
     inkscape:window-y="25"
     inkscape:window-maximized="0"
     inkscape:current-layer="svg5" />
  <path
     style="color:#000000;fill:#000000;stroke-linecap:round;stroke-linejoin:round;-inkscape-stroke:none"
     d="m 8.6640625,3.3300781 -6,3 A 0.750075,0.750075 0 0 0 2.25,7 v 13 a 0.750075,0.750075 0 0 0 1.0859375,0.669922 L 9,17.837891 l 1.664063,0.832031 a 0.75,0.75 0 0 0 1.005859,-0.333985 0.75,0.75 0 0 0 -0.333984,-1.005859 l -2.0000005,-1 a 0.750075,0.750075 0 0 0 -0.671875,0 L 3.75,18.787109 V 7.4628906 l 5.25,-2.625 5.664063,2.8320313 a 0.750075,0.750075 0 0 0 0.671875,0 L 20.25,5.2128906 V 11.5 A 0.75,0.75 0 0 0 21,12.25 0.75,0.75 0 0 0 21.75,11.5 V 4 A 0.750075,0.750075 0 0 0 20.664062,3.3300781 L 15,6.1621094 9.3359375,3.3300781 a 0.750075,0.750075 0 0 0 -0.671875,0 z"
     id="path1" />
  <path
     style="color:#000000;fill:#000000;stroke-linecap:round;stroke-linejoin:round;-inkscape-stroke:none"
     d="M 9,3.25 A 0.75,0.75 0 0 0 8.25,4 V 17 A 0.75,0.75 0 0 0 9,17.75 0.75,0.75 0 0 0 9.75,17 V 4 A 0.75,0.75 0 0 0 9,3.25 Z"
     id="path2" />
  <path
     style="color:#000000;fill:#000000;stroke-linecap:round;stroke-linejoin:round;-inkscape-stroke:none"
     d="M 15,6.25 A 0.75,0.75 0 0 0 14.25,7 v 5 A 0.75,0.75 0 0 0 15,12.75 0.75,0.75 0 0 0 15.75,12 V 7 A 0.75,0.75 0 0 0 15,6.25 Z"
     id="path3" />
  <path
     style="color:#000000;fill:#000000;stroke-linecap:round;stroke-linejoin:round;-inkscape-stroke:none"
     d="m 18,14.25 c -0.994254,0 -1.949291,0.394603 -2.652344,1.097656 C 14.644603,16.050709 14.25,17.005746 14.25,18 c 0,0.994254 0.394603,1.949291 1.097656,2.652344 C 16.050709,21.355397 17.005746,21.75 18,21.75 c 0.994254,0 1.949291,-0.394603 2.652344,-1.097656 C 21.355397,19.949291 21.75,18.994254 21.75,18 21.75,17.005746 21.355397,16.050709 20.652344,15.347656 19.949291,14.644603 18.994254,14.25 18,14.25 Z m 0,1.5 c 0.596944,0 1.169651,0.236057 1.591797,0.658203 C 20.013943,16.830349 20.25,17.403056 20.25,18 c 0,0.596944 -0.236057,1.169651 -0.658203,1.591797 C 19.169651,20.013943 18.596944,20.25 18,20.25 17.403056,20.25 16.830349,20.013943 16.408203,19.591797 15.986057,19.169651 15.75,18.596944 15.75,18 c 0,-0.596944 0.236057,-1.169651 0.658203,-1.591797 C 16.830349,15.986057 17.403056,15.75 18,15.75 Z"
     id="path4" />
  <path
     style="color:#000000;fill:#000000;stroke-linecap:round;stroke-linejoin:round;-inkscape-stroke:none"
     d="m 20.199219,19.451172 a 0.75,0.75 0 0 0 -0.529297,0.21875 0.75,0.75 0 0 0 0,1.060547 l 1.798828,1.800781 a 0.75,0.75 0 0 0 1.0625,0 0.75,0.75 0 0 0 0,-1.060547 l -1.800781,-1.800781 a 0.75,0.75 0 0 0 -0.53125,-0.21875 z"
     id="path5" />
</svg>
