<?xml version="1.0" encoding="UTF-8" standalone="no"?>
<svg
   width="24"
   height="24"
   viewBox="0 0 24 24"
   fill="none"
   version="1.1"
   id="svg9"
   sodipodi:docname="map-pin-cog.svg"
   inkscape:version="1.3.2 (091e20e, 2023-11-25)"
   xmlns:inkscape="http://www.inkscape.org/namespaces/inkscape"
   xmlns:sodipodi="http://sodipodi.sourceforge.net/DTD/sodipodi-0.dtd"
   xmlns="http://www.w3.org/2000/svg"
   xmlns:svg="http://www.w3.org/2000/svg">
  <defs
     id="defs9" />
  <sodipodi:namedview
     id="namedview9"
     pagecolor="#505050"
     bordercolor="#eeeeee"
     borderopacity="1"
     inkscape:showpageshadow="0"
     inkscape:pageopacity="0"
     inkscape:pagecheckerboard="0"
     inkscape:deskcolor="#505050"
     inkscape:zoom="9.8333333"
     inkscape:cx="11.949153"
     inkscape:cy="12"
     inkscape:window-width="1504"
     inkscape:window-height="449"
     inkscape:window-x="0"
     inkscape:window-y="25"
     inkscape:window-maximized="0"
     inkscape:current-layer="svg9" />
  <path
     style="color:#000000;fill:#000000;stroke-linecap:round;stroke-linejoin:round;-inkscape-stroke:none"
     d="M 12,7.25 C 11.005765,7.25 10.050733,7.644592 9.3476563,8.3476563 8.6445833,9.0507292 8.25,10.005765 8.25,11 c 0,0.994235 0.3945809,1.949281 1.0976563,2.652344 C 10.050723,14.355386 11.005746,14.75 12,14.75 c 0.994254,0 1.949291,-0.394603 2.652344,-1.097656 C 15.355397,12.949291 15.75,11.994254 15.75,11 15.75,10.005746 15.355394,9.0507193 14.652344,8.3476563 13.949281,7.6445809 12.994235,7.25 12,7.25 Z m 0,1.5 c 0.596963,0 1.169661,0.2360596 1.591797,0.6582031 C 14.013945,9.830359 14.25,10.403056 14.25,11 c 0,0.596944 -0.236057,1.169651 -0.658203,1.591797 C 13.169651,13.013943 12.596944,13.25 12,13.25 11.403056,13.25 10.830375,13.013954 10.408203,12.591797 9.9860596,12.169661 9.75,11.596963 9.75,11 9.75,10.403037 9.9860572,9.8303491 10.408203,9.4082031 10.830365,8.9860485 11.403037,8.75 12,8.75 Z"
     id="path1" />
  <path
     style="color:#000000;fill:#000000;stroke-linecap:round;stroke-linejoin:round;-inkscape-stroke:none"
     d="M 11.087891,2.2988281 C 10.36405,2.3747842 9.6487891,2.5401527 8.9609375,2.7949219 7.5852629,3.3044658 6.3590641,4.1527153 5.3964844,5.2597656 4.4339079,6.3668123 3.7666087,7.6977396 3.453125,9.1308594 3.1396433,10.563992 3.1910405,12.053099 3.6035156,13.460938 4.0159819,14.868783 4.7752204,16.150111 5.8125,17.1875 l 4.244141,4.242187 c 0.255935,0.256211 0.559536,0.459475 0.894531,0.597657 0.334961,0.138168 0.694483,0.208269 1.056641,0.207031 a 0.75,0.75 0 0 0 0.748046,-0.751953 0.75,0.75 0 0 0 -0.753906,-0.748047 c -0.164242,5.62e-4 -0.326677,-0.03112 -0.478515,-0.09375 -0.151805,-0.06262 -0.289986,-0.153142 -0.40625,-0.269531 a 0.750075,0.750075 0 0 0 0,-0.002 L 6.8730469,16.126953 C 6.0135284,15.267344 5.3847417,14.205615 5.0429687,13.039063 4.7011846,11.872503 4.658211,10.638697 4.9179687,9.4511719 5.1777245,8.2636743 5.7316951,7.161452 6.5292969,6.2441406 7.3268954,5.326833 8.342519,4.623387 9.4824219,4.2011719 10.622376,3.7789512 11.850019,3.651728 13.052734,3.828125 c 1.202711,0.1763964 2.341762,0.6510293 3.3125,1.3828125 0.970615,0.7317583 1.741555,1.6969609 2.242188,2.8046875 0.500612,1.1076915 0.713266,2.322963 0.621094,3.535156 a 0.75,0.75 0 0 0 0.691406,0.804688 0.75,0.75 0 0 0 0.804687,-0.691406 c 0.111228,-1.462805 -0.145813,-2.9307125 -0.75,-4.2675786 C 19.370443,6.0596734 18.438961,4.8967919 17.267578,4.0136719 16.096119,3.1305767 14.721018,2.5566332 13.269531,2.34375 12.54379,2.2373087 11.811731,2.222872 11.087891,2.2988281 Z"
     id="path2" />
  <path
     style="color:#000000;fill:#000000;stroke-linecap:round;stroke-linejoin:round;-inkscape-stroke:none"
     d="m 19.001953,16.25 c -0.729085,0 -1.429827,0.289064 -1.945312,0.804687 C 16.5411,17.570228 16.251953,18.270977 16.251953,19 c 0,0.729023 0.289147,1.429772 0.804688,1.945312 0.515485,0.515624 1.216227,0.804688 1.945312,0.804688 0.729023,0 1.427819,-0.289147 1.943359,-0.804688 0.515541,-0.51554 0.806641,-1.216289 0.806641,-1.945312 0,-0.729023 -0.2911,-1.429772 -0.806641,-1.945313 C 20.429772,16.539147 19.730976,16.25 19.001953,16.25 Z m 0,1.5 c 0.331776,0 0.648154,0.130576 0.882813,0.365234 0.234658,0.234659 0.367187,0.55299 0.367187,0.884766 0,0.331776 -0.132529,0.650107 -0.367187,0.884766 C 19.650107,20.119424 19.333729,20.25 19.001953,20.25 18.67004,20.25 18.351701,20.119342 18.117187,19.884766 17.882529,19.650107 17.751953,19.331776 17.751953,19 c 0,-0.331776 0.130576,-0.650107 0.365234,-0.884766 C 18.351701,17.880658 18.67004,17.75 19.001953,17.75 Z"
     id="path3" />
  <path
     style="color:#000000;fill:#000000;stroke-linecap:round;stroke-linejoin:round;-inkscape-stroke:none"
     d="m 19.001953,14.75 a 0.75,0.75 0 0 0 -0.75,0.75 V 17 a 0.75,0.75 0 0 0 0.75,0.75 0.75,0.75 0 0 0 0.75,-0.75 v -1.5 a 0.75,0.75 0 0 0 -0.75,-0.75 z"
     id="path4" />
  <path
     style="color:#000000;fill:#000000;stroke-linecap:round;stroke-linejoin:round;-inkscape-stroke:none"
     d="m 19.001953,20.25 a 0.75,0.75 0 0 0 -0.75,0.75 v 1.5 a 0.75,0.75 0 0 0 0.75,0.75 0.75,0.75 0 0 0 0.75,-0.75 V 21 a 0.75,0.75 0 0 0 -0.75,-0.75 z"
     id="path5" />
  <path
     style="color:#000000;fill:#000000;stroke-linecap:round;stroke-linejoin:round;-inkscape-stroke:none"
     d="m 21.65625,16.599609 -1.298828,0.75 a 0.75,0.75 0 0 0 -0.273438,1.025391 0.75,0.75 0 0 0 1.023438,0.275391 l 1.298828,-0.75 A 0.75,0.75 0 0 0 22.681641,16.875 0.75,0.75 0 0 0 21.65625,16.599609 Z"
     id="path6" />
  <path
     style="color:#000000;fill:#000000;stroke-linecap:round;stroke-linejoin:round;-inkscape-stroke:none"
     d="m 17.464844,19.275391 a 0.75,0.75 0 0 0 -0.570313,0.07422 l -1.298828,0.75 a 0.75,0.75 0 0 0 -0.27539,1.025391 0.75,0.75 0 0 0 1.02539,0.275391 l 1.298828,-0.75 A 0.75,0.75 0 0 0 17.919922,19.625 0.75,0.75 0 0 0 17.464844,19.275391 Z"
     id="path7" />
  <path
     style="color:#000000;fill:#000000;stroke-linecap:round;stroke-linejoin:round;-inkscape-stroke:none"
     d="m 15.775391,16.525391 a 0.75,0.75 0 0 0 -0.455078,0.349609 0.75,0.75 0 0 0 0.27539,1.025391 l 1.298828,0.75 A 0.75,0.75 0 0 0 17.919922,18.375 0.75,0.75 0 0 0 17.644531,17.349609 l -1.298828,-0.75 a 0.75,0.75 0 0 0 -0.570312,-0.07422 z"
     id="path8" />
  <path
     style="color:#000000;fill:#000000;stroke-linecap:round;stroke-linejoin:round;-inkscape-stroke:none"
     d="m 20.539062,19.275391 a 0.75,0.75 0 0 0 -0.455078,0.349609 0.75,0.75 0 0 0 0.273438,1.025391 l 1.300781,0.75 A 0.75,0.75 0 0 0 22.683594,21.125 0.75,0.75 0 0 0 22.408203,20.099609 l -1.300781,-0.75 a 0.75,0.75 0 0 0 -0.56836,-0.07422 z"
     id="path9" />
</svg>
