<?xml version="1.0" encoding="UTF-8" standalone="no"?>
<svg
   width="24"
   height="24"
   viewBox="0 0 24 24"
   fill="none"
   version="1.1"
   id="svg4"
   sodipodi:docname="map-pin-exclamation.svg"
   inkscape:version="1.3.2 (091e20e, 2023-11-25)"
   xmlns:inkscape="http://www.inkscape.org/namespaces/inkscape"
   xmlns:sodipodi="http://sodipodi.sourceforge.net/DTD/sodipodi-0.dtd"
   xmlns="http://www.w3.org/2000/svg"
   xmlns:svg="http://www.w3.org/2000/svg">
  <defs
     id="defs4" />
  <sodipodi:namedview
     id="namedview4"
     pagecolor="#505050"
     bordercolor="#eeeeee"
     borderopacity="1"
     inkscape:showpageshadow="0"
     inkscape:pageopacity="0"
     inkscape:pagecheckerboard="0"
     inkscape:deskcolor="#505050"
     inkscape:zoom="9.8333333"
     inkscape:cx="11.949153"
     inkscape:cy="12"
     inkscape:window-width="1504"
     inkscape:window-height="449"
     inkscape:window-x="0"
     inkscape:window-y="25"
     inkscape:window-maximized="0"
     inkscape:current-layer="svg4" />
  <path
     style="color:#000000;fill:#000000;stroke-linecap:round;stroke-linejoin:round;-inkscape-stroke:none"
     d="M 12,7.25 C 11.005765,7.25 10.050733,7.644592 9.3476563,8.3476563 8.6445833,9.0507292 8.25,10.005765 8.25,11 c 0,0.994235 0.3945809,1.949281 1.0976563,2.652344 C 10.050723,14.355386 11.005746,14.75 12,14.75 c 0.994254,0 1.949291,-0.394603 2.652344,-1.097656 C 15.355397,12.949291 15.75,11.994254 15.75,11 15.75,10.005746 15.355394,9.0507193 14.652344,8.3476563 13.949281,7.6445809 12.994235,7.25 12,7.25 Z m 0,1.5 c 0.596963,0 1.169661,0.2360596 1.591797,0.6582031 C 14.013945,9.830359 14.25,10.403056 14.25,11 c 0,0.596944 -0.236057,1.169651 -0.658203,1.591797 C 13.169651,13.013943 12.596944,13.25 12,13.25 11.403056,13.25 10.830375,13.013954 10.408203,12.591797 9.9860596,12.169661 9.75,11.596963 9.75,11 9.75,10.403037 9.9860572,9.8303491 10.408203,9.4082031 10.830365,8.9860485 11.403037,8.75 12,8.75 Z"
     id="path1" />
  <path
     style="color:#000000;fill:#000000;stroke-linecap:round;stroke-linejoin:round;-inkscape-stroke:none"
     d="M 11.339844,2.2753906 C 10.604763,2.3309412 9.8771147,2.4787778 9.1738281,2.71875 7.767291,3.1987079 6.5065126,4.0304442 5.5097656,5.1328125 4.5130114,6.2351767 3.8129259,7.5719241 3.4765625,9.0195313 3.1402129,10.46717 3.1792926,11.977322 3.5878906,13.40625 3.9964951,14.835091 4.7616593,16.136539 5.8125,17.1875 l 4.244141,4.242187 a 0.750075,0.750075 0 0 0 0,0.002 c 0.515399,0.51485 1.214712,0.802734 1.943359,0.802734 0.728647,0 1.42796,-0.287884 1.943359,-0.802734 a 0.750075,0.750075 0 0 0 0,-0.002 l 1.591797,-1.589843 a 0.75,0.75 0 0 0 0,-1.060547 0.75,0.75 0 0 0 -1.060547,0 l -1.589843,1.589844 C 12.650166,20.60349 12.331552,20.734375 12,20.734375 c -0.331552,0 -0.648213,-0.130885 -0.882812,-0.365234 L 6.8730469,16.126953 C 6.0023095,15.256116 5.3678717,14.178097 5.0292969,12.994141 4.6907157,11.810072 4.6587902,10.558933 4.9375,9.359375 5.216216,8.1598648 5.7971229,7.0521056 6.6230469,6.1386719 c 0.8259112,-0.9134298 1.8696759,-1.6022988 3.0351562,-2 1.1655239,-0.3976948 2.4130529,-0.4914576 3.6249999,-0.2734375 1.212056,0.2180322 2.348863,0.7405832 3.302734,1.5195312 0.953766,0.7789356 1.692682,1.7876643 2.148438,2.9316407 0.455847,1.1439774 0.61382,2.3859207 0.457031,3.6074217 a 0.75,0.75 0 0 0 0.648438,0.839844 0.75,0.75 0 0 0 0.839843,-0.648438 C 20.868899,10.641138 20.679058,9.1423588 20.128906,7.7617187 19.578864,6.3810777 18.686189,5.162699 17.535156,4.2226562 16.38403,3.282626 15.01157,2.6517992 13.548828,2.3886719 12.817503,2.2571121 12.074924,2.21984 11.339844,2.2753906 Z"
     id="path2" />
  <path
     style="color:#000000;fill:#000000;stroke-linecap:round;stroke-linejoin:round;-inkscape-stroke:none"
     d="M 19,15.25 A 0.75,0.75 0 0 0 18.25,16 v 3 A 0.75,0.75 0 0 0 19,19.75 0.75,0.75 0 0 0 19.75,19 V 16 A 0.75,0.75 0 0 0 19,15.25 Z"
     id="path3" />
  <path
     style="color:#000000;fill:#000000;stroke-linecap:round;stroke-linejoin:round;-inkscape-stroke:none"
     d="M 19,21.25 A 0.75,0.75 0 0 0 18.25,22 v 0.0098 a 0.75,0.75 0 0 0 0.75,0.75 0.75,0.75 0 0 0 0.75,-0.75 V 22 A 0.75,0.75 0 0 0 19,21.25 Z"
     id="path4" />
</svg>
