<?xml version="1.0" encoding="UTF-8" standalone="no"?>
<svg
   width="24"
   height="24"
   viewBox="0 0 24 24"
   fill="none"
   version="1.1"
   id="svg3"
   sodipodi:docname="map-pin-off.svg"
   inkscape:version="1.3.2 (091e20e, 2023-11-25)"
   xmlns:inkscape="http://www.inkscape.org/namespaces/inkscape"
   xmlns:sodipodi="http://sodipodi.sourceforge.net/DTD/sodipodi-0.dtd"
   xmlns="http://www.w3.org/2000/svg"
   xmlns:svg="http://www.w3.org/2000/svg">
  <defs
     id="defs3" />
  <sodipodi:namedview
     id="namedview3"
     pagecolor="#505050"
     bordercolor="#eeeeee"
     borderopacity="1"
     inkscape:showpageshadow="0"
     inkscape:pageopacity="0"
     inkscape:pagecheckerboard="0"
     inkscape:deskcolor="#505050"
     inkscape:zoom="9.8333333"
     inkscape:cx="11.949153"
     inkscape:cy="12"
     inkscape:window-width="1504"
     inkscape:window-height="449"
     inkscape:window-x="0"
     inkscape:window-y="25"
     inkscape:window-maximized="0"
     inkscape:current-layer="svg3" />
  <path
     style="color:#000000;fill:#000000;stroke-linecap:round;stroke-linejoin:round;-inkscape-stroke:none"
     d="M 12,7.25 A 0.75,0.75 0 0 0 11.25,8 0.75,0.75 0 0 0 12,8.75 c 0.596963,0 1.169661,0.2360596 1.591797,0.6582031 C 14.013945,9.830359 14.25,10.403056 14.25,11 A 0.75,0.75 0 0 0 15,11.75 0.75,0.75 0 0 0 15.75,11 C 15.75,10.005746 15.355394,9.0507193 14.652344,8.3476563 13.949281,7.6445809 12.994235,7.25 12,7.25 Z M 9.2675781,8.703125 A 0.75,0.75 0 0 0 8.8027344,9.0390625 C 8.3628693,9.7558398 8.1759252,10.600281 8.2734375,11.435547 c 0.097524,0.835257 0.4732689,1.614775 1.0664063,2.210937 0.593134,0.596121 1.3702912,0.974323 2.2050782,1.076172 0.834758,0.101736 1.679453,-0.07946 2.398437,-0.515625 a 0.75,0.75 0 0 0 0.251954,-1.029297 0.75,0.75 0 0 0 -1.029297,-0.253906 c -0.431615,0.261835 -0.938413,0.371611 -1.439453,0.310547 -0.501212,-0.06115 -0.966181,-0.288606 -1.322266,-0.646484 C 10.048275,12.230053 9.822208,11.763061 9.7636719,11.261719 9.7051443,10.760386 9.818017,10.25444 10.082031,9.8242188 A 0.75,0.75 0 0 0 9.8339844,8.7929688 0.75,0.75 0 0 0 9.2675781,8.703125 Z"
     id="path1" />
  <path
     style="color:#000000;fill:#000000;stroke-linecap:round;stroke-linejoin:round;-inkscape-stroke:none"
     d="m 13.171875,2.328125 c -1.89859,-0.2570752 -3.8298916,0.1165996 -5.4960938,1.0625 a 0.75,0.75 0 0 0 -0.28125,1.0234375 0.75,0.75 0 0 0 1.0234376,0.28125 C 9.7988036,3.9114147 11.397297,3.6014088 12.970703,3.8144531 c 1.57352,0.2130475 3.033667,0.937692 4.15625,2.0605469 1.122687,1.1228594 1.84578,2.5827024 2.058594,4.15625 0.212722,1.573536 -0.0967,3.172118 -0.88086,4.552734 a 0.75,0.75 0 0 0 0.28125,1.023438 0.75,0.75 0 0 0 1.023438,-0.28125 c 0.94624,-1.665981 1.319177,-3.597413 1.0625,-5.4960939 C 20.41509,7.9314092 19.54221,6.1693712 18.1875,4.8144531 16.832885,3.4595105 15.070551,2.5851971 13.171875,2.328125 Z M 5.8007812,5.1152344 A 0.75,0.75 0 0 0 5.2929687,5.3808594 C 3.8885364,7.05751 3.1614516,9.199765 3.2578125,11.384766 3.3541733,13.569754 4.2659361,15.64098 5.8125,17.1875 l 4.244141,4.242187 c 0.515454,0.515043 1.214807,0.804688 1.943359,0.804688 0.728552,0 1.427905,-0.289645 1.943359,-0.804688 l 3.738282,-3.738281 a 0.75,0.75 0 0 0 0,-1.060547 0.75,0.75 0 0 0 -1.060547,0 l -3.738281,3.738282 C 12.648399,20.602667 12.331021,20.734375 12,20.734375 c -0.331647,0 -0.648268,-0.130878 -0.882812,-0.365234 L 6.8730469,16.126953 C 5.5913336,14.845276 4.8357184,13.129167 4.7558594,11.318359 4.6760004,9.507544 5.2774812,7.7332763 6.4414062,6.34375 a 0.75,0.75 0 0 0 -0.09375,-1.0566406 0.75,0.75 0 0 0 -0.546875,-0.171875 z"
     id="path2" />
  <path
     style="color:#000000;fill:#000000;stroke-linecap:round;stroke-linejoin:round;-inkscape-stroke:none"
     d="m 3,2.25 a 0.75,0.75 0 0 0 -0.53125,0.21875 0.75,0.75 0 0 0 0,1.0625 l 18,18 a 0.75,0.75 0 0 0 1.0625,0 0.75,0.75 0 0 0 0,-1.0625 l -18,-18 A 0.75,0.75 0 0 0 3,2.25 Z"
     id="path3" />
</svg>
