<?xml version="1.0" encoding="UTF-8" standalone="no"?>
<svg
   width="24"
   height="24"
   viewBox="0 0 24 24"
   fill="none"
   version="1.1"
   id="svg2"
   sodipodi:docname="map-pin.svg"
   inkscape:version="1.3.2 (091e20e, 2023-11-25)"
   xmlns:inkscape="http://www.inkscape.org/namespaces/inkscape"
   xmlns:sodipodi="http://sodipodi.sourceforge.net/DTD/sodipodi-0.dtd"
   xmlns="http://www.w3.org/2000/svg"
   xmlns:svg="http://www.w3.org/2000/svg">
  <defs
     id="defs2" />
  <sodipodi:namedview
     id="namedview2"
     pagecolor="#505050"
     bordercolor="#eeeeee"
     borderopacity="1"
     inkscape:showpageshadow="0"
     inkscape:pageopacity="0"
     inkscape:pagecheckerboard="0"
     inkscape:deskcolor="#505050"
     inkscape:zoom="9.8333333"
     inkscape:cx="11.949153"
     inkscape:cy="12"
     inkscape:window-width="1504"
     inkscape:window-height="449"
     inkscape:window-x="0"
     inkscape:window-y="25"
     inkscape:window-maximized="0"
     inkscape:current-layer="svg2" />
  <path
     style="color:#000000;fill:#000000;stroke-linecap:round;stroke-linejoin:round;-inkscape-stroke:none"
     d="M 12,7.25 C 11.005765,7.25 10.050733,7.644592 9.3476563,8.3476563 8.6445833,9.0507292 8.25,10.005765 8.25,11 c 0,0.994235 0.3945809,1.949281 1.0976563,2.652344 C 10.050723,14.355386 11.005746,14.75 12,14.75 c 0.994254,0 1.949291,-0.394603 2.652344,-1.097656 C 15.355397,12.949291 15.75,11.994254 15.75,11 15.75,10.005746 15.355394,9.0507193 14.652344,8.3476563 13.949281,7.6445809 12.994235,7.25 12,7.25 Z m 0,1.5 c 0.596963,0 1.169661,0.2360596 1.591797,0.6582031 C 14.013945,9.830359 14.25,10.403056 14.25,11 c 0,0.596944 -0.236057,1.169651 -0.658203,1.591797 C 13.169651,13.013943 12.596944,13.25 12,13.25 11.403056,13.25 10.830375,13.013954 10.408203,12.591797 9.9860596,12.169661 9.75,11.596963 9.75,11 9.75,10.403037 9.9860572,9.8303491 10.408203,9.4082031 10.830365,8.9860485 11.403037,8.75 12,8.75 Z"
     id="path1" />
  <path
     style="color:#000000;fill:#000000;stroke-linecap:round;stroke-linejoin:round;-inkscape-stroke:none"
     d="M 12,2.25 C 10.269533,2.25 8.5775423,2.7632078 7.1386719,3.7246094 5.699818,4.6860181 4.5782657,6.0535748 3.9160156,7.6523437 3.2537549,9.2511009 3.0803998,11.009726 3.4179688,12.707031 3.755541,14.404244 4.5888686,15.963847 5.8125,17.1875 l 4.244141,4.242187 a 0.750075,0.750075 0 0 0 0,0.002 c 0.515399,0.51485 1.214712,0.802734 1.943359,0.802734 0.728647,0 1.42796,-0.287884 1.943359,-0.802734 a 0.750075,0.750075 0 0 0 0,-0.002 L 18.1875,17.1875 c 1.223651,-1.223651 2.057009,-2.783234 2.394531,-4.480469 0.33763,-1.697333 0.164185,-3.4559475 -0.498047,-5.0546873 C 19.421742,6.0535661 18.300201,4.6860163 16.861328,3.7246094 15.422454,2.7632126 13.730467,2.25 12,2.25 Z m 0,1.5 c 1.43393,0 2.835021,0.4259948 4.027344,1.2226562 1.192324,0.7966713 2.121166,1.9291069 2.669922,3.2539063 0.548767,1.3248174 0.693832,2.7810365 0.414062,4.1875005 -0.279677,1.406361 -0.970428,2.698944 -1.984375,3.71289 l -4.24414,4.242188 C 12.648344,20.60266 12.330927,20.734375 12,20.734375 c -0.331552,0 -0.648213,-0.130885 -0.882812,-0.365234 L 6.8730469,16.126953 C 5.8591205,15.113009 5.168399,13.820447 4.8886719,12.414063 4.6089414,11.007571 4.7539563,9.5513624 5.3027344,8.2265625 5.8515031,6.9017544 6.7803527,5.7693258 7.9726562,4.9726562 9.1649632,4.1759996 10.56607,3.75 12,3.75 Z"
     id="path2" />
</svg>
