<?xml version="1.0" encoding="UTF-8" standalone="no"?>
<svg
   width="24"
   height="24"
   viewBox="0 0 24 24"
   fill="none"
   version="1.1"
   id="svg4"
   sodipodi:docname="map-off.svg"
   inkscape:version="1.3.2 (091e20e, 2023-11-25)"
   xmlns:inkscape="http://www.inkscape.org/namespaces/inkscape"
   xmlns:sodipodi="http://sodipodi.sourceforge.net/DTD/sodipodi-0.dtd"
   xmlns="http://www.w3.org/2000/svg"
   xmlns:svg="http://www.w3.org/2000/svg">
  <defs
     id="defs4" />
  <sodipodi:namedview
     id="namedview4"
     pagecolor="#505050"
     bordercolor="#eeeeee"
     borderopacity="1"
     inkscape:showpageshadow="0"
     inkscape:pageopacity="0"
     inkscape:pagecheckerboard="0"
     inkscape:deskcolor="#505050"
     inkscape:zoom="9.8333333"
     inkscape:cx="11.949153"
     inkscape:cy="12"
     inkscape:window-width="1504"
     inkscape:window-height="449"
     inkscape:window-x="0"
     inkscape:window-y="25"
     inkscape:window-maximized="0"
     inkscape:current-layer="svg4" />
  <path
     style="color:#000000;fill:#000000;stroke-linecap:round;stroke-linejoin:round;-inkscape-stroke:none"
     d="M 8.6640625,3.3300781 7.984375,3.6699219 A 0.75,0.75 0 0 0 7.6484375,4.6757812 0.75,0.75 0 0 0 8.65625,5.0117187 L 9,4.8378906 14.664063,7.6699219 a 0.750075,0.750075 0 0 0 0.671875,0 L 20.25,5.2128906 V 17 A 0.75,0.75 0 0 0 21,17.75 0.75,0.75 0 0 0 21.75,17 V 4 A 0.750075,0.750075 0 0 0 20.664062,3.3300781 L 15,6.1621094 9.3359375,3.3300781 a 0.750075,0.750075 0 0 0 -0.671875,0 z M 5.3300781,4.9960937 2.6640625,6.3300781 A 0.750075,0.750075 0 0 0 2.25,7 v 13 a 0.750075,0.750075 0 0 0 1.0859375,0.669922 L 9,17.837891 l 5.664063,2.832031 a 0.750075,0.750075 0 0 0 0.671875,0 l 3.330078,-1.664063 A 0.75,0.75 0 0 0 19,18 0.75,0.75 0 0 0 17.994141,17.664062 L 15,19.162109 9.3359375,16.330078 a 0.750075,0.750075 0 0 0 -0.671875,0 L 3.75,18.787109 V 7.4628906 L 6,6.3378906 A 0.75,0.75 0 0 0 6.3359375,5.3320312 0.75,0.75 0 0 0 5.3300781,4.9960937 Z"
     id="path1" />
  <path
     style="color:#000000;fill:#000000;stroke-linecap:round;stroke-linejoin:round;-inkscape-stroke:none"
     d="M 9,3.25 A 0.75,0.75 0 0 0 8.25,4 V 5 A 0.75,0.75 0 0 0 9,5.75 0.75,0.75 0 0 0 9.75,5 V 4 A 0.75,0.75 0 0 0 9,3.25 Z m 0,5 A 0.75,0.75 0 0 0 8.25,9 v 8 A 0.75,0.75 0 0 0 9,17.75 0.75,0.75 0 0 0 9.75,17 V 9 A 0.75,0.75 0 0 0 9,8.25 Z"
     id="path2" />
  <path
     style="color:#000000;fill:#000000;stroke-linecap:round;stroke-linejoin:round;-inkscape-stroke:none"
     d="M 15,6.25 A 0.75,0.75 0 0 0 14.25,7 v 4 A 0.75,0.75 0 0 0 15,11.75 0.75,0.75 0 0 0 15.75,11 V 7 A 0.75,0.75 0 0 0 15,6.25 Z m 0,8 A 0.75,0.75 0 0 0 14.25,15 v 5 A 0.75,0.75 0 0 0 15,20.75 0.75,0.75 0 0 0 15.75,20 V 15 A 0.75,0.75 0 0 0 15,14.25 Z"
     id="path3" />
  <path
     style="color:#000000;fill:#000000;stroke-linecap:round;stroke-linejoin:round;-inkscape-stroke:none"
     d="m 3,2.25 a 0.75,0.75 0 0 0 -0.53125,0.21875 0.75,0.75 0 0 0 0,1.0625 l 18,18 a 0.75,0.75 0 0 0 1.0625,0 0.75,0.75 0 0 0 0,-1.0625 l -18,-18 A 0.75,0.75 0 0 0 3,2.25 Z"
     id="path4" />
</svg>
