<?xml version="1.0" encoding="UTF-8" standalone="no"?>
<svg
   width="24"
   height="24"
   viewBox="0 0 24 24"
   fill="none"
   version="1.1"
   id="svg4"
   sodipodi:docname="map-pin-plus.svg"
   inkscape:version="1.3.2 (091e20e, 2023-11-25)"
   xmlns:inkscape="http://www.inkscape.org/namespaces/inkscape"
   xmlns:sodipodi="http://sodipodi.sourceforge.net/DTD/sodipodi-0.dtd"
   xmlns="http://www.w3.org/2000/svg"
   xmlns:svg="http://www.w3.org/2000/svg">
  <defs
     id="defs4" />
  <sodipodi:namedview
     id="namedview4"
     pagecolor="#505050"
     bordercolor="#eeeeee"
     borderopacity="1"
     inkscape:showpageshadow="0"
     inkscape:pageopacity="0"
     inkscape:pagecheckerboard="0"
     inkscape:deskcolor="#505050"
     inkscape:zoom="9.8333333"
     inkscape:cx="11.949153"
     inkscape:cy="12"
     inkscape:window-width="1504"
     inkscape:window-height="449"
     inkscape:window-x="0"
     inkscape:window-y="25"
     inkscape:window-maximized="0"
     inkscape:current-layer="svg4" />
  <path
     style="color:#000000;fill:#000000;stroke-linecap:round;stroke-linejoin:round;-inkscape-stroke:none"
     d="M 12,7.25 C 11.005765,7.25 10.050733,7.644592 9.3476563,8.3476563 8.6445833,9.0507292 8.25,10.005765 8.25,11 c 0,0.994235 0.3945809,1.949281 1.0976563,2.652344 C 10.050723,14.355386 11.005746,14.75 12,14.75 c 0.994254,0 1.949291,-0.394603 2.652344,-1.097656 C 15.355397,12.949291 15.75,11.994254 15.75,11 15.75,10.005746 15.355394,9.0507193 14.652344,8.3476563 13.949281,7.6445809 12.994235,7.25 12,7.25 Z m 0,1.5 c 0.596963,0 1.169661,0.2360596 1.591797,0.6582031 C 14.013945,9.830359 14.25,10.403056 14.25,11 c 0,0.596944 -0.236057,1.169651 -0.658203,1.591797 C 13.169651,13.013943 12.596944,13.25 12,13.25 11.403056,13.25 10.830375,13.013954 10.408203,12.591797 9.9860596,12.169661 9.75,11.596963 9.75,11 9.75,10.403037 9.9860572,9.8303491 10.408203,9.4082031 10.830365,8.9860485 11.403037,8.75 12,8.75 Z"
     id="path1" />
  <path
     style="color:#000000;fill:#000000;stroke-linecap:round;stroke-linejoin:round;-inkscape-stroke:none"
     d="M 11.355469,2.2753906 C 10.61985,2.3298244 9.8915618,2.4776618 9.1875,2.7167969 7.7793983,3.1950816 6.5161608,4.0230165 5.5175781,5.125 4.5189962,6.2269717 3.8162031,7.5654053 3.4785156,9.0136719 3.1408427,10.461977 3.1796646,11.972393 3.5878906,13.402344 3.996112,14.832387 4.7611394,16.135778 5.8125,17.1875 l 4.244141,4.242187 c 0.38944,0.389441 0.886795,0.654299 1.427734,0.757813 0.540999,0.103388 1.101743,0.0406 1.607422,-0.177734 a 0.75,0.75 0 0 0 0.390625,-0.984375 0.75,0.75 0 0 0 -0.986328,-0.392579 c -0.22992,0.09927 -0.484469,0.127091 -0.730469,0.08008 -0.246061,-0.04709 -0.471279,-0.166591 -0.648437,-0.34375 L 6.8730469,16.126953 C 6.0018694,15.255477 5.3675548,14.175188 5.0292969,12.990234 4.6910437,11.805388 4.6596467,10.555581 4.9394531,9.3554688 5.219265,8.155418 5.80147,7.0459188 6.6289062,6.1328125 7.4563418,5.219698 8.5031461,4.5330332 9.6699219,4.1367187 10.836736,3.7404097 12.084453,3.6469341 13.296875,3.8671875 c 1.212419,0.2202619 2.348042,0.7459854 3.300781,1.5273437 0.952859,0.7813731 1.691231,1.793695 2.144531,2.9394532 0.453408,1.1457975 0.607404,2.3876316 0.447266,3.6093746 a 0.75,0.75 0 0 0 0.646484,0.841797 0.75,0.75 0 0 0 0.839844,-0.646484 C 20.869043,10.664218 20.683911,9.16405 20.136719,7.78125 19.589621,6.3984107 18.698767,5.1773602 17.548828,4.234375 16.398969,3.291355 15.027631,2.6583958 13.564453,2.3925781 12.832866,2.259675 12.091087,2.2209569 11.355469,2.2753906 Z"
     id="path2" />
  <path
     style="color:#000000;fill:#000000;stroke-linecap:round;stroke-linejoin:round;-inkscape-stroke:none"
     d="M 16,18.25 A 0.75,0.75 0 0 0 15.25,19 0.75,0.75 0 0 0 16,19.75 h 6 A 0.75,0.75 0 0 0 22.75,19 0.75,0.75 0 0 0 22,18.25 Z"
     id="path3" />
  <path
     style="color:#000000;fill:#000000;stroke-linecap:round;stroke-linejoin:round;-inkscape-stroke:none"
     d="M 19,15.25 A 0.75,0.75 0 0 0 18.25,16 v 6 A 0.75,0.75 0 0 0 19,22.75 0.75,0.75 0 0 0 19.75,22 V 16 A 0.75,0.75 0 0 0 19,15.25 Z"
     id="path4" />
</svg>
