<?xml version="1.0" encoding="UTF-8" standalone="no"?>
<svg
   width="24"
   height="24"
   viewBox="0 0 24 24"
   fill="none"
   version="1.1"
   id="svg3"
   sodipodi:docname="map-pin-check.svg"
   inkscape:version="1.3.2 (091e20e, 2023-11-25)"
   xmlns:inkscape="http://www.inkscape.org/namespaces/inkscape"
   xmlns:sodipodi="http://sodipodi.sourceforge.net/DTD/sodipodi-0.dtd"
   xmlns="http://www.w3.org/2000/svg"
   xmlns:svg="http://www.w3.org/2000/svg">
  <defs
     id="defs3" />
  <sodipodi:namedview
     id="namedview3"
     pagecolor="#505050"
     bordercolor="#eeeeee"
     borderopacity="1"
     inkscape:showpageshadow="0"
     inkscape:pageopacity="0"
     inkscape:pagecheckerboard="0"
     inkscape:deskcolor="#505050"
     inkscape:zoom="9.8333333"
     inkscape:cx="11.949153"
     inkscape:cy="12"
     inkscape:window-width="1504"
     inkscape:window-height="449"
     inkscape:window-x="0"
     inkscape:window-y="25"
     inkscape:window-maximized="0"
     inkscape:current-layer="svg3" />
  <path
     style="color:#000000;fill:#000000;stroke-linecap:round;stroke-linejoin:round;-inkscape-stroke:none"
     d="M 12,7.25 C 11.005765,7.25 10.050733,7.644592 9.3476563,8.3476563 8.6445833,9.0507292 8.25,10.005765 8.25,11 c 0,0.994235 0.3945809,1.949281 1.0976563,2.652344 C 10.050723,14.355386 11.005746,14.75 12,14.75 c 0.994254,0 1.949291,-0.394603 2.652344,-1.097656 C 15.355397,12.949291 15.75,11.994254 15.75,11 15.75,10.005746 15.355394,9.0507193 14.652344,8.3476563 13.949281,7.6445809 12.994235,7.25 12,7.25 Z m 0,1.5 c 0.596963,0 1.169661,0.2360596 1.591797,0.6582031 C 14.013945,9.830359 14.25,10.403056 14.25,11 c 0,0.596944 -0.236057,1.169651 -0.658203,1.591797 C 13.169651,13.013943 12.596944,13.25 12,13.25 11.403056,13.25 10.830375,13.013954 10.408203,12.591797 9.9860596,12.169661 9.75,11.596963 9.75,11 9.75,10.403037 9.9860572,9.8303491 10.408203,9.4082031 10.830365,8.9860485 11.403037,8.75 12,8.75 Z"
     id="path1" />
  <path
     style="color:#000000;fill:#000000;stroke-linecap:round;stroke-linejoin:round;-inkscape-stroke:none"
     d="m 12.072266,2.2519531 c -0.76397,-0.00626 -1.527673,0.087264 -2.2734379,0.28125 C 8.3073102,2.9211896 6.9434367,3.6955912 5.8476562,4.7792969 4.7518662,5.8630013 3.9630944,7.2179498 3.5585938,8.7050781 3.154107,10.192228 3.1490285,11.760574 3.5449219,13.25 3.9408151,14.739426 4.7229869,16.097484 5.8125,17.1875 l 4.244141,4.242187 c 0.471757,0.472171 1.099602,0.756583 1.765625,0.798829 a 0.75,0.75 0 0 0 0.796875,-0.701172 0.75,0.75 0 0 0 -0.701172,-0.794922 C 11.615993,20.713268 11.33103,20.58317 11.117188,20.369141 L 6.8730469,16.126953 C 5.9702819,15.223771 5.3221867,14.097453 4.9941406,12.863281 4.6660947,11.62911 4.6706869,10.329963 5.0058594,9.0976563 5.341038,7.8653873 5.9943558,6.7436767 6.9023437,5.8457031 7.8103213,4.9477308 8.9398819,4.3058678 10.175781,3.984375 c 1.235928,-0.3214865 2.535179,-0.31046 3.765625,0.03125 1.23046,0.3417139 2.349066,1.0032919 3.242188,1.9160156 0.893132,0.9127351 1.528817,2.0436586 1.84375,3.28125 0.31493,1.2376164 0.297419,2.5369534 -0.05078,3.7656254 a 0.75,0.75 0 0 0 0.517579,0.925781 0.75,0.75 0 0 0 0.925781,-0.517578 C 20.84012,11.903993 20.860538,10.337351 20.480469,8.84375 20.100402,7.3502041 19.333725,5.9823823 18.255859,4.8808594 17.177983,3.7793251 15.826734,2.9826979 14.341797,2.5703125 13.599321,2.3641179 12.836235,2.2582149 12.072266,2.2519531 Z"
     id="path2" />
  <path
     style="color:#000000;fill:#000000;stroke-linecap:round;stroke-linejoin:round;-inkscape-stroke:none"
     d="m 21,16.25 a 0.75,0.75 0 0 0 -0.53125,0.21875 L 17,19.9375 15.53125,18.46875 a 0.75,0.75 0 0 0 -1.0625,0 0.75,0.75 0 0 0 0,1.0625 l 2,2 a 0.750075,0.750075 0 0 0 1.0625,0 l 4,-4 a 0.75,0.75 0 0 0 0,-1.0625 A 0.75,0.75 0 0 0 21,16.25 Z"
     id="path3" />
</svg>
