<?xml version="1.0" encoding="UTF-8" standalone="no"?>
<svg
   width="24"
   height="24"
   viewBox="0 0 24 24"
   fill="none"
   version="1.1"
   id="svg4"
   sodipodi:docname="map-pin-question.svg"
   inkscape:version="1.3.2 (091e20e, 2023-11-25)"
   xmlns:inkscape="http://www.inkscape.org/namespaces/inkscape"
   xmlns:sodipodi="http://sodipodi.sourceforge.net/DTD/sodipodi-0.dtd"
   xmlns="http://www.w3.org/2000/svg"
   xmlns:svg="http://www.w3.org/2000/svg">
  <defs
     id="defs4" />
  <sodipodi:namedview
     id="namedview4"
     pagecolor="#505050"
     bordercolor="#eeeeee"
     borderopacity="1"
     inkscape:showpageshadow="0"
     inkscape:pageopacity="0"
     inkscape:pagecheckerboard="0"
     inkscape:deskcolor="#505050"
     inkscape:zoom="9.8333333"
     inkscape:cx="11.949153"
     inkscape:cy="12"
     inkscape:window-width="1504"
     inkscape:window-height="449"
     inkscape:window-x="0"
     inkscape:window-y="25"
     inkscape:window-maximized="0"
     inkscape:current-layer="svg4" />
  <path
     style="color:#000000;fill:#000000;stroke-linecap:round;stroke-linejoin:round;-inkscape-stroke:none"
     d="M 12,7.25 C 11.005765,7.25 10.050733,7.644592 9.3476563,8.3476563 8.6445833,9.0507292 8.25,10.005765 8.25,11 c 0,0.994235 0.3945809,1.949281 1.0976563,2.652344 C 10.050723,14.355386 11.005746,14.75 12,14.75 c 0.994254,0 1.949291,-0.394603 2.652344,-1.097656 C 15.355397,12.949291 15.75,11.994254 15.75,11 15.75,10.005746 15.355394,9.0507193 14.652344,8.3476563 13.949281,7.6445809 12.994235,7.25 12,7.25 Z m 0,1.5 c 0.596963,0 1.169661,0.2360596 1.591797,0.6582031 C 14.013945,9.830359 14.25,10.403056 14.25,11 c 0,0.596944 -0.236057,1.169651 -0.658203,1.591797 C 13.169651,13.013943 12.596944,13.25 12,13.25 11.403056,13.25 10.830375,13.013954 10.408203,12.591797 9.9860596,12.169661 9.75,11.596963 9.75,11 9.75,10.403037 9.9860572,9.8303491 10.408203,9.4082031 10.830365,8.9860485 11.403037,8.75 12,8.75 Z"
     id="path1" />
  <path
     style="color:#000000;fill:#000000;stroke-linecap:round;stroke-linejoin:round;-inkscape-stroke:none"
     d="M 12.908203,2.296875 C 11.47377,2.1473505 10.024428,2.3545689 8.6894531,2.9003906 7.3544966,3.4462248 6.1746447,4.3140734 5.2558594,5.4257812 4.3370833,6.5374802 3.7065288,7.8595746 3.421875,9.2734375 3.1372195,10.687276 3.2080038,12.150632 3.625,13.53125 h -0.00195 c 0.4169941,1.38072 1.16973,2.636352 2.1894531,3.65625 l 4.244141,4.242187 c 0.515447,0.514898 1.214807,0.804688 1.943359,0.804688 0.728552,0 1.427912,-0.28979 1.943359,-0.804688 l 1.583985,-1.582031 a 0.75,0.75 0 0 0 0,-1.060547 0.75,0.75 0 0 0 -1.060547,0 l -1.583984,1.582032 C 12.648391,20.602613 12.331021,20.734375 12,20.734375 c -0.331647,0 -0.64826,-0.130932 -0.882812,-0.365234 L 6.8730469,16.126953 c -0.8449551,-0.8451 -1.4669749,-1.887173 -1.8125,-3.03125 -0.345523,-1.14398 -0.4038327,-2.353892 -0.1679688,-3.5253905 0.2358657,-1.1715345 0.758229,-2.266341 1.5195313,-3.1875 0.761313,-0.9211701 1.7375889,-1.6414652 2.84375,-2.09375 1.1061826,-0.4522773 2.3075296,-0.6238953 3.4960936,-0.5 1.188567,0.1238956 2.3273,0.5402591 3.316406,1.2109375 0.989112,0.6706821 1.798628,1.5744835 2.353516,2.6328125 0.554997,1.0583641 0.83891,2.2385519 0.828125,3.4335935 a 0.75,0.75 0 0 0 0.744141,0.75586 A 0.75,0.75 0 0 0 20.75,11.080078 C 20.763015,9.6378827 20.419802,8.2147936 19.75,6.9375 19.080289,5.6601714 18.103842,4.5672089 16.910156,3.7578125 15.716465,2.9484123 14.342633,2.4463992 12.908203,2.296875 Z"
     id="path2" />
  <path
     style="color:#000000;fill:#000000;stroke-linecap:round;stroke-linejoin:round;-inkscape-stroke:none"
     d="M 19,21.25 A 0.75,0.75 0 0 0 18.25,22 v 0.0098 a 0.75,0.75 0 0 0 0.75,0.75 0.75,0.75 0 0 0 0.75,-0.75 V 22 A 0.75,0.75 0 0 0 19,21.25 Z"
     id="path3" />
  <path
     style="color:#000000;fill:#000000;stroke-linecap:round;stroke-linejoin:round;-inkscape-stroke:none"
     d="m 18.476562,14.302734 c -0.604173,0.12089 -1.150735,0.443741 -1.548828,0.914063 a 0.75,0.75 0 0 0 0.08789,1.05664 0.75,0.75 0 0 0 1.056641,-0.08789 c 0.179507,-0.212077 0.424839,-0.357599 0.697265,-0.412109 0.271736,-0.05437 0.553999,-0.0146 0.800781,0.111328 0.249209,0.128922 0.446024,0.336562 0.5625,0.591796 0.116553,0.255465 0.144023,0.541726 0.07813,0.814454 -0.066,0.27283 -0.221344,0.51568 -0.441406,0.689453 -0.220052,0.173827 -0.490753,0.268592 -0.771484,0.269531 A 0.75,0.75 0 0 0 18.25,19.001953 0.75,0.75 0 0 0 19.001953,19.75 c 0.615868,-0.0021 1.213719,-0.209825 1.697266,-0.591797 0.483537,-0.381827 0.825903,-0.915103 0.970703,-1.513672 a 0.750075,0.750075 0 0 0 0,-0.002 c 0.144702,-0.598871 0.08377,-1.228728 -0.171875,-1.789062 -0.255723,-0.560365 -0.693043,-1.019657 -1.240235,-1.302735 a 0.750075,0.750075 0 0 0 -0.002,0 c -0.548394,-0.280952 -1.175083,-0.368944 -1.779297,-0.248047 z"
     id="path4" />
</svg>
