<?xml version="1.0" encoding="UTF-8" standalone="no"?>
<svg
   width="24"
   height="24"
   viewBox="0 0 24 24"
   fill="none"
   version="1.1"
   id="svg4"
   sodipodi:docname="message-off.svg"
   inkscape:version="1.3.2 (091e20e, 2023-11-25)"
   xmlns:inkscape="http://www.inkscape.org/namespaces/inkscape"
   xmlns:sodipodi="http://sodipodi.sourceforge.net/DTD/sodipodi-0.dtd"
   xmlns="http://www.w3.org/2000/svg"
   xmlns:svg="http://www.w3.org/2000/svg">
  <defs
     id="defs4" />
  <sodipodi:namedview
     id="namedview4"
     pagecolor="#505050"
     bordercolor="#eeeeee"
     borderopacity="1"
     inkscape:showpageshadow="0"
     inkscape:pageopacity="0"
     inkscape:pagecheckerboard="0"
     inkscape:deskcolor="#505050"
     inkscape:zoom="9.8333333"
     inkscape:cx="11.949153"
     inkscape:cy="12"
     inkscape:window-width="1504"
     inkscape:window-height="449"
     inkscape:window-x="0"
     inkscape:window-y="25"
     inkscape:window-maximized="0"
     inkscape:current-layer="svg4" />
  <path
     style="color:#000000;fill:#000000;stroke-linecap:round;stroke-linejoin:round;-inkscape-stroke:none"
     d="M 8,8.25 A 0.75,0.75 0 0 0 7.25,9 0.75,0.75 0 0 0 8,9.75 H 9 A 0.75,0.75 0 0 0 9.75,9 0.75,0.75 0 0 0 9,8.25 Z m 5,0 A 0.75,0.75 0 0 0 12.25,9 0.75,0.75 0 0 0 13,9.75 h 3 A 0.75,0.75 0 0 0 16.75,9 0.75,0.75 0 0 0 16,8.25 Z"
     id="path1" />
  <path
     style="color:#000000;fill:#000000;stroke-linecap:round;stroke-linejoin:round;-inkscape-stroke:none"
     d="M 8,12.25 A 0.75,0.75 0 0 0 7.25,13 0.75,0.75 0 0 0 8,13.75 h 5 A 0.75,0.75 0 0 0 13.75,13 0.75,0.75 0 0 0 13,12.25 Z"
     id="path2" />
  <path
     style="color:#000000;fill:#000000;stroke-linecap:round;stroke-linejoin:round;-inkscape-stroke:none"
     d="M 8,3.25 A 0.75,0.75 0 0 0 7.25,4 0.75,0.75 0 0 0 8,4.75 h 10 c 0.596963,0 1.169661,0.2360596 1.591797,0.6582031 C 20.013961,5.8303747 20.25,6.4029932 20.25,7 v 8 c 0,0.435752 -0.122556,0.837053 -0.333984,1.179687 a 0.75,0.75 0 0 0 0.246093,1.03125 0.75,0.75 0 0 0 1.03125,-0.24414 C 21.54593,16.395432 21.75,15.718247 21.75,15 V 7 C 21.75,6.0057084 21.355379,5.0507035 20.652344,4.3476562 19.949281,3.6445809 18.994235,3.25 18,3.25 Z M 4.6152344,3.7089844 A 0.75,0.75 0 0 0 4.0488281,3.796875 C 2.9694241,4.4547736 2.25,5.6495636 2.25,7 v 8 c 0,0.994235 0.3945809,1.949281 1.0976563,2.652344 C 4.0507035,18.355379 5.0057084,18.75 6,18.75 H 7.25 V 21 a 0.750075,0.750075 0 0 0 1.1367188,0.642578 L 13.207031,18.75 H 18 A 0.75,0.75 0 0 0 18.75,18 0.75,0.75 0 0 0 18,17.25 h -5 a 0.750075,0.750075 0 0 0 -0.386719,0.107422 L 8.75,19.675781 V 18 A 0.750075,0.750075 0 0 0 8,17.25 H 6 C 5.4029932,17.25 4.8303747,17.013961 4.4082031,16.591797 3.9860596,16.169661 3.75,15.596963 3.75,15 V 7 c 0,-0.8195614 0.4334839,-1.5277747 1.0800781,-1.921875 a 0.75,0.75 0 0 0 0.25,-1.03125 0.75,0.75 0 0 0 -0.4648437,-0.3378906 z"
     id="path3" />
  <path
     style="color:#000000;fill:#000000;stroke-linecap:round;stroke-linejoin:round;-inkscape-stroke:none"
     d="m 3,2.25 a 0.75,0.75 0 0 0 -0.53125,0.21875 0.75,0.75 0 0 0 0,1.0625 l 18,18 a 0.75,0.75 0 0 0 1.0625,0 0.75,0.75 0 0 0 0,-1.0625 l -18,-18 A 0.75,0.75 0 0 0 3,2.25 Z"
     id="path4" />
</svg>
