<?xml version="1.0" encoding="UTF-8" standalone="no"?>
<svg
   width="24"
   height="24"
   viewBox="0 0 24 24"
   fill="none"
   version="1.1"
   id="svg2"
   sodipodi:docname="messages.svg"
   inkscape:version="1.3.2 (091e20e, 2023-11-25)"
   xmlns:inkscape="http://www.inkscape.org/namespaces/inkscape"
   xmlns:sodipodi="http://sodipodi.sourceforge.net/DTD/sodipodi-0.dtd"
   xmlns="http://www.w3.org/2000/svg"
   xmlns:svg="http://www.w3.org/2000/svg">
  <defs
     id="defs2" />
  <sodipodi:namedview
     id="namedview2"
     pagecolor="#505050"
     bordercolor="#eeeeee"
     borderopacity="1"
     inkscape:showpageshadow="0"
     inkscape:pageopacity="0"
     inkscape:pagecheckerboard="0"
     inkscape:deskcolor="#505050"
     inkscape:zoom="9.8333333"
     inkscape:cx="11.949153"
     inkscape:cy="12"
     inkscape:window-width="1504"
     inkscape:window-height="449"
     inkscape:window-x="0"
     inkscape:window-y="25"
     inkscape:window-maximized="0"
     inkscape:current-layer="svg2" />
  <path
     style="color:#000000;fill:#000000;stroke-linecap:round;stroke-linejoin:round;-inkscape-stroke:none"
     d="M 11,2.25 C 10.536158,2.25 10.089739,2.4336457 9.7617188,2.7617188 9.4338538,3.0896536 9.25,3.5360775 9.25,4 v 6 c 0,0.463917 0.1837405,0.910303 0.5117188,1.238281 C 10.089697,11.566259 10.536083,11.75 11,11.75 h 6.689453 l 2.779297,2.78125 A 0.750075,0.750075 0 0 0 21.75,14 V 4 C 21.75,3.5360775 21.566146,3.0896536 21.238281,2.7617188 20.910261,2.4336457 20.463842,2.25 20,2.25 Z m 0,1.5 h 9 c 0.06656,0 0.128802,0.025279 0.175781,0.072266 C 20.222916,3.8694103 20.25,3.933483 20.25,4 v 8.1875 L 18.53125,10.46875 A 0.750075,0.750075 0 0 0 18,10.25 h -7 c -0.06648,0 -0.130713,-0.02524 -0.177734,-0.07227 C 10.775244,10.130713 10.75,10.066482 10.75,10 V 4 c 0,-0.066517 0.02708,-0.1305897 0.07422,-0.1777344 C 10.871198,3.7752791 10.933443,3.75 11,3.75 Z"
     id="path1" />
  <path
     style="color:#000000;fill:#000000;stroke-linecap:round;stroke-linejoin:round;-inkscape-stroke:none"
     d="M 4,9.25 C 3.5360775,9.25 3.0896536,9.4338538 2.7617188,9.7617188 2.4336457,10.089739 2.25,10.536158 2.25,11 v 10 a 0.750075,0.750075 0 0 0 1.28125,0.53125 L 6.3105469,18.75 H 13 c 0.463917,0 0.910303,-0.183741 1.238281,-0.511719 C 14.566259,17.910303 14.75,17.463917 14.75,17 V 15 A 0.75,0.75 0 0 0 14,14.25 0.75,0.75 0 0 0 13.25,15 v 2 c 0,0.06648 -0.02524,0.130713 -0.07227,0.177734 C 13.130713,17.224756 13.066482,17.25 13,17.25 H 6 A 0.750075,0.750075 0 0 0 5.46875,17.46875 L 3.75,19.1875 V 11 c 0,-0.06656 0.025279,-0.128802 0.072266,-0.175781 C 3.8694103,10.777084 3.933483,10.75 4,10.75 H 6 A 0.75,0.75 0 0 0 6.75,10 0.75,0.75 0 0 0 6,9.25 Z"
     id="path2" />
</svg>
