<?xml version="1.0" encoding="UTF-8" standalone="no"?>
<svg
   width="24"
   height="24"
   viewBox="0 0 24 24"
   fill="none"
   version="1.1"
   id="svg4"
   sodipodi:docname="message-star.svg"
   inkscape:version="1.3.2 (091e20e, 2023-11-25)"
   xmlns:inkscape="http://www.inkscape.org/namespaces/inkscape"
   xmlns:sodipodi="http://sodipodi.sourceforge.net/DTD/sodipodi-0.dtd"
   xmlns="http://www.w3.org/2000/svg"
   xmlns:svg="http://www.w3.org/2000/svg">
  <defs
     id="defs4" />
  <sodipodi:namedview
     id="namedview4"
     pagecolor="#505050"
     bordercolor="#eeeeee"
     borderopacity="1"
     inkscape:showpageshadow="0"
     inkscape:pageopacity="0"
     inkscape:pagecheckerboard="0"
     inkscape:deskcolor="#505050"
     inkscape:zoom="9.8333333"
     inkscape:cx="11.949153"
     inkscape:cy="12"
     inkscape:window-width="1504"
     inkscape:window-height="449"
     inkscape:window-x="0"
     inkscape:window-y="25"
     inkscape:window-maximized="0"
     inkscape:current-layer="svg4" />
  <path
     style="color:#000000;fill:#000000;stroke-linecap:round;stroke-linejoin:round;-inkscape-stroke:none"
     d="M 8,8.25 A 0.75,0.75 0 0 0 7.25,9 0.75,0.75 0 0 0 8,9.75 h 8 A 0.75,0.75 0 0 0 16.75,9 0.75,0.75 0 0 0 16,8.25 Z"
     id="path1" />
  <path
     style="color:#000000;fill:#000000;stroke-linecap:round;stroke-linejoin:round;-inkscape-stroke:none"
     d="M 8,12.25 A 0.75,0.75 0 0 0 7.25,13 0.75,0.75 0 0 0 8,13.75 h 4.5 A 0.75,0.75 0 0 0 13.25,13 0.75,0.75 0 0 0 12.5,12.25 Z"
     id="path2" />
  <path
     style="color:#000000;fill:#000000;stroke-linecap:round;stroke-linejoin:round;-inkscape-stroke:none"
     d="M 6,3.25 C 5.0057272,3.25 4.0507135,3.644599 3.3476563,4.3476562 2.644599,5.0507135 2.25,6.0057272 2.25,7 v 8 c 0,0.994235 0.3945809,1.949281 1.0976563,2.652344 C 4.0507035,18.355379 5.0057084,18.75 6,18.75 H 7.25 V 21 a 0.750075,0.750075 0 0 0 1.1367188,0.642578 L 10.710938,20.248047 A 0.75,0.75 0 0 0 10.96875,19.21875 0.75,0.75 0 0 0 9.9394531,18.960937 L 8.75,19.675781 V 18 A 0.750075,0.750075 0 0 0 8,17.25 H 6 C 5.4029932,17.25 4.8303747,17.013961 4.4082031,16.591797 3.9860596,16.169661 3.75,15.596963 3.75,15 V 7 C 3.75,6.4029744 3.9860415,5.8303648 4.4082031,5.4082031 4.8303648,4.9860415 5.4029744,4.75 6,4.75 h 12 c 0.596963,0 1.169661,0.2360596 1.591797,0.6582031 C 20.013961,5.8303747 20.25,6.4029932 20.25,7 v 4.5 A 0.75,0.75 0 0 0 21,12.25 0.75,0.75 0 0 0 21.75,11.5 V 7 C 21.75,6.0057084 21.355379,5.0507035 20.652344,4.3476562 19.949281,3.6445809 18.994235,3.25 18,3.25 Z"
     id="path3" />
  <path
     style="color:#000000;fill:#000000;stroke-linecap:round;stroke-linejoin:round;-inkscape-stroke:none"
     d="m 17.800781,13.25 c -0.212726,0 -0.421805,0.05877 -0.601562,0.169922 -0.181085,0.112156 -0.327507,0.273282 -0.421875,0.462891 a 0.750075,0.750075 0 0 0 0,0.002 l -0.91211,1.839843 -2.033203,0.294922 c -0.211499,0.02925 -0.410738,0.117283 -0.574218,0.253906 -0.163511,0.136893 -0.285266,0.318195 -0.351563,0.521485 -0.06604,0.203104 -0.07426,0.421336 -0.02344,0.626953 0.05138,0.206701 0.16051,0.395209 0.3125,0.542969 l 1.472656,1.43164 -0.347656,2.021485 a 0.750075,0.750075 0 0 0 0,0.0078 c -0.03347,0.208673 -0.0088,0.423407 0.07226,0.619141 0.08118,0.195944 0.21506,0.364419 0.386719,0.488281 0.171716,0.123904 0.373201,0.197482 0.583984,0.212891 0.211524,0.01548 0.424086,-0.02775 0.611328,-0.125 a 0.750075,0.750075 0 0 0 0.002,-0.002 l 1.824218,-0.955079 1.820313,0.953125 c 0.187912,0.0995 0.399895,0.145829 0.613281,0.13086 0.212636,-0.0149 0.417705,-0.09018 0.589844,-0.214844 0.172275,-0.124973 0.306365,-0.296616 0.386718,-0.494141 0.07987,-0.19675 0.102239,-0.411447 0.06641,-0.621093 l -0.345703,-2.021485 1.472656,-1.43164 a 0.750075,0.750075 0 0 0 0.002,-0.002 c 0.152359,-0.14885 0.25992,-0.337262 0.310547,-0.542969 0.05092,-0.206914 0.04254,-0.422981 -0.02344,-0.625 -0.0658,-0.201488 -0.187839,-0.382215 -0.351562,-0.519531 -0.161665,-0.135398 -0.358092,-0.225436 -0.56836,-0.25586 h -0.002 l -2.037109,-0.294922 -0.912109,-1.839843 a 0.750075,0.750075 0 0 0 0,-0.002 C 18.727897,13.693204 18.58179,13.532092 18.400391,13.419922 18.220041,13.308222 18.013599,13.25 17.800781,13.25 Z m 0,1.949219 0.763672,1.542968 a 0.750075,0.750075 0 0 0 0.564453,0.410157 l 1.705078,0.246093 -1.232422,1.197266 a 0.750075,0.750075 0 0 0 -0.214843,0.666016 l 0.291015,1.691406 -1.529297,-0.800781 a 0.750075,0.750075 0 0 0 -0.697265,0 l -1.529297,0.800781 0.292969,-1.691406 a 0.750075,0.750075 0 0 0 -0.216797,-0.666016 l -1.232422,-1.197266 1.705078,-0.246093 a 0.750075,0.750075 0 0 0 0.564453,-0.410157 z"
     id="path4" />
</svg>
