<?xml version="1.0" encoding="UTF-8" standalone="no"?>
<svg
   width="24"
   height="24"
   viewBox="0 0 24 24"
   fill="none"
   version="1.1"
   id="svg5"
   sodipodi:docname="message-question.svg"
   inkscape:version="1.3.2 (091e20e, 2023-11-25)"
   xmlns:inkscape="http://www.inkscape.org/namespaces/inkscape"
   xmlns:sodipodi="http://sodipodi.sourceforge.net/DTD/sodipodi-0.dtd"
   xmlns="http://www.w3.org/2000/svg"
   xmlns:svg="http://www.w3.org/2000/svg">
  <defs
     id="defs5" />
  <sodipodi:namedview
     id="namedview5"
     pagecolor="#505050"
     bordercolor="#eeeeee"
     borderopacity="1"
     inkscape:showpageshadow="0"
     inkscape:pageopacity="0"
     inkscape:pagecheckerboard="0"
     inkscape:deskcolor="#505050"
     inkscape:zoom="9.8333333"
     inkscape:cx="11.949153"
     inkscape:cy="12"
     inkscape:window-width="1504"
     inkscape:window-height="449"
     inkscape:window-x="0"
     inkscape:window-y="25"
     inkscape:window-maximized="0"
     inkscape:current-layer="svg5" />
  <path
     style="color:#000000;fill:#000000;stroke-linecap:round;stroke-linejoin:round;-inkscape-stroke:none"
     d="M 8,8.25 A 0.75,0.75 0 0 0 7.25,9 0.75,0.75 0 0 0 8,9.75 h 8 A 0.75,0.75 0 0 0 16.75,9 0.75,0.75 0 0 0 16,8.25 Z"
     id="path1" />
  <path
     style="color:#000000;fill:#000000;stroke-linecap:round;stroke-linejoin:round;-inkscape-stroke:none"
     d="M 8,12.25 A 0.75,0.75 0 0 0 7.25,13 0.75,0.75 0 0 0 8,13.75 h 6 A 0.75,0.75 0 0 0 14.75,13 0.75,0.75 0 0 0 14,12.25 Z"
     id="path2" />
  <path
     style="color:#000000;fill:#000000;stroke-linecap:round;stroke-linejoin:round;-inkscape-stroke:none"
     d="M 6,3.25 C 5.0057272,3.25 4.0507135,3.644599 3.3476563,4.3476562 2.644599,5.0507135 2.25,6.0057272 2.25,7 v 8 c 0,0.994235 0.3945809,1.949281 1.0976563,2.652344 C 4.0507035,18.355379 5.0057084,18.75 6,18.75 H 7.25 V 21 a 0.750075,0.750075 0 0 0 1.1367188,0.642578 L 13.207031,18.75 H 14 A 0.75,0.75 0 0 0 14.75,18 0.75,0.75 0 0 0 14,17.25 h -1 a 0.750075,0.750075 0 0 0 -0.386719,0.107422 L 8.75,19.675781 V 18 A 0.750075,0.750075 0 0 0 8,17.25 H 6 C 5.4029932,17.25 4.8303747,17.013961 4.4082031,16.591797 3.9860596,16.169661 3.75,15.596963 3.75,15 V 7 C 3.75,6.4029744 3.9860415,5.8303648 4.4082031,5.4082031 4.8303648,4.9860415 5.4029744,4.75 6,4.75 h 12 c 0.596963,0 1.169661,0.2360596 1.591797,0.6582031 C 20.013961,5.8303747 20.25,6.4029932 20.25,7 v 4.5 A 0.75,0.75 0 0 0 21,12.25 0.75,0.75 0 0 0 21.75,11.5 V 7 C 21.75,6.0057084 21.355379,5.0507035 20.652344,4.3476562 19.949281,3.6445809 18.994235,3.25 18,3.25 Z"
     id="path3" />
  <path
     style="color:#000000;fill:#000000;stroke-linecap:round;stroke-linejoin:round;-inkscape-stroke:none"
     d="M 19,21.25 A 0.75,0.75 0 0 0 18.25,22 v 0.0098 a 0.75,0.75 0 0 0 0.75,0.75 0.75,0.75 0 0 0 0.75,-0.75 V 22 A 0.75,0.75 0 0 0 19,21.25 Z"
     id="path4" />
  <path
     style="color:#000000;fill:#000000;stroke-linecap:round;stroke-linejoin:round;-inkscape-stroke:none"
     d="m 18.476562,14.302734 c -0.604173,0.12089 -1.150735,0.443741 -1.548828,0.914063 a 0.75,0.75 0 0 0 0.08789,1.05664 0.75,0.75 0 0 0 1.056641,-0.08789 c 0.179507,-0.212077 0.424839,-0.357599 0.697265,-0.412109 0.271736,-0.05437 0.553999,-0.0146 0.800781,0.111328 0.249209,0.128922 0.446014,0.336478 0.5625,0.591796 0.116487,0.255258 0.143994,0.541909 0.07813,0.814454 -0.06601,0.272913 -0.221172,0.515482 -0.441406,0.689453 C 19.54938,18.154312 19.278558,18.249124 18.998047,18.25 A 0.75,0.75 0 0 0 18.25,19.001953 0.75,0.75 0 0 0 19.001953,19.75 c 0.616089,-0.0019 1.213818,-0.210041 1.697266,-0.591797 0.483365,-0.381828 0.825908,-0.914986 0.970703,-1.513672 0.144731,-0.598855 0.08384,-1.230673 -0.171875,-1.791015 -0.255714,-0.560481 -0.693043,-1.017704 -1.240235,-1.300782 a 0.750075,0.750075 0 0 0 -0.002,-0.002 c -0.548394,-0.280952 -1.175083,-0.368944 -1.779297,-0.248047 z"
     id="path5" />
</svg>
