<?xml version="1.0" encoding="UTF-8" standalone="no"?>
<svg
   width="24"
   height="24"
   viewBox="0 0 24 24"
   fill="none"
   version="1.1"
   id="svg4"
   sodipodi:docname="message-heart.svg"
   inkscape:version="1.3.2 (091e20e, 2023-11-25)"
   xmlns:inkscape="http://www.inkscape.org/namespaces/inkscape"
   xmlns:sodipodi="http://sodipodi.sourceforge.net/DTD/sodipodi-0.dtd"
   xmlns="http://www.w3.org/2000/svg"
   xmlns:svg="http://www.w3.org/2000/svg">
  <defs
     id="defs4" />
  <sodipodi:namedview
     id="namedview4"
     pagecolor="#505050"
     bordercolor="#eeeeee"
     borderopacity="1"
     inkscape:showpageshadow="0"
     inkscape:pageopacity="0"
     inkscape:pagecheckerboard="0"
     inkscape:deskcolor="#505050"
     inkscape:zoom="9.8333333"
     inkscape:cx="11.949153"
     inkscape:cy="12"
     inkscape:window-width="1504"
     inkscape:window-height="449"
     inkscape:window-x="0"
     inkscape:window-y="25"
     inkscape:window-maximized="0"
     inkscape:current-layer="svg4" />
  <path
     style="color:#000000;fill:#000000;stroke-linecap:round;stroke-linejoin:round;-inkscape-stroke:none"
     d="M 8,8.25 A 0.75,0.75 0 0 0 7.25,9 0.75,0.75 0 0 0 8,9.75 h 8 A 0.75,0.75 0 0 0 16.75,9 0.75,0.75 0 0 0 16,8.25 Z"
     id="path1" />
  <path
     style="color:#000000;fill:#000000;stroke-linecap:round;stroke-linejoin:round;-inkscape-stroke:none"
     d="M 8,12.25 A 0.75,0.75 0 0 0 7.25,13 0.75,0.75 0 0 0 8,13.75 h 3.5 A 0.75,0.75 0 0 0 12.25,13 0.75,0.75 0 0 0 11.5,12.25 Z"
     id="path2" />
  <path
     style="color:#000000;fill:#000000;stroke-linecap:round;stroke-linejoin:round;-inkscape-stroke:none"
     d="M 6,3.25 C 5.0057272,3.25 4.0507135,3.644599 3.3476563,4.3476562 2.644599,5.0507135 2.25,6.0057272 2.25,7 v 8 c 0,0.994235 0.3945809,1.949281 1.0976563,2.652344 C 4.0507035,18.355379 5.0057084,18.75 6,18.75 H 7.25 V 21 a 0.750075,0.750075 0 0 0 1.1367188,0.642578 L 10.865234,20.154297 A 0.75,0.75 0 0 0 11.123047,19.126953 0.75,0.75 0 0 0 10.09375,18.869141 L 8.75,19.675781 V 18 A 0.750075,0.750075 0 0 0 8,17.25 H 6 C 5.4029932,17.25 4.8303747,17.013961 4.4082031,16.591797 3.9860596,16.169661 3.75,15.596963 3.75,15 V 7 C 3.75,6.4029744 3.9860415,5.8303648 4.4082031,5.4082031 4.8303648,4.9860415 5.4029744,4.75 6,4.75 h 12 c 0.596963,0 1.169661,0.2360596 1.591797,0.6582031 C 20.013961,5.8303747 20.25,6.4029932 20.25,7 v 4 A 0.75,0.75 0 0 0 21,11.75 0.75,0.75 0 0 0 21.75,11 V 7 C 21.75,6.0057084 21.355379,5.0507035 20.652344,4.3476562 19.949281,3.6445809 18.994235,3.25 18,3.25 Z"
     id="path3" />
  <path
     style="color:#000000;fill:#000000;stroke-linecap:round;stroke-linejoin:round;-inkscape-stroke:none"
     d="m 16.216797,14.25 c -0.779386,-0.0015 -1.528406,0.301207 -2.087891,0.84375 -0.277353,0.268985 -0.497477,0.591469 -0.648437,0.947266 -0.151117,0.355846 -0.229794,0.738512 -0.230469,1.125 -8.1e-4,0.386533 0.07501,0.768681 0.224609,1.125 0.149266,0.35565 0.369248,0.677658 0.644532,0.947265 l 3.355468,3.296875 a 0.750075,0.750075 0 0 0 1.050782,0 l 3.347656,-3.28125 c 0.277345,-0.269108 0.497565,-0.591541 0.648437,-0.947265 0.150807,-0.355752 0.227841,-0.736734 0.228516,-1.123047 6.74e-4,-0.385891 -0.0754,-0.769277 -0.224609,-1.125 v -0.002 C 22.375723,15.700915 22.15503,15.379027 21.878906,15.109375 21.321478,14.564352 20.5728,14.257327 19.792969,14.255859 c -0.620946,-0.0012 -1.161986,0.32132 -1.664063,0.673829 l 0.173828,0.173828 c -0.08037,-0.07856 -0.212932,-0.05462 -0.300781,-0.123047 -0.08735,0.06766 -0.218808,0.04344 -0.298828,0.121094 l 0.175781,-0.171875 C 17.378098,14.575111 16.837815,14.251169 16.216797,14.25 Z m -0.002,1.5 c 0.389157,7.33e-4 0.760861,0.15384 1.039062,0.425781 l 0.220703,0.216797 a 0.750075,0.750075 0 0 0 1.052735,0.002 l 0.220703,-0.216797 c 0.27929,-0.271032 0.653727,-0.422607 1.042969,-0.421875 0.389167,7.33e-4 0.760691,0.153605 1.039062,0.425782 0.133087,0.129968 0.240382,0.285352 0.3125,0.457031 0.0721,0.17157 0.107747,0.354951 0.107422,0.541015 -3.25e-4,0.186087 -0.03678,0.371721 -0.109375,0.542969 -0.07273,0.171476 -0.179045,0.325587 -0.3125,0.455078 a 0.750075,0.750075 0 0 0 -0.0039,0.002 L 18,20.949219 15.169922,18.169922 a 0.750075,0.750075 0 0 0 0,-0.002 c -0.133196,-0.130203 -0.238566,-0.285525 -0.310547,-0.457032 -0.072,-0.171481 -0.109765,-0.356902 -0.109375,-0.542968 3.25e-4,-0.185912 0.03865,-0.369863 0.111328,-0.541016 0.07264,-0.171202 0.178853,-0.325463 0.3125,-0.455078 0.279315,-0.270856 0.652003,-0.422607 1.041016,-0.421875 z"
     id="path4" />
</svg>
