<?xml version="1.0" encoding="UTF-8" standalone="no"?>
<svg
   width="24"
   height="24"
   viewBox="0 0 24 24"
   fill="none"
   version="1.1"
   id="svg3"
   sodipodi:docname="message-report.svg"
   inkscape:version="1.3.2 (091e20e, 2023-11-25)"
   xmlns:inkscape="http://www.inkscape.org/namespaces/inkscape"
   xmlns:sodipodi="http://sodipodi.sourceforge.net/DTD/sodipodi-0.dtd"
   xmlns="http://www.w3.org/2000/svg"
   xmlns:svg="http://www.w3.org/2000/svg">
  <defs
     id="defs3" />
  <sodipodi:namedview
     id="namedview3"
     pagecolor="#505050"
     bordercolor="#eeeeee"
     borderopacity="1"
     inkscape:showpageshadow="0"
     inkscape:pageopacity="0"
     inkscape:pagecheckerboard="0"
     inkscape:deskcolor="#505050"
     inkscape:zoom="9.8333333"
     inkscape:cx="11.949153"
     inkscape:cy="12"
     inkscape:window-width="1504"
     inkscape:window-height="449"
     inkscape:window-x="0"
     inkscape:window-y="25"
     inkscape:window-maximized="0"
     inkscape:current-layer="svg3" />
  <path
     style="color:#000000;fill:#000000;stroke-linecap:round;stroke-linejoin:round;-inkscape-stroke:none"
     d="M 6,3.25 C 5.0057272,3.25 4.0507135,3.644599 3.3476563,4.3476562 2.644599,5.0507135 2.25,6.0057272 2.25,7 v 8 c 0,0.994235 0.3945809,1.949281 1.0976563,2.652344 C 4.0507035,18.355379 5.0057084,18.75 6,18.75 H 7.25 V 21 a 0.750075,0.750075 0 0 0 1.1367188,0.642578 L 13.207031,18.75 H 18 c 0.994254,0 1.949291,-0.394603 2.652344,-1.097656 C 21.355397,16.949291 21.75,15.994254 21.75,15 V 7 C 21.75,6.0057084 21.355379,5.0507035 20.652344,4.3476562 19.949281,3.6445809 18.994235,3.25 18,3.25 Z m 0,1.5 h 12 c 0.596963,0 1.169661,0.2360596 1.591797,0.6582031 C 20.013961,5.8303747 20.25,6.4029932 20.25,7 v 8 c 0,0.596944 -0.236057,1.169651 -0.658203,1.591797 C 19.169651,17.013943 18.596944,17.25 18,17.25 h -5 a 0.750075,0.750075 0 0 0 -0.386719,0.107422 L 8.75,19.675781 V 18 A 0.750075,0.750075 0 0 0 8,17.25 H 6 C 5.4029932,17.25 4.8303747,17.013961 4.4082031,16.591797 3.9860596,16.169661 3.75,15.596963 3.75,15 V 7 C 3.75,6.4029744 3.9860415,5.8303648 4.4082031,5.4082031 4.8303648,4.9860415 5.4029744,4.75 6,4.75 Z"
     id="path1" />
  <path
     style="color:#000000;fill:#000000;stroke-linecap:round;stroke-linejoin:round;-inkscape-stroke:none"
     d="M 12,7.25 A 0.75,0.75 0 0 0 11.25,8 v 3 A 0.75,0.75 0 0 0 12,11.75 0.75,0.75 0 0 0 12.75,11 V 8 A 0.75,0.75 0 0 0 12,7.25 Z"
     id="path2" />
  <path
     style="color:#000000;fill:#000000;stroke-linecap:round;stroke-linejoin:round;-inkscape-stroke:none"
     d="M 12,13.25 A 0.75,0.75 0 0 0 11.25,14 v 0.0098 a 0.75,0.75 0 0 0 0.75,0.75 0.75,0.75 0 0 0 0.75,-0.75 V 14 A 0.75,0.75 0 0 0 12,13.25 Z"
     id="path3" />
</svg>
