<?xml version="1.0" encoding="UTF-8" standalone="no"?>
<svg
   width="24"
   height="24"
   viewBox="0 0 24 24"
   fill="none"
   version="1.1"
   id="svg7"
   sodipodi:docname="photo-scan.svg"
   inkscape:version="1.3.2 (091e20e, 2023-11-25)"
   xmlns:inkscape="http://www.inkscape.org/namespaces/inkscape"
   xmlns:sodipodi="http://sodipodi.sourceforge.net/DTD/sodipodi-0.dtd"
   xmlns="http://www.w3.org/2000/svg"
   xmlns:svg="http://www.w3.org/2000/svg">
  <defs
     id="defs7" />
  <sodipodi:namedview
     id="namedview7"
     pagecolor="#505050"
     bordercolor="#eeeeee"
     borderopacity="1"
     inkscape:showpageshadow="0"
     inkscape:pageopacity="0"
     inkscape:pagecheckerboard="0"
     inkscape:deskcolor="#505050"
     inkscape:zoom="9.8333333"
     inkscape:cx="11.949153"
     inkscape:cy="12"
     inkscape:window-width="1504"
     inkscape:window-height="449"
     inkscape:window-x="0"
     inkscape:window-y="25"
     inkscape:window-maximized="0"
     inkscape:current-layer="svg7" />
  <path
     style="color:#000000;fill:#000000;stroke-linecap:round;stroke-linejoin:round;-inkscape-stroke:none"
     d="M 15,7.25 A 0.75,0.75 0 0 0 14.25,8 0.75,0.75 0 0 0 15,8.75 h 0.0098 a 0.75,0.75 0 0 0 0.75,-0.75 0.75,0.75 0 0 0 -0.75,-0.75 z"
     id="path1" />
  <path
     style="color:#000000;fill:#000000;stroke-linecap:round;stroke-linejoin:round;-inkscape-stroke:none"
     d="m 9.5,9.2519531 c -0.2574236,0 -0.511947,0.049735 -0.75,0.1484375 C 8.5122311,9.4989754 8.2953697,9.6438728 8.1132813,9.8261719 L 5.46875,12.46875 a 0.75,0.75 0 0 0 0,1.060547 0.75,0.75 0 0 0 1.0625,0 l 2.6425781,-2.642578 c 0.042651,-0.0427 0.0944,-0.07835 0.1503907,-0.101563 0.055707,-0.0231 0.1152251,-0.0332 0.1757812,-0.0332 0.060556,0 0.1200746,0.01011 0.1757813,0.0332 0.05595,0.0232 0.1075997,0.05873 0.1503906,0.101563 l 3.6425781,3.642578 a 0.75,0.75 0 0 0 1.0625,0 0.75,0.75 0 0 0 0,-1.060547 L 10.886719,9.8261719 C 10.70471,9.644001 10.48783,9.498994 10.25,9.4003906 10.011947,9.3016881 9.7574236,9.2519531 9.5,9.2519531 Z"
     id="path2" />
  <path
     style="color:#000000;fill:#000000;stroke-linecap:round;stroke-linejoin:round;-inkscape-stroke:none"
     d="m 15.5,10.251953 c -0.257427,0 -0.512002,0.04977 -0.75,0.148438 -0.237847,0.0986 -0.45471,0.24361 -0.636719,0.425781 L 12.46875,12.46875 a 0.75,0.75 0 0 0 0,1.060547 0.75,0.75 0 0 0 1.0625,0 l 1.642578,-1.642578 c 0.04279,-0.04283 0.09444,-0.07837 0.150391,-0.101563 0.0558,-0.02313 0.115209,-0.0332 0.175781,-0.0332 0.06057,0 0.119979,0.01007 0.175781,0.0332 0.05595,0.0232 0.1076,0.05873 0.150391,0.101563 l 1.642578,1.642578 a 0.75,0.75 0 0 0 1.0625,0 0.75,0.75 0 0 0 0,-1.060547 L 16.886719,10.826172 C 16.70471,10.644001 16.487847,10.498994 16.25,10.400391 16.012002,10.301724 15.757427,10.251953 15.5,10.251953 Z"
     id="path3" />
  <path
     style="color:#000000;fill:#000000;stroke-linecap:round;stroke-linejoin:round;-inkscape-stroke:none"
     d="M 6,3.25 C 5.2709489,3.25 4.5702101,3.5391512 4.0546875,4.0546875 3.5391512,4.5702101 3.25,5.2709489 3.25,6 V 8 A 0.75,0.75 0 0 0 4,8.75 0.75,0.75 0 0 0 4.75,8 V 6 C 4.75,5.6681922 4.8806115,5.349851 5.1152344,5.1152344 5.349851,4.8806115 5.6681922,4.75 6,4.75 H 8 A 0.75,0.75 0 0 0 8.75,4 0.75,0.75 0 0 0 8,3.25 Z"
     id="path4" />
  <path
     style="color:#000000;fill:#000000;stroke-linecap:round;stroke-linejoin:round;-inkscape-stroke:none"
     d="M 4,15.25 A 0.75,0.75 0 0 0 3.25,16 v 2 c 0,0.729032 0.2891807,1.429778 0.8046875,1.945312 C 4.5702164,20.460883 5.2709583,20.75 6,20.75 H 8 A 0.75,0.75 0 0 0 8.75,20 0.75,0.75 0 0 0 8,19.25 H 6 C 5.6681828,19.25 5.3498448,19.119395 5.1152344,18.884766 4.880582,18.650101 4.75,18.331767 4.75,18 V 16 A 0.75,0.75 0 0 0 4,15.25 Z"
     id="path5" />
  <path
     style="color:#000000;fill:#000000;stroke-linecap:round;stroke-linejoin:round;-inkscape-stroke:none"
     d="M 16,3.25 A 0.75,0.75 0 0 0 15.25,4 0.75,0.75 0 0 0 16,4.75 h 2 c 0.331767,0 0.650101,0.130582 0.884766,0.3652344 C 19.119395,5.3498448 19.25,5.6681828 19.25,6 V 8 A 0.75,0.75 0 0 0 20,8.75 0.75,0.75 0 0 0 20.75,8 V 6 C 20.75,5.2709583 20.460883,4.5702164 19.945312,4.0546875 19.429778,3.5391807 18.729032,3.25 18,3.25 Z"
     id="path6" />
  <path
     style="color:#000000;fill:#000000;stroke-linecap:round;stroke-linejoin:round;-inkscape-stroke:none"
     d="M 20,15.25 A 0.75,0.75 0 0 0 19.25,16 v 2 c 0,0.331776 -0.130576,0.650107 -0.365234,0.884766 C 18.650107,19.119424 18.331776,19.25 18,19.25 H 16 A 0.75,0.75 0 0 0 15.25,20 0.75,0.75 0 0 0 16,20.75 h 2 c 0.729023,0 1.429772,-0.289147 1.945312,-0.804688 C 20.460853,19.429772 20.75,18.729023 20.75,18 V 16 A 0.75,0.75 0 0 0 20,15.25 Z"
     id="path7" />
</svg>
