<?xml version="1.0" encoding="UTF-8" standalone="no"?>
<svg
   width="24"
   height="24"
   viewBox="0 0 24 24"
   fill="none"
   version="1.1"
   id="svg5"
   sodipodi:docname="photo-edit.svg"
   inkscape:version="1.3.2 (091e20e, 2023-11-25)"
   xmlns:inkscape="http://www.inkscape.org/namespaces/inkscape"
   xmlns:sodipodi="http://sodipodi.sourceforge.net/DTD/sodipodi-0.dtd"
   xmlns="http://www.w3.org/2000/svg"
   xmlns:svg="http://www.w3.org/2000/svg">
  <defs
     id="defs5" />
  <sodipodi:namedview
     id="namedview5"
     pagecolor="#505050"
     bordercolor="#eeeeee"
     borderopacity="1"
     inkscape:showpageshadow="0"
     inkscape:pageopacity="0"
     inkscape:pagecheckerboard="0"
     inkscape:deskcolor="#505050"
     inkscape:zoom="9.8333333"
     inkscape:cx="11.949153"
     inkscape:cy="12"
     inkscape:window-width="1504"
     inkscape:window-height="449"
     inkscape:window-x="0"
     inkscape:window-y="25"
     inkscape:window-maximized="0"
     inkscape:current-layer="svg5" />
  <path
     style="color:#000000;fill:#000000;stroke-linecap:round;stroke-linejoin:round;-inkscape-stroke:none"
     d="M 15,7.25 A 0.75,0.75 0 0 0 14.25,8 0.75,0.75 0 0 0 15,8.75 h 0.0098 a 0.75,0.75 0 0 0 0.75,-0.75 0.75,0.75 0 0 0 -0.75,-0.75 z"
     id="path1" />
  <path
     style="color:#000000;fill:#000000;stroke-linecap:round;stroke-linejoin:round;-inkscape-stroke:none"
     d="M 7,3.25 C 6.0057272,3.25 5.0507135,3.644599 4.3476562,4.3476562 3.644599,5.0507135 3.25,6.0057272 3.25,7 v 10 c 0,0.994235 0.3945809,1.949281 1.0976562,2.652344 C 5.0507035,20.355379 6.0057084,20.75 7,20.75 h 4 A 0.75,0.75 0 0 0 11.75,20 0.75,0.75 0 0 0 11,19.25 H 7 C 6.4029932,19.25 5.8303747,19.013961 5.4082031,18.591797 4.9860596,18.169661 4.75,17.596963 4.75,17 V 7 C 4.75,6.4029744 4.9860415,5.8303648 5.4082031,5.4082031 5.8303648,4.9860415 6.4029744,4.75 7,4.75 h 10 c 0.596963,0 1.169661,0.2360596 1.591797,0.6582031 C 19.013961,5.8303747 19.25,6.4029932 19.25,7 v 4 A 0.75,0.75 0 0 0 20,11.75 0.75,0.75 0 0 0 20.75,11 V 7 C 20.75,6.0057084 20.355379,5.0507035 19.652344,4.3476562 18.949281,3.6445809 17.994235,3.25 17,3.25 Z"
     id="path2" />
  <path
     style="color:#000000;fill:#000000;stroke-linecap:round;stroke-linejoin:round;-inkscape-stroke:none"
     d="m 9.5,9.5800781 c -0.7334915,0 -1.4445786,0.3256382 -2.0195313,0.8789059 a 0.750075,0.750075 0 0 0 -0.011719,0.0098 l -4,4 a 0.75,0.75 0 0 0 0,1.060547 0.75,0.75 0 0 0 1.0625,0 L 8.5195313,11.541016 C 8.8725777,11.201285 9.1974926,11.080078 9.5,11.080078 c 0.3025074,0 0.627422,0.121207 0.980469,0.460938 l 2.988281,2.988281 a 0.75,0.75 0 0 0 1.0625,0 0.75,0.75 0 0 0 0,-1.060547 l -3,-3 a 0.750075,0.750075 0 0 0 -0.01172,-0.0098 C 10.944579,9.9057163 10.233492,9.5800781 9.5,9.5800781 Z"
     id="path3" />
  <path
     style="color:#000000;fill:#000000;stroke-linecap:round;stroke-linejoin:round;-inkscape-stroke:none"
     d="m 15.779297,11.683594 c -0.475643,0.137284 -0.915058,0.406475 -1.298828,0.77539 a 0.750075,0.750075 0 0 0 -0.01172,0.0098 l -1,1 a 0.75,0.75 0 0 0 0,1.060547 0.75,0.75 0 0 0 1.0625,0 l 0.988281,-0.988281 C 15.75576,13.313931 15.984956,13.185715 16.195312,13.125 a 0.75,0.75 0 0 0 0.511719,-0.929687 0.75,0.75 0 0 0 -0.927734,-0.511719 z"
     id="path4" />
  <path
     style="color:#000000;fill:#000000;stroke-linecap:round;stroke-linejoin:round;-inkscape-stroke:none"
     d="m 19.904297,14.244141 c -0.374241,0 -0.743946,0.07539 -1.089844,0.21875 -0.345879,0.143211 -0.659205,0.352565 -0.923828,0.617187 l -3.417969,3.386719 A 0.750075,0.750075 0 0 0 14.25,19 v 3 A 0.750075,0.750075 0 0 0 15,22.75 h 3 a 0.750075,0.750075 0 0 0 0.533203,-0.222656 l 3.386719,-3.416016 0.002,-0.0039 c 0.263169,-0.263977 0.474533,-0.577342 0.617187,-0.921875 h -0.002 c 0.143355,-0.345898 0.21875,-0.715603 0.21875,-1.089844 0,-0.37424 -0.0754,-0.745899 -0.21875,-1.091797 h 0.002 c -0.143183,-0.345676 -0.354427,-0.659115 -0.61914,-0.923828 -0.264623,-0.264622 -0.577949,-0.473976 -0.923828,-0.617187 -0.345898,-0.143355 -0.717557,-0.21875 -1.091797,-0.21875 z m 0,1.5 c 0.177359,0 0.353877,0.03567 0.517578,0.103515 0.163721,0.06779 0.312123,0.167592 0.4375,0.292969 0.125286,0.125286 0.225153,0.273777 0.292969,0.4375 0.06785,0.163701 0.103515,0.340219 0.103515,0.517578 0,0.177359 -0.03567,0.351924 -0.103515,0.515625 -0.06779,0.163721 -0.167592,0.314076 -0.292969,0.439453 a 0.750075,0.750075 0 0 0 -0.002,0.002 L 17.6875,21.25 H 15.75 v -1.9375 l 3.197266,-3.169922 a 0.750075,0.750075 0 0 0 0.0039,-0.002 c 0.125377,-0.125377 0.273779,-0.22518 0.4375,-0.292969 0.163701,-0.06785 0.338266,-0.103515 0.515625,-0.103515 z"
     id="path5" />
</svg>
