<?xml version="1.0" encoding="UTF-8" standalone="no"?>
<svg
   width="24"
   height="24"
   viewBox="0 0 24 24"
   fill="none"
   version="1.1"
   id="svg6"
   sodipodi:docname="photo-exclamation.svg"
   inkscape:version="1.3.2 (091e20e, 2023-11-25)"
   xmlns:inkscape="http://www.inkscape.org/namespaces/inkscape"
   xmlns:sodipodi="http://sodipodi.sourceforge.net/DTD/sodipodi-0.dtd"
   xmlns="http://www.w3.org/2000/svg"
   xmlns:svg="http://www.w3.org/2000/svg">
  <defs
     id="defs6" />
  <sodipodi:namedview
     id="namedview6"
     pagecolor="#505050"
     bordercolor="#eeeeee"
     borderopacity="1"
     inkscape:showpageshadow="0"
     inkscape:pageopacity="0"
     inkscape:pagecheckerboard="0"
     inkscape:deskcolor="#505050"
     inkscape:zoom="9.8333333"
     inkscape:cx="11.949153"
     inkscape:cy="12"
     inkscape:window-width="1504"
     inkscape:window-height="449"
     inkscape:window-x="0"
     inkscape:window-y="25"
     inkscape:window-maximized="0"
     inkscape:current-layer="svg6" />
  <path
     style="color:#000000;fill:#000000;stroke-linecap:round;stroke-linejoin:round;-inkscape-stroke:none"
     d="M 15,7.25 A 0.75,0.75 0 0 0 14.25,8 0.75,0.75 0 0 0 15,8.75 h 0.0098 a 0.75,0.75 0 0 0 0.75,-0.75 0.75,0.75 0 0 0 -0.75,-0.75 z"
     id="path1" />
  <path
     style="color:#000000;fill:#000000;stroke-linecap:round;stroke-linejoin:round;-inkscape-stroke:none"
     d="M 6,2.25 C 5.0057272,2.25 4.0507135,2.644599 3.3476563,3.3476563 2.644599,4.0507135 2.25,5.0057272 2.25,6 v 12 c 0,0.994235 0.3945809,1.949281 1.0976563,2.652344 C 4.0507035,21.355379 5.0057084,21.75 6,21.75 h 9 A 0.75,0.75 0 0 0 15.75,21 0.75,0.75 0 0 0 15,20.25 H 6 C 5.4029932,20.25 4.8303747,20.013961 4.4082031,19.591797 3.9860596,19.169661 3.75,18.596963 3.75,18 V 6 C 3.75,5.4029744 3.9860415,4.8303648 4.4082031,4.4082031 4.8303648,3.9860415 5.4029744,3.75 6,3.75 h 12 c 0.596963,0 1.169661,0.2360596 1.591797,0.6582031 C 20.013961,4.8303747 20.25,5.4029932 20.25,6 v 6 A 0.75,0.75 0 0 0 21,12.75 0.75,0.75 0 0 0 21.75,12 V 6 C 21.75,5.0057084 21.355379,4.0507035 20.652344,3.3476563 19.949281,2.6445809 18.994235,2.25 18,2.25 Z"
     id="path2" />
  <path
     style="color:#000000;fill:#000000;stroke-linecap:round;stroke-linejoin:round;-inkscape-stroke:none"
     d="m 9.5,9.5800781 c -0.7334915,0 -1.4445786,0.3256382 -2.0195313,0.8789059 a 0.750075,0.750075 0 0 0 -0.011719,0.0098 l -5,5 a 0.75,0.75 0 0 0 0,1.060547 0.75,0.75 0 0 0 1.0625,0 L 8.5195313,11.541016 C 8.8725777,11.201285 9.1974926,11.080078 9.5,11.080078 c 0.3025074,0 0.627422,0.121207 0.980469,0.460938 l 3.988281,3.988281 a 0.75,0.75 0 0 0 1.0625,0 0.75,0.75 0 0 0 0,-1.060547 l -4,-4 a 0.750075,0.750075 0 0 0 -0.01172,-0.0098 C 10.944579,9.9057163 10.233492,9.5800781 9.5,9.5800781 Z"
     id="path3" />
  <path
     style="color:#000000;fill:#000000;stroke-linecap:round;stroke-linejoin:round;-inkscape-stroke:none"
     d="m 15.892578,11.667969 c -0.511075,0.124507 -1.000176,0.394569 -1.412109,0.791015 a 0.750075,0.750075 0 0 0 -0.01172,0.0098 l -1,1 a 0.75,0.75 0 0 0 0,1.0625 0.75,0.75 0 0 0 1.0625,0 l 0.988281,-0.990234 0.0059,-0.0039 c 0.503235,-0.481569 0.917006,-0.554733 1.375,-0.380859 a 0.75,0.75 0 0 0 0.96875,-0.435547 0.75,0.75 0 0 0 -0.435547,-0.966797 c -0.497033,-0.188695 -1.029941,-0.210444 -1.541016,-0.08594 z"
     id="path4" />
  <path
     style="color:#000000;fill:#000000;stroke-linecap:round;stroke-linejoin:round;-inkscape-stroke:none"
     d="M 19,15.25 A 0.75,0.75 0 0 0 18.25,16 v 3 A 0.75,0.75 0 0 0 19,19.75 0.75,0.75 0 0 0 19.75,19 V 16 A 0.75,0.75 0 0 0 19,15.25 Z"
     id="path5" />
  <path
     style="color:#000000;fill:#000000;stroke-linecap:round;stroke-linejoin:round;-inkscape-stroke:none"
     d="M 19,21.25 A 0.75,0.75 0 0 0 18.25,22 v 0.0098 a 0.75,0.75 0 0 0 0.75,0.75 0.75,0.75 0 0 0 0.75,-0.75 V 22 A 0.75,0.75 0 0 0 19,21.25 Z"
     id="path6" />
</svg>
