<?xml version="1.0" encoding="UTF-8" standalone="no"?>
<svg
   width="24"
   height="24"
   viewBox="0 0 24 24"
   fill="none"
   version="1.1"
   id="svg5"
   sodipodi:docname="photo-search.svg"
   inkscape:version="1.3.2 (091e20e, 2023-11-25)"
   xmlns:inkscape="http://www.inkscape.org/namespaces/inkscape"
   xmlns:sodipodi="http://sodipodi.sourceforge.net/DTD/sodipodi-0.dtd"
   xmlns="http://www.w3.org/2000/svg"
   xmlns:svg="http://www.w3.org/2000/svg">
  <defs
     id="defs5" />
  <sodipodi:namedview
     id="namedview5"
     pagecolor="#505050"
     bordercolor="#eeeeee"
     borderopacity="1"
     inkscape:showpageshadow="0"
     inkscape:pageopacity="0"
     inkscape:pagecheckerboard="0"
     inkscape:deskcolor="#505050"
     inkscape:zoom="9.8333333"
     inkscape:cx="11.949153"
     inkscape:cy="12"
     inkscape:window-width="1504"
     inkscape:window-height="449"
     inkscape:window-x="0"
     inkscape:window-y="25"
     inkscape:window-maximized="0"
     inkscape:current-layer="svg5" />
  <path
     style="color:#000000;fill:#000000;stroke-linecap:round;stroke-linejoin:round;-inkscape-stroke:none"
     d="M 15,7.25 A 0.75,0.75 0 0 0 14.25,8 0.75,0.75 0 0 0 15,8.75 h 0.0098 a 0.75,0.75 0 0 0 0.75,-0.75 0.75,0.75 0 0 0 -0.75,-0.75 z"
     id="path1" />
  <path
     style="color:#000000;fill:#000000;stroke-linecap:round;stroke-linejoin:round;-inkscape-stroke:none"
     d="M 6,2.25 C 5.0057272,2.25 4.0507135,2.644599 3.3476563,3.3476563 2.644599,4.0507135 2.25,5.0057272 2.25,6 v 12 c 0,0.994235 0.3945809,1.949281 1.0976563,2.652344 C 4.0507035,21.355379 5.0057084,21.75 6,21.75 h 5.5 A 0.75,0.75 0 0 0 12.25,21 0.75,0.75 0 0 0 11.5,20.25 H 6 C 5.4029932,20.25 4.8303747,20.013961 4.4082031,19.591797 3.9860596,19.169661 3.75,18.596963 3.75,18 V 6 C 3.75,5.4029744 3.9860415,4.8303648 4.4082031,4.4082031 4.8303648,3.9860415 5.4029744,3.75 6,3.75 h 12 c 0.596963,0 1.169661,0.2360596 1.591797,0.6582031 C 20.013961,4.8303747 20.25,5.4029932 20.25,6 v 5.5 A 0.75,0.75 0 0 0 21,12.25 0.75,0.75 0 0 0 21.75,11.5 V 6 C 21.75,5.0057084 21.355379,4.0507035 20.652344,3.3476563 19.949281,2.6445809 18.994235,2.25 18,2.25 Z"
     id="path2" />
  <path
     style="color:#000000;fill:#000000;stroke-linecap:round;stroke-linejoin:round;-inkscape-stroke:none"
     d="m 18,14.25 c -0.994254,0 -1.949291,0.394603 -2.652344,1.097656 C 14.644603,16.050709 14.25,17.005746 14.25,18 c 0,0.994254 0.394603,1.949291 1.097656,2.652344 C 16.050709,21.355397 17.005746,21.75 18,21.75 c 0.994254,0 1.949291,-0.394603 2.652344,-1.097656 C 21.355397,19.949291 21.75,18.994254 21.75,18 21.75,17.005746 21.355397,16.050709 20.652344,15.347656 19.949291,14.644603 18.994254,14.25 18,14.25 Z m 0,1.5 c 0.596944,0 1.169651,0.236057 1.591797,0.658203 C 20.013943,16.830349 20.25,17.403056 20.25,18 c 0,0.596944 -0.236057,1.169651 -0.658203,1.591797 C 19.169651,20.013943 18.596944,20.25 18,20.25 17.403056,20.25 16.830349,20.013943 16.408203,19.591797 15.986057,19.169651 15.75,18.596944 15.75,18 c 0,-0.596944 0.236057,-1.169651 0.658203,-1.591797 C 16.830349,15.986057 17.403056,15.75 18,15.75 Z"
     id="path3" />
  <path
     style="color:#000000;fill:#000000;stroke-linecap:round;stroke-linejoin:round;-inkscape-stroke:none"
     d="m 20.199219,19.451172 a 0.75,0.75 0 0 0 -0.529297,0.21875 0.75,0.75 0 0 0 0,1.060547 l 1.798828,1.800781 a 0.75,0.75 0 0 0 1.0625,0 0.75,0.75 0 0 0 0,-1.060547 l -1.800781,-1.800781 a 0.75,0.75 0 0 0 -0.53125,-0.21875 z"
     id="path4" />
  <path
     style="color:#000000;fill:#000000;stroke-linecap:round;stroke-linejoin:round;-inkscape-stroke:none"
     d="m 9.5,9.5800781 c -0.7334915,0 -1.4445786,0.3256382 -2.0195313,0.8789059 a 0.750075,0.750075 0 0 0 -0.011719,0.0098 l -5,5 a 0.75,0.75 0 0 0 0,1.060547 0.75,0.75 0 0 0 1.0625,0 L 8.5195313,11.541016 C 8.8725777,11.201285 9.1974926,11.080078 9.5,11.080078 c 0.3025074,0 0.627422,0.121207 0.980469,0.460938 l 1.988281,1.988281 a 0.75,0.75 0 0 0 1.0625,0 0.75,0.75 0 0 0 0,-1.060547 l -2,-2 a 0.750075,0.750075 0 0 0 -0.01172,-0.0098 C 10.944579,9.9057163 10.233492,9.5800781 9.5,9.5800781 Z"
     id="path5" />
</svg>
