<?xml version="1.0" encoding="UTF-8" standalone="no"?>
<svg
   width="24"
   height="24"
   viewBox="0 0 24 24"
   fill="none"
   version="1.1"
   id="svg3"
   sodipodi:docname="refresh-off.svg"
   inkscape:version="1.3.2 (091e20e, 2023-11-25)"
   xmlns:inkscape="http://www.inkscape.org/namespaces/inkscape"
   xmlns:sodipodi="http://sodipodi.sourceforge.net/DTD/sodipodi-0.dtd"
   xmlns="http://www.w3.org/2000/svg"
   xmlns:svg="http://www.w3.org/2000/svg">
  <defs
     id="defs3" />
  <sodipodi:namedview
     id="namedview3"
     pagecolor="#505050"
     bordercolor="#eeeeee"
     borderopacity="1"
     inkscape:showpageshadow="0"
     inkscape:pageopacity="0"
     inkscape:pagecheckerboard="0"
     inkscape:deskcolor="#505050"
     inkscape:zoom="9.8333333"
     inkscape:cx="11.949153"
     inkscape:cy="12"
     inkscape:window-width="1504"
     inkscape:window-height="449"
     inkscape:window-x="0"
     inkscape:window-y="25"
     inkscape:window-maximized="0"
     inkscape:current-layer="svg3" />
  <path
     style="color:#000000;fill:#000000;stroke-linecap:round;stroke-linejoin:round;-inkscape-stroke:none"
     d="M 12.408203,3.2753906 C 11.042915,3.2088416 9.679958,3.4596669 8.4277344,4.0078125 A 0.75,0.75 0 0 0 8.0410156,4.9960937 0.75,0.75 0 0 0 9.0292969,5.3828125 c 1.0400141,-0.4552534 2.1727311,-0.6646458 3.3066411,-0.609375 1.134015,0.055281 2.239642,0.373474 3.230468,0.9277344 0.990809,0.5542597 1.837947,1.3301913 2.478516,2.2675781 0.640531,0.937331 1.056535,2.010251 1.21289,3.134766 a 0.75,0.75 0 0 0 0.845704,0.638672 0.75,0.75 0 0 0 0.638671,-0.845704 C 20.553943,9.5426215 20.054471,8.2516938 19.283203,7.1230469 18.511973,5.9944557 17.489864,5.0579841 16.296875,4.390625 15.103904,3.7232866 13.773585,3.3419499 12.408203,3.2753906 Z M 4,4.25 A 0.75,0.75 0 0 0 3.25,5 V 9 A 0.750075,0.750075 0 0 0 4,9.75 H 8 A 0.75,0.75 0 0 0 8.75,9 0.75,0.75 0 0 0 8,8.25 H 5.8964844 C 6.1996161,7.7734404 6.4354296,7.2517895 6.8417969,6.8554687 A 0.75,0.75 0 0 0 6.8554687,5.7949219 0.75,0.75 0 0 0 5.7949219,5.78125 C 5.3464818,6.2186033 5.0946201,6.8010237 4.75,7.3203125 V 5 A 0.75,0.75 0 0 0 4,4.25 Z"
     id="path1" />
  <path
     style="color:#000000;fill:#000000;stroke-linecap:round;stroke-linejoin:round;-inkscape-stroke:none"
     d="m 3.8964844,12.257813 a 0.75,0.75 0 0 0 -0.6386719,0.845703 c 0.2251872,1.620482 0.8952329,3.147511 1.9355469,4.410156 1.040326,1.262673 2.4095859,2.211204 3.9570312,2.742187 1.5474564,0.530995 3.2122834,0.623432 4.8085934,0.265625 1.596332,-0.35792 3.061725,-1.152221 4.234375,-2.292968 a 0.75,0.75 0 0 0 0.01563,-1.060547 0.75,0.75 0 0 0 -1.060547,-0.01367 c -0.973947,0.94745 -2.191712,1.605065 -3.517578,1.902344 -1.325886,0.297192 -2.70894,0.222254 -3.9941402,-0.21875 C 8.3514669,18.396875 7.2136615,17.607318 6.3496094,16.558594 5.4855252,15.509841 4.9292199,14.242399 4.7421875,12.896484 A 0.75,0.75 0 0 0 3.8964844,12.257813 Z M 19,14.25 A 0.75,0.75 0 0 0 18.25,15 0.75,0.75 0 0 0 19,15.75 h 0.25 V 16 A 0.75,0.75 0 0 0 20,16.75 0.75,0.75 0 0 0 20.75,16 V 15 A 0.750075,0.750075 0 0 0 20,14.25 Z"
     id="path2" />
  <path
     style="color:#000000;fill:#000000;stroke-linecap:round;stroke-linejoin:round;-inkscape-stroke:none"
     d="m 3,2.25 a 0.75,0.75 0 0 0 -0.53125,0.21875 0.75,0.75 0 0 0 0,1.0625 l 18,18 a 0.75,0.75 0 0 0 1.0625,0 0.75,0.75 0 0 0 0,-1.0625 l -18,-18 A 0.75,0.75 0 0 0 3,2.25 Z"
     id="path3" />
</svg>
