<?xml version="1.0" encoding="UTF-8" standalone="no"?>
<svg
   width="24"
   height="24"
   viewBox="0 0 24 24"
   fill="none"
   version="1.1"
   id="svg4"
   sodipodi:docname="refresh-alert.svg"
   inkscape:version="1.3.2 (091e20e, 2023-11-25)"
   xmlns:inkscape="http://www.inkscape.org/namespaces/inkscape"
   xmlns:sodipodi="http://sodipodi.sourceforge.net/DTD/sodipodi-0.dtd"
   xmlns="http://www.w3.org/2000/svg"
   xmlns:svg="http://www.w3.org/2000/svg">
  <defs
     id="defs4" />
  <sodipodi:namedview
     id="namedview4"
     pagecolor="#505050"
     bordercolor="#eeeeee"
     borderopacity="1"
     inkscape:showpageshadow="0"
     inkscape:pageopacity="0"
     inkscape:pagecheckerboard="0"
     inkscape:deskcolor="#505050"
     inkscape:zoom="9.8333333"
     inkscape:cx="11.949153"
     inkscape:cy="12"
     inkscape:window-width="1504"
     inkscape:window-height="449"
     inkscape:window-x="0"
     inkscape:window-y="25"
     inkscape:window-maximized="0"
     inkscape:current-layer="svg4" />
  <path
     style="color:#000000;fill:#000000;stroke-linecap:round;stroke-linejoin:round;-inkscape-stroke:none"
     d="M 13.109375,3.3378906 C 11.184238,3.0894943 9.2315511,3.4801641 7.5507812,4.4511719 6.3905741,5.1214347 5.4949764,6.1056976 4.75,7.2011719 V 5 A 0.75,0.75 0 0 0 4,4.25 0.75,0.75 0 0 0 3.25,5 V 9 A 0.750075,0.750075 0 0 0 4,9.75 H 8 A 0.75,0.75 0 0 0 8.75,9 0.75,0.75 0 0 0 8,8.25 H 5.8398437 C 6.4726195,7.2464275 7.2628399,6.3496287 8.3007813,5.75 9.6968483,4.9434696 11.318909,4.6198486 12.917969,4.8261719 c 1.599056,0.2063319 3.084878,0.9319138 4.230468,2.0664062 1.145668,1.1344696 1.887403,2.6139043 2.109375,4.2109379 a 0.75,0.75 0 0 0 0.845704,0.638672 0.75,0.75 0 0 0 0.638671,-0.845704 C 20.474961,8.9738611 19.584408,7.1920198 18.205078,5.8261719 16.825871,4.4603268 15.034515,3.5862982 13.109375,3.3378906 Z"
     id="path1" />
  <path
     style="color:#000000;fill:#000000;stroke-linecap:round;stroke-linejoin:round;-inkscape-stroke:none"
     d="m 3.8964844,12.257813 a 0.75,0.75 0 0 0 -0.6386719,0.845703 c 0.2671883,1.922628 1.1578867,3.704451 2.5371094,5.070312 1.3792424,1.365881 3.1705851,2.239947 5.0957031,2.488281 1.92515,0.248442 3.877849,-0.142351 5.558594,-1.113281 1.160174,-0.670283 2.055797,-1.654511 2.800781,-2.75 V 19 A 0.75,0.75 0 0 0 20,19.75 0.75,0.75 0 0 0 20.75,19 V 15 A 0.750075,0.750075 0 0 0 20,14.25 H 16 A 0.75,0.75 0 0 0 15.25,15 0.75,0.75 0 0 0 16,15.75 h 2.160156 c -0.632768,1.003571 -1.42299,1.900333 -2.460937,2.5 -1.396052,0.806469 -3.018141,1.130186 -4.617188,0.923828 C 9.4830327,18.967563 7.9971776,18.241939 6.8515625,17.107422 5.7059277,15.972886 4.9641187,14.493453 4.7421875,12.896484 A 0.75,0.75 0 0 0 3.8964844,12.257813 Z"
     id="path2" />
  <path
     style="color:#000000;fill:#000000;stroke-linecap:round;stroke-linejoin:round;-inkscape-stroke:none"
     d="M 12,8.25 A 0.75,0.75 0 0 0 11.25,9 v 3 A 0.75,0.75 0 0 0 12,12.75 0.75,0.75 0 0 0 12.75,12 V 9 A 0.75,0.75 0 0 0 12,8.25 Z"
     id="path3" />
  <path
     style="color:#000000;fill:#000000;stroke-linecap:round;stroke-linejoin:round;-inkscape-stroke:none"
     d="M 12,14.25 A 0.75,0.75 0 0 0 11.25,15 0.75,0.75 0 0 0 12,15.75 h 0.0098 a 0.75,0.75 0 0 0 0.75,-0.75 0.75,0.75 0 0 0 -0.75,-0.75 z"
     id="path4" />
</svg>
