<?xml version="1.0" encoding="UTF-8" standalone="no"?>
<svg
   width="24"
   height="24"
   viewBox="0 0 24 24"
   fill="none"
   version="1.1"
   id="svg7"
   sodipodi:docname="report.svg"
   inkscape:version="1.3.2 (091e20e, 2023-11-25)"
   xmlns:inkscape="http://www.inkscape.org/namespaces/inkscape"
   xmlns:sodipodi="http://sodipodi.sourceforge.net/DTD/sodipodi-0.dtd"
   xmlns="http://www.w3.org/2000/svg"
   xmlns:svg="http://www.w3.org/2000/svg">
  <defs
     id="defs7" />
  <sodipodi:namedview
     id="namedview7"
     pagecolor="#505050"
     bordercolor="#eeeeee"
     borderopacity="1"
     inkscape:showpageshadow="0"
     inkscape:pageopacity="0"
     inkscape:pagecheckerboard="0"
     inkscape:deskcolor="#505050"
     inkscape:zoom="9.8333333"
     inkscape:cx="11.949153"
     inkscape:cy="12"
     inkscape:window-width="1504"
     inkscape:window-height="449"
     inkscape:window-x="0"
     inkscape:window-y="25"
     inkscape:window-maximized="0"
     inkscape:current-layer="svg7" />
  <path
     style="color:#000000;fill:#000000;stroke-linecap:round;stroke-linejoin:round;-inkscape-stroke:none"
     d="M 6,4.25 C 5.2709489,4.25 4.5702101,4.5391512 4.0546875,5.0546875 3.5391512,5.5702101 3.25,6.2709489 3.25,7 v 12 c 0,0.729032 0.2891807,1.429778 0.8046875,1.945312 C 4.5702164,21.460883 5.2709583,21.75 6,21.75 h 5.697266 a 0.75,0.75 0 0 0 0.75,-0.75 0.75,0.75 0 0 0 -0.75,-0.75 H 6 C 5.6681828,20.25 5.3498448,20.119395 5.1152344,19.884766 4.880582,19.650101 4.75,19.331767 4.75,19 V 7 C 4.75,6.6681922 4.8806115,6.349851 5.1152344,6.1152344 5.349851,5.8806115 5.6681922,5.75 6,5.75 H 8 A 0.75,0.75 0 0 0 8.75,5 0.75,0.75 0 0 0 8,4.25 Z"
     id="path1" />
  <path
     style="color:#000000;fill:#000000;stroke-linecap:round;stroke-linejoin:round;-inkscape-stroke:none"
     d="M 18,13.25 A 0.75,0.75 0 0 0 17.25,14 v 4 A 0.750075,0.750075 0 0 0 18,18.75 h 4 A 0.75,0.75 0 0 0 22.75,18 0.75,0.75 0 0 0 22,17.25 H 18.75 V 14 A 0.75,0.75 0 0 0 18,13.25 Z"
     id="path2" />
  <path
     style="color:#000000;fill:#000000;stroke-linecap:round;stroke-linejoin:round;-inkscape-stroke:none"
     d="M 14,4.25 A 0.75,0.75 0 0 0 13.25,5 0.75,0.75 0 0 0 14,5.75 h 2 c 0.331767,0 0.650101,0.130582 0.884766,0.3652344 C 17.119395,6.3498448 17.25,6.6681828 17.25,7 v 4 A 0.75,0.75 0 0 0 18,11.75 0.75,0.75 0 0 0 18.75,11 V 7 C 18.75,6.2709583 18.460883,5.5702164 17.945312,5.0546875 17.429778,4.5391807 16.729032,4.25 16,4.25 Z"
     id="path3" />
  <path
     style="color:#000000;fill:#000000;stroke-linecap:round;stroke-linejoin:round;-inkscape-stroke:none"
     d="M 10,2.25 C 9.2709489,2.25 8.5702101,2.5391512 8.0546875,3.0546875 7.5391512,3.5702101 7.25,4.2709489 7.25,5 7.25,5.7290511 7.5391512,6.4297899 8.0546875,6.9453125 8.5702101,7.4608488 9.2709489,7.75 10,7.75 h 2 c 0.729032,0 1.429778,-0.2891807 1.945313,-0.8046875 C 14.460883,6.4297836 14.75,5.7290417 14.75,5 14.75,4.2709583 14.460883,3.5702164 13.945313,3.0546875 13.429778,2.5391807 12.729032,2.25 12,2.25 Z m 0,1.5 h 2 c 0.331767,0 0.650101,0.130582 0.884766,0.3652344 C 13.119395,4.3498448 13.25,4.6681828 13.25,5 13.25,5.3318172 13.119395,5.6501552 12.884766,5.8847656 12.650101,6.119418 12.331767,6.25 12,6.25 H 10 C 9.6681922,6.25 9.349851,6.1193885 9.1152344,5.8847656 8.8806115,5.650149 8.75,5.3318078 8.75,5 8.75,4.6681922 8.8806115,4.349851 9.1152344,4.1152344 9.349851,3.8806115 9.6681922,3.75 10,3.75 Z"
     id="path4" />
  <path
     style="color:#000000;fill:#000000;stroke-linecap:round;stroke-linejoin:round;-inkscape-stroke:none"
     d="m 18,13.25 c -1.259504,0 -2.468812,0.499943 -3.359375,1.390625 C 13.749943,15.531188 13.25,16.740496 13.25,18 c 0,1.259504 0.499943,2.468812 1.390625,3.359375 C 15.531188,22.250057 16.740496,22.75 18,22.75 c 1.259504,0 2.468812,-0.499943 3.359375,-1.390625 C 22.250057,20.468812 22.75,19.259504 22.75,18 22.75,16.740496 22.250057,15.531188 21.359375,14.640625 20.468812,13.749943 19.259504,13.25 18,13.25 Z m 0,1.5 c 0.862294,0 1.689192,0.341455 2.298828,0.951172 C 20.908545,16.310808 21.25,17.137706 21.25,18 c 0,0.862294 -0.341455,1.689192 -0.951172,2.298828 C 19.689192,20.908545 18.862294,21.25 18,21.25 17.137706,21.25 16.310808,20.908545 15.701172,20.298828 15.091455,19.689192 14.75,18.862294 14.75,18 c 0,-0.862294 0.341455,-1.689192 0.951172,-2.298828 C 16.310808,15.091455 17.137706,14.75 18,14.75 Z"
     id="path5" />
  <path
     style="color:#000000;fill:#000000;stroke-linecap:round;stroke-linejoin:round;-inkscape-stroke:none"
     d="M 8,10.25 A 0.75,0.75 0 0 0 7.25,11 0.75,0.75 0 0 0 8,11.75 h 4 A 0.75,0.75 0 0 0 12.75,11 0.75,0.75 0 0 0 12,10.25 Z"
     id="path6" />
  <path
     style="color:#000000;fill:#000000;stroke-linecap:round;stroke-linejoin:round;-inkscape-stroke:none"
     d="M 8,14.25 A 0.75,0.75 0 0 0 7.25,15 0.75,0.75 0 0 0 8,15.75 h 3 A 0.75,0.75 0 0 0 11.75,15 0.75,0.75 0 0 0 11,14.25 Z"
     id="path7" />
</svg>
