<?xml version="1.0" encoding="UTF-8" standalone="no"?>
<svg
   width="24"
   height="24"
   viewBox="0 0 24 24"
   fill="none"
   version="1.1"
   id="svg2"
   sodipodi:docname="search.svg"
   inkscape:version="1.3.2 (091e20e, 2023-11-25)"
   xmlns:inkscape="http://www.inkscape.org/namespaces/inkscape"
   xmlns:sodipodi="http://sodipodi.sourceforge.net/DTD/sodipodi-0.dtd"
   xmlns="http://www.w3.org/2000/svg"
   xmlns:svg="http://www.w3.org/2000/svg">
  <defs
     id="defs2" />
  <sodipodi:namedview
     id="namedview2"
     pagecolor="#505050"
     bordercolor="#eeeeee"
     borderopacity="1"
     inkscape:showpageshadow="0"
     inkscape:pageopacity="0"
     inkscape:pagecheckerboard="0"
     inkscape:deskcolor="#505050"
     inkscape:zoom="9.8333333"
     inkscape:cx="11.949153"
     inkscape:cy="12"
     inkscape:window-width="1504"
     inkscape:window-height="449"
     inkscape:window-x="0"
     inkscape:window-y="25"
     inkscape:window-maximized="0"
     inkscape:current-layer="svg2" />
  <path
     style="color:#000000;fill:#000000;stroke-linecap:round;stroke-linejoin:round;-inkscape-stroke:none"
     d="M 10,2.25 C 8.9822686,2.25 7.9754196,2.4503776 7.0351562,2.8398438 6.0948991,3.2293184 5.2391813,3.7998812 4.5195312,4.5195312 3.7998812,5.2391813 3.2293184,6.0948991 2.8398438,7.0351562 2.4503776,7.9754196 2.25,8.9822686 2.25,10 c 0,1.017776 0.2003847,2.024575 0.5898438,2.964844 0.3894811,0.940295 0.9600554,1.796004 1.6796874,2.515625 0.7196674,0.719767 1.5753779,1.290206 2.515625,1.679687 C 7.9753703,17.549513 8.9822468,17.75 10,17.75 c 1.017798,0 2.024625,-0.200494 2.964844,-0.589844 0.940285,-0.389488 1.795986,-0.959938 2.515625,-1.679687 0.719749,-0.719639 1.290199,-1.57534 1.679687,-2.515625 C 17.549506,12.024625 17.75,11.017798 17.75,10 17.75,8.9822468 17.549513,7.9753703 17.160156,7.0351562 16.770675,6.0949091 16.200236,5.2391986 15.480469,4.5195312 14.760848,3.7998992 13.905139,3.2293249 12.964844,2.8398438 12.024575,2.4503847 11.017776,2.25 10,2.25 Z m 0,1.5 c 0.820822,0 1.634248,0.1624623 2.392578,0.4765625 0.758304,0.3140982 1.446966,0.773129 2.027344,1.3535156 0.580432,0.5803513 1.039398,1.2690326 1.353516,2.0273438 C 16.08748,8.3657662 16.25,9.179255 16.25,10 c 0,0.8208 -0.162513,1.634199 -0.476562,2.392578 -0.314112,0.758314 -0.773066,1.446983 -1.353516,2.027344 -0.580361,0.58045 -1.26903,1.039404 -2.027344,1.353516 C 11.634199,16.087487 10.8208,16.25 10,16.25 9.179255,16.25 8.3657662,16.08748 7.6074219,15.773438 6.8491107,15.45932 6.1604294,15.000354 5.5800781,14.419922 4.9996915,13.839544 4.5406607,13.150882 4.2265625,12.392578 3.9124623,11.634248 3.75,10.820822 3.75,10 3.75,9.1792333 3.9124694,8.3657169 4.2265625,7.6074219 4.5406671,6.8491207 4.9997095,6.1604468 5.5800781,5.5800781 6.1604468,4.9997095 6.8491207,4.5406671 7.6074219,4.2265625 8.3657169,3.9124694 9.1792333,3.75 10,3.75 Z"
     id="path1" />
  <path
     style="color:#000000;fill:#000000;stroke-linecap:round;stroke-linejoin:round;-inkscape-stroke:none"
     d="m 15,14.25 a 0.75,0.75 0 0 0 -0.53125,0.21875 0.75,0.75 0 0 0 0,1.0625 l 6,6 a 0.75,0.75 0 0 0 1.0625,0 0.75,0.75 0 0 0 0,-1.0625 l -6,-6 A 0.75,0.75 0 0 0 15,14.25 Z"
     id="path2" />
</svg>
