<?xml version="1.0" encoding="UTF-8" standalone="no"?>
<svg
   width="24"
   height="24"
   viewBox="0 0 24 24"
   fill="none"
   version="1.1"
   id="svg2"
   sodipodi:docname="send.svg"
   inkscape:version="1.3.2 (091e20e, 2023-11-25)"
   xmlns:inkscape="http://www.inkscape.org/namespaces/inkscape"
   xmlns:sodipodi="http://sodipodi.sourceforge.net/DTD/sodipodi-0.dtd"
   xmlns="http://www.w3.org/2000/svg"
   xmlns:svg="http://www.w3.org/2000/svg">
  <defs
     id="defs2" />
  <sodipodi:namedview
     id="namedview2"
     pagecolor="#505050"
     bordercolor="#eeeeee"
     borderopacity="1"
     inkscape:showpageshadow="0"
     inkscape:pageopacity="0"
     inkscape:pagecheckerboard="0"
     inkscape:deskcolor="#505050"
     inkscape:zoom="9.8333333"
     inkscape:cx="11.949153"
     inkscape:cy="12"
     inkscape:window-width="1504"
     inkscape:window-height="449"
     inkscape:window-x="0"
     inkscape:window-y="25"
     inkscape:window-maximized="0"
     inkscape:current-layer="svg2" />
  <path
     style="color:#000000;fill:#000000;stroke-linecap:round;stroke-linejoin:round;-inkscape-stroke:none"
     d="m 21,2.25 a 0.75,0.75 0 0 0 -0.53125,0.21875 l -11,11 a 0.75,0.75 0 0 0 0,1.0625 0.75,0.75 0 0 0 1.0625,0 l 11,-11 a 0.75,0.75 0 0 0 0,-1.0625 A 0.75,0.75 0 0 0 21,2.25 Z"
     id="path1" />
  <path
     style="color:#000000;fill:#000000;stroke-linecap:round;stroke-linejoin:round;-inkscape-stroke:none"
     d="m 20.746094,2.2949219 -18.0000002,6.5 A 0.750075,0.750075 0 0 0 2.6875,8.8183594 C 2.4612336,8.9220392 2.2691748,9.0893692 2.1347656,9.2988281 2.000352,9.5082704 1.9296875,9.7511178 1.9296875,10 c 0,0.248889 0.070846,0.491847 0.2050781,0.701172 a 0.750075,0.750075 0 0 0 0,0.002 c 0.1344599,0.209443 0.326771,0.374904 0.5527344,0.478516 l 6.7539063,3.376953 3.3769527,6.753906 c 0.103563,0.225762 0.270627,0.418123 0.480469,0.552734 0.209126,0.134068 0.451998,0.205078 0.701172,0.205078 0.249174,0 0.492214,-0.07127 0.701172,-0.205078 a 0.750075,0.750075 0 0 0 0.002,0 c 0.209588,-0.1346 0.374953,-0.326972 0.478516,-0.552734 a 0.750075,0.750075 0 0 0 0.02344,-0.05859 l 6.5,-17.9999997 A 0.750075,0.750075 0 0 0 20.746094,2.2949219 Z M 19.751953,4.2480469 13.96875,20.263672 10.669922,13.664063 A 0.750075,0.750075 0 0 0 10.335938,13.330078 L 3.7363281,10.03125 Z"
     id="path2" />
</svg>
