<?xml version="1.0" encoding="UTF-8" standalone="no"?>
<svg
   width="24"
   height="24"
   viewBox="0 0 24 24"
   fill="none"
   version="1.1"
   id="svg4"
   sodipodi:docname="settings-search.svg"
   inkscape:version="1.3.2 (091e20e, 2023-11-25)"
   xmlns:inkscape="http://www.inkscape.org/namespaces/inkscape"
   xmlns:sodipodi="http://sodipodi.sourceforge.net/DTD/sodipodi-0.dtd"
   xmlns="http://www.w3.org/2000/svg"
   xmlns:svg="http://www.w3.org/2000/svg">
  <defs
     id="defs4" />
  <sodipodi:namedview
     id="namedview4"
     pagecolor="#505050"
     bordercolor="#eeeeee"
     borderopacity="1"
     inkscape:showpageshadow="0"
     inkscape:pageopacity="0"
     inkscape:pagecheckerboard="0"
     inkscape:deskcolor="#505050"
     inkscape:zoom="9.8333333"
     inkscape:cx="11.949153"
     inkscape:cy="12"
     inkscape:window-width="1504"
     inkscape:window-height="449"
     inkscape:window-x="0"
     inkscape:window-y="25"
     inkscape:window-maximized="0"
     inkscape:current-layer="svg4" />
  <path
     style="color:#000000;fill:#000000;stroke-linecap:round;stroke-linejoin:round;-inkscape-stroke:none"
     d="M 12,2.25 C 10.968727,2.25 9.8878872,2.9362231 9.5957031,4.140625 9.4342157,4.8047128 8.7289762,5.0967644 8.1425781,4.7402344 v 0.00195 C 7.0837972,4.0975929 5.8347112,4.37605 5.1054687,5.1054687 4.3762263,5.8348875 4.0974396,7.0842313 4.7421875,8.1425781 4.8220336,8.2735359 4.8709589,8.4213201 4.8828125,8.5742188 4.8946678,8.72714 4.869244,8.8798067 4.8105469,9.0214844 4.7518293,9.1631977 4.6614417,9.2889503 4.5449219,9.3886719 4.4284149,9.4883937 4.2896561,9.5596035 4.140625,9.5957031 2.9362231,9.8878872 2.25,10.968727 2.25,12 c 0,1.031273 0.6862231,2.112113 1.890625,2.404297 0.1489016,0.03621 0.2859063,0.107315 0.4023437,0.207031 0.1164184,0.09975 0.2069881,0.223629 0.265625,0.365235 0.058623,0.141571 0.084093,0.296495 0.072266,0.449218 -0.011829,0.152873 -0.058863,0.300587 -0.1386719,0.431641 -0.6445946,1.058781 -0.3661375,2.307867 0.3632812,3.037109 0.7294188,0.729243 1.9787626,1.008029 3.0371094,0.363281 0.1309712,-0.07985 0.2787228,-0.128758 0.4316407,-0.140625 0.1527216,-0.01185 0.3054589,0.01351 0.4472656,0.07227 a 0.750075,0.750075 0 0 0 0.00195,0 c 0.1414174,0.05854 0.2654515,0.149045 0.3652344,0.265625 0.099682,0.11645 0.1709295,0.255257 0.2070312,0.404297 l -0.00391,-0.01563 c 0.1019064,0.46329 0.3395469,0.886652 0.6796871,1.216797 0.340275,0.33028 0.77028,0.552661 1.236329,0.640625 a 0.75,0.75 0 0 0 0.875,-0.597656 0.75,0.75 0 0 0 -0.597657,-0.875 c -0.17715,-0.03344 -0.341178,-0.118421 -0.470703,-0.244141 -0.129459,-0.125655 -0.219119,-0.286982 -0.257812,-0.462891 a 0.750075,0.750075 0 0 0 -0.002,-0.01563 c -0.0917,-0.37856 -0.272054,-0.72944 -0.525391,-1.02539 C 10.2761,18.184649 9.9558052,17.951796 9.5957031,17.802734 9.2359903,17.653691 8.8475022,17.592898 8.4589844,17.623047 8.0706627,17.65318 7.6938565,17.773817 7.3613281,17.976562 6.8766765,18.271814 6.4708459,18.138741 6.1660156,17.833984 5.8611854,17.529228 5.728033,17.121936 6.0234375,16.636719 6.2258286,16.304373 6.3469217,15.929142 6.3769531,15.541016 6.4070061,15.152939 6.3442293,14.763924 6.1953125,14.404297 6.0464096,14.044703 5.8150925,13.723951 5.5195312,13.470703 5.2240091,13.21762 4.8723585,13.037298 4.4941406,12.945313 3.9425443,12.811497 3.75,12.430726 3.75,12 c 0,-0.430726 0.1925443,-0.811497 0.7441406,-0.945312 0.3785684,-0.0917 0.729458,-0.272093 1.0253906,-0.525391 C 5.815451,10.276039 6.0481834,9.9555093 6.1972656,9.5957031 6.3463483,9.2358613 6.4070578,8.8473026 6.3769531,8.4589844 6.3468467,8.0706436 6.2261911,7.6938699 6.0234375,7.3613281 5.7281863,6.8766765 5.8612591,6.4708459 6.1660156,6.1660156 6.4707722,5.8611854 6.8780637,5.728033 7.3632812,6.0234375 8.7768812,6.8829063 10.664175,6.1000505 11.054688,4.4941406 11.188503,3.9425443 11.569274,3.75 12,3.75 c 0.430726,0 0.811497,0.1925443 0.945313,0.7441406 0.0917,0.3785684 0.272112,0.7294642 0.52539,1.0253906 0.253269,0.2959156 0.573741,0.5286566 0.933594,0.6777344 0.359865,0.1491279 0.748403,0.2097942 1.136719,0.1796875 0.388332,-0.030108 0.765147,-0.1508259 1.097656,-0.3535156 0.484652,-0.2952512 0.890482,-0.1621784 1.195312,0.1425781 0.304831,0.3047566 0.437983,0.7120481 0.142578,1.1972656 -0.202425,0.3323447 -0.323512,0.7074896 -0.353515,1.0957032 -0.02999,0.3880549 0.03289,0.7772353 0.18164,1.1367187 0.1489,0.3594951 0.380132,0.6803249 0.675782,0.9335939 0.295526,0.253134 0.647119,0.433406 1.02539,0.525391 0.457409,0.11121 0.649883,0.383278 0.722657,0.728515 a 0.75,0.75 0 0 0 0.888671,0.578125 0.75,0.75 0 0 0 0.578125,-0.888672 C 21.518086,10.631894 20.857965,9.8384922 19.859375,9.5957031 19.710447,9.5594882 19.573504,9.4884373 19.457031,9.3886719 19.34138,9.2895993 19.250142,9.1641189 19.191406,9.0234375 19.132757,8.8817015 19.10733,8.7270432 19.119141,8.5742188 19.130938,8.4215729 19.178038,8.2735531 19.257812,8.1425781 19.902407,7.0837972 19.62395,5.8347112 18.894531,5.1054687 18.165113,4.3762263 16.915769,4.0974396 15.857422,4.7421875 15.726331,4.8220975 15.578648,4.8709605 15.425781,4.8828125 15.272897,4.8946658 15.12005,4.8691988 14.978516,4.8105469 14.836769,4.751825 14.711059,4.6614459 14.611328,4.5449219 14.511607,4.4284087 14.440397,4.2896561 14.404297,4.140625 14.112113,2.9362231 13.031273,2.25 12,2.25 Z"
     id="path1" />
  <path
     style="color:#000000;fill:#000000;stroke-linecap:round;stroke-linejoin:round;-inkscape-stroke:none"
     d="M 11.175781,8.3417969 C 10.484096,8.4978198 9.8509967,8.8462315 9.3496094,9.3476563 8.8481846,9.8490435 8.4978198,10.482143 8.3417969,11.173828 c -0.1560229,0.691685 -0.1125758,1.413975 0.125,2.082031 0.237578,0.668064 0.6609405,1.255487 1.21875,1.69336 0.5577221,0.437853 1.2282821,0.709006 1.9335941,0.78125 a 0.75,0.75 0 0 0 0.822265,-0.669922 0.75,0.75 0 0 0 -0.669922,-0.822266 c -0.423287,-0.04336 -0.825479,-0.206004 -1.160156,-0.46875 -0.33469,-0.262726 -0.587887,-0.614689 -0.7304686,-1.015625 -0.1425839,-0.400942 -0.1678556,-0.834886 -0.074219,-1.25 0.093637,-0.415113 0.3026614,-0.794871 0.6035154,-1.095703 0.300832,-0.300854 0.68059,-0.5098787 1.095703,-0.6035155 0.415114,-0.093637 0.847105,-0.068365 1.248047,0.074219 0.400936,0.1425817 0.752899,0.3957787 1.015625,0.7304687 0.262746,0.334677 0.425394,0.736869 0.46875,1.160156 a 0.75,0.75 0 0 0 0.822266,0.669922 0.75,0.75 0 0 0 0.669922,-0.822265 C 15.658225,10.911876 15.389025,10.241316 14.951172,9.6835938 14.513299,9.1257843 13.925876,8.7043749 13.257813,8.4667969 12.589756,8.2292211 11.867466,8.185774 11.175781,8.3417969 Z"
     id="path2" />
  <path
     style="color:#000000;fill:#000000;stroke-linecap:round;stroke-linejoin:round;-inkscape-stroke:none"
     d="m 18,14.25 c -0.994254,0 -1.949291,0.394603 -2.652344,1.097656 C 14.644603,16.050709 14.25,17.005746 14.25,18 c 0,0.994254 0.394603,1.949291 1.097656,2.652344 C 16.050709,21.355397 17.005746,21.75 18,21.75 c 0.994254,0 1.949291,-0.394603 2.652344,-1.097656 C 21.355397,19.949291 21.75,18.994254 21.75,18 21.75,17.005746 21.355397,16.050709 20.652344,15.347656 19.949291,14.644603 18.994254,14.25 18,14.25 Z m 0,1.5 c 0.596944,0 1.169651,0.236057 1.591797,0.658203 C 20.013943,16.830349 20.25,17.403056 20.25,18 c 0,0.596944 -0.236057,1.169651 -0.658203,1.591797 C 19.169651,20.013943 18.596944,20.25 18,20.25 17.403056,20.25 16.830349,20.013943 16.408203,19.591797 15.986057,19.169651 15.75,18.596944 15.75,18 c 0,-0.596944 0.236057,-1.169651 0.658203,-1.591797 C 16.830349,15.986057 17.403056,15.75 18,15.75 Z"
     id="path3" />
  <path
     style="color:#000000;fill:#000000;stroke-linecap:round;stroke-linejoin:round;-inkscape-stroke:none"
     d="m 20.199219,19.451172 a 0.75,0.75 0 0 0 -0.529297,0.21875 0.75,0.75 0 0 0 0,1.060547 l 1.798828,1.800781 a 0.75,0.75 0 0 0 1.0625,0 0.75,0.75 0 0 0 0,-1.060547 l -1.800781,-1.800781 a 0.75,0.75 0 0 0 -0.53125,-0.21875 z"
     id="path4" />
</svg>
