<?xml version="1.0" encoding="UTF-8" standalone="no"?>
<svg
   width="24"
   height="24"
   viewBox="0 0 24 24"
   fill="none"
   version="1.1"
   id="svg1"
   sodipodi:docname="share.svg"
   inkscape:version="1.3.2 (091e20e, 2023-11-25)"
   xmlns:inkscape="http://www.inkscape.org/namespaces/inkscape"
   xmlns:sodipodi="http://sodipodi.sourceforge.net/DTD/sodipodi-0.dtd"
   xmlns="http://www.w3.org/2000/svg"
   xmlns:svg="http://www.w3.org/2000/svg">
  <defs
     id="defs1" />
  <sodipodi:namedview
     id="namedview1"
     pagecolor="#505050"
     bordercolor="#eeeeee"
     borderopacity="1"
     inkscape:showpageshadow="0"
     inkscape:pageopacity="0"
     inkscape:pagecheckerboard="0"
     inkscape:deskcolor="#505050"
     inkscape:zoom="9.8333333"
     inkscape:cx="11.949153"
     inkscape:cy="12"
     inkscape:window-width="1504"
     inkscape:window-height="449"
     inkscape:window-x="0"
     inkscape:window-y="25"
     inkscape:window-maximized="0"
     inkscape:current-layer="svg1" />
  <path
     style="color:#000000;fill:#000000;stroke-linecap:round;stroke-linejoin:round;-inkscape-stroke:none"
     d="M 12.689453,3.3164063 A 0.750075,0.750075 0 0 0 12.25,4 V 7.4277344 C 9.1174005,8.092758 6.8272784,9.8020551 5.2871094,12 3.6390941,14.35185 2.7653311,17.19332 2.2636719,19.861328 a 0.750075,0.750075 0 0 0 -0.00195,0.0059 c -0.00715,0.0398 -0.011741,0.161499 -0.011719,0.16211 2.17e-5,6.11e-4 0.064266,0.280831 0.064453,0.28125 1.871e-4,4.19e-4 0.2789451,0.323991 0.2792969,0.324219 3.518e-4,2.27e-4 0.3529999,0.119102 0.3535156,0.11914 5.158e-4,3.9e-5 0.2180711,-0.01548 0.21875,-0.01563 6.79e-4,-1.49e-4 0.087553,-0.02529 0.1171875,-0.03711 0.059269,-0.02364 0.091842,-0.04327 0.1171875,-0.05859 0.1013805,-0.06129 0.1164505,-0.0834 0.1484375,-0.111328 0.063974,-0.05585 0.1236529,-0.112406 0.203125,-0.189453 C 3.9108973,20.187702 4.1333009,19.967561 4.4160156,19.697266 4.981445,19.156675 5.7818222,18.418974 6.71875,17.679687 8.3700847,16.376695 10.424772,15.261067 12.25,14.966797 V 18 a 0.750075,0.750075 0 0 0 1.244141,0.564453 l 8,-7 a 0.750075,0.750075 0 0 0 0,-1.128906 l -8,-7.0000001 A 0.750075,0.750075 0 0 0 12.689453,3.3164063 Z M 13.75,5.6523437 19.861328,11 13.75,16.347656 V 14 a 0.750075,0.750075 0 0 0 -0.755859,-0.75 c -2.639598,0.02173 -5.2217373,1.68853 -7.2031254,3.251953 -0.5791872,0.45701 -0.9561248,0.825429 -1.4101562,1.234375 0.5007266,-1.740877 1.1328059,-3.445123 2.1347656,-4.875 1.4632291,-2.088145 3.509319,-3.6379266 6.599609,-4.1210936 A 0.750075,0.750075 0 0 0 13.75,8 Z"
     id="path1" />
</svg>
