<?xml version="1.0" encoding="UTF-8" standalone="no"?>
<svg
   width="24"
   height="24"
   viewBox="0 0 24 24"
   fill="none"
   version="1.1"
   id="svg5"
   sodipodi:docname="sort-ascending.svg"
   inkscape:version="1.3.2 (091e20e, 2023-11-25)"
   xmlns:inkscape="http://www.inkscape.org/namespaces/inkscape"
   xmlns:sodipodi="http://sodipodi.sourceforge.net/DTD/sodipodi-0.dtd"
   xmlns="http://www.w3.org/2000/svg"
   xmlns:svg="http://www.w3.org/2000/svg">
  <defs
     id="defs5" />
  <sodipodi:namedview
     id="namedview5"
     pagecolor="#505050"
     bordercolor="#eeeeee"
     borderopacity="1"
     inkscape:showpageshadow="0"
     inkscape:pageopacity="0"
     inkscape:pagecheckerboard="0"
     inkscape:deskcolor="#505050"
     inkscape:zoom="9.8333333"
     inkscape:cx="11.949153"
     inkscape:cy="12"
     inkscape:window-width="1504"
     inkscape:window-height="449"
     inkscape:window-x="0"
     inkscape:window-y="25"
     inkscape:window-maximized="0"
     inkscape:current-layer="svg5" />
  <path
     style="color:#000000;fill:#000000;stroke-linecap:round;stroke-linejoin:round;-inkscape-stroke:none"
     d="M 4,5.25 A 0.75,0.75 0 0 0 3.25,6 0.75,0.75 0 0 0 4,6.75 h 9 A 0.75,0.75 0 0 0 13.75,6 0.75,0.75 0 0 0 13,5.25 Z"
     id="path1" />
  <path
     style="color:#000000;fill:#000000;stroke-linecap:round;stroke-linejoin:round;-inkscape-stroke:none"
     d="M 4,11.25 A 0.75,0.75 0 0 0 3.25,12 0.75,0.75 0 0 0 4,12.75 h 7 A 0.75,0.75 0 0 0 11.75,12 0.75,0.75 0 0 0 11,11.25 Z"
     id="path2" />
  <path
     style="color:#000000;fill:#000000;stroke-linecap:round;stroke-linejoin:round;-inkscape-stroke:none"
     d="M 4,17.25 A 0.75,0.75 0 0 0 3.25,18 0.75,0.75 0 0 0 4,18.75 h 7 A 0.75,0.75 0 0 0 11.75,18 0.75,0.75 0 0 0 11,17.25 Z"
     id="path3" />
  <path
     style="color:#000000;fill:#000000;stroke-linecap:round;stroke-linejoin:round;-inkscape-stroke:none"
     d="m 15,14.25 a 0.75,0.75 0 0 0 -0.53125,0.21875 0.75,0.75 0 0 0 0,1.0625 l 3,3 a 0.750075,0.750075 0 0 0 1.0625,0 l 3,-3 a 0.75,0.75 0 0 0 0,-1.0625 0.75,0.75 0 0 0 -1.0625,0 L 18,16.9375 15.53125,14.46875 A 0.75,0.75 0 0 0 15,14.25 Z"
     id="path4" />
  <path
     style="color:#000000;fill:#000000;stroke-linecap:round;stroke-linejoin:round;-inkscape-stroke:none"
     d="M 18,5.25 A 0.75,0.75 0 0 0 17.25,6 V 18 A 0.75,0.75 0 0 0 18,18.75 0.75,0.75 0 0 0 18.75,18 V 6 A 0.75,0.75 0 0 0 18,5.25 Z"
     id="path5" />
</svg>
