<?xml version="1.0" encoding="UTF-8" standalone="no"?>
<svg
   width="24"
   height="24"
   viewBox="0 0 24 24"
   fill="none"
   version="1.1"
   id="svg1"
   sodipodi:docname="thumb-up.svg"
   inkscape:version="1.3.2 (091e20e, 2023-11-25)"
   xmlns:inkscape="http://www.inkscape.org/namespaces/inkscape"
   xmlns:sodipodi="http://sodipodi.sourceforge.net/DTD/sodipodi-0.dtd"
   xmlns="http://www.w3.org/2000/svg"
   xmlns:svg="http://www.w3.org/2000/svg">
  <defs
     id="defs1" />
  <sodipodi:namedview
     id="namedview1"
     pagecolor="#505050"
     bordercolor="#eeeeee"
     borderopacity="1"
     inkscape:showpageshadow="0"
     inkscape:pageopacity="0"
     inkscape:pagecheckerboard="0"
     inkscape:deskcolor="#505050"
     inkscape:zoom="9.8333333"
     inkscape:cx="11.949153"
     inkscape:cy="12"
     inkscape:window-width="1504"
     inkscape:window-height="449"
     inkscape:window-x="0"
     inkscape:window-y="25"
     inkscape:window-maximized="0"
     inkscape:current-layer="svg1" />
  <path
     style="color:#000000;fill:#000000;stroke-linecap:round;stroke-linejoin:round;-inkscape-stroke:none"
     d="m 13,3.25 c -0.729032,0 -1.429778,0.2891807 -1.945312,0.8046875 C 10.539117,4.5702164 10.25,5.2709583 10.25,6 V 7 C 10.25,7.8622586 9.9085402,8.6891323 9.2988281,9.2988281 8.6891323,9.9085402 7.8622586,10.25 7,10.25 H 4 c -0.4639225,0 -0.9103464,0.183854 -1.2382812,0.511719 C 2.4336457,11.089739 2.25,11.536158 2.25,12 v 7 c 0,0.463842 0.1836457,0.910261 0.5117188,1.238281 C 3.0896536,20.566146 3.5360775,20.75 4,20.75 h 2 c 0.4639225,0 0.9103464,-0.183854 1.2382812,-0.511719 C 7.3748743,20.10171 7.3673027,19.892824 7.4511719,19.722656 8.1443552,20.370283 9.0482265,20.75 10,20.75 h 7 l -0.06445,-0.002 c 0.67461,0.05736 1.333117,-0.231689 1.818359,-0.716797 0.485046,-0.48518 0.806433,-1.133543 0.976563,-1.859375 a 0.750075,0.750075 0 0 0 0.0059,-0.02539 l 1,-5 A 0.750075,0.750075 0 0 0 20.75,13 c 0,-0.729023 -0.289147,-1.429772 -0.804688,-1.945312 C 19.429772,10.539147 18.729023,10.25 18,10.25 H 15.75 V 6 C 15.75,5.2709583 15.460883,4.5702164 14.945313,4.0546875 14.429778,3.5391807 13.729032,3.25 13,3.25 Z m 0,1.5 c 0.331767,0 0.650101,0.130582 0.884766,0.3652344 C 14.119395,5.3498448 14.25,5.6681828 14.25,6 v 5 A 0.750075,0.750075 0 0 0 15,11.75 h 3 c 0.331776,0 0.650107,0.130576 0.884766,0.365234 0.227991,0.227992 0.348232,0.537871 0.355468,0.859375 l -0.970703,4.853516 -0.002,0.002 c -0.117663,0.499743 -0.340302,0.90469 -0.576172,1.140625 -0.235566,0.234781 -0.436458,0.297447 -0.626953,0.28125 A 0.750075,0.750075 0 0 0 17,19.25 H 10 C 9.4029932,19.25 8.8303747,19.013961 8.4082031,18.591797 7.9860596,18.169661 7.75,17.596963 7.75,17 V 11.601563 C 8.7241264,11.441412 9.6524133,11.066356 10.359375,10.359375 11.250001,9.4687723 11.75,8.2594793 11.75,7 V 6 c 0,-0.3318172 0.130605,-0.6501552 0.365234,-0.8847656 C 12.349899,4.880582 12.668233,4.75 13,4.75 Z m -9,7 H 6.25 V 17 19 c 0,0.06656 -0.025279,0.128802 -0.072266,0.175781 C 6.1305897,19.222916 6.066517,19.25 6,19.25 H 4 c -0.066517,0 -0.1305897,-0.02708 -0.1777344,-0.07422 C 3.7752791,19.128802 3.75,19.066557 3.75,19 v -7 c 0,-0.06656 0.025279,-0.128802 0.072266,-0.175781 C 3.8694103,11.777084 3.933483,11.75 4,11.75 Z"
     id="path1" />
</svg>
