<?xml version="1.0" encoding="UTF-8" standalone="no"?>
<svg
   width="24"
   height="24"
   viewBox="0 0 24 24"
   fill="none"
   version="1.1"
   id="svg1"
   sodipodi:docname="thumb-down.svg"
   inkscape:version="1.3.2 (091e20e, 2023-11-25)"
   xmlns:inkscape="http://www.inkscape.org/namespaces/inkscape"
   xmlns:sodipodi="http://sodipodi.sourceforge.net/DTD/sodipodi-0.dtd"
   xmlns="http://www.w3.org/2000/svg"
   xmlns:svg="http://www.w3.org/2000/svg">
  <defs
     id="defs1" />
  <sodipodi:namedview
     id="namedview1"
     pagecolor="#505050"
     bordercolor="#eeeeee"
     borderopacity="1"
     inkscape:showpageshadow="0"
     inkscape:pageopacity="0"
     inkscape:pagecheckerboard="0"
     inkscape:deskcolor="#505050"
     inkscape:zoom="9.8333333"
     inkscape:cx="11.949153"
     inkscape:cy="12"
     inkscape:window-width="1504"
     inkscape:window-height="449"
     inkscape:window-x="0"
     inkscape:window-y="25"
     inkscape:window-maximized="0"
     inkscape:current-layer="svg1" />
  <path
     style="color:#000000;fill:#000000;stroke-linecap:round;stroke-linejoin:round;-inkscape-stroke:none"
     d="M 4,3.25 C 3.5361529,3.25 3.0896976,3.4337399 2.7617188,3.7617188 2.433733,4.0897045 2.25,4.5361554 2.25,5 v 7 c 0,0.463217 0.184474,0.908433 0.5117188,1.236328 C 3.0897634,13.564478 3.536266,13.75 4,13.75 h 3 c 0.8622114,0 1.689106,0.34149 2.2988281,0.951172 C 9.9085632,15.310931 10.25,16.137825 10.25,17 v 1 c 0,0.729086 0.289064,1.429827 0.804688,1.945312 C 11.570228,20.460853 12.270977,20.75 13,20.75 c 0.729023,0 1.429772,-0.289147 1.945313,-0.804688 C 15.460936,19.429827 15.75,18.729086 15.75,18 V 13.75 H 18 c 0.729023,0 1.429772,-0.289147 1.945312,-0.804687 C 20.460936,12.429827 20.75,11.729086 20.75,11 a 0.750075,0.750075 0 0 0 -0.01367,-0.146484 l -1,-5.0000004 a 0.750075,0.750075 0 0 0 -0.0059,-0.025391 C 19.560341,5.1023355 19.239057,4.4539277 18.753906,3.96875 18.268682,3.4836337 17.610223,3.1945558 16.935547,3.2519531 L 17,3.25 H 10 C 9.0482445,3.25 8.1443649,3.6296999 7.4511719,4.2773437 7.367306,4.1071831 7.3748379,3.8982754 7.2382812,3.7617188 6.9103024,3.4337399 6.4638471,3.25 6,3.25 Z m 13.064453,1.4980469 c 0.19043,-0.016201 0.391369,0.046438 0.626953,0.28125 0.235765,0.2357773 0.458507,0.640899 0.576172,1.140625 2.42e-4,0.00103 0.0017,9.259e-4 0.002,0.00195 l 0.970703,4.853516 c -0.0073,0.321607 -0.12757,0.629584 -0.355468,0.857422 C 18.650107,12.117471 18.331776,12.25 18,12.25 H 15 A 0.750075,0.750075 0 0 0 14.25,13 v 5 c 0,0.331913 -0.130658,0.648299 -0.365234,0.882812 C 13.650107,19.117471 13.331776,19.25 13,19.25 12.668224,19.25 12.349893,19.117471 12.115234,18.882812 11.880658,18.648299 11.75,18.331913 11.75,18 v -1 c 0,-1.259422 -0.500022,-2.468736 -1.390625,-3.359375 C 9.6524341,12.933731 8.7241373,12.558614 7.75,12.398438 V 7 C 7.75,6.4029744 7.9860415,5.8303648 8.4082031,5.4082031 8.8303648,4.9860415 9.4029744,4.75 10,4.75 h 7 a 0.750075,0.750075 0 0 0 0.06445,-0.00195 z M 4,4.75 h 2 c 0.066592,0 0.1306336,0.025165 0.1777344,0.072266 C 6.2248083,4.8693395 6.25,4.9334251 6.25,5 v 2 5.25 H 4 c -0.066705,0 -0.1287463,-0.02717 -0.1757812,-0.07422 a 0.750075,0.750075 0 0 0 -0.00195,0 C 3.7752791,12.128802 3.75,12.066557 3.75,12 V 5 c 0,-0.066575 0.025192,-0.1306605 0.072266,-0.1777344 C 3.8693664,4.7751648 3.9334076,4.75 4,4.75 Z"
     id="path1" />
</svg>
