<?xml version="1.0" encoding="UTF-8" standalone="no"?>
<svg
   width="24"
   height="24"
   viewBox="0 0 24 24"
   fill="none"
   version="1.1"
   id="svg4"
   sodipodi:docname="timeline-event.svg"
   inkscape:version="1.3.2 (091e20e, 2023-11-25)"
   xmlns:inkscape="http://www.inkscape.org/namespaces/inkscape"
   xmlns:sodipodi="http://sodipodi.sourceforge.net/DTD/sodipodi-0.dtd"
   xmlns="http://www.w3.org/2000/svg"
   xmlns:svg="http://www.w3.org/2000/svg">
  <defs
     id="defs4" />
  <sodipodi:namedview
     id="namedview4"
     pagecolor="#505050"
     bordercolor="#eeeeee"
     borderopacity="1"
     inkscape:showpageshadow="0"
     inkscape:pageopacity="0"
     inkscape:pagecheckerboard="0"
     inkscape:deskcolor="#505050"
     inkscape:zoom="9.8333333"
     inkscape:cx="11.949153"
     inkscape:cy="12"
     inkscape:window-width="1504"
     inkscape:window-height="449"
     inkscape:window-x="0"
     inkscape:window-y="25"
     inkscape:window-maximized="0"
     inkscape:current-layer="svg4" />
  <path
     style="color:#000000;fill:#000000;stroke-linecap:round;stroke-linejoin:round;-inkscape-stroke:none"
     d="m 12,17.25 c -0.729023,0 -1.429772,0.289147 -1.945312,0.804687 C 9.5391469,18.570228 9.25,19.270977 9.25,20 c 0,0.729023 0.2891469,1.429772 0.804688,1.945312 C 10.570228,22.460853 11.270977,22.75 12,22.75 c 0.729023,0 1.429772,-0.289147 1.945313,-0.804688 C 14.460853,21.429772 14.75,20.729023 14.75,20 14.75,19.270977 14.460853,18.570228 13.945313,18.054687 13.429772,17.539147 12.729023,17.25 12,17.25 Z m 0,1.5 c 0.331776,0 0.650107,0.130576 0.884766,0.365234 C 13.119424,19.349893 13.25,19.668224 13.25,20 c 0,0.331776 -0.130576,0.650107 -0.365234,0.884766 C 12.650107,21.119424 12.331776,21.25 12,21.25 11.668224,21.25 11.349893,21.119424 11.115234,20.884766 10.880576,20.650107 10.75,20.331776 10.75,20 c 0,-0.331776 0.130576,-0.650107 0.365234,-0.884766 C 11.349893,18.880576 11.668224,18.75 12,18.75 Z"
     id="path1" />
  <path
     style="color:#000000;fill:#000000;stroke-linecap:round;stroke-linejoin:round;-inkscape-stroke:none"
     d="M 4,19.25 A 0.75,0.75 0 0 0 3.25,20 0.75,0.75 0 0 0 4,20.75 h 6 A 0.75,0.75 0 0 0 10.75,20 0.75,0.75 0 0 0 10,19.25 Z"
     id="path2" />
  <path
     style="color:#000000;fill:#000000;stroke-linecap:round;stroke-linejoin:round;-inkscape-stroke:none"
     d="M 14,19.25 A 0.75,0.75 0 0 0 13.25,20 0.75,0.75 0 0 0 14,20.75 h 6 A 0.75,0.75 0 0 0 20.75,20 0.75,0.75 0 0 0 20,19.25 Z"
     id="path3" />
  <path
     style="color:#000000;fill:#000000;stroke-linecap:round;stroke-linejoin:round;-inkscape-stroke:none"
     d="M 7,2.25 C 6.5361529,2.25 6.089696,2.433759 5.7617187,2.7617188 5.433759,3.089696 5.25,3.5361529 5.25,4 v 8 c 0,0.463842 0.1836457,0.910261 0.5117187,1.238281 C 6.0896536,13.566146 6.5360775,13.75 7,13.75 h 2.6894531 l 1.7792969,1.78125 a 0.750075,0.750075 0 0 0 1.0625,0 L 14.310547,13.75 H 17 c 0.463917,0 0.910303,-0.183741 1.238281,-0.511719 C 18.566259,12.910303 18.75,12.463917 18.75,12 V 4 C 18.75,3.5360775 18.566146,3.0896536 18.238281,2.7617188 17.910261,2.4336457 17.463842,2.25 17,2.25 Z m 0,1.5 h 10 c 0.06656,0 0.128802,0.025279 0.175781,0.072266 C 17.222916,3.8694103 17.25,3.933483 17.25,4 v 8 c 0,0.06648 -0.02524,0.130713 -0.07227,0.177734 C 17.130713,12.224756 17.066482,12.25 17,12.25 h -3 a 0.750075,0.750075 0 0 0 -0.53125,0.21875 L 12,13.9375 10.53125,12.46875 A 0.750075,0.750075 0 0 0 10,12.25 H 7 c -0.066517,0 -0.1305897,-0.02708 -0.1777344,-0.07422 C 6.7752791,12.128802 6.75,12.066557 6.75,12 V 4 c 0,-0.066592 0.025166,-0.130632 0.072266,-0.1777344 C 6.869368,3.7751658 6.9334076,3.75 7,3.75 Z"
     id="path4" />
</svg>
