<?xml version="1.0" encoding="UTF-8" standalone="no"?>
<svg
   width="24"
   height="24"
   viewBox="0 0 24 24"
   fill="none"
   version="1.1"
   id="svg4"
   sodipodi:docname="trash-x.svg"
   inkscape:version="1.3.2 (091e20e, 2023-11-25)"
   xmlns:inkscape="http://www.inkscape.org/namespaces/inkscape"
   xmlns:sodipodi="http://sodipodi.sourceforge.net/DTD/sodipodi-0.dtd"
   xmlns="http://www.w3.org/2000/svg"
   xmlns:svg="http://www.w3.org/2000/svg">
  <defs
     id="defs4" />
  <sodipodi:namedview
     id="namedview4"
     pagecolor="#505050"
     bordercolor="#eeeeee"
     borderopacity="1"
     inkscape:showpageshadow="0"
     inkscape:pageopacity="0"
     inkscape:pagecheckerboard="0"
     inkscape:deskcolor="#505050"
     inkscape:zoom="9.8333333"
     inkscape:cx="11.949153"
     inkscape:cy="12"
     inkscape:window-width="1504"
     inkscape:window-height="449"
     inkscape:window-x="0"
     inkscape:window-y="25"
     inkscape:window-maximized="0"
     inkscape:current-layer="svg4" />
  <path
     style="color:#000000;fill:#000000;stroke-linecap:round;stroke-linejoin:round;-inkscape-stroke:none"
     d="M 4,6.25 A 0.75,0.75 0 0 0 3.25,7 0.75,0.75 0 0 0 4,7.75 H 20 A 0.75,0.75 0 0 0 20.75,7 0.75,0.75 0 0 0 20,6.25 Z"
     id="path1" />
  <path
     style="color:#000000;fill:#000000;stroke-linecap:round;stroke-linejoin:round;-inkscape-stroke:none"
     d="M 4.9375,6.2519531 A 0.75,0.75 0 0 0 4.2519531,7.0625 l 1,12 L 5.25,19 c 0,0.729032 0.2891807,1.429778 0.8046875,1.945312 C 6.5702164,21.460883 7.2709583,21.75 8,21.75 h 8 c 0.729023,0 1.429772,-0.289147 1.945312,-0.804688 C 18.460853,20.429772 18.75,19.729023 18.75,19 l -0.002,0.0625 1,-12 A 0.75,0.75 0 0 0 19.0625,6.2519531 0.75,0.75 0 0 0 18.251953,6.9375 l -1,12 A 0.750075,0.750075 0 0 0 17.25,19 c 0,0.331776 -0.130576,0.650107 -0.365234,0.884766 C 16.650107,20.119424 16.331776,20.25 16,20.25 H 8 C 7.6681828,20.25 7.3498448,20.119395 7.1152344,19.884766 6.880582,19.650101 6.75,19.331767 6.75,19 a 0.750075,0.750075 0 0 0 -0.00195,-0.0625 l -1,-12 A 0.75,0.75 0 0 0 4.9375,6.2519531 Z"
     id="path2" />
  <path
     style="color:#000000;fill:#000000;stroke-linecap:round;stroke-linejoin:round;-inkscape-stroke:none"
     d="M 10,2.25 C 9.5361529,2.25 9.089696,2.433759 8.7617188,2.7617188 8.433759,3.089696 8.25,3.5361529 8.25,4 V 7 A 0.75,0.75 0 0 0 9,7.75 0.75,0.75 0 0 0 9.75,7 V 4 c 0,-0.066592 0.025166,-0.130632 0.072266,-0.1777344 C 9.869368,3.7751658 9.9334076,3.75 10,3.75 h 4 c 0.06656,0 0.128802,0.025279 0.175781,0.072266 C 14.222916,3.8694103 14.25,3.933483 14.25,4 V 7 A 0.75,0.75 0 0 0 15,7.75 0.75,0.75 0 0 0 15.75,7 V 4 C 15.75,3.5360775 15.566146,3.0896536 15.238281,2.7617188 14.910261,2.4336457 14.463842,2.25 14,2.25 Z"
     id="path3" />
  <path
     style="color:#000000;fill:#000000;stroke-linecap:round;stroke-linejoin:round;-inkscape-stroke:none"
     d="m 10,11.25 a 0.75,0.75 0 0 0 -0.53125,0.21875 0.75,0.75 0 0 0 0,1.0625 L 10.9375,14 9.46875,15.46875 a 0.75,0.75 0 0 0 0,1.0625 0.75,0.75 0 0 0 1.0625,0 L 12,15.0625 l 1.46875,1.46875 a 0.75,0.75 0 0 0 1.0625,0 0.75,0.75 0 0 0 0,-1.0625 L 13.0625,14 14.53125,12.53125 a 0.75,0.75 0 0 0 0,-1.0625 0.75,0.75 0 0 0 -1.0625,0 L 12,12.9375 10.53125,11.46875 A 0.75,0.75 0 0 0 10,11.25 Z"
     id="path4" />
</svg>
