<?xml version="1.0" encoding="UTF-8" standalone="no"?>
<svg
   width="24"
   height="24"
   viewBox="0 0 24 24"
   fill="none"
   version="1.1"
   id="svg2"
   sodipodi:docname="trending-up.svg"
   inkscape:version="1.3.2 (091e20e, 2023-11-25)"
   xmlns:inkscape="http://www.inkscape.org/namespaces/inkscape"
   xmlns:sodipodi="http://sodipodi.sourceforge.net/DTD/sodipodi-0.dtd"
   xmlns="http://www.w3.org/2000/svg"
   xmlns:svg="http://www.w3.org/2000/svg">
  <defs
     id="defs2" />
  <sodipodi:namedview
     id="namedview2"
     pagecolor="#505050"
     bordercolor="#eeeeee"
     borderopacity="1"
     inkscape:showpageshadow="0"
     inkscape:pageopacity="0"
     inkscape:pagecheckerboard="0"
     inkscape:deskcolor="#505050"
     inkscape:zoom="9.8333333"
     inkscape:cx="11.949153"
     inkscape:cy="12"
     inkscape:window-width="1504"
     inkscape:window-height="449"
     inkscape:window-x="0"
     inkscape:window-y="25"
     inkscape:window-maximized="0"
     inkscape:current-layer="svg2" />
  <path
     style="color:#000000;fill:#000000;stroke-linecap:round;stroke-linejoin:round;-inkscape-stroke:none"
     d="M 21,6.25 A 0.75,0.75 0 0 0 20.46875,6.46875 L 13,13.9375 9.53125,10.46875 a 0.750075,0.750075 0 0 0 -1.0625,0 l -6,6 a 0.75,0.75 0 0 0 0,1.0625 0.75,0.75 0 0 0 1.0625,0 L 9,12.0625 l 3.46875,3.46875 a 0.750075,0.750075 0 0 0 1.0625,0 l 8,-8 a 0.75,0.75 0 0 0 0,-1.0625 A 0.75,0.75 0 0 0 21,6.25 Z"
     id="path1" />
  <path
     style="color:#000000;fill:#000000;stroke-linecap:round;stroke-linejoin:round;-inkscape-stroke:none"
     d="M 14,6.25 A 0.75,0.75 0 0 0 13.25,7 0.75,0.75 0 0 0 14,7.75 h 6.25 V 14 A 0.75,0.75 0 0 0 21,14.75 0.75,0.75 0 0 0 21.75,14 V 7 A 0.750075,0.750075 0 0 0 21,6.25 Z"
     id="path2" />
</svg>
