<?xml version="1.0" encoding="UTF-8" standalone="no"?>
<svg
   width="24"
   height="24"
   viewBox="0 0 24 24"
   fill="none"
   version="1.1"
   id="svg3"
   sodipodi:docname="upload.svg"
   inkscape:version="1.3.2 (091e20e, 2023-11-25)"
   xmlns:inkscape="http://www.inkscape.org/namespaces/inkscape"
   xmlns:sodipodi="http://sodipodi.sourceforge.net/DTD/sodipodi-0.dtd"
   xmlns="http://www.w3.org/2000/svg"
   xmlns:svg="http://www.w3.org/2000/svg">
  <defs
     id="defs3" />
  <sodipodi:namedview
     id="namedview3"
     pagecolor="#505050"
     bordercolor="#eeeeee"
     borderopacity="1"
     inkscape:showpageshadow="0"
     inkscape:pageopacity="0"
     inkscape:pagecheckerboard="0"
     inkscape:deskcolor="#505050"
     inkscape:zoom="9.8333333"
     inkscape:cx="11.949153"
     inkscape:cy="12"
     inkscape:window-width="1504"
     inkscape:window-height="449"
     inkscape:window-x="0"
     inkscape:window-y="25"
     inkscape:window-maximized="0"
     inkscape:current-layer="svg3" />
  <path
     style="color:#000000;fill:#000000;stroke-linecap:round;stroke-linejoin:round;-inkscape-stroke:none"
     d="M 4,16.25 A 0.75,0.75 0 0 0 3.25,17 v 2 c 0,0.729032 0.2891807,1.429778 0.8046875,1.945312 C 4.5702164,21.460883 5.2709583,21.75 6,21.75 h 12 c 0.729023,0 1.429772,-0.289147 1.945312,-0.804688 C 20.460853,20.429772 20.75,19.729023 20.75,19 V 17 A 0.75,0.75 0 0 0 20,16.25 0.75,0.75 0 0 0 19.25,17 v 2 c 0,0.331776 -0.130576,0.650107 -0.365234,0.884766 C 18.650107,20.119424 18.331776,20.25 18,20.25 H 6 C 5.6681828,20.25 5.3498448,20.119395 5.1152344,19.884766 4.880582,19.650101 4.75,19.331767 4.75,19 V 17 A 0.75,0.75 0 0 0 4,16.25 Z"
     id="path1" />
  <path
     style="color:#000000;fill:#000000;stroke-linecap:round;stroke-linejoin:round;-inkscape-stroke:none"
     d="m 11.46875,3.46875 -5,5 a 0.75,0.75 0 0 0 0,1.0625 0.75,0.75 0 0 0 1.0625,0 L 12,5.0625 16.46875,9.53125 a 0.75,0.75 0 0 0 1.0625,0 0.75,0.75 0 0 0 0,-1.0625 l -5,-5 a 0.750075,0.750075 0 0 0 -1.0625,0 z"
     id="path2" />
  <path
     style="color:#000000;fill:#000000;stroke-linecap:round;stroke-linejoin:round;-inkscape-stroke:none"
     d="M 12,3.25 A 0.75,0.75 0 0 0 11.25,4 V 16 A 0.75,0.75 0 0 0 12,16.75 0.75,0.75 0 0 0 12.75,16 V 4 A 0.75,0.75 0 0 0 12,3.25 Z"
     id="path3" />
</svg>
