<?xml version="1.0" encoding="UTF-8" standalone="no"?>
<svg
   width="24"
   height="24"
   viewBox="0 0 24 24"
   fill="none"
   version="1.1"
   id="svg3"
   sodipodi:docname="user-circle.svg"
   inkscape:version="1.3.2 (091e20e, 2023-11-25)"
   xmlns:inkscape="http://www.inkscape.org/namespaces/inkscape"
   xmlns:sodipodi="http://sodipodi.sourceforge.net/DTD/sodipodi-0.dtd"
   xmlns="http://www.w3.org/2000/svg"
   xmlns:svg="http://www.w3.org/2000/svg">
  <defs
     id="defs3" />
  <sodipodi:namedview
     id="namedview3"
     pagecolor="#505050"
     bordercolor="#eeeeee"
     borderopacity="1"
     inkscape:showpageshadow="0"
     inkscape:pageopacity="0"
     inkscape:pagecheckerboard="0"
     inkscape:deskcolor="#505050"
     inkscape:zoom="9.8333333"
     inkscape:cx="11.949153"
     inkscape:cy="12"
     inkscape:window-width="1504"
     inkscape:window-height="449"
     inkscape:window-x="0"
     inkscape:window-y="25"
     inkscape:window-maximized="0"
     inkscape:current-layer="svg3" />
  <path
     style="color:#000000;fill:#000000;stroke-linecap:round;stroke-linejoin:round;-inkscape-stroke:none"
     d="M 12,2.25 C 10.71962,2.25 9.4524453,2.5022108 8.2695313,2.9921875 7.0866213,3.4821733 6.0108357,4.2001018 5.1054687,5.1054687 4.2001018,6.0108357 3.4821733,7.0866213 2.9921875,8.2695313 2.5022108,9.4524453 2.25,10.71962 2.25,12 c 0,1.28038 0.2522205,2.547502 0.7421875,3.730469 0.4899888,1.182884 1.2079454,2.258651 2.1132812,3.164062 0.9053695,0.905337 1.9811635,1.6233 3.1640626,2.113281 C 9.4524447,21.4978 10.719616,21.75 12,21.75 c 1.280384,0 2.547503,-0.25221 3.730469,-0.742188 1.182874,-0.489984 2.258648,-1.207975 3.164062,-2.113281 0.905306,-0.905414 1.623297,-1.981188 2.113281,-3.164062 C 21.49779,14.547503 21.75,13.280384 21.75,12 21.75,10.719616 21.4978,9.4524447 21.007812,8.2695313 20.517831,7.0866322 19.799868,6.0108382 18.894531,5.1054687 17.98912,4.2001329 16.913353,3.4821763 15.730469,2.9921875 14.547502,2.5022205 13.28038,2.25 12,2.25 Z m 0,1.5 c 1.083418,0 2.155219,0.2142942 3.15625,0.6289062 1.000913,0.4146104 1.911548,1.020987 2.677734,1.7871094 0.766062,0.7660889 1.372492,1.6767757 1.78711,2.6777344 C 20.035706,9.8446944 20.25,10.916587 20.25,12 c 0,1.083413 -0.214285,2.155218 -0.628906,3.15625 -0.414615,1.000924 -1.021017,1.91155 -1.78711,2.677734 -0.766184,0.766093 -1.67681,1.372495 -2.677734,1.78711 C 14.155218,20.035715 13.083413,20.25 12,20.25 10.916587,20.25 9.8446944,20.035706 8.84375,19.621094 7.8427913,19.206476 6.9321045,18.600046 6.1660156,17.833984 5.3998932,17.067798 4.7935166,16.157163 4.3789062,15.15625 3.9642942,14.155219 3.75,13.083418 3.75,12 3.75,10.916582 3.9643038,9.8446937 4.3789062,8.84375 4.7935196,7.8428021 5.3999242,6.932107 6.1660156,6.1660156 6.932107,5.3999242 7.8428021,4.7935196 8.84375,4.3789062 9.8446937,3.9643038 10.916582,3.75 12,3.75 Z"
     id="path1" />
  <path
     style="color:#000000;fill:#000000;stroke-linecap:round;stroke-linejoin:round;-inkscape-stroke:none"
     d="M 12,6.25 C 11.005765,6.25 10.050733,6.644592 9.3476563,7.3476562 8.644599,8.0507135 8.25,9.0057272 8.25,10 c 0,0.994235 0.3945809,1.949281 1.0976563,2.652344 C 10.050723,13.355386 11.005746,13.75 12,13.75 c 0.994254,0 1.949291,-0.394603 2.652344,-1.097656 C 15.355397,11.949291 15.75,10.994254 15.75,10 15.75,9.0057084 15.355379,8.0507035 14.652344,7.3476562 13.949281,6.6445809 12.994235,6.25 12,6.25 Z m 0,1.5 c 0.596963,0 1.169661,0.2360596 1.591797,0.6582031 C 14.013961,8.8303747 14.25,9.4029932 14.25,10 c 0,0.596944 -0.236057,1.169651 -0.658203,1.591797 C 13.169651,12.013943 12.596944,12.25 12,12.25 11.403056,12.25 10.830375,12.013954 10.408203,11.591797 9.9860596,11.169661 9.75,10.596963 9.75,10 9.75,9.4029744 9.9860415,8.8303648 10.408203,8.4082031 10.830365,7.9860485 11.403037,7.75 12,7.75 Z"
     id="path2" />
  <path
     style="color:#000000;fill:#000000;stroke-linecap:round;stroke-linejoin:round;-inkscape-stroke:none"
     d="M 10,15.25 C 8.9786291,15.249644 7.9836507,15.578155 7.1640625,16.1875 6.3444536,16.796852 5.7431074,17.654648 5.4492187,18.632812 A 0.75,0.75 0 0 0 5.953125,19.566406 0.75,0.75 0 0 0 6.8867187,19.064453 C 7.0878497,18.395019 7.4995972,17.809625 8.0605469,17.392578 8.6214973,16.975524 9.3011326,16.749756 10,16.75 h 4 c 0.69992,-2.44e-4 1.381974,0.224546 1.943359,0.642578 0.561367,0.418018 0.971572,1.007186 1.171875,1.677734 a 0.75,0.75 0 0 0 0.933594,0.503907 0.75,0.75 0 0 0 0.503906,-0.933594 C 18.260038,17.660775 17.658123,16.800234 16.837891,16.189453 16.017678,15.578686 15.022678,15.249644 14,15.25 Z"
     id="path3" />
</svg>
