<?xml version="1.0" encoding="UTF-8" standalone="no"?>
<svg
   width="24"
   height="24"
   viewBox="0 0 24 24"
   fill="none"
   version="1.1"
   id="svg4"
   sodipodi:docname="user-pin.svg"
   inkscape:version="1.3.2 (091e20e, 2023-11-25)"
   xmlns:inkscape="http://www.inkscape.org/namespaces/inkscape"
   xmlns:sodipodi="http://sodipodi.sourceforge.net/DTD/sodipodi-0.dtd"
   xmlns="http://www.w3.org/2000/svg"
   xmlns:svg="http://www.w3.org/2000/svg">
  <defs
     id="defs4" />
  <sodipodi:namedview
     id="namedview4"
     pagecolor="#505050"
     bordercolor="#eeeeee"
     borderopacity="1"
     inkscape:showpageshadow="0"
     inkscape:pageopacity="0"
     inkscape:pagecheckerboard="0"
     inkscape:deskcolor="#505050"
     inkscape:zoom="9.8333333"
     inkscape:cx="11.949153"
     inkscape:cy="12"
     inkscape:window-width="1504"
     inkscape:window-height="449"
     inkscape:window-x="0"
     inkscape:window-y="25"
     inkscape:window-maximized="0"
     inkscape:current-layer="svg4" />
  <path
     style="color:#000000;fill:#000000;stroke-linecap:round;stroke-linejoin:round;-inkscape-stroke:none"
     d="M 12,2.25 C 10.740482,2.25 9.5312124,2.7500495 8.640625,3.640625 7.7500424,4.5312195 7.25,5.7405065 7.25,7 7.25,8.2594935 7.7500424,9.4687805 8.640625,10.359375 9.5312206,11.249994 10.740496,11.75 12,11.75 c 1.259504,0 2.468813,-0.49998 3.359375,-1.390625 C 16.250038,9.4687711 16.75,8.2594793 16.75,7 16.75,5.7405207 16.250038,4.5312289 15.359375,3.640625 14.468822,2.7500241 13.259518,2.25 12,2.25 Z m 0,1.5 c 0.86228,0 1.689183,0.3414943 2.298828,0.9511719 C 14.908563,5.3108665 15.25,6.1377414 15.25,7 15.25,7.8622586 14.908563,8.6891335 14.298828,9.2988281 13.689191,9.9085219 12.862294,10.25 12,10.25 11.137706,10.25 10.310875,9.9085473 9.7011719,9.2988281 9.091476,8.6891241 8.75,7.8622444 8.75,7 8.75,6.1377556 9.091476,5.3108759 9.7011719,4.7011719 10.310883,4.0914689 11.13772,3.75 12,3.75 Z"
     id="path1" />
  <path
     style="color:#000000;fill:#000000;stroke-linecap:round;stroke-linejoin:round;-inkscape-stroke:none"
     d="m 10,14.25 c -1.2594793,0 -2.4687711,0.499962 -3.359375,1.390625 C 5.7500241,16.531178 5.25,17.740482 5.25,19 v 2 A 0.75,0.75 0 0 0 6,21.75 0.75,0.75 0 0 0 6.75,21 v -2 c 0,-0.86228 0.3414943,-1.689183 0.9511719,-2.298828 C 8.3108665,16.091437 9.1377414,15.75 10,15.75 h 2.5 A 0.75,0.75 0 0 0 13.25,15 0.75,0.75 0 0 0 12.5,14.25 Z"
     id="path2" />
  <path
     style="color:#000000;fill:#000000;stroke-linecap:round;stroke-linejoin:round;-inkscape-stroke:none"
     d="m 19,14.25 c -0.741697,0 -1.46735,0.218812 -2.083984,0.630859 -0.616636,0.412049 -1.097121,0.998246 -1.38086,1.683594 -0.283883,0.685269 -0.357608,1.440632 -0.21289,2.167969 0.144579,0.726643 0.502097,1.393922 1.02539,1.917969 0.452846,0.453928 1.166232,1.085341 2.169922,1.925781 a 0.750075,0.750075 0 0 0 0.966797,-0.0039 c 1.055587,-0.893885 1.76299,-1.515949 2.166016,-1.919922 0.524334,-0.524334 0.882588,-1.192396 1.027343,-1.919922 0.144718,-0.727337 0.07099,-1.4827 -0.21289,-2.167969 C 22.181105,15.879105 21.70062,15.292908 21.083984,14.880859 20.46735,14.468812 19.741697,14.25 19,14.25 Z m 0,1.5 c 0.445102,0 0.879836,0.131555 1.25,0.378906 0.370164,0.247351 0.657864,0.598515 0.828125,1.009766 0.170317,0.41113 0.215788,0.864119 0.128906,1.300781 -0.08684,0.436473 -0.302322,0.837479 -0.617187,1.152344 -0.246097,0.246777 -0.911728,0.82186 -1.589844,1.40625 -0.653833,-0.559942 -1.29596,-1.111663 -1.589844,-1.40625 -0.314865,-0.314865 -0.530343,-0.715871 -0.617187,-1.152344 -0.08688,-0.436662 -0.04141,-0.889651 0.128906,-1.300781 C 17.092136,16.727421 17.379836,16.376257 17.75,16.128906 18.120164,15.881555 18.554898,15.75 19,15.75 Z"
     id="path3" />
  <path
     style="color:#000000;fill:#000000;stroke-linecap:round;stroke-linejoin:round;-inkscape-stroke:none"
     d="M 19,17.25 A 0.75,0.75 0 0 0 18.25,18 v 0.0098 a 0.75,0.75 0 0 0 0.75,0.75 0.75,0.75 0 0 0 0.75,-0.75 V 18 A 0.75,0.75 0 0 0 19,17.25 Z"
     id="path4" />
</svg>
