<?xml version="1.0" encoding="UTF-8" standalone="no"?>
<svg
   width="24"
   height="24"
   viewBox="0 0 24 24"
   fill="none"
   version="1.1"
   id="svg9"
   sodipodi:docname="user-cog.svg"
   inkscape:version="1.3.2 (091e20e, 2023-11-25)"
   xmlns:inkscape="http://www.inkscape.org/namespaces/inkscape"
   xmlns:sodipodi="http://sodipodi.sourceforge.net/DTD/sodipodi-0.dtd"
   xmlns="http://www.w3.org/2000/svg"
   xmlns:svg="http://www.w3.org/2000/svg">
  <defs
     id="defs9" />
  <sodipodi:namedview
     id="namedview9"
     pagecolor="#505050"
     bordercolor="#eeeeee"
     borderopacity="1"
     inkscape:showpageshadow="0"
     inkscape:pageopacity="0"
     inkscape:pagecheckerboard="0"
     inkscape:deskcolor="#505050"
     inkscape:zoom="9.8333333"
     inkscape:cx="11.949153"
     inkscape:cy="12"
     inkscape:window-width="1504"
     inkscape:window-height="449"
     inkscape:window-x="0"
     inkscape:window-y="25"
     inkscape:window-maximized="0"
     inkscape:current-layer="svg9" />
  <path
     style="color:#000000;fill:#000000;stroke-linecap:round;stroke-linejoin:round;-inkscape-stroke:none"
     d="M 12,2.25 C 10.740482,2.25 9.5312124,2.7500495 8.640625,3.640625 7.7500424,4.5312195 7.25,5.7405065 7.25,7 7.25,8.2594935 7.7500424,9.4687805 8.640625,10.359375 9.5312206,11.249994 10.740496,11.75 12,11.75 c 1.259504,0 2.468813,-0.49998 3.359375,-1.390625 C 16.250038,9.4687711 16.75,8.2594793 16.75,7 16.75,5.7405207 16.250038,4.5312289 15.359375,3.640625 14.468822,2.7500241 13.259518,2.25 12,2.25 Z m 0,1.5 c 0.86228,0 1.689183,0.3414943 2.298828,0.9511719 C 14.908563,5.3108665 15.25,6.1377414 15.25,7 15.25,7.8622586 14.908563,8.6891335 14.298828,9.2988281 13.689191,9.9085219 12.862294,10.25 12,10.25 11.137706,10.25 10.310875,9.9085473 9.7011719,9.2988281 9.091476,8.6891241 8.75,7.8622444 8.75,7 8.75,6.1377556 9.091476,5.3108759 9.7011719,4.7011719 10.310883,4.0914689 11.13772,3.75 12,3.75 Z"
     id="path1" />
  <path
     style="color:#000000;fill:#000000;stroke-linecap:round;stroke-linejoin:round;-inkscape-stroke:none"
     d="m 10,14.25 c -1.2594793,0 -2.4687711,0.499962 -3.359375,1.390625 C 5.7500241,16.531178 5.25,17.740482 5.25,19 v 2 A 0.75,0.75 0 0 0 6,21.75 0.75,0.75 0 0 0 6.75,21 v -2 c 0,-0.86228 0.3414943,-1.689183 0.9511719,-2.298828 C 8.3108665,16.091437 9.1377414,15.75 10,15.75 h 2.5 A 0.75,0.75 0 0 0 13.25,15 0.75,0.75 0 0 0 12.5,14.25 Z"
     id="path2" />
  <path
     style="color:#000000;fill:#000000;stroke-linecap:round;stroke-linejoin:round;-inkscape-stroke:none"
     d="m 19.001953,16.25 c -0.729085,0 -1.429827,0.289064 -1.945312,0.804687 C 16.5411,17.570228 16.251953,18.270977 16.251953,19 c 0,0.729023 0.289147,1.429772 0.804688,1.945312 0.515485,0.515624 1.216227,0.804688 1.945312,0.804688 0.729023,0 1.427819,-0.289147 1.943359,-0.804688 0.515541,-0.51554 0.806641,-1.216289 0.806641,-1.945312 0,-0.729023 -0.2911,-1.429772 -0.806641,-1.945313 C 20.429772,16.539147 19.730976,16.25 19.001953,16.25 Z m 0,1.5 c 0.331776,0 0.648154,0.130576 0.882813,0.365234 0.234658,0.234659 0.367187,0.55299 0.367187,0.884766 0,0.331776 -0.132529,0.650107 -0.367187,0.884766 C 19.650107,20.119424 19.333729,20.25 19.001953,20.25 18.67004,20.25 18.351701,20.119342 18.117187,19.884766 17.882529,19.650107 17.751953,19.331776 17.751953,19 c 0,-0.331776 0.130576,-0.650107 0.365234,-0.884766 C 18.351701,17.880658 18.67004,17.75 19.001953,17.75 Z"
     id="path3" />
  <path
     style="color:#000000;fill:#000000;stroke-linecap:round;stroke-linejoin:round;-inkscape-stroke:none"
     d="m 19.001953,14.75 a 0.75,0.75 0 0 0 -0.75,0.75 V 17 a 0.75,0.75 0 0 0 0.75,0.75 0.75,0.75 0 0 0 0.75,-0.75 v -1.5 a 0.75,0.75 0 0 0 -0.75,-0.75 z"
     id="path4" />
  <path
     style="color:#000000;fill:#000000;stroke-linecap:round;stroke-linejoin:round;-inkscape-stroke:none"
     d="m 19.001953,20.25 a 0.75,0.75 0 0 0 -0.75,0.75 v 1.5 a 0.75,0.75 0 0 0 0.75,0.75 0.75,0.75 0 0 0 0.75,-0.75 V 21 a 0.75,0.75 0 0 0 -0.75,-0.75 z"
     id="path5" />
  <path
     style="color:#000000;fill:#000000;stroke-linecap:round;stroke-linejoin:round;-inkscape-stroke:none"
     d="m 21.65625,16.599609 -1.298828,0.75 a 0.75,0.75 0 0 0 -0.273438,1.025391 0.75,0.75 0 0 0 1.023438,0.275391 l 1.298828,-0.75 A 0.75,0.75 0 0 0 22.681641,16.875 0.75,0.75 0 0 0 21.65625,16.599609 Z"
     id="path6" />
  <path
     style="color:#000000;fill:#000000;stroke-linecap:round;stroke-linejoin:round;-inkscape-stroke:none"
     d="m 17.464844,19.275391 a 0.75,0.75 0 0 0 -0.570313,0.07422 l -1.298828,0.75 a 0.75,0.75 0 0 0 -0.27539,1.025391 0.75,0.75 0 0 0 1.02539,0.275391 l 1.298828,-0.75 A 0.75,0.75 0 0 0 17.919922,19.625 0.75,0.75 0 0 0 17.464844,19.275391 Z"
     id="path7" />
  <path
     style="color:#000000;fill:#000000;stroke-linecap:round;stroke-linejoin:round;-inkscape-stroke:none"
     d="m 15.775391,16.525391 a 0.75,0.75 0 0 0 -0.455078,0.349609 0.75,0.75 0 0 0 0.27539,1.025391 l 1.298828,0.75 A 0.75,0.75 0 0 0 17.919922,18.375 0.75,0.75 0 0 0 17.644531,17.349609 l -1.298828,-0.75 a 0.75,0.75 0 0 0 -0.570312,-0.07422 z"
     id="path8" />
  <path
     style="color:#000000;fill:#000000;stroke-linecap:round;stroke-linejoin:round;-inkscape-stroke:none"
     d="m 20.539062,19.275391 a 0.75,0.75 0 0 0 -0.455078,0.349609 0.75,0.75 0 0 0 0.273438,1.025391 l 1.300781,0.75 A 0.75,0.75 0 0 0 22.683594,21.125 0.75,0.75 0 0 0 22.408203,20.099609 l -1.300781,-0.75 a 0.75,0.75 0 0 0 -0.56836,-0.07422 z"
     id="path9" />
</svg>
