<?xml version="1.0" encoding="UTF-8" standalone="no"?>
<svg
   width="24"
   height="24"
   viewBox="0 0 24 24"
   fill="none"
   version="1.1"
   id="svg4"
   sodipodi:docname="user-search.svg"
   inkscape:version="1.3.2 (091e20e, 2023-11-25)"
   xmlns:inkscape="http://www.inkscape.org/namespaces/inkscape"
   xmlns:sodipodi="http://sodipodi.sourceforge.net/DTD/sodipodi-0.dtd"
   xmlns="http://www.w3.org/2000/svg"
   xmlns:svg="http://www.w3.org/2000/svg">
  <defs
     id="defs4" />
  <sodipodi:namedview
     id="namedview4"
     pagecolor="#505050"
     bordercolor="#eeeeee"
     borderopacity="1"
     inkscape:showpageshadow="0"
     inkscape:pageopacity="0"
     inkscape:pagecheckerboard="0"
     inkscape:deskcolor="#505050"
     inkscape:zoom="9.8333333"
     inkscape:cx="11.949153"
     inkscape:cy="12"
     inkscape:window-width="1504"
     inkscape:window-height="449"
     inkscape:window-x="0"
     inkscape:window-y="25"
     inkscape:window-maximized="0"
     inkscape:current-layer="svg4" />
  <path
     style="color:#000000;fill:#000000;stroke-linecap:round;stroke-linejoin:round;-inkscape-stroke:none"
     d="M 12,2.25 C 10.740482,2.25 9.5312124,2.7500495 8.640625,3.640625 7.7500424,4.5312195 7.25,5.7405065 7.25,7 7.25,8.2594935 7.7500424,9.4687805 8.640625,10.359375 9.5312206,11.249994 10.740496,11.75 12,11.75 c 1.259504,0 2.468813,-0.49998 3.359375,-1.390625 C 16.250038,9.4687711 16.75,8.2594793 16.75,7 16.75,5.7405207 16.250038,4.5312289 15.359375,3.640625 14.468822,2.7500241 13.259518,2.25 12,2.25 Z m 0,1.5 c 0.86228,0 1.689183,0.3414943 2.298828,0.9511719 C 14.908563,5.3108665 15.25,6.1377414 15.25,7 15.25,7.8622586 14.908563,8.6891335 14.298828,9.2988281 13.689191,9.9085219 12.862294,10.25 12,10.25 11.137706,10.25 10.310875,9.9085473 9.7011719,9.2988281 9.091476,8.6891241 8.75,7.8622444 8.75,7 8.75,6.1377556 9.091476,5.3108759 9.7011719,4.7011719 10.310883,4.0914689 11.13772,3.75 12,3.75 Z"
     id="path1" />
  <path
     style="color:#000000;fill:#000000;stroke-linecap:round;stroke-linejoin:round;-inkscape-stroke:none"
     d="m 10,14.25 c -1.2594793,0 -2.4687711,0.499962 -3.359375,1.390625 C 5.7500241,16.531178 5.25,17.740482 5.25,19 v 2 A 0.75,0.75 0 0 0 6,21.75 0.75,0.75 0 0 0 6.75,21 v -2 c 0,-0.86228 0.3414943,-1.689183 0.9511719,-2.298828 C 8.3108665,16.091437 9.1377414,15.75 10,15.75 h 1.5 A 0.75,0.75 0 0 0 12.25,15 0.75,0.75 0 0 0 11.5,14.25 Z"
     id="path2" />
  <path
     style="color:#000000;fill:#000000;stroke-linecap:round;stroke-linejoin:round;-inkscape-stroke:none"
     d="m 18,14.25 c -0.994254,0 -1.949291,0.394603 -2.652344,1.097656 C 14.644603,16.050709 14.25,17.005746 14.25,18 c 0,0.994254 0.394603,1.949291 1.097656,2.652344 C 16.050709,21.355397 17.005746,21.75 18,21.75 c 0.994254,0 1.949291,-0.394603 2.652344,-1.097656 C 21.355397,19.949291 21.75,18.994254 21.75,18 21.75,17.005746 21.355397,16.050709 20.652344,15.347656 19.949291,14.644603 18.994254,14.25 18,14.25 Z m 0,1.5 c 0.596944,0 1.169651,0.236057 1.591797,0.658203 C 20.013943,16.830349 20.25,17.403056 20.25,18 c 0,0.596944 -0.236057,1.169651 -0.658203,1.591797 C 19.169651,20.013943 18.596944,20.25 18,20.25 17.403056,20.25 16.830349,20.013943 16.408203,19.591797 15.986057,19.169651 15.75,18.596944 15.75,18 c 0,-0.596944 0.236057,-1.169651 0.658203,-1.591797 C 16.830349,15.986057 17.403056,15.75 18,15.75 Z"
     id="path3" />
  <path
     style="color:#000000;fill:#000000;stroke-linecap:round;stroke-linejoin:round;-inkscape-stroke:none"
     d="m 20.199219,19.451172 a 0.75,0.75 0 0 0 -0.529297,0.21875 0.75,0.75 0 0 0 0,1.060547 l 1.798828,1.800781 a 0.75,0.75 0 0 0 1.0625,0 0.75,0.75 0 0 0 0,-1.060547 l -1.800781,-1.800781 a 0.75,0.75 0 0 0 -0.53125,-0.21875 z"
     id="path4" />
</svg>
