<?xml version="1.0" encoding="UTF-8" standalone="no"?>
<svg
   width="24"
   height="24"
   viewBox="0 0 24 24"
   fill="none"
   version="1.1"
   id="svg6"
   sodipodi:docname="users-group.svg"
   inkscape:version="1.3.2 (091e20e, 2023-11-25)"
   xmlns:inkscape="http://www.inkscape.org/namespaces/inkscape"
   xmlns:sodipodi="http://sodipodi.sourceforge.net/DTD/sodipodi-0.dtd"
   xmlns="http://www.w3.org/2000/svg"
   xmlns:svg="http://www.w3.org/2000/svg">
  <defs
     id="defs6" />
  <sodipodi:namedview
     id="namedview6"
     pagecolor="#505050"
     bordercolor="#eeeeee"
     borderopacity="1"
     inkscape:showpageshadow="0"
     inkscape:pageopacity="0"
     inkscape:pagecheckerboard="0"
     inkscape:deskcolor="#505050"
     inkscape:zoom="9.8333333"
     inkscape:cx="11.949153"
     inkscape:cy="12"
     inkscape:window-width="1504"
     inkscape:window-height="449"
     inkscape:window-x="0"
     inkscape:window-y="25"
     inkscape:window-maximized="0"
     inkscape:current-layer="svg6" />
  <path
     style="color:#000000;fill:#000000;stroke-linecap:round;stroke-linejoin:round;-inkscape-stroke:none"
     d="m 12,10.25 c -0.729023,0 -1.429772,0.289147 -1.945312,0.804688 C 9.5391469,11.570228 9.25,12.270977 9.25,13 c 0,0.729023 0.2891469,1.429772 0.804688,1.945313 C 10.570228,15.460853 11.270977,15.75 12,15.75 c 0.729023,0 1.429772,-0.289147 1.945313,-0.804687 C 14.460853,14.429772 14.75,13.729023 14.75,13 14.75,12.270977 14.460853,11.570228 13.945313,11.054688 13.429772,10.539147 12.729023,10.25 12,10.25 Z m 0,1.5 c 0.331776,0 0.650107,0.130576 0.884766,0.365234 C 13.119424,12.349893 13.25,12.668224 13.25,13 c 0,0.331776 -0.130576,0.650107 -0.365234,0.884766 C 12.650107,14.119424 12.331776,14.25 12,14.25 11.668224,14.25 11.349893,14.119424 11.115234,13.884766 10.880576,13.650107 10.75,13.331776 10.75,13 c 0,-0.331776 0.130576,-0.650107 0.365234,-0.884766 C 11.349893,11.880576 11.668224,11.75 12,11.75 Z"
     id="path1" />
  <path
     style="color:#000000;fill:#000000;stroke-linecap:round;stroke-linejoin:round;-inkscape-stroke:none"
     d="m 10,17.25 c -0.7290417,0 -1.4297836,0.289117 -1.9453125,0.804687 C 7.5391807,18.570222 7.25,19.270968 7.25,20 v 1 A 0.75,0.75 0 0 0 8,21.75 0.75,0.75 0 0 0 8.75,21 v -1 c 0,-0.331767 0.130582,-0.650101 0.3652344,-0.884766 C 9.3498448,18.880605 9.6681828,18.75 10,18.75 h 4 c 0.331776,0 0.650107,0.130576 0.884766,0.365234 C 15.119424,19.349893 15.25,19.668224 15.25,20 v 1 A 0.75,0.75 0 0 0 16,21.75 0.75,0.75 0 0 0 16.75,21 v -1 c 0,-0.729023 -0.289147,-1.429772 -0.804687,-1.945313 C 15.429772,17.539147 14.729023,17.25 14,17.25 Z"
     id="path2" />
  <path
     style="color:#000000;fill:#000000;stroke-linecap:round;stroke-linejoin:round;-inkscape-stroke:none"
     d="m 17,2.25 c -0.729032,0 -1.429778,0.2891807 -1.945312,0.8046875 C 14.539117,3.5702164 14.25,4.2709583 14.25,5 c 0,0.7290417 0.289117,1.4297836 0.804688,1.9453125 C 15.570222,7.4608193 16.270968,7.75 17,7.75 17.729032,7.75 18.429778,7.4608193 18.945312,6.9453125 19.460883,6.4297836 19.75,5.7290417 19.75,5 19.75,4.2709583 19.460883,3.5702164 18.945312,3.0546875 18.429778,2.5391807 17.729032,2.25 17,2.25 Z m 0,1.5 c 0.331767,0 0.650101,0.130582 0.884766,0.3652344 C 18.119395,4.3498448 18.25,4.6681828 18.25,5 18.25,5.3318172 18.119395,5.6501552 17.884766,5.8847656 17.650101,6.119418 17.331767,6.25 17,6.25 16.668233,6.25 16.349899,6.119418 16.115234,5.8847656 15.880605,5.6501552 15.75,5.3318172 15.75,5 15.75,4.6681828 15.880605,4.3498448 16.115234,4.1152344 16.349899,3.880582 16.668233,3.75 17,3.75 Z"
     id="path3" />
  <path
     style="color:#000000;fill:#000000;stroke-linecap:round;stroke-linejoin:round;-inkscape-stroke:none"
     d="M 17,9.25 A 0.75,0.75 0 0 0 16.25,10 0.75,0.75 0 0 0 17,10.75 h 2 c 0.331776,0 0.650107,0.130576 0.884766,0.365234 C 20.119424,11.349893 20.25,11.668224 20.25,12 v 1 A 0.75,0.75 0 0 0 21,13.75 0.75,0.75 0 0 0 21.75,13 v -1 c 0,-0.729023 -0.289147,-1.429772 -0.804688,-1.945312 C 20.429772,9.5391469 19.729023,9.25 19,9.25 Z"
     id="path4" />
  <path
     style="color:#000000;fill:#000000;stroke-linecap:round;stroke-linejoin:round;-inkscape-stroke:none"
     d="M 7,2.25 C 6.2709489,2.25 5.5702101,2.5391512 5.0546875,3.0546875 4.5391512,3.5702101 4.25,4.2709489 4.25,5 4.25,5.7290511 4.5391512,6.4297899 5.0546875,6.9453125 5.5702101,7.4608488 6.2709489,7.75 7,7.75 7.7290511,7.75 8.4297899,7.4608488 8.9453125,6.9453125 9.4608488,6.4297899 9.75,5.7290511 9.75,5 9.75,4.2709489 9.4608488,3.5702101 8.9453125,3.0546875 8.4297899,2.5391512 7.7290511,2.25 7,2.25 Z m 0,1.5 c 0.3318078,0 0.650149,0.1306115 0.8847656,0.3652344 C 8.1193885,4.349851 8.25,4.6681922 8.25,5 8.25,5.3318078 8.1193885,5.650149 7.8847656,5.8847656 7.650149,6.1193885 7.3318078,6.25 7,6.25 6.6681922,6.25 6.349851,6.1193885 6.1152344,5.8847656 5.8806115,5.650149 5.75,5.3318078 5.75,5 5.75,4.6681922 5.8806115,4.349851 6.1152344,4.1152344 6.349851,3.8806115 6.6681922,3.75 7,3.75 Z"
     id="path5" />
  <path
     style="color:#000000;fill:#000000;stroke-linecap:round;stroke-linejoin:round;-inkscape-stroke:none"
     d="M 5,9.25 C 4.2709583,9.25 3.5702164,9.5391174 3.0546875,10.054688 2.5391807,10.570222 2.25,11.270968 2.25,12 v 1 A 0.75,0.75 0 0 0 3,13.75 0.75,0.75 0 0 0 3.75,13 v -1 c 0,-0.331767 0.130582,-0.650101 0.3652344,-0.884766 C 4.3498448,10.880605 4.6681828,10.75 5,10.75 H 7 A 0.75,0.75 0 0 0 7.75,10 0.75,0.75 0 0 0 7,9.25 Z"
     id="path6" />
</svg>
