<?xml version="1.0" encoding="UTF-8" standalone="no"?>
<svg
   width="24"
   height="24"
   viewBox="0 0 24 24"
   fill="none"
   version="1.1"
   id="svg3"
   sodipodi:docname="user-edit.svg"
   inkscape:version="1.3.2 (091e20e, 2023-11-25)"
   xmlns:inkscape="http://www.inkscape.org/namespaces/inkscape"
   xmlns:sodipodi="http://sodipodi.sourceforge.net/DTD/sodipodi-0.dtd"
   xmlns="http://www.w3.org/2000/svg"
   xmlns:svg="http://www.w3.org/2000/svg">
  <defs
     id="defs3" />
  <sodipodi:namedview
     id="namedview3"
     pagecolor="#505050"
     bordercolor="#eeeeee"
     borderopacity="1"
     inkscape:showpageshadow="0"
     inkscape:pageopacity="0"
     inkscape:pagecheckerboard="0"
     inkscape:deskcolor="#505050"
     inkscape:zoom="9.8333333"
     inkscape:cx="11.949153"
     inkscape:cy="12"
     inkscape:window-width="1504"
     inkscape:window-height="449"
     inkscape:window-x="0"
     inkscape:window-y="25"
     inkscape:window-maximized="0"
     inkscape:current-layer="svg3" />
  <path
     style="color:#000000;fill:#000000;stroke-linecap:round;stroke-linejoin:round;-inkscape-stroke:none"
     d="M 12,2.25 C 10.740482,2.25 9.5312124,2.7500495 8.640625,3.640625 7.7500424,4.5312195 7.25,5.7405065 7.25,7 7.25,8.2594935 7.7500424,9.4687805 8.640625,10.359375 9.5312206,11.249994 10.740496,11.75 12,11.75 c 1.259504,0 2.468813,-0.49998 3.359375,-1.390625 C 16.250038,9.4687711 16.75,8.2594793 16.75,7 16.75,5.7405207 16.250038,4.5312289 15.359375,3.640625 14.468822,2.7500241 13.259518,2.25 12,2.25 Z m 0,1.5 c 0.86228,0 1.689183,0.3414943 2.298828,0.9511719 C 14.908563,5.3108665 15.25,6.1377414 15.25,7 15.25,7.8622586 14.908563,8.6891335 14.298828,9.2988281 13.689191,9.9085219 12.862294,10.25 12,10.25 11.137706,10.25 10.310875,9.9085473 9.7011719,9.2988281 9.091476,8.6891241 8.75,7.8622444 8.75,7 8.75,6.1377556 9.091476,5.3108759 9.7011719,4.7011719 10.310883,4.0914689 11.13772,3.75 12,3.75 Z"
     id="path1" />
  <path
     style="color:#000000;fill:#000000;stroke-linecap:round;stroke-linejoin:round;-inkscape-stroke:none"
     d="m 10,14.25 c -1.2594793,0 -2.4687711,0.499962 -3.359375,1.390625 C 5.7500241,16.531178 5.25,17.740482 5.25,19 v 2 A 0.75,0.75 0 0 0 6,21.75 0.75,0.75 0 0 0 6.75,21 v -2 c 0,-0.86228 0.3414943,-1.689183 0.9511719,-2.298828 C 8.3108665,16.091437 9.1377414,15.75 10,15.75 h 3.5 A 0.75,0.75 0 0 0 14.25,15 0.75,0.75 0 0 0 13.5,14.25 Z"
     id="path2" />
  <path
     style="color:#000000;fill:#000000;stroke-linecap:round;stroke-linejoin:round;-inkscape-stroke:none"
     d="m 19.904297,14.244141 c -0.374241,0 -0.743946,0.07539 -1.089844,0.21875 -0.345879,0.143211 -0.659205,0.352565 -0.923828,0.617187 l -3.417969,3.386719 A 0.750075,0.750075 0 0 0 14.25,19 v 3 A 0.750075,0.750075 0 0 0 15,22.75 h 3 a 0.750075,0.750075 0 0 0 0.533203,-0.222656 l 3.386719,-3.416016 0.002,-0.0039 c 0.263169,-0.263977 0.474533,-0.577342 0.617187,-0.921875 h -0.002 c 0.143355,-0.345898 0.21875,-0.715603 0.21875,-1.089844 0,-0.37424 -0.0754,-0.745899 -0.21875,-1.091797 h 0.002 c -0.143183,-0.345676 -0.354427,-0.659115 -0.61914,-0.923828 -0.264623,-0.264622 -0.577949,-0.473976 -0.923828,-0.617187 -0.345898,-0.143355 -0.717557,-0.21875 -1.091797,-0.21875 z m 0,1.5 c 0.177359,0 0.353877,0.03567 0.517578,0.103515 0.163721,0.06779 0.312123,0.167592 0.4375,0.292969 0.125286,0.125286 0.225153,0.273777 0.292969,0.4375 0.06785,0.163701 0.103515,0.340219 0.103515,0.517578 0,0.177359 -0.03567,0.351924 -0.103515,0.515625 -0.06779,0.163721 -0.167592,0.314076 -0.292969,0.439453 a 0.750075,0.750075 0 0 0 -0.002,0.002 L 17.6875,21.25 H 15.75 v -1.9375 l 3.197266,-3.169922 a 0.750075,0.750075 0 0 0 0.0039,-0.002 c 0.125377,-0.125377 0.273779,-0.22518 0.4375,-0.292969 0.163701,-0.06785 0.338266,-0.103515 0.515625,-0.103515 z"
     id="path3" />
</svg>
