<?xml version="1.0" encoding="UTF-8" standalone="no"?>
<svg
   width="24"
   height="24"
   viewBox="0 0 24 24"
   fill="none"
   version="1.1"
   id="svg5"
   sodipodi:docname="users-plus.svg"
   inkscape:version="1.3.2 (091e20e, 2023-11-25)"
   xmlns:inkscape="http://www.inkscape.org/namespaces/inkscape"
   xmlns:sodipodi="http://sodipodi.sourceforge.net/DTD/sodipodi-0.dtd"
   xmlns="http://www.w3.org/2000/svg"
   xmlns:svg="http://www.w3.org/2000/svg">
  <defs
     id="defs5" />
  <sodipodi:namedview
     id="namedview5"
     pagecolor="#505050"
     bordercolor="#eeeeee"
     borderopacity="1"
     inkscape:showpageshadow="0"
     inkscape:pageopacity="0"
     inkscape:pagecheckerboard="0"
     inkscape:deskcolor="#505050"
     inkscape:zoom="9.8333333"
     inkscape:cx="11.949153"
     inkscape:cy="12"
     inkscape:window-width="1504"
     inkscape:window-height="449"
     inkscape:window-x="0"
     inkscape:window-y="25"
     inkscape:window-maximized="0"
     inkscape:current-layer="svg5" />
  <path
     style="color:#000000;fill:#000000;stroke-linecap:round;stroke-linejoin:round;-inkscape-stroke:none"
     d="M 9,2.25 C 7.7405065,2.25 6.5312195,2.7500424 5.640625,3.640625 4.7500424,4.5312195 4.25,5.7405065 4.25,7 4.25,8.2594935 4.7500424,9.4687805 5.640625,10.359375 6.5312277,11.250001 7.7405207,11.75 9,11.75 c 1.259504,0 2.468813,-0.49998 3.359375,-1.390625 C 13.250038,9.4687711 13.75,8.2594793 13.75,7 13.75,5.7405207 13.250038,4.5312289 12.359375,3.640625 11.468822,2.7500241 10.259518,2.25 9,2.25 Z m 0,1.5 c 0.86228,0 1.689183,0.3414943 2.298828,0.9511719 C 11.908563,5.3108665 12.25,6.1377414 12.25,7 12.25,7.8622586 11.908563,8.6891335 11.298828,9.2988281 10.689191,9.9085219 9.8622942,10.25 9,10.25 8.1377414,10.25 7.3108677,9.9085402 6.7011719,9.2988281 6.091476,8.6891241 5.75,7.8622444 5.75,7 5.75,6.1377556 6.091476,5.3108759 6.7011719,4.7011719 7.3108759,4.091476 8.1377556,3.75 9,3.75 Z"
     id="path1" />
  <path
     style="color:#000000;fill:#000000;stroke-linecap:round;stroke-linejoin:round;-inkscape-stroke:none"
     d="m 7,14.25 c -1.2594793,0 -2.4687711,0.499962 -3.359375,1.390625 C 2.7500241,16.531178 2.25,17.740482 2.25,19 v 2 A 0.75,0.75 0 0 0 3,21.75 0.75,0.75 0 0 0 3.75,21 v -2 c 0,-0.86228 0.3414943,-1.689183 0.9511719,-2.298828 C 5.3108665,16.091437 6.1377414,15.75 7,15.75 h 4 c 0.783958,0 1.494732,0.273937 2.056641,0.732422 A 0.75,0.75 0 0 0 14.111328,16.375 0.75,0.75 0 0 0 14.003906,15.320313 C 13.185816,14.652798 12.136041,14.25 11,14.25 Z"
     id="path2" />
  <path
     style="color:#000000;fill:#000000;stroke-linecap:round;stroke-linejoin:round;-inkscape-stroke:none"
     d="m 16.185547,2.4023438 a 0.75,0.75 0 0 0 -0.912109,0.5410156 0.75,0.75 0 0 0 0.541015,0.9121094 c 0.699185,0.1790218 1.317199,0.5860893 1.759766,1.1562499 0.442561,0.5701532 0.683594,1.2704279 0.683593,1.9921875 0,0.7217597 -0.241032,1.4239875 -0.683593,1.9941407 -0.442567,0.5701763 -1.060581,0.9772281 -1.759766,1.1562501 a 0.75,0.75 0 0 0 -0.541015,0.912109 0.75,0.75 0 0 0 0.912109,0.541016 c 1.021613,-0.261578 1.927586,-0.856371 2.574219,-1.6894532 0.646637,-0.8330654 0.998047,-1.859484 0.998046,-2.9140626 0,-1.0545785 -0.351409,-2.0790439 -0.998046,-2.9121093 C 18.113134,3.258739 17.20716,2.6639215 16.185547,2.4023438 Z"
     id="path3" />
  <path
     style="color:#000000;fill:#000000;stroke-linecap:round;stroke-linejoin:round;-inkscape-stroke:none"
     d="M 16,18.25 A 0.75,0.75 0 0 0 15.25,19 0.75,0.75 0 0 0 16,19.75 h 6 A 0.75,0.75 0 0 0 22.75,19 0.75,0.75 0 0 0 22,18.25 Z"
     id="path4" />
  <path
     style="color:#000000;fill:#000000;stroke-linecap:round;stroke-linejoin:round;-inkscape-stroke:none"
     d="M 19,15.25 A 0.75,0.75 0 0 0 18.25,16 v 6 A 0.75,0.75 0 0 0 19,22.75 0.75,0.75 0 0 0 19.75,22 V 16 A 0.75,0.75 0 0 0 19,15.25 Z"
     id="path5" />
</svg>
