<?xml version="1.0" encoding="UTF-8" standalone="no"?>
<svg
   width="24"
   height="24"
   viewBox="0 0 24 24"
   fill="none"
   version="1.1"
   id="svg6"
   sodipodi:docname="user-scan.svg"
   inkscape:version="1.3.2 (091e20e, 2023-11-25)"
   xmlns:inkscape="http://www.inkscape.org/namespaces/inkscape"
   xmlns:sodipodi="http://sodipodi.sourceforge.net/DTD/sodipodi-0.dtd"
   xmlns="http://www.w3.org/2000/svg"
   xmlns:svg="http://www.w3.org/2000/svg">
  <defs
     id="defs6" />
  <sodipodi:namedview
     id="namedview6"
     pagecolor="#505050"
     bordercolor="#eeeeee"
     borderopacity="1"
     inkscape:showpageshadow="0"
     inkscape:pageopacity="0"
     inkscape:pagecheckerboard="0"
     inkscape:deskcolor="#505050"
     inkscape:zoom="9.8333333"
     inkscape:cx="11.949153"
     inkscape:cy="12"
     inkscape:window-width="1504"
     inkscape:window-height="449"
     inkscape:window-x="0"
     inkscape:window-y="25"
     inkscape:window-maximized="0"
     inkscape:current-layer="svg6" />
  <path
     style="color:#000000;fill:#000000;stroke-linecap:round;stroke-linejoin:round;-inkscape-stroke:none"
     d="m 12,6.25 c -0.729032,0 -1.429778,0.2891807 -1.945312,0.8046875 C 9.5391174,7.5702164 9.25,8.2709583 9.25,9 c 0,0.7290417 0.2891611,1.429786 0.804688,1.945313 C 10.570228,11.460853 11.270977,11.75 12,11.75 c 0.729023,0 1.429772,-0.289147 1.945313,-0.804687 C 14.460839,10.429786 14.75,9.7290417 14.75,9 14.75,8.2709583 14.460883,7.5702164 13.945313,7.0546875 13.429778,6.5391807 12.729032,6.25 12,6.25 Z m 0,1.5 c 0.331767,0 0.650101,0.130582 0.884766,0.3652344 C 13.119395,8.3498448 13.25,8.6681828 13.25,9 13.25,9.3318172 13.119438,9.6500928 12.884766,9.8847656 12.650107,10.119424 12.331776,10.25 12,10.25 11.668224,10.25 11.349893,10.119424 11.115234,9.8847656 10.880562,9.6500928 10.75,9.3318172 10.75,9 10.75,8.6681828 10.880605,8.3498448 11.115234,8.1152344 11.349899,7.880582 11.668233,7.75 12,7.75 Z"
     id="path1" />
  <path
     style="color:#000000;fill:#000000;stroke-linecap:round;stroke-linejoin:round;-inkscape-stroke:none"
     d="M 6,3.25 C 5.2709489,3.25 4.5702101,3.5391512 4.0546875,4.0546875 3.5391512,4.5702101 3.25,5.2709489 3.25,6 V 8 A 0.75,0.75 0 0 0 4,8.75 0.75,0.75 0 0 0 4.75,8 V 6 C 4.75,5.6681922 4.8806115,5.349851 5.1152344,5.1152344 5.349851,4.8806115 5.6681922,4.75 6,4.75 H 8 A 0.75,0.75 0 0 0 8.75,4 0.75,0.75 0 0 0 8,3.25 Z"
     id="path2" />
  <path
     style="color:#000000;fill:#000000;stroke-linecap:round;stroke-linejoin:round;-inkscape-stroke:none"
     d="M 4,15.25 A 0.75,0.75 0 0 0 3.25,16 v 2 c 0,0.729032 0.2891807,1.429778 0.8046875,1.945312 C 4.5702164,20.460883 5.2709583,20.75 6,20.75 H 8 A 0.75,0.75 0 0 0 8.75,20 0.75,0.75 0 0 0 8,19.25 H 6 C 5.6681828,19.25 5.3498448,19.119395 5.1152344,18.884766 4.880582,18.650101 4.75,18.331767 4.75,18 V 16 A 0.75,0.75 0 0 0 4,15.25 Z"
     id="path3" />
  <path
     style="color:#000000;fill:#000000;stroke-linecap:round;stroke-linejoin:round;-inkscape-stroke:none"
     d="M 16,3.25 A 0.75,0.75 0 0 0 15.25,4 0.75,0.75 0 0 0 16,4.75 h 2 c 0.331767,0 0.650101,0.130582 0.884766,0.3652344 C 19.119395,5.3498448 19.25,5.6681828 19.25,6 V 8 A 0.75,0.75 0 0 0 20,8.75 0.75,0.75 0 0 0 20.75,8 V 6 C 20.75,5.2709583 20.460883,4.5702164 19.945312,4.0546875 19.429778,3.5391807 18.729032,3.25 18,3.25 Z"
     id="path4" />
  <path
     style="color:#000000;fill:#000000;stroke-linecap:round;stroke-linejoin:round;-inkscape-stroke:none"
     d="M 20,15.25 A 0.75,0.75 0 0 0 19.25,16 v 2 c 0,0.331776 -0.130576,0.650107 -0.365234,0.884766 C 18.650107,19.119424 18.331776,19.25 18,19.25 H 16 A 0.75,0.75 0 0 0 15.25,20 0.75,0.75 0 0 0 16,20.75 h 2 c 0.729023,0 1.429772,-0.289147 1.945312,-0.804688 C 20.460853,19.429772 20.75,18.729023 20.75,18 V 16 A 0.75,0.75 0 0 0 20,15.25 Z"
     id="path5" />
  <path
     style="color:#000000;fill:#000000;stroke-linecap:round;stroke-linejoin:round;-inkscape-stroke:none"
     d="m 10,13.25 c -0.7290417,0 -1.4297836,0.289117 -1.9453125,0.804688 C 7.5391807,14.570222 7.25,15.270968 7.25,16 A 0.75,0.75 0 0 0 8,16.75 0.75,0.75 0 0 0 8.75,16 c 0,-0.331767 0.130582,-0.650101 0.3652344,-0.884766 C 9.3498448,14.880605 9.6681828,14.75 10,14.75 h 4 c 0.331776,0 0.650107,0.130576 0.884766,0.365234 C 15.119424,15.349893 15.25,15.668224 15.25,16 A 0.75,0.75 0 0 0 16,16.75 0.75,0.75 0 0 0 16.75,16 c 0,-0.729023 -0.289147,-1.429772 -0.804687,-1.945312 C 15.429772,13.539147 14.729023,13.25 14,13.25 Z"
     id="path6" />
</svg>
