<?xml version="1.0" encoding="UTF-8" standalone="no"?>
<svg
   width="24"
   height="24"
   viewBox="0 0 24 24"
   fill="none"
   version="1.1"
   id="svg5"
   sodipodi:docname="wifi-off.svg"
   inkscape:version="1.3.2 (091e20e, 2023-11-25)"
   xmlns:inkscape="http://www.inkscape.org/namespaces/inkscape"
   xmlns:sodipodi="http://sodipodi.sourceforge.net/DTD/sodipodi-0.dtd"
   xmlns="http://www.w3.org/2000/svg"
   xmlns:svg="http://www.w3.org/2000/svg">
  <defs
     id="defs5" />
  <sodipodi:namedview
     id="namedview5"
     pagecolor="#505050"
     bordercolor="#eeeeee"
     borderopacity="1"
     inkscape:showpageshadow="0"
     inkscape:pageopacity="0"
     inkscape:pagecheckerboard="0"
     inkscape:deskcolor="#505050"
     inkscape:zoom="9.8333333"
     inkscape:cx="11.949153"
     inkscape:cy="12"
     inkscape:window-width="1504"
     inkscape:window-height="449"
     inkscape:window-x="0"
     inkscape:window-y="25"
     inkscape:window-maximized="0"
     inkscape:current-layer="svg5" />
  <path
     style="color:#000000;fill:#000000;stroke-linecap:round;stroke-linejoin:round;-inkscape-stroke:none"
     d="M 12,17.25 A 0.75,0.75 0 0 0 11.25,18 0.75,0.75 0 0 0 12,18.75 h 0.0098 a 0.75,0.75 0 0 0 0.75,-0.75 0.75,0.75 0 0 0 -0.75,-0.75 z"
     id="path1" />
  <path
     style="color:#000000;fill:#000000;stroke-linecap:round;stroke-linejoin:round;-inkscape-stroke:none"
     d="m 12,13.251953 c -1.259247,0 -2.4668653,0.500318 -3.3574219,1.390625 a 0.75,0.75 0 0 0 -0.00195,1.060547 0.75,0.75 0 0 0 1.0625,0 C 10.312787,15.093634 11.137849,14.751953 12,14.751953 c 0.862151,0 1.687228,0.341687 2.296875,0.951172 a 0.75,0.75 0 0 0 1.0625,0 0.75,0.75 0 0 0 -0.002,-1.060547 C 14.466871,13.752264 13.259247,13.251953 12,13.251953 Z"
     id="path2" />
  <path
     style="color:#000000;fill:#000000;stroke-linecap:round;stroke-linejoin:round;-inkscape-stroke:none"
     d="M 10.039063,9.4726563 C 8.4372122,9.8388691 6.9727623,10.650941 5.8125,11.814453 a 0.75,0.75 0 0 0 0,1.060547 0.75,0.75 0 0 0 1.0625,-0.002 c 0.9605956,-0.963286 2.1738332,-1.636267 3.5,-1.939453 a 0.75,0.75 0 0 0 0.5625,-0.898438 0.75,0.75 0 0 0 -0.898437,-0.5624997 z m 4.554687,0.1699218 a 0.75,0.75 0 0 0 -0.939453,0.4921879 0.75,0.75 0 0 0 0.492187,0.939453 c 1.125742,0.351573 2.147081,0.972459 2.976563,1.810547 a 0.75,0.75 0 0 0 1.0625,0.0059 0.75,0.75 0 0 0 0.0039,-1.060547 C 17.187537,10.817767 15.953406,10.067204 14.59375,9.6425781 Z"
     id="path3" />
  <path
     style="color:#000000;fill:#000000;stroke-linecap:round;stroke-linejoin:round;-inkscape-stroke:none"
     d="M 13.03125,5.2890625 C 12.038724,5.2084887 11.035743,5.244802 10.044922,5.3984375 A 0.75,0.75 0 0 0 9.4179688,6.2539062 0.75,0.75 0 0 0 10.275391,6.8808594 c 1.748553,-0.2711285 3.534906,-0.1257862 5.216797,0.4238281 1.681988,0.5496159 3.211875,1.4889009 4.46289,2.7402345 a 0.75,0.75 0 0 0 1.060547,0 0.75,0.75 0 0 0 0,-1.060547 C 19.597842,7.5662312 17.865192,6.5017892 15.958984,5.8789062 15.005931,5.567464 14.023776,5.3696363 13.03125,5.2890625 Z M 6.75,6.3769531 C 5.3476669,7.0119741 4.0717763,7.8946999 2.984375,8.984375 a 0.75,0.75 0 0 0 0,1.060547 0.75,0.75 0 0 0 1.0605469,0 C 5.0043985,9.083439 6.1317764,8.3025053 7.3691406,7.7421875 A 0.75,0.75 0 0 0 7.7421875,6.75 0.75,0.75 0 0 0 6.75,6.3769531 Z"
     id="path4" />
  <path
     style="color:#000000;fill:#000000;stroke-linecap:round;stroke-linejoin:round;-inkscape-stroke:none"
     d="m 3,2.25 a 0.75,0.75 0 0 0 -0.53125,0.21875 0.75,0.75 0 0 0 0,1.0625 l 18,18 a 0.75,0.75 0 0 0 1.0625,0 0.75,0.75 0 0 0 0,-1.0625 l -18,-18 A 0.75,0.75 0 0 0 3,2.25 Z"
     id="path5" />
</svg>
