<?xml version="1.0" encoding="UTF-8" standalone="no"?>
<svg
   width="24"
   height="24"
   viewBox="0 0 24 24"
   fill="none"
   version="1.1"
   id="svg4"
   sodipodi:docname="wifi.svg"
   inkscape:version="1.3.2 (091e20e, 2023-11-25)"
   xmlns:inkscape="http://www.inkscape.org/namespaces/inkscape"
   xmlns:sodipodi="http://sodipodi.sourceforge.net/DTD/sodipodi-0.dtd"
   xmlns="http://www.w3.org/2000/svg"
   xmlns:svg="http://www.w3.org/2000/svg">
  <defs
     id="defs4" />
  <sodipodi:namedview
     id="namedview4"
     pagecolor="#505050"
     bordercolor="#eeeeee"
     borderopacity="1"
     inkscape:showpageshadow="0"
     inkscape:pageopacity="0"
     inkscape:pagecheckerboard="0"
     inkscape:deskcolor="#505050"
     inkscape:zoom="9.8333333"
     inkscape:cx="11.949153"
     inkscape:cy="12"
     inkscape:window-width="1504"
     inkscape:window-height="449"
     inkscape:window-x="0"
     inkscape:window-y="25"
     inkscape:window-maximized="0"
     inkscape:current-layer="svg4" />
  <path
     style="color:#000000;fill:#000000;stroke-linecap:round;stroke-linejoin:round;-inkscape-stroke:none"
     d="M 12,17.25 A 0.75,0.75 0 0 0 11.25,18 0.75,0.75 0 0 0 12,18.75 h 0.0098 a 0.75,0.75 0 0 0 0.75,-0.75 0.75,0.75 0 0 0 -0.75,-0.75 z"
     id="path1" />
  <path
     style="color:#000000;fill:#000000;stroke-linecap:round;stroke-linejoin:round;-inkscape-stroke:none"
     d="m 12,13.251953 c -1.259247,0 -2.4668653,0.500318 -3.3574219,1.390625 a 0.75,0.75 0 0 0 -0.00195,1.060547 0.75,0.75 0 0 0 1.0625,0 C 10.312787,15.093634 11.137849,14.751953 12,14.751953 c 0.862151,0 1.687228,0.341687 2.296875,0.951172 a 0.75,0.75 0 0 0 1.0625,0 0.75,0.75 0 0 0 -0.002,-1.060547 C 14.466871,13.752264 13.259247,13.251953 12,13.251953 Z"
     id="path2" />
  <path
     style="color:#000000;fill:#000000;stroke-linecap:round;stroke-linejoin:round;-inkscape-stroke:none"
     d="M 12,9.25 C 10.850891,9.25 9.7139177,9.4763499 8.6523438,9.9160156 7.5907376,10.3558 6.625009,10.999958 5.8125,11.8125 a 0.75,0.75 0 0 0 0,1.060547 0.75,0.75 0 0 0 1.0605469,0 C 7.5462764,12.19979 8.3449375,11.665197 9.2246094,11.300781 10.104293,10.936448 11.047911,10.75 12,10.75 c 0.952089,0 1.895619,0.186438 2.775391,0.550781 0.879631,0.364414 1.678288,0.898992 2.351562,1.572266 a 0.75,0.75 0 0 0 1.060547,0 0.75,0.75 0 0 0 0,-1.060547 C 17.374975,10.999975 16.411177,10.355801 15.349609,9.9160156 a 0.750075,0.750075 0 0 0 -0.002,0 C 14.28603,9.4763601 13.149109,9.25 12,9.25 Z"
     id="path3" />
  <path
     style="color:#000000;fill:#000000;stroke-linecap:round;stroke-linejoin:round;-inkscape-stroke:none"
     d="M 12.003906,5.2539062 C 8.735927,5.2539863 5.4706722,6.4975473 2.984375,8.984375 a 0.75,0.75 0 0 0 0,1.060547 0.75,0.75 0 0 0 1.0605469,0 c 4.3993963,-4.4003353 11.5110891,-4.4011212 15.9414061,0.002 a 0.75,0.75 0 0 0 1.060547,-0.0039 0.75,0.75 0 0 0 -0.0039,-1.0605471 C 18.542132,6.4969637 15.271885,5.2538262 12.003906,5.2539062 Z"
     id="path4" />
</svg>
