<?xml version="1.0" encoding="UTF-8" standalone="no"?>
<svg
   width="24"
   height="24"
   viewBox="0 0 24 24"
   fill="none"
   version="1.1"
   id="svg6"
   sodipodi:docname="address-book.svg"
   inkscape:export-filename="address-book.svg"
   inkscape:export-xdpi="96"
   inkscape:export-ydpi="96"
   inkscape:version="1.3.2 (091e20e, 2023-11-25)"
   xmlns:inkscape="http://www.inkscape.org/namespaces/inkscape"
   xmlns:sodipodi="http://sodipodi.sourceforge.net/DTD/sodipodi-0.dtd"
   xmlns="http://www.w3.org/2000/svg"
   xmlns:svg="http://www.w3.org/2000/svg">
  <sodipodi:namedview
     id="namedview6"
     pagecolor="#505050"
     bordercolor="#eeeeee"
     borderopacity="1"
     inkscape:showpageshadow="0"
     inkscape:pageopacity="0"
     inkscape:pagecheckerboard="0"
     inkscape:deskcolor="#505050"
     inkscape:zoom="9.8333333"
     inkscape:cx="11.949153"
     inkscape:cy="12"
     inkscape:window-width="1504"
     inkscape:window-height="449"
     inkscape:window-x="0"
     inkscape:window-y="25"
     inkscape:window-maximized="0"
     inkscape:current-layer="svg6" />
  <g
     clip-path="url(#clip0_17830_268)"
     id="g6">
    <path
       style="color:#000000;fill:#2c3e50;stroke-linecap:round;stroke-linejoin:round;-inkscape-stroke:none"
       d="M 8,3.25 C 7.2709489,3.25 6.5702101,3.5391512 6.0546875,4.0546875 5.5391512,4.5702101 5.25,5.2709489 5.25,6 v 12 c 0,0.729032 0.2891807,1.429778 0.8046875,1.945312 C 6.5702164,20.460883 7.2709583,20.75 8,20.75 h 10 c 0.729023,0 1.429772,-0.289147 1.945312,-0.804688 C 20.460853,19.429772 20.75,18.729023 20.75,18 V 6 C 20.75,5.2709583 20.460883,4.5702164 19.945312,4.0546875 19.429778,3.5391807 18.729032,3.25 18,3.25 Z m 0,1.5 h 10 c 0.331767,0 0.650101,0.130582 0.884766,0.3652344 C 19.119395,5.3498448 19.25,5.6681828 19.25,6 v 12 c 0,0.331776 -0.130576,0.650107 -0.365234,0.884766 C 18.650107,19.119424 18.331776,19.25 18,19.25 H 8 C 7.6681828,19.25 7.3498448,19.119395 7.1152344,18.884766 6.880582,18.650101 6.75,18.331767 6.75,18 V 6 C 6.75,5.6681922 6.8806115,5.349851 7.1152344,5.1152344 7.349851,4.8806115 7.6681922,4.75 8,4.75 Z"
       id="path1" />
    <path
       style="color:#000000;fill:#2c3e50;stroke-linecap:round;stroke-linejoin:round;-inkscape-stroke:none"
       d="M 10,15.25 A 0.75,0.75 0 0 0 9.25,16 0.75,0.75 0 0 0 10,16.75 h 6 A 0.75,0.75 0 0 0 16.75,16 0.75,0.75 0 0 0 16,15.25 Z"
       id="path2" />
    <path
       style="color:#000000;fill:#2c3e50;stroke-linecap:round;stroke-linejoin:round;-inkscape-stroke:none"
       d="m 13,8.25 c -0.729032,0 -1.429778,0.2891807 -1.945312,0.8046875 C 10.539103,9.5702305 10.25,10.270977 10.25,11 c 0,0.729023 0.289147,1.429772 0.804688,1.945313 C 11.570228,13.460853 12.270977,13.75 13,13.75 c 0.729023,0 1.429772,-0.289147 1.945313,-0.804687 C 15.460853,12.429772 15.75,11.729023 15.75,11 15.75,10.270977 15.460897,9.5702305 14.945313,9.0546875 14.429778,8.5391807 13.729032,8.25 13,8.25 Z m 0,1.5 c 0.331767,0 0.650101,0.130582 0.884766,0.365234 C 14.119381,10.349831 14.25,10.668224 14.25,11 c 0,0.331776 -0.130576,0.650107 -0.365234,0.884766 C 13.650107,12.119424 13.331776,12.25 13,12.25 12.668224,12.25 12.349893,12.119424 12.115234,11.884766 11.880576,11.650107 11.75,11.331776 11.75,11 c 0,-0.331776 0.130619,-0.650169 0.365234,-0.884766 C 12.349899,9.880582 12.668233,9.75 13,9.75 Z"
       id="path3" />
    <path
       style="color:#000000;fill:#2c3e50;stroke-linecap:round;stroke-linejoin:round;-inkscape-stroke:none"
       d="M 4,7.25 A 0.75,0.75 0 0 0 3.25,8 0.75,0.75 0 0 0 4,8.75 H 7 A 0.75,0.75 0 0 0 7.75,8 0.75,0.75 0 0 0 7,7.25 Z"
       id="path4" />
    <path
       style="color:#000000;fill:#2c3e50;stroke-linecap:round;stroke-linejoin:round;-inkscape-stroke:none"
       d="M 4,11.25 A 0.75,0.75 0 0 0 3.25,12 0.75,0.75 0 0 0 4,12.75 H 7 A 0.75,0.75 0 0 0 7.75,12 0.75,0.75 0 0 0 7,11.25 Z"
       id="path5" />
    <path
       style="color:#000000;fill:#2c3e50;stroke-linecap:round;stroke-linejoin:round;-inkscape-stroke:none"
       d="M 4,15.25 A 0.75,0.75 0 0 0 3.25,16 0.75,0.75 0 0 0 4,16.75 H 7 A 0.75,0.75 0 0 0 7.75,16 0.75,0.75 0 0 0 7,15.25 Z"
       id="path6" />
  </g>
  <defs
     id="defs6">
    <clipPath
       id="clip0_17830_268">
      <rect
         width="24"
         height="24"
         fill="white"
         id="rect6" />
    </clipPath>
  </defs>
</svg>
