<?xml version="1.0" encoding="UTF-8" standalone="no"?>
<svg
   width="24"
   height="24"
   viewBox="0 0 24 24"
   fill="none"
   version="1.1"
   id="svg10"
   sodipodi:docname="adjustments-search_2px.svg"
   inkscape:version="1.3.2 (091e20e, 2023-11-25)"
   xmlns:inkscape="http://www.inkscape.org/namespaces/inkscape"
   xmlns:sodipodi="http://sodipodi.sourceforge.net/DTD/sodipodi-0.dtd"
   xmlns="http://www.w3.org/2000/svg"
   xmlns:svg="http://www.w3.org/2000/svg">
  <sodipodi:namedview
     id="namedview10"
     pagecolor="#505050"
     bordercolor="#eeeeee"
     borderopacity="1"
     inkscape:showpageshadow="0"
     inkscape:pageopacity="0"
     inkscape:pagecheckerboard="0"
     inkscape:deskcolor="#505050"
     inkscape:zoom="9.8333333"
     inkscape:cx="11.949153"
     inkscape:cy="12"
     inkscape:window-width="1504"
     inkscape:window-height="449"
     inkscape:window-x="0"
     inkscape:window-y="25"
     inkscape:window-maximized="0"
     inkscape:current-layer="svg10" />
  <g
     clip-path="url(#clip0_20119_453)"
     id="g10">
    <path
       style="color:#000000;fill:#2c3e50;stroke-linecap:round;stroke-linejoin:round;-inkscape-stroke:none"
       d="M 6,7 C 5.2047416,7 4.4412465,7.316551 3.8789063,7.8789062 3.316551,8.4412465 3,9.2047416 3,10 3,10.795243 3.3165904,11.558748 3.8789063,12.121094 4.4412548,12.683487 5.2047542,13 6,13 6.7952458,13 7.5587452,12.683487 8.1210938,12.121094 8.6834096,11.558748 9,10.795243 9,10 9,9.2047416 8.683449,8.4412465 8.1210938,7.8789062 7.5587535,7.316551 6.7952584,7 6,7 Z M 6,9 C 6.2656006,9 6.5192322,9.1051647 6.7070312,9.2929688 6.8948353,9.4807678 7,9.7343994 7,10 7,10.265556 6.8948746,10.519178 6.7070312,10.707031 6.5192406,10.894837 6.2656131,11 6,11 5.7343869,11 5.4807594,10.894837 5.2929687,10.707031 5.1051254,10.519178 5,10.265556 5,10 5,9.7343994 5.1051647,9.4807678 5.2929687,9.2929688 5.4807678,9.1051647 5.7343994,9 6,9 Z"
       id="path1" />
    <path
       style="color:#000000;fill:#2c3e50;stroke-linecap:round;stroke-linejoin:round;-inkscape-stroke:none"
       d="M 6,3 A 1,1 0 0 0 5,4 V 8 A 1,1 0 0 0 6,9 1,1 0 0 0 7,8 V 4 A 1,1 0 0 0 6,3 Z"
       id="path2" />
    <path
       style="color:#000000;fill:#2c3e50;stroke-linecap:round;stroke-linejoin:round;-inkscape-stroke:none"
       d="m 6,11 a 1,1 0 0 0 -1,1 v 8 a 1,1 0 0 0 1,1 1,1 0 0 0 1,-1 V 12 A 1,1 0 0 0 6,11 Z"
       id="path3" />
    <path
       style="color:#000000;fill:#2c3e50;stroke-linecap:round;stroke-linejoin:round;-inkscape-stroke:none"
       d="m 12,13 c -0.654092,0 -1.289418,0.214517 -1.810547,0.609375 a 1.0001,1.0001 0 0 0 -0.002,0 C 9.6662619,14.004352 9.2882636,14.55803 9.1113281,15.1875 c -0.1770006,0.629542 -0.1433196,1.301541 0.095703,1.910156 a 1.0001,1.0001 0 0 0 0.00195,0 c 0.2391443,0.608432 0.6702212,1.122094 1.2285156,1.462891 a 1,1 0 0 0 1.375,-0.332031 1,1 0 0 0 -0.333984,-1.375 c -0.186105,-0.113603 -0.328348,-0.285114 -0.408203,-0.488282 -0.0798,-0.203184 -0.09226,-0.426661 -0.0332,-0.636718 0.05907,-0.210129 0.185414,-0.393569 0.359375,-0.525391 C 11.570355,15.071384 11.781893,15 12,15 a 1,1 0 0 0 1,-1 1,1 0 0 0 -1,-1 z"
       id="path4" />
    <path
       style="color:#000000;fill:#2c3e50;stroke-linecap:round;stroke-linejoin:round;-inkscape-stroke:none"
       d="m 12,3 a 1,1 0 0 0 -1,1 v 10 a 1,1 0 0 0 1,1 1,1 0 0 0 1,-1 V 4 A 1,1 0 0 0 12,3 Z"
       id="path5" />
    <path
       style="color:#000000;fill:#2c3e50;stroke-linecap:round;stroke-linejoin:round;-inkscape-stroke:none"
       d="M 18,4 C 17.204757,4 16.441252,4.3165904 15.878906,4.8789062 15.316513,5.4412548 15,6.2047542 15,7 15,7.7952458 15.316513,8.5587452 15.878906,9.1210938 16.441252,9.6834096 17.204757,10 18,10 18.795243,10 19.558748,9.6834096 20.121094,9.1210938 20.683487,8.5587452 21,7.7952458 21,7 21,6.2047542 20.683487,5.4412548 20.121094,4.8789062 19.558748,4.3165904 18.795243,4 18,4 Z m 0,2 c 0.265556,0 0.519178,0.1051254 0.707031,0.2929687 C 18.894837,6.4807594 19,6.7343869 19,7 19,7.2656131 18.894837,7.5192406 18.707031,7.7070312 18.519178,7.8948746 18.265556,8 18,8 17.734444,8 17.480822,7.8948746 17.292969,7.7070312 17.105163,7.5192406 17,7.2656131 17,7 17,6.7343869 17.105163,6.4807594 17.292969,6.2929687 17.480822,6.1051254 17.734444,6 18,6 Z"
       id="path6" />
    <path
       style="color:#000000;fill:#2c3e50;stroke-linecap:round;stroke-linejoin:round;-inkscape-stroke:none"
       d="m 18,3 a 1,1 0 0 0 -1,1 v 1 a 1,1 0 0 0 1,1 1,1 0 0 0 1,-1 V 4 A 1,1 0 0 0 18,3 Z"
       id="path7" />
    <path
       style="color:#000000;fill:#2c3e50;stroke-linecap:round;stroke-linejoin:round;-inkscape-stroke:none"
       d="m 18,8 a 1,1 0 0 0 -1,1 v 2 a 1,1 0 0 0 1,1 1,1 0 0 0 1,-1 V 9 A 1,1 0 0 0 18,8 Z"
       id="path8" />
    <path
       style="color:#000000;fill:#2c3e50;stroke-linecap:round;stroke-linejoin:round;-inkscape-stroke:none"
       d="m 18,14 c -1.060472,0 -2.078254,0.422004 -2.828125,1.171875 C 14.422004,15.921746 14,16.939528 14,18 c 0,1.060472 0.422004,2.078254 1.171875,2.828125 C 15.921746,21.577996 16.939528,22 18,22 19.060472,22 20.078254,21.577996 20.828125,20.828125 21.577996,20.078254 22,19.060472 22,18 22,16.939528 21.577996,15.921746 20.828125,15.171875 20.078254,14.422004 19.060472,14 18,14 Z m 0,2 c 0.530726,0 1.038734,0.210609 1.414062,0.585937 C 19.789391,16.961266 20,17.469274 20,18 20,18.530726 19.789391,19.038734 19.414062,19.414062 19.038734,19.789391 18.530726,20 18,20 17.469274,20 16.961266,19.789391 16.585937,19.414062 16.210609,19.038734 16,18.530726 16,18 16,17.469274 16.210609,16.961266 16.585937,16.585937 16.961266,16.210609 17.469274,16 18,16 Z"
       id="path9" />
    <path
       style="color:#000000;fill:#2c3e50;stroke-linecap:round;stroke-linejoin:round;-inkscape-stroke:none"
       d="m 19.492187,19.492187 a 1,1 0 0 0 0,1.414063 l 1.800782,1.800781 a 1,1 0 0 0 1.414062,0 1,1 0 0 0 0,-1.414062 L 20.90625,19.492187 a 1,1 0 0 0 -1.414063,0 z"
       id="path10" />
  </g>
  <defs
     id="defs10">
    <clipPath
       id="clip0_20119_453">
      <rect
         width="24"
         height="24"
         fill="white"
         id="rect10" />
    </clipPath>
  </defs>
</svg>
