<?xml version="1.0" encoding="UTF-8" standalone="no"?>
<svg
   width="24"
   height="24"
   viewBox="0 0 24 24"
   fill="none"
   version="1.1"
   id="svg3"
   sodipodi:docname="alert-tringle_2px.svg"
   inkscape:version="1.3.2 (091e20e, 2023-11-25)"
   xmlns:inkscape="http://www.inkscape.org/namespaces/inkscape"
   xmlns:sodipodi="http://sodipodi.sourceforge.net/DTD/sodipodi-0.dtd"
   xmlns="http://www.w3.org/2000/svg"
   xmlns:svg="http://www.w3.org/2000/svg">
  <sodipodi:namedview
     id="namedview3"
     pagecolor="#505050"
     bordercolor="#eeeeee"
     borderopacity="1"
     inkscape:showpageshadow="0"
     inkscape:pageopacity="0"
     inkscape:pagecheckerboard="0"
     inkscape:deskcolor="#505050"
     inkscape:zoom="9.8333333"
     inkscape:cx="11.949153"
     inkscape:cy="12"
     inkscape:window-width="1504"
     inkscape:window-height="449"
     inkscape:window-x="0"
     inkscape:window-y="25"
     inkscape:window-maximized="0"
     inkscape:current-layer="svg3" />
  <g
     clip-path="url(#clip0_20122_420)"
     id="g3">
    <path
       style="color:#000000;fill:#2c3e50;stroke-linecap:round;stroke-linejoin:round;-inkscape-stroke:none"
       d="m 12,8 a 1,1 0 0 0 -1,1 v 4 a 1,1 0 0 0 1,1 1,1 0 0 0 1,-1 V 9 A 1,1 0 0 0 12,8 Z"
       id="path1" />
    <path
       style="color:#000000;fill:#2c3e50;stroke-linecap:round;stroke-linejoin:round;-inkscape-stroke:none"
       d="m 12,1.6679687 c -0.501023,0 -0.993135,0.129112 -1.429687,0.3750001 -0.436396,0.2459006 -0.802848,0.6006037 -1.0625005,1.0292968 a 1.0001,1.0001 0 0 0 -0.00195,0.00586 L 1.3984375,16.611328 A 1.0001,1.0001 0 0 0 1.390625,16.625 C 1.1362394,17.065543 1.0014464,17.565529 1,18.074219 c -0.001461,0.508731 0.1309272,1.009185 0.3828125,1.451172 0.2518891,0.442119 0.6145766,0.810315 1.0527344,1.068359 0.4383274,0.258001 0.9384255,0.396709 1.4472656,0.402344 a 1.0001,1.0001 0 0 0 0.00977,0 H 20.107422 a 1.0001,1.0001 0 0 0 0.01172,0 c 0.508571,-0.0058 1.007088,-0.144252 1.445312,-0.402344 0.437973,-0.257945 0.800884,-0.626479 1.052734,-1.068359 0.251754,-0.44171 0.382078,-0.94275 0.38086,-1.451172 -0.0012,-0.508678 -0.134878,-1.00693 -0.388672,-1.447266 a 1.0001,1.0001 0 0 0 -0.0078,-0.01563 L 14.494141,3.0761719 a 1.0001,1.0001 0 0 0 -0.002,-0.00391 C 14.232589,2.6439126 13.866328,2.2889215 13.429688,2.0429688 12.993123,1.796988 12.501023,1.6679687 12,1.6679687 Z m 0,2.0000001 c 0.157176,0 0.312384,0.040088 0.449219,0.1171875 0.136959,0.077147 0.25043,0.1876192 0.332031,0.3222656 l 8.097656,13.5214841 c 0.0784,0.137533 0.118763,0.293297 0.119141,0.451172 3.82e-4,0.159577 -0.04009,0.316388 -0.119141,0.455078 -0.07895,0.138519 -0.192452,0.25293 -0.330078,0.333985 -0.137375,0.08091 -0.293697,0.125139 -0.453125,0.126953 H 3.9042969 C 3.7448376,18.994328 3.5887838,18.950139 3.4511719,18.869141 3.3133702,18.787985 3.2001043,18.673837 3.1210938,18.535156 3.0420994,18.396544 2.9995413,18.239746 3,18.080078 c 4.517e-4,-0.158871 0.043832,-0.315276 0.1230469,-0.453125 3.181e-4,-5.53e-4 -3.193e-4,-0.0014 0,-0.002 L 11.21875,4.1074219 c 4.86e-4,-8.017e-4 0.0015,-0.00115 0.002,-0.00195 C 11.30196,3.9722392 11.414595,3.8618945 11.550781,3.7851563 11.687828,3.7079646 11.842824,3.6679688 12,3.6679688 Z"
       id="path2" />
    <path
       style="color:#000000;fill:#2c3e50;stroke-linecap:round;stroke-linejoin:round;-inkscape-stroke:none"
       d="m 12,15 a 1,1 0 0 0 -1,1 1,1 0 0 0 1,1 h 0.0098 a 1,1 0 0 0 1,-1 1,1 0 0 0 -1,-1 z"
       id="path3" />
  </g>
  <defs
     id="defs3">
    <clipPath
       id="clip0_20122_420">
      <rect
         width="24"
         height="24"
         fill="white"
         id="rect3" />
    </clipPath>
  </defs>
</svg>
