<svg width="24" height="24" viewBox="0 0 24 24" fill="none" xmlns="http://www.w3.org/2000/svg">
<g clip-path="url(#clip0_20122_416)">
<path d="M11.9999 1.66998C12.9549 1.66998 13.8449 2.13698 14.3899 2.91698L14.4949 3.07698L22.6089 16.625C22.8555 17.0521 22.9897 17.5347 22.9989 18.0278C23.0081 18.5209 22.8919 19.0082 22.6614 19.4442C22.4309 19.8801 22.0935 20.2504 21.6808 20.5205C21.2682 20.7905 20.7937 20.9513 20.3019 20.988L20.1069 20.996H3.88194C3.38965 20.9904 2.90678 20.8603 2.47841 20.6176C2.05005 20.3749 1.69015 20.0277 1.43231 19.6083C1.17447 19.1889 1.0271 18.711 1.00396 18.2192C0.980808 17.7274 1.08264 17.2378 1.29994 16.796L1.39894 16.611L9.50894 3.07298C9.76861 2.6448 10.1342 2.29075 10.5706 2.045C11.0069 1.79925 11.4992 1.67009 11.9999 1.66998ZM12.0099 15L11.8829 15.007C11.6399 15.0359 11.4159 15.1529 11.2534 15.3359C11.0908 15.519 11.0011 15.7552 11.0011 16C11.0011 16.2447 11.0908 16.481 11.2534 16.664C11.4159 16.847 11.6399 16.9641 11.8829 16.993L11.9999 17L12.1269 16.993C12.37 16.9641 12.594 16.847 12.7565 16.664C12.9191 16.481 13.0088 16.2447 13.0088 16C13.0088 15.7552 12.9191 15.519 12.7565 15.3359C12.594 15.1529 12.37 15.0359 12.1269 15.007L12.0099 15ZM11.9999 7.99998C11.755 8.00002 11.5186 8.08994 11.3356 8.2527C11.1525 8.41546 11.0356 8.63973 11.0069 8.88298L10.9999 8.99998V13L11.0069 13.117C11.0359 13.36 11.1529 13.584 11.3359 13.7466C11.5189 13.9091 11.7552 13.9989 11.9999 13.9989C12.2447 13.9989 12.481 13.9091 12.664 13.7466C12.847 13.584 12.964 13.36 12.9929 13.117L12.9999 13V8.99998L12.9929 8.88298C12.9643 8.63973 12.8474 8.41546 12.6643 8.2527C12.4813 8.08994 12.2449 8.00002 11.9999 7.99998Z" fill="black"/>
</g>
<defs>
<clipPath id="clip0_20122_416">
<rect width="24" height="24" fill="white"/>
</clipPath>
</defs>
</svg>
