<svg width="24" height="24" viewBox="0 0 24 24" fill="none" xmlns="http://www.w3.org/2000/svg">
<g clip-path="url(#clip0_17718_403)">
<mask id="mask0_17718_403" style="mask-type:luminance" maskUnits="userSpaceOnUse" x="0" y="0" width="24" height="24">
<path d="M24 0H0V24H24V0Z" fill="white"/>
</mask>
<g mask="url(#mask0_17718_403)">
<path d="M5 11.25C4.80109 11.25 4.61032 11.329 4.46967 11.4697C4.32902 11.6103 4.25 11.8011 4.25 12C4.25 12.1989 4.32902 12.3897 4.46967 12.5303C4.61032 12.671 4.80109 12.75 5 12.75H19C19.1989 12.75 19.3897 12.671 19.5303 12.5303C19.671 12.3897 19.75 12.1989 19.75 12C19.75 11.8011 19.671 11.6103 19.5303 11.4697C19.3897 11.329 19.1989 11.25 19 11.25H5Z" fill="#2C3E50"/>
<path d="M4.99989 11.25C4.90131 11.2498 4.80364 11.269 4.71249 11.3065C4.62133 11.344 4.53847 11.3992 4.46864 11.4688C4.39872 11.5384 4.34324 11.6212 4.30539 11.7124C4.26753 11.8036 4.24805 11.9013 4.24805 12C4.24805 12.0987 4.26753 12.1965 4.30539 12.2876C4.34324 12.3788 4.39872 12.4616 4.46864 12.5313L8.46864 16.5313C8.53832 16.6012 8.62111 16.6567 8.71227 16.6945C8.80344 16.7324 8.90118 16.7518 8.99989 16.7518C9.0986 16.7518 9.19634 16.7324 9.2875 16.6945C9.37867 16.6567 9.46146 16.6012 9.53114 16.5313C9.60106 16.4616 9.65654 16.3788 9.69439 16.2876C9.73224 16.1965 9.75173 16.0987 9.75173 16C9.75173 15.9013 9.73224 15.8036 9.69439 15.7124C9.65654 15.6212 9.60106 15.5384 9.53114 15.4688L5.53114 11.4688C5.46131 11.3992 5.37845 11.344 5.28729 11.3065C5.19613 11.269 5.09847 11.2498 4.99989 11.25Z" fill="#2C3E50"/>
<path d="M8.99989 7.25C8.90131 7.24976 8.80364 7.26896 8.71249 7.30649C8.62133 7.34403 8.53847 7.39916 8.46864 7.46875L4.46864 11.4688C4.39872 11.5384 4.34324 11.6212 4.30539 11.7124C4.26753 11.8036 4.24805 11.9013 4.24805 12C4.24805 12.0987 4.26753 12.1965 4.30539 12.2876C4.34324 12.3788 4.39872 12.4616 4.46864 12.5313C4.53832 12.6012 4.62111 12.6567 4.71227 12.6945C4.80344 12.7324 4.90118 12.7518 4.99989 12.7518C5.0986 12.7518 5.19634 12.7324 5.2875 12.6945C5.37867 12.6567 5.46146 12.6012 5.53114 12.5313L9.53114 8.53125C9.60106 8.46157 9.65654 8.37878 9.69439 8.28762C9.73224 8.19645 9.75173 8.09871 9.75173 8C9.75173 7.90129 9.73224 7.80355 9.69439 7.71239C9.65654 7.62122 9.60106 7.53843 9.53114 7.46875C9.46131 7.39916 9.37845 7.34403 9.28729 7.30649C9.19613 7.26896 9.09847 7.24976 8.99989 7.25Z" fill="#2C3E50"/>
</g>
</g>
<defs>
<clipPath id="clip0_17718_403">
<rect width="24" height="24" fill="white"/>
</clipPath>
</defs>
</svg>
