<svg width="24" height="24" viewBox="0 0 24 24" fill="none" xmlns="http://www.w3.org/2000/svg">
<g clip-path="url(#clip0_17718_390)">
<mask id="mask0_17718_390" style="mask-type:luminance" maskUnits="userSpaceOnUse" x="0" y="0" width="24" height="24">
<path d="M24 0H0V24H24V0Z" fill="white"/>
</mask>
<g mask="url(#mask0_17718_390)">
<path d="M4 14.25C3.27096 14.25 2.57022 14.5391 2.05469 15.0547C1.53918 15.5702 1.25 16.271 1.25 17C1.25 17.729 1.53918 18.4298 2.05469 18.9453C2.57022 19.4609 3.27096 19.75 4 19.75C4.72904 19.75 5.42978 19.4609 5.94531 18.9453C6.46082 18.4298 6.75 17.729 6.75 17C6.75 16.271 6.46082 15.5702 5.94531 15.0547C5.42978 14.5391 4.72904 14.25 4 14.25ZM4 15.75C4.33182 15.75 4.65016 15.8806 4.88477 16.1152C5.11942 16.3499 5.25 16.6682 5.25 17C5.25 17.3318 5.11942 17.6501 4.88477 17.8848C4.65016 18.1194 4.33182 18.25 4 18.25C3.66818 18.25 3.34984 18.1194 3.11523 17.8848C2.88058 17.6501 2.75 17.3318 2.75 17C2.75 16.6682 2.88058 16.3499 3.11523 16.1152C3.34984 15.8806 3.66818 15.75 4 15.75Z" fill="#2C3E50"/>
<path d="M13 14.25C12.271 14.25 11.5702 14.5391 11.0547 15.0547C10.5391 15.5702 10.25 16.271 10.25 17C10.25 17.729 10.5391 18.4298 11.0547 18.9453C11.5702 19.4609 12.271 19.75 13 19.75C13.729 19.75 14.4298 19.4609 14.9453 18.9453C15.4609 18.4298 15.75 17.729 15.75 17C15.75 16.271 15.4609 15.5702 14.9453 15.0547C14.4298 14.5391 13.729 14.25 13 14.25ZM13 15.75C13.3318 15.75 13.6501 15.8806 13.8848 16.1152C14.1194 16.3499 14.25 16.6682 14.25 17C14.25 17.3318 14.1194 17.6501 13.8848 17.8848C13.6501 18.1194 13.3318 18.25 13 18.25C12.6682 18.25 12.3499 18.1194 12.1152 17.8848C11.8806 17.6501 11.75 17.3318 11.75 17C11.75 16.6682 11.8806 16.3499 12.1152 16.1152C12.3499 15.8806 12.6682 15.75 13 15.75Z" fill="#2C3E50"/>
<path d="M4 18.25C3.80109 18.25 3.61032 18.329 3.46967 18.4697C3.32902 18.6103 3.25 18.8011 3.25 19C3.25 19.1989 3.32902 19.3897 3.46967 19.5303C3.61032 19.671 3.80109 19.75 4 19.75H13C13.1989 19.75 13.3897 19.671 13.5303 19.5303C13.671 19.3897 13.75 19.1989 13.75 19C13.75 18.8011 13.671 18.6103 13.5303 18.4697C13.3897 18.329 13.1989 18.25 13 18.25H4Z" fill="#2C3E50"/>
<path d="M4 14.25C3.80109 14.25 3.61032 14.329 3.46967 14.4697C3.32902 14.6103 3.25 14.8011 3.25 15C3.25 15.1989 3.32902 15.3897 3.46967 15.5303C3.61032 15.671 3.80109 15.75 4 15.75H13C13.1989 15.75 13.3897 15.671 13.5303 15.5303C13.671 15.3897 13.75 15.1989 13.75 15C13.75 14.8011 13.671 14.6103 13.5303 14.4697C13.3897 14.329 13.1989 14.25 13 14.25H4Z" fill="#2C3E50"/>
<path d="M8 6.25C7.80109 6.25002 7.61034 6.32904 7.46969 6.46969C7.32904 6.61034 7.25002 6.80109 7.25 7V12C7.25 12.1989 7.32902 12.3897 7.46967 12.5303C7.61032 12.671 7.80109 12.75 8 12.75C8.19891 12.75 8.38968 12.671 8.53033 12.5303C8.67098 12.3897 8.75 12.1989 8.75 12V7.75H10C10.597 7.75 11.1697 7.98606 11.5918 8.4082C12.014 8.83037 12.25 9.40299 12.25 10V15C12.25 15.1989 12.329 15.3897 12.4697 15.5303C12.6103 15.671 12.8011 15.75 13 15.75C13.1989 15.75 13.3897 15.671 13.5303 15.5303C13.671 15.3897 13.75 15.1989 13.75 15V10C13.75 9.00571 13.3554 8.0507 12.6523 7.34766C11.9493 6.64458 10.9942 6.25 10 6.25H8Z" fill="#2C3E50"/>
<path d="M6 11.25C5.53608 11.25 5.08965 11.4339 4.76172 11.7617C4.43365 12.0897 4.25 12.5362 4.25 13V15C4.25 15.1989 4.32902 15.3897 4.46967 15.5303C4.61032 15.671 4.80109 15.75 5 15.75C5.19891 15.75 5.38968 15.671 5.53033 15.5303C5.67098 15.3897 5.75 15.1989 5.75 15V13C5.75 12.9334 5.77528 12.8712 5.82227 12.8242C5.86941 12.7771 5.93348 12.75 6 12.75H13C13.1989 12.75 13.3897 12.671 13.5303 12.5303C13.671 12.3897 13.75 12.1989 13.75 12C13.75 11.8011 13.671 11.6103 13.5303 11.4697C13.3897 11.329 13.1989 11.25 13 11.25H6Z" fill="#2C3E50"/>
<path d="M18.08 4.25391C17.9685 4.24174 17.8557 4.25473 17.7499 4.29191C17.6441 4.32909 17.548 4.38952 17.4686 4.46875L12.4686 9.46875C12.3987 9.53843 12.3432 9.62122 12.3054 9.71239C12.2675 9.80355 12.248 9.90129 12.248 10C12.248 10.0987 12.2675 10.1965 12.3054 10.2876C12.3432 10.3788 12.3987 10.4616 12.4686 10.5313C12.5383 10.6012 12.6211 10.6566 12.7123 10.6945C12.8034 10.7324 12.9012 10.7518 12.9999 10.7518C13.0986 10.7518 13.1963 10.7324 13.2875 10.6945C13.3787 10.6566 13.4615 10.6012 13.5311 10.5313L17.871 6.19141L20.4882 10.2832C20.5952 10.4507 20.7644 10.5688 20.9585 10.6117C21.1526 10.6545 21.3557 10.6186 21.5233 10.5117C21.6908 10.4047 21.809 10.2355 21.8518 10.0414C21.8947 9.84734 21.8587 9.64417 21.7518 9.47656L18.6327 4.5957C18.5721 4.50093 18.491 4.421 18.3953 4.36184C18.2996 4.30267 18.1918 4.26578 18.08 4.25391Z" fill="#2C3E50"/>
<path d="M21.1212 9.13086C21.0226 9.13062 20.925 9.14982 20.8338 9.18736C20.7426 9.22489 20.6598 9.28003 20.5899 9.34961L16.3497 13.5898C16.2091 13.7305 16.1301 13.9212 16.1301 14.1201C16.1301 14.319 16.2091 14.5097 16.3497 14.6504C17.0521 15.3537 18.0062 15.7491 19.0001 15.75C19.7412 15.7494 20.4661 15.5293 21.0821 15.1172C21.6977 14.7054 22.1794 14.1198 22.463 13.4355V13.4335C22.746 12.7493 22.8202 11.9958 22.6759 11.2695C22.5315 10.5425 22.1741 9.87397 21.6505 9.34956C21.5099 9.20951 21.3196 9.1309 21.1212 9.13086ZM20.9591 11.1016C21.0326 11.2613 21.1686 11.3882 21.2032 11.5625C21.2899 11.9987 21.2465 12.4503 21.0763 12.8613C20.9062 13.2723 20.6179 13.6238 20.2481 13.8711C19.8786 14.1183 19.4448 14.2496 19.0001 14.25C18.6847 14.2497 18.4431 14.0252 18.1603 13.9004L20.9591 11.1016Z" fill="#2C3E50"/>
</g>
</g>
<defs>
<clipPath id="clip0_17718_390">
<rect width="24" height="24" fill="white"/>
</clipPath>
</defs>
</svg>
