<svg width="24" height="24" viewBox="0 0 24 24" fill="none" xmlns="http://www.w3.org/2000/svg">
<g clip-path="url(#clip0_17718_411)">
<mask id="mask0_17718_411" style="mask-type:luminance" maskUnits="userSpaceOnUse" x="0" y="0" width="24" height="24">
<path d="M24 0H0V24H24V0Z" fill="white"/>
</mask>
<g mask="url(#mask0_17718_411)">
<path d="M5 6.25C4.53615 6.25 4.0897 6.43376 3.76172 6.76172C3.43376 7.0897 3.25 7.53615 3.25 8V15C3.25 15.4638 3.43365 15.9103 3.76172 16.2383C4.08965 16.5661 4.53608 16.75 5 16.75H19C19.4639 16.75 19.9103 16.5663 20.2383 16.2383C20.5663 15.9103 20.75 15.4639 20.75 15V8C20.75 7.53608 20.5661 7.08965 20.2383 6.76172C19.9103 6.43365 19.4638 6.25 19 6.25H5ZM5 7.75H19C19.0666 7.75 19.1288 7.77528 19.1758 7.82227C19.2229 7.86941 19.25 7.93348 19.25 8V15C19.25 15.0665 19.2248 15.1307 19.1777 15.1777C19.1307 15.2248 19.0665 15.25 19 15.25H5C4.93348 15.25 4.86941 15.2229 4.82227 15.1758C4.77528 15.1288 4.75 15.0666 4.75 15V8C4.75 7.93341 4.77517 7.86937 4.82227 7.82227C4.86937 7.77517 4.93341 7.75 5 7.75Z" fill="#2C3E50"/>
<path d="M7 15.25C6.80109 15.25 6.61032 15.329 6.46967 15.4697C6.32902 15.6103 6.25 15.8011 6.25 16V20C6.25 20.1989 6.32902 20.3897 6.46967 20.5303C6.61032 20.671 6.80109 20.75 7 20.75C7.19891 20.75 7.38968 20.671 7.53033 20.5303C7.67098 20.3897 7.75 20.1989 7.75 20V16C7.75 15.8011 7.67098 15.6103 7.53033 15.4697C7.38968 15.329 7.19891 15.25 7 15.25Z" fill="#2C3E50"/>
<path d="M16.4999 6.25C16.4013 6.24976 16.3036 6.26896 16.2125 6.30649C16.1213 6.34403 16.0385 6.39916 15.9686 6.46875L6.96864 15.4688C6.89872 15.5384 6.84324 15.6212 6.80539 15.7124C6.76753 15.8036 6.74805 15.9013 6.74805 16C6.74805 16.0987 6.76753 16.1965 6.80539 16.2876C6.84324 16.3788 6.89872 16.4616 6.96864 16.5313C7.03832 16.6012 7.12111 16.6566 7.21227 16.6945C7.30344 16.7324 7.40118 16.7518 7.49989 16.7518C7.5986 16.7518 7.69634 16.7324 7.7875 16.6945C7.87867 16.6566 7.96146 16.6012 8.03114 16.5313L17.0311 7.53125C17.1011 7.46157 17.1565 7.37878 17.1944 7.28762C17.2322 7.19645 17.2517 7.09871 17.2517 7C17.2517 6.90129 17.2322 6.80355 17.1944 6.71239C17.1565 6.62122 17.1011 6.53843 17.0311 6.46875C16.9613 6.39916 16.8784 6.34403 16.7873 6.30649C16.6961 6.26896 16.5985 6.24976 16.4999 6.25Z" fill="#2C3E50"/>
<path d="M19.9999 8.75C19.9013 8.74976 19.8036 8.76896 19.7125 8.80649C19.6213 8.84403 19.5385 8.89916 19.4686 8.96875L12.9686 15.4688C12.8987 15.5384 12.8432 15.6212 12.8054 15.7124C12.7675 15.8036 12.748 15.9013 12.748 16C12.748 16.0987 12.7675 16.1965 12.8054 16.2876C12.8432 16.3788 12.8987 16.4616 12.9686 16.5313C13.0383 16.6012 13.1211 16.6567 13.2123 16.6945C13.3034 16.7324 13.4012 16.7518 13.4999 16.7518C13.5986 16.7518 13.6963 16.7324 13.7875 16.6945C13.8787 16.6567 13.9615 16.6012 14.0311 16.5313L20.5311 10.0313C20.6011 9.96157 20.6565 9.87878 20.6944 9.78762C20.7322 9.69645 20.7517 9.59871 20.7517 9.5C20.7517 9.40129 20.7322 9.30355 20.6944 9.21239C20.6565 9.12122 20.6011 9.03843 20.5311 8.96875C20.4613 8.89916 20.3784 8.84403 20.2873 8.80649C20.1961 8.76896 20.0985 8.74976 19.9999 8.75Z" fill="#2C3E50"/>
<path d="M10.4999 6.25C10.4013 6.24976 10.3036 6.26896 10.2125 6.30649C10.1213 6.34403 10.0385 6.39916 9.96864 6.46875L3.46864 12.9688C3.39872 13.0384 3.34324 13.1212 3.30539 13.2124C3.26753 13.3036 3.24805 13.4013 3.24805 13.5C3.24805 13.5987 3.26753 13.6965 3.30539 13.7876C3.34324 13.8788 3.39872 13.9616 3.46864 14.0313C3.53832 14.1012 3.62111 14.1567 3.71227 14.1945C3.80344 14.2324 3.90118 14.2518 3.99989 14.2518C4.0986 14.2518 4.19634 14.2324 4.2875 14.1945C4.37867 14.1567 4.46146 14.1012 4.53114 14.0313L11.0311 7.53125C11.1011 7.46157 11.1565 7.37878 11.1944 7.28762C11.2322 7.19645 11.2517 7.09871 11.2517 7C11.2517 6.90129 11.2322 6.80355 11.1944 6.71239C11.1565 6.62122 11.1011 6.53843 11.0311 6.46875C10.9613 6.39916 10.8784 6.34403 10.7873 6.30649C10.6961 6.26896 10.5985 6.24976 10.4999 6.25Z" fill="#2C3E50"/>
<path d="M17 15.25C16.8011 15.25 16.6103 15.329 16.4697 15.4697C16.329 15.6103 16.25 15.8011 16.25 16V20C16.25 20.1989 16.329 20.3897 16.4697 20.5303C16.6103 20.671 16.8011 20.75 17 20.75C17.1989 20.75 17.3897 20.671 17.5303 20.5303C17.671 20.3897 17.75 20.1989 17.75 20V16C17.75 15.8011 17.671 15.6103 17.5303 15.4697C17.3897 15.329 17.1989 15.25 17 15.25Z" fill="#2C3E50"/>
<path d="M5 19.25C4.80109 19.25 4.61032 19.329 4.46967 19.4697C4.32902 19.6103 4.25 19.8011 4.25 20C4.25 20.1989 4.32902 20.3897 4.46967 20.5303C4.61032 20.671 4.80109 20.75 5 20.75H9C9.19891 20.75 9.38968 20.671 9.53033 20.5303C9.67098 20.3897 9.75 20.1989 9.75 20C9.75 19.8011 9.67098 19.6103 9.53033 19.4697C9.38968 19.329 9.19891 19.25 9 19.25H5Z" fill="#2C3E50"/>
<path d="M15 19.25C14.8011 19.25 14.6103 19.329 14.4697 19.4697C14.329 19.6103 14.25 19.8011 14.25 20C14.25 20.1989 14.329 20.3897 14.4697 20.5303C14.6103 20.671 14.8011 20.75 15 20.75H19C19.1989 20.75 19.3897 20.671 19.5303 20.5303C19.671 20.3897 19.75 20.1989 19.75 20C19.75 19.8011 19.671 19.6103 19.5303 19.4697C19.3897 19.329 19.1989 19.25 19 19.25H15Z" fill="#2C3E50"/>
<path d="M17 4.25C16.8011 4.25 16.6103 4.32902 16.4697 4.46967C16.329 4.61032 16.25 4.80109 16.25 5V7C16.25 7.19891 16.329 7.38968 16.4697 7.53033C16.6103 7.67098 16.8011 7.75 17 7.75C17.1989 7.75 17.3897 7.67098 17.5303 7.53033C17.671 7.38968 17.75 7.19891 17.75 7V5C17.75 4.80109 17.671 4.61032 17.5303 4.46967C17.3897 4.32902 17.1989 4.25 17 4.25Z" fill="#2C3E50"/>
<path d="M7 4.25C6.80109 4.25 6.61032 4.32902 6.46967 4.46967C6.32902 4.61032 6.25 4.80109 6.25 5V7C6.25 7.19891 6.32902 7.38968 6.46967 7.53033C6.61032 7.67098 6.80109 7.75 7 7.75C7.19891 7.75 7.38968 7.67098 7.53033 7.53033C7.67098 7.38968 7.75 7.19891 7.75 7V5C7.75 4.80109 7.67098 4.61032 7.53033 4.46967C7.38968 4.32902 7.19891 4.25 7 4.25Z" fill="#2C3E50"/>
</g>
</g>
<defs>
<clipPath id="clip0_17718_411">
<rect width="24" height="24" fill="white"/>
</clipPath>
</defs>
</svg>
