<?xml version="1.0" encoding="UTF-8" standalone="no"?>
<svg
   width="24"
   height="24"
   viewBox="0 0 24 24"
   fill="none"
   version="1.1"
   id="svg1"
   sodipodi:docname="bolt_2px.svg"
   inkscape:version="1.3.2 (091e20e, 2023-11-25)"
   xmlns:inkscape="http://www.inkscape.org/namespaces/inkscape"
   xmlns:sodipodi="http://sodipodi.sourceforge.net/DTD/sodipodi-0.dtd"
   xmlns="http://www.w3.org/2000/svg"
   xmlns:svg="http://www.w3.org/2000/svg">
  <sodipodi:namedview
     id="namedview1"
     pagecolor="#505050"
     bordercolor="#eeeeee"
     borderopacity="1"
     inkscape:showpageshadow="0"
     inkscape:pageopacity="0"
     inkscape:pagecheckerboard="0"
     inkscape:deskcolor="#505050"
     inkscape:zoom="9.8333333"
     inkscape:cx="11.949153"
     inkscape:cy="12"
     inkscape:window-width="1504"
     inkscape:window-height="449"
     inkscape:window-x="0"
     inkscape:window-y="25"
     inkscape:window-maximized="0"
     inkscape:current-layer="svg1" />
  <g
     clip-path="url(#clip0_20123_65)"
     id="g1">
    <path
       style="color:#000000;fill:#2c3e50;stroke-linecap:round;stroke-linejoin:round;-inkscape-stroke:none"
       d="M 13.308594,2.0488281 A 1.0001,1.0001 0 0 0 12.191406,2.4121094 L 4.1914062,13.412109 A 1.0001,1.0001 0 0 0 5,15 h 5 v 6 a 1.0001,1.0001 0 0 0 1.808594,0.587891 l 8,-11 A 1.0001,1.0001 0 0 0 19,9 H 14 V 3 A 1.0001,1.0001 0 0 0 13.308594,2.0488281 Z M 12,6.0742187 V 10 a 1.0001,1.0001 0 0 0 1,1 h 4.037109 L 12,17.925781 V 14 A 1.0001,1.0001 0 0 0 11,13 H 6.9628906 Z"
       id="path1" />
  </g>
  <defs
     id="defs1">
    <clipPath
       id="clip0_20123_65">
      <rect
         width="24"
         height="24"
         fill="white"
         id="rect1" />
    </clipPath>
  </defs>
</svg>
