<?xml version="1.0" encoding="UTF-8" standalone="no"?>
<svg
   width="24"
   height="24"
   viewBox="0 0 24 24"
   fill="none"
   version="1.1"
   id="svg2"
   sodipodi:docname="bolt-off_2px.svg"
   inkscape:version="1.3.2 (091e20e, 2023-11-25)"
   xmlns:inkscape="http://www.inkscape.org/namespaces/inkscape"
   xmlns:sodipodi="http://sodipodi.sourceforge.net/DTD/sodipodi-0.dtd"
   xmlns="http://www.w3.org/2000/svg"
   xmlns:svg="http://www.w3.org/2000/svg">
  <sodipodi:namedview
     id="namedview2"
     pagecolor="#505050"
     bordercolor="#eeeeee"
     borderopacity="1"
     inkscape:showpageshadow="0"
     inkscape:pageopacity="0"
     inkscape:pagecheckerboard="0"
     inkscape:deskcolor="#505050"
     inkscape:zoom="9.8333333"
     inkscape:cx="11.949153"
     inkscape:cy="12"
     inkscape:window-width="1504"
     inkscape:window-height="449"
     inkscape:window-x="0"
     inkscape:window-y="25"
     inkscape:window-maximized="0"
     inkscape:current-layer="svg2" />
  <g
     clip-path="url(#clip0_20123_69)"
     id="g2">
    <path
       style="color:#000000;fill:#2c3e50;stroke-linecap:round;stroke-linejoin:round;-inkscape-stroke:none"
       d="m 3,2 a 1,1 0 0 0 -0.7070312,0.2929688 1,1 0 0 0 0,1.4140625 L 20.292969,21.707031 a 1,1 0 0 0 1.414062,0 1,1 0 0 0 0,-1.414062 L 3.7070313,2.2929688 A 1,1 0 0 0 3,2 Z"
       id="path1" />
    <path
       style="color:#000000;fill:#2c3e50;stroke-linecap:round;stroke-linejoin:round;-inkscape-stroke:none"
       d="m 13.308594,2.0488281 a 1.0001,1.0001 0 0 0 -1.117188,0.3632813 l -2.5253904,3.46875 A 1,1 0 0 0 9.8867188,7.2792969 1,1 0 0 0 11.283203,7.0585937 L 12,6.0742187 V 9 a 1,1 0 0 0 1,1 1,1 0 0 0 1,1 h 3.037109 l -0.949218,1.304688 a 1,1 0 0 0 0.220703,1.396484 1,1 0 0 0 1.396484,-0.220703 l 2.103516,-2.892578 A 1.0001,1.0001 0 0 0 19,9 H 14 V 3 A 1.0001,1.0001 0 0 0 13.308594,2.0488281 Z M 8.6347656,7.8027344 A 1,1 0 0 0 7.9804687,8.2011719 L 4.1914062,13.412109 A 1.0001,1.0001 0 0 0 5,15 h 5 v 6 a 1.0001,1.0001 0 0 0 1.808594,0.587891 l 4.21289,-5.789063 a 1,1 0 0 0 -0.220703,-1.398437 1,1 0 0 0 -1.396484,0.220703 L 12,17.925781 V 14 A 1.0001,1.0001 0 0 0 11,13 H 6.9648437 L 9.5996094,9.3789063 A 1,1 0 0 0 9.3789063,7.9804687 1,1 0 0 0 8.6347656,7.8027344 Z"
       id="path2" />
  </g>
  <defs
     id="defs2">
    <clipPath
       id="clip0_20123_69">
      <rect
         width="24"
         height="24"
         fill="white"
         id="rect2" />
    </clipPath>
  </defs>
</svg>
