<?xml version="1.0" encoding="UTF-8" standalone="no"?>
<svg
   width="24"
   height="24"
   viewBox="0 0 24 24"
   fill="none"
   version="1.1"
   id="svg3"
   xmlns="http://www.w3.org/2000/svg"
   xmlns:svg="http://www.w3.org/2000/svg">
  <g
     clip-path="url(#clip0_17855_34758)"
     id="g3">
    <path
       style="color:#000000;fill:#2c3e50;stroke-linecap:round;stroke-linejoin:round;-inkscape-stroke:none"
       d="M 12,2.25 A 0.75,0.75 0 0 0 11.25,3 V 4 A 0.75,0.75 0 0 0 12,4.75 0.75,0.75 0 0 0 12.75,4 V 3 A 0.75,0.75 0 0 0 12,2.25 Z M 5.5996094,4.8496094 a 0.75,0.75 0 0 0 -0.5292969,0.2207031 0.75,0.75 0 0 0 0,1.0605469 l 0.6992187,0.6992187 a 0.75,0.75 0 0 0 1.0605469,0 0.75,0.75 0 0 0 0,-1.0605469 L 6.1308594,5.0703125 a 0.75,0.75 0 0 0 -0.53125,-0.2207031 z m 12.8007816,0 a 0.75,0.75 0 0 0 -0.53125,0.2207031 l -0.699219,0.6992187 a 0.75,0.75 0 0 0 0,1.0605469 0.75,0.75 0 0 0 1.060547,0 l 0.699218,-0.6992187 a 0.75,0.75 0 0 0 0,-1.0605469 0.75,0.75 0 0 0 -0.529296,-0.2207031 z M 3,11.25 A 0.75,0.75 0 0 0 2.25,12 0.75,0.75 0 0 0 3,12.75 H 4 A 0.75,0.75 0 0 0 4.75,12 0.75,0.75 0 0 0 4,11.25 Z m 17,0 A 0.75,0.75 0 0 0 19.25,12 0.75,0.75 0 0 0 20,12.75 h 1 A 0.75,0.75 0 0 0 21.75,12 0.75,0.75 0 0 0 21,11.25 Z"
       id="path1" />
    <path
       style="color:#000000;fill:#2c3e50;stroke-linecap:round;stroke-linejoin:round;-inkscape-stroke:none"
       d="m 12,6.25 c -1.206722,0 -2.3823746,0.3803523 -3.3613281,1.0859375 -0.9789559,0.705587 -1.712144,1.7008619 -2.09375,2.8457035 -0.3816086,1.144768 -0.393023,2.381411 -0.033203,3.533203 0.3598041,1.151856 1.0736379,2.160752 2.0390626,2.884765 l -0.078125,-0.06641 c 0.3068221,0.303734 0.5373223,0.674459 0.6738281,1.083984 0.1365308,0.409507 0.1745714,0.846526 0.1113281,1.273438 A 0.750075,0.750075 0 0 0 9.25,19 c 0,0.729023 0.2891469,1.429772 0.804688,1.945312 C 10.570228,21.460853 11.270977,21.75 12,21.75 c 0.729023,0 1.429772,-0.289147 1.945313,-0.804688 C 14.460853,20.429772 14.75,19.729023 14.75,19 a 0.750075,0.750075 0 0 0 -0.0078,-0.109375 c -0.06324,-0.426912 -0.02522,-0.863952 0.111328,-1.273438 0.136464,-0.409472 0.367009,-0.78023 0.673828,-1.083984 l -0.07813,0.06641 c 0.965375,-0.724002 1.67925,-1.732883 2.039062,-2.884765 0.35982,-1.151792 0.348469,-2.388419 -0.0332,-3.533203 C 17.073528,9.0367604 16.340244,8.0415207 15.361328,7.3359375 14.382328,6.6303766 13.206722,6.25 12,6.25 Z m 0,1.5 c 0.892076,0 1.760577,0.2810965 2.484375,0.8027344 0.723682,0.5216155 1.264826,1.2571978 1.546875,2.1035156 0.282128,0.846213 0.29137,1.759922 0.02539,2.611328 -0.265988,0.851516 -0.792237,1.597617 -1.50586,2.132813 a 0.750075,0.750075 0 0 0 -0.07813,0.06641 c -0.47398,0.469245 -0.832033,1.042855 -1.042968,1.675781 -0.211053,0.632913 -0.269632,1.30691 -0.171875,1.966797 L 13.25,19 c 0,0.331776 -0.130576,0.650107 -0.365234,0.884766 C 12.650107,20.119424 12.331776,20.25 12,20.25 11.668224,20.25 11.349893,20.119424 11.115234,19.884766 10.880576,19.650107 10.75,19.331776 10.75,19 l -0.0078,0.109375 c 0.09776,-0.659887 0.03913,-1.333904 -0.171875,-1.966797 -0.210954,-0.632874 -0.568932,-1.206516 -1.0429692,-1.675781 a 0.750075,0.750075 0 0 0 -0.078125,-0.06641 C 8.735585,14.865206 8.2093547,14.11912 7.9433594,13.267578 7.6773799,12.416172 7.6866593,11.50248 7.96875,10.65625 8.2508633,9.8098932 8.7919226,9.0743462 9.515625,8.5527344 10.23933,8.0311208 11.107924,7.75 12,7.75 Z"
       id="path2" />
    <path
       style="color:#000000;fill:#2c3e50;stroke-linecap:round;stroke-linejoin:round;-inkscape-stroke:none"
       d="m 9.6992188,16.25 a 0.75,0.75 0 0 0 -0.75,0.75 0.75,0.75 0 0 0 0.75,0.75 h 4.6015622 a 0.75,0.75 0 0 0 0.75,-0.75 0.75,0.75 0 0 0 -0.75,-0.75 z"
       id="path3" />
  </g>
  <defs
     id="defs3">
    <clipPath
       id="clip0_17855_34758">
      <rect
         width="24"
         height="24"
         fill="#ffffff"
         id="rect3"
         x="0"
         y="0" />
    </clipPath>
  </defs>
</svg>
