<?xml version="1.0" encoding="UTF-8" standalone="no"?>
<svg
   width="24"
   height="24"
   viewBox="0 0 24 24"
   fill="none"
   version="1.1"
   id="svg4"
   xmlns="http://www.w3.org/2000/svg"
   xmlns:svg="http://www.w3.org/2000/svg">
  <g
     clip-path="url(#clip0_17855_34752)"
     id="g4">
    <path
       style="color:#000000;fill:#2c3e50;stroke-linecap:round;stroke-linejoin:round;-inkscape-stroke:none"
       d="M 12,2.25 A 0.75,0.75 0 0 0 11.25,3 V 4 A 0.75,0.75 0 0 0 12,4.75 0.75,0.75 0 0 0 12.75,4 V 3 A 0.75,0.75 0 0 0 12,2.25 Z M 5.5996094,4.8496094 a 0.75,0.75 0 0 0 -0.5292969,0.2207031 0.75,0.75 0 0 0 0,1.0605469 l 0.6992187,0.6992187 a 0.75,0.75 0 0 0 1.0605469,0 0.75,0.75 0 0 0 0,-1.0605469 L 6.1308594,5.0703125 a 0.75,0.75 0 0 0 -0.53125,-0.2207031 z m 12.8007816,0 a 0.75,0.75 0 0 0 -0.53125,0.2207031 l -0.699219,0.6992187 a 0.75,0.75 0 0 0 0,1.0605469 0.75,0.75 0 0 0 1.060547,0 l 0.699218,-0.6992187 a 0.75,0.75 0 0 0 0,-1.0605469 0.75,0.75 0 0 0 -0.529296,-0.2207031 z M 3,11.25 A 0.75,0.75 0 0 0 2.25,12 0.75,0.75 0 0 0 3,12.75 H 4 A 0.75,0.75 0 0 0 4.75,12 0.75,0.75 0 0 0 4,11.25 Z m 17,0 A 0.75,0.75 0 0 0 19.25,12 0.75,0.75 0 0 0 20,12.75 h 1 A 0.75,0.75 0 0 0 21.75,12 0.75,0.75 0 0 0 21,11.25 Z"
       id="path1" />
    <path
       style="color:#000000;fill:#2c3e50;stroke-linecap:round;stroke-linejoin:round;-inkscape-stroke:none"
       d="m 10.953125,6.3457031 a 0.75,0.75 0 0 0 -0.601562,0.875 0.75,0.75 0 0 0 0.875,0.5996094 c 0.678907,-0.1259638 1.377733,-0.084012 2.037109,0.1210937 0.659365,0.2051027 1.258438,0.5677866 1.746094,1.0566407 0.487718,0.4888317 0.849125,1.0880641 1.052734,1.7480471 0.203496,0.65979 0.242825,1.360391 0.115234,2.039062 a 0.75,0.75 0 0 0 0.59961,0.875 0.75,0.75 0 0 0 0.875,-0.597656 c 0.172609,-0.918127 0.119053,-1.865204 -0.15625,-2.757812 C 17.220703,9.412032 16.732146,8.5988871 16.072266,7.9375 15.412522,7.2761352 14.601018,6.7852893 13.708984,6.5078125 12.816961,6.230339 11.871616,6.1752872 10.953125,6.3457031 Z M 7.9433594,7.9238281 C 7.3586941,8.505837 6.9049986,9.2080171 6.6152344,9.9804688 6.3254423,10.752849 6.2060804,11.577458 6.2636719,12.400391 c 0.057602,0.822926 0.290987,1.625097 0.6855468,2.349609 0.3945201,0.72446 0.9414406,1.354722 1.6015626,1.849609 l -0.078125,-0.06641 c 0.3067761,0.303688 0.5373281,0.674532 0.6738281,1.083984 0.1365028,0.40954 0.1745049,0.846444 0.1113281,1.273438 A 0.750075,0.750075 0 0 0 9.25,19 c 0,0.729023 0.2891623,1.429787 0.804688,1.945312 C 10.570228,21.460853 11.270914,21.75 12,21.75 c 0.729023,0 1.429772,-0.289147 1.945313,-0.804688 C 14.460791,20.429834 14.75,19.729117 14.75,19 a 0.750075,0.750075 0 0 0 -0.0078,-0.109375 c -0.06324,-0.426912 -0.02516,-0.863884 0.111328,-1.273438 0.136607,-0.409585 0.367045,-0.780343 0.673828,-1.083984 0.188637,-0.146786 0.372015,-0.299649 0.541015,-0.46875 a 0.75,0.75 0 0 0 -0.002,-1.060547 0.75,0.75 0 0 0 -1.060547,0 c -0.142741,0.142827 -0.29373,0.275431 -0.455078,0.396485 a 0.750075,0.750075 0 0 0 -0.07813,0.06641 c -0.474216,0.469359 -0.831976,1.043167 -1.042968,1.675781 -0.210908,0.632846 -0.269632,1.30691 -0.171875,1.966797 L 13.25,19 c 0,0.331682 -0.130713,0.650244 -0.365234,0.884766 C 12.650107,20.119424 12.331776,20.25 12,20.25 11.668087,20.25 11.349893,20.119424 11.115234,19.884766 10.88076,19.650292 10.75,19.331776 10.75,19 l -0.0078,0.109375 c 0.09762,-0.659805 0.03906,-1.333938 -0.171875,-1.966797 -0.21094,-0.632746 -0.568886,-1.20647 -1.0429692,-1.675781 a 0.750075,0.750075 0 0 0 -0.078125,-0.06641 C 8.9614019,15.034679 8.5592174,14.566789 8.2675781,14.03125 7.9759587,13.495763 7.802343,12.905147 7.7597656,12.296875 7.7171972,11.688609 7.8053639,11.078631 8.0195313,10.507813 a 0.750075,0.750075 0 0 0 0,-0.002 C 8.2337065,9.9349123 8.5697794,9.4184914 9.0019531,8.9882813 a 0.75,0.75 0 0 0 0.00195,-1.0605469 0.75,0.75 0 0 0 -1.0605469,-0.00391 z"
       id="path2" />
    <path
       style="color:#000000;fill:#2c3e50;stroke-linecap:round;stroke-linejoin:round;-inkscape-stroke:none"
       d="m 9.6992188,16.25 a 0.75,0.75 0 0 0 -0.75,0.75 0.75,0.75 0 0 0 0.75,0.75 h 4.6015622 a 0.75,0.75 0 0 0 0.75,-0.75 0.75,0.75 0 0 0 -0.75,-0.75 z"
       id="path3" />
    <path
       style="color:#000000;fill:#2c3e50;stroke-linecap:round;stroke-linejoin:round;-inkscape-stroke:none"
       d="m 3,2.25 a 0.75,0.75 0 0 0 -0.53125,0.21875 0.75,0.75 0 0 0 0,1.0625 l 18,18 a 0.75,0.75 0 0 0 1.0625,0 0.75,0.75 0 0 0 0,-1.0625 l -18,-18 A 0.75,0.75 0 0 0 3,2.25 Z"
       id="path4" />
  </g>
  <defs
     id="defs4">
    <clipPath
       id="clip0_17855_34752">
      <rect
         width="24"
         height="24"
         fill="#ffffff"
         id="rect4"
         x="0"
         y="0" />
    </clipPath>
  </defs>
</svg>
