<?xml version="1.0" encoding="UTF-8" standalone="no"?>
<svg
   width="24"
   height="24"
   viewBox="0 0 24 24"
   fill="none"
   version="1.1"
   id="svg6"
   sodipodi:docname="calendar-time_2px.svg"
   inkscape:version="1.3.2 (091e20e, 2023-11-25)"
   xmlns:inkscape="http://www.inkscape.org/namespaces/inkscape"
   xmlns:sodipodi="http://sodipodi.sourceforge.net/DTD/sodipodi-0.dtd"
   xmlns="http://www.w3.org/2000/svg"
   xmlns:svg="http://www.w3.org/2000/svg">
  <sodipodi:namedview
     id="namedview6"
     pagecolor="#505050"
     bordercolor="#eeeeee"
     borderopacity="1"
     inkscape:showpageshadow="0"
     inkscape:pageopacity="0"
     inkscape:pagecheckerboard="0"
     inkscape:deskcolor="#505050"
     inkscape:zoom="9.8333333"
     inkscape:cx="11.949153"
     inkscape:cy="12"
     inkscape:window-width="1504"
     inkscape:window-height="449"
     inkscape:window-x="0"
     inkscape:window-y="25"
     inkscape:window-maximized="0"
     inkscape:current-layer="svg6" />
  <g
     clip-path="url(#clip0_20119_943)"
     id="g6">
    <path
       style="color:#000000;fill:#2c3e50;stroke-linecap:round;stroke-linejoin:round;-inkscape-stroke:none"
       d="M 5,4 C 4.2047416,4 3.4412465,4.316551 2.8789063,4.8789062 2.316551,5.4412465 2,6.2047416 2,7 v 12 c 0,0.795243 0.3165904,1.558748 0.8789063,2.121094 C 3.4412548,21.683487 4.2047542,22 5,22 h 6.794922 a 1,1 0 0 0 1,-1 1,1 0 0 0 -1,-1 H 5 C 4.7343869,20 4.4807594,19.894837 4.2929687,19.707031 4.1051254,19.519178 4,19.265556 4,19 V 7 C 4,6.7343994 4.1051647,6.4807678 4.2929687,6.2929687 4.4807678,6.1051647 4.7343994,6 5,6 h 12 c 0.265556,0 0.519178,0.1051254 0.707031,0.2929687 C 17.894837,6.4807594 18,6.7343869 18,7 v 4 a 1,1 0 0 0 1,1 1,1 0 0 0 1,-1 V 7 C 20,6.2047542 19.683487,5.4412548 19.121094,4.8789062 18.558748,4.3165904 17.795243,4 17,4 Z"
       id="path1" />
    <path
       style="color:#000000;fill:#2c3e50;stroke-linecap:round;stroke-linejoin:round;-inkscape-stroke:none"
       d="m 18,13 c -1.325705,0 -2.597772,0.527335 -3.535156,1.464844 C 13.527335,15.402228 13,16.674295 13,18 c 0,1.325705 0.527335,2.597772 1.464844,3.535156 C 15.402228,22.472665 16.674295,23 18,23 19.325705,23 20.597772,22.472665 21.535156,21.535156 22.472665,20.597772 23,19.325705 23,18 23,16.674295 22.472665,15.402228 21.535156,14.464844 20.597772,13.527335 19.325705,13 18,13 Z m 0,2 c 0.796093,0 1.558279,0.316017 2.121094,0.878906 C 20.683983,16.441721 21,17.203907 21,18 21,18.796093 20.683983,19.558279 20.121094,20.121094 19.558279,20.683983 18.796093,21 18,21 17.203907,21 16.441721,20.683983 15.878906,20.121094 15.316017,19.558279 15,18.796093 15,18 15,17.203907 15.316017,16.441721 15.878906,15.878906 16.441721,15.316017 17.203907,15 18,15 Z"
       id="path2" />
    <path
       style="color:#000000;fill:#2c3e50;stroke-linecap:round;stroke-linejoin:round;-inkscape-stroke:none"
       d="m 15,2 a 1,1 0 0 0 -1,1 v 4 a 1,1 0 0 0 1,1 1,1 0 0 0 1,-1 V 3 A 1,1 0 0 0 15,2 Z"
       id="path3" />
    <path
       style="color:#000000;fill:#2c3e50;stroke-linecap:round;stroke-linejoin:round;-inkscape-stroke:none"
       d="M 7,2 A 1,1 0 0 0 6,3 V 7 A 1,1 0 0 0 7,8 1,1 0 0 0 8,7 V 3 A 1,1 0 0 0 7,2 Z"
       id="path4" />
    <path
       style="color:#000000;fill:#2c3e50;stroke-linecap:round;stroke-linejoin:round;-inkscape-stroke:none"
       d="m 3,10 a 1,1 0 0 0 -1,1 1,1 0 0 0 1,1 h 16 a 1,1 0 0 0 1,-1 1,1 0 0 0 -1,-1 z"
       id="path5" />
    <path
       style="color:#000000;fill:#2c3e50;stroke-linecap:round;stroke-linejoin:round;-inkscape-stroke:none"
       d="m 18,15.496094 a 1,1 0 0 0 -1,1 V 18 a 1.0001,1.0001 0 0 0 0.292969,0.707031 l 1,1 a 1,1 0 0 0 1.414062,0 1,1 0 0 0 0,-1.414062 L 19,17.585937 v -1.089843 a 1,1 0 0 0 -1,-1 z"
       id="path6" />
  </g>
  <defs
     id="defs6">
    <clipPath
       id="clip0_20119_943">
      <rect
         width="24"
         height="24"
         fill="white"
         id="rect6" />
    </clipPath>
  </defs>
</svg>
