<?xml version="1.0" encoding="UTF-8" standalone="no"?>
<svg
   width="24"
   height="24"
   viewBox="0 0 24 24"
   fill="none"
   version="1.1"
   id="svg11"
   sodipodi:docname="calendar-month_2px.svg"
   inkscape:version="1.3.2 (091e20e, 2023-11-25)"
   xmlns:inkscape="http://www.inkscape.org/namespaces/inkscape"
   xmlns:sodipodi="http://sodipodi.sourceforge.net/DTD/sodipodi-0.dtd"
   xmlns="http://www.w3.org/2000/svg"
   xmlns:svg="http://www.w3.org/2000/svg">
  <sodipodi:namedview
     id="namedview11"
     pagecolor="#505050"
     bordercolor="#eeeeee"
     borderopacity="1"
     inkscape:showpageshadow="0"
     inkscape:pageopacity="0"
     inkscape:pagecheckerboard="0"
     inkscape:deskcolor="#505050"
     inkscape:zoom="9.8333333"
     inkscape:cx="11.949153"
     inkscape:cy="12"
     inkscape:window-width="1504"
     inkscape:window-height="449"
     inkscape:window-x="0"
     inkscape:window-y="25"
     inkscape:window-maximized="0"
     inkscape:current-layer="svg11" />
  <g
     clip-path="url(#clip0_20119_884)"
     id="g11">
    <path
       style="color:#000000;fill:#2c3e50;stroke-linecap:round;stroke-linejoin:round;-inkscape-stroke:none"
       d="M 6,4 C 5.2047416,4 4.4412465,4.316551 3.8789063,4.8789062 3.316551,5.4412465 3,6.2047416 3,7 v 12 c 0,0.795243 0.3165904,1.558748 0.8789063,2.121094 C 4.4412548,21.683487 5.2047542,22 6,22 h 12 c 0.795231,0 1.55874,-0.316552 2.121094,-0.878906 C 20.683448,20.55874 21,19.795231 21,19 V 7 C 21,6.2047542 20.683487,5.4412548 20.121094,4.8789062 19.558748,4.3165904 18.795243,4 18,4 Z m 0,2 h 12 c 0.265556,0 0.519178,0.1051254 0.707031,0.2929687 C 18.894837,6.4807594 19,6.7343869 19,7 v 12 c 0,0.265568 -0.105124,0.519186 -0.292969,0.707031 C 18.519186,19.894876 18.265568,20 18,20 H 6 C 5.7343869,20 5.4807594,19.894837 5.2929687,19.707031 5.1051254,19.519178 5,19.265556 5,19 V 7 C 5,6.7343994 5.1051647,6.4807678 5.2929687,6.2929687 5.4807678,6.1051647 5.7343994,6 6,6 Z"
       id="path1" />
    <path
       style="color:#000000;fill:#2c3e50;stroke-linecap:round;stroke-linejoin:round;-inkscape-stroke:none"
       d="m 16,2 a 1,1 0 0 0 -1,1 v 4 a 1,1 0 0 0 1,1 1,1 0 0 0 1,-1 V 3 A 1,1 0 0 0 16,2 Z"
       id="path2" />
    <path
       style="color:#000000;fill:#2c3e50;stroke-linecap:round;stroke-linejoin:round;-inkscape-stroke:none"
       d="M 8,2 A 1,1 0 0 0 7,3 V 7 A 1,1 0 0 0 8,8 1,1 0 0 0 9,7 V 3 A 1,1 0 0 0 8,2 Z"
       id="path3" />
    <path
       style="color:#000000;fill:#2c3e50;stroke-linecap:round;stroke-linejoin:round;-inkscape-stroke:none"
       d="m 4,10 a 1,1 0 0 0 -1,1 1,1 0 0 0 1,1 h 16 a 1,1 0 0 0 1,-1 1,1 0 0 0 -1,-1 z"
       id="path4" />
    <path
       style="color:#000000;fill:#2c3e50;stroke-linecap:round;stroke-linejoin:round;-inkscape-stroke:none"
       d="m 7,13 a 1,1 0 0 0 -1,1 1,1 0 0 0 1,1 h 0.013672 a 1,1 0 0 0 1,-1 1,1 0 0 0 -1,-1 z"
       id="path5" />
    <path
       style="color:#000000;fill:#2c3e50;stroke-linecap:round;stroke-linejoin:round;-inkscape-stroke:none"
       d="m 10.009766,13 a 1,1 0 0 0 -1.0000004,1 1,1 0 0 0 1.0000004,1 h 0.0059 a 1,1 0 0 0 1,-1 1,1 0 0 0 -1,-1 z"
       id="path6" />
    <path
       style="color:#000000;fill:#2c3e50;stroke-linecap:round;stroke-linejoin:round;-inkscape-stroke:none"
       d="m 13.009766,13 a 1,1 0 0 0 -1,1 1,1 0 0 0 1,1 h 0.0059 a 1,1 0 0 0 1,-1 1,1 0 0 0 -1,-1 z"
       id="path7" />
    <path
       style="color:#000000;fill:#2c3e50;stroke-linecap:round;stroke-linejoin:round;-inkscape-stroke:none"
       d="m 16.015625,13 a 1,1 0 0 0 -1,1 1,1 0 0 0 1,1 h 0.0039 a 1,1 0 0 0 1,-1 1,1 0 0 0 -1,-1 z"
       id="path8" />
    <path
       style="color:#000000;fill:#2c3e50;stroke-linecap:round;stroke-linejoin:round;-inkscape-stroke:none"
       d="m 13.015625,16 a 1,1 0 0 0 -1,1 1,1 0 0 0 1,1 h 0.0039 a 1,1 0 0 0 1,-1 1,1 0 0 0 -1,-1 z"
       id="path9" />
    <path
       style="color:#000000;fill:#2c3e50;stroke-linecap:round;stroke-linejoin:round;-inkscape-stroke:none"
       d="m 7.0097656,16 a 1,1 0 0 0 -1,1 1,1 0 0 0 1,1 h 0.00586 a 1,1 0 0 0 1,-1 1,1 0 0 0 -1,-1 z"
       id="path10" />
    <path
       style="color:#000000;fill:#2c3e50;stroke-linecap:round;stroke-linejoin:round;-inkscape-stroke:none"
       d="m 10.009766,16 a 1,1 0 0 0 -1.0000004,1 1,1 0 0 0 1.0000004,1 h 0.0059 a 1,1 0 0 0 1,-1 1,1 0 0 0 -1,-1 z"
       id="path11" />
  </g>
  <defs
     id="defs11">
    <clipPath
       id="clip0_20119_884">
      <rect
         width="24"
         height="24"
         fill="white"
         id="rect11" />
    </clipPath>
  </defs>
</svg>
