<?xml version="1.0" encoding="UTF-8" standalone="no"?>
<svg
   width="24"
   height="24"
   viewBox="0 0 24 24"
   fill="none"
   version="1.1"
   id="svg4"
   sodipodi:docname="camera-plus_2px.svg"
   inkscape:version="1.3.2 (091e20e, 2023-11-25)"
   xmlns:inkscape="http://www.inkscape.org/namespaces/inkscape"
   xmlns:sodipodi="http://sodipodi.sourceforge.net/DTD/sodipodi-0.dtd"
   xmlns="http://www.w3.org/2000/svg"
   xmlns:svg="http://www.w3.org/2000/svg">
  <sodipodi:namedview
     id="namedview4"
     pagecolor="#505050"
     bordercolor="#eeeeee"
     borderopacity="1"
     inkscape:showpageshadow="0"
     inkscape:pageopacity="0"
     inkscape:pagecheckerboard="0"
     inkscape:deskcolor="#505050"
     inkscape:zoom="9.8333333"
     inkscape:cx="11.949153"
     inkscape:cy="12"
     inkscape:window-width="1504"
     inkscape:window-height="449"
     inkscape:window-x="0"
     inkscape:window-y="25"
     inkscape:window-maximized="0"
     inkscape:current-layer="svg4" />
  <g
     clip-path="url(#clip0_20122_306)"
     id="g4">
    <path
       style="color:#000000;fill:#2c3e50;stroke-linecap:round;stroke-linejoin:round;-inkscape-stroke:none"
       d="M 9,3 C 8.4699438,3 7.9607273,3.2111677 7.5859375,3.5859375 7.2111677,3.9607273 7,4.4699438 7,5 7,5.2656006 6.8948353,5.5192322 6.7070312,5.7070312 6.5192322,5.8948353 6.2656006,6 6,6 H 5 C 4.2047416,6 3.4412465,6.316551 2.8789063,6.8789062 2.316551,7.4412465 2,8.2047416 2,9 v 9 c 0,0.795243 0.3165904,1.558748 0.8789063,2.121094 C 3.4412548,20.683487 4.2047542,21 5,21 h 7 a 1,1 0 0 0 1,-1 1,1 0 0 0 -1,-1 H 5 C 4.7343869,19 4.4807594,18.894837 4.2929687,18.707031 4.1051254,18.519178 4,18.265556 4,18 V 9 C 4,8.7343994 4.1051647,8.4807678 4.2929687,8.2929688 4.4807678,8.1051647 4.7343994,8 5,8 H 6 C 6.7952584,8 7.5587535,7.683449 8.1210938,7.1210937 8.683449,6.5587535 9,5.7952584 9,5 h 6 c 0,0.7952458 0.316513,1.5587452 0.878906,2.1210937 C 16.441252,7.6834096 17.204757,8 18,8 h 1 c 0.265556,0 0.519178,0.1051254 0.707031,0.2929688 C 19.894837,8.4807594 20,8.7343869 20,9 v 3.5 a 1,1 0 0 0 1,1 1,1 0 0 0 1,-1 V 9 C 22,8.2047542 21.683487,7.4412548 21.121094,6.8789062 20.558748,6.3165904 19.795243,6 19,6 H 18 C 17.734444,6 17.480822,5.8948746 17.292969,5.7070312 17.105163,5.5192406 17,5.2656131 17,5 17,4.4698432 16.788716,3.9606708 16.414062,3.5859375 16.039202,3.2110167 15.530056,3 15,3 Z"
       id="path1" />
    <path
       style="color:#000000;fill:#2c3e50;stroke-linecap:round;stroke-linejoin:round;-inkscape-stroke:none"
       d="m 16,18 a 1,1 0 0 0 -1,1 1,1 0 0 0 1,1 h 6 a 1,1 0 0 0 1,-1 1,1 0 0 0 -1,-1 z"
       id="path2" />
    <path
       style="color:#000000;fill:#2c3e50;stroke-linecap:round;stroke-linejoin:round;-inkscape-stroke:none"
       d="m 19,15 a 1,1 0 0 0 -1,1 v 6 a 1,1 0 0 0 1,1 1,1 0 0 0 1,-1 v -6 a 1,1 0 0 0 -1,-1 z"
       id="path3" />
    <path
       style="color:#000000;fill:#2c3e50;stroke-linecap:round;stroke-linejoin:round;-inkscape-stroke:none"
       d="M 12,9 C 10.939528,9 9.9217577,9.422019 9.171875,10.171875 8.4219777,10.921759 8,11.939553 8,13 8,14.060447 8.4219777,15.078241 9.171875,15.828125 9.9217577,16.577981 10.939528,17 12,17 13.060472,17 14.078254,16.577996 14.828125,15.828125 15.577996,15.078254 16,14.060472 16,13 16,11.939528 15.577996,10.921746 14.828125,10.171875 14.078254,9.4220043 13.060472,9 12,9 Z m 0,2 c 0.530726,0 1.038734,0.210609 1.414063,0.585938 C 13.789391,11.961266 14,12.469274 14,13 14,13.530726 13.789391,14.038734 13.414063,14.414063 13.038734,14.789391 12.530726,15 12,15 11.469274,15 10.961294,14.789405 10.585938,14.414063 10.210616,14.038748 10,13.530751 10,13 10,12.469249 10.210616,11.961252 10.585938,11.585938 10.961294,11.210595 11.469274,11 12,11 Z"
       id="path4" />
  </g>
  <defs
     id="defs4">
    <clipPath
       id="clip0_20122_306">
      <rect
         width="24"
         height="24"
         fill="white"
         id="rect4" />
    </clipPath>
  </defs>
</svg>
