<?xml version="1.0" encoding="UTF-8" standalone="no"?>
<svg
   width="40"
   height="40"
   viewBox="0 0 40 40"
   fill="none"
   version="1.1"
   id="svg4"
   sodipodi:docname="camera-plus-40px.svg"
   inkscape:export-filename="camera-plus-40px.svg"
   inkscape:export-xdpi="96"
   inkscape:export-ydpi="96"
   inkscape:version="1.3.2 (091e20e, 2023-11-25)"
   xmlns:inkscape="http://www.inkscape.org/namespaces/inkscape"
   xmlns:sodipodi="http://sodipodi.sourceforge.net/DTD/sodipodi-0.dtd"
   xmlns="http://www.w3.org/2000/svg"
   xmlns:svg="http://www.w3.org/2000/svg">
  <sodipodi:namedview
     id="namedview4"
     pagecolor="#505050"
     bordercolor="#eeeeee"
     borderopacity="1"
     inkscape:showpageshadow="0"
     inkscape:pageopacity="0"
     inkscape:pagecheckerboard="0"
     inkscape:deskcolor="#505050"
     inkscape:zoom="5.9"
     inkscape:cx="19.915254"
     inkscape:cy="20"
     inkscape:window-width="1504"
     inkscape:window-height="449"
     inkscape:window-x="0"
     inkscape:window-y="25"
     inkscape:window-maximized="0"
     inkscape:current-layer="svg4" />
  <g
     clip-path="url(#clip0_17830_337)"
     id="g4">
    <path
       style="color:#000000;fill:#2c3e50;stroke-linecap:round;stroke-linejoin:round;-inkscape-stroke:none"
       d="m 15,5.4160156 c -0.773051,0 -1.515788,0.3086519 -2.0625,0.8554688 -0.546718,0.5466485 -0.853516,1.2894248 -0.853516,2.0625 0,0.553011 -0.2203,1.0816281 -0.611328,1.4726562 C 11.081626,10.197733 10.553066,10.416016 10,10.416016 H 8.3339844 c -1.2150067,0 -2.382937,0.484389 -3.2421875,1.34375 C 4.2326019,12.618933 3.75,13.784877 3.75,15 v 15 c 0,1.21506 0.4825548,2.38102 1.3417969,3.240234 0.8591957,0.859169 2.0270865,1.34375 3.2421875,1.34375 H 20 a 1.25,1.25 0 0 0 1.25,-1.25 1.25,1.25 0 0 0 -1.25,-1.25 H 8.3339844 c -0.5529973,0 -1.0835664,-0.220297 -1.4746094,-0.611328 C 6.4683783,31.081672 6.25,30.552938 6.25,30 V 15 c 0,-0.553075 0.2183312,-1.081625 0.609375,-1.472656 0.3909882,-0.391038 0.9215178,-0.611328 1.4746094,-0.611328 H 10 c 1.215132,0 2.381065,-0.482491 3.240234,-1.341797 0.859171,-0.859171 1.34375,-2.0251274 1.34375,-3.2402346 0,-0.110964 0.04261,-0.216451 0.121094,-0.2949219 C 14.783366,7.96076 14.889052,7.9160156 15,7.9160156 h 10 c 0.110948,0 0.21635,0.044485 0.294922,0.1230469 0.07848,0.078471 0.121094,0.1839579 0.121094,0.2949219 0,1.2151072 0.484579,2.3810636 1.34375,3.2402346 0.859169,0.859306 2.025102,1.341797 3.240234,1.341797 h 1.666016 c 0.553022,0 1.083673,0.22033 1.474609,0.611328 C 33.531663,13.918381 33.75,14.446934 33.75,15 v 5.833984 a 1.25,1.25 0 0 0 1.25,1.25 1.25,1.25 0 0 0 1.25,-1.25 V 15 c 0,-1.215132 -0.482636,-2.381073 -1.341797,-3.240234 -0.859263,-0.859401 -2.027212,-1.34375 -3.242187,-1.34375 H 30 c -0.553066,0 -1.081626,-0.218283 -1.472656,-0.6093754 -0.391028,-0.3910281 -0.611328,-0.9196452 -0.611328,-1.4726562 0,-0.7730752 -0.306798,-1.5158515 -0.853516,-2.0625 C 26.515873,5.7249271 25.773051,5.4160156 25,5.4160156 Z"
       id="path1" />
    <path
       style="color:#000000;fill:#2c3e50;stroke-linecap:round;stroke-linejoin:round;-inkscape-stroke:none"
       d="m 26.666016,30.416016 a 1.25,1.25 0 0 0 -1.25,1.25 1.25,1.25 0 0 0 1.25,1.25 h 10 a 1.25,1.25 0 0 0 1.25,-1.25 1.25,1.25 0 0 0 -1.25,-1.25 z"
       id="path2" />
    <path
       style="color:#000000;fill:#2c3e50;stroke-linecap:round;stroke-linejoin:round;-inkscape-stroke:none"
       d="m 31.666016,25.416016 a 1.25,1.25 0 0 0 -1.25,1.25 v 10 a 1.25,1.25 0 0 0 1.25,1.25 1.25,1.25 0 0 0 1.25,-1.25 v -10 a 1.25,1.25 0 0 0 -1.25,-1.25 z"
       id="path3" />
    <path
       style="color:#000000;fill:#2c3e50;stroke-linecap:round;stroke-linejoin:round;-inkscape-stroke:none"
       d="m 20,15.416016 c -1.657081,0 -3.248181,0.660165 -4.419922,1.832031 -1.17178,1.17178 -1.830078,2.760824 -1.830078,4.417969 0,1.657069 0.658298,3.248142 1.830078,4.419921 1.17171,1.171835 2.762778,1.830079 4.419922,1.830079 1.657144,0 3.248212,-0.658244 4.419922,-1.830079 C 25.591702,24.914158 26.25,23.323085 26.25,21.666016 26.25,20.008871 25.591702,18.419827 24.419922,17.248047 23.248181,16.076181 21.657081,15.416016 20,15.416016 Z m 0,2.5 c 0.995116,0 1.948887,0.396077 2.652344,1.099609 0.703618,0.703618 1.097656,1.655338 1.097656,2.650391 0,0.994928 -0.394038,1.948725 -1.097656,2.652343 -0.703488,0.703564 -1.657291,1.097657 -2.652344,1.097657 -0.995053,0 -1.948856,-0.394093 -2.652344,-1.097657 C 16.644038,23.614741 16.25,22.660944 16.25,21.666016 c 0,-0.995053 0.394038,-1.946773 1.097656,-2.650391 C 18.051113,18.312093 19.004884,17.916016 20,17.916016 Z"
       id="path4" />
  </g>
  <defs
     id="defs4">
    <clipPath
       id="clip0_17830_337">
      <rect
         width="40"
         height="40"
         fill="white"
         id="rect4" />
    </clipPath>
  </defs>
</svg>
