<?xml version="1.0" encoding="UTF-8" standalone="no"?>
<svg
   width="24"
   height="24"
   viewBox="0 0 24 24"
   fill="none"
   version="1.1"
   id="svg1"
   xmlns="http://www.w3.org/2000/svg"
   xmlns:svg="http://www.w3.org/2000/svg">
  <g
     clip-path="url(#clip0_17855_34749)"
     id="g1">
    <path
       d="m 15,3 c 0.5046,-1.6e-4 0.9906,0.19041 1.3605,0.5335 0.37,0.34309 0.5967,0.81334 0.6345,1.3165 L 17,5 c 0,0.24493 0.09,0.48134 0.2527,0.66437 0.1628,0.18304 0.387,0.29997 0.6303,0.32863 L 18,6 h 1 c 0.7652,-4e-5 1.5015,0.29233 2.0583,0.81728 0.5567,0.52496 0.8918,1.24283 0.9367,2.00672 L 22,9 v 9 c 0,0.7652 -0.2923,1.5015 -0.8173,2.0583 -0.5249,0.5567 -1.2428,0.8918 -2.0067,0.9367 L 19,21 H 5 C 4.23479,21 3.49849,20.7077 2.94174,20.1827 2.38499,19.6578 2.04989,18.9399 2.005,18.176 L 2,18 V 9 C 1.99996,8.23479 2.29233,7.49849 2.81728,6.94174 3.34224,6.38499 4.06011,6.04989 4.824,6.005 L 5,6 H 6 C 6.26522,6 6.51957,5.89464 6.70711,5.70711 6.89464,5.51957 7,5.26522 7,5 6.99984,4.49542 7.19041,4.00943 7.5335,3.63945 7.87659,3.26947 8.34685,3.04284 8.85,3.005 L 9,3 Z m -3,7 c -0.7434,-6e-5 -1.4604,0.2759 -2.01187,0.7744 C 9.43662,11.2729 9.08984,11.9584 9.015,12.698 L 9.004,12.85 9,13 9.004,13.15 c 0.02935,0.5862 0.23002,1.151 0.57717,1.6243 0.34715,0.4733 0.82553,0.8344 1.37583,1.0385 0.5504,0.2041 1.1485,0.2423 1.7203,0.1098 0.5718,-0.1325 1.0922,-0.4298 1.4967,-0.8551 0.4046,-0.4253 0.6754,-0.9599 0.7791,-1.5377 0.1037,-0.5777 0.0356,-1.1732 -0.1959,-1.7126 -0.2314,-0.5394 -0.616,-0.9991 -1.1061,-1.3221 C 13.1611,10.1721 12.587,9.99995 12,10 Z"
       fill="#000000"
       id="path1" />
  </g>
  <defs
     id="defs1">
    <clipPath
       id="clip0_17855_34749">
      <rect
         width="24"
         height="24"
         fill="#ffffff"
         id="rect1"
         x="0"
         y="0" />
    </clipPath>
  </defs>
</svg>
