<?xml version="1.0" encoding="UTF-8" standalone="no"?>
<svg
   width="24"
   height="24"
   viewBox="0 0 24 24"
   fill="none"
   version="1.1"
   id="svg5"
   sodipodi:docname="capture_2px.svg"
   inkscape:version="1.3.2 (091e20e, 2023-11-25)"
   xmlns:inkscape="http://www.inkscape.org/namespaces/inkscape"
   xmlns:sodipodi="http://sodipodi.sourceforge.net/DTD/sodipodi-0.dtd"
   xmlns="http://www.w3.org/2000/svg"
   xmlns:svg="http://www.w3.org/2000/svg">
  <sodipodi:namedview
     id="namedview5"
     pagecolor="#505050"
     bordercolor="#eeeeee"
     borderopacity="1"
     inkscape:showpageshadow="0"
     inkscape:pageopacity="0"
     inkscape:pagecheckerboard="0"
     inkscape:deskcolor="#505050"
     inkscape:zoom="9.8333333"
     inkscape:cx="11.949153"
     inkscape:cy="12"
     inkscape:window-width="1504"
     inkscape:window-height="449"
     inkscape:window-x="0"
     inkscape:window-y="25"
     inkscape:window-maximized="0"
     inkscape:current-layer="svg5" />
  <g
     clip-path="url(#clip0_20122_318)"
     id="g5">
    <path
       style="color:#000000;fill:#2c3e50;stroke-linecap:round;stroke-linejoin:round;-inkscape-stroke:none"
       d="M 6,3 C 5.2047416,3 4.4412465,3.316551 3.8789063,3.8789063 3.316551,4.4412465 3,5.2047416 3,6 V 8 A 1,1 0 0 0 4,9 1,1 0 0 0 5,8 V 6 C 5,5.7343994 5.1051647,5.4807678 5.2929687,5.2929687 5.4807678,5.1051647 5.7343994,5 6,5 H 8 A 1,1 0 0 0 9,4 1,1 0 0 0 8,3 Z"
       id="path1" />
    <path
       style="color:#000000;fill:#2c3e50;stroke-linecap:round;stroke-linejoin:round;-inkscape-stroke:none"
       d="m 4,15 a 1,1 0 0 0 -1,1 v 2 c 0,0.795243 0.3165904,1.558748 0.8789063,2.121094 C 4.4412548,20.683487 5.2047542,21 6,21 H 8 A 1,1 0 0 0 9,20 1,1 0 0 0 8,19 H 6 C 5.7343869,19 5.4807594,18.894837 5.2929687,18.707031 5.1051254,18.519178 5,18.265556 5,18 V 16 A 1,1 0 0 0 4,15 Z"
       id="path2" />
    <path
       style="color:#000000;fill:#2c3e50;stroke-linecap:round;stroke-linejoin:round;-inkscape-stroke:none"
       d="m 16,3 a 1,1 0 0 0 -1,1 1,1 0 0 0 1,1 h 2 c 0.265556,0 0.519178,0.1051254 0.707031,0.2929687 C 18.894837,5.4807594 19,5.7343869 19,6 v 2 a 1,1 0 0 0 1,1 1,1 0 0 0 1,-1 V 6 C 21,5.2047542 20.683487,4.4412548 20.121094,3.8789063 19.558748,3.3165904 18.795243,3 18,3 Z"
       id="path3" />
    <path
       style="color:#000000;fill:#2c3e50;stroke-linecap:round;stroke-linejoin:round;-inkscape-stroke:none"
       d="m 20,15 a 1,1 0 0 0 -1,1 v 2 c 0,0.265568 -0.105124,0.519186 -0.292969,0.707031 C 18.519186,18.894876 18.265568,19 18,19 h -2 a 1,1 0 0 0 -1,1 1,1 0 0 0 1,1 h 2 c 0.795231,0 1.55874,-0.316552 2.121094,-0.878906 C 20.683448,19.55874 21,18.795231 21,18 v -2 a 1,1 0 0 0 -1,-1 z"
       id="path4" />
    <path
       style="color:#000000;fill:#2c3e50;stroke-linecap:round;stroke-linejoin:round;-inkscape-stroke:none"
       d="M 12,8 C 10.939553,8 9.9217709,8.4219924 9.171875,9.171875 8.4219924,9.9217709 8,10.939553 8,12 8,13.060447 8.4219777,14.078241 9.171875,14.828125 9.9217577,15.577981 10.939528,16 12,16 13.060472,16 14.078254,15.577996 14.828125,14.828125 15.577996,14.078254 16,13.060472 16,12 16,10.939528 15.577981,9.9217577 14.828125,9.171875 14.078241,8.4219777 13.060447,8 12,8 Z m 0,2 c 0.530751,0 1.038748,0.210616 1.414063,0.585938 C 13.789405,10.961294 14,11.469274 14,12 14,12.530726 13.789391,13.038734 13.414063,13.414063 13.038734,13.789391 12.530726,14 12,14 11.469274,14 10.961294,13.789405 10.585938,13.414063 10.210616,13.038748 10,12.530751 10,12 10,11.469249 10.210601,10.96128 10.585938,10.585938 10.96128,10.210601 11.469249,10 12,10 Z"
       id="path5" />
  </g>
  <defs
     id="defs5">
    <clipPath
       id="clip0_20122_318">
      <rect
         width="24"
         height="24"
         fill="white"
         id="rect5" />
    </clipPath>
  </defs>
</svg>
