<?xml version="1.0" encoding="UTF-8" standalone="no"?>
<svg
   width="24"
   height="24"
   viewBox="0 0 24 24"
   fill="none"
   version="1.1"
   id="svg5"
   sodipodi:docname="capture.svg"
   inkscape:export-filename="capture.svg"
   inkscape:export-xdpi="96"
   inkscape:export-ydpi="96"
   inkscape:version="1.3.2 (091e20e, 2023-11-25)"
   xmlns:inkscape="http://www.inkscape.org/namespaces/inkscape"
   xmlns:sodipodi="http://sodipodi.sourceforge.net/DTD/sodipodi-0.dtd"
   xmlns="http://www.w3.org/2000/svg"
   xmlns:svg="http://www.w3.org/2000/svg">
  <sodipodi:namedview
     id="namedview5"
     pagecolor="#505050"
     bordercolor="#eeeeee"
     borderopacity="1"
     inkscape:showpageshadow="0"
     inkscape:pageopacity="0"
     inkscape:pagecheckerboard="0"
     inkscape:deskcolor="#505050"
     inkscape:zoom="9.8333333"
     inkscape:cx="11.949153"
     inkscape:cy="12"
     inkscape:window-width="1504"
     inkscape:window-height="449"
     inkscape:window-x="0"
     inkscape:window-y="25"
     inkscape:window-maximized="0"
     inkscape:current-layer="svg5" />
  <g
     clip-path="url(#clip0_17830_310)"
     id="g5">
    <path
       style="color:#000000;fill:#2c3e50;stroke-linecap:round;stroke-linejoin:round;-inkscape-stroke:none"
       d="M 6,3.25 C 5.2709489,3.25 4.5702101,3.5391512 4.0546875,4.0546875 3.5391512,4.5702101 3.25,5.2709489 3.25,6 V 8 A 0.75,0.75 0 0 0 4,8.75 0.75,0.75 0 0 0 4.75,8 V 6 C 4.75,5.6681922 4.8806115,5.349851 5.1152344,5.1152344 5.349851,4.8806115 5.6681922,4.75 6,4.75 H 8 A 0.75,0.75 0 0 0 8.75,4 0.75,0.75 0 0 0 8,3.25 Z"
       id="path1" />
    <path
       style="color:#000000;fill:#2c3e50;stroke-linecap:round;stroke-linejoin:round;-inkscape-stroke:none"
       d="M 4,15.25 A 0.75,0.75 0 0 0 3.25,16 v 2 c 0,0.729032 0.2891807,1.429778 0.8046875,1.945312 C 4.5702164,20.460883 5.2709583,20.75 6,20.75 H 8 A 0.75,0.75 0 0 0 8.75,20 0.75,0.75 0 0 0 8,19.25 H 6 C 5.6681828,19.25 5.3498448,19.119395 5.1152344,18.884766 4.880582,18.650101 4.75,18.331767 4.75,18 V 16 A 0.75,0.75 0 0 0 4,15.25 Z"
       id="path2" />
    <path
       style="color:#000000;fill:#2c3e50;stroke-linecap:round;stroke-linejoin:round;-inkscape-stroke:none"
       d="M 16,3.25 A 0.75,0.75 0 0 0 15.25,4 0.75,0.75 0 0 0 16,4.75 h 2 c 0.331767,0 0.650101,0.130582 0.884766,0.3652344 C 19.119395,5.3498448 19.25,5.6681828 19.25,6 V 8 A 0.75,0.75 0 0 0 20,8.75 0.75,0.75 0 0 0 20.75,8 V 6 C 20.75,5.2709583 20.460883,4.5702164 19.945312,4.0546875 19.429778,3.5391807 18.729032,3.25 18,3.25 Z"
       id="path3" />
    <path
       style="color:#000000;fill:#2c3e50;stroke-linecap:round;stroke-linejoin:round;-inkscape-stroke:none"
       d="M 20,15.25 A 0.75,0.75 0 0 0 19.25,16 v 2 c 0,0.331776 -0.130576,0.650107 -0.365234,0.884766 C 18.650107,19.119424 18.331776,19.25 18,19.25 H 16 A 0.75,0.75 0 0 0 15.25,20 0.75,0.75 0 0 0 16,20.75 h 2 c 0.729023,0 1.429772,-0.289147 1.945312,-0.804688 C 20.460853,19.429772 20.75,18.729023 20.75,18 V 16 A 0.75,0.75 0 0 0 20,15.25 Z"
       id="path4" />
    <path
       style="color:#000000;fill:#2c3e50;stroke-linecap:round;stroke-linejoin:round;-inkscape-stroke:none"
       d="M 12,8.25 C 11.005765,8.25 10.050733,8.644592 9.3476563,9.3476563 8.644592,10.050733 8.25,11.005765 8.25,12 c 0,0.994235 0.3945809,1.949281 1.0976563,2.652344 C 10.050723,15.355386 11.005746,15.75 12,15.75 c 0.994254,0 1.949291,-0.394603 2.652344,-1.097656 C 15.355397,13.949291 15.75,12.994254 15.75,12 15.75,11.005746 15.355386,10.050723 14.652344,9.3476563 13.949281,8.6445809 12.994235,8.25 12,8.25 Z m 0,1.5 c 0.596963,0 1.169661,0.2360596 1.591797,0.658203 C 14.013954,10.830375 14.25,11.403056 14.25,12 c 0,0.596944 -0.236057,1.169651 -0.658203,1.591797 C 13.169651,14.013943 12.596944,14.25 12,14.25 11.403056,14.25 10.830375,14.013954 10.408203,13.591797 9.9860596,13.169661 9.75,12.596963 9.75,12 9.75,11.403037 9.9860485,10.830365 10.408203,10.408203 10.830365,9.9860485 11.403037,9.75 12,9.75 Z"
       id="path5" />
  </g>
  <defs
     id="defs5">
    <clipPath
       id="clip0_17830_310">
      <rect
         width="24"
         height="24"
         fill="white"
         id="rect5" />
    </clipPath>
  </defs>
</svg>
