<?xml version="1.0" encoding="UTF-8" standalone="no"?>
<svg
   width="24"
   height="24"
   viewBox="0 0 24 24"
   fill="none"
   version="1.1"
   id="svg6"
   sodipodi:docname="car-crash.svg"
   inkscape:export-filename="car-crash.svg"
   inkscape:export-xdpi="96"
   inkscape:export-ydpi="96"
   inkscape:version="1.3.2 (091e20e, 2023-11-25)"
   xmlns:inkscape="http://www.inkscape.org/namespaces/inkscape"
   xmlns:sodipodi="http://sodipodi.sourceforge.net/DTD/sodipodi-0.dtd"
   xmlns="http://www.w3.org/2000/svg"
   xmlns:svg="http://www.w3.org/2000/svg">
  <sodipodi:namedview
     id="namedview6"
     pagecolor="#505050"
     bordercolor="#eeeeee"
     borderopacity="1"
     inkscape:showpageshadow="0"
     inkscape:pageopacity="0"
     inkscape:pagecheckerboard="0"
     inkscape:deskcolor="#505050"
     inkscape:zoom="9.8333333"
     inkscape:cx="11.949153"
     inkscape:cy="12"
     inkscape:window-width="1504"
     inkscape:window-height="449"
     inkscape:window-x="0"
     inkscape:window-y="25"
     inkscape:window-maximized="0"
     inkscape:current-layer="svg6" />
  <g
     clip-path="url(#clip0_19845_195)"
     id="g6">
    <path
       style="color:#000000;fill:#2c3e50;stroke-linecap:round;stroke-linejoin:round;-inkscape-stroke:none"
       d="m 10,14.25 c -0.7290417,0 -1.4297836,0.289117 -1.9453125,0.804688 C 7.5391807,15.570222 7.25,16.270968 7.25,17 c 0,0.729032 0.2891807,1.429778 0.8046875,1.945312 C 8.5702164,19.460883 9.2709583,19.75 10,19.75 c 0.729023,0 1.429772,-0.289147 1.945313,-0.804688 C 12.460853,18.429772 12.75,17.729023 12.75,17 12.75,16.270977 12.460853,15.570228 11.945313,15.054688 11.429772,14.539147 10.729023,14.25 10,14.25 Z m 0,1.5 c 0.331776,0 0.650107,0.130576 0.884766,0.365234 C 11.119424,16.349893 11.25,16.668224 11.25,17 c 0,0.331776 -0.130576,0.650107 -0.365234,0.884766 C 10.650107,18.119424 10.331776,18.25 10,18.25 9.6681828,18.25 9.3498448,18.119395 9.1152344,17.884766 8.880582,17.650101 8.75,17.331767 8.75,17 8.75,16.668233 8.880582,16.349899 9.1152344,16.115234 9.3498448,15.880605 9.6681828,15.75 10,15.75 Z"
       id="path1" />
    <path
       style="color:#000000;fill:#2c3e50;stroke-linecap:round;stroke-linejoin:round;-inkscape-stroke:none"
       d="M 3,5.25 A 0.75,0.75 0 0 0 2.25,6 0.75,0.75 0 0 0 3,6.75 h 1.25 v 3.5 H 3 A 0.75,0.75 0 0 0 2.25,11 0.75,0.75 0 0 0 3,11.75 h 2 6 1 c 0.331776,0 0.650107,0.130576 0.884766,0.365234 C 13.119424,12.349893 13.25,12.668224 13.25,13 v 3.25 H 12 A 0.75,0.75 0 0 0 11.25,17 0.75,0.75 0 0 0 12,17.75 h 2 A 0.750075,0.750075 0 0 0 14.75,17 v -4 c 0,-0.729023 -0.289147,-1.429772 -0.804687,-1.945312 C 13.429772,10.539147 12.729023,10.25 12,10.25 H 11.361328 L 7.5859375,5.53125 A 0.750075,0.750075 0 0 0 7,5.25 H 5 Z m 2.75,1.5 h 0.8886719 l 2.8007812,3.5 H 5.75 Z M 3,16.25 A 0.75,0.75 0 0 0 2.25,17 0.75,0.75 0 0 0 3,17.75 H 8 A 0.75,0.75 0 0 0 8.75,17 0.75,0.75 0 0 0 8,16.25 Z"
       id="path2" />
    <path
       style="color:#000000;fill:#2c3e50;stroke-linecap:round;stroke-linejoin:round;-inkscape-stroke:none"
       d="M 14,5.25 A 0.75,0.75 0 0 0 13.25,6 V 8 A 0.75,0.75 0 0 0 14,8.75 0.75,0.75 0 0 0 14.75,8 V 6 A 0.75,0.75 0 0 0 14,5.25 Z"
       id="path3" />
    <path
       style="color:#000000;fill:#2c3e50;stroke-linecap:round;stroke-linejoin:round;-inkscape-stroke:none"
       d="M 19,11.25 A 0.75,0.75 0 0 0 18.25,12 0.75,0.75 0 0 0 19,12.75 h 2 A 0.75,0.75 0 0 0 21.75,12 0.75,0.75 0 0 0 21,11.25 Z"
       id="path4" />
    <path
       style="color:#000000;fill:#2c3e50;stroke-linecap:round;stroke-linejoin:round;-inkscape-stroke:none"
       d="m 17.5,14.75 a 0.75,0.75 0 0 0 -0.53125,0.21875 0.75,0.75 0 0 0 0,1.0625 l 1.5,1.5 a 0.75,0.75 0 0 0 1.0625,0 0.75,0.75 0 0 0 0,-1.0625 l -1.5,-1.5 A 0.75,0.75 0 0 0 17.5,14.75 Z"
       id="path5" />
    <path
       style="color:#000000;fill:#2c3e50;stroke-linecap:round;stroke-linejoin:round;-inkscape-stroke:none"
       d="m 19,6.25 a 0.75,0.75 0 0 0 -0.53125,0.21875 l -1.5,1.5 a 0.75,0.75 0 0 0 0,1.0625 0.75,0.75 0 0 0 1.0625,0 l 1.5,-1.5 a 0.75,0.75 0 0 0 0,-1.0625 A 0.75,0.75 0 0 0 19,6.25 Z"
       id="path6" />
  </g>
  <defs
     id="defs6">
    <clipPath
       id="clip0_19845_195">
      <rect
         width="24"
         height="24"
         fill="white"
         id="rect6" />
    </clipPath>
  </defs>
</svg>
