<?xml version="1.0" encoding="UTF-8" standalone="no"?>
<svg
   width="24"
   height="24"
   viewBox="0 0 24 24"
   fill="none"
   version="1.1"
   id="svg6"
   sodipodi:docname="car-crash_2px.svg"
   inkscape:version="1.3.2 (091e20e, 2023-11-25)"
   xmlns:inkscape="http://www.inkscape.org/namespaces/inkscape"
   xmlns:sodipodi="http://sodipodi.sourceforge.net/DTD/sodipodi-0.dtd"
   xmlns="http://www.w3.org/2000/svg"
   xmlns:svg="http://www.w3.org/2000/svg">
  <sodipodi:namedview
     id="namedview6"
     pagecolor="#505050"
     bordercolor="#eeeeee"
     borderopacity="1"
     inkscape:showpageshadow="0"
     inkscape:pageopacity="0"
     inkscape:pagecheckerboard="0"
     inkscape:deskcolor="#505050"
     inkscape:zoom="9.8333333"
     inkscape:cx="11.949153"
     inkscape:cy="12"
     inkscape:window-width="1504"
     inkscape:window-height="449"
     inkscape:window-x="0"
     inkscape:window-y="25"
     inkscape:window-maximized="0"
     inkscape:current-layer="svg6" />
  <g
     clip-path="url(#clip0_20122_326)"
     id="g6">
    <path
       style="color:#000000;fill:#2c3e50;stroke-linecap:round;stroke-linejoin:round;-inkscape-stroke:none"
       d="M 10,14 C 9.2047542,14 8.4412548,14.316513 7.8789062,14.878906 7.3165904,15.441252 7,16.204757 7,17 7,17.795243 7.3165904,18.558748 7.8789062,19.121094 8.4412548,19.683487 9.2047542,20 10,20 10.795231,20 11.55874,19.683448 12.121094,19.121094 12.683448,18.55874 13,17.795231 13,17 13,16.204769 12.683448,15.44126 12.121094,14.878906 11.55874,14.316552 10.795231,14 10,14 Z m 0,2 c 0.265568,0 0.519186,0.105124 0.707031,0.292969 C 10.894876,16.480814 11,16.734432 11,17 11,17.265568 10.894876,17.519186 10.707031,17.707031 10.519186,17.894876 10.265568,18 10,18 9.7343869,18 9.4807594,17.894837 9.2929688,17.707031 9.1051254,17.519178 9,17.265556 9,17 9,16.734444 9.1051254,16.480822 9.2929688,16.292969 9.4807594,16.105163 9.7343869,16 10,16 Z"
       id="path1" />
    <path
       style="color:#000000;fill:#2c3e50;stroke-linecap:round;stroke-linejoin:round;-inkscape-stroke:none"
       d="M 3,5 A 1,1 0 0 0 2,6 1,1 0 0 0 3,7 h 1 v 3 H 3 a 1,1 0 0 0 -1,1 1,1 0 0 0 1,1 h 2 6 1 c 0.265568,0 0.519186,0.105124 0.707031,0.292969 C 12.894876,12.480814 13,12.734432 13,13 v 3 h -1 a 1,1 0 0 0 -1,1 1,1 0 0 0 1,1 h 2 a 1.0001,1.0001 0 0 0 1,-1 V 13 C 15,12.204769 14.683448,11.44126 14.121094,10.878906 13.55874,10.316552 12.795231,10 12,10 H 11.480469 L 7.78125,5.375 A 1.0001,1.0001 0 0 0 7,5 H 5 Z m 3,2 h 0.5195312 l 2.4003907,3 H 6 Z m -3,9 a 1,1 0 0 0 -1,1 1,1 0 0 0 1,1 H 8 A 1,1 0 0 0 9,17 1,1 0 0 0 8,16 Z"
       id="path2" />
    <path
       style="color:#000000;fill:#2c3e50;stroke-linecap:round;stroke-linejoin:round;-inkscape-stroke:none"
       d="m 14,5 a 1,1 0 0 0 -1,1 v 2 a 1,1 0 0 0 1,1 1,1 0 0 0 1,-1 V 6 A 1,1 0 0 0 14,5 Z"
       id="path3" />
    <path
       style="color:#000000;fill:#2c3e50;stroke-linecap:round;stroke-linejoin:round;-inkscape-stroke:none"
       d="m 19,11 a 1,1 0 0 0 -1,1 1,1 0 0 0 1,1 h 2 a 1,1 0 0 0 1,-1 1,1 0 0 0 -1,-1 z"
       id="path4" />
    <path
       style="color:#000000;fill:#2c3e50;stroke-linecap:round;stroke-linejoin:round;-inkscape-stroke:none"
       d="m 16.792969,14.792969 a 1,1 0 0 0 0,1.414062 l 1.5,1.5 a 1,1 0 0 0 1.414062,0 1,1 0 0 0 0,-1.414062 l -1.5,-1.5 a 1,1 0 0 0 -1.414062,0 z"
       id="path5" />
    <path
       style="color:#000000;fill:#2c3e50;stroke-linecap:round;stroke-linejoin:round;-inkscape-stroke:none"
       d="m 18.292969,6.2929687 -1.5,1.5 a 1,1 0 0 0 0,1.4140626 1,1 0 0 0 1.414062,0 l 1.5,-1.5000001 a 1,1 0 0 0 0,-1.4140625 1,1 0 0 0 -1.414062,0 z"
       id="path6" />
  </g>
  <defs
     id="defs6">
    <clipPath
       id="clip0_20122_326">
      <rect
         width="24"
         height="24"
         fill="white"
         id="rect6" />
    </clipPath>
  </defs>
</svg>
