<?xml version="1.0" encoding="UTF-8" standalone="no"?>
<svg
   width="24"
   height="24"
   viewBox="0 0 24 24"
   fill="none"
   version="1.1"
   id="svg3"
   sodipodi:docname="car_2px.svg"
   inkscape:version="1.3.2 (091e20e, 2023-11-25)"
   xmlns:inkscape="http://www.inkscape.org/namespaces/inkscape"
   xmlns:sodipodi="http://sodipodi.sourceforge.net/DTD/sodipodi-0.dtd"
   xmlns="http://www.w3.org/2000/svg"
   xmlns:svg="http://www.w3.org/2000/svg">
  <sodipodi:namedview
     id="namedview3"
     pagecolor="#505050"
     bordercolor="#eeeeee"
     borderopacity="1"
     inkscape:showpageshadow="0"
     inkscape:pageopacity="0"
     inkscape:pagecheckerboard="0"
     inkscape:deskcolor="#505050"
     inkscape:zoom="9.8333333"
     inkscape:cx="11.949153"
     inkscape:cy="12"
     inkscape:window-width="1504"
     inkscape:window-height="449"
     inkscape:window-x="0"
     inkscape:window-y="25"
     inkscape:window-maximized="0"
     inkscape:current-layer="svg3" />
  <g
     clip-path="url(#clip0_20122_335)"
     id="g3">
    <path
       style="color:#000000;fill:#2c3e50;stroke-linecap:round;stroke-linejoin:round;-inkscape-stroke:none"
       d="M 7,14 C 6.2047542,14 5.4412548,14.316513 4.8789062,14.878906 4.3165904,15.441252 4,16.204757 4,17 4,17.795243 4.3165904,18.558748 4.8789062,19.121094 5.4412548,19.683487 6.2047542,20 7,20 7.7952458,20 8.5587452,19.683487 9.1210938,19.121094 9.6834096,18.558748 10,17.795243 10,17 10,16.204757 9.6834096,15.441252 9.1210938,14.878906 8.5587452,14.316513 7.7952458,14 7,14 Z m 0,2 c 0.2656131,0 0.5192406,0.105163 0.7070312,0.292969 C 7.8948746,16.480822 8,16.734444 8,17 8,17.265556 7.8948746,17.519178 7.7070312,17.707031 7.5192406,17.894837 7.2656131,18 7,18 6.7343869,18 6.4807594,17.894837 6.2929687,17.707031 6.1051254,17.519178 6,17.265556 6,17 6,16.734444 6.1051254,16.480822 6.2929687,16.292969 6.4807594,16.105163 6.7343869,16 7,16 Z"
       id="path1" />
    <path
       style="color:#000000;fill:#2c3e50;stroke-linecap:round;stroke-linejoin:round;-inkscape-stroke:none"
       d="m 17,14 c -0.795231,0 -1.55874,0.316552 -2.121094,0.878906 C 14.316552,15.44126 14,16.204769 14,17 c 0,0.795231 0.316552,1.55874 0.878906,2.121094 C 15.44126,19.683448 16.204769,20 17,20 17.795231,20 18.55874,19.683448 19.121094,19.121094 19.683448,18.55874 20,17.795231 20,17 20,16.204769 19.683448,15.44126 19.121094,14.878906 18.55874,14.316552 17.795231,14 17,14 Z m 0,2 c 0.265568,0 0.519186,0.105124 0.707031,0.292969 C 17.894876,16.480814 18,16.734432 18,17 18,17.265568 17.894876,17.519186 17.707031,17.707031 17.519186,17.894876 17.265568,18 17,18 16.734432,18 16.480814,17.894876 16.292969,17.707031 16.105124,17.519186 16,17.265568 16,17 16,16.734432 16.105124,16.480814 16.292969,16.292969 16.480814,16.105124 16.734432,16 17,16 Z"
       id="path2" />
    <path
       style="color:#000000;fill:#2c3e50;stroke-linecap:round;stroke-linejoin:round;-inkscape-stroke:none"
       d="M 5,5 A 1.0001,1.0001 0 0 0 4.0722656,5.6289062 l -2,4.9999998 a 1,1 0 0 0 0.00195,0.191407 A 1,1 0 0 0 2,11 v 6 a 1.0001,1.0001 0 0 0 1,1 H 5 A 1,1 0 0 0 6,17 1,1 0 0 0 5,16 H 4 v -4 h 8 6 1 c 0.265568,0 0.519186,0.105124 0.707031,0.292969 C 19.894876,12.480814 20,12.734432 20,13 v 3 h -1 a 1,1 0 0 0 -1,1 1,1 0 0 0 1,1 h 2 a 1.0001,1.0001 0 0 0 1,-1 V 13 C 22,12.204769 21.683448,11.44126 21.121094,10.878906 20.55874,10.316552 19.795231,10 19,10 H 18.480469 L 14.78125,5.375 A 1.0001,1.0001 0 0 0 14,5 H 12 Z M 5.6777344,7 H 11 v 3 H 4.4765625 Z M 13,7 h 0.519531 l 2.400391,3 H 13 Z m -4,9 a 1,1 0 0 0 -1,1 1,1 0 0 0 1,1 h 6 a 1,1 0 0 0 1,-1 1,1 0 0 0 -1,-1 z"
       id="path3" />
  </g>
  <defs
     id="defs3">
    <clipPath
       id="clip0_20122_335">
      <rect
         width="24"
         height="24"
         fill="white"
         id="rect3" />
    </clipPath>
  </defs>
</svg>
