<?xml version="1.0" encoding="UTF-8" standalone="no"?>
<svg
   width="24"
   height="24"
   viewBox="0 0 24 24"
   fill="none"
   version="1.1"
   id="svg2"
   sodipodi:docname="checkbox_2px.svg"
   inkscape:version="1.3.2 (091e20e, 2023-11-25)"
   xmlns:inkscape="http://www.inkscape.org/namespaces/inkscape"
   xmlns:sodipodi="http://sodipodi.sourceforge.net/DTD/sodipodi-0.dtd"
   xmlns="http://www.w3.org/2000/svg"
   xmlns:svg="http://www.w3.org/2000/svg">
  <sodipodi:namedview
     id="namedview2"
     pagecolor="#505050"
     bordercolor="#eeeeee"
     borderopacity="1"
     inkscape:showpageshadow="0"
     inkscape:pageopacity="0"
     inkscape:pagecheckerboard="0"
     inkscape:deskcolor="#505050"
     inkscape:zoom="9.8333333"
     inkscape:cx="11.949153"
     inkscape:cy="12"
     inkscape:window-width="1504"
     inkscape:window-height="449"
     inkscape:window-x="0"
     inkscape:window-y="25"
     inkscape:window-maximized="0"
     inkscape:current-layer="svg2" />
  <g
     clip-path="url(#clip0_20120_1402)"
     id="g2">
    <path
       style="color:#000000;fill:#2c3e50;stroke-linecap:round;stroke-linejoin:round;-inkscape-stroke:none"
       d="M 19.292969,5.2929687 12,12.585938 9.7070313,10.292969 a 1,1 0 0 0 -1.4140625,0 1,1 0 0 0 0,1.414062 l 3.0000002,3 a 1.0001,1.0001 0 0 0 1.414062,0 l 8,-7.9999998 a 1,1 0 0 0 0,-1.4140625 1,1 0 0 0 -1.414062,0 z"
       id="path1" />
    <path
       style="color:#000000;fill:#2c3e50;stroke-linecap:round;stroke-linejoin:round;-inkscape-stroke:none"
       d="M 6,3 C 5.2047416,3 4.4412465,3.316551 3.8789063,3.8789063 3.316551,4.4412465 3,5.2047416 3,6 v 12 c 0,0.795243 0.3165904,1.558748 0.8789063,2.121094 C 4.4412548,20.683487 5.2047542,21 6,21 h 12 c 0.795231,0 1.55874,-0.316552 2.121094,-0.878906 C 20.683448,19.55874 21,18.795231 21,18 v -6 a 1,1 0 0 0 -1,-1 1,1 0 0 0 -1,1 v 6 c 0,0.265568 -0.105124,0.519186 -0.292969,0.707031 C 18.519186,18.894876 18.265568,19 18,19 H 6 C 5.7343869,19 5.4807594,18.894837 5.2929687,18.707031 5.1051254,18.519178 5,18.265556 5,18 V 6 C 5,5.7343994 5.1051647,5.4807678 5.2929687,5.2929687 5.4807678,5.1051647 5.7343994,5 6,5 h 9 A 1,1 0 0 0 16,4 1,1 0 0 0 15,3 Z"
       id="path2" />
  </g>
  <defs
     id="defs2">
    <clipPath
       id="clip0_20120_1402">
      <rect
         width="24"
         height="24"
         fill="white"
         id="rect2" />
    </clipPath>
  </defs>
</svg>
