<?xml version="1.0" encoding="UTF-8" standalone="no"?>
<svg
   width="24"
   height="24"
   viewBox="0 0 24 24"
   fill="none"
   version="1.1"
   id="svg2"
   sodipodi:docname="checks_2px.svg"
   inkscape:version="1.3.2 (091e20e, 2023-11-25)"
   xmlns:inkscape="http://www.inkscape.org/namespaces/inkscape"
   xmlns:sodipodi="http://sodipodi.sourceforge.net/DTD/sodipodi-0.dtd"
   xmlns="http://www.w3.org/2000/svg"
   xmlns:svg="http://www.w3.org/2000/svg">
  <sodipodi:namedview
     id="namedview2"
     pagecolor="#505050"
     bordercolor="#eeeeee"
     borderopacity="1"
     inkscape:showpageshadow="0"
     inkscape:pageopacity="0"
     inkscape:pagecheckerboard="0"
     inkscape:deskcolor="#505050"
     inkscape:zoom="9.8333333"
     inkscape:cx="11.949153"
     inkscape:cy="12"
     inkscape:window-width="1504"
     inkscape:window-height="449"
     inkscape:window-x="0"
     inkscape:window-y="25"
     inkscape:window-maximized="0"
     inkscape:current-layer="svg2" />
  <g
     clip-path="url(#clip0_20120_1407)"
     id="g2">
    <path
       style="color:#000000;fill:#2c3e50;stroke-linecap:round;stroke-linejoin:round;-inkscape-stroke:none"
       d="M 21.292969,6.2929687 12,15.585938 7.7070312,11.292969 a 1,1 0 0 0 -1.4140625,0 1,1 0 0 0 0,1.414062 l 5.0000003,5 a 1.0001,1.0001 0 0 0 1.414062,0 l 10,-9.9999998 a 1,1 0 0 0 0,-1.4140625 1,1 0 0 0 -1.414062,0 z"
       id="path1" />
    <path
       style="color:#000000;fill:#2c3e50;stroke-linecap:round;stroke-linejoin:round;-inkscape-stroke:none"
       d="m 16.292969,6.2929687 -5,5.0000003 a 1,1 0 0 0 0,1.414062 1,1 0 0 0 1.414062,0 l 5,-4.9999998 a 1,1 0 0 0 0,-1.4140625 1,1 0 0 0 -1.414062,0 z M 2,11 a 1,1 0 0 0 -0.7070313,0.292969 1,1 0 0 0 0,1.414062 l 5,5 a 1,1 0 0 0 1.4140625,0 1,1 0 0 0 0,-1.414062 l -4.9999999,-5 A 1,1 0 0 0 2,11 Z"
       id="path2" />
  </g>
  <defs
     id="defs2">
    <clipPath
       id="clip0_20120_1407">
      <rect
         width="24"
         height="24"
         fill="white"
         id="rect2" />
    </clipPath>
  </defs>
</svg>
