<svg width="24" height="24" viewBox="0 0 24 24" fill="none" xmlns="http://www.w3.org/2000/svg">
<g clip-path="url(#clip0_17719_547)">
<mask id="mask0_17719_547" style="mask-type:luminance" maskUnits="userSpaceOnUse" x="0" y="0" width="24" height="24">
<path d="M24 0H0V24H24V0Z" fill="white"/>
</mask>
<g mask="url(#mask0_17719_547)">
<path d="M19.9999 6.25C19.9013 6.24976 19.8036 6.26896 19.7125 6.30649C19.6213 6.34403 19.5385 6.39916 19.4686 6.46875L9.99989 15.9375L5.53114 11.4688C5.46146 11.3988 5.37867 11.3434 5.2875 11.3055C5.19634 11.2676 5.0986 11.2482 4.99989 11.2482C4.90118 11.2482 4.80344 11.2676 4.71227 11.3055C4.62111 11.3434 4.53832 11.3988 4.46864 11.4688C4.39872 11.5384 4.34324 11.6212 4.30539 11.7124C4.26753 11.8036 4.24805 11.9013 4.24805 12C4.24805 12.0987 4.26753 12.1965 4.30539 12.2876C4.34324 12.3788 4.39872 12.4616 4.46864 12.5313L9.46864 17.5313C9.53832 17.6012 9.62112 17.6566 9.71228 17.6945C9.80344 17.7323 9.90118 17.7518 9.99989 17.7518C10.0986 17.7518 10.1963 17.7323 10.2875 17.6945C10.3787 17.6566 10.4615 17.6012 10.5311 17.5313L20.5311 7.53125C20.6011 7.46157 20.6565 7.37878 20.6944 7.28762C20.7322 7.19645 20.7517 7.09871 20.7517 7C20.7517 6.90129 20.7322 6.80355 20.6944 6.71239C20.6565 6.62122 20.6011 6.53843 20.5311 6.46875C20.4613 6.39916 20.3784 6.34403 20.2873 6.30649C20.1961 6.26896 20.0985 6.24976 19.9999 6.25Z" fill="#2C3E50"/>
</g>
</g>
<defs>
<clipPath id="clip0_17719_547">
<rect width="24" height="24" fill="white"/>
</clipPath>
</defs>
</svg>
