<?xml version="1.0" encoding="UTF-8" standalone="no"?>
<svg
   width="24"
   height="24"
   viewBox="0 0 24 24"
   fill="none"
   version="1.1"
   id="svg2"
   sodipodi:docname="circle-minus_2px.svg"
   inkscape:version="1.3.2 (091e20e, 2023-11-25)"
   xmlns:inkscape="http://www.inkscape.org/namespaces/inkscape"
   xmlns:sodipodi="http://sodipodi.sourceforge.net/DTD/sodipodi-0.dtd"
   xmlns="http://www.w3.org/2000/svg"
   xmlns:svg="http://www.w3.org/2000/svg">
  <sodipodi:namedview
     id="namedview2"
     pagecolor="#505050"
     bordercolor="#eeeeee"
     borderopacity="1"
     inkscape:showpageshadow="0"
     inkscape:pageopacity="0"
     inkscape:pagecheckerboard="0"
     inkscape:deskcolor="#505050"
     inkscape:zoom="9.8333333"
     inkscape:cx="11.949153"
     inkscape:cy="12"
     inkscape:window-width="1504"
     inkscape:window-height="449"
     inkscape:window-x="0"
     inkscape:window-y="25"
     inkscape:window-maximized="0"
     inkscape:current-layer="svg2" />
  <g
     clip-path="url(#clip0_20120_1389)"
     id="g2">
    <path
       style="color:#000000;fill:#2c3e50;stroke-linecap:round;stroke-linejoin:round;-inkscape-stroke:none"
       d="M 12,2 C 10.686793,2 9.3870706,2.2591797 8.1738281,2.7617188 6.9605912,3.2642666 5.858267,4.001108 4.9296875,4.9296875 4.001108,5.858267 3.2642666,6.9605912 2.7617188,8.1738281 2.2591797,9.3870706 2,10.686793 2,12 c 0,1.313207 0.2591926,2.612883 0.7617188,3.826172 0.5025518,1.213213 1.2394306,2.315525 2.1679687,3.24414 0.9285829,0.92855 2.0309181,1.665427 3.2441406,2.167969 C 9.3870698,21.740831 10.686787,22 12,22 c 1.313213,0 2.612884,-0.259182 3.826172,-0.761719 1.213199,-0.502546 2.315521,-1.23946 3.24414,-2.167969 0.928509,-0.928619 1.665423,-2.030941 2.167969,-3.24414 C 21.740818,14.612884 22,13.313213 22,12 22,10.686787 21.740831,9.3870698 21.238281,8.1738281 20.735739,6.9606056 19.998862,5.8582704 19.070312,4.9296875 18.141697,4.0011494 17.039385,3.2642706 15.826172,2.7617188 14.612883,2.2591926 13.313207,2 12,2 Z m 0,2 c 1.050591,0 2.091791,0.2073221 3.0625,0.609375 0.969987,0.4020327 1.851154,0.9918412 2.59375,1.734375 0.742849,0.7428754 1.332318,1.6250678 1.734375,2.5957031 C 19.792674,9.9100693 20,10.949415 20,12 c 0,1.04994 -0.207799,2.090348 -0.609375,3.060547 -0.402053,0.970599 -0.991485,1.852724 -1.734375,2.595703 -0.742979,0.74289 -1.625104,1.332322 -2.595703,1.734375 C 14.090348,19.792201 13.04994,20 12,20 10.949415,20 9.9100693,19.792674 8.9394531,19.390625 7.9688178,18.988568 7.0866254,18.399099 6.34375,17.65625 5.6012162,16.913654 5.0114077,16.032487 4.609375,15.0625 v -0.002 C 4.207808,14.090348 4,13.049946 4,12 4,10.949409 4.2073349,9.9100685 4.609375,8.9394531 5.0114263,7.9688322 5.6008712,7.0866288 6.34375,6.34375 7.0866288,5.6008712 7.9688322,5.0114263 8.9394531,4.609375 9.9100685,4.2073349 10.949409,4 12,4 Z"
       id="path1" />
    <path
       style="color:#000000;fill:#2c3e50;stroke-linecap:round;stroke-linejoin:round;-inkscape-stroke:none"
       d="m 9,11 a 1,1 0 0 0 -1,1 1,1 0 0 0 1,1 h 6 a 1,1 0 0 0 1,-1 1,1 0 0 0 -1,-1 z"
       id="path2" />
  </g>
  <defs
     id="defs2">
    <clipPath
       id="clip0_20120_1389">
      <rect
         width="24"
         height="24"
         fill="white"
         id="rect2" />
    </clipPath>
  </defs>
</svg>
