<?xml version="1.0" encoding="UTF-8" standalone="no"?>
<svg
   width="15.5"
   height="19.5"
   viewBox="0 0 15.5 19.5"
   fill="none"
   version="1.1"
   id="svg3"
   xmlns="http://www.w3.org/2000/svg"
   xmlns:svg="http://www.w3.org/2000/svg">
  <g
     clip-path="url(#clip0_17855_35186)"
     id="g3"
     transform="translate(-4.25,-2.25)">
    <path
       fill-rule="evenodd"
       clip-rule="evenodd"
       d="M 8.34477,5.75 H 7 C 6.66848,5.75 6.35054,5.8817 6.11612,6.11612 5.8817,6.35054 5.75,6.66848 5.75,7 v 12 c 0,0.3315 0.1317,0.6495 0.36612,0.8839 C 6.35054,20.1183 6.66848,20.25 7,20.25 h 10 c 0.3315,0 0.6495,-0.1317 0.8839,-0.3661 C 18.1183,19.6495 18.25,19.3315 18.25,19 V 7 C 18.25,6.66848 18.1183,6.35054 17.8839,6.11612 17.6495,5.8817 17.3315,5.75 17,5.75 H 15.6552 C 15.5399,6.19755 15.3221,6.60976 15.0178,6.94454 14.5489,7.46027 13.913,7.75 13.25,7.75 h -2.5 C 10.087,7.75 9.45107,7.46027 8.98223,6.94454 8.67789,6.60976 8.46011,6.19755 8.34477,5.75 Z M 15.6552,4.25 H 17 c 0.7293,0 1.4288,0.28973 1.9445,0.80546 C 19.4603,5.57118 19.75,6.27065 19.75,7 v 12 c 0,0.7293 -0.2897,1.4288 -0.8055,1.9445 C 18.4288,21.4603 17.7293,21.75 17,21.75 H 7 C 6.27065,21.75 5.57118,21.4603 5.05546,20.9445 4.53973,20.4288 4.25,19.7293 4.25,19 V 7 C 4.25,6.27065 4.53973,5.57118 5.05546,5.05546 5.57118,4.53973 6.27065,4.25 7,4.25 H 8.34477 C 8.46011,3.80245 8.67789,3.39024 8.98223,3.05546 9.45107,2.53973 10.087,2.25 10.75,2.25 h 2.5 c 0.663,0 1.2989,0.28973 1.7678,0.80546 0.3043,0.33478 0.5221,0.74699 0.6374,1.19454 z"
       fill="#000000"
       id="path1" />
    <path
       style="color:#000000;fill:#000000;stroke-linecap:round;stroke-linejoin:round;-inkscape-stroke:none"
       d="m 9,11 a 1,1 0 0 0 -1,1 1,1 0 0 0 1,1 h 6 a 1,1 0 0 0 1,-1 1,1 0 0 0 -1,-1 z"
       id="path2" />
    <path
       style="color:#000000;fill:#000000;stroke-linecap:round;stroke-linejoin:round;-inkscape-stroke:none"
       d="m 9,15 a 1,1 0 0 0 -1,1 1,1 0 0 0 1,1 h 6 a 1,1 0 0 0 1,-1 1,1 0 0 0 -1,-1 z"
       id="path3" />
  </g>
  <defs
     id="defs3">
    <clipPath
       id="clip0_17855_35186">
      <rect
         width="24"
         height="24"
         fill="#ffffff"
         id="rect3"
         x="0"
         y="0" />
    </clipPath>
  </defs>
</svg>
