<?xml version="1.0" encoding="UTF-8" standalone="no"?>
<svg
   width="24"
   height="24"
   viewBox="0 0 24 24"
   fill="none"
   version="1.1"
   id="svg6"
   sodipodi:docname="clipboard-list_2px.svg"
   inkscape:version="1.3.2 (091e20e, 2023-11-25)"
   xmlns:inkscape="http://www.inkscape.org/namespaces/inkscape"
   xmlns:sodipodi="http://sodipodi.sourceforge.net/DTD/sodipodi-0.dtd"
   xmlns="http://www.w3.org/2000/svg"
   xmlns:svg="http://www.w3.org/2000/svg">
  <sodipodi:namedview
     id="namedview6"
     pagecolor="#505050"
     bordercolor="#eeeeee"
     borderopacity="1"
     inkscape:showpageshadow="0"
     inkscape:pageopacity="0"
     inkscape:pagecheckerboard="0"
     inkscape:deskcolor="#505050"
     inkscape:zoom="9.8333333"
     inkscape:cx="11.949153"
     inkscape:cy="12"
     inkscape:window-width="1504"
     inkscape:window-height="449"
     inkscape:window-x="0"
     inkscape:window-y="25"
     inkscape:window-maximized="0"
     inkscape:current-layer="svg6" />
  <g
     clip-path="url(#clip0_20120_1055)"
     id="g6">
    <path
       style="color:#000000;fill:#2c3e50;stroke-linecap:round;stroke-linejoin:round;-inkscape-stroke:none"
       d="M 7,4 C 6.2047416,4 5.4412465,4.316551 4.8789062,4.8789062 4.316551,5.4412465 4,6.2047416 4,7 v 12 c 0,0.795243 0.3165904,1.558748 0.8789062,2.121094 C 5.4412548,21.683487 6.2047542,22 7,22 h 10 c 0.795231,0 1.55874,-0.316552 2.121094,-0.878906 C 19.683448,20.55874 20,19.795231 20,19 V 7 C 20,6.2047542 19.683487,5.4412548 19.121094,4.8789062 18.558748,4.3165904 17.795243,4 17,4 h -2 a 1,1 0 0 0 -1,1 1,1 0 0 0 1,1 h 2 c 0.265556,0 0.519178,0.1051254 0.707031,0.2929687 C 17.894837,6.4807594 18,6.7343869 18,7 v 12 c 0,0.265568 -0.105124,0.519186 -0.292969,0.707031 C 17.519186,19.894876 17.265568,20 17,20 H 7 C 6.7343869,20 6.4807594,19.894837 6.2929687,19.707031 6.1051254,19.519178 6,19.265556 6,19 V 7 C 6,6.7343994 6.1051647,6.4807678 6.2929687,6.2929687 6.4807678,6.1051647 6.7343994,6 7,6 H 9 A 1,1 0 0 0 10,5 1,1 0 0 0 9,4 Z"
       id="path1" />
    <path
       style="color:#000000;fill:#2c3e50;stroke-linecap:round;stroke-linejoin:round;-inkscape-stroke:none"
       d="M 11,2 C 10.204757,2 9.4412653,2.3165322 8.8789063,2.8789063 8.316551,3.4412465 8,4.2047416 8,5 8,5.7952584 8.316551,6.5587535 8.8789063,7.1210937 9.4412653,7.6834678 10.204757,8 11,8 h 2 C 13.795243,8 14.558748,7.6834096 15.121094,7.1210937 15.683487,6.5587452 16,5.7952458 16,5 16,4.2047542 15.683487,3.4412548 15.121094,2.8789063 14.558748,2.3165904 13.795243,2 13,2 Z m 0,2 h 2 c 0.265556,0 0.519178,0.1051254 0.707031,0.2929687 C 13.894837,4.4807594 14,4.7343869 14,5 14,5.2656131 13.894837,5.5192406 13.707031,5.7070312 13.519178,5.8948746 13.265556,6 13,6 H 11 C 10.734444,6 10.480749,5.8948164 10.292969,5.7070312 10.105165,5.5192322 10,5.2656006 10,5 10,4.7343994 10.105165,4.4807678 10.292969,4.2929687 10.480749,4.1051836 10.734444,4 11,4 Z"
       id="path2" />
    <path
       style="color:#000000;fill:#2c3e50;stroke-linecap:round;stroke-linejoin:round;-inkscape-stroke:none"
       d="m 9,11 a 1,1 0 0 0 -1,1 1,1 0 0 0 1,1 h 0.00977 A 1,1 0 0 0 10.009766,12 1,1 0 0 0 9.0097656,11 Z"
       id="path3" />
    <path
       style="color:#000000;fill:#2c3e50;stroke-linecap:round;stroke-linejoin:round;-inkscape-stroke:none"
       d="m 13,11 a 1,1 0 0 0 -1,1 1,1 0 0 0 1,1 h 2 a 1,1 0 0 0 1,-1 1,1 0 0 0 -1,-1 z"
       id="path4" />
    <path
       style="color:#000000;fill:#2c3e50;stroke-linecap:round;stroke-linejoin:round;-inkscape-stroke:none"
       d="m 9,15 a 1,1 0 0 0 -1,1 1,1 0 0 0 1,1 h 0.00977 A 1,1 0 0 0 10.009766,16 1,1 0 0 0 9.0097656,15 Z"
       id="path5" />
    <path
       style="color:#000000;fill:#2c3e50;stroke-linecap:round;stroke-linejoin:round;-inkscape-stroke:none"
       d="m 13,15 a 1,1 0 0 0 -1,1 1,1 0 0 0 1,1 h 2 a 1,1 0 0 0 1,-1 1,1 0 0 0 -1,-1 z"
       id="path6" />
  </g>
  <defs
     id="defs6">
    <clipPath
       id="clip0_20120_1055">
      <rect
         width="24"
         height="24"
         fill="white"
         id="rect6" />
    </clipPath>
  </defs>
</svg>
