<?xml version="1.0" encoding="UTF-8" standalone="no"?>
<svg
   width="24"
   height="24"
   viewBox="0 0 24 24"
   fill="none"
   version="1.1"
   id="svg4"
   sodipodi:docname="clock-plus_2px.svg"
   inkscape:version="1.3.2 (091e20e, 2023-11-25)"
   xmlns:inkscape="http://www.inkscape.org/namespaces/inkscape"
   xmlns:sodipodi="http://sodipodi.sourceforge.net/DTD/sodipodi-0.dtd"
   xmlns="http://www.w3.org/2000/svg"
   xmlns:svg="http://www.w3.org/2000/svg">
  <sodipodi:namedview
     id="namedview4"
     pagecolor="#505050"
     bordercolor="#eeeeee"
     borderopacity="1"
     inkscape:showpageshadow="0"
     inkscape:pageopacity="0"
     inkscape:pagecheckerboard="0"
     inkscape:deskcolor="#505050"
     inkscape:zoom="9.8333333"
     inkscape:cx="11.949153"
     inkscape:cy="12"
     inkscape:window-width="1504"
     inkscape:window-height="449"
     inkscape:window-x="0"
     inkscape:window-y="25"
     inkscape:window-maximized="0"
     inkscape:current-layer="svg4" />
  <g
     clip-path="url(#clip0_20122_369)"
     id="g4">
    <path
       style="color:#000000;fill:#2c3e50;stroke-linecap:round;stroke-linejoin:round;-inkscape-stroke:none"
       d="m 13.208984,2.0722656 c -0.995012,-0.121142 -2.00863,-0.09232 -3.005859,0.089844 C 8.2085815,2.5264445 6.3707294,3.4897479 4.9355469,4.921875 3.5003536,6.3540128 2.5345863,8.1879502 2.1660156,10.181641 c -0.3685783,1.993772 -0.1212828,4.053722 0.7070313,5.904296 0.8283162,1.850579 2.1992522,3.405615 3.9316406,4.458985 1.7323955,1.053263 3.7452775,1.553829 5.7695315,1.4375 a 1,1 0 0 0 0.939453,-1.054688 1,1 0 0 0 -1.054688,-0.941406 C 10.839442,20.079399 9.2298714,19.678673 7.84375,18.835937 6.4576215,17.993109 5.3599879,16.748196 4.6972656,15.267578 4.0345412,13.786955 3.8379115,12.140146 4.1328125,10.544922 4.4277011,8.9497959 5.2013252,7.4837302 6.3496094,6.3378906 7.4978843,5.1920603 8.966667,4.4223636 10.5625,4.1308594 c 1.595739,-0.2914928 3.241508,-0.091659 4.720703,0.5742187 1.479298,0.6658839 2.720764,1.764466 3.560547,3.1523438 0.839787,1.3878844 1.239029,2.9978871 1.142578,4.6171871 a 1,1 0 0 0 0.9375,1.058594 1,1 0 0 0 1.058594,-0.939453 C 22.102971,10.569854 21.606252,8.556918 20.556641,6.8222656 19.507026,5.0876065 17.954368,3.713114 16.105469,2.8808594 15.181068,2.4647291 14.203996,2.1934077 13.208984,2.0722656 Z"
       id="path1" />
    <path
       style="color:#000000;fill:#2c3e50;stroke-linecap:round;stroke-linejoin:round;-inkscape-stroke:none"
       d="m 16,18 a 1,1 0 0 0 -1,1 1,1 0 0 0 1,1 h 6 a 1,1 0 0 0 1,-1 1,1 0 0 0 -1,-1 z"
       id="path2" />
    <path
       style="color:#000000;fill:#2c3e50;stroke-linecap:round;stroke-linejoin:round;-inkscape-stroke:none"
       d="m 19,15 a 1,1 0 0 0 -1,1 v 6 a 1,1 0 0 0 1,1 1,1 0 0 0 1,-1 v -6 a 1,1 0 0 0 -1,-1 z"
       id="path3" />
    <path
       style="color:#000000;fill:#2c3e50;stroke-linecap:round;stroke-linejoin:round;-inkscape-stroke:none"
       d="m 12,6 a 1,1 0 0 0 -1,1 v 5 a 1.0001,1.0001 0 0 0 0.292969,0.707031 l 3,3 a 1,1 0 0 0 1.414062,0 1,1 0 0 0 0,-1.414062 L 13,11.585938 V 7 A 1,1 0 0 0 12,6 Z"
       id="path4" />
  </g>
  <defs
     id="defs4">
    <clipPath
       id="clip0_20122_369">
      <rect
         width="24"
         height="24"
         fill="white"
         id="rect4" />
    </clipPath>
  </defs>
</svg>
