<?xml version="1.0" encoding="UTF-8" standalone="no"?>
<svg
   width="24"
   height="24"
   viewBox="0 0 24 24"
   fill="none"
   version="1.1"
   id="svg3"
   sodipodi:docname="clock-edit_2px.svg"
   inkscape:version="1.3.2 (091e20e, 2023-11-25)"
   xmlns:inkscape="http://www.inkscape.org/namespaces/inkscape"
   xmlns:sodipodi="http://sodipodi.sourceforge.net/DTD/sodipodi-0.dtd"
   xmlns="http://www.w3.org/2000/svg"
   xmlns:svg="http://www.w3.org/2000/svg">
  <sodipodi:namedview
     id="namedview3"
     pagecolor="#505050"
     bordercolor="#eeeeee"
     borderopacity="1"
     inkscape:showpageshadow="0"
     inkscape:pageopacity="0"
     inkscape:pagecheckerboard="0"
     inkscape:deskcolor="#505050"
     inkscape:zoom="9.8333333"
     inkscape:cx="11.949153"
     inkscape:cy="12"
     inkscape:window-width="1504"
     inkscape:window-height="449"
     inkscape:window-x="0"
     inkscape:window-y="25"
     inkscape:window-maximized="0"
     inkscape:current-layer="svg3" />
  <g
     clip-path="url(#clip0_20122_347)"
     id="g3">
    <path
       style="color:#000000;fill:#2c3e50;stroke-linecap:round;stroke-linejoin:round;-inkscape-stroke:none"
       d="M 13.316406,2.0878906 C 12.368751,1.9621273 11.40139,1.9712115 10.447266,2.1210938 8.539048,2.4208492 6.7599581,3.2685392 5.3222656,4.5585937 3.8845736,5.848659 2.8496702,7.5278365 2.3457031,9.3925781 1.8417423,11.257352 1.8883471,13.227734 2.4804688,15.066406 c 0.5921313,1.838703 1.7056791,3.465387 3.2031249,4.685547 1.4974789,1.220298 3.3160209,1.980799 5.2363283,2.189453 a 1.0001,1.0001 0 0 0 0.002,0.002 C 11.275522,21.980934 11.635415,22 12,22 a 1,1 0 0 0 1,-1 1,1 0 0 0 -1,-1 c -0.290105,0 -0.578195,-0.01672 -0.863281,-0.04687 h -0.0039 c -1.5350492,-0.167535 -2.9884763,-0.774505 -4.1855474,-1.75 -1.1980914,-0.976238 -2.0887524,-2.278906 -2.5625,-3.75 C 3.9110084,12.982001 3.8741255,11.406065 4.2773437,9.9140625 4.6805557,8.4221275 5.5059847,7.0790274 6.65625,6.046875 7.8065149,5.0147319 9.2311135,4.3374802 10.757813,4.0976562 12.28456,3.8578213 13.8484,4.0655536 15.259766,4.6953125 16.671034,5.3250584 17.869635,6.3500129 18.710937,7.6464844 19.552149,8.9429536 19.999911,10.454508 20,12 a 1,1 0 0 0 1,1 1,1 0 0 0 1,-1 C 21.999889,10.068296 21.440058,8.1770285 20.388672,6.5566406 19.337176,4.936255 17.838148,3.6562533 16.074219,2.8691406 15.192203,2.4755808 14.264062,2.2136539 13.316406,2.0878906 Z"
       id="path1" />
    <path
       style="color:#000000;fill:#2c3e50;stroke-linecap:round;stroke-linejoin:round;-inkscape-stroke:none"
       d="m 12,6 a 1,1 0 0 0 -1,1 v 5 a 1.0001,1.0001 0 0 0 0.292969,0.707031 l 2,2 a 1,1 0 0 0 1.414062,0 1,1 0 0 0 0,-1.414062 L 13,11.585938 V 7 A 1,1 0 0 0 12,6 Z"
       id="path2" />
    <path
       style="color:#000000;fill:#2c3e50;stroke-linecap:round;stroke-linejoin:round;-inkscape-stroke:none"
       d="m 19.904297,13.994141 c -0.407054,0 -0.809453,0.08061 -1.185547,0.236328 -0.376001,0.15583 -0.718029,0.384045 -1.005859,0.671875 l -3.416016,3.386718 A 1.0001,1.0001 0 0 0 14,19 v 3 a 1.0001,1.0001 0 0 0 1,1 h 3 a 1.0001,1.0001 0 0 0 0.710937,-0.296875 l 3.386719,-3.416016 0.002,-0.0039 c 0.286375,-0.287184 0.514699,-0.627062 0.669922,-1.001953 0.15594,-0.376264 0.236328,-0.778493 0.236328,-1.185547 0,-0.407054 -0.08039,-0.811236 -0.236328,-1.1875 -0.155781,-0.376238 -0.384045,-0.718029 -0.671875,-1.005859 -0.28783,-0.28783 -0.629859,-0.516045 -1.005859,-0.671875 -0.376094,-0.155722 -0.780446,-0.236328 -1.1875,-0.236328 z m 0,2 c 0.144545,0 0.288369,0.02871 0.421875,0.08398 0.133599,0.05537 0.255252,0.136112 0.357422,0.238281 0.102169,0.10217 0.183063,0.224061 0.238281,0.357422 0.05526,0.133336 0.08398,0.27733 0.08398,0.421875 0,0.144545 -0.02872,0.286587 -0.08398,0.419922 -0.05522,0.133361 -0.136112,0.255252 -0.238281,0.357422 a 1.0001,1.0001 0 0 0 -0.0039,0.0039 L 17.583984,21 H 16 v -1.583984 l 3.123047,-3.095704 a 1.0001,1.0001 0 0 0 0.0039,-0.0039 c 0.10217,-0.102169 0.223823,-0.182912 0.357422,-0.238281 0.133506,-0.05528 0.275377,-0.08398 0.419922,-0.08398 z"
       id="path3" />
  </g>
  <defs
     id="defs3">
    <clipPath
       id="clip0_20122_347">
      <rect
         width="24"
         height="24"
         fill="white"
         id="rect3" />
    </clipPath>
  </defs>
</svg>
