<?xml version="1.0" encoding="UTF-8" standalone="no"?>
<svg
   width="24"
   height="24"
   viewBox="0 0 24 24"
   fill="none"
   version="1.1"
   id="svg2"
   sodipodi:docname="close_2px.svg"
   inkscape:version="1.3.2 (091e20e, 2023-11-25)"
   xmlns:inkscape="http://www.inkscape.org/namespaces/inkscape"
   xmlns:sodipodi="http://sodipodi.sourceforge.net/DTD/sodipodi-0.dtd"
   xmlns="http://www.w3.org/2000/svg"
   xmlns:svg="http://www.w3.org/2000/svg">
  <sodipodi:namedview
     id="namedview2"
     pagecolor="#505050"
     bordercolor="#eeeeee"
     borderopacity="1"
     inkscape:showpageshadow="0"
     inkscape:pageopacity="0"
     inkscape:pagecheckerboard="0"
     inkscape:deskcolor="#505050"
     inkscape:zoom="9.8333333"
     inkscape:cx="11.949153"
     inkscape:cy="12"
     inkscape:window-width="1504"
     inkscape:window-height="449"
     inkscape:window-x="0"
     inkscape:window-y="25"
     inkscape:window-maximized="0"
     inkscape:current-layer="svg2" />
  <g
     clip-path="url(#clip0_20120_1412)"
     id="g2">
    <path
       style="color:#000000;fill:#2c3e50;stroke-linecap:round;stroke-linejoin:round;-inkscape-stroke:none"
       d="M 17.292969,5.2929687 5.2929687,17.292969 a 1,1 0 0 0 0,1.414062 1,1 0 0 0 1.4140625,0 L 18.707031,6.7070312 a 1,1 0 0 0 0,-1.4140625 1,1 0 0 0 -1.414062,0 z"
       id="path1" />
    <path
       style="color:#000000;fill:#2c3e50;stroke-linecap:round;stroke-linejoin:round;-inkscape-stroke:none"
       d="m 6,5 a 1,1 0 0 0 -0.7070313,0.2929687 1,1 0 0 0 0,1.4140625 L 17.292969,18.707031 a 1,1 0 0 0 1.414062,0 1,1 0 0 0 0,-1.414062 L 6.7070312,5.2929687 A 1,1 0 0 0 6,5 Z"
       id="path2" />
  </g>
  <defs
     id="defs2">
    <clipPath
       id="clip0_20120_1412">
      <rect
         width="24"
         height="24"
         fill="white"
         id="rect2" />
    </clipPath>
  </defs>
</svg>
