<?xml version="1.0" encoding="UTF-8" standalone="no"?>
<svg
   width="24"
   height="24"
   viewBox="0 0 24 24"
   fill="none"
   version="1.1"
   id="svg3"
   sodipodi:docname="cloud-upload.svg"
   inkscape:version="1.3.2 (091e20e, 2023-11-25)"
   xmlns:inkscape="http://www.inkscape.org/namespaces/inkscape"
   xmlns:sodipodi="http://sodipodi.sourceforge.net/DTD/sodipodi-0.dtd"
   xmlns="http://www.w3.org/2000/svg"
   xmlns:svg="http://www.w3.org/2000/svg">
  <sodipodi:namedview
     id="namedview3"
     pagecolor="#505050"
     bordercolor="#eeeeee"
     borderopacity="1"
     inkscape:showpageshadow="0"
     inkscape:pageopacity="0"
     inkscape:pagecheckerboard="0"
     inkscape:deskcolor="#505050"
     inkscape:zoom="9.8333333"
     inkscape:cx="11.949153"
     inkscape:cy="12"
     inkscape:window-width="1504"
     inkscape:window-height="449"
     inkscape:window-x="0"
     inkscape:window-y="25"
     inkscape:window-maximized="0"
     inkscape:current-layer="svg3" />
  <g
     clip-path="url(#clip0_20119_834)"
     id="g3">
    <path
       style="color:#000000;fill:#2c3e50;stroke-linecap:round;stroke-linejoin:round;-inkscape-stroke:none"
       d="m 11.248047,4.0585937 c -0.8403,0.1480956 -1.6436331,0.4438331 -2.3652345,0.875 C 7.6427498,5.6745088 6.7998897,6.8283666 6.3261719,8.1269531 5.0796131,8.2738212 3.889254,8.7283298 2.9824219,9.5957031 1.9089561,10.622484 1.2949219,12.029635 1.2949219,13.5 c 0,1.470365 0.6140342,2.877516 1.6875,3.904297 C 4.0558827,18.431073 5.4989582,19 7,19 A 1,1 0 0 0 8,18 1,1 0 0 0 7,17 C 6.0055843,17 5.0563118,16.620007 4.3652344,15.958984 3.6741619,15.297967 3.2949219,14.416633 3.2949219,13.5 c 0,-0.916633 0.37924,-1.797967 1.0703125,-2.458984 C 5.0563159,10.380005 6.0055897,10 7,10 A 1.0001,1.0001 0 0 0 7.9765625,9.21875 C 8.2073821,8.1904324 8.88757,7.2613674 9.9101563,6.6503906 10.416274,6.3479784 10.989805,6.1360811 11.595703,6.0292969 c 0.606024,-0.1067833 1.230767,-0.1061187 1.835938,0.00391 0.605052,0.1100186 1.177736,0.3258462 1.68164,0.6308594 0.504041,0.3050538 0.929202,0.6938196 1.25586,1.1367187 0.326747,0.4429122 0.549298,0.9318851 0.660156,1.4414063 0.110851,0.5094923 0.10837,1.0301565 -0.0059,1.5390625 A 1.0001,1.0001 0 0 0 18,12 h 1 c 0.663314,0 1.298569,0.263413 1.767578,0.732422 C 21.236716,13.201559 21.5,13.836686 21.5,14.5 c 0,0.663442 -0.263248,1.298405 -0.732422,1.767578 C 20.298611,16.736617 19.663386,17 19,17 h -1 a 1,1 0 0 0 -1,1 1,1 0 0 0 1,1 h 1 c 1.193012,0 2.338009,-0.474599 3.181641,-1.318359 C 23.025266,16.838015 23.5,15.693156 23.5,14.5 23.5,13.306916 23.025302,12.16202 22.181641,11.318359 21.338051,10.47477 20.193084,10 19,10 h -0.01953 c 4.6e-5,-0.3967053 0.08882,-0.7933167 0.0039,-1.1835937 C 18.812033,8.0242888 18.466968,7.275388 17.978516,6.6132812 17.490174,5.9511615 16.867396,5.3882505 16.148437,4.953125 15.429543,4.5179789 14.628409,4.2190274 13.789063,4.0664062 12.949634,3.9137914 12.088421,3.9105172 11.248047,4.0585937 Z"
       id="path1" />
    <path
       style="color:#000000;fill:#2c3e50;stroke-linecap:round;stroke-linejoin:round;-inkscape-stroke:none"
       d="m 11.292969,11.292969 -3.0000002,3 a 1,1 0 0 0 0,1.414062 1,1 0 0 0 1.4140625,0 L 12,13.414063 l 2.292969,2.292968 a 1,1 0 0 0 1.414062,0 1,1 0 0 0 0,-1.414062 l -3,-3 a 1.0001,1.0001 0 0 0 -1.414062,0 z"
       id="path2" />
    <path
       style="color:#000000;fill:#2c3e50;stroke-linecap:round;stroke-linejoin:round;-inkscape-stroke:none"
       d="m 12,11 a 1,1 0 0 0 -1,1 v 9 a 1,1 0 0 0 1,1 1,1 0 0 0 1,-1 v -9 a 1,1 0 0 0 -1,-1 z"
       id="path3" />
  </g>
  <defs
     id="defs3">
    <clipPath
       id="clip0_20119_834">
      <rect
         width="24"
         height="24"
         fill="white"
         id="rect3" />
    </clipPath>
  </defs>
</svg>
