<?xml version="1.0" encoding="UTF-8" standalone="no"?>
<svg
   width="24"
   height="24"
   viewBox="0 0 24 24"
   fill="none"
   version="1.1"
   id="svg3"
   sodipodi:docname="cloud-download_2px.svg"
   inkscape:version="1.3.2 (091e20e, 2023-11-25)"
   xmlns:inkscape="http://www.inkscape.org/namespaces/inkscape"
   xmlns:sodipodi="http://sodipodi.sourceforge.net/DTD/sodipodi-0.dtd"
   xmlns="http://www.w3.org/2000/svg"
   xmlns:svg="http://www.w3.org/2000/svg">
  <sodipodi:namedview
     id="namedview3"
     pagecolor="#505050"
     bordercolor="#eeeeee"
     borderopacity="1"
     inkscape:showpageshadow="0"
     inkscape:pageopacity="0"
     inkscape:pagecheckerboard="0"
     inkscape:deskcolor="#505050"
     inkscape:zoom="9.8333333"
     inkscape:cx="11.949153"
     inkscape:cy="12"
     inkscape:window-width="1504"
     inkscape:window-height="449"
     inkscape:window-x="0"
     inkscape:window-y="25"
     inkscape:window-maximized="0"
     inkscape:current-layer="svg3" />
  <g
     clip-path="url(#clip0_20119_828)"
     id="g3">
    <path
       style="color:#000000;fill:#2c3e50;stroke-linecap:round;stroke-linejoin:round;-inkscape-stroke:none"
       d="M 11.248047,4.0585937 C 10.407631,4.2066892 9.604403,4.5024754 8.8828125,4.9335937 7.6558798,5.6666579 6.8241755,6.8070565 6.3457031,8.0878906 5.3063508,8.1726295 4.2955786,8.464421 3.4492188,9.0761719 2.4125636,9.8254566 1.6699017,10.904377 1.3632812,12.130859 1.05666,13.357344 1.2068039,14.652139 1.7832031,15.78125 2.3595966,16.910349 3.322842,17.803312 4.5,18.316406 A 1,1 0 0 0 5.8164062,17.798828 1,1 0 0 0 5.2988281,16.482422 C 4.534148,16.149117 3.9243988,15.578146 3.5644531,14.873047 3.2045133,14.167959 3.1150092,13.373947 3.3046875,12.615234 3.4943665,11.856518 3.9532575,11.176607 4.6191406,10.695313 5.2850183,10.214015 6.1164168,9.9661732 6.9609375,10 A 1.0001,1.0001 0 0 0 7.9765625,9.21875 C 8.2073821,8.1904324 8.8875611,7.2613678 9.9101563,6.6503906 10.416405,6.3479297 10.98972,6.1360812 11.595703,6.0292969 c 0.605893,-0.106775 1.230767,-0.1061187 1.835938,0.00391 0.605135,0.1100186 1.177544,0.3257804 1.68164,0.6308594 0.503973,0.3050625 0.929061,0.6937372 1.25586,1.1367187 0.326697,0.4429543 0.549298,0.9318851 0.660156,1.4414063 0.110851,0.5094923 0.10837,1.0301565 -0.0059,1.5390625 A 1.0001,1.0001 0 0 0 18,12 h 1 c 0.663314,0 1.298435,0.26335 1.767578,0.732422 C 21.23665,13.201565 21.5,13.836686 21.5,14.5 c 0,0.663442 -0.263314,1.298399 -0.732422,1.767578 C 20.298476,16.73668 19.663386,17 19,17 a 1,1 0 0 0 -1,1 1,1 0 0 0 1,1 c 1.193012,0 2.337944,-0.474662 3.181641,-1.318359 C 23.025131,16.838021 23.5,15.693156 23.5,14.5 23.5,13.306916 23.025167,12.162015 22.181641,11.318359 21.337985,10.474833 20.193084,10 19,10 h -0.01953 c 4.6e-5,-0.3967053 0.08882,-0.7933167 0.0039,-1.1835937 C 18.812033,8.0242888 18.46877,7.2753459 17.980469,6.6132812 17.492068,5.9512439 16.867264,5.3882417 16.148437,4.953125 15.429535,4.5180447 14.628526,4.2190275 13.789063,4.0664062 12.949634,3.9137914 12.088352,3.910509 11.248047,4.0585937 Z"
       id="path1" />
    <path
       style="color:#000000;fill:#2c3e50;stroke-linecap:round;stroke-linejoin:round;-inkscape-stroke:none"
       d="m 12,12 a 1,1 0 0 0 -1,1 v 9 a 1,1 0 0 0 1,1 1,1 0 0 0 1,-1 v -9 a 1,1 0 0 0 -1,-1 z"
       id="path2" />
    <path
       style="color:#000000;fill:#2c3e50;stroke-linecap:round;stroke-linejoin:round;-inkscape-stroke:none"
       d="m 9,18 a 1,1 0 0 0 -0.7070312,0.292969 1,1 0 0 0 0,1.414062 l 3.0000002,3 a 1.0001,1.0001 0 0 0 1.414062,0 l 3,-3 a 1,1 0 0 0 0,-1.414062 1,1 0 0 0 -1.414062,0 L 12,20.585937 9.7070313,18.292969 A 1,1 0 0 0 9,18 Z"
       id="path3" />
  </g>
  <defs
     id="defs3">
    <clipPath
       id="clip0_20119_828">
      <rect
         width="24"
         height="24"
         fill="white"
         id="rect3" />
    </clipPath>
  </defs>
</svg>
