<?xml version="1.0" encoding="UTF-8" standalone="no"?>
<svg
   width="24"
   height="24"
   viewBox="0 0 24 24"
   fill="none"
   version="1.1"
   id="svg3"
   sodipodi:docname="coin.svg"
   inkscape:export-filename="coin.svg"
   inkscape:export-xdpi="96"
   inkscape:export-ydpi="96"
   inkscape:version="1.3.2 (091e20e, 2023-11-25)"
   xmlns:inkscape="http://www.inkscape.org/namespaces/inkscape"
   xmlns:sodipodi="http://sodipodi.sourceforge.net/DTD/sodipodi-0.dtd"
   xmlns="http://www.w3.org/2000/svg"
   xmlns:svg="http://www.w3.org/2000/svg">
  <sodipodi:namedview
     id="namedview3"
     pagecolor="#505050"
     bordercolor="#eeeeee"
     borderopacity="1"
     inkscape:showpageshadow="0"
     inkscape:pageopacity="0"
     inkscape:pagecheckerboard="0"
     inkscape:deskcolor="#505050"
     inkscape:zoom="9.8333333"
     inkscape:cx="11.949153"
     inkscape:cy="12"
     inkscape:window-width="1504"
     inkscape:window-height="449"
     inkscape:window-x="0"
     inkscape:window-y="25"
     inkscape:window-maximized="0"
     inkscape:current-layer="svg3" />
  <g
     clip-path="url(#clip0_19845_251)"
     id="g3">
    <path
       style="color:#000000;fill:#2c3e50;stroke-linecap:round;stroke-linejoin:round;-inkscape-stroke:none"
       d="M 12,2.25 C 10.71962,2.25 9.4524453,2.5022108 8.2695313,2.9921875 7.0866213,3.4821733 6.0108357,4.2001018 5.1054687,5.1054687 4.2001018,6.0108357 3.4821733,7.0866213 2.9921875,8.2695313 2.5022108,9.4524453 2.25,10.71962 2.25,12 c 0,1.28038 0.2522205,2.547502 0.7421875,3.730469 0.4899888,1.182884 1.2079454,2.258651 2.1132812,3.164062 0.9053695,0.905337 1.9811635,1.6233 3.1640626,2.113281 C 9.4524447,21.4978 10.719616,21.75 12,21.75 c 1.280384,0 2.547503,-0.25221 3.730469,-0.742188 1.182874,-0.489984 2.258648,-1.207975 3.164062,-2.113281 0.905306,-0.905414 1.623297,-1.981188 2.113281,-3.164062 C 21.49779,14.547503 21.75,13.280384 21.75,12 21.75,10.719616 21.4978,9.4524447 21.007812,8.2695313 20.517831,7.0866322 19.799868,6.0108382 18.894531,5.1054687 17.98912,4.2001329 16.913353,3.4821763 15.730469,2.9921875 14.547502,2.5022205 13.28038,2.25 12,2.25 Z m 0,1.5 c 1.083418,0 2.155219,0.2142942 3.15625,0.6289062 1.000913,0.4146104 1.911548,1.020987 2.677734,1.7871094 0.766062,0.7660889 1.372492,1.6767757 1.78711,2.6777344 C 20.035706,9.8446944 20.25,10.916587 20.25,12 c 0,1.083413 -0.214285,2.155218 -0.628906,3.15625 -0.414615,1.000924 -1.021017,1.91155 -1.78711,2.677734 -0.766184,0.766093 -1.67681,1.372495 -2.677734,1.78711 C 14.155218,20.035715 13.083413,20.25 12,20.25 10.916587,20.25 9.8446944,20.035706 8.84375,19.621094 7.8427913,19.206476 6.9321045,18.600046 6.1660156,17.833984 5.3998932,17.067798 4.7935166,16.157163 4.3789062,15.15625 3.9642942,14.155219 3.75,13.083418 3.75,12 3.75,10.916582 3.9643038,9.8446937 4.3789062,8.84375 4.7935196,7.8428021 5.3999242,6.932107 6.1660156,6.1660156 6.932107,5.3999242 7.8428021,4.7935196 8.84375,4.3789062 9.8446937,3.9643038 10.916582,3.75 12,3.75 Z"
       id="path1" />
    <path
       style="color:#000000;fill:#2c3e50;stroke-linecap:round;stroke-linejoin:round;-inkscape-stroke:none"
       d="M 11,7.25 C 10.270958,7.25 9.5702187,7.5391563 9.0546875,8.0546875 8.5391512,8.5702101 8.25,9.2709489 8.25,10 c 0,0.729032 0.2891807,1.429778 0.8046875,1.945313 C 9.5702305,12.460897 10.270977,12.75 11,12.75 h 2 c 0.331776,0 0.650107,0.130576 0.884766,0.365234 C 14.119424,13.349893 14.25,13.668224 14.25,14 c 0,0.331776 -0.130576,0.650107 -0.365234,0.884766 C 13.650107,15.119424 13.331776,15.25 13,15.25 h -2 a 0.750075,0.750075 0 0 0 -0.02539,0 c -0.226617,0.0076 -0.450182,-0.04614 -0.648437,-0.15625 C 10.127937,14.983588 9.962862,14.821434 9.8496094,14.625 A 0.75,0.75 0 0 0 8.8261719,14.349609 0.75,0.75 0 0 0 8.5507813,15.375 c 0.2490469,0.431966 0.6109702,0.787059 1.046875,1.029297 C 10.03356,16.646389 10.527009,16.766773 11.025391,16.75 H 13 c 0.729023,0 1.429772,-0.289147 1.945313,-0.804687 C 15.460853,15.429772 15.75,14.729023 15.75,14 15.75,13.270977 15.460853,12.570228 14.945313,12.054688 14.429772,11.539147 13.729023,11.25 13,11.25 h -2 c -0.331776,0 -0.650169,-0.130619 -0.884766,-0.365234 C 9.880582,10.650101 9.75,10.331767 9.75,10 9.75,9.6681922 9.8806115,9.349851 10.115234,9.1152344 10.349842,8.8806264 10.668243,8.75 11,8.75 h 2 a 0.750075,0.750075 0 0 0 0.02539,0 c 0.226603,-0.00763 0.450171,0.046113 0.648437,0.15625 0.198169,0.1100837 0.363195,0.2721516 0.476563,0.46875 A 0.75,0.75 0 0 0 15.173828,9.6503906 0.75,0.75 0 0 0 15.449219,8.625 C 15.200187,8.1931391 14.838374,7.8379191 14.402344,7.5957031 13.96641,7.3535407 13.473005,7.2332264 12.974609,7.25 Z"
       id="path2" />
    <path
       style="color:#000000;fill:#2c3e50;stroke-linecap:round;stroke-linejoin:round;-inkscape-stroke:none"
       d="M 12,6.25 A 0.75,0.75 0 0 0 11.25,7 V 17 A 0.75,0.75 0 0 0 12,17.75 0.75,0.75 0 0 0 12.75,17 V 7 A 0.75,0.75 0 0 0 12,6.25 Z"
       id="path3" />
  </g>
  <defs
     id="defs3">
    <clipPath
       id="clip0_19845_251">
      <rect
         width="24"
         height="24"
         fill="white"
         id="rect3" />
    </clipPath>
  </defs>
</svg>
