<?xml version="1.0" encoding="UTF-8" standalone="no"?>
<svg
   width="24"
   height="24"
   viewBox="0 0 24 24"
   fill="none"
   version="1.1"
   id="svg3"
   sodipodi:docname="coin_2px.svg"
   inkscape:version="1.3.2 (091e20e, 2023-11-25)"
   xmlns:inkscape="http://www.inkscape.org/namespaces/inkscape"
   xmlns:sodipodi="http://sodipodi.sourceforge.net/DTD/sodipodi-0.dtd"
   xmlns="http://www.w3.org/2000/svg"
   xmlns:svg="http://www.w3.org/2000/svg">
  <sodipodi:namedview
     id="namedview3"
     pagecolor="#505050"
     bordercolor="#eeeeee"
     borderopacity="1"
     inkscape:showpageshadow="0"
     inkscape:pageopacity="0"
     inkscape:pagecheckerboard="0"
     inkscape:deskcolor="#505050"
     inkscape:zoom="9.8333333"
     inkscape:cx="11.949153"
     inkscape:cy="12"
     inkscape:window-width="1504"
     inkscape:window-height="449"
     inkscape:window-x="0"
     inkscape:window-y="25"
     inkscape:window-maximized="0"
     inkscape:current-layer="svg3" />
  <g
     clip-path="url(#clip0_20122_341)"
     id="g3">
    <path
       style="color:#000000;fill:#2c3e50;stroke-linecap:round;stroke-linejoin:round;-inkscape-stroke:none"
       d="M 12,2 C 10.686793,2 9.3870706,2.2591797 8.1738281,2.7617188 6.9605912,3.2642666 5.858267,4.001108 4.9296875,4.9296875 4.001108,5.858267 3.2642666,6.9605912 2.7617188,8.1738281 2.2591797,9.3870706 2,10.686793 2,12 c 0,1.313207 0.2591926,2.612883 0.7617188,3.826172 0.5025518,1.213213 1.2394306,2.315525 2.1679687,3.24414 0.9285829,0.92855 2.0309181,1.665427 3.2441406,2.167969 C 9.3870698,21.740831 10.686787,22 12,22 c 1.313213,0 2.612884,-0.259182 3.826172,-0.761719 1.213199,-0.502546 2.315521,-1.23946 3.24414,-2.167969 0.928509,-0.928619 1.665423,-2.030941 2.167969,-3.24414 C 21.740818,14.612884 22,13.313213 22,12 22,10.686787 21.740831,9.3870698 21.238281,8.1738281 20.735739,6.9606056 19.998862,5.8582704 19.070312,4.9296875 18.141697,4.0011494 17.039385,3.2642706 15.826172,2.7617188 14.612883,2.2591926 13.313207,2 12,2 Z m 0,2 c 1.050591,0 2.091791,0.2073221 3.0625,0.609375 0.969987,0.4020327 1.851154,0.9918412 2.59375,1.734375 0.742849,0.7428754 1.332318,1.6250678 1.734375,2.5957031 C 19.792674,9.9100693 20,10.949415 20,12 c 0,1.04994 -0.207799,2.090348 -0.609375,3.060547 -0.402053,0.970599 -0.991485,1.852724 -1.734375,2.595703 -0.742979,0.74289 -1.625104,1.332322 -2.595703,1.734375 C 14.090348,19.792201 13.04994,20 12,20 10.949415,20 9.9100693,19.792674 8.9394531,19.390625 7.9688178,18.988568 7.0866254,18.399099 6.34375,17.65625 5.6012162,16.913654 5.0114077,16.032487 4.609375,15.0625 v -0.002 C 4.207808,14.090348 4,13.049946 4,12 4,10.949409 4.2073349,9.9100685 4.609375,8.9394531 5.0114263,7.9688322 5.6008712,7.0866288 6.34375,6.34375 7.0866288,5.6008712 7.9688322,5.0114263 8.9394531,4.609375 9.9100685,4.2073349 10.949409,4 12,4 Z"
       id="path1" />
    <path
       style="color:#000000;fill:#2c3e50;stroke-linecap:round;stroke-linejoin:round;-inkscape-stroke:none"
       d="M 11,7 C 10.204744,7 9.441258,7.3165545 8.8789063,7.8789062 8.316551,8.4412465 8,9.2047416 8,10 8,10.795258 8.3165904,11.558748 8.8789063,12.121094 9.4412737,12.683506 10.204769,13 11,13 h 2 c 0.265568,0 0.519186,0.105124 0.707031,0.292969 C 13.894766,13.480654 14,13.734282 14,14 14,14.265568 13.894876,14.519186 13.707031,14.707031 13.519186,14.894876 13.265568,15 13,15 h -2 a 1.0001,1.0001 0 0 0 -0.0332,0 c -0.181323,0.0061 -0.360979,-0.03689 -0.519531,-0.125 -0.158443,-0.088 -0.290239,-0.217821 -0.38086,-0.375 A 1,1 0 0 0 8.7011719,14.132813 1,1 0 0 0 8.3339844,15.5 c 0.2716793,0.471221 0.6668814,0.858846 1.1425781,1.123047 C 9.9521696,16.88734 10.489527,17.018298 11.033203,17 H 13 c 0.795231,0 1.55874,-0.316552 2.121094,-0.878906 C 15.683448,15.55874 16,14.795231 16,14 16,13.204719 15.683558,12.441221 15.121094,11.878906 14.55874,11.316552 13.795231,11 13,11 H 11 C 10.734432,11 10.480741,10.894818 10.292969,10.707031 10.105125,10.519178 10,10.265601 10,10 10,9.7343994 10.105165,9.4807678 10.292969,9.2929688 10.480756,9.1051813 10.734457,9 11,9 h 2 a 1.0001,1.0001 0 0 0 0.0332,0 c 0.181305,-0.0061 0.360877,0.036867 0.519531,0.125 0.15854,0.088069 0.290107,0.2176152 0.38086,0.375 A 1,1 0 0 0 15.298828,9.8671875 1,1 0 0 0 15.666016,8.5 C 15.394369,8.0289054 14.999097,7.6411834 14.523438,7.3769531 14.047893,7.1127865 13.510491,6.9817019 12.966797,7 Z"
       id="path2" />
    <path
       style="color:#000000;fill:#2c3e50;stroke-linecap:round;stroke-linejoin:round;-inkscape-stroke:none"
       d="m 12,6 a 1,1 0 0 0 -1,1 v 10 a 1,1 0 0 0 1,1 1,1 0 0 0 1,-1 V 7 A 1,1 0 0 0 12,6 Z"
       id="path3" />
  </g>
  <defs
     id="defs3">
    <clipPath
       id="clip0_20122_341">
      <rect
         width="24"
         height="24"
         fill="white"
         id="rect3" />
    </clipPath>
  </defs>
</svg>
