<svg width="24" height="24" viewBox="0 0 24 24" fill="none" xmlns="http://www.w3.org/2000/svg">
<g clip-path="url(#clip0_17718_426)">
<mask id="mask0_17718_426" style="mask-type:luminance" maskUnits="userSpaceOnUse" x="0" y="0" width="24" height="24">
<path d="M24 0H0V24H24V0Z" fill="white"/>
</mask>
<g mask="url(#mask0_17718_426)">
<path d="M6 20.25C5.80109 20.25 5.61032 20.329 5.46967 20.4697C5.32902 20.6103 5.25 20.8011 5.25 21C5.25 21.1989 5.32902 21.3897 5.46967 21.5303C5.61032 21.671 5.80109 21.75 6 21.75H12C12.1989 21.75 12.3897 21.671 12.5303 21.5303C12.671 21.3897 12.75 21.1989 12.75 21C12.75 20.8011 12.671 20.6103 12.5303 20.4697C12.3897 20.329 12.1989 20.25 12 20.25H6Z" fill="#2C3E50"/>
<path d="M9.28714 2.30664C9.15001 2.24961 8.99903 2.23457 8.85334 2.26343C8.70765 2.29229 8.57381 2.36375 8.46878 2.46875L2.46878 8.46875C2.36355 8.57366 2.29186 8.70746 2.26279 8.85318C2.23372 8.9989 2.24858 9.14996 2.30549 9.28722C2.3624 9.42448 2.4588 9.54174 2.58245 9.62413C2.7061 9.70652 2.85144 9.75033 3.00003 9.75H8.25003V21C8.25003 21.1989 8.32905 21.3897 8.4697 21.5303C8.61035 21.671 8.80112 21.75 9.00003 21.75C9.19894 21.75 9.38971 21.671 9.53036 21.5303C9.67101 21.3897 9.75003 21.1989 9.75003 21V9.75H21C21.1989 9.75 21.3897 9.67098 21.5304 9.53033C21.671 9.38968 21.75 9.19892 21.75 9C21.75 8.80109 21.671 8.61033 21.5304 8.46967C21.3897 8.32902 21.1989 8.25 21 8.25H9.75003V3C9.75011 2.8516 9.70618 2.70651 9.62378 2.58309C9.54139 2.45967 9.42423 2.36346 9.28714 2.30664ZM8.25003 4.8125V8.25H4.81253L8.25003 4.8125Z" fill="#2C3E50"/>
<path d="M8.81832 2.27148C8.62544 2.31981 8.45965 2.44275 8.35739 2.61328C8.25483 2.78371 8.22417 2.98789 8.27215 3.18092C8.32013 3.37395 8.44283 3.54001 8.61325 3.64258L18.6132 9.64258C18.7837 9.74513 18.9879 9.77579 19.1809 9.72781C19.3739 9.67983 19.54 9.55714 19.6425 9.38672C19.7451 9.21629 19.7758 9.01211 19.7278 8.81908C19.6798 8.62605 19.5571 8.45999 19.3867 8.35742L9.38668 2.35742C9.30225 2.30643 9.20859 2.27259 9.11106 2.25784C9.01354 2.2431 8.91406 2.24773 8.81832 2.27148Z" fill="#2C3E50"/>
<path d="M17 8.25C16.8011 8.25 16.6103 8.32902 16.4697 8.46967C16.329 8.61032 16.25 8.80109 16.25 9V13C16.25 13.1989 16.329 13.3897 16.4697 13.5303C16.6103 13.671 16.8011 13.75 17 13.75C17.2473 13.75 17.4897 13.8235 17.6953 13.9609C17.9009 14.0982 18.0597 14.2931 18.1543 14.5215C18.2489 14.7501 18.2748 15.0014 18.2266 15.2441C18.1783 15.4866 18.0596 15.7099 17.8848 15.8848C17.7099 16.0596 17.4866 16.1783 17.2441 16.2266C17.0015 16.2748 16.7501 16.2489 16.5215 16.1543C16.2931 16.0597 16.0982 15.9008 15.9609 15.6953C15.8235 15.4897 15.75 15.2473 15.75 15C15.75 14.8011 15.671 14.6103 15.5303 14.4697C15.3897 14.329 15.1989 14.25 15 14.25C14.8011 14.25 14.6103 14.329 14.4697 14.4697C14.329 14.6103 14.25 14.8011 14.25 15C14.25 15.5439 14.4107 16.0752 14.7129 16.5273C15.015 16.9796 15.4449 17.3329 15.9473 17.541C16.4496 17.749 17.0038 17.8032 17.5371 17.6973C18.0704 17.5911 18.5608 17.3299 18.9453 16.9453C19.3299 16.5608 19.5911 16.0704 19.6973 15.5371C19.8032 15.0038 19.749 14.4496 19.541 13.9473C19.3329 13.4449 18.9796 13.015 18.5273 12.7129C18.2972 12.5591 18.0126 12.5547 17.75 12.4766V9C17.75 8.80109 17.671 8.61032 17.5303 8.46967C17.3897 8.32902 17.1989 8.25 17 8.25Z" fill="#2C3E50"/>
</g>
</g>
<defs>
<clipPath id="clip0_17718_426">
<rect width="24" height="24" fill="white"/>
</clipPath>
</defs>
</svg>
