<?xml version="1.0" encoding="UTF-8" standalone="no"?>
<svg
   width="24"
   height="24"
   viewBox="0 0 24 24"
   fill="none"
   version="1.1"
   id="svg2"
   sodipodi:docname="discount-check_2px.svg"
   inkscape:version="1.3.2 (091e20e, 2023-11-25)"
   xmlns:inkscape="http://www.inkscape.org/namespaces/inkscape"
   xmlns:sodipodi="http://sodipodi.sourceforge.net/DTD/sodipodi-0.dtd"
   xmlns="http://www.w3.org/2000/svg"
   xmlns:svg="http://www.w3.org/2000/svg">
  <sodipodi:namedview
     id="namedview2"
     pagecolor="#505050"
     bordercolor="#eeeeee"
     borderopacity="1"
     inkscape:showpageshadow="0"
     inkscape:pageopacity="0"
     inkscape:pagecheckerboard="0"
     inkscape:deskcolor="#505050"
     inkscape:zoom="9.8333333"
     inkscape:cx="11.949153"
     inkscape:cy="12"
     inkscape:window-width="1504"
     inkscape:window-height="449"
     inkscape:window-x="0"
     inkscape:window-y="25"
     inkscape:window-maximized="0"
     inkscape:current-layer="svg2" />
  <g
     clip-path="url(#clip0_20123_42)"
     id="g2">
    <path
       style="color:#000000;fill:#2c3e50;stroke-linecap:round;stroke-linejoin:round;-inkscape-stroke:none"
       d="m 12.009766,2.0117188 c -0.42177,0 -0.83912,0.0822 -1.228516,0.2441406 -0.389319,0.1619231 -0.743599,0.4000562 -1.0410156,0.6992187 L 9.0429688,3.6523438 C 8.8182198,3.8748575 8.5155704,3.9998203 8.1992188,4 H 7.1992187 C 6.3509088,4 5.5373421,4.3376579 4.9375,4.9375 4.3376579,5.5373421 4,6.3509088 4,7.1992187 V 8.1992188 C 3.9998198,8.5164433 3.8740769,8.8199741 3.6503906,9.0449219 L 2.953125,9.7421875 C 2.6551607,10.039064 2.4174694,10.392649 2.2558594,10.78125 c -0.1618746,0.389383 -0.2441407,0.8068 -0.2441406,1.228516 -1e-7,0.421769 0.0823,0.839214 0.2441406,1.228515 0.1619261,0.389362 0.4000677,0.743611 0.6992187,1.041016 l 0.6972657,0.697266 C 3.8748432,15.201297 3.9998203,15.503972 4,15.820313 v 0.999999 c 0,0.848327 0.3375663,1.661902 0.9375,2.261719 0.5998383,0.599868 1.4133974,0.9375 2.2617187,0.9375 h 1.0000001 c 0.317157,1.64e-4 0.620738,0.125906 0.8457031,0.34961 l 0.6972656,0.697265 c 0.2969595,0.298193 0.6503965,0.535673 1.0390625,0.697266 0.389387,0.161893 0.806792,0.244141 1.228516,0.24414 0.421669,0 0.839129,-0.08225 1.228515,-0.24414 0.389738,-0.161979 0.743785,-0.400389 1.041016,-0.699219 l 0.697266,-0.697266 c 0.224751,-0.222516 0.527477,-0.347492 0.84375,-0.347656 h 0.999999 c 0.848284,0 1.661861,-0.337641 2.261719,-0.9375 0.599959,-0.599813 0.9375,-1.413381 0.9375,-2.261719 v -0.999999 c 1.64e-4,-0.316273 0.12514,-0.618999 0.347656,-0.84375 l 0.002,-0.002 0.695312,-0.695312 0.002,-0.002 c 0.298306,-0.297073 0.535703,-0.650818 0.697266,-1.039063 0.161793,-0.389292 0.244141,-0.806792 0.24414,-1.228515 0,-0.42167 -0.08231,-0.839142 -0.24414,-1.228516 -0.161597,-0.388326 -0.399234,-0.742118 -0.697266,-1.0390625 l -0.002,-0.00195 -0.695312,-0.6953125 -0.002,-0.00195 C 20.144903,8.8186081 20.019531,8.5139707 20.019531,8.1992188 V 7.1992187 c 0,-0.8483213 -0.337632,-1.6618804 -0.9375,-2.2617187 C 18.482169,4.3376665 17.668584,4 16.820312,4 H 15.820313 C 15.505561,4 15.200923,3.8746282 14.976563,3.6523438 L 14.279297,2.9550781 C 13.982009,2.6561911 13.627831,2.4178177 13.238281,2.2558594 12.848885,2.093919 12.431481,2.0117188 12.009766,2.0117188 Z m 0,1.9999999 c 0.158084,0 0.314934,0.031077 0.460937,0.091797 0.14605,0.060721 0.278913,0.1494062 0.390625,0.2617188 a 1.0001,1.0001 0 0 0 0.002,0.00195 L 13.5625,5.0664062 a 1.0001,1.0001 0 0 0 0.002,0.00195 C 14.163909,5.6649056 14.975946,6 15.820313,6 h 0.999999 c 0.318528,0 0.62232,0.1262368 0.847657,0.3515625 0.225332,0.2253209 0.351562,0.5290388 0.351562,0.8476562 v 1.0000001 c 0,0.8443669 0.335095,1.6564031 0.931641,2.2558592 a 1.0001,1.0001 0 0 0 0.002,0.002 l 0.699219,0.699219 a 1.0001,1.0001 0 0 0 0.002,0.002 c 0.112255,0.111655 0.200866,0.244393 0.261719,0.390625 0.06077,0.146226 0.0918,0.302807 0.0918,0.460938 0,0.158275 -0.03099,0.31463 -0.0918,0.460937 -0.06089,0.146314 -0.14974,0.279299 -0.261719,0.390625 a 1.0001,1.0001 0 0 0 -0.002,0.002 L 18.953125,13.5625 a 1.0001,1.0001 0 0 0 -0.002,0.002 c -0.595512,0.598855 -0.931205,1.411218 -0.931641,2.25586 v 0.999999 c 0,0.318662 -0.126322,0.622471 -0.351562,0.847657 -0.225341,0.22534 -0.529141,0.351562 -0.847657,0.351562 h -0.999999 c -0.844642,4.36e-4 -1.657005,0.336129 -2.25586,0.931641 a 1.0001,1.0001 0 0 0 -0.002,0.002 l -0.699219,0.699219 a 1.0001,1.0001 0 0 0 -0.002,0.002 c -0.111769,0.11237 -0.244763,0.201097 -0.390625,0.261719 -0.146013,0.06071 -0.302807,0.0918 -0.460937,0.0918 -0.158276,0 -0.314925,-0.03109 -0.460938,-0.0918 -0.145891,-0.06066 -0.279185,-0.149625 -0.390625,-0.261719 a 1.0001,1.0001 0 0 0 -0.002,-0.002 l -0.699219,-0.699219 a 1.0001,1.0001 0 0 0 -0.002,-0.002 C 9.856224,18.355676 9.0458137,18.019967 8.2011719,18.019531 a 1.0001,1.0001 0 0 0 -0.00195,0 H 7.1992187 c -0.3186174,0 -0.6223353,-0.12623 -0.8476562,-0.351562 C 6.126337,17.442787 6,17.138985 6,16.820312 V 15.820313 C 5.9995202,14.975738 5.663888,14.163326 5.0683594,13.564453 a 1.0001,1.0001 0 0 0 -0.00195,-0.002 L 4.3671875,12.863281 a 1.0001,1.0001 0 0 0 -0.00195,-0.002 C 4.2531858,12.749934 4.1642492,12.616741 4.1035156,12.470703 c -0.060819,-0.146298 -0.091797,-0.302708 -0.091797,-0.460937 0,-0.158085 0.031012,-0.314722 0.091797,-0.460938 0.0607,-0.145956 0.1493947,-0.278902 0.2617188,-0.390625 a 1.0001,1.0001 0 0 0 0.00195,-0.002 l 0.6992187,-0.699219 a 1.0001,1.0001 0 0 0 0.00195,-0.002 C 5.6638723,9.8562067 5.9995202,9.0457462 6,8.2011719 a 1.0001,1.0001 0 0 0 0,-0.00195 V 7.1992187 C 6,6.8805899 6.1262454,6.5768796 6.3515625,6.3515625 6.5768796,6.1262454 6.8805899,6 7.1992187,6 h 1.0000001 a 1.0001,1.0001 0 0 0 0.00195,0 C 9.0457347,5.9995202 9.8562,5.6638936 10.455078,5.0683594 a 1.0001,1.0001 0 0 0 0.002,-0.00195 L 11.15625,4.3671875 a 1.0001,1.0001 0 0 0 0.002,-0.00195 c 0.111383,-0.1120371 0.244545,-0.2009621 0.390625,-0.2617188 0.146004,-0.060719 0.302708,-0.091797 0.460938,-0.091797 z"
       id="path1" />
    <path
       style="color:#000000;fill:#2c3e50;stroke-linecap:round;stroke-linejoin:round;-inkscape-stroke:none"
       d="M 15,9 A 1,1 0 0 0 14.292969,9.2929688 L 11,12.585938 9.7070313,11.292969 a 1,1 0 0 0 -1.4140625,0 1,1 0 0 0 0,1.414062 l 2.0000002,2 a 1.0001,1.0001 0 0 0 1.414062,0 l 4,-4 a 1,1 0 0 0 0,-1.4140622 A 1,1 0 0 0 15,9 Z"
       id="path2" />
  </g>
  <defs
     id="defs2">
    <clipPath
       id="clip0_20123_42">
      <rect
         width="24"
         height="24"
         fill="white"
         id="rect2" />
    </clipPath>
  </defs>
</svg>
