<?xml version="1.0" encoding="UTF-8" standalone="no"?>
<svg
   width="24"
   height="24"
   viewBox="0 0 24 24"
   fill="none"
   version="1.1"
   id="svg3"
   sodipodi:docname="dots-vertical_2px.svg"
   inkscape:version="1.3.2 (091e20e, 2023-11-25)"
   xmlns:inkscape="http://www.inkscape.org/namespaces/inkscape"
   xmlns:sodipodi="http://sodipodi.sourceforge.net/DTD/sodipodi-0.dtd"
   xmlns="http://www.w3.org/2000/svg"
   xmlns:svg="http://www.w3.org/2000/svg">
  <sodipodi:namedview
     id="namedview3"
     pagecolor="#505050"
     bordercolor="#eeeeee"
     borderopacity="1"
     inkscape:showpageshadow="0"
     inkscape:pageopacity="0"
     inkscape:pagecheckerboard="0"
     inkscape:deskcolor="#505050"
     inkscape:zoom="9.8333333"
     inkscape:cx="11.949153"
     inkscape:cy="12"
     inkscape:window-width="1504"
     inkscape:window-height="449"
     inkscape:window-x="0"
     inkscape:window-y="25"
     inkscape:window-maximized="0"
     inkscape:current-layer="svg3" />
  <g
     clip-path="url(#clip0_20122_376)"
     id="g3">
    <path
       style="color:#000000;fill:#2c3e50;stroke-linecap:round;stroke-linejoin:round;-inkscape-stroke:none"
       d="m 12,10 c -0.530157,0 -1.039258,0.211133 -1.414062,0.585938 C 10.211133,10.960742 10,11.469843 10,12 c 0,0.530157 0.211133,1.039258 0.585938,1.414063 C 10.960742,13.788867 11.469843,14 12,14 12.530157,14 13.039258,13.788867 13.414063,13.414063 13.788867,13.039258 14,12.530157 14,12 14,11.469843 13.788867,10.960742 13.414063,10.585938 13.039258,10.211133 12.530157,10 12,10 Z"
       id="path1" />
    <path
       style="color:#000000;fill:#2c3e50;stroke-linecap:round;stroke-linejoin:round;-inkscape-stroke:none"
       d="m 12,17 c -0.530157,0 -1.039258,0.211133 -1.414062,0.585937 C 10.211133,17.960742 10,18.469843 10,19 c 0,0.530157 0.211133,1.039258 0.585938,1.414062 C 10.960742,20.788867 11.469843,21 12,21 12.530157,21 13.039258,20.788867 13.414063,20.414062 13.788867,20.039258 14,19.530157 14,19 14,18.469843 13.788867,17.960742 13.414063,17.585937 13.039258,17.211133 12.530157,17 12,17 Z"
       id="path2" />
    <path
       style="color:#000000;fill:#2c3e50;stroke-linecap:round;stroke-linejoin:round;-inkscape-stroke:none"
       d="M 12,3 C 11.469944,3 10.960798,3.2110167 10.585938,3.5859375 10.211284,3.9606708 10,4.4698432 10,5 10,5.5301568 10.211284,6.0393292 10.585938,6.4140625 10.960798,6.7889833 11.469944,7 12,7 12.530056,7 13.039202,6.7889833 13.414063,6.4140625 13.788716,6.0393292 14,5.5301568 14,5 14,4.4698432 13.788716,3.9606708 13.414063,3.5859375 13.039202,3.2110167 12.530056,3 12,3 Z"
       id="path3" />
  </g>
  <defs
     id="defs3">
    <clipPath
       id="clip0_20122_376">
      <rect
         width="24"
         height="24"
         fill="white"
         id="rect3" />
    </clipPath>
  </defs>
</svg>
