<svg width="24" height="24" viewBox="0 0 24 24" fill="none" xmlns="http://www.w3.org/2000/svg">
<g clip-path="url(#clip0_17718_435)">
<mask id="mask0_17718_435" style="mask-type:luminance" maskUnits="userSpaceOnUse" x="0" y="0" width="24" height="24">
<path d="M24 0H0V24H24V0Z" fill="white"/>
</mask>
<g mask="url(#mask0_17718_435)">
<path d="M3.0389 8.25196C2.84032 8.24151 2.64571 8.31036 2.49788 8.44336C2.35036 8.57656 2.26174 8.76286 2.25149 8.96134C2.24123 9.15983 2.31019 9.35427 2.44319 9.50196C4.96795 12.3076 8.2147 13.75 11.9998 13.75C15.785 13.75 19.0317 12.3076 21.5565 9.50196C21.6895 9.35427 21.7584 9.15983 21.7482 8.96134C21.7379 8.76286 21.6493 8.57656 21.5018 8.44336C21.3541 8.31035 21.1597 8.2414 20.9612 8.25166C20.7627 8.26191 20.5764 8.35053 20.4432 8.49805C18.168 11.0264 15.4147 12.25 11.9998 12.25C8.58498 12.25 5.83172 11.0264 3.55648 8.49805C3.42333 8.35074 3.2372 8.26224 3.0389 8.25196Z" fill="#2C3E50"/>
<path d="M5.91199 10.5742C5.74597 10.4647 5.54323 10.4256 5.34837 10.4655C5.15351 10.5054 4.98249 10.6211 4.87293 10.7871L2.37293 14.5879C2.31878 14.6702 2.28138 14.7624 2.26287 14.8592C2.24435 14.956 2.2451 15.0555 2.26505 15.1519C2.285 15.2484 2.32377 15.3401 2.37915 15.4216C2.43452 15.5031 2.50542 15.5729 2.58778 15.627C2.6701 15.6811 2.76228 15.7185 2.85907 15.737C2.95585 15.7555 3.05533 15.7548 3.15182 15.7348C3.24832 15.7149 3.33994 15.6761 3.42144 15.6207C3.50295 15.5654 3.57274 15.4945 3.62684 15.4121L6.12684 11.6113C6.23559 11.4452 6.27404 11.2428 6.23377 11.0484C6.1935 10.854 6.07778 10.6835 5.91199 10.5742Z" fill="#2C3E50"/>
<path d="M18.6582 10.4648C18.4636 10.4254 18.2613 10.4647 18.0957 10.5742C17.9297 10.6838 17.814 10.8548 17.7741 11.0497C17.7341 11.2445 17.7732 11.4473 17.8828 11.6133L20.375 15.3887C20.4845 15.5547 20.6556 15.6704 20.8504 15.7103C21.0453 15.7502 21.248 15.7111 21.4141 15.6016C21.5801 15.492 21.6958 15.321 21.7357 15.1261C21.7756 14.9313 21.7365 14.7285 21.6269 14.5625L19.1348 10.7871C19.0804 10.7047 19.0104 10.6338 18.9286 10.5785C18.8468 10.5232 18.7549 10.4846 18.6582 10.4648Z" fill="#2C3E50"/>
<path d="M9.59353 12.2559C9.49581 12.2435 9.39662 12.2506 9.30162 12.2766C9.20663 12.3026 9.11769 12.3471 9.03988 12.4075C8.96207 12.4679 8.89693 12.543 8.84816 12.6286C8.79939 12.7142 8.76795 12.8085 8.75564 12.9063L8.25564 16.9063C8.24333 17.004 8.25038 17.1032 8.2764 17.1982C8.30242 17.2932 8.3469 17.3821 8.4073 17.4599C8.46769 17.5377 8.54282 17.6029 8.62839 17.6516C8.71397 17.7004 8.80831 17.7318 8.90603 17.7441C9.00375 17.7565 9.10294 17.7494 9.19794 17.7234C9.29294 17.6974 9.38188 17.6529 9.45968 17.5925C9.53749 17.5321 9.60264 17.457 9.65141 17.3714C9.70018 17.2858 9.73161 17.1915 9.74392 17.0938L10.2439 13.0938C10.2562 12.996 10.2492 12.8968 10.2232 12.8018C10.1971 12.7068 10.1527 12.6179 10.0923 12.5401C10.0319 12.4623 9.95674 12.3971 9.87117 12.3484C9.7856 12.2996 9.69125 12.2682 9.59353 12.2559Z" fill="#2C3E50"/>
<path d="M14.406 12.2559C14.3083 12.2682 14.214 12.2996 14.1284 12.3484C14.0428 12.3971 13.9677 12.4623 13.9073 12.5401C13.8469 12.6179 13.8024 12.7068 13.7764 12.8018C13.7504 12.8968 13.7433 12.996 13.7556 13.0938L14.2556 17.0938C14.2679 17.1915 14.2994 17.2858 14.3482 17.3714C14.3969 17.457 14.4621 17.5321 14.5399 17.5925C14.6177 17.6529 14.7066 17.6974 14.8016 17.7234C14.8966 17.7494 14.9958 17.7565 15.0935 17.7441C15.1913 17.7318 15.2856 17.7004 15.3712 17.6516C15.4567 17.6029 15.5319 17.5377 15.5923 17.4599C15.6527 17.3821 15.6971 17.2932 15.7232 17.1982C15.7492 17.1032 15.7562 17.004 15.7439 16.9063L15.2439 12.9063C15.2316 12.8085 15.2002 12.7142 15.1514 12.6286C15.1026 12.543 15.0375 12.4679 14.9597 12.4075C14.8819 12.3471 14.7929 12.3026 14.6979 12.2766C14.6029 12.2506 14.5038 12.2435 14.406 12.2559Z" fill="#2C3E50"/>
</g>
</g>
<defs>
<clipPath id="clip0_17718_435">
<rect width="24" height="24" fill="white"/>
</clipPath>
</defs>
</svg>
