<svg width="24" height="24" viewBox="0 0 24 24" fill="none" xmlns="http://www.w3.org/2000/svg">
<g clip-path="url(#clip0_17718_445)">
<mask id="mask0_17718_445" style="mask-type:luminance" maskUnits="userSpaceOnUse" x="0" y="0" width="24" height="24">
<path d="M24 0H0V24H24V0Z" fill="white"/>
</mask>
<g mask="url(#mask0_17718_445)">
<path d="M12 9.25C11.271 9.25 10.5702 9.53915 10.0547 10.0547C9.53915 10.5702 9.25 11.271 9.25 12C9.25 12.729 9.53915 13.4298 10.0547 13.9453C10.5702 14.4609 11.271 14.75 12 14.75C12.729 14.75 13.4298 14.4609 13.9453 13.9453C14.4609 13.4298 14.75 12.729 14.75 12C14.75 11.271 14.4609 10.5702 13.9453 10.0547C13.4298 9.53915 12.729 9.25 12 9.25ZM12 10.75C12.3318 10.75 12.6501 10.8806 12.8848 11.1152C13.1194 11.3499 13.25 11.6682 13.25 12C13.25 12.3318 13.1194 12.6501 12.8848 12.8848C12.6501 13.1194 12.3318 13.25 12 13.25C11.6682 13.25 11.3499 13.1194 11.1152 12.8848C10.8806 12.6501 10.75 12.3318 10.75 12C10.75 11.6682 10.8806 11.3499 11.1152 11.1152C11.3499 10.8806 11.6682 10.75 12 10.75Z" fill="#2C3E50"/>
<path d="M12 5.25C8.12218 5.25 4.84249 7.47142 2.35738 11.6133C2.28712 11.73 2.25 11.8637 2.25 12C2.25 12.1363 2.28712 12.27 2.35738 12.3867C4.84249 16.5286 8.12218 18.75 12 18.75C15.8777 18.75 19.1574 16.5286 21.6425 12.3867C21.7128 12.27 21.7499 12.1363 21.7499 12C21.7499 11.8637 21.7128 11.73 21.6425 11.6133C19.1574 7.47142 15.8777 5.25 12 5.25ZM12 6.75C15.1943 6.75 17.8221 8.44395 20.0781 12C17.8221 15.5561 15.1943 17.25 12 17.25C8.80562 17.25 6.17785 15.5561 3.92183 12C6.17785 8.44395 8.80562 6.75 12 6.75Z" fill="#2C3E50"/>
</g>
</g>
<defs>
<clipPath id="clip0_17718_445">
<rect width="24" height="24" fill="white"/>
</clipPath>
</defs>
</svg>
