<?xml version="1.0" encoding="UTF-8" standalone="no"?>
<svg
   width="24"
   height="24"
   viewBox="0 0 24 24"
   fill="none"
   version="1.1"
   id="svg2"
   sodipodi:docname="eye_2px.svg"
   inkscape:version="1.3.2 (091e20e, 2023-11-25)"
   xmlns:inkscape="http://www.inkscape.org/namespaces/inkscape"
   xmlns:sodipodi="http://sodipodi.sourceforge.net/DTD/sodipodi-0.dtd"
   xmlns="http://www.w3.org/2000/svg"
   xmlns:svg="http://www.w3.org/2000/svg">
  <sodipodi:namedview
     id="namedview2"
     pagecolor="#505050"
     bordercolor="#eeeeee"
     borderopacity="1"
     inkscape:showpageshadow="0"
     inkscape:pageopacity="0"
     inkscape:pagecheckerboard="0"
     inkscape:deskcolor="#505050"
     inkscape:zoom="9.8333333"
     inkscape:cx="11.949153"
     inkscape:cy="12"
     inkscape:window-width="1504"
     inkscape:window-height="449"
     inkscape:window-x="0"
     inkscape:window-y="25"
     inkscape:window-maximized="0"
     inkscape:current-layer="svg2" />
  <g
     clip-path="url(#clip0_20120_1476)"
     id="g2">
    <path
       style="color:#000000;fill:#2c3e50;stroke-linecap:round;stroke-linejoin:round;-inkscape-stroke:none"
       d="M 12,9 C 11.204769,9 10.44126,9.316552 9.8789063,9.8789063 9.316552,10.44126 9,11.204769 9,12 9,12.795231 9.316552,13.55874 9.8789063,14.121094 10.44126,14.683448 11.204769,15 12,15 12.795231,15 13.55874,14.683448 14.121094,14.121094 14.683448,13.55874 15,12.795231 15,12 15,11.204769 14.683448,10.44126 14.121094,9.8789063 13.55874,9.316552 12.795231,9 12,9 Z m 0,2 c 0.265568,0 0.519186,0.105124 0.707031,0.292969 C 12.894876,11.480814 13,11.734432 13,12 13,12.265568 12.894876,12.519186 12.707031,12.707031 12.519186,12.894876 12.265568,13 12,13 11.734432,13 11.480814,12.894876 11.292969,12.707031 11.105124,12.519186 11,12.265568 11,12 11,11.734432 11.105124,11.480814 11.292969,11.292969 11.480814,11.105124 11.734432,11 12,11 Z"
       id="path1" />
    <path
       style="color:#000000;fill:#2c3e50;stroke-linecap:round;stroke-linejoin:round;-inkscape-stroke:none"
       d="M 12,5 C 8.0296336,5 4.6560673,7.2971795 2.1425781,11.486328 a 1.0001,1.0001 0 0 0 0,1.027344 C 4.6560673,16.702821 8.0296336,19 12,19 c 3.970366,0 7.343933,-2.297179 9.857422,-6.486328 a 1.0001,1.0001 0 0 0 0,-1.027344 C 19.343933,7.2971795 15.970366,5 12,5 Z m 0,2 c 3.06162,0 5.569728,1.5941931 7.771484,5 C 17.569728,15.405807 15.06162,17 12,17 8.9383802,17 6.4302723,15.405807 4.2285156,12 6.4302723,8.5941931 8.9383802,7 12,7 Z"
       id="path2" />
  </g>
  <defs
     id="defs2">
    <clipPath
       id="clip0_20120_1476">
      <rect
         width="24"
         height="24"
         fill="white"
         id="rect2" />
    </clipPath>
  </defs>
</svg>
