<?xml version="1.0" encoding="UTF-8" standalone="no"?>
<svg
   width="24"
   height="24"
   viewBox="0 0 24 24"
   fill="none"
   version="1.1"
   id="svg6"
   sodipodi:docname="file-type-xls_2px.svg"
   inkscape:version="1.3.2 (091e20e, 2023-11-25)"
   xmlns:inkscape="http://www.inkscape.org/namespaces/inkscape"
   xmlns:sodipodi="http://sodipodi.sourceforge.net/DTD/sodipodi-0.dtd"
   xmlns="http://www.w3.org/2000/svg"
   xmlns:svg="http://www.w3.org/2000/svg">
  <sodipodi:namedview
     id="namedview6"
     pagecolor="#505050"
     bordercolor="#eeeeee"
     borderopacity="1"
     inkscape:showpageshadow="0"
     inkscape:pageopacity="0"
     inkscape:pagecheckerboard="0"
     inkscape:deskcolor="#505050"
     inkscape:zoom="9.8333333"
     inkscape:cx="11.949153"
     inkscape:cy="12"
     inkscape:window-width="1504"
     inkscape:window-height="449"
     inkscape:window-x="0"
     inkscape:window-y="25"
     inkscape:window-maximized="0"
     inkscape:current-layer="svg6" />
  <g
     clip-path="url(#clip0_20119_789)"
     id="g6">
    <path
       style="color:#000000;fill:#2c3e50;stroke-linecap:round;stroke-linejoin:round;-inkscape-stroke:none"
       d="m 14,2 a 1,1 0 0 0 -1,1 v 4 c 0,0.5301568 0.211284,1.0393292 0.585938,1.4140625 C 13.960798,8.7889833 14.469944,9 15,9 h 4 A 1,1 0 0 0 20,8 1,1 0 0 0 19,7 H 15 V 3 A 1,1 0 0 0 14,2 Z"
       id="path1" />
    <path
       style="color:#000000;fill:#2c3e50;stroke-linecap:round;stroke-linejoin:round;-inkscape-stroke:none"
       d="M 7,2 C 6.2047416,2 5.4412465,2.316551 4.8789062,2.8789063 4.316551,3.4412465 4,4.2047416 4,5 v 7 a 1,1 0 0 0 1,1 1,1 0 0 0 1,-1 V 5 C 6,4.7343994 6.1051647,4.4807678 6.2929687,4.2929687 6.4807678,4.1051647 6.7343994,4 7,4 h 6.585938 L 18,8.4140625 V 12 a 1,1 0 0 0 1,1 1,1 0 0 0 1,-1 V 8 A 1.0001,1.0001 0 0 0 19.707031,7.2929687 l -5,-4.9999999 A 1.0001,1.0001 0 0 0 14,2 Z"
       id="path2" />
    <path
       style="color:#000000;fill:#2c3e50;stroke-linecap:round;stroke-linejoin:round;-inkscape-stroke:none"
       d="m 4.1953125,14.019531 a 1,1 0 0 0 -0.75,0.148438 1,1 0 0 0 -0.2773437,1.386719 l 3.9999999,5.999999 a 1,1 0 0 0 1.3867188,0.277344 1,1 0 0 0 0.2773438,-1.386719 L 4.8320312,14.445313 A 1,1 0 0 0 4.1953125,14.019531 Z"
       id="path3" />
    <path
       style="color:#000000;fill:#2c3e50;stroke-linecap:round;stroke-linejoin:round;-inkscape-stroke:none"
       d="m 8.5546875,14.167969 a 1,1 0 0 0 -1.3867188,0.277344 l -3.9999999,5.999999 a 1,1 0 0 0 0.2773437,1.386719 1,1 0 0 0 1.3867187,-0.277344 L 8.8320313,15.554688 A 1,1 0 0 0 8.5546875,14.167969 Z"
       id="path4" />
    <path
       style="color:#000000;fill:#2c3e50;stroke-linecap:round;stroke-linejoin:round;-inkscape-stroke:none"
       d="m 18,14 c -0.530157,0 -1.039258,0.211133 -1.414063,0.585938 C 16.211133,14.960742 16,15.469843 16,16 v 1 c 0,0.530157 0.211133,1.039258 0.585937,1.414062 C 16.960742,18.788867 17.469843,19 18,19 h 1 v 1 H 17.951172 A 1,1 0 0 0 17,19.25 a 1,1 0 0 0 -1,1 C 16,21.205062 16.794938,22 17.75,22 H 19 c 0.530157,0 1.039258,-0.211133 1.414062,-0.585938 C 20.788867,21.039258 21,20.530157 21,20 V 19 C 21,18.469843 20.788867,17.960742 20.414062,17.585937 20.039258,17.211133 19.530157,17 19,17 h -1 v -1 h 1.103516 A 1,1 0 0 0 20,16.75 a 1,1 0 0 0 1,-1 C 21,15.287194 20.815392,14.841544 20.488281,14.513672 20.160232,14.18539 19.713689,14 19.25,14 Z"
       id="path5" />
    <path
       style="color:#000000;fill:#2c3e50;stroke-linecap:round;stroke-linejoin:round;-inkscape-stroke:none"
       d="m 11,14 a 1,1 0 0 0 -1,1 v 6 a 1.0001,1.0001 0 0 0 1,1 h 3 a 1,1 0 0 0 1,-1 1,1 0 0 0 -1,-1 h -2 v -5 a 1,1 0 0 0 -1,-1 z"
       id="path6" />
  </g>
  <defs
     id="defs6">
    <clipPath
       id="clip0_20119_789">
      <rect
         width="24"
         height="24"
         fill="white"
         id="rect6" />
    </clipPath>
  </defs>
</svg>
