<?xml version="1.0" encoding="UTF-8" standalone="no"?>
<svg
   width="24"
   height="24"
   viewBox="0 0 24 24"
   fill="none"
   version="1.1"
   id="svg5"
   sodipodi:docname="file-type-csv_2px.svg"
   inkscape:version="1.3.2 (091e20e, 2023-11-25)"
   xmlns:inkscape="http://www.inkscape.org/namespaces/inkscape"
   xmlns:sodipodi="http://sodipodi.sourceforge.net/DTD/sodipodi-0.dtd"
   xmlns="http://www.w3.org/2000/svg"
   xmlns:svg="http://www.w3.org/2000/svg">
  <sodipodi:namedview
     id="namedview5"
     pagecolor="#505050"
     bordercolor="#eeeeee"
     borderopacity="1"
     inkscape:showpageshadow="0"
     inkscape:pageopacity="0"
     inkscape:pagecheckerboard="0"
     inkscape:deskcolor="#505050"
     inkscape:zoom="9.8333333"
     inkscape:cx="11.949153"
     inkscape:cy="12"
     inkscape:window-width="1504"
     inkscape:window-height="449"
     inkscape:window-x="0"
     inkscape:window-y="25"
     inkscape:window-maximized="0"
     inkscape:current-layer="svg5" />
  <g
     clip-path="url(#clip0_20119_762)"
     id="g5">
    <path
       style="color:#000000;fill:#2c3e50;stroke-linecap:round;stroke-linejoin:round;-inkscape-stroke:none"
       d="m 14,2 a 1,1 0 0 0 -1,1 v 4 c 0,0.5301568 0.211284,1.0393292 0.585938,1.4140625 C 13.960798,8.7889833 14.469944,9 15,9 h 4 A 1,1 0 0 0 20,8 1,1 0 0 0 19,7 H 15 V 3 A 1,1 0 0 0 14,2 Z"
       id="path1" />
    <path
       style="color:#000000;fill:#2c3e50;stroke-linecap:round;stroke-linejoin:round;-inkscape-stroke:none"
       d="M 7,2 C 6.2047416,2 5.4412465,2.316551 4.8789062,2.8789063 4.316551,3.4412465 4,4.2047416 4,5 v 7 a 1,1 0 0 0 1,1 1,1 0 0 0 1,-1 V 5 C 6,4.7343994 6.1051647,4.4807678 6.2929687,4.2929687 6.4807678,4.1051647 6.7343994,4 7,4 h 6.585938 L 18,8.4140625 V 12 a 1,1 0 0 0 1,1 1,1 0 0 0 1,-1 V 8 A 1.0001,1.0001 0 0 0 19.707031,7.2929687 l -5,-4.9999999 A 1.0001,1.0001 0 0 0 14,2 Z"
       id="path2" />
    <path
       style="color:#000000;fill:#2c3e50;stroke-linecap:round;stroke-linejoin:round;-inkscape-stroke:none"
       d="M 5.5,14 C 4.8374043,14 4.2010264,14.263817 3.7324219,14.732422 3.2638006,15.201043 3,15.837344 3,16.5 v 3 c 0,0.662656 0.2638006,1.298957 0.7324219,1.767578 C 4.2010264,21.736183 4.8374043,22 5.5,22 6.1625957,22 6.7989736,21.736183 7.2675781,21.267578 7.7361994,20.798957 8,20.162656 8,19.5 a 1,1 0 0 0 -1,-1 1,1 0 0 0 -1,1 C 6,19.632943 5.9474938,19.759537 5.8535156,19.853516 5.7595207,19.947511 5.6330435,20 5.5,20 5.3669565,20 5.2404793,19.947511 5.1464844,19.853516 5.0525062,19.759537 5,19.632943 5,19.5 v -3 C 5,16.367057 5.0525062,16.240463 5.1464844,16.146484 5.2404793,16.052489 5.3669565,16 5.5,16 5.6330435,16 5.7595207,16.052489 5.8535156,16.146484 5.9474938,16.240463 6,16.367057 6,16.5 a 1,1 0 0 0 1,1 1,1 0 0 0 1,-1 C 8,15.837344 7.7361994,15.201043 7.2675781,14.732422 6.7989736,14.263817 6.1625957,14 5.5,14 Z"
       id="path3" />
    <path
       style="color:#000000;fill:#2c3e50;stroke-linecap:round;stroke-linejoin:round;-inkscape-stroke:none"
       d="M 11,14 C 10.469843,14 9.9607419,14.211133 9.5859375,14.585938 9.2111331,14.960742 9,15.469843 9,16 v 1 c 0,0.530157 0.2111331,1.039258 0.5859375,1.414062 C 9.9607419,18.788867 10.469843,19 11,19 h 1 v 1 H 10.951172 A 1,1 0 0 0 10,19.25 a 1,1 0 0 0 -1,1 C 9,21.205062 9.7949382,22 10.75,22 H 12 c 0.530157,0 1.039258,-0.211133 1.414063,-0.585938 C 13.788867,21.039258 14,20.530157 14,20 V 19 C 14,18.469843 13.788867,17.960742 13.414063,17.585937 13.039258,17.211133 12.530157,17 12,17 h -1 v -1 h 1.25 c -0.06502,0 -0.129099,-0.02654 -0.175781,-0.07227 a 1.0001,1.0001 0 0 0 -0.002,-0.002 C 12.026538,15.879099 12,15.815016 12,15.75 a 1,1 0 0 0 0.25,0.25 1,1 0 0 0 0.75,0.75 1,1 0 0 0 1,-1 C 14,15.287194 13.815392,14.841544 13.488281,14.513672 13.160232,14.18539 12.713689,14 12.25,14 Z"
       id="path4" />
    <path
       style="color:#000000;fill:#2c3e50;stroke-linecap:round;stroke-linejoin:round;-inkscape-stroke:none"
       d="m 15.683594,14.050781 a 1,1 0 0 0 -0.632813,1.265625 l 2,6 a 1.0001,1.0001 0 0 0 1.898438,0 l 2,-6 a 1,1 0 0 0 -0.632813,-1.265625 1,1 0 0 0 -1.265625,0.632813 L 18,17.835937 16.949219,14.683594 a 1,1 0 0 0 -1.265625,-0.632813 z"
       id="path5" />
  </g>
  <defs
     id="defs5">
    <clipPath
       id="clip0_20119_762">
      <rect
         width="24"
         height="24"
         fill="white"
         id="rect5" />
    </clipPath>
  </defs>
</svg>
