<?xml version="1.0" encoding="UTF-8" standalone="no"?>
<svg
   width="24"
   height="24"
   viewBox="0 0 24 24"
   fill="none"
   version="1.1"
   id="svg3"
   sodipodi:docname="files_2px.svg"
   inkscape:version="1.3.2 (091e20e, 2023-11-25)"
   xmlns:inkscape="http://www.inkscape.org/namespaces/inkscape"
   xmlns:sodipodi="http://sodipodi.sourceforge.net/DTD/sodipodi-0.dtd"
   xmlns="http://www.w3.org/2000/svg"
   xmlns:svg="http://www.w3.org/2000/svg">
  <sodipodi:namedview
     id="namedview3"
     pagecolor="#505050"
     bordercolor="#eeeeee"
     borderopacity="1"
     inkscape:showpageshadow="0"
     inkscape:pageopacity="0"
     inkscape:pagecheckerboard="0"
     inkscape:deskcolor="#505050"
     inkscape:zoom="9.8333333"
     inkscape:cx="11.949153"
     inkscape:cy="12"
     inkscape:window-width="1504"
     inkscape:window-height="449"
     inkscape:window-x="0"
     inkscape:window-y="25"
     inkscape:window-maximized="0"
     inkscape:current-layer="svg3" />
  <g
     clip-path="url(#clip0_20119_822)"
     id="g3">
    <path
       style="color:#000000;fill:#2c3e50;stroke-linecap:round;stroke-linejoin:round;-inkscape-stroke:none"
       d="m 15,2 a 1,1 0 0 0 -1,1 v 4 c 0,0.5301568 0.211284,1.0393292 0.585938,1.4140625 C 14.960798,8.7889833 15.469944,9 16,9 h 4 A 1,1 0 0 0 21,8 1,1 0 0 0 20,7 H 16 V 3 A 1,1 0 0 0 15,2 Z"
       id="path1" />
    <path
       style="color:#000000;fill:#2c3e50;stroke-linecap:round;stroke-linejoin:round;-inkscape-stroke:none"
       d="M 11,2 C 10.204757,2 9.4412653,2.3165322 8.8789063,2.8789063 8.316551,3.4412465 8,4.2047416 8,5 v 10 c 0,0.795243 0.3165904,1.558748 0.8789063,2.121094 C 9.4412737,17.683506 10.204769,18 11,18 h 7 c 0.795231,0 1.55874,-0.316552 2.121094,-0.878906 C 20.683448,16.55874 21,15.795231 21,15 V 8 A 1.0001,1.0001 0 0 0 20.707031,7.2929687 l -5,-4.9999999 A 1.0001,1.0001 0 0 0 15,2 Z m 0,2 h 3.585938 L 19,8.4140625 V 15 c 0,0.265568 -0.105124,0.519186 -0.292969,0.707031 C 18.519186,15.894876 18.265568,16 18,16 H 11 C 10.734432,16 10.480741,15.894818 10.292969,15.707031 10.105125,15.519178 10,15.265556 10,15 V 5 C 10,4.7343994 10.105165,4.4807678 10.292969,4.2929687 10.480749,4.1051836 10.734444,4 11,4 Z"
       id="path2" />
    <path
       style="color:#000000;fill:#2c3e50;stroke-linecap:round;stroke-linejoin:round;-inkscape-stroke:none"
       d="M 7,6 C 6.2047416,6 5.4412465,6.316551 4.8789062,6.8789062 4.316551,7.4412465 4,8.2047416 4,9 v 10 c 0,0.795243 0.3165904,1.558748 0.8789062,2.121094 C 5.4412548,21.683487 6.2047542,22 7,22 h 7 c 0.795231,0 1.55874,-0.316552 2.121094,-0.878906 C 16.683448,20.55874 17,19.795231 17,19 v -2 a 1,1 0 0 0 -1,-1 1,1 0 0 0 -1,1 v 2 c 0,0.265568 -0.105124,0.519186 -0.292969,0.707031 C 14.519186,19.894876 14.265568,20 14,20 H 7 C 6.7343869,20 6.4807594,19.894837 6.2929687,19.707031 6.1051254,19.519178 6,19.265556 6,19 V 9 C 6,8.7343994 6.1051647,8.4807678 6.2929687,8.2929688 6.4807678,8.1051647 6.7343994,8 7,8 H 9 A 1,1 0 0 0 10,7 1,1 0 0 0 9,6 Z"
       id="path3" />
  </g>
  <defs
     id="defs3">
    <clipPath
       id="clip0_20119_822">
      <rect
         width="24"
         height="24"
         fill="white"
         id="rect3" />
    </clipPath>
  </defs>
</svg>
