<?xml version="1.0" encoding="UTF-8" standalone="no"?>
<svg
   width="24"
   height="24"
   viewBox="0 0 24 24"
   fill="none"
   version="1.1"
   id="svg2"
   sodipodi:docname="file-import_2px.svg"
   inkscape:version="1.3.2 (091e20e, 2023-11-25)"
   xmlns:inkscape="http://www.inkscape.org/namespaces/inkscape"
   xmlns:sodipodi="http://sodipodi.sourceforge.net/DTD/sodipodi-0.dtd"
   xmlns="http://www.w3.org/2000/svg"
   xmlns:svg="http://www.w3.org/2000/svg">
  <sodipodi:namedview
     id="namedview2"
     pagecolor="#505050"
     bordercolor="#eeeeee"
     borderopacity="1"
     inkscape:showpageshadow="0"
     inkscape:pageopacity="0"
     inkscape:pagecheckerboard="0"
     inkscape:deskcolor="#505050"
     inkscape:zoom="9.8333333"
     inkscape:cx="11.949153"
     inkscape:cy="12"
     inkscape:window-width="1504"
     inkscape:window-height="449"
     inkscape:window-x="0"
     inkscape:window-y="25"
     inkscape:window-maximized="0"
     inkscape:current-layer="svg2" />
  <g
     clip-path="url(#clip0_20119_742)"
     id="g2">
    <path
       style="color:#000000;fill:#2c3e50;stroke-linecap:round;stroke-linejoin:round;-inkscape-stroke:none"
       d="m 14,2 a 1,1 0 0 0 -1,1 v 4 c 0,0.5301568 0.211284,1.0393292 0.585938,1.4140625 C 13.960798,8.7889833 14.469944,9 15,9 h 4 A 1,1 0 0 0 20,8 1,1 0 0 0 19,7 H 15 V 3 A 1,1 0 0 0 14,2 Z"
       id="path1" />
    <path
       style="color:#000000;fill:#2c3e50;stroke-linecap:round;stroke-linejoin:round;-inkscape-stroke:none"
       d="M 7,2 C 6.2047416,2 5.4412465,2.316551 4.8789062,2.8789063 4.316551,3.4412465 4,4.2047416 4,5 v 8 a 1,1 0 0 0 1,1 1,1 0 0 0 1,-1 V 5 C 6,4.7343994 6.1051647,4.4807678 6.2929687,4.2929687 6.4807678,4.1051647 6.7343994,4 7,4 h 6.585938 L 18,8.4140625 V 19 c 0,0.265568 -0.105124,0.519186 -0.292969,0.707031 C 17.519186,19.894876 17.265568,20 17,20 h -5.5 a 1,1 0 0 0 -1,1 1,1 0 0 0 1,1 H 17 c 0.795231,0 1.55874,-0.316552 2.121094,-0.878906 C 19.683448,20.55874 20,19.795231 20,19 V 8 A 1.0001,1.0001 0 0 0 19.707031,7.2929687 l -5,-4.9999999 A 1.0001,1.0001 0 0 0 14,2 Z M 6,15 a 1,1 0 0 0 -0.7070313,0.292969 1,1 0 0 0 0,1.414062 L 6.5859375,18 H 2 a 1,1 0 0 0 -1,1 1,1 0 0 0 1,1 h 4.5859375 l -1.2929688,1.292969 a 1,1 0 0 0 0,1.414062 1,1 0 0 0 1.4140625,0 l 3.0000001,-3 A 1,1 0 0 0 10,19 1,1 0 0 0 9.9238281,18.617187 1,1 0 0 0 9.7070313,18.292969 l -3.0000001,-3 A 1,1 0 0 0 6,15 Z"
       id="path2" />
  </g>
  <defs
     id="defs2">
    <clipPath
       id="clip0_20119_742">
      <rect
         width="24"
         height="24"
         fill="white"
         id="rect2" />
    </clipPath>
  </defs>
</svg>
