<?xml version="1.0" encoding="UTF-8" standalone="no"?>
<svg
   width="24"
   height="24"
   viewBox="0 0 24 24"
   fill="none"
   version="1.1"
   id="svg4"
   sodipodi:docname="file-search_2px.svg"
   inkscape:version="1.3.2 (091e20e, 2023-11-25)"
   xmlns:inkscape="http://www.inkscape.org/namespaces/inkscape"
   xmlns:sodipodi="http://sodipodi.sourceforge.net/DTD/sodipodi-0.dtd"
   xmlns="http://www.w3.org/2000/svg"
   xmlns:svg="http://www.w3.org/2000/svg">
  <sodipodi:namedview
     id="namedview4"
     pagecolor="#505050"
     bordercolor="#eeeeee"
     borderopacity="1"
     inkscape:showpageshadow="0"
     inkscape:pageopacity="0"
     inkscape:pagecheckerboard="0"
     inkscape:deskcolor="#505050"
     inkscape:zoom="9.8333333"
     inkscape:cx="11.949153"
     inkscape:cy="12"
     inkscape:window-width="1504"
     inkscape:window-height="449"
     inkscape:window-x="0"
     inkscape:window-y="25"
     inkscape:window-maximized="0"
     inkscape:current-layer="svg4" />
  <g
     clip-path="url(#clip0_20119_430)"
     id="g4">
    <path
       style="color:#000000;fill:#2c3e50;stroke-linecap:round;stroke-linejoin:round;-inkscape-stroke:none"
       d="m 14,2 a 1,1 0 0 0 -1,1 v 4 c 0,0.5301568 0.211284,1.0393292 0.585938,1.4140625 C 13.960798,8.7889833 14.469944,9 15,9 h 4 A 1,1 0 0 0 20,8 1,1 0 0 0 19,7 H 15 V 3 A 1,1 0 0 0 14,2 Z"
       id="path1" />
    <path
       style="color:#000000;fill:#2c3e50;stroke-linecap:round;stroke-linejoin:round;-inkscape-stroke:none"
       d="M 7,2 C 6.2047416,2 5.4412465,2.316551 4.8789062,2.8789063 4.316551,3.4412465 4,4.2047416 4,5 v 14 c 0,0.795243 0.3165904,1.558748 0.8789062,2.121094 C 5.4412548,21.683487 6.2047542,22 7,22 h 5 a 1,1 0 0 0 1,-1 1,1 0 0 0 -1,-1 H 7 C 6.7343869,20 6.4807594,19.894837 6.2929687,19.707031 6.1051254,19.519178 6,19.265556 6,19 V 5 C 6,4.7343994 6.1051647,4.4807678 6.2929687,4.2929687 6.4807678,4.1051647 6.7343994,4 7,4 h 6.585938 L 18,8.4140625 V 12.5 a 1,1 0 0 0 1,1 1,1 0 0 0 1,-1 V 8 A 1.0001,1.0001 0 0 0 19.707031,7.2929687 l -5,-4.9999999 A 1.0001,1.0001 0 0 0 14,2 Z"
       id="path2" />
    <path
       style="color:#000000;fill:#2c3e50;stroke-linecap:round;stroke-linejoin:round;-inkscape-stroke:none"
       d="m 16.5,14 c -0.927856,0 -1.818474,0.369395 -2.474609,1.025391 C 13.369395,15.681526 13,16.572144 13,17.5 c 0,0.927856 0.369395,1.818474 1.025391,2.474609 C 14.681526,20.630605 15.572144,21 16.5,21 17.427856,21 18.318474,20.630605 18.974609,19.974609 19.630605,19.318474 20,18.427856 20,17.5 20,16.572144 19.630605,15.681526 18.974609,15.025391 18.318474,14.369395 17.427856,14 16.5,14 Z m 0,2 c 0.398143,0 0.778884,0.15785 1.060547,0.439453 C 17.84215,16.721116 18,17.101857 18,17.5 18,17.898143 17.84215,18.278884 17.560547,18.560547 17.278884,18.84215 16.898143,19 16.5,19 16.101857,19 15.721116,18.84215 15.439453,18.560547 15.15785,18.278884 15,17.898143 15,17.5 15,17.101857 15.15785,16.721116 15.439453,16.439453 15.721116,16.15785 16.101857,16 16.5,16 Z"
       id="path3" />
    <path
       style="color:#000000;fill:#2c3e50;stroke-linecap:round;stroke-linejoin:round;-inkscape-stroke:none"
       d="m 17.792969,18.792969 a 1,1 0 0 0 0,1.414062 l 2.5,2.5 a 1,1 0 0 0 1.414062,0 1,1 0 0 0 0,-1.414062 l -2.5,-2.5 a 1,1 0 0 0 -1.414062,0 z"
       id="path4" />
  </g>
  <defs
     id="defs4">
    <clipPath
       id="clip0_20119_430">
      <rect
         width="24"
         height="24"
         fill="white"
         id="rect4" />
    </clipPath>
  </defs>
</svg>
