<?xml version="1.0" encoding="UTF-8" standalone="no"?>
<svg
   width="24"
   height="24"
   viewBox="0 0 24 24"
   fill="none"
   version="1.1"
   id="svg6"
   sodipodi:docname="file-type-pdf_2px.svg"
   inkscape:version="1.3.2 (091e20e, 2023-11-25)"
   xmlns:inkscape="http://www.inkscape.org/namespaces/inkscape"
   xmlns:sodipodi="http://sodipodi.sourceforge.net/DTD/sodipodi-0.dtd"
   xmlns="http://www.w3.org/2000/svg"
   xmlns:svg="http://www.w3.org/2000/svg">
  <sodipodi:namedview
     id="namedview6"
     pagecolor="#505050"
     bordercolor="#eeeeee"
     borderopacity="1"
     inkscape:showpageshadow="0"
     inkscape:pageopacity="0"
     inkscape:pagecheckerboard="0"
     inkscape:deskcolor="#505050"
     inkscape:zoom="9.8333333"
     inkscape:cx="11.949153"
     inkscape:cy="12"
     inkscape:window-width="1504"
     inkscape:window-height="449"
     inkscape:window-x="0"
     inkscape:window-y="25"
     inkscape:window-maximized="0"
     inkscape:current-layer="svg6" />
  <g
     clip-path="url(#clip0_20119_780)"
     id="g6">
    <path
       style="color:#000000;fill:#2c3e50;stroke-linecap:round;stroke-linejoin:round;-inkscape-stroke:none"
       d="m 14,2 a 1,1 0 0 0 -1,1 v 4 c 0,0.5301568 0.211284,1.0393292 0.585938,1.4140625 C 13.960798,8.7889833 14.469944,9 15,9 h 4 A 1,1 0 0 0 20,8 1,1 0 0 0 19,7 H 15 V 3 A 1,1 0 0 0 14,2 Z"
       id="path1" />
    <path
       style="color:#000000;fill:#2c3e50;stroke-linecap:round;stroke-linejoin:round;-inkscape-stroke:none"
       d="M 7,2 C 6.2047416,2 5.4412465,2.316551 4.8789062,2.8789063 4.316551,3.4412465 4,4.2047416 4,5 v 7 a 1,1 0 0 0 1,1 1,1 0 0 0 1,-1 V 5 C 6,4.7343994 6.1051647,4.4807678 6.2929687,4.2929687 6.4807678,4.1051647 6.7343994,4 7,4 h 6.585938 L 18,8.4140625 V 12 a 1,1 0 0 0 1,1 1,1 0 0 0 1,-1 V 8 A 1.0001,1.0001 0 0 0 19.707031,7.2929687 l -5,-4.9999999 A 1.0001,1.0001 0 0 0 14,2 Z"
       id="path2" />
    <path
       style="color:#000000;fill:#2c3e50;stroke-linecap:round;stroke-linejoin:round;-inkscape-stroke:none"
       d="m 5,14 a 1.0001,1.0001 0 0 0 -1,1 v 3 3 a 1,1 0 0 0 1,1 1,1 0 0 0 1,-1 V 19 H 6.5 C 7.1625957,19 7.7989736,18.736183 8.2675781,18.267578 8.7361994,17.798957 9,17.162656 9,16.5 9,15.837344 8.7361994,15.201043 8.2675781,14.732422 7.7989736,14.263817 7.1625957,14 6.5,14 Z m 1,2 h 0.5 c 0.1330435,0 0.2595207,0.05249 0.3535156,0.146484 C 6.9474938,16.240463 7,16.367057 7,16.5 7,16.632943 6.9474938,16.759537 6.8535156,16.853516 6.7595207,16.947511 6.6330435,17 6.5,17 H 6 Z"
       id="path3" />
    <path
       style="color:#000000;fill:#2c3e50;stroke-linecap:round;stroke-linejoin:round;-inkscape-stroke:none"
       d="m 17,17 a 1,1 0 0 0 -1,1 1,1 0 0 0 1,1 h 2 a 1,1 0 0 0 1,-1 1,1 0 0 0 -1,-1 z"
       id="path4" />
    <path
       style="color:#000000;fill:#2c3e50;stroke-linecap:round;stroke-linejoin:round;-inkscape-stroke:none"
       d="m 17,14 a 1.0001,1.0001 0 0 0 -1,1 v 6 a 1,1 0 0 0 1,1 1,1 0 0 0 1,-1 v -5 h 2 a 1,1 0 0 0 1,-1 1,1 0 0 0 -1,-1 z"
       id="path5" />
    <path
       style="color:#000000;fill:#2c3e50;stroke-linecap:round;stroke-linejoin:round;-inkscape-stroke:none"
       d="m 11,14 a 1.0001,1.0001 0 0 0 -1,1 v 6 a 1.0001,1.0001 0 0 0 1,1 h 1 c 0.795231,0 1.55874,-0.316552 2.121094,-0.878906 C 14.683448,20.55874 15,19.795231 15,19 V 17 C 15,16.204769 14.683448,15.44126 14.121094,14.878906 13.55874,14.316552 12.795231,14 12,14 Z m 1,2 c 0.265568,0 0.519186,0.105124 0.707031,0.292969 C 12.894876,16.480814 13,16.734432 13,17 v 2 c 0,0.265568 -0.105124,0.519186 -0.292969,0.707031 C 12.519186,19.894876 12.265568,20 12,20 Z"
       id="path6" />
  </g>
  <defs
     id="defs6">
    <clipPath
       id="clip0_20119_780">
      <rect
         width="24"
         height="24"
         fill="white"
         id="rect6" />
    </clipPath>
  </defs>
</svg>
