<?xml version="1.0" encoding="UTF-8" standalone="no"?>
<svg
   width="24"
   height="24"
   viewBox="0 0 24 24"
   fill="none"
   version="1.1"
   id="svg3"
   sodipodi:docname="folder-search_2px.svg"
   inkscape:version="1.3.2 (091e20e, 2023-11-25)"
   xmlns:inkscape="http://www.inkscape.org/namespaces/inkscape"
   xmlns:sodipodi="http://sodipodi.sourceforge.net/DTD/sodipodi-0.dtd"
   xmlns="http://www.w3.org/2000/svg"
   xmlns:svg="http://www.w3.org/2000/svg">
  <sodipodi:namedview
     id="namedview3"
     pagecolor="#505050"
     bordercolor="#eeeeee"
     borderopacity="1"
     inkscape:showpageshadow="0"
     inkscape:pageopacity="0"
     inkscape:pagecheckerboard="0"
     inkscape:deskcolor="#505050"
     inkscape:zoom="9.8333333"
     inkscape:cx="11.949153"
     inkscape:cy="12"
     inkscape:window-width="1504"
     inkscape:window-height="449"
     inkscape:window-x="0"
     inkscape:window-y="25"
     inkscape:window-maximized="0"
     inkscape:current-layer="svg3" />
  <g
     clip-path="url(#clip0_20119_424)"
     id="g3">
    <path
       style="color:#000000;fill:#2c3e50;stroke-linecap:round;stroke-linejoin:round;-inkscape-stroke:none"
       d="M 5,3 C 4.2047416,3 3.4412465,3.316551 2.8789063,3.8789063 2.316551,4.4412465 2,5.2047416 2,6 v 11 c 0,0.795243 0.3165904,1.558748 0.8789063,2.121094 C 3.4412548,19.683487 4.2047542,20 5,20 h 6 a 1,1 0 0 0 1,-1 1,1 0 0 0 -1,-1 H 5 C 4.7343869,18 4.4807594,17.894837 4.2929687,17.707031 4.1051254,17.519178 4,17.265556 4,17 V 6 C 4,5.7343994 4.1051647,5.4807678 4.2929687,5.2929687 4.4807678,5.1051647 4.7343994,5 5,5 H 8.5859375 L 11.292969,7.7070312 A 1.0001,1.0001 0 0 0 12,8 h 7 c 0.265556,0 0.519178,0.1051254 0.707031,0.2929688 C 19.894837,8.4807594 20,8.7343869 20,9 v 2.5 a 1,1 0 0 0 1,1 1,1 0 0 0 1,-1 V 9 C 22,8.2047542 21.683487,7.4412548 21.121094,6.8789062 20.558748,6.3165904 19.795243,6 19,6 H 12.414063 L 9.7070313,3.2929688 A 1.0001,1.0001 0 0 0 9,3 Z"
       id="path1" />
    <path
       style="color:#000000;fill:#2c3e50;stroke-linecap:round;stroke-linejoin:round;-inkscape-stroke:none"
       d="m 18,14 c -1.060472,0 -2.078254,0.422004 -2.828125,1.171875 C 14.422004,15.921746 14,16.939528 14,18 c 0,1.060472 0.422004,2.078254 1.171875,2.828125 C 15.921746,21.577996 16.939528,22 18,22 19.060472,22 20.078254,21.577996 20.828125,20.828125 21.577996,20.078254 22,19.060472 22,18 22,16.939528 21.577996,15.921746 20.828125,15.171875 20.078254,14.422004 19.060472,14 18,14 Z m 0,2 c 0.530726,0 1.038734,0.210609 1.414062,0.585937 C 19.789391,16.961266 20,17.469274 20,18 20,18.530726 19.789391,19.038734 19.414062,19.414062 19.038734,19.789391 18.530726,20 18,20 17.469274,20 16.961266,19.789391 16.585937,19.414062 16.210609,19.038734 16,18.530726 16,18 16,17.469274 16.210609,16.961266 16.585937,16.585937 16.961266,16.210609 17.469274,16 18,16 Z"
       id="path2" />
    <path
       style="color:#000000;fill:#2c3e50;stroke-linecap:round;stroke-linejoin:round;-inkscape-stroke:none"
       d="m 19.492187,19.492187 a 1,1 0 0 0 0,1.414063 l 1.800782,1.800781 a 1,1 0 0 0 1.414062,0 1,1 0 0 0 0,-1.414062 l -1.798828,-1.800782 a 1,1 0 0 0 -1.416016,0 z"
       id="path3" />
  </g>
  <defs
     id="defs3">
    <clipPath
       id="clip0_20119_424">
      <rect
         width="24"
         height="24"
         fill="white"
         id="rect3" />
    </clipPath>
  </defs>
</svg>
