<?xml version="1.0" encoding="UTF-8" standalone="no"?>
<svg
   width="24"
   height="24"
   viewBox="0 0 24 24"
   fill="none"
   version="1.1"
   id="svg5"
   sodipodi:docname="gas-station_2px.svg"
   inkscape:version="1.3.2 (091e20e, 2023-11-25)"
   xmlns:inkscape="http://www.inkscape.org/namespaces/inkscape"
   xmlns:sodipodi="http://sodipodi.sourceforge.net/DTD/sodipodi-0.dtd"
   xmlns="http://www.w3.org/2000/svg"
   xmlns:svg="http://www.w3.org/2000/svg">
  <sodipodi:namedview
     id="namedview5"
     pagecolor="#505050"
     bordercolor="#eeeeee"
     borderopacity="1"
     inkscape:showpageshadow="0"
     inkscape:pageopacity="0"
     inkscape:pagecheckerboard="0"
     inkscape:deskcolor="#505050"
     inkscape:zoom="9.8333333"
     inkscape:cx="11.949153"
     inkscape:cy="12"
     inkscape:window-width="1504"
     inkscape:window-height="449"
     inkscape:window-x="0"
     inkscape:window-y="25"
     inkscape:window-maximized="0"
     inkscape:current-layer="svg5" />
  <g
     clip-path="url(#clip0_20120_1452)"
     id="g5">
    <path
       style="color:#000000;fill:#2c3e50;stroke-linecap:round;stroke-linejoin:round;-inkscape-stroke:none"
       d="m 16.292969,5.2929687 a 1,1 0 0 0 0,1.4140625 L 19,9.4140625 V 16 c 0,0.13301 -0.05254,0.259571 -0.146484,0.353516 C 18.759571,16.44746 18.63301,16.5 18.5,16.5 18.36699,16.5 18.240429,16.44746 18.146484,16.353516 18.05254,16.259571 18,16.13301 18,16 V 13 C 18,12.204769 17.683448,11.44126 17.121094,10.878906 16.55874,10.316552 15.795231,10 15,10 h -1 a 1,1 0 0 0 -1,1 1,1 0 0 0 1,1 h 1 c 0.265568,0 0.519186,0.105124 0.707031,0.292969 C 15.894876,12.480814 16,12.734432 16,13 v 3 c 0,0.662589 0.263767,1.298923 0.732422,1.767578 C 17.201077,18.236233 17.837411,18.5 18.5,18.5 c 0.662589,0 1.298923,-0.263767 1.767578,-0.732422 C 20.736233,17.298923 21,16.662589 21,16 V 9 A 1.0001,1.0001 0 0 0 20.707031,8.2929688 l -3,-3.0000001 a 1,1 0 0 0 -1.414062,0 z"
       id="path1" />
    <path
       style="color:#000000;fill:#2c3e50;stroke-linecap:round;stroke-linejoin:round;-inkscape-stroke:none"
       d="M 6,3 C 5.2047416,3 4.4412465,3.316551 3.8789063,3.8789063 3.316551,4.4412465 3,5.2047416 3,6 v 14 a 1,1 0 0 0 1,1 1,1 0 0 0 1,-1 V 6 C 5,5.7343994 5.1051647,5.4807678 5.2929687,5.2929687 5.4807678,5.1051647 5.7343994,5 6,5 h 6 c 0.265556,0 0.519178,0.1051254 0.707031,0.2929687 C 12.894837,5.4807594 13,5.7343869 13,6 v 14 a 1,1 0 0 0 1,1 1,1 0 0 0 1,-1 V 6 C 15,5.2047542 14.683487,4.4412548 14.121094,3.8789063 13.558748,3.3165904 12.795243,3 12,3 Z"
       id="path2" />
    <path
       style="color:#000000;fill:#2c3e50;stroke-linecap:round;stroke-linejoin:round;-inkscape-stroke:none"
       d="m 3,19 a 1,1 0 0 0 -1,1 1,1 0 0 0 1,1 h 12 a 1,1 0 0 0 1,-1 1,1 0 0 0 -1,-1 z"
       id="path3" />
    <path
       style="color:#000000;fill:#2c3e50;stroke-linecap:round;stroke-linejoin:round;-inkscape-stroke:none"
       d="m 18,6 a 1,1 0 0 0 -1,1 v 1 c 0,0.5301568 0.211284,1.0393292 0.585937,1.4140625 C 17.960798,9.7889833 18.469944,10 19,10 h 1 A 1,1 0 0 0 21,9 1,1 0 0 0 20,8 H 19 V 7 A 1,1 0 0 0 18,6 Z"
       id="path4" />
    <path
       style="color:#000000;fill:#2c3e50;stroke-linecap:round;stroke-linejoin:round;-inkscape-stroke:none"
       d="m 4,10 a 1,1 0 0 0 -1,1 1,1 0 0 0 1,1 h 10 a 1,1 0 0 0 1,-1 1,1 0 0 0 -1,-1 z"
       id="path5" />
  </g>
  <defs
     id="defs5">
    <clipPath
       id="clip0_20120_1452">
      <rect
         width="24"
         height="24"
         fill="white"
         id="rect5" />
    </clipPath>
  </defs>
</svg>
