<?xml version="1.0" encoding="UTF-8" standalone="no"?>
<svg
   width="24"
   height="24"
   viewBox="0 0 24 24"
   fill="none"
   version="1.1"
   id="svg2"
   sodipodi:docname="history_2px.svg"
   inkscape:version="1.3.2 (091e20e, 2023-11-25)"
   xmlns:inkscape="http://www.inkscape.org/namespaces/inkscape"
   xmlns:sodipodi="http://sodipodi.sourceforge.net/DTD/sodipodi-0.dtd"
   xmlns="http://www.w3.org/2000/svg"
   xmlns:svg="http://www.w3.org/2000/svg">
  <sodipodi:namedview
     id="namedview2"
     pagecolor="#505050"
     bordercolor="#eeeeee"
     borderopacity="1"
     inkscape:showpageshadow="0"
     inkscape:pageopacity="0"
     inkscape:pagecheckerboard="0"
     inkscape:deskcolor="#505050"
     inkscape:zoom="9.8333333"
     inkscape:cx="11.949153"
     inkscape:cy="12"
     inkscape:window-width="1504"
     inkscape:window-height="449"
     inkscape:window-x="0"
     inkscape:window-y="25"
     inkscape:window-maximized="0"
     inkscape:current-layer="svg2" />
  <g
     clip-path="url(#clip0_20123_112)"
     id="g2">
    <path
       style="color:#000000;fill:#2c3e50;stroke-linecap:round;stroke-linejoin:round;-inkscape-stroke:none"
       d="m 12,7 a 1,1 0 0 0 -1,1 v 4 a 1.0001,1.0001 0 0 0 0.292969,0.707031 l 2,2 a 1,1 0 0 0 1.414062,0 1,1 0 0 0 0,-1.414062 L 13,11.585938 V 8 A 1,1 0 0 0 12,7 Z"
       id="path1" />
    <path
       style="color:#000000;fill:#2c3e50;stroke-linecap:round;stroke-linejoin:round;-inkscape-stroke:none"
       d="M 11.888672,1.9121094 C 9.4320508,1.9401619 7.0714687,2.8721013 5.2578125,4.5292969 3.4441555,6.1865043 2.3036601,8.4543285 2.0546875,10.898438 a 1,1 0 0 0 0.8945313,1.095703 1,1 0 0 0 1.0957031,-0.892578 c 0.1992269,-1.9557671 1.1112202,-3.7696141 2.5625,-5.0957036 1.4512805,-1.3260814 3.338913,-2.0713026 5.3046871,-2.09375 1.965777,-0.022456 3.870392,0.6800702 5.351563,1.9726562 1.481173,1.2925884 2.433879,3.0844847 2.677734,5.0351564 0.243854,1.950743 -0.238052,3.921569 -1.355469,5.539062 C 17.468452,18.07636 15.795538,19.225298 13.884766,19.6875 11.973923,20.149609 9.9596096,19.892882 8.2265625,18.964844 6.9597705,18.286483 6.0188161,17.211055 5.28125,16 h 2.7675781 a 1,1 0 0 0 1,-1 1,1 0 0 0 -1,-1 h -5 a 1.0001,1.0001 0 0 0 -1,1 v 5 a 1,1 0 0 0 1,1 1,1 0 0 0 1,-1 v -2.216797 c 0.8747426,1.186308 1.9145068,2.238529 3.234375,2.945313 2.1657691,1.159759 4.6823599,1.481787 7.0703129,0.904296 2.387822,-0.577596 4.480441,-2.015889 5.876953,-4.037109 C 21.62685,15.5744 22.230527,13.109728 21.925781,10.671875 21.621037,8.234131 20.429148,5.9923018 18.578125,4.3769531 16.727099,2.7616021 14.345291,1.8840458 11.888672,1.9121094 Z"
       id="path2" />
  </g>
  <defs
     id="defs2">
    <clipPath
       id="clip0_20123_112">
      <rect
         width="24"
         height="24"
         fill="white"
         id="rect2" />
    </clipPath>
  </defs>
</svg>
