<?xml version="1.0" encoding="UTF-8" standalone="no"?>
<svg
   width="24"
   height="24"
   viewBox="0 0 24 24"
   fill="none"
   version="1.1"
   id="svg3"
   sodipodi:docname="home_2px.svg"
   inkscape:version="1.3.2 (091e20e, 2023-11-25)"
   xmlns:inkscape="http://www.inkscape.org/namespaces/inkscape"
   xmlns:sodipodi="http://sodipodi.sourceforge.net/DTD/sodipodi-0.dtd"
   xmlns="http://www.w3.org/2000/svg"
   xmlns:svg="http://www.w3.org/2000/svg">
  <sodipodi:namedview
     id="namedview3"
     pagecolor="#505050"
     bordercolor="#eeeeee"
     borderopacity="1"
     inkscape:showpageshadow="0"
     inkscape:pageopacity="0"
     inkscape:pagecheckerboard="0"
     inkscape:deskcolor="#505050"
     inkscape:zoom="9.8333333"
     inkscape:cx="11.949153"
     inkscape:cy="12"
     inkscape:window-width="1504"
     inkscape:window-height="449"
     inkscape:window-x="0"
     inkscape:window-y="25"
     inkscape:window-maximized="0"
     inkscape:current-layer="svg3" />
  <g
     clip-path="url(#clip0_20120_1446)"
     id="g3">
    <path
       style="color:#000000;fill:#2c3e50;stroke-linecap:round;stroke-linejoin:round;-inkscape-stroke:none"
       d="M 11.292969,2.2929688 2.2929688,11.292969 A 1.0001,1.0001 0 0 0 3,13 H 5 A 1,1 0 0 0 6,12 1,1 0 0 0 5.3457031,11.068359 L 12,4.4140625 18.707031,11.121094 A 1,1 0 0 0 18,12 a 1,1 0 0 0 1,1 h 2 a 1.0001,1.0001 0 0 0 0.707031,-1.707031 l -9,-9.0000002 a 1.0001,1.0001 0 0 0 -1.414062,0 z"
       id="path1" />
    <path
       style="color:#000000;fill:#2c3e50;stroke-linecap:round;stroke-linejoin:round;-inkscape-stroke:none"
       d="m 5,11 a 1,1 0 0 0 -1,1 v 7 c 0,0.795243 0.3165904,1.558748 0.8789062,2.121094 C 5.4412548,21.683487 6.2047542,22 7,22 h 10 c 0.795231,0 1.55874,-0.316552 2.121094,-0.878906 C 19.683448,20.55874 20,19.795231 20,19 v -7 a 1,1 0 0 0 -1,-1 1,1 0 0 0 -1,1 v 7 c 0,0.265568 -0.105124,0.519186 -0.292969,0.707031 C 17.519186,19.894876 17.265568,20 17,20 H 7 C 6.7343869,20 6.4807594,19.894837 6.2929687,19.707031 6.1051254,19.519178 6,19.265556 6,19 V 12 A 1,1 0 0 0 5,11 Z"
       id="path2" />
    <path
       style="color:#000000;fill:#2c3e50;stroke-linecap:round;stroke-linejoin:round;-inkscape-stroke:none"
       d="M 11,12 C 10.204769,12 9.4412737,12.316494 8.8789063,12.878906 8.3165904,13.441252 8,14.204757 8,15 v 6 a 1,1 0 0 0 1,1 1,1 0 0 0 1,-1 v -6 c 0,-0.265556 0.105125,-0.519178 0.292969,-0.707031 C 10.480741,14.105182 10.734432,14 11,14 h 2 c 0.265568,0 0.519186,0.105124 0.707031,0.292969 C 13.894876,14.480814 14,14.734432 14,15 v 6 a 1,1 0 0 0 1,1 1,1 0 0 0 1,-1 V 15 C 16,14.204769 15.683448,13.44126 15.121094,12.878906 14.55874,12.316552 13.795231,12 13,12 Z"
       id="path3" />
  </g>
  <defs
     id="defs3">
    <clipPath
       id="clip0_20120_1446">
      <rect
         width="24"
         height="24"
         fill="white"
         id="rect3" />
    </clipPath>
  </defs>
</svg>
