<svg width="24" height="24" viewBox="0 0 24 24" fill="none" xmlns="http://www.w3.org/2000/svg">
<g clip-path="url(#clip0_17855_34975)">
<mask id="mask0_17855_34975" style="mask-type:luminance" maskUnits="userSpaceOnUse" x="0" y="0" width="24" height="24">
<path d="M24 0H0V24H24V0Z" fill="white"/>
</mask>
<g mask="url(#mask0_17855_34975)">
<path fill-rule="evenodd" clip-rule="evenodd" d="M11.2205 2.22056L2.22049 11.2206C2.11526 11.3255 2.04357 11.4593 2.0145 11.605C1.98543 11.7507 2.00029 11.9018 2.0572 12.039C2.11411 12.1763 2.21051 12.2935 2.33416 12.3759C2.45781 12.4583 2.60315 12.5021 2.75174 12.5018H4.00171V18.7518C4.00171 19.4811 4.29144 20.1806 4.80717 20.6963C5.32289 21.2121 6.02236 21.5018 6.75171 21.5018H8.75171C9.16592 21.5018 9.50171 21.166 9.50171 20.7518V14.7518C9.50171 14.4203 9.63341 14.1023 9.86781 13.8679C10.1022 13.6335 10.4202 13.5018 10.7517 13.5018H12.7517C13.0832 13.5018 13.4012 13.6335 13.6356 13.8679C13.87 14.1023 14.0017 14.4203 14.0017 14.7518V20.7518C14.0017 21.166 14.3375 21.5018 14.7517 21.5018H16.7517C17.481 21.5018 18.1805 21.2121 18.6962 20.6963C19.212 20.1806 19.5017 19.4811 19.5017 18.7518V12.5018H20.7517C20.9003 12.5021 21.0457 12.4583 21.1693 12.3759C21.293 12.2935 21.3894 12.1763 21.4463 12.039C21.5032 11.9018 21.5181 11.7507 21.489 11.605C21.4599 11.4593 21.3882 11.3255 21.283 11.2206L12.283 2.22056C12.2133 2.15065 12.1305 2.09518 12.0393 2.05733C11.9482 2.01948 11.8504 2 11.7517 2C11.653 2 11.5553 2.01948 11.4641 2.05733C11.373 2.09518 11.2902 2.15065 11.2205 2.22056Z" fill="#2C3E50"/>
</g>
</g>
<defs>
<clipPath id="clip0_17855_34975">
<rect width="24" height="24" fill="white"/>
</clipPath>
</defs>
</svg>
