<?xml version="1.0" encoding="UTF-8" standalone="no"?>
<svg
   width="24"
   height="24"
   viewBox="0 0 24 24"
   fill="none"
   version="1.1"
   id="svg4"
   sodipodi:docname="library-plus_2px.svg"
   inkscape:version="1.3.2 (091e20e, 2023-11-25)"
   xmlns:inkscape="http://www.inkscape.org/namespaces/inkscape"
   xmlns:sodipodi="http://sodipodi.sourceforge.net/DTD/sodipodi-0.dtd"
   xmlns="http://www.w3.org/2000/svg"
   xmlns:svg="http://www.w3.org/2000/svg">
  <sodipodi:namedview
     id="namedview4"
     pagecolor="#505050"
     bordercolor="#eeeeee"
     borderopacity="1"
     inkscape:showpageshadow="0"
     inkscape:pageopacity="0"
     inkscape:pagecheckerboard="0"
     inkscape:deskcolor="#505050"
     inkscape:zoom="9.8333333"
     inkscape:cx="11.949153"
     inkscape:cy="12"
     inkscape:window-width="1504"
     inkscape:window-height="449"
     inkscape:window-x="0"
     inkscape:window-y="25"
     inkscape:window-maximized="0"
     inkscape:current-layer="svg4" />
  <g
     clip-path="url(#clip0_20120_1431)"
     id="g4">
    <path
       style="color:#000000;fill:#2c3e50;stroke-linecap:round;stroke-linejoin:round;-inkscape-stroke:none"
       d="M 9.6679688,2 C 8.6958034,2 7.7616402,2.3867973 7.0742187,3.0742188 6.3867973,3.7616402 6,4.6958034 6,5.6679687 v 8.6640623 c 0,0.972147 0.3868116,1.906288 1.0742187,2.59375 C 7.7616308,17.613111 8.695794,18 9.6679688,18 h 8.6640622 c 0.481553,0 0.959476,-0.0951 1.404297,-0.279297 0.445066,-0.184298 0.849033,-0.454639 1.189453,-0.794922 0.340283,-0.34042 0.610624,-0.744387 0.794922,-1.189453 C 21.9049,15.291507 22,14.813584 22,14.332031 V 5.6679687 C 22,5.1863907 21.904911,4.7084921 21.720703,4.2636719 21.536408,3.818655 21.266139,3.4146457 20.925781,3.0742188 20.585279,2.7337718 20.181256,2.4635791 19.736328,2.2792969 19.291434,2.0950286 18.813546,2 18.332031,2 Z m 0,2 h 8.6640622 c 0.218885,0 0.436367,0.043162 0.638672,0.1269531 0.202271,0.083778 0.386118,0.2064556 0.541016,0.3613281 0.154841,0.1548726 0.277623,0.3388932 0.361328,0.5410157 C 19.956839,5.231636 20,5.4490675 20,5.6679687 v 8.6640623 c 0,0.218847 -0.04315,0.436294 -0.126953,0.638672 -0.0837,0.202134 -0.206412,0.386037 -0.361328,0.541016 -0.154979,0.154916 -0.338882,0.277626 -0.541016,0.361328 C 18.768325,15.95685 18.550878,16 18.332031,16 H 9.6679688 C 9.2254849,16 8.8011882,15.824588 8.4882813,15.511719 8.1753694,15.198782 8,14.774483 8,14.332031 V 5.6679687 C 8,5.2254755 8.1753837,4.8011788 8.4882813,4.4882812 8.8011788,4.1753837 9.2254755,4 9.6679688,4 Z"
       id="path1" />
    <path
       style="color:#000000;fill:#2c3e50;stroke-linecap:round;stroke-linejoin:round;-inkscape-stroke:none"
       d="M 4.2753906,6.2949219 A 1,1 0 0 0 3.5175781,6.390625 C 3.0580167,6.6526107 2.6744994,7.0311909 2.4082031,7.4882812 2.1419009,7.945356 2.0012738,8.4651409 2,8.9941406 a 1.0001,1.0001 0 0 0 0,0.00195 V 18.996094 c 0,1.645453 1.3545471,3 3,3 h 10 c 0.546111,0 1.083001,-0.163377 1.490234,-0.458985 0.407234,-0.295607 0.6728,-0.677033 0.882813,-1.054687 a 1,1 0 0 0 -0.386719,-1.359375 1,1 0 0 0 -1.359375,0.388672 c -0.131987,0.237345 -0.240781,0.355607 -0.310547,0.40625 -0.06977,0.05064 -0.112517,0.07813 -0.316406,0.07813 H 5 c -0.5545449,0 -1,-0.445455 -1,-1 V 9 8.9960938 c 0.00109,-0.1756523 0.048265,-0.3481796 0.1367187,-0.5 C 4.2258021,8.3431847 4.3540546,8.2165602 4.5078125,8.1289063 A 1,1 0 0 0 4.8808594,6.765625 1,1 0 0 0 4.2753906,6.2949219 Z"
       id="path2" />
    <path
       style="color:#000000;fill:#2c3e50;stroke-linecap:round;stroke-linejoin:round;-inkscape-stroke:none"
       d="m 11,9 a 1,1 0 0 0 -1,1 1,1 0 0 0 1,1 h 6 a 1,1 0 0 0 1,-1 1,1 0 0 0 -1,-1 z"
       id="path3" />
    <path
       style="color:#000000;fill:#2c3e50;stroke-linecap:round;stroke-linejoin:round;-inkscape-stroke:none"
       d="m 14,6 a 1,1 0 0 0 -1,1 v 6 a 1,1 0 0 0 1,1 1,1 0 0 0 1,-1 V 7 A 1,1 0 0 0 14,6 Z"
       id="path4" />
  </g>
  <defs
     id="defs4">
    <clipPath
       id="clip0_20120_1431">
      <rect
         width="24"
         height="24"
         fill="white"
         id="rect4" />
    </clipPath>
  </defs>
</svg>
