<?xml version="1.0" encoding="UTF-8" standalone="no"?>
<svg
   width="24"
   height="24"
   viewBox="0 0 24 24"
   fill="none"
   version="1.1"
   id="svg6"
   sodipodi:docname="list-details_2px.svg"
   inkscape:version="1.3.2 (091e20e, 2023-11-25)"
   xmlns:inkscape="http://www.inkscape.org/namespaces/inkscape"
   xmlns:sodipodi="http://sodipodi.sourceforge.net/DTD/sodipodi-0.dtd"
   xmlns="http://www.w3.org/2000/svg"
   xmlns:svg="http://www.w3.org/2000/svg">
  <sodipodi:namedview
     id="namedview6"
     pagecolor="#505050"
     bordercolor="#eeeeee"
     borderopacity="1"
     inkscape:showpageshadow="0"
     inkscape:pageopacity="0"
     inkscape:pagecheckerboard="0"
     inkscape:deskcolor="#505050"
     inkscape:zoom="9.8333333"
     inkscape:cx="11.949153"
     inkscape:cy="12"
     inkscape:window-width="1504"
     inkscape:window-height="449"
     inkscape:window-x="0"
     inkscape:window-y="25"
     inkscape:window-maximized="0"
     inkscape:current-layer="svg6" />
  <g
     clip-path="url(#clip0_20120_1241)"
     id="g6">
    <path
       style="color:#000000;fill:#2c3e50;stroke-linecap:round;stroke-linejoin:round;-inkscape-stroke:none"
       d="m 13,4 a 1,1 0 0 0 -1,1 1,1 0 0 0 1,1 h 8 A 1,1 0 0 0 22,5 1,1 0 0 0 21,4 Z"
       id="path1" />
    <path
       style="color:#000000;fill:#2c3e50;stroke-linecap:round;stroke-linejoin:round;-inkscape-stroke:none"
       d="m 13,8 a 1,1 0 0 0 -1,1 1,1 0 0 0 1,1 h 5 A 1,1 0 0 0 19,9 1,1 0 0 0 18,8 Z"
       id="path2" />
    <path
       style="color:#000000;fill:#2c3e50;stroke-linecap:round;stroke-linejoin:round;-inkscape-stroke:none"
       d="m 13,14 a 1,1 0 0 0 -1,1 1,1 0 0 0 1,1 h 8 a 1,1 0 0 0 1,-1 1,1 0 0 0 -1,-1 z"
       id="path3" />
    <path
       style="color:#000000;fill:#2c3e50;stroke-linecap:round;stroke-linejoin:round;-inkscape-stroke:none"
       d="m 13,18 a 1,1 0 0 0 -1,1 1,1 0 0 0 1,1 h 5 a 1,1 0 0 0 1,-1 1,1 0 0 0 -1,-1 z"
       id="path4" />
    <path
       style="color:#000000;fill:#2c3e50;stroke-linecap:round;stroke-linejoin:round;-inkscape-stroke:none"
       d="M 4,3 C 3.4699438,3 2.9607273,3.2111677 2.5859375,3.5859375 2.2111677,3.9607273 2,4.4699438 2,5 V 9 C 2,9.5300562 2.2111677,10.039273 2.5859375,10.414063 2.9607273,10.788832 3.4699438,11 4,11 H 8 C 8.5300562,11 9.0392727,10.788832 9.4140625,10.414063 9.7888323,10.039273 10,9.5300562 10,9 V 5 C 10,4.4699438 9.7888323,3.9607273 9.4140625,3.5859375 9.0392727,3.2111677 8.5300562,3 8,3 Z M 4,5 H 8 V 9 H 4 Z"
       id="path5" />
    <path
       style="color:#000000;fill:#2c3e50;stroke-linecap:round;stroke-linejoin:round;-inkscape-stroke:none"
       d="M 4,13 C 3.4698432,13 2.9606708,13.211284 2.5859375,13.585938 2.2110167,13.960798 2,14.469944 2,15 v 4 c 0,0.530056 0.2110167,1.039202 0.5859375,1.414062 C 2.9606708,20.788716 3.4698432,21 4,21 H 8 C 8.5301568,21 9.0393292,20.788716 9.4140625,20.414062 9.7889833,20.039202 10,19.530056 10,19 V 15 C 10,14.469944 9.7889833,13.960798 9.4140625,13.585938 9.0393292,13.211284 8.5301568,13 8,13 Z m 0,2 h 4 v 4 H 4 Z"
       id="path6" />
  </g>
  <defs
     id="defs6">
    <clipPath
       id="clip0_20120_1241">
      <rect
         width="24"
         height="24"
         fill="white"
         id="rect6" />
    </clipPath>
  </defs>
</svg>
