<?xml version="1.0" encoding="UTF-8" standalone="no"?>
<svg
   width="24"
   height="24"
   viewBox="0 0 24 24"
   fill="none"
   version="1.1"
   id="svg6"
   sodipodi:docname="list-check_2px.svg"
   inkscape:version="1.3.2 (091e20e, 2023-11-25)"
   xmlns:inkscape="http://www.inkscape.org/namespaces/inkscape"
   xmlns:sodipodi="http://sodipodi.sourceforge.net/DTD/sodipodi-0.dtd"
   xmlns="http://www.w3.org/2000/svg"
   xmlns:svg="http://www.w3.org/2000/svg">
  <sodipodi:namedview
     id="namedview6"
     pagecolor="#505050"
     bordercolor="#eeeeee"
     borderopacity="1"
     inkscape:showpageshadow="0"
     inkscape:pageopacity="0"
     inkscape:pagecheckerboard="0"
     inkscape:deskcolor="#505050"
     inkscape:zoom="9.8333333"
     inkscape:cx="11.949153"
     inkscape:cy="12"
     inkscape:window-width="1504"
     inkscape:window-height="449"
     inkscape:window-x="0"
     inkscape:window-y="25"
     inkscape:window-maximized="0"
     inkscape:current-layer="svg6" />
  <g
     clip-path="url(#clip0_20120_1250)"
     id="g6">
    <path
       style="color:#000000;fill:#2c3e50;stroke-linecap:round;stroke-linejoin:round;-inkscape-stroke:none"
       d="M 7.5,3.5 A 1,1 0 0 0 6.7929687,3.7929688 L 5,5.5859375 4.2070312,4.7929687 a 1,1 0 0 0 -1.4140624,0 1,1 0 0 0 0,1.4140625 l 1.4999999,1.5 a 1.0001,1.0001 0 0 0 1.4140625,0 l 2.5000001,-2.5 a 1,1 0 0 0 0,-1.4140624 A 1,1 0 0 0 7.5,3.5 Z"
       id="path1" />
    <path
       style="color:#000000;fill:#2c3e50;stroke-linecap:round;stroke-linejoin:round;-inkscape-stroke:none"
       d="M 7.5,9.5 A 1,1 0 0 0 6.7929687,9.7929688 L 5,11.585938 4.2070312,10.792969 a 1,1 0 0 0 -1.4140624,0 1,1 0 0 0 0,1.414062 l 1.4999999,1.5 a 1.0001,1.0001 0 0 0 1.4140625,0 l 2.5000001,-2.5 a 1,1 0 0 0 0,-1.4140622 A 1,1 0 0 0 7.5,9.5 Z"
       id="path2" />
    <path
       style="color:#000000;fill:#2c3e50;stroke-linecap:round;stroke-linejoin:round;-inkscape-stroke:none"
       d="M 7.5,15.5 A 1,1 0 0 0 6.7929687,15.792969 L 5,17.585937 4.2070312,16.792969 a 1,1 0 0 0 -1.4140624,0 1,1 0 0 0 0,1.414062 l 1.4999999,1.5 a 1.0001,1.0001 0 0 0 1.4140625,0 l 2.5000001,-2.5 a 1,1 0 0 0 0,-1.414062 A 1,1 0 0 0 7.5,15.5 Z"
       id="path3" />
    <path
       style="color:#000000;fill:#2c3e50;stroke-linecap:round;stroke-linejoin:round;-inkscape-stroke:none"
       d="m 11,5 a 1,1 0 0 0 -1,1 1,1 0 0 0 1,1 h 9 A 1,1 0 0 0 21,6 1,1 0 0 0 20,5 Z"
       id="path4" />
    <path
       style="color:#000000;fill:#2c3e50;stroke-linecap:round;stroke-linejoin:round;-inkscape-stroke:none"
       d="m 11,11 a 1,1 0 0 0 -1,1 1,1 0 0 0 1,1 h 9 a 1,1 0 0 0 1,-1 1,1 0 0 0 -1,-1 z"
       id="path5" />
    <path
       style="color:#000000;fill:#2c3e50;stroke-linecap:round;stroke-linejoin:round;-inkscape-stroke:none"
       d="m 11,17 a 1,1 0 0 0 -1,1 1,1 0 0 0 1,1 h 9 a 1,1 0 0 0 1,-1 1,1 0 0 0 -1,-1 z"
       id="path6" />
  </g>
  <defs
     id="defs6">
    <clipPath
       id="clip0_20120_1250">
      <rect
         width="24"
         height="24"
         fill="white"
         id="rect6" />
    </clipPath>
  </defs>
</svg>
