<?xml version="1.0" encoding="UTF-8" standalone="no"?>
<svg
   width="24"
   height="24"
   viewBox="0 0 24 24"
   fill="none"
   version="1.1"
   id="svg5"
   sodipodi:docname="list-search_2px.svg"
   inkscape:version="1.3.2 (091e20e, 2023-11-25)"
   xmlns:inkscape="http://www.inkscape.org/namespaces/inkscape"
   xmlns:sodipodi="http://sodipodi.sourceforge.net/DTD/sodipodi-0.dtd"
   xmlns="http://www.w3.org/2000/svg"
   xmlns:svg="http://www.w3.org/2000/svg">
  <sodipodi:namedview
     id="namedview5"
     pagecolor="#505050"
     bordercolor="#eeeeee"
     borderopacity="1"
     inkscape:showpageshadow="0"
     inkscape:pageopacity="0"
     inkscape:pagecheckerboard="0"
     inkscape:deskcolor="#505050"
     inkscape:zoom="9.8333333"
     inkscape:cx="11.949153"
     inkscape:cy="12"
     inkscape:window-width="1504"
     inkscape:window-height="449"
     inkscape:window-x="0"
     inkscape:window-y="25"
     inkscape:window-maximized="0"
     inkscape:current-layer="svg5" />
  <g
     clip-path="url(#clip0_20119_416)"
     id="g5">
    <path
       style="color:#000000;fill:#2c3e50;stroke-linecap:round;stroke-linejoin:round;-inkscape-stroke:none"
       d="m 15,10 c -1.325705,0 -2.597772,0.527335 -3.535156,1.464844 C 10.527335,12.402228 10,13.674295 10,15 c 0,1.325705 0.527335,2.597772 1.464844,3.535156 C 12.402228,19.472665 13.674295,20 15,20 16.325705,20 17.597772,19.472665 18.535156,18.535156 19.472665,17.597772 20,16.325705 20,15 20,13.674295 19.472665,12.402228 18.535156,11.464844 17.597772,10.527335 16.325705,10 15,10 Z m 0,2 c 0.796093,0 1.558279,0.316017 2.121094,0.878906 C 17.683983,13.441721 18,14.203907 18,15 18,15.796093 17.683983,16.558279 17.121094,17.121094 16.558279,17.683983 15.796093,18 15,18 14.203907,18 13.441721,17.683983 12.878906,17.121094 12.316017,16.558279 12,15.796093 12,15 12,14.203907 12.316017,13.441721 12.878906,12.878906 13.441721,12.316017 14.203907,12 15,12 Z"
       id="path1" />
    <path
       style="color:#000000;fill:#2c3e50;stroke-linecap:round;stroke-linejoin:round;-inkscape-stroke:none"
       d="m 17.792969,17.792969 a 1,1 0 0 0 0,1.414062 l 2.5,2.5 a 1,1 0 0 0 1.414062,0 1,1 0 0 0 0,-1.414062 l -2.5,-2.5 a 1,1 0 0 0 -1.414062,0 z"
       id="path2" />
    <path
       style="color:#000000;fill:#2c3e50;stroke-linecap:round;stroke-linejoin:round;-inkscape-stroke:none"
       d="M 4,5 A 1,1 0 0 0 3,6 1,1 0 0 0 4,7 H 20 A 1,1 0 0 0 21,6 1,1 0 0 0 20,5 Z"
       id="path3" />
    <path
       style="color:#000000;fill:#2c3e50;stroke-linecap:round;stroke-linejoin:round;-inkscape-stroke:none"
       d="m 4,11 a 1,1 0 0 0 -1,1 1,1 0 0 0 1,1 H 8 A 1,1 0 0 0 9,12 1,1 0 0 0 8,11 Z"
       id="path4" />
    <path
       style="color:#000000;fill:#2c3e50;stroke-linecap:round;stroke-linejoin:round;-inkscape-stroke:none"
       d="m 4,17 a 1,1 0 0 0 -1,1 1,1 0 0 0 1,1 H 8 A 1,1 0 0 0 9,18 1,1 0 0 0 8,17 Z"
       id="path5" />
  </g>
  <defs
     id="defs5">
    <clipPath
       id="clip0_20119_416">
      <rect
         width="24"
         height="24"
         fill="white"
         id="rect5" />
    </clipPath>
  </defs>
</svg>
