<?xml version="1.0" encoding="UTF-8" standalone="no"?>
<svg
   width="24"
   height="24"
   viewBox="0 0 24 24"
   fill="none"
   version="1.1"
   id="svg3"
   sodipodi:docname="location-x_2px.svg"
   inkscape:version="1.3.2 (091e20e, 2023-11-25)"
   xmlns:inkscape="http://www.inkscape.org/namespaces/inkscape"
   xmlns:sodipodi="http://sodipodi.sourceforge.net/DTD/sodipodi-0.dtd"
   xmlns="http://www.w3.org/2000/svg"
   xmlns:svg="http://www.w3.org/2000/svg">
  <sodipodi:namedview
     id="namedview3"
     pagecolor="#505050"
     bordercolor="#eeeeee"
     borderopacity="1"
     inkscape:showpageshadow="0"
     inkscape:pageopacity="0"
     inkscape:pagecheckerboard="0"
     inkscape:deskcolor="#505050"
     inkscape:zoom="9.8333333"
     inkscape:cx="11.949153"
     inkscape:cy="12"
     inkscape:window-width="1504"
     inkscape:window-height="449"
     inkscape:window-x="0"
     inkscape:window-y="25"
     inkscape:window-maximized="0"
     inkscape:current-layer="svg3" />
  <g
     clip-path="url(#clip0_20120_1159)"
     id="g3">
    <path
       style="color:#000000;fill:#2c3e50;stroke-linecap:round;stroke-linejoin:round;-inkscape-stroke:none"
       d="m 20.660156,2.0585938 -17.9999997,6.5 a 1.0001,1.0001 0 0 0 -0.076172,0.033203 C 2.3142091,8.7154134 2.0840803,8.9123774 1.9238281,9.1621094 1.7635699,9.4118225 1.6796875,9.7032637 1.6796875,10 c 0,0.296753 0.084124,0.586404 0.2441406,0.835938 a 1.0001,1.0001 0 0 0 0.00195,0.002 c 0.1603199,0.249724 0.388832,0.446796 0.6582032,0.570312 l -0.03125,-0.01367 6.7011719,3.351563 2.7480467,5.492187 a 1,1 0 0 0 1.341797,0.447266 1,1 0 0 0 0.447266,-1.339844 L 10.894531,13.552734 A 1.0001,1.0001 0 0 0 10.447266,13.105469 L 4.3730469,10.068359 19.333984,4.6660156 16.572266,12.316406 a 1,1 0 0 0 0.601562,1.28125 1,1 0 0 0 1.279297,-0.601562 l 3.488281,-9.6562502 a 1.0001,1.0001 0 0 0 -1.28125,-1.28125 z"
       id="path1" />
    <path
       style="color:#000000;fill:#2c3e50;stroke-linecap:round;stroke-linejoin:round;-inkscape-stroke:none"
       d="m 15.792969,15.792969 a 1,1 0 0 0 0,1.414062 l 5,5 a 1,1 0 0 0 1.414062,0 1,1 0 0 0 0,-1.414062 l -5,-5 a 1,1 0 0 0 -1.414062,0 z"
       id="path2" />
    <path
       style="color:#000000;fill:#2c3e50;stroke-linecap:round;stroke-linejoin:round;-inkscape-stroke:none"
       d="m 20.792969,15.792969 -5,5 a 1,1 0 0 0 0,1.414062 1,1 0 0 0 1.414062,0 l 5,-5 a 1,1 0 0 0 0,-1.414062 1,1 0 0 0 -1.414062,0 z"
       id="path3" />
  </g>
  <defs
     id="defs3">
    <clipPath
       id="clip0_20120_1159">
      <rect
         width="24"
         height="24"
         fill="white"
         id="rect3" />
    </clipPath>
  </defs>
</svg>
