<?xml version="1.0" encoding="UTF-8" standalone="no"?>
<svg
   width="24"
   height="24"
   viewBox="0 0 24 24"
   fill="none"
   version="1.1"
   id="svg2"
   sodipodi:docname="location-off_2px.svg"
   inkscape:version="1.3.2 (091e20e, 2023-11-25)"
   xmlns:inkscape="http://www.inkscape.org/namespaces/inkscape"
   xmlns:sodipodi="http://sodipodi.sourceforge.net/DTD/sodipodi-0.dtd"
   xmlns="http://www.w3.org/2000/svg"
   xmlns:svg="http://www.w3.org/2000/svg">
  <sodipodi:namedview
     id="namedview2"
     pagecolor="#505050"
     bordercolor="#eeeeee"
     borderopacity="1"
     inkscape:showpageshadow="0"
     inkscape:pageopacity="0"
     inkscape:pagecheckerboard="0"
     inkscape:deskcolor="#505050"
     inkscape:zoom="9.8333333"
     inkscape:cx="11.949153"
     inkscape:cy="12"
     inkscape:window-width="1504"
     inkscape:window-height="449"
     inkscape:window-x="0"
     inkscape:window-y="25"
     inkscape:window-maximized="0"
     inkscape:current-layer="svg2" />
  <g
     clip-path="url(#clip0_20120_1165)"
     id="g2">
    <path
       style="color:#000000;fill:#2c3e50;stroke-linecap:round;stroke-linejoin:round;-inkscape-stroke:none"
       d="M 20.660156,2.0585938 10.380859,5.7714844 A 1,1 0 0 0 9.7792969,7.0507812 1,1 0 0 0 11.060547,7.6523437 l 8.273437,-2.9863281 -2.998047,8.3066404 a 1,1 0 0 0 0.59961,1.28125 1,1 0 0 0 1.28125,-0.601562 L 21.941406,3.3398438 a 1.0001,1.0001 0 0 0 -1.28125,-1.28125 z M 7.4355469,6.8359375 2.6601563,8.5585938 a 1.0001,1.0001 0 0 0 -0.076172,0.033203 C 2.3142091,8.7154134 2.0840803,8.9123774 1.9238281,9.1621094 1.7635699,9.4118225 1.6796875,9.7032637 1.6796875,10 c 0,0.296753 0.084124,0.586404 0.2441406,0.835938 a 1.0001,1.0001 0 0 0 0.00195,0.002 c 0.1603199,0.249724 0.388832,0.446796 0.6582032,0.570312 l -0.03125,-0.01367 6.7011719,3.351563 3.3359377,6.669922 c 0.123706,0.27029 0.322636,0.499841 0.572265,0.660156 a 1.0001,1.0001 0 0 0 0.002,0 c 0.249044,0.159478 0.538804,0.24414 0.835937,0.24414 0.297133,0 0.586636,-0.08432 0.835938,-0.24414 a 1.0001,1.0001 0 0 0 0.002,0 c 0.250223,-0.160515 0.446862,-0.39104 0.570312,-0.660156 a 1.0001,1.0001 0 0 0 0.0332,-0.07617 l 1.71875,-4.761719 a 1,1 0 0 0 -0.599609,-1.28125 1,1 0 0 0 -1.28125,0.601563 l -1.345703,3.730468 -3.039063,-6.076172 A 1.0001,1.0001 0 0 0 10.447266,13.105469 L 4.3730469,10.068359 8.1152344,8.7167969 A 1,1 0 0 0 8.7148438,7.4355469 1,1 0 0 0 7.4355469,6.8359375 Z"
       id="path1" />
    <path
       style="color:#000000;fill:#2c3e50;stroke-linecap:round;stroke-linejoin:round;-inkscape-stroke:none"
       d="m 3,2 a 1,1 0 0 0 -0.7070312,0.2929688 1,1 0 0 0 0,1.4140625 L 20.292969,21.707031 a 1,1 0 0 0 1.414062,0 1,1 0 0 0 0,-1.414062 L 3.7070313,2.2929688 A 1,1 0 0 0 3,2 Z"
       id="path2" />
  </g>
  <defs
     id="defs2">
    <clipPath
       id="clip0_20120_1165">
      <rect
         width="24"
         height="24"
         fill="white"
         id="rect2" />
    </clipPath>
  </defs>
</svg>
