<?xml version="1.0" encoding="UTF-8" standalone="no"?>
<svg
   width="24"
   height="24"
   viewBox="0 0 24 24"
   fill="none"
   version="1.1"
   id="svg1"
   sodipodi:docname="location_2px.svg"
   inkscape:version="1.3.2 (091e20e, 2023-11-25)"
   xmlns:inkscape="http://www.inkscape.org/namespaces/inkscape"
   xmlns:sodipodi="http://sodipodi.sourceforge.net/DTD/sodipodi-0.dtd"
   xmlns="http://www.w3.org/2000/svg"
   xmlns:svg="http://www.w3.org/2000/svg">
  <sodipodi:namedview
     id="namedview1"
     pagecolor="#505050"
     bordercolor="#eeeeee"
     borderopacity="1"
     inkscape:showpageshadow="0"
     inkscape:pageopacity="0"
     inkscape:pagecheckerboard="0"
     inkscape:deskcolor="#505050"
     inkscape:zoom="9.8333333"
     inkscape:cx="11.949153"
     inkscape:cy="12"
     inkscape:window-width="1504"
     inkscape:window-height="449"
     inkscape:window-x="0"
     inkscape:window-y="25"
     inkscape:window-maximized="0"
     inkscape:current-layer="svg1" />
  <g
     clip-path="url(#clip0_20120_1170)"
     id="g1">
    <path
       style="color:#000000;fill:#2c3e50;stroke-linecap:round;stroke-linejoin:round;-inkscape-stroke:none"
       d="m 20.660156,2.0585938 -17.9999997,6.5 a 1.0001,1.0001 0 0 0 -0.076172,0.033203 C 2.3142091,8.7154134 2.0840803,8.9123774 1.9238281,9.1621094 1.7635699,9.4118225 1.6796875,9.7032637 1.6796875,10 c 0,0.296753 0.084124,0.586404 0.2441406,0.835938 a 1.0001,1.0001 0 0 0 0.00195,0.002 c 0.1603199,0.249724 0.388832,0.446796 0.6582032,0.570312 l -0.03125,-0.01367 6.7011719,3.351563 3.3359377,6.669922 c 0.123706,0.27029 0.322636,0.499841 0.572265,0.660156 a 1.0001,1.0001 0 0 0 0.002,0 c 0.249044,0.159478 0.538804,0.24414 0.835937,0.24414 0.297133,0 0.586636,-0.08432 0.835938,-0.24414 a 1.0001,1.0001 0 0 0 0.002,0 c 0.250223,-0.160515 0.446862,-0.39104 0.570312,-0.660156 a 1.0001,1.0001 0 0 0 0.0332,-0.07617 l 6.5,-18.0000002 a 1.0001,1.0001 0 0 0 -1.28125,-1.28125 z m -1.326172,2.6074218 -5.402343,14.9609374 -3.03711,-6.074219 a 1.0001,1.0001 0 0 0 -0.447265,-0.447265 l -6.0742191,-3.03711 z"
       id="path1" />
  </g>
  <defs
     id="defs1">
    <clipPath
       id="clip0_20120_1170">
      <rect
         width="24"
         height="24"
         fill="white"
         id="rect1" />
    </clipPath>
  </defs>
</svg>
