<svg width="24" height="24" viewBox="0 0 24 24" fill="none" xmlns="http://www.w3.org/2000/svg">
<g clip-path="url(#clip0_17718_452)">
<mask id="mask0_17718_452" style="mask-type:luminance" maskUnits="userSpaceOnUse" x="0" y="0" width="24" height="24">
<path d="M24 0H0V24H24V0Z" fill="white"/>
</mask>
<g mask="url(#mask0_17718_452)">
<path d="M5 3.25C4.27095 3.25 3.57021 3.53915 3.05469 4.05469C2.53915 4.57021 2.25 5.27095 2.25 6V18C2.25 18.729 2.53918 19.4298 3.05469 19.9453C3.57022 20.4609 4.27096 20.75 5 20.75H12C12.729 20.75 13.4298 20.4609 13.9453 19.9453C14.4609 19.4298 14.75 18.729 14.75 18V16C14.75 15.8011 14.671 15.6103 14.5303 15.4697C14.3897 15.329 14.1989 15.25 14 15.25C13.8011 15.25 13.6103 15.329 13.4697 15.4697C13.329 15.6103 13.25 15.8011 13.25 16V18C13.25 18.3318 13.1194 18.6501 12.8848 18.8848C12.6501 19.1194 12.3318 19.25 12 19.25H5C4.66818 19.25 4.34984 19.1194 4.11523 18.8848C3.88058 18.6501 3.75 18.3318 3.75 18V6C3.75 5.66819 3.88061 5.34985 4.11523 5.11523C4.34985 4.88061 4.66819 4.75 5 4.75H12C12.3318 4.75 12.6501 4.88058 12.8848 5.11523C13.1194 5.34984 13.25 5.66818 13.25 6V8C13.25 8.19891 13.329 8.38968 13.4697 8.53033C13.6103 8.67098 13.8011 8.75 14 8.75C14.1989 8.75 14.3897 8.67098 14.5303 8.53033C14.671 8.38968 14.75 8.19891 14.75 8V6C14.75 5.27096 14.4609 4.57022 13.9453 4.05469C13.4298 3.53918 12.729 3.25 12 3.25H5Z" fill="#2C3E50"/>
<path d="M18 8.25C17.9014 8.24976 17.8038 8.26896 17.7126 8.30649C17.6214 8.34403 17.5386 8.39916 17.4688 8.46875C17.3988 8.53843 17.3434 8.62122 17.3055 8.71239C17.2676 8.80355 17.2482 8.90129 17.2482 9C17.2482 9.09871 17.2676 9.19645 17.3055 9.28762C17.3434 9.37878 17.3988 9.46157 17.4688 9.53125L19.1875 11.25H9C8.80109 11.25 8.61032 11.329 8.46967 11.4697C8.32902 11.6103 8.25 11.8011 8.25 12C8.25 12.1989 8.32902 12.3897 8.46967 12.5303C8.61032 12.671 8.80109 12.75 9 12.75H21C21.1486 12.7503 21.2939 12.7065 21.4176 12.6241C21.5412 12.5417 21.6376 12.4245 21.6945 12.2872C21.7514 12.15 21.7663 11.9989 21.7372 11.8532C21.7082 11.7075 21.6365 11.5737 21.5312 11.4688L18.5312 8.46875C18.4614 8.39916 18.3786 8.34403 18.2874 8.30649C18.1962 8.26896 18.0986 8.24976 18 8.25Z" fill="#2C3E50"/>
<path d="M20.9999 11.25C20.9013 11.2498 20.8036 11.269 20.7125 11.3065C20.6213 11.344 20.5385 11.3992 20.4686 11.4688L17.4686 14.4688C17.3987 14.5384 17.3432 14.6212 17.3054 14.7124C17.2675 14.8036 17.248 14.9013 17.248 15C17.248 15.0987 17.2675 15.1965 17.3054 15.2876C17.3432 15.3788 17.3987 15.4616 17.4686 15.5313C17.5383 15.6012 17.6211 15.6567 17.7123 15.6945C17.8034 15.7324 17.9012 15.7518 17.9999 15.7518C18.0986 15.7518 18.1963 15.7324 18.2875 15.6945C18.3787 15.6567 18.4615 15.6012 18.5311 15.5313L21.5311 12.5313C21.6011 12.4616 21.6565 12.3788 21.6944 12.2876C21.7322 12.1965 21.7517 12.0987 21.7517 12C21.7517 11.9013 21.7322 11.8036 21.6944 11.7124C21.6565 11.6212 21.6011 11.5384 21.5311 11.4688C21.4613 11.3992 21.3784 11.344 21.2873 11.3065C21.1961 11.269 21.0985 11.2498 20.9999 11.25Z" fill="#2C3E50"/>
</g>
</g>
<defs>
<clipPath id="clip0_17718_452">
<rect width="24" height="24" fill="white"/>
</clipPath>
</defs>
</svg>
