<?xml version="1.0" encoding="UTF-8" standalone="no"?>
<svg
   width="24"
   height="24"
   viewBox="0 0 24 24"
   fill="none"
   version="1.1"
   id="svg3"
   sodipodi:docname="logout_2px.svg"
   inkscape:version="1.3.2 (091e20e, 2023-11-25)"
   xmlns:inkscape="http://www.inkscape.org/namespaces/inkscape"
   xmlns:sodipodi="http://sodipodi.sourceforge.net/DTD/sodipodi-0.dtd"
   xmlns="http://www.w3.org/2000/svg"
   xmlns:svg="http://www.w3.org/2000/svg">
  <sodipodi:namedview
     id="namedview3"
     pagecolor="#505050"
     bordercolor="#eeeeee"
     borderopacity="1"
     inkscape:showpageshadow="0"
     inkscape:pageopacity="0"
     inkscape:pagecheckerboard="0"
     inkscape:deskcolor="#505050"
     inkscape:zoom="9.8333333"
     inkscape:cx="11.949153"
     inkscape:cy="12"
     inkscape:window-width="1504"
     inkscape:window-height="449"
     inkscape:window-x="0"
     inkscape:window-y="25"
     inkscape:window-maximized="0"
     inkscape:current-layer="svg3" />
  <g
     clip-path="url(#clip0_20122_443)"
     id="g3">
    <path
       style="color:#000000;fill:#2c3e50;stroke-linecap:round;stroke-linejoin:round;-inkscape-stroke:none"
       d="M 5,3 C 4.2047416,3 3.4412465,3.316551 2.8789063,3.8789063 2.316551,4.4412465 2,5.2047416 2,6 v 12 c 0,0.795243 0.3165904,1.558748 0.8789063,2.121094 C 3.4412548,20.683487 4.2047542,21 5,21 h 7 c 0.795231,0 1.55874,-0.316552 2.121094,-0.878906 C 14.683448,19.55874 15,18.795231 15,18 v -2 a 1,1 0 0 0 -1,-1 1,1 0 0 0 -1,1 v 2 c 0,0.265568 -0.105124,0.519186 -0.292969,0.707031 C 12.519186,18.894876 12.265568,19 12,19 H 5 C 4.7343869,19 4.4807594,18.894837 4.2929687,18.707031 4.1051254,18.519178 4,18.265556 4,18 V 6 C 4,5.7343994 4.1051647,5.4807678 4.2929687,5.2929687 4.4807678,5.1051647 4.7343994,5 5,5 h 7 c 0.265556,0 0.519178,0.1051254 0.707031,0.2929687 C 12.894837,5.4807594 13,5.7343869 13,6 v 2 a 1,1 0 0 0 1,1 1,1 0 0 0 1,-1 V 6 C 15,5.2047542 14.683487,4.4412548 14.121094,3.8789063 13.558748,3.3165904 12.795243,3 12,3 Z"
       id="path1" />
    <path
       style="color:#000000;fill:#2c3e50;stroke-linecap:round;stroke-linejoin:round;-inkscape-stroke:none"
       d="m 17.292969,8.2929688 a 1,1 0 0 0 0,1.4140625 L 18.585937,11 H 9 a 1,1 0 0 0 -1,1 1,1 0 0 0 1,1 h 12 a 1.0001,1.0001 0 0 0 0.707031,-1.707031 l -3,-3.0000002 a 1,1 0 0 0 -1.414062,0 z"
       id="path2" />
    <path
       style="color:#000000;fill:#2c3e50;stroke-linecap:round;stroke-linejoin:round;-inkscape-stroke:none"
       d="m 20.292969,11.292969 -3,3 a 1,1 0 0 0 0,1.414062 1,1 0 0 0 1.414062,0 l 3,-3 a 1,1 0 0 0 0,-1.414062 1,1 0 0 0 -1.414062,0 z"
       id="path3" />
  </g>
  <defs
     id="defs3">
    <clipPath
       id="clip0_20122_443">
      <rect
         width="24"
         height="24"
         fill="white"
         id="rect3" />
    </clipPath>
  </defs>
</svg>
