<?xml version="1.0" encoding="UTF-8" standalone="no"?>
<svg
   width="24"
   height="24"
   viewBox="0 0 24 24"
   fill="none"
   version="1.1"
   id="svg2"
   sodipodi:docname="mail_2px.svg"
   inkscape:version="1.3.2 (091e20e, 2023-11-25)"
   xmlns:inkscape="http://www.inkscape.org/namespaces/inkscape"
   xmlns:sodipodi="http://sodipodi.sourceforge.net/DTD/sodipodi-0.dtd"
   xmlns="http://www.w3.org/2000/svg"
   xmlns:svg="http://www.w3.org/2000/svg">
  <sodipodi:namedview
     id="namedview2"
     pagecolor="#505050"
     bordercolor="#eeeeee"
     borderopacity="1"
     inkscape:showpageshadow="0"
     inkscape:pageopacity="0"
     inkscape:pagecheckerboard="0"
     inkscape:deskcolor="#505050"
     inkscape:zoom="9.8333333"
     inkscape:cx="11.949153"
     inkscape:cy="12"
     inkscape:window-width="1504"
     inkscape:window-height="449"
     inkscape:window-x="0"
     inkscape:window-y="25"
     inkscape:window-maximized="0"
     inkscape:current-layer="svg2" />
  <g
     clip-path="url(#clip0_20120_1150)"
     id="g2">
    <path
       style="color:#000000;fill:#2c3e50;stroke-linecap:round;stroke-linejoin:round;-inkscape-stroke:none"
       d="M 5,4 C 4.2047416,4 3.4412465,4.316551 2.8789063,4.8789062 2.316551,5.4412465 2,6.2047416 2,7 v 10 c 0,0.795243 0.3165904,1.558748 0.8789063,2.121094 C 3.4412548,19.683487 4.2047542,20 5,20 h 14 c 0.795231,0 1.55874,-0.316552 2.121094,-0.878906 C 21.683448,18.55874 22,17.795231 22,17 V 7 C 22,6.2047542 21.683487,5.4412548 21.121094,4.8789062 20.558748,4.3165904 19.795243,4 19,4 Z m 0,2 h 14 c 0.265556,0 0.519178,0.1051254 0.707031,0.2929687 C 19.894837,6.4807594 20,6.7343869 20,7 v 10 c 0,0.265568 -0.105124,0.519186 -0.292969,0.707031 C 19.519186,17.894876 19.265568,18 19,18 H 5 C 4.7343869,18 4.4807594,17.894837 4.2929687,17.707031 4.1051254,17.519178 4,17.265556 4,17 V 7 C 4,6.7343994 4.1051647,6.4807678 4.2929687,6.2929687 4.4807678,6.1051647 4.7343994,6 5,6 Z"
       id="path1" />
    <path
       style="color:#000000;fill:#2c3e50;stroke-linecap:round;stroke-linejoin:round;-inkscape-stroke:none"
       d="m 21.195312,6.0195312 a 1,1 0 0 0 -0.75,0.1484375 L 12,11.798828 3.5546875,6.1679687 A 1,1 0 0 0 2.1679688,6.4453125 1,1 0 0 0 2.4453125,7.8320312 l 9.0000005,5.9999998 a 1.0001,1.0001 0 0 0 1.109375,0 L 21.554687,7.8320312 A 1,1 0 0 0 21.832031,6.4453125 1,1 0 0 0 21.195312,6.0195312 Z"
       id="path2" />
  </g>
  <defs
     id="defs2">
    <clipPath
       id="clip0_20120_1150">
      <rect
         width="24"
         height="24"
         fill="white"
         id="rect2" />
    </clipPath>
  </defs>
</svg>
