<?xml version="1.0" encoding="UTF-8" standalone="no"?>
<svg
   width="24"
   height="24"
   viewBox="0 0 24 24"
   fill="none"
   version="1.1"
   id="svg3"
   sodipodi:docname="map-pin-off_2px.svg"
   inkscape:version="1.3.2 (091e20e, 2023-11-25)"
   xmlns:inkscape="http://www.inkscape.org/namespaces/inkscape"
   xmlns:sodipodi="http://sodipodi.sourceforge.net/DTD/sodipodi-0.dtd"
   xmlns="http://www.w3.org/2000/svg"
   xmlns:svg="http://www.w3.org/2000/svg">
  <sodipodi:namedview
     id="namedview3"
     pagecolor="#505050"
     bordercolor="#eeeeee"
     borderopacity="1"
     inkscape:showpageshadow="0"
     inkscape:pageopacity="0"
     inkscape:pagecheckerboard="0"
     inkscape:deskcolor="#505050"
     inkscape:zoom="9.8333333"
     inkscape:cx="11.949153"
     inkscape:cy="12"
     inkscape:window-width="1504"
     inkscape:window-height="449"
     inkscape:window-x="0"
     inkscape:window-y="25"
     inkscape:window-maximized="0"
     inkscape:current-layer="svg3" />
  <g
     clip-path="url(#clip0_20120_1219)"
     id="g3">
    <path
       style="color:#000000;fill:#2c3e50;stroke-linecap:round;stroke-linejoin:round;-inkscape-stroke:none"
       d="m 12,7 a 1,1 0 0 0 -1,1 1,1 0 0 0 1,1 c 0.530751,0 1.038748,0.2106159 1.414063,0.5859375 C 13.789394,9.9612755 14,10.469274 14,11 a 1,1 0 0 0 1,1 1,1 0 0 0 1,-1 C 16,9.9395276 15.577993,8.9217559 14.828125,8.171875 14.078241,7.4219777 13.060447,7 12,7 Z M 9.9648438,8.5800781 a 1,1 0 0 0 -1.375,0.328125 C 8.1206703,9.6727397 7.9213666,10.573914 8.0253906,11.464844 c 0.1040095,0.890919 0.5060153,1.721539 1.1386719,2.357422 0.6326814,0.635894 1.4612715,1.041753 2.3515625,1.15039 0.890378,0.108515 1.791714,-0.08556 2.558594,-0.550781 a 1,1 0 0 0 0.335937,-1.375 1,1 0 0 0 -1.373047,-0.335937 c -0.383719,0.232779 -0.833876,0.329676 -1.279296,0.27539 -0.445508,-0.05436 -0.859284,-0.256114 -1.175782,-0.574219 -0.316502,-0.318116 -0.518282,-0.734008 -0.570312,-1.179687 -0.052036,-0.445669 0.0485,-0.894882 0.283203,-1.2773439 a 1,1 0 0 0 -0.3300782,-1.375 z"
       id="path1" />
    <path
       style="color:#000000;fill:#2c3e50;stroke-linecap:round;stroke-linejoin:round;-inkscape-stroke:none"
       d="M 13.205078,2.0820313 C 11.252211,1.817622 9.2664897,2.2009206 7.5527344,3.1738281 a 1,1 0 0 0 -0.375,1.3632813 1,1 0 0 0 1.3632812,0.375 C 9.8742973,4.1551986 11.418171,3.8567898 12.9375,4.0625 c 1.51922,0.2057073 2.927689,0.9040767 4.011719,1.9882812 1.083959,1.0842218 1.782893,2.4943888 1.988281,4.0136718 0.205476,1.519303 -0.0925,3.063245 -0.849609,4.396485 a 1,1 0 0 0 0.375,1.363281 1,1 0 0 0 1.363281,-0.375 c 0.973085,-1.713557 1.357874,-3.699391 1.09375,-5.652344 C 20.65591,7.8439416 19.758473,6.0302945 18.365234,4.6367187 16.971866,3.2431258 15.157854,2.3464435 13.205078,2.0820313 Z M 5.7792969,4.8671875 A 1,1 0 0 0 5.0996094,5.2207031 C 3.6550938,6.9452062 2.9087015,9.1491025 3.0078125,11.396484 c 0.0991,2.247355 1.0362358,4.376136 2.6269531,5.966797 l 4.2441407,4.244141 a 1.0001,1.0001 0 0 0 0.00195,0 c 0.5621996,0.5616 1.3243116,0.876953 2.1191406,0.876953 0.794779,0 1.558854,-0.315463 2.121094,-0.876953 l 3.738281,-3.738281 a 1,1 0 0 0 0,-1.414063 1,1 0 0 0 -1.414063,0 l -3.738281,3.738281 C 12.519071,20.381069 12.26522,20.484375 12,20.484375 c -0.26537,0 -0.519232,-0.103416 -0.707031,-0.291016 L 7.0507812,15.949219 C 5.8132014,14.711683 5.0829592,13.057035 5.0058594,11.308594 4.9287505,9.5601196 5.5089706,7.8475333 6.6328125,6.5058594 A 1,1 0 0 0 6.5097656,5.0957031 1,1 0 0 0 5.7792969,4.8671875 Z"
       id="path2" />
    <path
       style="color:#000000;fill:#2c3e50;stroke-linecap:round;stroke-linejoin:round;-inkscape-stroke:none"
       d="m 3,2 a 1,1 0 0 0 -0.7070312,0.2929688 1,1 0 0 0 0,1.4140625 L 20.292969,21.707031 a 1,1 0 0 0 1.414062,0 1,1 0 0 0 0,-1.414062 L 3.7070313,2.2929688 A 1,1 0 0 0 3,2 Z"
       id="path3" />
  </g>
  <defs
     id="defs3">
    <clipPath
       id="clip0_20120_1219">
      <rect
         width="24"
         height="24"
         fill="white"
         id="rect3" />
    </clipPath>
  </defs>
</svg>
