<?xml version="1.0" encoding="UTF-8" standalone="no"?>
<svg
   width="24"
   height="24"
   viewBox="0 0 24 24"
   fill="none"
   version="1.1"
   id="svg4"
   sodipodi:docname="map-pin-exclamation_2px.svg"
   inkscape:version="1.3.2 (091e20e, 2023-11-25)"
   xmlns:inkscape="http://www.inkscape.org/namespaces/inkscape"
   xmlns:sodipodi="http://sodipodi.sourceforge.net/DTD/sodipodi-0.dtd"
   xmlns="http://www.w3.org/2000/svg"
   xmlns:svg="http://www.w3.org/2000/svg">
  <sodipodi:namedview
     id="namedview4"
     pagecolor="#505050"
     bordercolor="#eeeeee"
     borderopacity="1"
     inkscape:showpageshadow="0"
     inkscape:pageopacity="0"
     inkscape:pagecheckerboard="0"
     inkscape:deskcolor="#505050"
     inkscape:zoom="9.8333333"
     inkscape:cx="11.949153"
     inkscape:cy="12"
     inkscape:window-width="1504"
     inkscape:window-height="449"
     inkscape:window-x="0"
     inkscape:window-y="25"
     inkscape:window-maximized="0"
     inkscape:current-layer="svg4" />
  <g
     clip-path="url(#clip0_20120_1193)"
     id="g4">
    <path
       style="color:#000000;fill:#2c3e50;stroke-linecap:round;stroke-linejoin:round;-inkscape-stroke:none"
       d="M 12,7 C 10.939553,7 9.9217709,7.4219924 9.171875,8.171875 8.4219809,8.9217691 8,9.9395527 8,11 8,12.060447 8.4219777,13.078241 9.171875,13.828125 9.9217577,14.577981 10.939528,15 12,15 13.060472,15 14.078254,14.577996 14.828125,13.828125 15.577996,13.078254 16,12.060472 16,11 16,9.9395276 15.577993,8.9217559 14.828125,8.171875 14.078241,7.4219777 13.060447,7 12,7 Z m 0,2 c 0.530751,0 1.038748,0.2106159 1.414063,0.5859375 C 13.789394,9.9612755 14,10.469274 14,11 14,11.530726 13.789391,12.038734 13.414063,12.414063 13.038734,12.789391 12.530726,13 12,13 11.469274,13 10.961294,12.789405 10.585938,12.414063 10.210616,12.038748 10,11.530751 10,11 10,10.469249 10.210613,9.9612623 10.585938,9.5859375 10.96128,9.2106012 11.469249,9 12,9 Z"
       id="path1" />
    <path
       style="color:#000000;fill:#2c3e50;stroke-linecap:round;stroke-linejoin:round;-inkscape-stroke:none"
       d="M 11.322266,2.0253906 C 10.566175,2.0825288 9.8170956,2.2355843 9.09375,2.4824219 7.6470272,2.9760812 6.3494439,3.8309921 5.3242187,4.9648437 4.2990021,6.0986872 3.580337,7.4739253 3.234375,8.9628906 2.8884141,10.451851 2.9273611,12.004926 3.3476563,13.474609 c 0.4202731,1.469758 1.2081679,2.807766 2.2890624,3.888672 l 4.2421876,4.244141 a 1.0001,1.0001 0 0 0 0.00195,0 C 10.443132,22.169245 11.205297,22.484375 12,22.484375 c 0.794703,0 1.558821,-0.31513 2.121094,-0.876953 l 1.589844,-1.589844 a 1,1 0 0 0 0.002,-1.414062 1,1 0 0 0 -1.414063,0 l -1.591797,1.589843 C 12.519305,20.380935 12.265496,20.484375 12,20.484375 c -0.265496,0 -0.519305,-0.10344 -0.707031,-0.291016 L 7.0507812,15.949219 C 6.2100977,15.108526 5.5964374,14.069021 5.2695312,12.925781 4.9426271,11.782667 4.9125421,10.574172 5.1816406,9.4160156 5.450738,8.2578636 6.0111522,7.186622 6.8085937,6.3046875 7.6060468,5.4227412 8.6149397,4.7589797 9.7402344,4.375 10.865481,3.9910161 12.069955,3.9008108 13.240234,4.1113281 c 1.17018,0.2105151 2.266655,0.7147471 3.1875,1.4667969 0.920967,0.7520773 1.634177,1.727499 2.074219,2.8320313 0.440126,1.1045235 0.592787,2.3031417 0.441406,3.4824217 a 1,1 0 0 0 0.863282,1.119141 1,1 0 0 0 1.121093,-0.865235 C 21.122354,10.630367 20.927201,9.0900158 20.361328,7.6699219 19.795571,6.2498367 18.877391,4.9961978 17.693359,4.0292969 16.509407,3.0623684 15.098168,2.4132225 13.59375,2.1425781 12.841491,2.007257 12.078357,1.9682524 11.322266,2.0253906 Z"
       id="path2" />
    <path
       style="color:#000000;fill:#2c3e50;stroke-linecap:round;stroke-linejoin:round;-inkscape-stroke:none"
       d="m 19,15 a 1,1 0 0 0 -1,1 v 3 a 1,1 0 0 0 1,1 1,1 0 0 0 1,-1 v -3 a 1,1 0 0 0 -1,-1 z"
       id="path3" />
    <path
       style="color:#000000;fill:#2c3e50;stroke-linecap:round;stroke-linejoin:round;-inkscape-stroke:none"
       d="m 19,21 a 1,1 0 0 0 -1,1 v 0.0098 a 1,1 0 0 0 1,1 1,1 0 0 0 1,-1 V 22 a 1,1 0 0 0 -1,-1 z"
       id="path4" />
  </g>
  <defs
     id="defs4">
    <clipPath
       id="clip0_20120_1193">
      <rect
         width="24"
         height="24"
         fill="white"
         id="rect4" />
    </clipPath>
  </defs>
</svg>
