<svg width="24" height="24" viewBox="0 0 24 24" fill="none" xmlns="http://www.w3.org/2000/svg">
<g clip-path="url(#clip0_17718_460)">
<mask id="mask0_17718_460" style="mask-type:luminance" maskUnits="userSpaceOnUse" x="0" y="0" width="24" height="24">
<path d="M24 0H0V24H24V0Z" fill="white"/>
</mask>
<g mask="url(#mask0_17718_460)">
<path d="M12 7.25C11.0058 7.25 10.0507 7.64459 9.34766 8.34766C8.64458 9.05073 8.25 10.0058 8.25 11C8.25 11.9942 8.64458 12.9493 9.34766 13.6523C10.0507 14.3554 11.0057 14.75 12 14.75C12.9943 14.75 13.9493 14.3554 14.6523 13.6523C15.3554 12.9493 15.75 11.9943 15.75 11C15.75 10.0057 15.3554 9.05072 14.6523 8.34766C13.9493 7.64458 12.9942 7.25 12 7.25ZM12 8.75C12.597 8.75 13.1697 8.98606 13.5918 9.4082C14.0139 9.83036 14.25 10.4031 14.25 11C14.25 11.5969 14.0139 12.1697 13.5918 12.5918C13.1697 13.0139 12.5969 13.25 12 13.25C11.4031 13.25 10.8304 13.014 10.4082 12.5918C9.98606 12.1697 9.75 11.597 9.75 11C9.75 10.403 9.98606 9.83035 10.4082 9.4082C10.8304 8.98605 11.403 8.75 12 8.75Z" fill="#2C3E50"/>
<path d="M12.0001 2.25C10.2696 2.25 8.57765 2.76321 7.13878 3.72461C5.69992 4.68601 4.57837 6.05359 3.91612 7.65234C3.25386 9.25111 3.08051 11.0097 3.41808 12.707C3.75565 14.4042 4.58898 15.9638 5.81261 17.1875L10.0567 21.4297C10.5721 21.9445 11.2715 22.2344 12.0001 22.2344C12.7288 22.2344 13.4281 21.9445 13.9435 21.4297L18.1876 17.1875C19.4113 15.9638 20.2446 14.4043 20.5821 12.707C20.9198 11.0097 20.7463 9.25109 20.0841 7.65234C19.4218 6.05358 18.3003 4.68601 16.8614 3.72461C15.4226 2.76321 13.7306 2.25 12.0001 2.25ZM12.0001 3.75C13.434 3.75 14.8351 4.17599 16.0275 4.97266C17.2198 5.76932 18.1486 6.90177 18.6974 8.22656C19.2461 9.55139 19.3912 11.0076 19.1114 12.4141C18.8318 13.8204 18.141 15.113 17.1271 16.127L12.8829 20.3691C12.6485 20.6027 12.331 20.7344 12.0001 20.7344C11.6686 20.7344 11.3519 20.6035 11.1173 20.3691L6.87315 16.127C5.85923 15.113 5.16851 13.8204 4.88878 12.4141C4.60905 11.0076 4.75406 9.55138 5.30284 8.22656C5.85161 6.90176 6.78047 5.76931 7.97276 4.97266C9.16507 4.176 10.5662 3.75 12.0001 3.75Z" fill="#2C3E50"/>
</g>
</g>
<defs>
<clipPath id="clip0_17718_460">
<rect width="24" height="24" fill="white"/>
</clipPath>
</defs>
</svg>
