<?xml version="1.0" encoding="UTF-8" standalone="no"?>
<svg
   width="24"
   height="24"
   viewBox="0 0 24 24"
   fill="none"
   version="1.1"
   id="svg4"
   sodipodi:docname="map-pins_2px.svg"
   inkscape:version="1.3.2 (091e20e, 2023-11-25)"
   xmlns:inkscape="http://www.inkscape.org/namespaces/inkscape"
   xmlns:sodipodi="http://sodipodi.sourceforge.net/DTD/sodipodi-0.dtd"
   xmlns="http://www.w3.org/2000/svg"
   xmlns:svg="http://www.w3.org/2000/svg">
  <sodipodi:namedview
     id="namedview4"
     pagecolor="#505050"
     bordercolor="#eeeeee"
     borderopacity="1"
     inkscape:showpageshadow="0"
     inkscape:pageopacity="0"
     inkscape:pagecheckerboard="0"
     inkscape:deskcolor="#505050"
     inkscape:zoom="9.8333333"
     inkscape:cx="11.949153"
     inkscape:cy="12"
     inkscape:window-width="1504"
     inkscape:window-height="449"
     inkscape:window-x="0"
     inkscape:window-y="25"
     inkscape:window-maximized="0"
     inkscape:current-layer="svg4" />
  <g
     clip-path="url(#clip0_20120_1207)"
     id="g4">
    <path
       style="color:#000000;fill:#2c3e50;stroke-linecap:round;stroke-linejoin:round;-inkscape-stroke:none"
       d="M 8,2 C 7.0111322,2 6.0448614,2.2923685 5.2226562,2.8417969 4.4004442,3.3912215 3.7592132,4.1723063 3.3808594,5.0859375 3.0024955,5.9995752 2.9026722,7.004755 3.0957031,7.9746094 3.2887341,8.9444639 3.7654943,9.8360192 4.4648437,10.535156 l 2.828125,2.828125 a 1.0001,1.0001 0 0 0 1.4140626,0 L 11.535156,10.535156 C 12.234455,9.8360325 12.711198,8.9444268 12.904297,7.9746094 13.097266,7.0048153 12.997634,5.9996461 12.619141,5.0859375 12.240793,4.1722903 11.599513,3.3912181 10.777344,2.8417969 9.9551438,2.2923637 8.9888753,2 8,2 Z m 0,2 c 0.5934831,0 1.1725969,0.1741803 1.6660156,0.5039062 0.4934294,0.3297379 0.8784174,0.7993649 1.1054684,1.3476563 0.227107,0.5482499 0.285753,1.1502975 0.169922,1.7324219 -0.115901,0.582101 -0.400612,1.1175142 -0.820312,1.5371094 L 8,11.242188 5.8789062,9.1210938 C 5.4591969,8.7015119 5.1744424,8.1660483 5.0585937,7.5839844 4.942745,7.0019203 5.0014401,6.3998833 5.2285156,5.8515625 5.4555812,5.3032551 5.8405377,4.8336408 6.3339844,4.5039062 6.8274179,4.1741755 7.4065294,4 8,4 Z"
       id="path1" />
    <path
       style="color:#000000;fill:#2c3e50;stroke-linecap:round;stroke-linejoin:round;-inkscape-stroke:none"
       d="M 8,6 A 1,1 0 0 0 7,7 v 0.00977 a 1,1 0 0 0 1,1 1,1 0 0 0 1,-1 V 7 A 1,1 0 0 0 8,6 Z"
       id="path2" />
    <path
       style="color:#000000;fill:#2c3e50;stroke-linecap:round;stroke-linejoin:round;-inkscape-stroke:none"
       d="m 16,10 c -0.988958,0 -1.955193,0.292363 -2.777344,0.841797 -0.822239,0.549368 -1.463452,1.330463 -1.841797,2.244141 -0.378308,0.913588 -0.478135,1.918775 -0.285156,2.888671 0.193104,0.969767 0.669881,1.861413 1.369141,2.560547 l 2.828125,2.828125 a 1.0001,1.0001 0 0 0 1.414062,0 l 2.828125,-2.828125 c 0.69926,-0.699134 1.176037,-1.59078 1.369141,-2.560547 0.192979,-0.969896 0.09315,-1.975083 -0.285156,-2.888671 C 20.240796,12.17226 19.599583,11.391165 18.777344,10.841797 17.955193,10.292363 16.988958,10 16,10 Z m 0,2 c 0.593441,0 1.172568,0.174141 1.666016,0.503906 a 1.0001,1.0001 0 0 0 0,0.002 c 0.493359,0.329632 0.878414,0.797383 1.105468,1.345704 0.227092,0.548409 0.285743,1.150319 0.169922,1.732421 -0.115896,0.582032 -0.400573,1.117445 -0.820312,1.53711 L 16,19.242187 13.878906,17.121094 c -0.419739,-0.419665 -0.704416,-0.955078 -0.820312,-1.53711 -0.115821,-0.582102 -0.05717,-1.184012 0.169922,-1.732421 0.227054,-0.548321 0.612109,-1.016072 1.105468,-1.345704 a 1.0001,1.0001 0 0 0 0,-0.002 C 14.827432,12.174141 15.406559,12 16,12 Z"
       id="path3" />
    <path
       style="color:#000000;fill:#2c3e50;stroke-linecap:round;stroke-linejoin:round;-inkscape-stroke:none"
       d="m 16,14 a 1,1 0 0 0 -1,1 v 0.0098 a 1,1 0 0 0 1,1 1,1 0 0 0 1,-1 V 15 a 1,1 0 0 0 -1,-1 z"
       id="path4" />
  </g>
  <defs
     id="defs4">
    <clipPath
       id="clip0_20120_1207">
      <rect
         width="24"
         height="24"
         fill="white"
         id="rect4" />
    </clipPath>
  </defs>
</svg>
