<?xml version="1.0" encoding="UTF-8" standalone="no"?>
<svg
   width="24"
   height="24"
   viewBox="0 0 24 24"
   fill="none"
   version="1.1"
   id="svg4"
   sodipodi:docname="map-pin-x_2px.svg"
   inkscape:version="1.3.2 (091e20e, 2023-11-25)"
   xmlns:inkscape="http://www.inkscape.org/namespaces/inkscape"
   xmlns:sodipodi="http://sodipodi.sourceforge.net/DTD/sodipodi-0.dtd"
   xmlns="http://www.w3.org/2000/svg"
   xmlns:svg="http://www.w3.org/2000/svg">
  <sodipodi:namedview
     id="namedview4"
     pagecolor="#505050"
     bordercolor="#eeeeee"
     borderopacity="1"
     inkscape:showpageshadow="0"
     inkscape:pageopacity="0"
     inkscape:pagecheckerboard="0"
     inkscape:deskcolor="#505050"
     inkscape:zoom="9.8333333"
     inkscape:cx="11.949153"
     inkscape:cy="12"
     inkscape:window-width="1504"
     inkscape:window-height="449"
     inkscape:window-x="0"
     inkscape:window-y="25"
     inkscape:window-maximized="0"
     inkscape:current-layer="svg4" />
  <g
     clip-path="url(#clip0_20120_1200)"
     id="g4">
    <path
       style="color:#000000;fill:#2c3e50;stroke-linecap:round;stroke-linejoin:round;-inkscape-stroke:none"
       d="M 12,7 C 10.939553,7 9.9217709,7.4219924 9.171875,8.171875 8.4219809,8.9217691 8,9.9395527 8,11 8,12.060447 8.4219777,13.078241 9.171875,13.828125 9.9217577,14.577981 10.939528,15 12,15 13.060472,15 14.078254,14.577996 14.828125,13.828125 15.577996,13.078254 16,12.060472 16,11 16,9.9395276 15.577993,8.9217559 14.828125,8.171875 14.078241,7.4219777 13.060447,7 12,7 Z m 0,2 c 0.530751,0 1.038748,0.2106159 1.414063,0.5859375 C 13.789394,9.9612755 14,10.469274 14,11 14,11.530726 13.789391,12.038734 13.414063,12.414063 13.038734,12.789391 12.530726,13 12,13 11.469274,13 10.961294,12.789405 10.585938,12.414063 10.210616,12.038748 10,11.530751 10,11 10,10.469249 10.210613,9.9612623 10.585938,9.5859375 10.96128,9.2106012 11.469249,9 12,9 Z"
       id="path1" />
    <path
       style="color:#000000;fill:#2c3e50;stroke-linecap:round;stroke-linejoin:round;-inkscape-stroke:none"
       d="m 12.548828,2.0195313 c -0.801672,-0.04873 -1.611369,0.0086 -2.404297,0.1757812 C 8.558695,2.5296737 7.0939356,3.2861742 5.9023437,4.3847656 4.7107648,5.4833442 3.8368627,6.8839783 3.375,8.4375 c -0.4618686,1.5534966 -0.495546,3.20224 -0.097656,4.773438 0.3978899,1.57113 1.2137633,3.005922 2.3593749,4.152343 l 4.2441407,4.244141 c 0.4717616,0.471611 1.0860646,0.772983 1.7480466,0.855469 0.661874,0.08264 1.332988,-0.05892 1.90625,-0.400391 a 1,1 0 0 0 0.347657,-1.371094 1,1 0 0 0 -1.371094,-0.345703 c -0.190938,0.113733 -0.41404,0.160372 -0.634766,0.132813 -0.220816,-0.02751 -0.424593,-0.127769 -0.582031,-0.285157 L 7.0507812,15.949219 C 6.1596349,15.057442 5.5262862,13.94277 5.2167969,12.720703 4.9072873,11.498504 4.9337181,10.216153 5.2929687,9.0078125 5.6522253,7.799417 6.3309535,6.7099882 7.2578125,5.8554687 8.1846785,5.0009421 9.3250728,4.412422 10.558594,4.1523437 c 1.233541,-0.2600787 2.513974,-0.181023 3.707031,0.2265625 1.19293,0.4075721 2.253697,1.1293146 3.070312,2.0898438 0.816525,0.960526 1.358188,2.1222958 1.56836,3.3652344 0.21027,1.2430096 0.08028,2.5196986 -0.375,3.6953126 a 1,1 0 0 0 0.572265,1.294922 1,1 0 0 0 1.292969,-0.572266 C 20.979848,12.74057 21.145329,11.1 20.875,9.5019531 20.604773,7.9038546 19.909048,6.4066668 18.859375,5.171875 17.809592,3.9370864 16.445777,3.0103151 14.912109,2.4863281 14.145239,2.2243414 13.3505,2.0682613 12.548828,2.0195313 Z"
       id="path2" />
    <path
       style="color:#000000;fill:#2c3e50;stroke-linecap:round;stroke-linejoin:round;-inkscape-stroke:none"
       d="m 16.292969,16.292969 a 1,1 0 0 0 0,1.414062 l 5,5 a 1,1 0 0 0 1.414062,0 1,1 0 0 0 0,-1.414062 l -5,-5 a 1,1 0 0 0 -1.414062,0 z"
       id="path3" />
    <path
       style="color:#000000;fill:#2c3e50;stroke-linecap:round;stroke-linejoin:round;-inkscape-stroke:none"
       d="m 21.292969,16.292969 -5,5 a 1,1 0 0 0 0,1.414062 1,1 0 0 0 1.414062,0 l 5,-5 a 1,1 0 0 0 0,-1.414062 1,1 0 0 0 -1.414062,0 z"
       id="path4" />
  </g>
  <defs
     id="defs4">
    <clipPath
       id="clip0_20120_1200">
      <rect
         width="24"
         height="24"
         fill="white"
         id="rect4" />
    </clipPath>
  </defs>
</svg>
