<?xml version="1.0" encoding="UTF-8" standalone="no"?>
<svg
   width="24"
   height="24"
   viewBox="0 0 24 24"
   fill="none"
   version="1.1"
   id="svg2"
   sodipodi:docname="map-pin_2px.svg"
   inkscape:version="1.3.2 (091e20e, 2023-11-25)"
   xmlns:inkscape="http://www.inkscape.org/namespaces/inkscape"
   xmlns:sodipodi="http://sodipodi.sourceforge.net/DTD/sodipodi-0.dtd"
   xmlns="http://www.w3.org/2000/svg"
   xmlns:svg="http://www.w3.org/2000/svg">
  <sodipodi:namedview
     id="namedview2"
     pagecolor="#505050"
     bordercolor="#eeeeee"
     borderopacity="1"
     inkscape:showpageshadow="0"
     inkscape:pageopacity="0"
     inkscape:pagecheckerboard="0"
     inkscape:deskcolor="#505050"
     inkscape:zoom="9.8333333"
     inkscape:cx="11.949153"
     inkscape:cy="12"
     inkscape:window-width="1504"
     inkscape:window-height="449"
     inkscape:window-x="0"
     inkscape:window-y="25"
     inkscape:window-maximized="0"
     inkscape:current-layer="svg2" />
  <g
     clip-path="url(#clip0_20120_1214)"
     id="g2">
    <path
       style="color:#000000;fill:#2c3e50;stroke-linecap:round;stroke-linejoin:round;-inkscape-stroke:none"
       d="M 12,7 C 10.939553,7 9.9217709,7.4219924 9.171875,8.171875 8.4219809,8.9217691 8,9.9395527 8,11 8,12.060447 8.4219777,13.078241 9.171875,13.828125 9.9217577,14.577981 10.939528,15 12,15 13.060472,15 14.078254,14.577996 14.828125,13.828125 15.577996,13.078254 16,12.060472 16,11 16,9.9395276 15.577993,8.9217559 14.828125,8.171875 14.078241,7.4219777 13.060447,7 12,7 Z m 0,2 c 0.530751,0 1.038748,0.2106159 1.414063,0.5859375 C 13.789394,9.9612755 14,10.469274 14,11 14,11.530726 13.789391,12.038734 13.414063,12.414063 13.038734,12.789391 12.530726,13 12,13 11.469274,13 10.961294,12.789405 10.585938,12.414063 10.210616,12.038748 10,11.530751 10,11 10,10.469249 10.210613,9.9612623 10.585938,9.5859375 10.96128,9.2106012 11.469249,9 12,9 Z"
       id="path1" />
    <path
       style="color:#000000;fill:#2c3e50;stroke-linecap:round;stroke-linejoin:round;-inkscape-stroke:none"
       d="M 12,2 C 10.220111,2 8.4799644,2.5287191 7,3.5175781 5.5200475,4.5064368 4.3667102,5.9122236 3.6855469,7.5566406 3.0043751,9.201062 2.8266197,11.010087 3.1738281,12.755859 c 0.3472131,1.745684 1.2043084,3.348818 2.4628906,4.607422 l 4.2441407,4.244141 c 0.5621996,0.5616 1.3243116,0.876953 2.1191406,0.876953 0.794829,0 1.558894,-0.315353 2.121094,-0.876953 l 4.242187,-4.244141 c 1.258602,-1.258602 2.115728,-2.861708 2.462891,-4.607422 0.347272,-1.74581 0.169421,-3.5548202 -0.511719,-5.1992184 C 19.633296,5.912212 18.479971,4.5064344 17,3.5175781 15.520034,2.5287254 13.779889,2 12,2 Z m 0,2 c 1.384508,0 2.737441,0.410482 3.888672,1.1796875 1.151226,0.769202 2.048283,1.8634497 2.578125,3.1425781 0.529859,1.279179 0.668565,2.6849824 0.398437,4.0429684 -0.270036,1.357883 -0.93702,2.604989 -1.916015,3.583985 l -4.242188,4.24414 C 12.519232,20.380959 12.26537,20.484375 12,20.484375 c -0.264743,0 -0.517412,-0.104249 -0.705078,-0.291016 h -0.002 L 7.0507812,15.949219 C 6.0718057,14.970226 5.4048519,13.723148 5.1347656,12.365234 4.8646746,11.00721 5.0033361,9.6014213 5.5332031,8.3222656 6.0630586,7.0431256 6.9601232,5.9488871 8.1113281,5.1796875 9.2625411,4.4104883 10.615492,4 12,4 Z"
       id="path2" />
  </g>
  <defs
     id="defs2">
    <clipPath
       id="clip0_20120_1214">
      <rect
         width="24"
         height="24"
         fill="white"
         id="rect2" />
    </clipPath>
  </defs>
</svg>
