<?xml version="1.0" encoding="UTF-8" standalone="no"?>
<svg
   width="24"
   height="24"
   viewBox="0 0 24 24"
   fill="none"
   version="1.1"
   id="svg4"
   sodipodi:docname="photo-pentagon_2px.svg"
   inkscape:version="1.3.2 (091e20e, 2023-11-25)"
   xmlns:inkscape="http://www.inkscape.org/namespaces/inkscape"
   xmlns:sodipodi="http://sodipodi.sourceforge.net/DTD/sodipodi-0.dtd"
   xmlns="http://www.w3.org/2000/svg"
   xmlns:svg="http://www.w3.org/2000/svg">
  <sodipodi:namedview
     id="namedview4"
     pagecolor="#505050"
     bordercolor="#eeeeee"
     borderopacity="1"
     inkscape:showpageshadow="0"
     inkscape:pageopacity="0"
     inkscape:pagecheckerboard="0"
     inkscape:deskcolor="#505050"
     inkscape:zoom="9.8333333"
     inkscape:cx="11.949153"
     inkscape:cy="12"
     inkscape:window-width="1504"
     inkscape:window-height="449"
     inkscape:window-x="0"
     inkscape:window-y="25"
     inkscape:window-maximized="0"
     inkscape:current-layer="svg4" />
  <g
     clip-path="url(#clip0_20119_628)"
     id="g4">
    <path
       style="color:#000000;fill:#2c3e50;stroke-linecap:round;stroke-linejoin:round;-inkscape-stroke:none"
       d="m 12,0.7890625 c -0.629003,0 -1.241235,0.20049462 -1.75,0.5703125 L 2.2285156,7.1875 C 1.7195424,7.5570411 1.3409143,8.0776199 1.1464844,8.6757813 c -0.19441541,0.5981479 -0.19442479,1.24362 0,1.8417967 l 3.0644531,9.429688 c 0.1942222,0.598035 0.5715167,1.118648 1.0800781,1.488281 0.5087432,0.369776 1.1214545,0.570162 1.75,0.570312 a 1.0001,1.0001 0 0 0 0.00195,0 h 9.9160153 c 0.628541,-1.5e-4 1.241234,-0.20052 1.75,-0.570312 0.508531,-0.369621 0.887829,-0.890166 1.082032,-1.488281 l 3.0625,-9.429688 C 23.251275,9.2942792 22.812743,7.9436881 21.771484,7.1875 L 13.751953,1.359375 C 13.243188,0.98955712 12.629003,0.7890625 12,0.7890625 Z m 0,2 c 0.206797,0 0.406984,0.065938 0.574219,0.1875 a 1.0001,1.0001 0 0 0 0.002,0 l 8.019531,5.828125 c 0.34674,0.2518109 0.487709,0.6870506 0.355469,1.09375 l -3.0625,9.4296875 a 1.0001,1.0001 0 0 0 0,0.002 c -0.0638,0.196484 -0.1882,0.366703 -0.355469,0.488281 -0.167033,0.121407 -0.369313,0.187451 -0.576172,0.1875 H 7.0429687 C 6.8360951,20.00581 6.633853,19.939783 6.4667969,19.818359 6.2995389,19.696793 6.1751657,19.526642 6.1113281,19.330078 a 1.0001,1.0001 0 0 0 0,-0.002 l -3.0625,-9.4296875 c -0.063895,-0.1965824 -0.063904,-0.4069043 0,-0.6035156 C 3.112738,9.098304 3.2370108,8.9261459 3.4042969,8.8046875 L 11.425781,2.9765625 C 11.593016,2.8550009 11.793203,2.7890625 12,2.7890625 Z"
       id="path1" />
    <path
       style="color:#000000;fill:#2c3e50;stroke-linecap:round;stroke-linejoin:round;-inkscape-stroke:none"
       d="m 15,7 a 1,1 0 0 0 -1,1 1,1 0 0 0 1,1 h 0.0098 a 1,1 0 0 0 1,-1 1,1 0 0 0 -1,-1 z"
       id="path2" />
    <path
       style="color:#000000;fill:#2c3e50;stroke-linecap:round;stroke-linejoin:round;-inkscape-stroke:none"
       d="m 9.5,9.3300781 c -0.8053222,0 -1.5814223,0.3603612 -2.1933594,0.9492189 a 1.0001,1.0001 0 0 0 -0.013672,0.01367 l -3.9999999,4 a 1,1 0 0 0 0,1.414062 1,1 0 0 0 1.4140624,0 L 8.6933594,11.720703 C 9.0094214,11.416562 9.2693233,11.330078 9.5,11.330078 c 0.2306767,0 0.4905786,0.08648 0.806641,0.390625 l 4.986328,4.986328 a 1,1 0 0 0 1.414062,0 1,1 0 0 0 0,-1.414062 l -5,-5 a 1.0001,1.0001 0 0 0 -0.01367,-0.01367 C 11.081422,9.6904393 10.305322,9.3300781 9.5,9.3300781 Z"
       id="path3" />
    <path
       style="color:#000000;fill:#2c3e50;stroke-linecap:round;stroke-linejoin:round;-inkscape-stroke:none"
       d="m 16.5,11.330078 c -0.805322,0 -1.581422,0.360361 -2.193359,0.949219 a 1.0001,1.0001 0 0 0 -0.01367,0.01367 l -1,1 a 1,1 0 0 0 0,1.414062 1,1 0 0 0 1.414062,0 l 0.986328,-0.986328 c 0.316062,-0.304141 0.575964,-0.390625 0.806641,-0.390625 0.230677,0 0.490579,0.08648 0.806641,0.390625 l 1.986328,1.986328 a 1,1 0 0 0 1.414062,0 1,1 0 0 0 0,-1.414062 l -2,-2 a 1.0001,1.0001 0 0 0 -0.01367,-0.01367 C 18.081422,11.690439 17.305322,11.330078 16.5,11.330078 Z"
       id="path4" />
  </g>
  <defs
     id="defs4">
    <clipPath
       id="clip0_20119_628">
      <rect
         width="24"
         height="24"
         fill="white"
         id="rect4" />
    </clipPath>
  </defs>
</svg>
