<?xml version="1.0" encoding="UTF-8" standalone="no"?>
<svg
   width="24"
   height="24"
   viewBox="0 0 24 24"
   fill="none"
   version="1.1"
   id="svg5"
   sodipodi:docname="photo-search_2px.svg"
   inkscape:version="1.3.2 (091e20e, 2023-11-25)"
   xmlns:inkscape="http://www.inkscape.org/namespaces/inkscape"
   xmlns:sodipodi="http://sodipodi.sourceforge.net/DTD/sodipodi-0.dtd"
   xmlns="http://www.w3.org/2000/svg"
   xmlns:svg="http://www.w3.org/2000/svg">
  <sodipodi:namedview
     id="namedview5"
     pagecolor="#505050"
     bordercolor="#eeeeee"
     borderopacity="1"
     inkscape:showpageshadow="0"
     inkscape:pageopacity="0"
     inkscape:pagecheckerboard="0"
     inkscape:deskcolor="#505050"
     inkscape:zoom="9.8333333"
     inkscape:cx="11.949153"
     inkscape:cy="12"
     inkscape:window-width="1504"
     inkscape:window-height="449"
     inkscape:window-x="0"
     inkscape:window-y="25"
     inkscape:window-maximized="0"
     inkscape:current-layer="svg5" />
  <g
     clip-path="url(#clip0_20119_375)"
     id="g5">
    <path
       style="color:#000000;fill:#2c3e50;stroke-linecap:round;stroke-linejoin:round;-inkscape-stroke:none"
       d="m 15,7 a 1,1 0 0 0 -1,1 1,1 0 0 0 1,1 h 0.0098 a 1,1 0 0 0 1,-1 1,1 0 0 0 -1,-1 z"
       id="path1" />
    <path
       style="color:#000000;fill:#2c3e50;stroke-linecap:round;stroke-linejoin:round;-inkscape-stroke:none"
       d="M 6,2 C 4.9395194,2 3.9217482,2.4220018 3.171875,3.171875 2.4220018,3.9217482 2,4.9395194 2,6 v 12 c 0,1.060447 0.4219777,2.078241 1.171875,2.828125 C 3.9217349,21.577972 4.9394942,22 6,22 h 5.5 a 1,1 0 0 0 1,-1 1,1 0 0 0 -1,-1 H 6 C 5.4692074,20 4.9612965,19.789415 4.5859375,19.414062 4.2106159,19.038748 4,18.530751 4,18 V 6 C 4,5.4691822 4.2105918,4.9612832 4.5859375,4.5859375 4.9612832,4.2105918 5.4691822,4 6,4 h 12 c 0.530751,0 1.038748,0.2106159 1.414062,0.5859375 C 19.789415,4.9612965 20,5.4692074 20,6 v 5.5 a 1,1 0 0 0 1,1 1,1 0 0 0 1,-1 V 6 C 22,4.9394942 21.577972,3.9217349 20.828125,3.171875 20.078241,2.4219777 19.060447,2 18,2 Z"
       id="path2" />
    <path
       style="color:#000000;fill:#2c3e50;stroke-linecap:round;stroke-linejoin:round;-inkscape-stroke:none"
       d="m 18,14 c -1.060472,0 -2.078254,0.422004 -2.828125,1.171875 C 14.422004,15.921746 14,16.939528 14,18 c 0,1.060472 0.422004,2.078254 1.171875,2.828125 C 15.921746,21.577996 16.939528,22 18,22 19.060472,22 20.078254,21.577996 20.828125,20.828125 21.577996,20.078254 22,19.060472 22,18 22,16.939528 21.577996,15.921746 20.828125,15.171875 20.078254,14.422004 19.060472,14 18,14 Z m 0,2 c 0.530726,0 1.038734,0.210609 1.414062,0.585937 C 19.789391,16.961266 20,17.469274 20,18 20,18.530726 19.789391,19.038734 19.414062,19.414062 19.038734,19.789391 18.530726,20 18,20 17.469274,20 16.961266,19.789391 16.585937,19.414062 16.210609,19.038734 16,18.530726 16,18 16,17.469274 16.210609,16.961266 16.585937,16.585937 16.961266,16.210609 17.469274,16 18,16 Z"
       id="path3" />
    <path
       style="color:#000000;fill:#2c3e50;stroke-linecap:round;stroke-linejoin:round;-inkscape-stroke:none"
       d="m 19.492187,19.492187 a 1,1 0 0 0 0,1.414063 l 1.800782,1.800781 a 1,1 0 0 0 1.414062,0 1,1 0 0 0 0,-1.414062 L 20.90625,19.492187 a 1,1 0 0 0 -1.414063,0 z"
       id="path4" />
    <path
       style="color:#000000;fill:#2c3e50;stroke-linecap:round;stroke-linejoin:round;-inkscape-stroke:none"
       d="m 9.5,9.3300781 c -0.8053222,0 -1.5814223,0.3603612 -2.1933594,0.9492189 a 1.0001,1.0001 0 0 0 -0.013672,0.01367 l -4.9999999,5 a 1,1 0 0 0 0,1.414062 1,1 0 0 0 1.4140625,0 L 8.6933594,11.720703 C 9.0094214,11.416562 9.2693233,11.330078 9.5,11.330078 c 0.2306767,0 0.4905786,0.08648 0.806641,0.390625 l 1.986328,1.986328 a 1,1 0 0 0 1.414062,0 1,1 0 0 0 0,-1.414062 l -2,-2 a 1.0001,1.0001 0 0 0 -0.01367,-0.01367 C 11.081422,9.6904393 10.305322,9.3300781 9.5,9.3300781 Z"
       id="path5" />
  </g>
  <defs
     id="defs5">
    <clipPath
       id="clip0_20119_375">
      <rect
         width="24"
         height="24"
         fill="white"
         id="rect5" />
    </clipPath>
  </defs>
</svg>
