<?xml version="1.0" encoding="UTF-8" standalone="no"?>
<svg
   width="24"
   height="24"
   viewBox="0 0 24 24"
   fill="none"
   version="1.1"
   id="svg4"
   sodipodi:docname="photo-hexagon_2px.svg"
   inkscape:version="1.3.2 (091e20e, 2023-11-25)"
   xmlns:inkscape="http://www.inkscape.org/namespaces/inkscape"
   xmlns:sodipodi="http://sodipodi.sourceforge.net/DTD/sodipodi-0.dtd"
   xmlns="http://www.w3.org/2000/svg"
   xmlns:svg="http://www.w3.org/2000/svg">
  <sodipodi:namedview
     id="namedview4"
     pagecolor="#505050"
     bordercolor="#eeeeee"
     borderopacity="1"
     inkscape:showpageshadow="0"
     inkscape:pageopacity="0"
     inkscape:pagecheckerboard="0"
     inkscape:deskcolor="#505050"
     inkscape:zoom="9.8333333"
     inkscape:cx="11.949153"
     inkscape:cy="12"
     inkscape:window-width="1504"
     inkscape:window-height="449"
     inkscape:window-x="0"
     inkscape:window-y="25"
     inkscape:window-maximized="0"
     inkscape:current-layer="svg4" />
  <g
     clip-path="url(#clip0_20119_679)"
     id="g4">
    <path
       style="color:#000000;fill:#2c3e50;stroke-linecap:round;stroke-linejoin:round;-inkscape-stroke:none"
       d="m 15,7 a 1,1 0 0 0 -1,1 1,1 0 0 0 1,1 h 0.0098 a 1,1 0 0 0 1,-1 1,1 0 0 0 -1,-1 z"
       id="path1" />
    <path
       style="color:#000000;fill:#2c3e50;stroke-linecap:round;stroke-linejoin:round;-inkscape-stroke:none"
       d="m 12.033203,1 c -0.562218,0 -1.114991,0.1425178 -1.607422,0.4140625 a 1.0001,1.0001 0 0 0 -0.02539,0.013672 L 3.6757813,5.3945312 C 2.6460773,5.9605084 2,7.0427383 2,8.2167969 v 7.2851561 a 1.0001,1.0001 0 0 0 0,0.002 c 0.00116,0.577806 0.1579134,1.143993 0.453125,1.640625 0.2952698,0.496731 0.7177194,0.906553 1.2246094,1.183594 l 6.6953126,4.236328 a 1.0001,1.0001 0 0 0 0.05273,0.03125 C 10.907747,22.860309 11.449875,23 12,23 c 0.550125,0 1.092253,-0.139691 1.574219,-0.404297 a 1.0001,1.0001 0 0 0 0.05273,-0.03125 l 6.75,-4.269531 -0.05273,0.03125 C 21.35455,17.75985 22,16.676012 22,15.501953 V 8.2246094 C 22.006836,7.1239867 21.41798,6.1271084 20.501953,5.53125 a 1.0001,1.0001 0 0 0 -0.08594,-0.1230469 l -6.75,-3.9804687 a 1.0001,1.0001 0 0 0 -0.02539,-0.013672 C 13.148194,1.1425178 12.595421,1 12.033203,1 Z m 0,2 c 0.223136,0 0.443058,0.057024 0.638672,0.1640625 l 6.697266,3.9492187 a 1.0001,1.0001 0 0 0 0.01172,0.025391 C 19.767709,7.3586234 20.002764,7.7658569 20,8.2109375 a 1.0001,1.0001 0 0 0 0,0.00781 v 7.283203 c 0,0.44394 -0.240958,0.852589 -0.640625,1.072266 a 1.0001,1.0001 0 0 0 -0.05273,0.03125 l -6.705078,4.240234 C 12.416577,20.945358 12.21011,21 12,21 11.78989,21 11.583423,20.945358 11.398438,20.845703 L 4.6933594,16.605469 a 1.0001,1.0001 0 0 0 -0.056641,-0.0332 C 4.4439494,16.466907 4.2840248,16.311716 4.171875,16.123047 4.0599939,15.93483 4.0007816,15.720881 4,15.501953 V 8.2167969 C 4,7.7728571 4.2403304,7.3665065 4.640625,7.1464844 a 1.0001,1.0001 0 0 0 0.025391,-0.015625 l 6.7246094,-3.9648438 0.0039,-0.00195 C 11.590146,3.0570241 11.810067,3 12.033203,3 Z"
       id="path2" />
    <path
       style="color:#000000;fill:#2c3e50;stroke-linecap:round;stroke-linejoin:round;-inkscape-stroke:none"
       d="m 9.5,9.3300781 c -0.8053222,0 -1.5814223,0.3603612 -2.1933594,0.9492189 a 1.0001,1.0001 0 0 0 -0.013672,0.01367 l -4.4999999,4.5 a 1,1 0 0 0 0,1.414062 1,1 0 0 0 1.4140624,0 L 8.6933594,11.720703 C 9.0094214,11.416562 9.2693233,11.330078 9.5,11.330078 c 0.2306767,0 0.4905786,0.08648 0.806641,0.390625 l 4.986328,4.986328 a 1,1 0 0 0 1.414062,0 1,1 0 0 0 0,-1.414062 l -5,-5 a 1.0001,1.0001 0 0 0 -0.01367,-0.01367 C 11.081422,9.6904393 10.305322,9.3300781 9.5,9.3300781 Z"
       id="path3" />
    <path
       style="color:#000000;fill:#2c3e50;stroke-linecap:round;stroke-linejoin:round;-inkscape-stroke:none"
       d="m 16.5,11.330078 c -0.805322,0 -1.581422,0.360361 -2.193359,0.949219 a 1.0001,1.0001 0 0 0 -0.01367,0.01367 l -1,1 a 1,1 0 0 0 0,1.414062 1,1 0 0 0 1.414062,0 l 0.986328,-0.986328 c 0.316062,-0.304141 0.575964,-0.390625 0.806641,-0.390625 0.230677,0 0.490579,0.08648 0.806641,0.390625 l 2.486328,2.486328 a 1,1 0 0 0 1.414062,0 1,1 0 0 0 0,-1.414062 l -2.5,-2.5 a 1.0001,1.0001 0 0 0 -0.01367,-0.01367 C 18.081422,11.690439 17.305322,11.330078 16.5,11.330078 Z"
       id="path4" />
  </g>
  <defs
     id="defs4">
    <clipPath
       id="clip0_20119_679">
      <rect
         width="24"
         height="24"
         fill="white"
         id="rect4" />
    </clipPath>
  </defs>
</svg>
