<?xml version="1.0" encoding="UTF-8" standalone="no"?>
<svg
   width="24"
   height="24"
   viewBox="0 0 24 24"
   fill="none"
   version="1.1"
   id="svg5"
   sodipodi:docname="photo-off_2px.svg"
   inkscape:version="1.3.2 (091e20e, 2023-11-25)"
   xmlns:inkscape="http://www.inkscape.org/namespaces/inkscape"
   xmlns:sodipodi="http://sodipodi.sourceforge.net/DTD/sodipodi-0.dtd"
   xmlns="http://www.w3.org/2000/svg"
   xmlns:svg="http://www.w3.org/2000/svg">
  <sodipodi:namedview
     id="namedview5"
     pagecolor="#505050"
     bordercolor="#eeeeee"
     borderopacity="1"
     inkscape:showpageshadow="0"
     inkscape:pageopacity="0"
     inkscape:pagecheckerboard="0"
     inkscape:deskcolor="#505050"
     inkscape:zoom="9.8333333"
     inkscape:cx="11.949153"
     inkscape:cy="12"
     inkscape:window-width="1504"
     inkscape:window-height="449"
     inkscape:window-x="0"
     inkscape:window-y="25"
     inkscape:window-maximized="0"
     inkscape:current-layer="svg5" />
  <g
     clip-path="url(#clip0_20123_84)"
     id="g5">
    <path
       style="color:#000000;fill:#2c3e50;stroke-linecap:round;stroke-linejoin:round;-inkscape-stroke:none"
       d="m 15,7 a 1,1 0 0 0 -1,1 1,1 0 0 0 1,1 h 0.0098 a 1,1 0 0 0 1,-1 1,1 0 0 0 -1,-1 z"
       id="path1" />
    <path
       style="color:#000000;fill:#2c3e50;stroke-linecap:round;stroke-linejoin:round;-inkscape-stroke:none"
       d="M 7,2 A 1,1 0 0 0 6,3 1,1 0 0 0 7,4 h 11 c 0.530751,0 1.038748,0.2106159 1.414062,0.5859375 C 19.789415,4.9612965 20,5.4692074 20,6 v 11 a 1,1 0 0 0 1,1 1,1 0 0 0 1,-1 V 6 C 22,4.9394942 21.577972,3.9217349 20.828125,3.171875 20.078241,2.4219777 19.060447,2 18,2 Z M 3.9238281,2.8476563 a 1,1 0 0 0 -0.7109375,0.28125 C 2.4659842,3.8545105 2,4.879656 2,6 v 12 c 0,1.060447 0.4219777,2.078241 1.171875,2.828125 C 3.9217349,21.577972 4.9394942,22 6,22 h 11.998047 c 0.532923,8.01e-4 1.061291,-0.105942 1.552734,-0.3125 0.491464,-0.20649 0.93626,-0.509487 1.308594,-0.890625 a 1,1 0 0 0 -0.01563,-1.414063 1,1 0 0 0 -1.416016,0.01758 C 19.241869,19.590652 19.020326,19.74084 18.775391,19.84375 18.530235,19.946791 18.267829,20.000399 18.001953,20 A 1.0001,1.0001 0 0 0 18,20 H 6 C 5.4692074,20 4.9612965,19.789415 4.5859375,19.414062 4.2106159,19.038748 4,18.530751 4,18 V 6 C 4,5.4303457 4.2323294,4.9288478 4.6074219,4.5644531 A 1,1 0 0 0 4.6269531,3.1503906 1,1 0 0 0 3.9238281,2.8476563 Z"
       id="path2" />
    <path
       style="color:#000000;fill:#2c3e50;stroke-linecap:round;stroke-linejoin:round;-inkscape-stroke:none"
       d="m 9.5,9.3300781 c -0.8053222,0 -1.5814223,0.3603612 -2.1933594,0.9492189 a 1.0001,1.0001 0 0 0 -0.013672,0.01367 l -4.9999999,5 a 1,1 0 0 0 0,1.414062 1,1 0 0 0 1.4140625,0 L 8.6933594,11.720703 C 9.0094214,11.416562 9.2693233,11.330078 9.5,11.330078 c 0.2306767,0 0.4905786,0.08648 0.806641,0.390625 l 4.986328,4.986328 a 1,1 0 0 0 1.414062,0 1,1 0 0 0 0,-1.414062 l -5,-5 a 1.0001,1.0001 0 0 0 -0.01367,-0.01367 C 11.081422,9.6904393 10.305322,9.3300781 9.5,9.3300781 Z"
       id="path3" />
    <path
       style="color:#000000;fill:#2c3e50;stroke-linecap:round;stroke-linejoin:round;-inkscape-stroke:none"
       d="m 16.236328,11.341797 a 1,1 0 0 0 -0.902344,1.089844 1,1 0 0 0 1.089844,0.902343 c 0.259189,-0.02438 0.532064,0.04891 0.882813,0.386719 l 2.986328,2.986328 a 1,1 0 0 0 1.414062,0 1,1 0 0 0 0,-1.414062 l -3,-3 a 1.0001,1.0001 0 0 0 -0.01367,-0.01367 c -0.67925,-0.654191 -1.568221,-1.021116 -2.457031,-0.9375 z"
       id="path4" />
    <path
       style="color:#000000;fill:#2c3e50;stroke-linecap:round;stroke-linejoin:round;-inkscape-stroke:none"
       d="m 3,2 a 1,1 0 0 0 -0.7070312,0.2929688 1,1 0 0 0 0,1.4140625 L 20.292969,21.707031 a 1,1 0 0 0 1.414062,0 1,1 0 0 0 0,-1.414062 L 3.7070313,2.2929688 A 1,1 0 0 0 3,2 Z"
       id="path5" />
  </g>
  <defs
     id="defs5">
    <clipPath
       id="clip0_20123_84">
      <rect
         width="24"
         height="24"
         fill="white"
         id="rect5" />
    </clipPath>
  </defs>
</svg>
