<?xml version="1.0" encoding="UTF-8" standalone="no"?>
<svg
   width="24"
   height="24"
   viewBox="0 0 24 24"
   fill="none"
   version="1.1"
   id="svg7"
   sodipodi:docname="photo-scan_2px.svg"
   inkscape:version="1.3.2 (091e20e, 2023-11-25)"
   xmlns:inkscape="http://www.inkscape.org/namespaces/inkscape"
   xmlns:sodipodi="http://sodipodi.sourceforge.net/DTD/sodipodi-0.dtd"
   xmlns="http://www.w3.org/2000/svg"
   xmlns:svg="http://www.w3.org/2000/svg">
  <sodipodi:namedview
     id="namedview7"
     pagecolor="#505050"
     bordercolor="#eeeeee"
     borderopacity="1"
     inkscape:showpageshadow="0"
     inkscape:pageopacity="0"
     inkscape:pagecheckerboard="0"
     inkscape:deskcolor="#505050"
     inkscape:zoom="9.8333333"
     inkscape:cx="11.949153"
     inkscape:cy="12"
     inkscape:window-width="1504"
     inkscape:window-height="449"
     inkscape:window-x="0"
     inkscape:window-y="25"
     inkscape:window-maximized="0"
     inkscape:current-layer="svg7" />
  <g
     clip-path="url(#clip0_20119_669)"
     id="g7">
    <path
       style="color:#000000;fill:#2c3e50;stroke-linecap:round;stroke-linejoin:round;-inkscape-stroke:none"
       d="m 15,7 a 1,1 0 0 0 -1,1 1,1 0 0 0 1,1 h 0.0098 a 1,1 0 0 0 1,-1 1,1 0 0 0 -1,-1 z"
       id="path1" />
    <path
       style="color:#000000;fill:#2c3e50;stroke-linecap:round;stroke-linejoin:round;-inkscape-stroke:none"
       d="m 9.5,9.0019531 c -0.2906542,0 -0.577913,0.057119 -0.8457031,0.1679688 -0.2680653,0.1111463 -0.513422,0.2729501 -0.71875,0.4785156 L 5.2929687,12.292969 a 1,1 0 0 0 0,1.414062 1,1 0 0 0 1.4140625,0 L 9.3515625,11.0625 c 0.019412,-0.01943 0.042665,-0.03427 0.068359,-0.04492 0.02597,-0.01075 0.052753,-0.01563 0.080078,-0.01563 0.027325,0 0.054108,0.0049 0.080078,0.01563 0.025636,0.01063 0.048772,0.02532 0.068359,0.04492 l 3.6445315,3.644531 a 1,1 0 0 0 1.414062,0 1,1 0 0 0 0,-1.414062 L 11.0625,9.6484375 C 10.857288,9.443043 10.613847,9.2810931 10.345703,9.1699219 10.077913,9.0590719 9.7906542,9.0019531 9.5,9.0019531 Z"
       id="path2" />
    <path
       style="color:#000000;fill:#2c3e50;stroke-linecap:round;stroke-linejoin:round;-inkscape-stroke:none"
       d="m 15.5,10.001953 c -0.290656,0 -0.577993,0.05717 -0.845703,0.167969 -0.268162,0.111171 -0.511585,0.273121 -0.716797,0.478516 l -1.644531,1.644531 a 1,1 0 0 0 0,1.414062 1,1 0 0 0 1.414062,0 L 15.351563,12.0625 c 0.01959,-0.01961 0.04272,-0.03429 0.06836,-0.04492 0.02609,-0.0108 0.05273,-0.01563 0.08008,-0.01563 0.02734,0 0.05399,0.0048 0.08008,0.01563 0.02564,0.01063 0.04877,0.02532 0.06836,0.04492 l 1.644531,1.644531 a 1,1 0 0 0 1.414062,0 1,1 0 0 0 0,-1.414062 L 17.0625,10.648438 C 16.857288,10.443043 16.613865,10.281093 16.345703,10.169922 16.077993,10.05912 15.790656,10.001953 15.5,10.001953 Z"
       id="path3" />
    <path
       style="color:#000000;fill:#2c3e50;stroke-linecap:round;stroke-linejoin:round;-inkscape-stroke:none"
       d="M 6,3 C 5.2047416,3 4.4412465,3.316551 3.8789063,3.8789063 3.316551,4.4412465 3,5.2047416 3,6 V 8 A 1,1 0 0 0 4,9 1,1 0 0 0 5,8 V 6 C 5,5.7343994 5.1051647,5.4807678 5.2929687,5.2929687 5.4807678,5.1051647 5.7343994,5 6,5 H 8 A 1,1 0 0 0 9,4 1,1 0 0 0 8,3 Z"
       id="path4" />
    <path
       style="color:#000000;fill:#2c3e50;stroke-linecap:round;stroke-linejoin:round;-inkscape-stroke:none"
       d="m 4,15 a 1,1 0 0 0 -1,1 v 2 c 0,0.795243 0.3165904,1.558748 0.8789063,2.121094 C 4.4412548,20.683487 5.2047542,21 6,21 H 8 A 1,1 0 0 0 9,20 1,1 0 0 0 8,19 H 6 C 5.7343869,19 5.4807594,18.894837 5.2929687,18.707031 5.1051254,18.519178 5,18.265556 5,18 V 16 A 1,1 0 0 0 4,15 Z"
       id="path5" />
    <path
       style="color:#000000;fill:#2c3e50;stroke-linecap:round;stroke-linejoin:round;-inkscape-stroke:none"
       d="m 16,3 a 1,1 0 0 0 -1,1 1,1 0 0 0 1,1 h 2 c 0.265556,0 0.519178,0.1051254 0.707031,0.2929687 C 18.894837,5.4807594 19,5.7343869 19,6 v 2 a 1,1 0 0 0 1,1 1,1 0 0 0 1,-1 V 6 C 21,5.2047542 20.683487,4.4412548 20.121094,3.8789063 19.558748,3.3165904 18.795243,3 18,3 Z"
       id="path6" />
    <path
       style="color:#000000;fill:#2c3e50;stroke-linecap:round;stroke-linejoin:round;-inkscape-stroke:none"
       d="m 20,15 a 1,1 0 0 0 -1,1 v 2 c 0,0.265568 -0.105124,0.519186 -0.292969,0.707031 C 18.519186,18.894876 18.265568,19 18,19 h -2 a 1,1 0 0 0 -1,1 1,1 0 0 0 1,1 h 2 c 0.795231,0 1.55874,-0.316552 2.121094,-0.878906 C 20.683448,19.55874 21,18.795231 21,18 v -2 a 1,1 0 0 0 -1,-1 z"
       id="path7" />
  </g>
  <defs
     id="defs7">
    <clipPath
       id="clip0_20119_669">
      <rect
         width="24"
         height="24"
         fill="white"
         id="rect7" />
    </clipPath>
  </defs>
</svg>
