<svg width="24" height="24" viewBox="0 0 24 24" fill="none" xmlns="http://www.w3.org/2000/svg">
<g clip-path="url(#clip0_17720_568)">
<mask id="mask0_17720_568" style="mask-type:luminance" maskUnits="userSpaceOnUse" x="0" y="0" width="24" height="24">
<path d="M24 0H0V24H24V0Z" fill="white"/>
</mask>
<g mask="url(#mask0_17720_568)">
<path d="M15 7.25C14.8011 7.25 14.6103 7.32902 14.4697 7.46967C14.329 7.61032 14.25 7.80109 14.25 8C14.25 8.19891 14.329 8.38968 14.4697 8.53033C14.6103 8.67098 14.8011 8.75 15 8.75H15.0098C15.2087 8.75 15.3995 8.67098 15.5401 8.53033C15.6808 8.38968 15.7598 8.19891 15.7598 8C15.7598 7.80109 15.6808 7.61032 15.5401 7.46967C15.3995 7.32902 15.2087 7.25 15.0098 7.25H15Z" fill="#2C3E50"/>
<path d="M6 2.25C5.00573 2.25 4.05071 2.6446 3.34766 3.34766C2.6446 4.05071 2.25 5.00573 2.25 6V18C2.25 18.9942 2.64458 19.9493 3.34766 20.6523C4.0507 21.3554 5.00571 21.75 6 21.75H18C18.9943 21.75 19.9493 21.3554 20.6523 20.6523C21.3554 19.9493 21.75 18.9943 21.75 18V6C21.75 5.00571 21.3554 4.0507 20.6523 3.34766C19.9493 2.64458 18.9942 2.25 18 2.25H6ZM6 3.75H18C18.597 3.75 19.1697 3.98606 19.5918 4.4082C20.014 4.83037 20.25 5.40299 20.25 6V18C20.25 18.5969 20.0139 19.1697 19.5918 19.5918C19.1697 20.0139 18.5969 20.25 18 20.25H6C5.40299 20.25 4.83037 20.014 4.4082 19.5918C3.98606 19.1697 3.75 18.597 3.75 18V6C3.75 5.40297 3.98604 4.83036 4.4082 4.4082C4.83036 3.98604 5.40297 3.75 6 3.75Z" fill="#2C3E50"/>
<path d="M9.49989 9.58008C8.7664 9.58008 8.05531 9.90572 7.48036 10.459C7.47642 10.4622 7.47251 10.4655 7.46864 10.4688L2.46864 15.4688C2.39872 15.5385 2.34324 15.6213 2.30539 15.7124C2.26753 15.8036 2.24805 15.9013 2.24805 16C2.24805 16.0987 2.26753 16.1965 2.30539 16.2876C2.34324 16.3788 2.39872 16.4616 2.46864 16.5313C2.53832 16.6012 2.62111 16.6567 2.71227 16.6945C2.80344 16.7324 2.90118 16.7519 2.99989 16.7519C3.0986 16.7519 3.19634 16.7324 3.2875 16.6945C3.37867 16.6567 3.46146 16.6012 3.53114 16.5313L8.51942 11.541L8.52333 11.5391C8.87472 11.2025 9.1986 11.0801 9.49989 11.0801C9.80118 11.0801 10.1251 11.2025 10.4765 11.5391L15.4686 16.5312C15.5383 16.6012 15.6211 16.6566 15.7123 16.6945C15.8034 16.7324 15.9012 16.7518 15.9999 16.7518C16.0986 16.7518 16.1963 16.7324 16.2875 16.6945C16.3787 16.6566 16.4615 16.6012 16.5311 16.5312C16.6011 16.4616 16.6565 16.3788 16.6944 16.2876C16.7322 16.1965 16.7517 16.0987 16.7517 16C16.7517 15.9013 16.7322 15.8035 16.6944 15.7124C16.6565 15.6212 16.6011 15.5384 16.5311 15.4688L11.5311 10.4688C11.5273 10.4654 11.5234 10.4622 11.5194 10.459C10.9445 9.90572 10.2334 9.58008 9.49989 9.58008Z" fill="#2C3E50"/>
<path d="M16.4999 11.5801C15.7664 11.5801 15.0553 11.9057 14.4804 12.459C14.4764 12.4622 14.4725 12.4655 14.4686 12.4688L13.4686 13.4688C13.3987 13.5385 13.3432 13.6213 13.3054 13.7124C13.2675 13.8036 13.248 13.9013 13.248 14C13.248 14.0987 13.2675 14.1965 13.3054 14.2876C13.3432 14.3788 13.3987 14.4616 13.4686 14.5313C13.5383 14.6012 13.6211 14.6567 13.7123 14.6945C13.8034 14.7324 13.9012 14.7519 13.9999 14.7519C14.0986 14.7519 14.1963 14.7324 14.2875 14.6945C14.3787 14.6567 14.4615 14.6012 14.5311 14.5313L15.5194 13.541L15.5233 13.5391C15.8747 13.2024 16.1986 13.0801 16.4999 13.0801C16.8012 13.0801 17.1251 13.2024 17.4764 13.5391L20.4686 16.5312C20.5383 16.6012 20.6211 16.6566 20.7123 16.6945C20.8034 16.7323 20.9012 16.7518 20.9999 16.7518C21.0986 16.7518 21.1963 16.7323 21.2875 16.6945C21.3787 16.6566 21.4615 16.6012 21.5311 16.5312C21.6011 16.4616 21.6565 16.3788 21.6944 16.2876C21.7322 16.1964 21.7517 16.0987 21.7517 16C21.7517 15.9013 21.7322 15.8035 21.6944 15.7124C21.6565 15.6212 21.6011 15.5384 21.5311 15.4687L18.5311 12.4687C18.5273 12.4654 18.5234 12.4622 18.5194 12.4589C17.9445 11.9057 17.2334 11.5801 16.4999 11.5801Z" fill="#2C3E50"/>
</g>
</g>
<defs>
<clipPath id="clip0_17720_568">
<rect width="24" height="24" fill="white"/>
</clipPath>
</defs>
</svg>
