<?xml version="1.0" encoding="UTF-8" standalone="no"?>
<svg
   width="24"
   height="24"
   viewBox="0 0 24 24"
   fill="none"
   version="1.1"
   id="svg4"
   sodipodi:docname="photo-circle_2px.svg"
   inkscape:version="1.3.2 (091e20e, 2023-11-25)"
   xmlns:inkscape="http://www.inkscape.org/namespaces/inkscape"
   xmlns:sodipodi="http://sodipodi.sourceforge.net/DTD/sodipodi-0.dtd"
   xmlns="http://www.w3.org/2000/svg"
   xmlns:svg="http://www.w3.org/2000/svg">
  <sodipodi:namedview
     id="namedview4"
     pagecolor="#505050"
     bordercolor="#eeeeee"
     borderopacity="1"
     inkscape:showpageshadow="0"
     inkscape:pageopacity="0"
     inkscape:pagecheckerboard="0"
     inkscape:deskcolor="#505050"
     inkscape:zoom="9.8333333"
     inkscape:cx="11.949153"
     inkscape:cy="12"
     inkscape:window-width="1504"
     inkscape:window-height="449"
     inkscape:window-x="0"
     inkscape:window-y="25"
     inkscape:window-maximized="0"
     inkscape:current-layer="svg4" />
  <g
     clip-path="url(#clip0_20119_686)"
     id="g4">
    <path
       style="color:#000000;fill:#2c3e50;stroke-linecap:round;stroke-linejoin:round;-inkscape-stroke:none"
       d="m 15,7 a 1,1 0 0 0 -1,1 1,1 0 0 0 1,1 h 0.0098 a 1,1 0 0 0 1,-1 1,1 0 0 0 -1,-1 z"
       id="path1" />
    <path
       style="color:#000000;fill:#2c3e50;stroke-linecap:round;stroke-linejoin:round;-inkscape-stroke:none"
       d="m 9.5,9.3300781 c -0.8053222,0 -1.5814223,0.3603612 -2.1933594,0.9492189 a 1.0001,1.0001 0 0 0 -0.013672,0.01367 l -3.9999999,4 a 1,1 0 0 0 0,1.414062 1,1 0 0 0 1.4140624,0 L 8.6933594,11.720703 C 9.0094214,11.416562 9.2693233,11.330078 9.5,11.330078 c 0.2306767,0 0.4905786,0.08648 0.806641,0.390625 l 4.986328,4.986328 a 1,1 0 0 0 1.414062,0 1,1 0 0 0 0,-1.414062 l -5,-5 a 1.0001,1.0001 0 0 0 -0.01367,-0.01367 C 11.081422,9.6904393 10.305322,9.3300781 9.5,9.3300781 Z"
       id="path2" />
    <path
       style="color:#000000;fill:#2c3e50;stroke-linecap:round;stroke-linejoin:round;-inkscape-stroke:none"
       d="m 16.5,11.330078 c -0.805322,0 -1.581422,0.360361 -2.193359,0.949219 a 1.0001,1.0001 0 0 0 -0.01367,0.01367 l -1,1 a 1,1 0 0 0 0,1.414062 1,1 0 0 0 1.414062,0 l 0.986328,-0.986328 c 0.316062,-0.304141 0.575964,-0.390625 0.806641,-0.390625 0.230677,0 0.490579,0.08648 0.806641,0.390625 l 1.986328,1.986328 a 1,1 0 0 0 1.414062,0 1,1 0 0 0 0,-1.414062 l -2,-2 a 1.0001,1.0001 0 0 0 -0.01367,-0.01367 C 18.081422,11.690439 17.305322,11.330078 16.5,11.330078 Z"
       id="path3" />
    <path
       style="color:#000000;fill:#2c3e50;stroke-linecap:round;stroke-linejoin:round;-inkscape-stroke:none"
       d="M 12,2 C 9.348221,2 6.8047795,3.0545955 4.9296875,4.9296875 3.0545955,6.8047795 2,9.348221 2,12 2,14.651735 3.0546098,17.195157 4.9296875,19.070312 6.8047803,20.945372 9.3482238,22 12,22 14.651732,22 17.195156,20.945358 19.070312,19.070312 20.945358,17.195156 22,14.651732 22,12 22,9.3482238 20.945372,6.8047803 19.070312,4.9296875 17.195157,3.0546098 14.651735,2 12,2 Z m 0,2 c 2.122061,0 4.155609,0.8431711 5.65625,2.34375 C 19.156787,7.8443139 20,9.877881 20,12 20,14.122063 19.156802,16.15561 17.65625,17.65625 16.15561,19.156802 14.122063,20 12,20 9.877881,20 7.8443139,19.156787 6.34375,17.65625 4.8431711,16.155609 4,14.122061 4,12 4,9.8778838 4.8431854,7.8443146 6.34375,6.34375 7.8443146,4.8431854 9.8778838,4 12,4 Z"
       id="path4" />
  </g>
  <defs
     id="defs4">
    <clipPath
       id="clip0_20119_686">
      <rect
         width="24"
         height="24"
         fill="white"
         id="rect4" />
    </clipPath>
  </defs>
</svg>
