<?xml version="1.0" encoding="UTF-8" standalone="no"?>
<svg
   width="24"
   height="24"
   viewBox="0 0 24 24"
   fill="none"
   version="1.1"
   id="svg5"
   sodipodi:docname="photo-edit_2px.svg"
   inkscape:version="1.3.2 (091e20e, 2023-11-25)"
   xmlns:inkscape="http://www.inkscape.org/namespaces/inkscape"
   xmlns:sodipodi="http://sodipodi.sourceforge.net/DTD/sodipodi-0.dtd"
   xmlns="http://www.w3.org/2000/svg"
   xmlns:svg="http://www.w3.org/2000/svg">
  <sodipodi:namedview
     id="namedview5"
     pagecolor="#505050"
     bordercolor="#eeeeee"
     borderopacity="1"
     inkscape:showpageshadow="0"
     inkscape:pageopacity="0"
     inkscape:pagecheckerboard="0"
     inkscape:deskcolor="#505050"
     inkscape:zoom="9.8333333"
     inkscape:cx="11.949153"
     inkscape:cy="12"
     inkscape:window-width="1504"
     inkscape:window-height="449"
     inkscape:window-x="0"
     inkscape:window-y="25"
     inkscape:window-maximized="0"
     inkscape:current-layer="svg5" />
  <g
     clip-path="url(#clip0_20119_612)"
     id="g5">
    <path
       style="color:#000000;fill:#2c3e50;stroke-linecap:round;stroke-linejoin:round;-inkscape-stroke:none"
       d="m 15,7 a 1,1 0 0 0 -1,1 1,1 0 0 0 1,1 h 0.0098 a 1,1 0 0 0 1,-1 1,1 0 0 0 -1,-1 z"
       id="path1" />
    <path
       style="color:#000000;fill:#2c3e50;stroke-linecap:round;stroke-linejoin:round;-inkscape-stroke:none"
       d="M 7,3 C 5.9395194,3 4.9217482,3.4220018 4.171875,4.171875 3.4220018,4.9217482 3,5.9395194 3,7 v 10 c 0,1.060447 0.4219777,2.078241 1.171875,2.828125 C 4.9217349,20.577972 5.9394942,21 7,21 h 4 a 1,1 0 0 0 1,-1 1,1 0 0 0 -1,-1 H 7 C 6.4692074,19 5.9612965,18.789415 5.5859375,18.414062 5.2106159,18.038748 5,17.530751 5,17 V 7 C 5,6.4691822 5.2105918,5.9612832 5.5859375,5.5859375 5.9612832,5.2105918 6.4691822,5 7,5 h 10 c 0.530751,0 1.038748,0.2106159 1.414062,0.5859375 C 18.789415,5.9612965 19,6.4692074 19,7 v 4 a 1,1 0 0 0 1,1 1,1 0 0 0 1,-1 V 7 C 21,5.9394942 20.577972,4.9217349 19.828125,4.171875 19.078241,3.4219777 18.060447,3 17,3 Z"
       id="path2" />
    <path
       style="color:#000000;fill:#2c3e50;stroke-linecap:round;stroke-linejoin:round;-inkscape-stroke:none"
       d="m 9.5,9.3300781 c -0.8053222,0 -1.5814223,0.3603612 -2.1933594,0.9492189 a 1.0001,1.0001 0 0 0 -0.013672,0.01367 l -3.9999999,4 a 1,1 0 0 0 0,1.414062 1,1 0 0 0 1.4140624,0 L 8.6933594,11.720703 C 9.0094214,11.416562 9.2693233,11.330078 9.5,11.330078 c 0.2306767,0 0.4905786,0.08648 0.806641,0.390625 l 2.986328,2.986328 a 1,1 0 0 0 1.414062,0 1,1 0 0 0 0,-1.414062 l -3,-3 a 1.0001,1.0001 0 0 0 -0.01367,-0.01367 C 11.081422,9.6904393 10.305322,9.3300781 9.5,9.3300781 Z"
       id="path3" />
    <path
       style="color:#000000;fill:#2c3e50;stroke-linecap:round;stroke-linejoin:round;-inkscape-stroke:none"
       d="m 15.708984,11.443359 c -0.519857,0.150047 -0.993982,0.443384 -1.402343,0.835938 a 1.0001,1.0001 0 0 0 -0.01367,0.01367 l -1,1 a 1,1 0 0 0 0,1.414062 1,1 0 0 0 1.414062,0 l 0.986328,-0.986328 c 0.211639,-0.203446 0.404171,-0.307515 0.570313,-0.355469 a 1,1 0 0 0 0.683594,-1.238281 1,1 0 0 0 -1.238282,-0.683594 z"
       id="path4" />
    <path
       style="color:#000000;fill:#2c3e50;stroke-linecap:round;stroke-linejoin:round;-inkscape-stroke:none"
       d="m 19.904297,13.994141 c -0.407054,0 -0.809453,0.08061 -1.185547,0.236328 -0.376001,0.15583 -0.718029,0.384045 -1.005859,0.671875 l -3.416016,3.386718 A 1.0001,1.0001 0 0 0 14,19 v 3 a 1.0001,1.0001 0 0 0 1,1 h 3 a 1.0001,1.0001 0 0 0 0.710937,-0.296875 l 3.386719,-3.416016 0.002,-0.0039 c 0.286375,-0.287184 0.514699,-0.627062 0.669922,-1.001953 0.15594,-0.376264 0.236328,-0.778493 0.236328,-1.185547 0,-0.407054 -0.08039,-0.811236 -0.236328,-1.1875 -0.155781,-0.376238 -0.384045,-0.718029 -0.671875,-1.005859 -0.28783,-0.28783 -0.629859,-0.516045 -1.005859,-0.671875 -0.376094,-0.155722 -0.780446,-0.236328 -1.1875,-0.236328 z m 0,2 c 0.144545,0 0.288369,0.02871 0.421875,0.08398 0.133599,0.05537 0.255252,0.136112 0.357422,0.238281 0.102169,0.10217 0.183063,0.224061 0.238281,0.357422 0.05526,0.133336 0.08398,0.27733 0.08398,0.421875 0,0.144545 -0.02872,0.286587 -0.08398,0.419922 -0.05522,0.133361 -0.136112,0.255252 -0.238281,0.357422 a 1.0001,1.0001 0 0 0 -0.0039,0.0039 L 17.583984,21 H 16 v -1.583984 l 3.123047,-3.095704 a 1.0001,1.0001 0 0 0 0.0039,-0.0039 c 0.10217,-0.102169 0.223823,-0.182912 0.357422,-0.238281 0.133506,-0.05528 0.275377,-0.08398 0.419922,-0.08398 z"
       id="path5" />
  </g>
  <defs
     id="defs5">
    <clipPath
       id="clip0_20119_612">
      <rect
         width="24"
         height="24"
         fill="white"
         id="rect5" />
    </clipPath>
  </defs>
</svg>
