<svg width="24" height="24" viewBox="0 0 24 24" fill="none" xmlns="http://www.w3.org/2000/svg">
<g clip-path="url(#clip0_20120_1231)">
<path d="M15.1129 3.21001L15.2069 3.29301L20.7069 8.79301C20.8755 8.96248 20.9778 9.18674 20.9952 9.42514C21.0127 9.66354 20.9442 9.90031 20.8021 10.0926C20.6601 10.2848 20.4538 10.4198 20.2208 10.4731C19.9878 10.5264 19.7434 10.4944 19.5319 10.383L16.3599 13.554L14.9359 17.351C14.8984 17.4512 14.845 17.5447 14.7779 17.628L14.7079 17.708L13.2079 19.208C13.0356 19.38 12.8064 19.4833 12.5634 19.4984C12.3204 19.5135 12.0802 19.4394 11.8879 19.29L11.7929 19.207L8.99988 16.415L5.20688 20.207C5.02693 20.3864 4.78545 20.4905 4.5315 20.4982C4.27755 20.506 4.03017 20.4168 3.83961 20.2488C3.64904 20.0807 3.52958 19.8465 3.50549 19.5935C3.48139 19.3406 3.55447 19.088 3.70988 18.887L3.79288 18.793L7.58488 15L4.79288 12.207C4.62071 12.0348 4.51728 11.8057 4.502 11.5627C4.48671 11.3197 4.56063 11.0794 4.70988 10.887L4.79288 10.793L6.29288 9.29301C6.36834 9.21729 6.45544 9.15415 6.55088 9.10601L6.64888 9.06401L10.4449 7.63901L13.6159 4.46901C13.5078 4.26684 13.4724 4.03366 13.5157 3.80851C13.559 3.58337 13.6783 3.37994 13.8537 3.23231C14.0291 3.08467 14.25 3.00179 14.4792 2.99755C14.7084 2.99331 14.9321 3.06896 15.1129 3.21001Z" fill="black"/>
</g>
<defs>
<clipPath id="clip0_20120_1231">
<rect width="24" height="24" fill="white"/>
</clipPath>
</defs>
</svg>
