<?xml version="1.0" encoding="UTF-8" standalone="no"?>
<svg
   width="24"
   height="24"
   viewBox="0 0 24 24"
   fill="none"
   version="1.1"
   id="svg3"
   sodipodi:docname="pin_2px.svg"
   inkscape:version="1.3.2 (091e20e, 2023-11-25)"
   xmlns:inkscape="http://www.inkscape.org/namespaces/inkscape"
   xmlns:sodipodi="http://sodipodi.sourceforge.net/DTD/sodipodi-0.dtd"
   xmlns="http://www.w3.org/2000/svg"
   xmlns:svg="http://www.w3.org/2000/svg">
  <sodipodi:namedview
     id="namedview3"
     pagecolor="#505050"
     bordercolor="#eeeeee"
     borderopacity="1"
     inkscape:showpageshadow="0"
     inkscape:pageopacity="0"
     inkscape:pagecheckerboard="0"
     inkscape:deskcolor="#505050"
     inkscape:zoom="9.8333333"
     inkscape:cx="11.949153"
     inkscape:cy="12"
     inkscape:window-width="1504"
     inkscape:window-height="449"
     inkscape:window-x="0"
     inkscape:window-y="25"
     inkscape:window-maximized="0"
     inkscape:current-layer="svg3" />
  <g
     clip-path="url(#clip0_20120_1235)"
     id="g3">
    <path
       style="color:#000000;fill:#2c3e50;stroke-linecap:round;stroke-linejoin:round;-inkscape-stroke:none"
       d="M 15,3.5 A 1,1 0 0 0 14.292969,3.7929688 L 10.445313,7.640625 6.6484375,9.0644531 A 1.0001,1.0001 0 0 0 6.2929687,9.2929688 l -1.5,1.5000002 a 1.0001,1.0001 0 0 0 0,1.414062 l 7.0000003,7 a 1.0001,1.0001 0 0 0 1.414062,0 l 1.5,-1.5 a 1.0001,1.0001 0 0 0 0.228516,-0.355469 l 1.423828,-3.796874 3.847656,-3.8476567 a 1,1 0 0 0 0,-1.4140625 1,1 0 0 0 -1.414062,0 l -4,4.0000002 a 1.0001,1.0001 0 0 0 -0.228516,0.355469 L 13.140625,16.445312 12.5,17.085937 6.9140625,11.5 7.5546875,10.859375 11.351563,9.4355469 a 1.0001,1.0001 0 0 0 0.355468,-0.2285156 l 4,-4.0000001 a 1,1 0 0 0 0,-1.4140624 A 1,1 0 0 0 15,3.5 Z"
       id="path1" />
    <path
       style="color:#000000;fill:#2c3e50;stroke-linecap:round;stroke-linejoin:round;-inkscape-stroke:none"
       d="m 9,14 a 1,1 0 0 0 -0.7070312,0.292969 l -4.5,4.5 a 1,1 0 0 0 0,1.414062 1,1 0 0 0 1.4140624,0 l 4.5000001,-4.5 a 1,1 0 0 0 0,-1.414062 A 1,1 0 0 0 9,14 Z"
       id="path2" />
    <path
       style="color:#000000;fill:#2c3e50;stroke-linecap:round;stroke-linejoin:round;-inkscape-stroke:none"
       d="m 14.5,3 a 1,1 0 0 0 -0.707031,0.2929688 1,1 0 0 0 0,1.4140624 l 5.5,5.4999998 a 1,1 0 0 0 1.414062,0 1,1 0 0 0 0,-1.4140622 l -5.5,-5.5 A 1,1 0 0 0 14.5,3 Z"
       id="path3" />
  </g>
  <defs
     id="defs3">
    <clipPath
       id="clip0_20120_1235">
      <rect
         width="24"
         height="24"
         fill="white"
         id="rect3" />
    </clipPath>
  </defs>
</svg>
