<?xml version="1.0" encoding="UTF-8" standalone="no"?>
<svg
   width="24"
   height="24"
   viewBox="0 0 24 24"
   fill="none"
   version="1.1"
   id="svg4"
   sodipodi:docname="refresh-alert_2px.svg"
   inkscape:version="1.3.2 (091e20e, 2023-11-25)"
   xmlns:inkscape="http://www.inkscape.org/namespaces/inkscape"
   xmlns:sodipodi="http://sodipodi.sourceforge.net/DTD/sodipodi-0.dtd"
   xmlns="http://www.w3.org/2000/svg"
   xmlns:svg="http://www.w3.org/2000/svg">
  <sodipodi:namedview
     id="namedview4"
     pagecolor="#505050"
     bordercolor="#eeeeee"
     borderopacity="1"
     inkscape:showpageshadow="0"
     inkscape:pageopacity="0"
     inkscape:pagecheckerboard="0"
     inkscape:deskcolor="#505050"
     inkscape:zoom="9.8333333"
     inkscape:cx="11.949153"
     inkscape:cy="12"
     inkscape:window-width="1504"
     inkscape:window-height="449"
     inkscape:window-x="0"
     inkscape:window-y="25"
     inkscape:window-maximized="0"
     inkscape:current-layer="svg4" />
  <g
     clip-path="url(#clip0_20122_436)"
     id="g4">
    <path
       style="color:#000000;fill:#2c3e50;stroke-linecap:round;stroke-linejoin:round;-inkscape-stroke:none"
       d="M 13.142578,3.0898438 C 11.163095,2.8344353 9.1540016,3.2379074 7.4257812,4.2363281 6.4841577,4.7803131 5.6846518,5.5073273 5,6.3339844 V 5 A 1,1 0 0 0 4,4 1,1 0 0 0 3,5 v 4 a 1.0001,1.0001 0 0 0 1,1 H 8 A 1,1 0 0 0 9,9 1,1 0 0 0 8,8 H 6.2871094 C 6.8693353,7.1948612 7.5547777,6.469984 8.4257813,5.9667969 9.7743978,5.1876794 11.340052,4.8749077 12.884766,5.0742187 c 1.544709,0.1993194 2.981235,0.9001602 4.08789,1.9960938 1.106724,1.0959066 1.822681,2.5237022 2.03711,4.0664065 a 1,1 0 0 0 1.126953,0.853515 1,1 0 0 0 0.853515,-1.126953 C 20.715464,8.8864488 19.799133,7.0528484 18.380859,5.6484375 16.962717,4.2440336 15.122065,3.345264 13.142578,3.0898438 Z"
       id="path1" />
    <path
       style="color:#000000;fill:#2c3e50;stroke-linecap:round;stroke-linejoin:round;-inkscape-stroke:none"
       d="m 3.8632813,12.009766 a 1,1 0 0 0 -0.8535157,1.126953 c 0.2747312,1.976905 1.191221,3.810428 2.609375,5.214843 1.4181803,1.404442 3.2588101,2.303249 5.2382814,2.558594 1.979501,0.255456 3.988603,-0.146191 5.716797,-1.144531 C 17.515811,19.221626 18.315337,18.492678 19,17.666016 V 19 a 1,1 0 0 0 1,1 1,1 0 0 0 1,-1 v -4 a 1.0001,1.0001 0 0 0 -1,-1 h -4 a 1,1 0 0 0 -1,1 1,1 0 0 0 1,1 h 1.712891 c -0.582227,0.805136 -1.267658,1.52998 -2.138672,2.033203 -1.348604,0.779059 -2.914289,1.091922 -4.458985,0.892578 a 1.0001,1.0001 0 0 0 -0.002,0 C 9.568636,18.726527 8.134021,18.025644 7.0273437,16.929687 5.9206403,15.833705 5.2046228,14.405973 4.9902344,12.863281 A 1,1 0 0 0 3.8632813,12.009766 Z"
       id="path2" />
    <path
       style="color:#000000;fill:#2c3e50;stroke-linecap:round;stroke-linejoin:round;-inkscape-stroke:none"
       d="m 12,8 a 1,1 0 0 0 -1,1 v 3 a 1,1 0 0 0 1,1 1,1 0 0 0 1,-1 V 9 A 1,1 0 0 0 12,8 Z"
       id="path3" />
    <path
       style="color:#000000;fill:#2c3e50;stroke-linecap:round;stroke-linejoin:round;-inkscape-stroke:none"
       d="m 12,14 a 1,1 0 0 0 -1,1 1,1 0 0 0 1,1 h 0.0098 a 1,1 0 0 0 1,-1 1,1 0 0 0 -1,-1 z"
       id="path4" />
  </g>
  <defs
     id="defs4">
    <clipPath
       id="clip0_20122_436">
      <rect
         width="24"
         height="24"
         fill="white"
         id="rect4" />
    </clipPath>
  </defs>
</svg>
