<?xml version="1.0" encoding="UTF-8" standalone="no"?>
<svg
   width="24"
   height="24"
   viewBox="0 0 24 24"
   fill="none"
   version="1.1"
   id="svg2"
   sodipodi:docname="reload_2px.svg"
   inkscape:version="1.3.2 (091e20e, 2023-11-25)"
   xmlns:inkscape="http://www.inkscape.org/namespaces/inkscape"
   xmlns:sodipodi="http://sodipodi.sourceforge.net/DTD/sodipodi-0.dtd"
   xmlns="http://www.w3.org/2000/svg"
   xmlns:svg="http://www.w3.org/2000/svg">
  <sodipodi:namedview
     id="namedview2"
     pagecolor="#505050"
     bordercolor="#eeeeee"
     borderopacity="1"
     inkscape:showpageshadow="0"
     inkscape:pageopacity="0"
     inkscape:pagecheckerboard="0"
     inkscape:deskcolor="#505050"
     inkscape:zoom="9.8333333"
     inkscape:cx="11.949153"
     inkscape:cy="12"
     inkscape:window-width="1504"
     inkscape:window-height="449"
     inkscape:window-x="0"
     inkscape:window-y="25"
     inkscape:window-maximized="0"
     inkscape:current-layer="svg2" />
  <g
     clip-path="url(#clip0_20122_431)"
     id="g2">
    <path
       style="color:#000000;fill:#2c3e50;stroke-linecap:round;stroke-linejoin:round;-inkscape-stroke:none"
       d="M 13.025391,3.0546875 C 11.957291,2.9344238 10.852702,3.0048442 9.7597656,3.2851563 8.1774751,3.6921528 6.7342591,4.5215053 5.5878906,5.6855469 4.4415139,6.8495854 3.6346973,8.304251 3.2519531,9.8925781 2.8691906,11.480822 2.9257074,13.142747 3.4160156,14.701172 c 0.4903029,1.558521 1.3960006,2.954033 2.6191406,4.037109 1.2231494,1.082972 2.7178455,1.813319 4.3242188,2.111328 1.606336,0.298003 3.262689,0.152345 4.792969,-0.419922 1.530233,-0.572248 2.877872,-1.549229 3.894531,-2.828125 1.016731,-1.278957 1.664454,-2.809903 1.876953,-4.429687 A 1,1 0 0 0 20.0625,12.048828 1,1 0 0 0 18.941406,12.910156 c -0.1653,1.260014 -0.67007,2.452426 -1.460937,3.447266 -0.790739,0.994702 -1.83698,1.754068 -3.027344,2.199219 -1.190317,0.445133 -2.479054,0.557968 -3.728516,0.326171 C 9.4751856,18.651023 8.3127966,18.084614 7.3613281,17.242187 6.4098503,16.399665 5.705595,15.313839 5.3242187,14.101563 4.9428479,12.88939 4.8975957,11.596681 5.1953125,10.361328 5.4930276,9.1258581 6.1219706,7.9952831 7.0136719,7.0898437 7.9049346,6.1848408 9.0257666,5.5374491 10.255859,5.2207031 c 3.426245,-0.8787497 6.942316,0.8709653 8.248047,4.1484375 a 1,1 0 0 0 1.298828,0.5605469 1,1 0 0 0 0.558594,-1.3007812 C 19.105629,5.4770161 16.22969,3.4154787 13.025391,3.0546875 Z"
       id="path1" />
    <path
       style="color:#000000;fill:#2c3e50;stroke-linecap:round;stroke-linejoin:round;-inkscape-stroke:none"
       d="m 20,3 a 1,1 0 0 0 -1,1 v 4 h -4 a 1,1 0 0 0 -1,1 1,1 0 0 0 1,1 h 5 A 1.0001,1.0001 0 0 0 21,9 V 4 A 1,1 0 0 0 20,3 Z"
       id="path2" />
  </g>
  <defs
     id="defs2">
    <clipPath
       id="clip0_20122_431">
      <rect
         width="24"
         height="24"
         fill="white"
         id="rect2" />
    </clipPath>
  </defs>
</svg>
