<?xml version="1.0" encoding="UTF-8" standalone="no"?>
<svg
   width="24"
   height="24"
   viewBox="0 0 24 24"
   fill="none"
   version="1.1"
   id="svg7"
   sodipodi:docname="report-search_2px.svg"
   inkscape:version="1.3.2 (091e20e, 2023-11-25)"
   xmlns:inkscape="http://www.inkscape.org/namespaces/inkscape"
   xmlns:sodipodi="http://sodipodi.sourceforge.net/DTD/sodipodi-0.dtd"
   xmlns="http://www.w3.org/2000/svg"
   xmlns:svg="http://www.w3.org/2000/svg">
  <sodipodi:namedview
     id="namedview7"
     pagecolor="#505050"
     bordercolor="#eeeeee"
     borderopacity="1"
     inkscape:showpageshadow="0"
     inkscape:pageopacity="0"
     inkscape:pagecheckerboard="0"
     inkscape:deskcolor="#505050"
     inkscape:zoom="9.8333333"
     inkscape:cx="11.949153"
     inkscape:cy="12"
     inkscape:window-width="1504"
     inkscape:window-height="449"
     inkscape:window-x="0"
     inkscape:window-y="25"
     inkscape:window-maximized="0"
     inkscape:current-layer="svg7" />
  <g
     clip-path="url(#clip0_20119_383)"
     id="g7">
    <path
       style="color:#000000;fill:#2c3e50;stroke-linecap:round;stroke-linejoin:round;-inkscape-stroke:none"
       d="M 6,4 C 5.2047416,4 4.4412465,4.316551 3.8789063,4.8789062 3.316551,5.4412465 3,6.2047416 3,7 v 12 c 0,0.795243 0.3165904,1.558748 0.8789063,2.121094 C 4.4412548,21.683487 5.2047542,22 6,22 h 5.697266 a 1,1 0 0 0 1,-1 1,1 0 0 0 -1,-1 H 6 C 5.7343869,20 5.4807594,19.894837 5.2929687,19.707031 5.1051254,19.519178 5,19.265556 5,19 V 7 C 5,6.7343994 5.1051647,6.4807678 5.2929687,6.2929687 5.4807678,6.1051647 5.7343994,6 6,6 H 8 A 1,1 0 0 0 9,5 1,1 0 0 0 8,4 Z"
       id="path1" />
    <path
       style="color:#000000;fill:#2c3e50;stroke-linecap:round;stroke-linejoin:round;-inkscape-stroke:none"
       d="m 14,4 a 1,1 0 0 0 -1,1 1,1 0 0 0 1,1 h 2 c 0.265556,0 0.519178,0.1051254 0.707031,0.2929687 C 16.894837,6.4807594 17,6.7343869 17,7 v 5 a 1,1 0 0 0 1,1 1,1 0 0 0 1,-1 V 7 C 19,6.2047542 18.683487,5.4412548 18.121094,4.8789062 17.558748,4.3165904 16.795243,4 16,4 Z"
       id="path2" />
    <path
       style="color:#000000;fill:#2c3e50;stroke-linecap:round;stroke-linejoin:round;-inkscape-stroke:none"
       d="M 10,2 C 9.2047416,2 8.4412465,2.316551 7.8789062,2.8789063 7.316551,3.4412465 7,4.2047416 7,5 7,5.7952584 7.316551,6.5587535 7.8789062,7.1210937 8.4412465,7.683449 9.2047416,8 10,8 h 2 C 12.795243,8 13.558748,7.6834096 14.121094,7.1210937 14.683487,6.5587452 15,5.7952458 15,5 15,4.2047542 14.683487,3.4412548 14.121094,2.8789063 13.558748,2.3165904 12.795243,2 12,2 Z m 0,2 h 2 c 0.265556,0 0.519178,0.1051254 0.707031,0.2929687 C 12.894837,4.4807594 13,4.7343869 13,5 13,5.2656131 12.894837,5.5192406 12.707031,5.7070312 12.519178,5.8948746 12.265556,6 12,6 H 10 C 9.7343994,6 9.4807678,5.8948353 9.2929688,5.7070312 9.1051647,5.5192322 9,5.2656006 9,5 9,4.7343994 9.1051647,4.4807678 9.2929688,4.2929687 9.4807678,4.1051647 9.7343994,4 10,4 Z"
       id="path3" />
    <path
       style="color:#000000;fill:#2c3e50;stroke-linecap:round;stroke-linejoin:round;-inkscape-stroke:none"
       d="m 8,10 a 1,1 0 0 0 -1,1 1,1 0 0 0 1,1 h 4 a 1,1 0 0 0 1,-1 1,1 0 0 0 -1,-1 z"
       id="path4" />
    <path
       style="color:#000000;fill:#2c3e50;stroke-linecap:round;stroke-linejoin:round;-inkscape-stroke:none"
       d="m 8,14 a 1,1 0 0 0 -1,1 1,1 0 0 0 1,1 h 3 a 1,1 0 0 0 1,-1 1,1 0 0 0 -1,-1 z"
       id="path5" />
    <path
       style="color:#000000;fill:#2c3e50;stroke-linecap:round;stroke-linejoin:round;-inkscape-stroke:none"
       d="m 16.5,14 c -0.927856,0 -1.818474,0.369395 -2.474609,1.025391 C 13.369395,15.681526 13,16.572144 13,17.5 c 0,0.927856 0.369395,1.818474 1.025391,2.474609 C 14.681526,20.630605 15.572144,21 16.5,21 17.427856,21 18.318474,20.630605 18.974609,19.974609 19.630605,19.318474 20,18.427856 20,17.5 20,16.572144 19.630605,15.681526 18.974609,15.025391 18.318474,14.369395 17.427856,14 16.5,14 Z m 0,2 c 0.398143,0 0.778884,0.15785 1.060547,0.439453 C 17.84215,16.721116 18,17.101857 18,17.5 18,17.898143 17.84215,18.278884 17.560547,18.560547 17.278884,18.84215 16.898143,19 16.5,19 16.101857,19 15.721116,18.84215 15.439453,18.560547 15.15785,18.278884 15,17.898143 15,17.5 15,17.101857 15.15785,16.721116 15.439453,16.439453 15.721116,16.15785 16.101857,16 16.5,16 Z"
       id="path6" />
    <path
       style="color:#000000;fill:#2c3e50;stroke-linecap:round;stroke-linejoin:round;-inkscape-stroke:none"
       d="m 17.792969,18.792969 a 1,1 0 0 0 0,1.414062 l 2.5,2.5 a 1,1 0 0 0 1.414062,0 1,1 0 0 0 0,-1.414062 l -2.5,-2.5 a 1,1 0 0 0 -1.414062,0 z"
       id="path7" />
  </g>
  <defs
     id="defs7">
    <clipPath
       id="clip0_20119_383">
      <rect
         width="24"
         height="24"
         fill="white"
         id="rect7" />
    </clipPath>
  </defs>
</svg>
