<svg width="24" height="24" viewBox="0 0 24 24" fill="none" xmlns="http://www.w3.org/2000/svg">
<g clip-path="url(#clip0_17718_467)">
<mask id="mask0_17718_467" style="mask-type:luminance" maskUnits="userSpaceOnUse" x="0" y="0" width="24" height="24">
<path d="M24 0H0V24H24V0Z" fill="white"/>
</mask>
<g mask="url(#mask0_17718_467)">
<path d="M10 2.25C8.98227 2.25 7.97542 2.45038 7.03516 2.83984C6.0949 3.22932 5.23918 3.79988 4.51953 4.51953C3.79988 5.23918 3.22932 6.0949 2.83984 7.03516C2.45038 7.97542 2.25 8.98227 2.25 10C2.25 11.0178 2.45038 12.0246 2.83984 12.9648C3.22932 13.9051 3.7999 14.7608 4.51953 15.4805C5.2392 16.2002 6.09491 16.7707 7.03516 17.1602C7.97537 17.5495 8.98225 17.75 10 17.75C11.0178 17.75 12.0246 17.5495 12.9648 17.1602C13.9051 16.7707 14.7608 16.2002 15.4805 15.4805C16.2002 14.7608 16.7707 13.9051 17.1602 12.9648C17.5495 12.0246 17.75 11.0178 17.75 10C17.75 8.98225 17.5495 7.97537 17.1602 7.03516C16.7707 6.09491 16.2002 5.2392 15.4805 4.51953C14.7608 3.7999 13.9051 3.22932 12.9648 2.83984C12.0246 2.45038 11.0178 2.25 10 2.25ZM10 3.75C10.8208 3.75 11.6342 3.91246 12.3926 4.22656C13.1509 4.54066 13.8395 4.99969 14.4199 5.58008C15.0004 6.16043 15.4593 6.84911 15.7734 7.60742C16.0875 8.36577 16.25 9.17926 16.25 10C16.25 10.8208 16.0875 11.6342 15.7734 12.3926C15.4593 13.1509 15.0004 13.8396 14.4199 14.4199C13.8396 15.0004 13.1509 15.4593 12.3926 15.7734C11.6342 16.0875 10.8208 16.25 10 16.25C9.17926 16.25 8.36577 16.0875 7.60742 15.7734C6.84911 15.4593 6.16043 15.0004 5.58008 14.4199C4.99969 13.8395 4.54066 13.1509 4.22656 12.3926C3.91246 11.6342 3.75 10.8208 3.75 10C3.75 9.17923 3.91247 8.36572 4.22656 7.60742C4.54067 6.84912 4.99971 6.16045 5.58008 5.58008C6.16045 4.99971 6.84912 4.54067 7.60742 4.22656C8.36572 3.91247 9.17923 3.75 10 3.75Z" fill="#2C3E50"/>
<path d="M14.9999 14.25C14.9013 14.2498 14.8036 14.269 14.7125 14.3065C14.6213 14.344 14.5385 14.3992 14.4686 14.4688C14.3987 14.5384 14.3432 14.6212 14.3054 14.7124C14.2675 14.8036 14.248 14.9013 14.248 15C14.248 15.0987 14.2675 15.1965 14.3054 15.2876C14.3432 15.3788 14.3987 15.4616 14.4686 15.5313L20.4686 21.5313C20.5383 21.6012 20.6211 21.6567 20.7123 21.6945C20.8034 21.7324 20.9012 21.7518 20.9999 21.7518C21.0986 21.7518 21.1963 21.7324 21.2875 21.6945C21.3787 21.6567 21.4615 21.6012 21.5311 21.5313C21.6011 21.4616 21.6565 21.3788 21.6944 21.2876C21.7322 21.1965 21.7517 21.0987 21.7517 21C21.7517 20.9013 21.7322 20.8036 21.6944 20.7124C21.6565 20.6212 21.6011 20.5384 21.5311 20.4688L15.5311 14.4688C15.4613 14.3992 15.3784 14.344 15.2873 14.3065C15.1961 14.269 15.0985 14.2498 14.9999 14.25Z" fill="#2C3E50"/>
</g>
</g>
<defs>
<clipPath id="clip0_17718_467">
<rect width="24" height="24" fill="white"/>
</clipPath>
</defs>
</svg>
