<?xml version="1.0" encoding="UTF-8" standalone="no"?>
<svg
   width="24"
   height="24"
   viewBox="0 0 24 24"
   fill="none"
   version="1.1"
   id="svg2"
   sodipodi:docname="search_2px.svg"
   inkscape:version="1.3.2 (091e20e, 2023-11-25)"
   xmlns:inkscape="http://www.inkscape.org/namespaces/inkscape"
   xmlns:sodipodi="http://sodipodi.sourceforge.net/DTD/sodipodi-0.dtd"
   xmlns="http://www.w3.org/2000/svg"
   xmlns:svg="http://www.w3.org/2000/svg">
  <sodipodi:namedview
     id="namedview2"
     pagecolor="#505050"
     bordercolor="#eeeeee"
     borderopacity="1"
     inkscape:showpageshadow="0"
     inkscape:pageopacity="0"
     inkscape:pagecheckerboard="0"
     inkscape:deskcolor="#505050"
     inkscape:zoom="9.8333333"
     inkscape:cx="11.949153"
     inkscape:cy="12"
     inkscape:window-width="1504"
     inkscape:window-height="449"
     inkscape:window-x="0"
     inkscape:window-y="25"
     inkscape:window-maximized="0"
     inkscape:current-layer="svg2" />
  <g
     clip-path="url(#clip0_20119_370)"
     id="g2">
    <path
       style="color:#000000;fill:#2c3e50;stroke-linecap:round;stroke-linejoin:round;-inkscape-stroke:none"
       d="M 10,2 C 8.9494411,2 7.9100445,2.2073467 6.9394531,2.609375 5.96887,3.0114114 5.0866136,3.6008864 4.34375,4.34375 3.6008864,5.0866136 3.0114114,5.96887 2.609375,6.9394531 2.2073467,7.9100445 2,8.9494411 2,10 c 0,1.050602 0.2073561,2.089955 0.609375,3.060547 0.402045,0.970627 0.9915353,1.852875 1.734375,2.595703 0.7428867,0.74299 1.6251333,1.332333 2.5957031,1.734375 C 7.9099788,17.792535 8.9494121,18 10,18 c 1.050631,0 2.090021,-0.207475 3.060547,-0.609375 0.970613,-0.402051 1.852852,-0.991409 2.595703,-1.734375 0.742966,-0.742851 1.332324,-1.62509 1.734375,-2.595703 C 17.792525,12.090021 18,11.050631 18,10 18,8.9494121 17.792535,7.9099788 17.390625,6.9394531 16.988583,5.9688833 16.39924,5.0866367 15.65625,4.34375 14.913422,3.6009103 14.031174,3.01142 13.060547,2.609375 12.089955,2.2073561 11.050602,2 10,2 Z m 0,2 c 0.787996,0 1.568868,0.1554909 2.296875,0.4570312 0.727972,0.3015344 1.388142,0.7436023 1.945313,1.3007813 0.557209,0.557132 0.999224,1.217324 1.300781,1.9453125 C 15.844458,8.4311577 16,9.2120897 16,10 16,10.787967 15.844468,11.568802 15.542969,12.296875 15.24142,13.02486 14.799421,13.68504 14.242188,14.242188 13.68504,14.799421 13.02486,15.24142 12.296875,15.542969 11.568802,15.844468 10.787967,16 10,16 9.2120897,16 8.4311577,15.844458 7.703125,15.542969 6.9751365,15.241412 6.3149445,14.799397 5.7578125,14.242188 5.2006335,13.685017 4.7585656,13.024847 4.4570312,12.296875 4.1554909,11.568868 4,10.787996 4,10 4,9.2120607 4.1555003,8.4310919 4.4570312,7.703125 4.7585742,6.9751499 5.2006574,6.3149676 5.7578125,5.7578125 6.3149676,5.2006574 6.9751499,4.7585742 7.703125,4.4570312 8.4310919,4.1555003 9.2120607,4 10,4 Z"
       id="path1" />
    <path
       style="color:#000000;fill:#2c3e50;stroke-linecap:round;stroke-linejoin:round;-inkscape-stroke:none"
       d="m 15,14 a 1,1 0 0 0 -0.707031,0.292969 1,1 0 0 0 0,1.414062 l 6,6 a 1,1 0 0 0 1.414062,0 1,1 0 0 0 0,-1.414062 l -6,-6 A 1,1 0 0 0 15,14 Z"
       id="path2" />
  </g>
  <defs
     id="defs2">
    <clipPath
       id="clip0_20119_370">
      <rect
         width="24"
         height="24"
         fill="white"
         id="rect2" />
    </clipPath>
  </defs>
</svg>
