<?xml version="1.0" encoding="UTF-8" standalone="no"?>
<svg
   width="24"
   height="24"
   viewBox="0 0 24 24"
   fill="none"
   version="1.1"
   id="svg4"
   sodipodi:docname="settings_2px-1.svg"
   inkscape:version="1.3.2 (091e20e, 2023-11-25)"
   xmlns:inkscape="http://www.inkscape.org/namespaces/inkscape"
   xmlns:sodipodi="http://sodipodi.sourceforge.net/DTD/sodipodi-0.dtd"
   xmlns="http://www.w3.org/2000/svg"
   xmlns:svg="http://www.w3.org/2000/svg">
  <sodipodi:namedview
     id="namedview4"
     pagecolor="#505050"
     bordercolor="#eeeeee"
     borderopacity="1"
     inkscape:showpageshadow="0"
     inkscape:pageopacity="0"
     inkscape:pagecheckerboard="0"
     inkscape:deskcolor="#505050"
     inkscape:zoom="9.8333333"
     inkscape:cx="11.949153"
     inkscape:cy="12"
     inkscape:window-width="1504"
     inkscape:window-height="449"
     inkscape:window-x="0"
     inkscape:window-y="25"
     inkscape:window-maximized="0"
     inkscape:current-layer="svg4" />
  <g
     clip-path="url(#clip0_20119_363)"
     id="g4">
    <path
       style="color:#000000;fill:#2c3e50;stroke-linecap:round;stroke-linejoin:round;-inkscape-stroke:none"
       d="M 12,2 C 10.868636,2 9.6720944,2.7688284 9.3535156,4.0820312 9.22946,4.587896 8.7214559,4.7997389 8.2734375,4.5273437 7.1190627,3.8245508 5.7296775,4.129504 4.9296875,4.9296875 4.1296975,5.729871 3.8262995,7.1175217 4.5292969,8.2714844 a 1.0001,1.0001 0 0 0 0,0.00195 c 0.059361,0.09736 0.094704,0.2066542 0.1035156,0.3203125 0.00881,0.1136884 -0.0091,0.2267143 -0.052734,0.3320313 C 4.5364213,9.0311458 4.4674792,9.1250866 4.3808594,9.1992188 4.2942567,9.2733446 4.1928061,9.3266827 4.0820312,9.3535156 2.7688284,9.6720944 2,10.868636 2,12 c 0,1.130863 0.7679379,2.32727 2.0800781,2.646484 0.1106823,0.02692 0.2141913,0.08014 0.3007813,0.154297 0.086561,0.07417 0.153673,0.16621 0.1972656,0.271485 0.043574,0.105229 0.061524,0.220486 0.052734,0.333984 -0.00879,0.113664 -0.044138,0.222808 -0.1035157,0.320313 -0.7027929,1.154374 -0.3978397,2.543759 0.4023438,3.343749 0.8001835,0.799991 2.1878342,1.103388 3.3417969,0.400391 a 1.0001,1.0001 0 0 0 0.00195,0 c 0.097378,-0.05937 0.2066286,-0.09469 0.3203125,-0.103516 0.1134223,-0.0088 0.2265422,0.009 0.3320313,0.05273 a 1.0001,1.0001 0 0 0 0.00195,0 c 0.10497,0.04345 0.1972705,0.112512 0.2714844,0.199219 0.074073,0.08653 0.1274612,0.188042 0.1542968,0.298828 l -0.00586,-0.01953 c 0.1124419,0.511188 0.3727927,0.977571 0.7480467,1.341797 0.3754,0.364374 0.851036,0.60998 1.365235,0.707032 a 1,1 0 0 0 1.167968,-0.796875 1,1 0 0 0 -0.796875,-1.167969 c -0.129,-0.02435 -0.247397,-0.08611 -0.341797,-0.177735 -0.09434,-0.09157 -0.161295,-0.207925 -0.189453,-0.335937 a 1.0001,1.0001 0 0 0 -0.0039,-0.02148 C 11.195911,19.030452 10.997696,18.644226 10.71875,18.318359 10.439984,17.992667 10.087956,17.736414 9.6914063,17.572266 9.2953758,17.408174 8.8672703,17.339848 8.4394531,17.373047 8.012523,17.406176 7.5981466,17.541033 7.2324219,17.763672 6.8433861,18.000674 6.5778155,17.890259 6.34375,17.65625 6.1096845,17.422241 5.999122,17.157202 6.2363281,16.767578 6.4591497,16.401683 6.5919348,15.987883 6.625,15.560547 6.6580906,15.133245 6.5897471,14.704564 6.4257812,14.308594 6.261834,13.912668 6.007059,13.560081 5.6816406,13.28125 5.356271,13.002605 4.9691716,12.804406 4.5527344,12.703125 4.109939,12.595704 4,12.330635 4,12 4,11.669365 4.109939,11.404296 4.5527344,11.296875 4.969559,11.195908 5.3558037,10.997644 5.6816406,10.71875 6.0074604,10.439903 6.2635914,10.087561 6.4277344,9.6914063 6.5918813,9.2952037 6.6600993,8.8670042 6.6269531,8.4394531 6.5938531,8.0124975 6.4589781,7.5981645 6.2363281,7.2324219 v -0.00195 C 6.0013374,6.8428082 6.110248,6.5773085 6.34375,6.34375 6.5777589,6.1096845 6.8427982,5.999122 7.2324219,6.2363281 a 1.0001,1.0001 0 0 0 0.00195,0 C 8.785842,7.17962 10.868192,6.3156146 11.296875,4.5527344 11.404296,4.109939 11.669365,4 12,4 c 0.330635,0 0.595704,0.109939 0.703125,0.5527344 0.100967,0.4168246 0.299254,0.8030776 0.578125,1.1289062 0.278859,0.3258142 0.63114,0.5819566 1.027344,0.7460938 0.396253,0.1642072 0.824399,0.2323676 1.251953,0.1992187 0.427576,-0.033151 0.840953,-0.1674719 1.207031,-0.390625 0.389036,-0.2370017 0.654606,-0.126587 0.888672,0.1074219 0.234066,0.2340089 0.344628,0.4990482 0.107422,0.8886719 -0.222867,0.3659062 -0.355635,0.7795564 -0.388672,1.2070312 -0.03302,0.4272601 0.03545,0.8561785 0.199219,1.2519532 0.163932,0.3957897 0.418607,0.7484757 0.74414,1.0273437 0.325369,0.278696 0.712411,0.476845 1.128907,0.578125 0.367211,0.08928 0.481744,0.27446 0.537109,0.537109 a 1,1 0 0 0 1.183594,0.773438 1,1 0 0 0 0.773437,-1.185547 C 21.746771,10.498526 21.008709,9.6182344 19.919922,9.3535156 19.809218,9.3265956 19.705772,9.2734227 19.619141,9.1992188 19.53308,9.125495 19.465563,9.0325556 19.421875,8.9277344 v -0.00195 C 19.378781,8.8208397 19.36041,8.7067211 19.369141,8.59375 c 0.0088,-0.1133846 0.04418,-0.2228992 0.103515,-0.3203125 0.702793,-1.1543748 0.39784,-2.54376 -0.402344,-3.34375 -0.800183,-0.79999 -2.187834,-1.103388 -3.341796,-0.4003906 a 1.0001,1.0001 0 0 0 -0.002,0 c -0.09752,0.059447 -0.20669,0.094706 -0.320313,0.1035156 -0.113646,0.00881 -0.226885,-0.00916 -0.332031,-0.052734 C 14.968823,4.5364155 14.874922,4.4674848 14.800781,4.3808594 14.726653,4.2942485 14.673317,4.1928061 14.646484,4.0820312 14.327906,2.7688284 13.131364,2 12,2 Z"
       id="path1" />
    <path
       style="color:#000000;fill:#2c3e50;stroke-linecap:round;stroke-linejoin:round;-inkscape-stroke:none"
       d="M 11.121094,8.0976563 C 10.383313,8.2640769 9.7066942,8.6370558 9.171875,9.171875 8.6371533,9.7066634 8.2640826,10.381334 8.0976563,11.119141 c -0.1664181,0.737769 -0.1186621,1.508108 0.1347656,2.220703 0.2534107,0.712584 0.7039504,1.339586 1.2988281,1.80664 0.594896,0.467038 1.310105,0.754979 2.0625,0.832032 a 1,1 0 0 0 1.095703,-0.892578 1,1 0 0 0 -0.892578,-1.097657 c -0.376404,-0.03855 -0.733747,-0.182454 -1.03125,-0.416015 -0.297461,-0.233545 -0.523642,-0.54593 -0.650391,-0.902344 -0.1267516,-0.356405 -0.1496476,-0.742299 -0.06641,-1.111328 0.08323,-0.368993 0.269552,-0.705066 0.53711,-0.972656 0.267439,-0.26744 0.605591,-0.453871 0.974609,-0.53711 0.368829,-0.083218 0.752989,-0.060332 1.109375,0.06641 0.356377,0.126736 0.670554,0.352722 0.904297,0.650391 0.232891,0.297213 0.377536,0.653627 0.416015,1.029297 a 1,1 0 0 0 1.095704,0.894531 1,1 0 0 0 0.894531,-1.097656 C 15.903411,10.839481 15.613522,10.124193 15.146484,9.5292969 14.679428,8.9345066 14.052465,8.4838927 13.339844,8.2304688 12.627231,7.9770478 11.858864,7.9311946 11.121094,8.0976563 Z"
       id="path2" />
    <path
       style="color:#000000;fill:#2c3e50;stroke-linecap:round;stroke-linejoin:round;-inkscape-stroke:none"
       d="m 18,14 c -1.060472,0 -2.078254,0.422004 -2.828125,1.171875 C 14.422004,15.921746 14,16.939528 14,18 c 0,1.060472 0.422004,2.078254 1.171875,2.828125 C 15.921746,21.577996 16.939528,22 18,22 19.060472,22 20.078254,21.577996 20.828125,20.828125 21.577996,20.078254 22,19.060472 22,18 22,16.939528 21.577996,15.921746 20.828125,15.171875 20.078254,14.422004 19.060472,14 18,14 Z m 0,2 c 0.530726,0 1.038734,0.210609 1.414062,0.585937 C 19.789391,16.961266 20,17.469274 20,18 20,18.530726 19.789391,19.038734 19.414062,19.414062 19.038734,19.789391 18.530726,20 18,20 17.469274,20 16.961266,19.789391 16.585937,19.414062 16.210609,19.038734 16,18.530726 16,18 16,17.469274 16.210609,16.961266 16.585937,16.585937 16.961266,16.210609 17.469274,16 18,16 Z"
       id="path3" />
    <path
       style="color:#000000;fill:#2c3e50;stroke-linecap:round;stroke-linejoin:round;-inkscape-stroke:none"
       d="m 19.492187,19.492187 a 1,1 0 0 0 0,1.414063 l 1.800782,1.800781 a 1,1 0 0 0 1.414062,0 1,1 0 0 0 0,-1.414062 L 20.90625,19.492187 a 1,1 0 0 0 -1.414063,0 z"
       id="path4" />
  </g>
  <defs
     id="defs4">
    <clipPath
       id="clip0_20119_363">
      <rect
         width="24"
         height="24"
         fill="white"
         id="rect4" />
    </clipPath>
  </defs>
</svg>
