<?xml version="1.0" encoding="UTF-8" standalone="no"?>
<svg
   width="24"
   height="24"
   viewBox="0 0 24 24"
   fill="none"
   version="1.1"
   id="svg2"
   sodipodi:docname="settings_2px.svg"
   inkscape:version="1.3.2 (091e20e, 2023-11-25)"
   xmlns:inkscape="http://www.inkscape.org/namespaces/inkscape"
   xmlns:sodipodi="http://sodipodi.sourceforge.net/DTD/sodipodi-0.dtd"
   xmlns="http://www.w3.org/2000/svg"
   xmlns:svg="http://www.w3.org/2000/svg">
  <sodipodi:namedview
     id="namedview2"
     pagecolor="#505050"
     bordercolor="#eeeeee"
     borderopacity="1"
     inkscape:showpageshadow="0"
     inkscape:pageopacity="0"
     inkscape:pagecheckerboard="0"
     inkscape:deskcolor="#505050"
     inkscape:zoom="9.8333333"
     inkscape:cx="11.949153"
     inkscape:cy="12"
     inkscape:window-width="1504"
     inkscape:window-height="449"
     inkscape:window-x="0"
     inkscape:window-y="25"
     inkscape:window-maximized="0"
     inkscape:current-layer="svg2" />
  <g
     clip-path="url(#clip0_20119_594)"
     id="g2">
    <path
       style="color:#000000;fill:#2c3e50;stroke-linecap:round;stroke-linejoin:round;-inkscape-stroke:none"
       d="M 12,2 C 10.868636,2 9.6720944,2.7688284 9.3535156,4.0820312 9.22946,4.587896 8.7214559,4.7997389 8.2734375,4.5273437 7.1190627,3.8245508 5.7296775,4.129504 4.9296875,4.9296875 4.1296975,5.729871 3.8262995,7.1175217 4.5292969,8.2714844 a 1.0001,1.0001 0 0 0 0,0.00195 c 0.059361,0.09736 0.094704,0.2066542 0.1035156,0.3203125 0.00881,0.1136884 -0.0091,0.2267143 -0.052734,0.3320313 C 4.5364213,9.0311458 4.4674792,9.1250866 4.3808594,9.1992188 4.2942567,9.2733446 4.1928061,9.3266827 4.0820312,9.3535156 2.7688284,9.6720944 2,10.868636 2,12 c 0,1.130863 0.7679379,2.32727 2.0800781,2.646484 0.1106823,0.02692 0.2141913,0.08014 0.3007813,0.154297 0.086561,0.07417 0.153673,0.16621 0.1972656,0.271485 0.043574,0.105229 0.061524,0.220486 0.052734,0.333984 -0.00879,0.113664 -0.044138,0.222808 -0.1035157,0.320313 -0.7027929,1.154374 -0.3978397,2.543759 0.4023438,3.343749 0.8001835,0.799991 2.1878342,1.103388 3.3417969,0.400391 a 1.0001,1.0001 0 0 0 0.00195,0 c 0.097378,-0.05937 0.2066286,-0.09469 0.3203125,-0.103516 0.1134223,-0.0088 0.2265422,0.009 0.3320313,0.05273 a 1.0001,1.0001 0 0 0 0.00195,0 c 0.10497,0.04345 0.1972705,0.112512 0.2714844,0.199219 0.074073,0.08653 0.1274612,0.188042 0.1542968,0.298828 C 9.6720944,21.231172 10.868636,22 12,22 c 1.130863,0 2.32727,-0.767938 2.646484,-2.080078 v -0.002 c 0.02705,-0.110054 0.08046,-0.212602 0.154297,-0.298828 0.07377,-0.08611 0.16666,-0.153575 0.271485,-0.197266 0.105387,-0.04361 0.220443,-0.06151 0.333984,-0.05273 0.113467,0.0088 0.222718,0.04408 0.320313,0.103515 1.154374,0.702793 2.543759,0.39784 3.343749,-0.402344 0.799991,-0.800183 1.103388,-2.187834 0.400391,-3.341796 a 1.0001,1.0001 0 0 0 0,-0.002 c -0.05946,-0.09754 -0.0947,-0.206664 -0.103516,-0.320313 -0.0088,-0.113379 0.0091,-0.226713 0.05273,-0.332031 a 1.0001,1.0001 0 0 0 0,-0.002 c 0.04346,-0.105001 0.112506,-0.197262 0.199219,-0.271485 0.08654,-0.07408 0.188042,-0.127461 0.298828,-0.154297 C 21.231172,14.327906 22,13.131364 22,12 22,10.869137 21.232062,9.6727298 19.919922,9.3535156 h -0.002 C 19.807916,9.3264713 19.705326,9.2730413 19.619141,9.1992188 19.53308,9.125495 19.465563,9.0325556 19.421875,8.9277344 v -0.00195 C 19.378781,8.8208397 19.36041,8.7067211 19.369141,8.59375 c 0.0088,-0.1133846 0.04418,-0.2228992 0.103515,-0.3203125 0.702793,-1.1543748 0.39784,-2.54376 -0.402344,-3.34375 -0.800183,-0.79999 -2.187834,-1.103388 -3.341796,-0.4003906 a 1.0001,1.0001 0 0 0 -0.002,0 c -0.09752,0.059447 -0.20669,0.094706 -0.320313,0.1035156 -0.113646,0.00881 -0.226885,-0.00916 -0.332031,-0.052734 C 14.968823,4.5364155 14.874922,4.4674848 14.800781,4.3808594 14.726653,4.2942485 14.673317,4.1928061 14.646484,4.0820312 14.327906,2.7688284 13.131364,2 12,2 Z m 0,2 c 0.330635,0 0.595704,0.109939 0.703125,0.5527344 0.100967,0.4168246 0.299254,0.8030776 0.578125,1.1289062 0.278859,0.3258142 0.63114,0.5819566 1.027344,0.7460938 0.396253,0.1642072 0.824399,0.2323676 1.251953,0.1992187 0.427576,-0.033151 0.840953,-0.1674719 1.207031,-0.390625 0.389036,-0.2370017 0.654606,-0.126587 0.888672,0.1074219 0.234066,0.2340089 0.344628,0.4990482 0.107422,0.8886719 -0.222867,0.3659062 -0.355635,0.7795564 -0.388672,1.2070312 -0.03302,0.4272601 0.03545,0.8561785 0.199219,1.2519532 0.163932,0.3957897 0.418607,0.7484757 0.74414,1.0273437 0.325369,0.278696 0.712411,0.476845 1.128907,0.578125 C 19.890061,11.404296 20,11.669365 20,12 c 0,0.330635 -0.109939,0.595704 -0.552734,0.703125 -0.416814,0.100964 -0.803048,0.299201 -1.128907,0.578125 -0.325687,0.278777 -0.581951,0.630745 -0.746093,1.027344 -0.164152,0.396081 -0.23242,0.824133 -0.199219,1.251953 0.03318,0.427551 0.167483,0.840971 0.390625,1.207031 0.237002,0.389036 0.126587,0.654606 -0.107422,0.888672 -0.234009,0.234066 -0.499048,0.344628 -0.888672,0.107422 -0.365805,-0.222767 -0.779498,-0.355639 -1.207031,-0.388672 -0.427258,-0.03302 -0.856141,0.03543 -1.251953,0.199219 -0.395767,0.163929 -0.748467,0.418652 -1.027344,0.74414 -0.278581,0.325328 -0.476845,0.712411 -0.578125,1.128907 C 12.595704,19.890061 12.330635,20 12,20 11.669365,20 11.404296,19.890061 11.296875,19.447266 11.195911,19.030452 10.997696,18.644226 10.71875,18.318359 10.439984,17.992667 10.087956,17.736414 9.6914063,17.572266 9.2953758,17.408174 8.8672703,17.339848 8.4394531,17.373047 8.012523,17.406176 7.5981466,17.541033 7.2324219,17.763672 6.8433861,18.000674 6.5778155,17.890259 6.34375,17.65625 6.1096845,17.422241 5.999122,17.157202 6.2363281,16.767578 6.4591497,16.401683 6.5919348,15.987883 6.625,15.560547 6.6580906,15.133245 6.5897471,14.704564 6.4257812,14.308594 6.261834,13.912668 6.007059,13.560081 5.6816406,13.28125 5.356271,13.002605 4.9691716,12.804406 4.5527344,12.703125 4.109939,12.595704 4,12.330635 4,12 4,11.669365 4.109939,11.404296 4.5527344,11.296875 4.969559,11.195908 5.3558037,10.997644 5.6816406,10.71875 6.0074604,10.439903 6.2635914,10.087561 6.4277344,9.6914063 6.5918813,9.2952037 6.6600993,8.8670042 6.6269531,8.4394531 6.5938531,8.0124975 6.4589781,7.5981645 6.2363281,7.2324219 v -0.00195 C 6.0013374,6.8428082 6.110248,6.5773085 6.34375,6.34375 6.5777589,6.1096845 6.8427982,5.999122 7.2324219,6.2363281 a 1.0001,1.0001 0 0 0 0.00195,0 C 8.785842,7.17962 10.868192,6.3156146 11.296875,4.5527344 11.404296,4.109939 11.669365,4 12,4 Z"
       id="path1" />
    <path
       style="color:#000000;fill:#2c3e50;stroke-linecap:round;stroke-linejoin:round;-inkscape-stroke:none"
       d="M 12,8 C 10.939553,8 9.9217709,8.4219924 9.171875,9.171875 8.4219924,9.9217709 8,10.939553 8,12 8,13.060447 8.4219777,14.078241 9.171875,14.828125 9.9217577,15.577981 10.939528,16 12,16 13.060472,16 14.078254,15.577996 14.828125,14.828125 15.577996,14.078254 16,13.060472 16,12 16,10.939528 15.577981,9.9217577 14.828125,9.171875 14.078241,8.4219777 13.060447,8 12,8 Z m 0,2 c 0.530751,0 1.038748,0.210616 1.414063,0.585938 C 13.789405,10.961294 14,11.469274 14,12 14,12.530726 13.789391,13.038734 13.414063,13.414063 13.038734,13.789391 12.530726,14 12,14 11.469274,14 10.961294,13.789405 10.585938,13.414063 10.210616,13.038748 10,12.530751 10,12 10,11.469249 10.210601,10.96128 10.585938,10.585938 10.96128,10.210601 11.469249,10 12,10 Z"
       id="path2" />
  </g>
  <defs
     id="defs2">
    <clipPath
       id="clip0_20119_594">
      <rect
         width="24"
         height="24"
         fill="white"
         id="rect2" />
    </clipPath>
  </defs>
</svg>
