<?xml version="1.0" encoding="UTF-8" standalone="no"?>
<svg
   width="24"
   height="24"
   viewBox="0 0 24 24"
   fill="none"
   version="1.1"
   id="svg5"
   sodipodi:docname="shooping-cart-x_2px.svg"
   inkscape:version="1.3.2 (091e20e, 2023-11-25)"
   xmlns:inkscape="http://www.inkscape.org/namespaces/inkscape"
   xmlns:sodipodi="http://sodipodi.sourceforge.net/DTD/sodipodi-0.dtd"
   xmlns="http://www.w3.org/2000/svg"
   xmlns:svg="http://www.w3.org/2000/svg">
  <sodipodi:namedview
     id="namedview5"
     pagecolor="#505050"
     bordercolor="#eeeeee"
     borderopacity="1"
     inkscape:showpageshadow="0"
     inkscape:pageopacity="0"
     inkscape:pagecheckerboard="0"
     inkscape:deskcolor="#505050"
     inkscape:zoom="9.8333333"
     inkscape:cx="11.949153"
     inkscape:cy="12"
     inkscape:window-width="1504"
     inkscape:window-height="449"
     inkscape:window-x="0"
     inkscape:window-y="25"
     inkscape:window-maximized="0"
     inkscape:current-layer="svg5" />
  <g
     clip-path="url(#clip0_20119_475)"
     id="g5">
    <path
       style="color:#000000;fill:#2c3e50;stroke-linecap:round;stroke-linejoin:round;-inkscape-stroke:none"
       d="M 6,16 C 5.2047542,16 4.4412548,16.316513 3.8789063,16.878906 3.3165904,17.441252 3,18.204757 3,19 3,19.795243 3.3165904,20.558748 3.8789063,21.121094 4.4412548,21.683487 5.2047542,22 6,22 6.7952458,22 7.5587452,21.683487 8.1210938,21.121094 8.6834096,20.558748 9,19.795243 9,19 9,18.204757 8.6834096,17.441252 8.1210938,16.878906 7.5587452,16.316513 6.7952458,16 6,16 Z m 0,2 c 0.2656131,0 0.5192406,0.105163 0.7070312,0.292969 C 6.8948746,18.480822 7,18.734444 7,19 7,19.265556 6.8948746,19.519178 6.7070312,19.707031 6.5192406,19.894837 6.2656131,20 6,20 5.7343869,20 5.4807594,19.894837 5.2929687,19.707031 5.1051254,19.519178 5,19.265556 5,19 5,18.734444 5.1051254,18.480822 5.2929687,18.292969 5.4807594,18.105163 5.7343869,18 6,18 Z"
       id="path1" />
    <path
       style="color:#000000;fill:#2c3e50;stroke-linecap:round;stroke-linejoin:round;-inkscape-stroke:none"
       d="M 4,2 A 1,1 0 0 0 3,3 1,1 0 0 0 4,4 h 1 v 13 a 1.0001,1.0001 0 0 0 1,1 h 7 a 1,1 0 0 0 1,-1 1,1 0 0 0 -1,-1 H 7 V 3 A 1.0001,1.0001 0 0 0 6,2 Z"
       id="path2" />
    <path
       style="color:#000000;fill:#2c3e50;stroke-linecap:round;stroke-linejoin:round;-inkscape-stroke:none"
       d="M 6.0703125,4.0019531 A 1,1 0 0 0 5.0019531,4.9296875 1,1 0 0 0 5.9296875,5.9980469 L 18.857422,6.921875 18.132812,12 H 6 a 1,1 0 0 0 -1,1 1,1 0 0 0 1,1 h 13 a 1.0001,1.0001 0 0 0 0.990234,-0.859375 l 1,-7 A 1.0001,1.0001 0 0 0 20.070312,5.0019531 Z"
       id="path3" />
    <path
       style="color:#000000;fill:#2c3e50;stroke-linecap:round;stroke-linejoin:round;-inkscape-stroke:none"
       d="m 16.292969,16.292969 a 1,1 0 0 0 0,1.414062 l 5,5 a 1,1 0 0 0 1.414062,0 1,1 0 0 0 0,-1.414062 l -5,-5 a 1,1 0 0 0 -1.414062,0 z"
       id="path4" />
    <path
       style="color:#000000;fill:#2c3e50;stroke-linecap:round;stroke-linejoin:round;-inkscape-stroke:none"
       d="m 21.292969,16.292969 -5,5 a 1,1 0 0 0 0,1.414062 1,1 0 0 0 1.414062,0 l 5,-5 a 1,1 0 0 0 0,-1.414062 1,1 0 0 0 -1.414062,0 z"
       id="path5" />
  </g>
  <defs
     id="defs5">
    <clipPath
       id="clip0_20119_475">
      <rect
         width="24"
         height="24"
         fill="white"
         id="rect5" />
    </clipPath>
  </defs>
</svg>
