<?xml version="1.0" encoding="UTF-8" standalone="no"?>
<svg
   width="24"
   height="24"
   viewBox="0 0 24 24"
   fill="none"
   version="1.1"
   id="svg4"
   sodipodi:docname="shopping-bag-search_2px.svg"
   inkscape:version="1.3.2 (091e20e, 2023-11-25)"
   xmlns:inkscape="http://www.inkscape.org/namespaces/inkscape"
   xmlns:sodipodi="http://sodipodi.sourceforge.net/DTD/sodipodi-0.dtd"
   xmlns="http://www.w3.org/2000/svg"
   xmlns:svg="http://www.w3.org/2000/svg">
  <sodipodi:namedview
     id="namedview4"
     pagecolor="#505050"
     bordercolor="#eeeeee"
     borderopacity="1"
     inkscape:showpageshadow="0"
     inkscape:pageopacity="0"
     inkscape:pagecheckerboard="0"
     inkscape:deskcolor="#505050"
     inkscape:zoom="9.8333333"
     inkscape:cx="11.949153"
     inkscape:cy="12"
     inkscape:window-width="1504"
     inkscape:window-height="449"
     inkscape:window-x="0"
     inkscape:window-y="25"
     inkscape:window-maximized="0"
     inkscape:current-layer="svg4" />
  <g
     clip-path="url(#clip0_20119_341)"
     id="g4">
    <path
       style="color:#000000;fill:#2c3e50;stroke-linecap:round;stroke-linejoin:round;-inkscape-stroke:none"
       d="M 6.3300781,7 C 5.898224,7.0002328 5.470563,7.0931015 5.078125,7.2734375 4.6851111,7.4540451 4.3363497,7.7186416 4.0546875,8.046875 3.7730465,8.3751162 3.5641353,8.7598863 3.4453125,9.1757813 3.326502,9.5916703 3.2994889,10.027575 3.3652344,10.455078 a 1.0001,1.0001 0 0 0 0,0.002 l 1.2558593,8.150391 C 4.7662841,19.551586 5.2437646,20.41315 5.96875,21.035156 6.6936723,21.657109 7.6188998,22 8.5742188,22 H 11.5 a 1,1 0 0 0 1,-1 1,1 0 0 0 -1,-1 H 8.5742188 C 8.0963391,20 7.634261,19.828825 7.2714844,19.517578 6.9087709,19.206385 6.6703057,18.777122 6.5976562,18.304687 L 5.3417969,10.152344 C 5.3198824,10.009847 5.3295312,9.8632597 5.3691406,9.7246094 5.4087576,9.5859449 5.478347,9.4590677 5.5722656,9.3496094 5.666183,9.2401633 5.783037,9.152009 5.9140625,9.0917969 6.0450996,9.0315817 6.185851,8.999985 6.3300781,9 H 17.669922 c 0.144272,-1.5e-5 0.287032,0.031621 0.417969,0.091797 0.131025,0.060216 0.24787,0.1483616 0.341796,0.2578125 0.09387,0.1093886 0.161555,0.2362975 0.201172,0.375 a 1.0001,1.0001 0 0 0 0.002,0 c 0.03959,0.1384413 0.04732,0.2853386 0.02539,0.4277346 l -0.117187,0.761719 a 1,1 0 0 0 0.83789,1.138671 1,1 0 0 0 1.138672,-0.835937 l 0.117188,-0.759766 v -0.002 c 0.06548,-0.426982 0.03875,-0.8638305 -0.08008,-1.2792967 C 20.435906,8.7599243 20.228996,8.3751859 19.947266,8.046875 19.665593,7.7186463 19.316802,7.4540407 18.923828,7.2734375 18.530765,7.0927934 18.102449,6.999955 17.669922,7 H 6.3320312 Z"
       id="path1" />
    <path
       style="color:#000000;fill:#2c3e50;stroke-linecap:round;stroke-linejoin:round;-inkscape-stroke:none"
       d="M 12,2 C 10.939553,2 9.9217709,2.4219924 9.171875,3.171875 8.4220018,3.9217482 8,4.9395194 8,6 v 5 a 1,1 0 0 0 1,1 1,1 0 0 0 1,-1 V 6 C 10,5.4691822 10.210592,4.9612832 10.585938,4.5859375 10.96128,4.2106012 11.469249,4 12,4 12.530751,4 13.038748,4.2106159 13.414063,4.5859375 13.789415,4.9612965 14,5.4692074 14,6 v 5 a 1,1 0 0 0 1,1 1,1 0 0 0 1,-1 V 6 C 16,4.9394942 15.577972,3.9217349 14.828125,3.171875 14.078241,2.4219777 13.060447,2 12,2 Z"
       id="path2" />
    <path
       style="color:#000000;fill:#2c3e50;stroke-linecap:round;stroke-linejoin:round;-inkscape-stroke:none"
       d="m 18,14 c -1.060472,0 -2.078254,0.422004 -2.828125,1.171875 C 14.422004,15.921746 14,16.939528 14,18 c 0,1.060472 0.422004,2.078254 1.171875,2.828125 C 15.921746,21.577996 16.939528,22 18,22 19.060472,22 20.078254,21.577996 20.828125,20.828125 21.577996,20.078254 22,19.060472 22,18 22,16.939528 21.577996,15.921746 20.828125,15.171875 20.078254,14.422004 19.060472,14 18,14 Z m 0,2 c 0.530726,0 1.038734,0.210609 1.414062,0.585937 C 19.789391,16.961266 20,17.469274 20,18 20,18.530726 19.789391,19.038734 19.414062,19.414062 19.038734,19.789391 18.530726,20 18,20 17.469274,20 16.961266,19.789391 16.585937,19.414062 16.210609,19.038734 16,18.530726 16,18 16,17.469274 16.210609,16.961266 16.585937,16.585937 16.961266,16.210609 17.469274,16 18,16 Z"
       id="path3" />
    <path
       style="color:#000000;fill:#2c3e50;stroke-linecap:round;stroke-linejoin:round;-inkscape-stroke:none"
       d="m 19.492187,19.492187 a 1,1 0 0 0 0,1.414063 l 1.800782,1.800781 a 1,1 0 0 0 1.414062,0 1,1 0 0 0 0,-1.414062 L 20.90625,19.492187 a 1,1 0 0 0 -1.414063,0 z"
       id="path4" />
  </g>
  <defs
     id="defs4">
    <clipPath
       id="clip0_20119_341">
      <rect
         width="24"
         height="24"
         fill="white"
         id="rect4" />
    </clipPath>
  </defs>
</svg>
