<?xml version="1.0" encoding="UTF-8" standalone="no"?>
<svg
   width="24"
   height="24"
   viewBox="0 0 24 24"
   fill="none"
   version="1.1"
   id="svg4"
   sodipodi:docname="sort-ascending-2.svg"
   inkscape:export-filename="sort-ascending-2.svg"
   inkscape:export-xdpi="96"
   inkscape:export-ydpi="96"
   inkscape:version="1.3.2 (091e20e, 2023-11-25)"
   xmlns:inkscape="http://www.inkscape.org/namespaces/inkscape"
   xmlns:sodipodi="http://sodipodi.sourceforge.net/DTD/sodipodi-0.dtd"
   xmlns="http://www.w3.org/2000/svg"
   xmlns:svg="http://www.w3.org/2000/svg">
  <sodipodi:namedview
     id="namedview4"
     pagecolor="#505050"
     bordercolor="#eeeeee"
     borderopacity="1"
     inkscape:showpageshadow="0"
     inkscape:pageopacity="0"
     inkscape:pagecheckerboard="0"
     inkscape:deskcolor="#505050"
     inkscape:zoom="9.8333333"
     inkscape:cx="11.949153"
     inkscape:cy="12"
     inkscape:window-width="1504"
     inkscape:window-height="449"
     inkscape:window-x="0"
     inkscape:window-y="25"
     inkscape:window-maximized="0"
     inkscape:current-layer="svg4" />
  <g
     clip-path="url(#clip0_19845_228)"
     id="g4">
    <path
       style="color:#000000;fill:#2c3e50;stroke-linecap:round;stroke-linejoin:round;-inkscape-stroke:none"
       d="m 16.46875,5.46875 -3,3 a 0.75,0.75 0 0 0 0,1.0625 0.75,0.75 0 0 0 1.0625,0 L 17,7.0625 19.46875,9.53125 a 0.75,0.75 0 0 0 1.0625,0 0.75,0.75 0 0 0 0,-1.0625 l -3,-3 a 0.750075,0.750075 0 0 0 -1.0625,0 z"
       id="path1" />
    <path
       style="color:#000000;fill:#2c3e50;stroke-linecap:round;stroke-linejoin:round;-inkscape-stroke:none"
       d="M 5.5,4.25 C 5.1687628,4.25 4.8494608,4.380983 4.6152344,4.6152344 4.380983,4.8494608 4.25,5.1687628 4.25,5.5 v 4 c 0,0.3312372 0.130983,0.650539 0.3652344,0.884766 C 4.8494608,10.619017 5.1687628,10.75 5.5,10.75 h 4 c 0.3312372,0 0.650539,-0.130983 0.884766,-0.365234 C 10.619017,10.150539 10.75,9.8312372 10.75,9.5 v -4 C 10.75,5.1687628 10.619017,4.8494608 10.384766,4.6152344 10.150539,4.380983 9.8312372,4.25 9.5,4.25 Z m 0.25,1.5 h 3.5 v 3.5 h -3.5 z"
       id="path2" />
    <path
       style="color:#000000;fill:#2c3e50;stroke-linecap:round;stroke-linejoin:round;-inkscape-stroke:none"
       d="m 5.5,13.25 c -0.3313126,0 -0.6486456,0.131217 -0.8828125,0.365234 a 0.750075,0.750075 0 0 0 -0.00195,0 C 4.3810775,13.849466 4.25,14.168758 4.25,14.5 v 4 c 0,0.331242 0.1310775,0.650534 0.3652344,0.884766 a 0.750075,0.750075 0 0 0 0.00195,0 C 4.8513544,19.618783 5.1686874,19.75 5.5,19.75 h 4 c 0.3313126,0 0.648646,-0.131217 0.882813,-0.365234 a 0.750075,0.750075 0 0 0 0.002,0 C 10.618923,19.150534 10.75,18.831242 10.75,18.5 v -4 c 0,-0.331242 -0.131077,-0.650534 -0.365234,-0.884766 a 0.750075,0.750075 0 0 0 -0.002,0 C 10.148646,13.381217 9.8313126,13.25 9.5,13.25 Z m 0.25,1.5 h 3.5 v 3.5 h -3.5 z"
       id="path3" />
    <path
       style="color:#000000;fill:#2c3e50;stroke-linecap:round;stroke-linejoin:round;-inkscape-stroke:none"
       d="M 17,5.25 A 0.75,0.75 0 0 0 16.25,6 V 18 A 0.75,0.75 0 0 0 17,18.75 0.75,0.75 0 0 0 17.75,18 V 6 A 0.75,0.75 0 0 0 17,5.25 Z"
       id="path4" />
  </g>
  <defs
     id="defs4">
    <clipPath
       id="clip0_19845_228">
      <rect
         width="24"
         height="24"
         fill="white"
         id="rect4" />
    </clipPath>
  </defs>
</svg>
