<svg width="24" height="24" viewBox="0 0 24 24" fill="none" xmlns="http://www.w3.org/2000/svg">
<g clip-path="url(#clip0_17718_484)">
<mask id="mask0_17718_484" style="mask-type:luminance" maskUnits="userSpaceOnUse" x="0" y="0" width="24" height="24">
<path d="M24 0H0V24H24V0Z" fill="white"/>
</mask>
<g mask="url(#mask0_17718_484)">
<path d="M4 5.25C3.80109 5.25 3.61032 5.32902 3.46967 5.46967C3.32902 5.61032 3.25 5.80109 3.25 6C3.25 6.19891 3.32902 6.38968 3.46967 6.53033C3.61032 6.67098 3.80109 6.75 4 6.75H13C13.1989 6.75 13.3897 6.67098 13.5303 6.53033C13.671 6.38968 13.75 6.19891 13.75 6C13.75 5.80109 13.671 5.61032 13.5303 5.46967C13.3897 5.32902 13.1989 5.25 13 5.25H4Z" fill="#2C3E50"/>
<path d="M4 11.25C3.80109 11.25 3.61032 11.329 3.46967 11.4697C3.32902 11.6103 3.25 11.8011 3.25 12C3.25 12.1989 3.32902 12.3897 3.46967 12.5303C3.61032 12.671 3.80109 12.75 4 12.75H11C11.1989 12.75 11.3897 12.671 11.5303 12.5303C11.671 12.3897 11.75 12.1989 11.75 12C11.75 11.8011 11.671 11.6103 11.5303 11.4697C11.3897 11.329 11.1989 11.25 11 11.25H4Z" fill="#2C3E50"/>
<path d="M4 17.25C3.80109 17.25 3.61032 17.329 3.46967 17.4697C3.32902 17.6103 3.25 17.8011 3.25 18C3.25 18.1989 3.32902 18.3897 3.46967 18.5303C3.61032 18.671 3.80109 18.75 4 18.75H11C11.1989 18.75 11.3897 18.671 11.5303 18.5303C11.671 18.3897 11.75 18.1989 11.75 18C11.75 17.8011 11.671 17.6103 11.5303 17.4697C11.3897 17.329 11.1989 17.25 11 17.25H4Z" fill="#2C3E50"/>
<path d="M14.9999 14.25C14.9013 14.2498 14.8036 14.2689 14.7125 14.3065C14.6213 14.344 14.5385 14.3992 14.4686 14.4687C14.3987 14.5384 14.3432 14.6212 14.3054 14.7124C14.2675 14.8035 14.248 14.9013 14.248 15C14.248 15.0987 14.2675 15.1964 14.3054 15.2876C14.3432 15.3788 14.3987 15.4616 14.4686 15.5312L17.4686 18.5312C17.5383 18.6012 17.6211 18.6566 17.7123 18.6945C17.8034 18.7323 17.9012 18.7518 17.9999 18.7518C18.0986 18.7518 18.1963 18.7323 18.2875 18.6945C18.3787 18.6566 18.4615 18.6012 18.5311 18.5312L21.5311 15.5312C21.6011 15.4616 21.6565 15.3788 21.6944 15.2876C21.7322 15.1964 21.7517 15.0987 21.7517 15C21.7517 14.9013 21.7322 14.8035 21.6944 14.7124C21.6565 14.6212 21.6011 14.5384 21.5311 14.4687C21.4615 14.3988 21.3787 14.3433 21.2875 14.3055C21.1963 14.2676 21.0986 14.2482 20.9999 14.2482C20.9012 14.2482 20.8034 14.2676 20.7123 14.3055C20.6211 14.3433 20.5383 14.3988 20.4686 14.4687L17.9999 16.9375L15.5311 14.4687C15.4613 14.3992 15.3784 14.344 15.2873 14.3065C15.1961 14.2689 15.0985 14.2498 14.9999 14.25Z" fill="#2C3E50"/>
<path d="M18 5.25C17.8011 5.25 17.6103 5.32902 17.4697 5.46967C17.329 5.61032 17.25 5.80109 17.25 6V18C17.25 18.1989 17.329 18.3897 17.4697 18.5303C17.6103 18.671 17.8011 18.75 18 18.75C18.1989 18.75 18.3897 18.671 18.5303 18.5303C18.671 18.3897 18.75 18.1989 18.75 18V6C18.75 5.80109 18.671 5.61032 18.5303 5.46967C18.3897 5.32902 18.1989 5.25 18 5.25Z" fill="#2C3E50"/>
</g>
</g>
<defs>
<clipPath id="clip0_17718_484">
<rect width="24" height="24" fill="white"/>
</clipPath>
</defs>
</svg>
