<svg width="24" height="24" viewBox="0 0 24 24" fill="none" xmlns="http://www.w3.org/2000/svg">
<g clip-path="url(#clip0_17718_474)">
<mask id="mask0_17718_474" style="mask-type:luminance" maskUnits="userSpaceOnUse" x="0" y="0" width="24" height="24">
<path d="M24 0H0V24H24V0Z" fill="white"/>
</mask>
<g mask="url(#mask0_17718_474)">
<path d="M4 5.25C3.80109 5.25 3.61032 5.32902 3.46967 5.46967C3.32902 5.61032 3.25 5.80109 3.25 6C3.25 6.19891 3.32902 6.38968 3.46967 6.53033C3.61032 6.67098 3.80109 6.75 4 6.75H11C11.1989 6.75 11.3897 6.67098 11.5303 6.53033C11.671 6.38968 11.75 6.19891 11.75 6C11.75 5.80109 11.671 5.61032 11.5303 5.46967C11.3897 5.32902 11.1989 5.25 11 5.25H4Z" fill="#2C3E50"/>
<path d="M4 11.25C3.80109 11.25 3.61032 11.329 3.46967 11.4697C3.32902 11.6103 3.25 11.8011 3.25 12C3.25 12.1989 3.32902 12.3897 3.46967 12.5303C3.61032 12.671 3.80109 12.75 4 12.75H11C11.1989 12.75 11.3897 12.671 11.5303 12.5303C11.671 12.3897 11.75 12.1989 11.75 12C11.75 11.8011 11.671 11.6103 11.5303 11.4697C11.3897 11.329 11.1989 11.25 11 11.25H4Z" fill="#2C3E50"/>
<path d="M4 17.25C3.80109 17.25 3.61032 17.329 3.46967 17.4697C3.32902 17.6103 3.25 17.8011 3.25 18C3.25 18.1989 3.32902 18.3897 3.46967 18.5303C3.61032 18.671 3.80109 18.75 4 18.75H13C13.1989 18.75 13.3897 18.671 13.5303 18.5303C13.671 18.3897 13.75 18.1989 13.75 18C13.75 17.8011 13.671 17.6103 13.5303 17.4697C13.3897 17.329 13.1989 17.25 13 17.25H4Z" fill="#2C3E50"/>
<path d="M17.4686 5.46874L14.4686 8.46874C14.3987 8.53842 14.3432 8.62122 14.3054 8.71238C14.2675 8.80354 14.248 8.90128 14.248 8.99999C14.248 9.0987 14.2675 9.19644 14.3054 9.28761C14.3432 9.37877 14.3987 9.46157 14.4686 9.53124C14.5383 9.60116 14.6211 9.65664 14.7123 9.6945C14.8034 9.73235 14.9012 9.75184 14.9999 9.75184C15.0986 9.75184 15.1963 9.73235 15.2875 9.6945C15.3787 9.65664 15.4615 9.60116 15.5311 9.53124L17.9999 7.06249L20.4686 9.53124C20.5383 9.60116 20.6211 9.65664 20.7123 9.6945C20.8034 9.73235 20.9012 9.75184 20.9999 9.75184C21.0986 9.75184 21.1963 9.73235 21.2875 9.6945C21.3787 9.65664 21.4615 9.60116 21.5311 9.53124C21.6011 9.46157 21.6565 9.37877 21.6944 9.28761C21.7322 9.19644 21.7517 9.0987 21.7517 8.99999C21.7517 8.90128 21.7322 8.80354 21.6944 8.71238C21.6565 8.62122 21.6011 8.53842 21.5311 8.46874L18.5311 5.46874C18.4615 5.39883 18.3787 5.34336 18.2875 5.30552C18.1963 5.26767 18.0986 5.24818 17.9999 5.24818C17.9012 5.24818 17.8034 5.26767 17.7123 5.30552C17.6211 5.34336 17.5383 5.39883 17.4686 5.46874Z" fill="#2C3E50"/>
<path d="M18 5.25C17.8011 5.25 17.6103 5.32902 17.4697 5.46967C17.329 5.61032 17.25 5.80109 17.25 6V18C17.25 18.1989 17.329 18.3897 17.4697 18.5303C17.6103 18.671 17.8011 18.75 18 18.75C18.1989 18.75 18.3897 18.671 18.5303 18.5303C18.671 18.3897 18.75 18.1989 18.75 18V6C18.75 5.80109 18.671 5.61032 18.5303 5.46967C18.3897 5.32902 18.1989 5.25 18 5.25Z" fill="#2C3E50"/>
</g>
</g>
<defs>
<clipPath id="clip0_17718_474">
<rect width="24" height="24" fill="white"/>
</clipPath>
</defs>
</svg>
