<?xml version="1.0" encoding="UTF-8" standalone="no"?>
<svg
   width="24"
   height="24"
   viewBox="0 0 24 24"
   fill="none"
   version="1.1"
   id="svg2"
   sodipodi:docname="speedtest_2px.svg"
   inkscape:version="1.3.2 (091e20e, 2023-11-25)"
   xmlns:inkscape="http://www.inkscape.org/namespaces/inkscape"
   xmlns:sodipodi="http://sodipodi.sourceforge.net/DTD/sodipodi-0.dtd"
   xmlns="http://www.w3.org/2000/svg"
   xmlns:svg="http://www.w3.org/2000/svg">
  <sodipodi:namedview
     id="namedview2"
     pagecolor="#505050"
     bordercolor="#eeeeee"
     borderopacity="1"
     inkscape:showpageshadow="0"
     inkscape:pageopacity="0"
     inkscape:pagecheckerboard="0"
     inkscape:deskcolor="#505050"
     inkscape:zoom="9.8333333"
     inkscape:cx="11.949153"
     inkscape:cy="12"
     inkscape:window-width="1504"
     inkscape:window-height="449"
     inkscape:window-x="0"
     inkscape:window-y="25"
     inkscape:window-maximized="0"
     inkscape:current-layer="svg2" />
  <g
     clip-path="url(#clip0_20122_449)"
     id="g2">
    <path
       style="color:#000000;fill:#2c3e50;stroke-linecap:round;stroke-linejoin:round;-inkscape-stroke:none"
       d="M 12,3 C 10.022309,3 8.0877748,3.5867849 6.4433594,4.6855469 4.7989429,5.7842985 3.5185604,7.3466709 2.7617188,9.1738281 2.004876,11.000988 1.8055781,13.011476 2.1914063,14.951172 c 0.3858241,1.939787 1.3398508,3.720666 2.7382812,5.11914 a 1,1 0 0 0 1.4140625,0 1,1 0 0 0 0,-1.414062 C 5.2248629,17.537327 4.462992,16.112557 4.1542969,14.560547 3.8456057,13.008646 4.0038391,11.40133 4.609375,9.9394531 5.214912,8.4775736 6.239027,7.2267426 7.5546875,6.3476562 8.8703491,5.4685602 10.417694,5 12,5 c 1.582306,0 3.129703,0.4685712 4.445312,1.3476562 1.315705,0.87908 2.339759,2.1298975 2.945313,3.5917969 0.605539,1.4618619 0.763723,3.0691599 0.455078,4.6210939 -0.308737,1.552043 -1.070543,2.976793 -2.189453,4.095703 a 1,1 0 0 0 0,1.414062 1,1 0 0 0 1.414062,0 c 1.398488,-1.398487 2.35242,-3.179387 2.738282,-5.11914 0.385755,-1.939663 0.186547,-3.950169 -0.570313,-5.7773439 C 20.481623,7.3471413 19.200549,5.7842623 17.556641,4.6855469 15.912253,3.5867739 13.977691,3 12,3 Z"
       id="path1" />
    <path
       style="color:#000000;fill:#2c3e50;stroke-linecap:round;stroke-linejoin:round;-inkscape-stroke:none"
       d="m 15.292969,8.2929688 -4,4.0000002 a 1,1 0 0 0 0,1.414062 1,1 0 0 0 1.414062,0 l 4,-3.9999997 a 1,1 0 0 0 0,-1.4140625 1,1 0 0 0 -1.414062,0 z"
       id="path2" />
  </g>
  <defs
     id="defs2">
    <clipPath
       id="clip0_20122_449">
      <rect
         width="24"
         height="24"
         fill="white"
         id="rect2" />
    </clipPath>
  </defs>
</svg>
