<?xml version="1.0" encoding="UTF-8" standalone="no"?>
<svg
   width="24"
   height="24"
   viewBox="0 0 24 24"
   fill="none"
   version="1.1"
   id="svg1"
   sodipodi:docname="thumb-up_2px.svg"
   inkscape:version="1.3.2 (091e20e, 2023-11-25)"
   xmlns:inkscape="http://www.inkscape.org/namespaces/inkscape"
   xmlns:sodipodi="http://sodipodi.sourceforge.net/DTD/sodipodi-0.dtd"
   xmlns="http://www.w3.org/2000/svg"
   xmlns:svg="http://www.w3.org/2000/svg">
  <sodipodi:namedview
     id="namedview1"
     pagecolor="#505050"
     bordercolor="#eeeeee"
     borderopacity="1"
     inkscape:showpageshadow="0"
     inkscape:pageopacity="0"
     inkscape:pagecheckerboard="0"
     inkscape:deskcolor="#505050"
     inkscape:zoom="9.8333333"
     inkscape:cx="11.949153"
     inkscape:cy="12"
     inkscape:window-width="1504"
     inkscape:window-height="449"
     inkscape:window-x="0"
     inkscape:window-y="25"
     inkscape:window-maximized="0"
     inkscape:current-layer="svg1" />
  <g
     clip-path="url(#clip0_20123_56)"
     id="g1">
    <path
       style="color:#000000;fill:#2c3e50;stroke-linecap:round;stroke-linejoin:round;-inkscape-stroke:none"
       d="M 13,3 C 12.204757,3 11.441252,3.3165904 10.878906,3.8789063 10.316513,4.4412548 10,5.2047542 10,6 V 7 C 10,7.7960551 9.6839867,8.5582158 9.1210938,9.1210938 8.5582158,9.6839867 7.7960551,10 7,10 H 4 C 3.4698432,10 2.9606708,10.211284 2.5859375,10.585938 2.2110167,10.960798 2,11.469944 2,12 v 7 c 0,0.530056 0.2110167,1.039202 0.5859375,1.414062 C 2.9606708,20.788716 3.4698432,21 4,21 h 2 c 0.5301568,0 1.0393292,-0.211284 1.4140625,-0.585938 0.087953,-0.08794 0.067423,-0.230759 0.1367187,-0.332031 C 8.2538546,20.638653 9.0945198,21 10,21 h 7 l -0.08398,-0.0039 c 0.755213,0.06421 1.486948,-0.260533 2.013671,-0.78711 0.526495,-0.52664 0.864063,-1.217192 1.042969,-1.980468 a 1.0001,1.0001 0 0 0 0.0078,-0.0332 l 1,-4.999999 A 1.0001,1.0001 0 0 0 21,13 C 21,12.204769 20.683448,11.44126 20.121094,10.878906 19.55874,10.316552 18.795231,10 18,10 H 16 V 6 C 16,5.2047542 15.683487,4.4412548 15.121094,3.8789063 14.558748,3.3165904 13.795243,3 13,3 Z m 0,2 c 0.265556,0 0.519178,0.1051254 0.707031,0.2929687 C 13.894837,5.4807594 14,5.7343869 14,6 v 5 a 1.0001,1.0001 0 0 0 1,1 h 3 c 0.265568,0 0.519186,0.105124 0.707031,0.292969 0.179475,0.179474 0.270393,0.423161 0.279297,0.675781 l -0.960937,4.806641 c -0.10886,0.460483 -0.315865,0.823148 -0.509766,1.017578 -0.194876,0.194822 -0.321255,0.220323 -0.431641,0.210937 A 1.0001,1.0001 0 0 0 17,19 H 10 C 9.4692074,19 8.9612965,18.789415 8.5859375,18.414062 8.2106159,18.038748 8,17.530751 8,17 V 11.800781 C 8.9446089,11.603237 9.8426241,11.227707 10.535156,10.535156 11.472602,9.5977357 12,8.3256828 12,7 V 6 C 12,5.7343869 12.105163,5.4807594 12.292969,5.2929687 12.480822,5.1051254 12.734444,5 13,5 Z m -9,7 h 2 v 5 2 H 4 Z"
       id="path1" />
  </g>
  <defs
     id="defs1">
    <clipPath
       id="clip0_20123_56">
      <rect
         width="24"
         height="24"
         fill="white"
         id="rect1" />
    </clipPath>
  </defs>
</svg>
