<?xml version="1.0" encoding="UTF-8" standalone="no"?>
<svg
   width="24"
   height="24"
   viewBox="0 0 24 24"
   fill="none"
   version="1.1"
   id="svg1"
   sodipodi:docname="thumb-down_2px.svg"
   inkscape:version="1.3.2 (091e20e, 2023-11-25)"
   xmlns:inkscape="http://www.inkscape.org/namespaces/inkscape"
   xmlns:sodipodi="http://sodipodi.sourceforge.net/DTD/sodipodi-0.dtd"
   xmlns="http://www.w3.org/2000/svg"
   xmlns:svg="http://www.w3.org/2000/svg">
  <sodipodi:namedview
     id="namedview1"
     pagecolor="#505050"
     bordercolor="#eeeeee"
     borderopacity="1"
     inkscape:showpageshadow="0"
     inkscape:pageopacity="0"
     inkscape:pagecheckerboard="0"
     inkscape:deskcolor="#505050"
     inkscape:zoom="9.8333333"
     inkscape:cx="11.949153"
     inkscape:cy="12"
     inkscape:window-width="1504"
     inkscape:window-height="449"
     inkscape:window-x="0"
     inkscape:window-y="25"
     inkscape:window-maximized="0"
     inkscape:current-layer="svg1" />
  <g
     clip-path="url(#clip0_20123_47)"
     id="g1">
    <path
       style="color:#000000;fill:#2c3e50;stroke-linecap:round;stroke-linejoin:round;-inkscape-stroke:none"
       d="M 4,3 C 3.4699438,3 2.9607293,3.2111457 2.5859375,3.5859375 2.2111331,3.9607419 2,4.4699438 2,5 v 7 c 0,0.530056 0.2110167,1.039202 0.5859375,1.414063 C 2.9606708,13.788716 3.4698432,14 4,14 h 3 c 0.7960551,0 1.5582173,0.315992 2.1210938,0.878906 C 9.6839623,15.441722 10,16.203907 10,17 v 1 c 0,0.795231 0.316552,1.55874 0.878906,2.121094 C 11.44126,20.683448 12.204769,21 13,21 13.795231,21 14.55874,20.683448 15.121094,20.121094 15.683448,19.55874 16,18.795231 16,18 v -4 h 2 c 0.795231,0 1.55874,-0.316552 2.121094,-0.878906 C 20.683448,12.55874 21,11.795231 21,11 a 1.0001,1.0001 0 0 0 -0.01953,-0.195312 l -1,-5.0000005 a 1.0001,1.0001 0 0 0 -0.0078,-0.033203 C 19.793752,5.0082548 19.456322,4.3176793 18.929687,3.7910156 18.402989,3.2644338 17.671317,2.9396498 16.916016,3.0039063 L 17,3 H 10 C 9.0945412,3 8.2538663,3.3613391 7.5507812,3.9179688 7.481496,3.8167044 7.5019881,3.6738631 7.4140625,3.5859375 7.0392707,3.2111457 6.5300562,3 6,3 Z m 13.083984,1.9960937 c 0.110299,-0.00938 0.23674,0.01608 0.431641,0.2109375 0.19402,0.1940311 0.400736,0.5564049 0.509766,1.0175782 4.18e-4,0.00177 0.0015,0.00213 0.002,0.00391 l 0.958984,4.8027344 c -0.0089,0.25262 -0.09982,0.496307 -0.279297,0.675781 C 18.519186,11.894876 18.265568,12 18,12 h -3 a 1.0001,1.0001 0 0 0 -1,1 v 5 c 0,0.265568 -0.105124,0.519186 -0.292969,0.707031 C 13.519186,18.894876 13.265568,19 13,19 12.734432,19 12.480814,18.894876 12.292969,18.707031 12.105124,18.519186 12,18.265568 12,18 V 17 C 12,15.674295 11.472626,14.402226 10.535156,13.464844 9.842623,12.772264 8.9446125,12.396767 8,12.199219 V 7 C 8,6.4691822 8.2105918,5.9612832 8.5859375,5.5859375 8.9612832,5.2105918 9.4691822,5 10,5 h 7 a 1.0001,1.0001 0 0 0 0.08398,-0.00391 z M 4,5 h 2 v 2 5 H 4 Z"
       id="path1" />
  </g>
  <defs
     id="defs1">
    <clipPath
       id="clip0_20123_47">
      <rect
         width="24"
         height="24"
         fill="white"
         id="rect1" />
    </clipPath>
  </defs>
</svg>
