<svg width="24" height="24" viewBox="0 0 24 24" fill="none" xmlns="http://www.w3.org/2000/svg">
<g clip-path="url(#clip0_20123_60)">
<path d="M13 21.008C13.765 21.0081 14.5012 20.7158 15.0579 20.1911C15.6147 19.6663 15.9499 18.9487 15.995 18.185L16 18.008V14.008H18C18.7351 14.0081 19.4447 13.7383 19.994 13.2498C20.5434 12.7613 20.8942 12.0881 20.98 11.358L20.995 11.185L21 11.008L20.98 10.812L19.974 5.78001C19.593 4.15501 18.472 2.98401 17.164 3.00001L17 3.00801H9C8.75491 3.00807 8.51838 3.09813 8.33533 3.2611C8.15227 3.42406 8.03543 3.64858 8.007 3.89201L8 4.00801L8.001 13.544C8.001 13.7195 8.04721 13.892 8.13498 14.044C8.22275 14.196 8.34898 14.3222 8.501 14.41C8.92729 14.6562 9.2864 15.0036 9.54661 15.4214C9.80682 15.8393 9.96013 16.3148 9.993 16.806L10 17.008V18.008C10 18.8037 10.3161 19.5667 10.8787 20.1293C11.4413 20.6919 12.2044 21.008 13 21.008Z" fill="black"/>
<path d="M5 14.008C5.24493 14.008 5.48134 13.918 5.66437 13.7553C5.84741 13.5925 5.96434 13.3682 5.993 13.125L6 13.008V4.008C5.99997 3.76306 5.91004 3.52666 5.74728 3.34362C5.58453 3.16059 5.36025 3.04365 5.117 3.015L5 3.008H4C3.4951 3.00787 3.00884 3.19872 2.63881 3.54223C2.26878 3.88573 2.04236 4.35648 2.005 4.86L2 5.01V12.01C2.00009 12.5144 2.19077 13.0001 2.53384 13.3699C2.8769 13.7397 3.34702 13.9662 3.85 14.004L4 14.009L5 14.008Z" fill="black"/>
</g>
<defs>
<clipPath id="clip0_20123_60">
<rect width="24" height="24" fill="white"/>
</clipPath>
</defs>
</svg>
