<?xml version="1.0" encoding="UTF-8" standalone="no"?>
<svg
   width="24"
   height="24"
   viewBox="0 0 24 24"
   fill="none"
   version="1.1"
   id="svg6"
   sodipodi:docname="timeline-event-x_2px.svg"
   inkscape:version="1.3.2 (091e20e, 2023-11-25)"
   xmlns:inkscape="http://www.inkscape.org/namespaces/inkscape"
   xmlns:sodipodi="http://sodipodi.sourceforge.net/DTD/sodipodi-0.dtd"
   xmlns="http://www.w3.org/2000/svg"
   xmlns:svg="http://www.w3.org/2000/svg">
  <sodipodi:namedview
     id="namedview6"
     pagecolor="#505050"
     bordercolor="#eeeeee"
     borderopacity="1"
     inkscape:showpageshadow="0"
     inkscape:pageopacity="0"
     inkscape:pagecheckerboard="0"
     inkscape:deskcolor="#505050"
     inkscape:zoom="9.8333333"
     inkscape:cx="11.949153"
     inkscape:cy="12"
     inkscape:window-width="1504"
     inkscape:window-height="449"
     inkscape:window-x="0"
     inkscape:window-y="25"
     inkscape:window-maximized="0"
     inkscape:current-layer="svg6" />
  <g
     clip-path="url(#clip0_20119_978)"
     id="g6">
    <path
       style="color:#000000;fill:#2c3e50;stroke-linecap:round;stroke-linejoin:round;-inkscape-stroke:none"
       d="M 12,17 C 11.204769,17 10.44126,17.316552 9.8789063,17.878906 9.316552,18.44126 9,19.204769 9,20 9,20.795231 9.316552,21.55874 9.8789063,22.121094 10.44126,22.683448 11.204769,23 12,23 12.795231,23 13.55874,22.683448 14.121094,22.121094 14.683448,21.55874 15,20.795231 15,20 15,19.204769 14.683448,18.44126 14.121094,17.878906 13.55874,17.316552 12.795231,17 12,17 Z m 0,2 c 0.265568,0 0.519186,0.105124 0.707031,0.292969 C 12.894876,19.480814 13,19.734432 13,20 13,20.265568 12.894876,20.519186 12.707031,20.707031 12.519186,20.894876 12.265568,21 12,21 11.734432,21 11.480814,20.894876 11.292969,20.707031 11.105124,20.519186 11,20.265568 11,20 11,19.734432 11.105124,19.480814 11.292969,19.292969 11.480814,19.105124 11.734432,19 12,19 Z"
       id="path1" />
    <path
       style="color:#000000;fill:#2c3e50;stroke-linecap:round;stroke-linejoin:round;-inkscape-stroke:none"
       d="m 4,19 a 1,1 0 0 0 -1,1 1,1 0 0 0 1,1 h 6 a 1,1 0 0 0 1,-1 1,1 0 0 0 -1,-1 z"
       id="path2" />
    <path
       style="color:#000000;fill:#2c3e50;stroke-linecap:round;stroke-linejoin:round;-inkscape-stroke:none"
       d="m 14,19 a 1,1 0 0 0 -1,1 1,1 0 0 0 1,1 h 6 a 1,1 0 0 0 1,-1 1,1 0 0 0 -1,-1 z"
       id="path3" />
    <path
       style="color:#000000;fill:#2c3e50;stroke-linecap:round;stroke-linejoin:round;-inkscape-stroke:none"
       d="M 7,2 C 6.4699438,2 5.9607273,2.2111677 5.5859375,2.5859375 5.2111677,2.9607273 5,3.4699438 5,4 v 8 c 0,0.530056 0.2110167,1.039202 0.5859375,1.414063 C 5.9606708,13.788716 6.4698432,14 7,14 h 2.5859375 l 1.7070315,1.707031 a 1.0001,1.0001 0 0 0 1.414062,0 L 14.414063,14 H 17 c 0.530157,0 1.039258,-0.211133 1.414062,-0.585937 C 18.788867,13.039258 19,12.530157 19,12 V 4 C 19,3.4698432 18.788716,2.9606708 18.414062,2.5859375 18.039202,2.2110167 17.530056,2 17,2 Z m 0,2 h 10 v 8 h -3 a 1.0001,1.0001 0 0 0 -0.707031,0.292969 L 12,13.585938 10.707031,12.292969 A 1.0001,1.0001 0 0 0 10,12 H 7 Z"
       id="path4" />
    <path
       style="color:#000000;fill:#2c3e50;stroke-linecap:round;stroke-linejoin:round;-inkscape-stroke:none"
       d="m 10.5,5.5 a 1,1 0 0 0 -0.7070312,0.2929687 1,1 0 0 0 0,1.4140625 l 3.0000002,2.9999998 a 1,1 0 0 0 1.414062,0 1,1 0 0 0 0,-1.4140622 l -3,-3.0000001 A 1,1 0 0 0 10.5,5.5 Z"
       id="path5" />
    <path
       style="color:#000000;fill:#2c3e50;stroke-linecap:round;stroke-linejoin:round;-inkscape-stroke:none"
       d="M 13.5,5.5 A 1,1 0 0 0 12.792969,5.7929687 L 9.7929688,8.7929688 a 1,1 0 0 0 0,1.4140622 1,1 0 0 0 1.4140622,0 l 3,-2.9999998 a 1,1 0 0 0 0,-1.4140625 A 1,1 0 0 0 13.5,5.5 Z"
       id="path6" />
  </g>
  <defs
     id="defs6">
    <clipPath
       id="clip0_20119_978">
      <rect
         width="24"
         height="24"
         fill="white"
         id="rect6" />
    </clipPath>
  </defs>
</svg>
