<?xml version="1.0" encoding="UTF-8" standalone="no"?>
<svg
   width="24"
   height="24"
   viewBox="0 0 24 24"
   fill="none"
   version="1.1"
   id="svg6"
   sodipodi:docname="users-group_2px.svg"
   inkscape:version="1.3.2 (091e20e, 2023-11-25)"
   xmlns:inkscape="http://www.inkscape.org/namespaces/inkscape"
   xmlns:sodipodi="http://sodipodi.sourceforge.net/DTD/sodipodi-0.dtd"
   xmlns="http://www.w3.org/2000/svg"
   xmlns:svg="http://www.w3.org/2000/svg">
  <sodipodi:namedview
     id="namedview6"
     pagecolor="#505050"
     bordercolor="#eeeeee"
     borderopacity="1"
     inkscape:showpageshadow="0"
     inkscape:pageopacity="0"
     inkscape:pagecheckerboard="0"
     inkscape:deskcolor="#505050"
     inkscape:zoom="9.8333333"
     inkscape:cx="11.949153"
     inkscape:cy="12"
     inkscape:window-width="1504"
     inkscape:window-height="449"
     inkscape:window-x="0"
     inkscape:window-y="25"
     inkscape:window-maximized="0"
     inkscape:current-layer="svg6" />
  <g
     clip-path="url(#clip0_20123_126)"
     id="g6">
    <path
       style="color:#000000;fill:#2c3e50;stroke-linecap:round;stroke-linejoin:round;-inkscape-stroke:none"
       d="M 12,10 C 11.204769,10 10.44126,10.316552 9.8789063,10.878906 9.316552,11.44126 9,12.204769 9,13 9,13.795231 9.316552,14.55874 9.8789063,15.121094 10.44126,15.683448 11.204769,16 12,16 12.795231,16 13.55874,15.683448 14.121094,15.121094 14.683448,14.55874 15,13.795231 15,13 15,12.204769 14.683448,11.44126 14.121094,10.878906 13.55874,10.316552 12.795231,10 12,10 Z m 0,2 c 0.265568,0 0.519186,0.105124 0.707031,0.292969 C 12.894876,12.480814 13,12.734432 13,13 13,13.265568 12.894876,13.519186 12.707031,13.707031 12.519186,13.894876 12.265568,14 12,14 11.734432,14 11.480814,13.894876 11.292969,13.707031 11.105124,13.519186 11,13.265568 11,13 11,12.734432 11.105124,12.480814 11.292969,12.292969 11.480814,12.105124 11.734432,12 12,12 Z"
       id="path1" />
    <path
       style="color:#000000;fill:#2c3e50;stroke-linecap:round;stroke-linejoin:round;-inkscape-stroke:none"
       d="M 10,17 C 9.2047542,17 8.4412548,17.316513 7.8789062,17.878906 7.3165904,18.441252 7,19.204757 7,20 v 1 a 1,1 0 0 0 1,1 1,1 0 0 0 1,-1 V 20 C 9,19.734444 9.1051254,19.480822 9.2929688,19.292969 9.4807594,19.105163 9.7343869,19 10,19 h 4 c 0.265568,0 0.519186,0.105124 0.707031,0.292969 C 14.894876,19.480814 15,19.734432 15,20 v 1 a 1,1 0 0 0 1,1 1,1 0 0 0 1,-1 V 20 C 17,19.204769 16.683448,18.44126 16.121094,17.878906 15.55874,17.316552 14.795231,17 14,17 Z"
       id="path2" />
    <path
       style="color:#000000;fill:#2c3e50;stroke-linecap:round;stroke-linejoin:round;-inkscape-stroke:none"
       d="M 17,2 C 16.204757,2 15.441252,2.3165904 14.878906,2.8789063 14.316513,3.4412548 14,4.2047542 14,5 14,5.7952458 14.316513,6.5587452 14.878906,7.1210937 15.441252,7.6834096 16.204757,8 17,8 17.795243,8 18.558748,7.6834096 19.121094,7.1210937 19.683487,6.5587452 20,5.7952458 20,5 20,4.2047542 19.683487,3.4412548 19.121094,2.8789063 18.558748,2.3165904 17.795243,2 17,2 Z m 0,2 c 0.265556,0 0.519178,0.1051254 0.707031,0.2929687 C 17.894837,4.4807594 18,4.7343869 18,5 18,5.2656131 17.894837,5.5192406 17.707031,5.7070312 17.519178,5.8948746 17.265556,6 17,6 16.734444,6 16.480822,5.8948746 16.292969,5.7070312 16.105163,5.5192406 16,5.2656131 16,5 16,4.7343869 16.105163,4.4807594 16.292969,4.2929687 16.480822,4.1051254 16.734444,4 17,4 Z"
       id="path3" />
    <path
       style="color:#000000;fill:#2c3e50;stroke-linecap:round;stroke-linejoin:round;-inkscape-stroke:none"
       d="m 17,9 a 1,1 0 0 0 -1,1 1,1 0 0 0 1,1 h 2 c 0.265568,0 0.519186,0.105124 0.707031,0.292969 C 19.894876,11.480814 20,11.734432 20,12 v 1 a 1,1 0 0 0 1,1 1,1 0 0 0 1,-1 V 12 C 22,11.204769 21.683448,10.44126 21.121094,9.8789063 20.55874,9.316552 19.795231,9 19,9 Z"
       id="path4" />
    <path
       style="color:#000000;fill:#2c3e50;stroke-linecap:round;stroke-linejoin:round;-inkscape-stroke:none"
       d="M 7,2 C 6.2047416,2 5.4412465,2.316551 4.8789062,2.8789063 4.316551,3.4412465 4,4.2047416 4,5 4,5.7952584 4.316551,6.5587535 4.8789062,7.1210937 5.4412465,7.683449 6.2047416,8 7,8 7.7952584,8 8.5587535,7.683449 9.1210938,7.1210937 9.683449,6.5587535 10,5.7952584 10,5 10,4.2047416 9.683449,3.4412465 9.1210938,2.8789063 8.5587535,2.316551 7.7952584,2 7,2 Z M 7,4 C 7.2656006,4 7.5192322,4.1051647 7.7070312,4.2929687 7.8948353,4.4807678 8,4.7343994 8,5 8,5.2656006 7.8948353,5.5192322 7.7070312,5.7070312 7.5192322,5.8948353 7.2656006,6 7,6 6.7343994,6 6.4807678,5.8948353 6.2929687,5.7070312 6.1051647,5.5192322 6,5.2656006 6,5 6,4.7343994 6.1051647,4.4807678 6.2929687,4.2929687 6.4807678,4.1051647 6.7343994,4 7,4 Z"
       id="path5" />
    <path
       style="color:#000000;fill:#2c3e50;stroke-linecap:round;stroke-linejoin:round;-inkscape-stroke:none"
       d="M 5,9 C 4.2047542,9 3.4412548,9.3165127 2.8789063,9.8789063 2.3165904,10.441252 2,11.204757 2,12 v 1 a 1,1 0 0 0 1,1 1,1 0 0 0 1,-1 V 12 C 4,11.734444 4.1051254,11.480822 4.2929687,11.292969 4.4807594,11.105163 4.7343869,11 5,11 H 7 A 1,1 0 0 0 8,10 1,1 0 0 0 7,9 Z"
       id="path6" />
  </g>
  <defs
     id="defs6">
    <clipPath
       id="clip0_20123_126">
      <rect
         width="24"
         height="24"
         fill="white"
         id="rect6" />
    </clipPath>
  </defs>
</svg>
