<svg width="24" height="24" viewBox="0 0 24 24" fill="none" xmlns="http://www.w3.org/2000/svg">
<g clip-path="url(#clip0_17718_518)">
<mask id="mask0_17718_518" style="mask-type:luminance" maskUnits="userSpaceOnUse" x="0" y="0" width="24" height="24">
<path d="M24 0H0V24H24V0Z" fill="white"/>
</mask>
<g mask="url(#mask0_17718_518)">
<path d="M12 2.25C10.7405 2.25 9.53121 2.75005 8.64062 3.64062C7.75004 4.53122 7.25 5.74051 7.25 7C7.25 8.25949 7.75004 9.46878 8.64062 10.3594C9.53122 11.25 10.7405 11.75 12 11.75C13.2595 11.75 14.4688 11.25 15.3594 10.3594C16.25 9.46877 16.75 8.25948 16.75 7C16.75 5.74052 16.25 4.53123 15.3594 3.64062C14.4688 2.75002 13.2595 2.25 12 2.25ZM12 3.75C12.8623 3.75 13.6892 4.09149 14.2988 4.70117C14.9086 5.31087 15.25 6.13774 15.25 7C15.25 7.86226 14.9086 8.68913 14.2988 9.29883C13.6892 9.90852 12.8623 10.25 12 10.25C11.1377 10.25 10.3109 9.90855 9.70117 9.29883C9.09148 8.68912 8.75 7.86224 8.75 7C8.75 6.13776 9.09148 5.31088 9.70117 4.70117C10.3109 4.09147 11.1377 3.75 12 3.75Z" fill="#2C3E50"/>
<path d="M10 14.25C8.74052 14.25 7.53123 14.75 6.64062 15.6406C5.75002 16.5312 5.25 17.7405 5.25 19V21C5.25 21.1989 5.32902 21.3897 5.46967 21.5303C5.61032 21.671 5.80109 21.75 6 21.75C6.19891 21.75 6.38968 21.671 6.53033 21.5303C6.67098 21.3897 6.75 21.1989 6.75 21V19C6.75 18.1377 7.09149 17.3108 7.70117 16.7012C8.31087 16.0914 9.13774 15.75 10 15.75H14C14.8623 15.75 15.6892 16.0915 16.2988 16.7012C16.9085 17.3108 17.25 18.1377 17.25 19V21C17.25 21.1989 17.329 21.3897 17.4697 21.5303C17.6103 21.671 17.8011 21.75 18 21.75C18.1989 21.75 18.3897 21.671 18.5303 21.5303C18.671 21.3897 18.75 21.1989 18.75 21V19C18.75 17.7405 18.2501 16.5312 17.3594 15.6406C16.4688 14.7499 15.2595 14.25 14 14.25H10Z" fill="#2C3E50"/>
</g>
</g>
<defs>
<clipPath id="clip0_17718_518">
<rect width="24" height="24" fill="white"/>
</clipPath>
</defs>
</svg>
