<?xml version="1.0" encoding="UTF-8" standalone="no"?>
<svg
   width="24"
   height="24"
   viewBox="0 0 24 24"
   fill="none"
   version="1.1"
   id="svg3"
   sodipodi:docname="user-square_2px.svg"
   inkscape:version="1.3.2 (091e20e, 2023-11-25)"
   xmlns:inkscape="http://www.inkscape.org/namespaces/inkscape"
   xmlns:sodipodi="http://sodipodi.sourceforge.net/DTD/sodipodi-0.dtd"
   xmlns="http://www.w3.org/2000/svg"
   xmlns:svg="http://www.w3.org/2000/svg">
  <sodipodi:namedview
     id="namedview3"
     pagecolor="#505050"
     bordercolor="#eeeeee"
     borderopacity="1"
     inkscape:showpageshadow="0"
     inkscape:pageopacity="0"
     inkscape:pagecheckerboard="0"
     inkscape:deskcolor="#505050"
     inkscape:zoom="9.8333333"
     inkscape:cx="11.949153"
     inkscape:cy="12"
     inkscape:window-width="1504"
     inkscape:window-height="449"
     inkscape:window-x="0"
     inkscape:window-y="25"
     inkscape:window-maximized="0"
     inkscape:current-layer="svg3" />
  <g
     clip-path="url(#clip0_20119_319)"
     id="g3">
    <path
       style="color:#000000;fill:#2c3e50;stroke-linecap:round;stroke-linejoin:round;-inkscape-stroke:none"
       d="M 12,6 C 10.939553,6 9.9217709,6.4219924 9.171875,7.171875 8.4220018,7.9217482 8,8.9395194 8,10 8,11.060447 8.4219777,12.078241 9.171875,12.828125 9.9217577,13.577981 10.939528,14 12,14 13.060472,14 14.078254,13.577996 14.828125,12.828125 15.577996,12.078254 16,11.060472 16,10 16,8.9394942 15.577972,7.9217349 14.828125,7.171875 14.078241,6.4219777 13.060447,6 12,6 Z m 0,2 c 0.530751,0 1.038748,0.2106159 1.414063,0.5859375 C 13.789415,8.9612965 14,9.4692074 14,10 14,10.530726 13.789391,11.038734 13.414063,11.414063 13.038734,11.789391 12.530726,12 12,12 11.469274,12 10.961294,11.789405 10.585938,11.414063 10.210616,11.038748 10,10.530751 10,10 10,9.4691822 10.210592,8.9612832 10.585938,8.5859375 10.96128,8.2106012 11.469249,8 12,8 Z"
       id="path1" />
    <path
       style="color:#000000;fill:#2c3e50;stroke-linecap:round;stroke-linejoin:round;-inkscape-stroke:none"
       d="M 10,15 C 8.6743172,15 7.4022658,15.527359 6.4648437,16.464844 5.5274223,17.402215 5,18.674276 5,20 v 1 a 1,1 0 0 0 1,1 1,1 0 0 0 1,-1 V 20 C 7,19.203926 7.3160492,18.441733 7.8789062,17.878906 8.4417827,17.315992 9.2039449,17 10,17 h 4 c 0.796093,0 1.558279,0.316017 2.121094,0.878906 C 16.683983,18.441721 17,19.203907 17,20 v 1 a 1,1 0 0 0 1,1 1,1 0 0 0 1,-1 V 20 C 19,18.674295 18.472665,17.402228 17.535156,16.464844 16.597772,15.527335 15.325705,15 14,15 Z"
       id="path2" />
    <path
       style="color:#000000;fill:#2c3e50;stroke-linecap:round;stroke-linejoin:round;-inkscape-stroke:none"
       d="M 5,2 C 4.2047416,2 3.4412465,2.316551 2.8789063,2.8789063 2.316551,3.4412465 2,4.2047416 2,5 v 14 c 0,0.795243 0.3165904,1.558748 0.8789063,2.121094 C 3.4412548,21.683487 4.2047542,22 5,22 h 14 c 0.795231,0 1.55874,-0.316552 2.121094,-0.878906 C 21.683448,20.55874 22,19.795231 22,19 V 5 C 22,4.2047542 21.683487,3.4412548 21.121094,2.8789063 20.558748,2.3165904 19.795243,2 19,2 Z m 0,2 h 14 c 0.265556,0 0.519178,0.1051254 0.707031,0.2929687 C 19.894837,4.4807594 20,4.7343869 20,5 v 14 c 0,0.265568 -0.105124,0.519186 -0.292969,0.707031 C 19.519186,19.894876 19.265568,20 19,20 H 5 C 4.7343869,20 4.4807594,19.894837 4.2929687,19.707031 4.1051254,19.519178 4,19.265556 4,19 V 5 C 4,4.7343994 4.1051647,4.4807678 4.2929687,4.2929687 4.4807678,4.1051647 4.7343994,4 5,4 Z"
       id="path3" />
  </g>
  <defs
     id="defs3">
    <clipPath
       id="clip0_20119_319">
      <rect
         width="24"
         height="24"
         fill="white"
         id="rect3" />
    </clipPath>
  </defs>
</svg>
