<svg width="24" height="24" viewBox="0 0 24 24" fill="none" xmlns="http://www.w3.org/2000/svg">
<g clip-path="url(#clip0_17718_494)">
<mask id="mask0_17718_494" style="mask-type:luminance" maskUnits="userSpaceOnUse" x="0" y="0" width="24" height="24">
<path d="M24 0H0V24H24V0Z" fill="white"/>
</mask>
<g mask="url(#mask0_17718_494)">
<path d="M12 2.25C10.7196 2.25 9.45245 2.50221 8.26953 2.99219C7.08662 3.48217 6.01084 4.2001 5.10547 5.10547C4.2001 6.01084 3.48217 7.08662 2.99219 8.26953C2.50221 9.45245 2.25 10.7196 2.25 12C2.25 13.2804 2.50222 14.5475 2.99219 15.7305C3.48218 16.9134 4.20013 17.9891 5.10547 18.8945C6.01084 19.7999 7.08663 20.5178 8.26953 21.0078C9.45244 21.4978 10.7196 21.75 12 21.75C13.2804 21.75 14.5475 21.4978 15.7305 21.0078C16.9133 20.5178 17.9891 19.7998 18.8945 18.8945C19.7998 17.9891 20.5178 16.9133 21.0078 15.7305C21.4978 14.5475 21.75 13.2804 21.75 12C21.75 10.7196 21.4978 9.45244 21.0078 8.26953C20.5178 7.08663 19.7999 6.01084 18.8945 5.10547C17.9891 4.20013 16.9134 3.48218 15.7305 2.99219C14.5475 2.50222 13.2804 2.25 12 2.25ZM12 3.75C13.0834 3.75 14.1552 3.96429 15.1562 4.37891C16.1572 4.79352 17.0678 5.39989 17.834 6.16602C18.6 6.9321 19.2065 7.84279 19.6211 8.84375C20.0357 9.84469 20.25 10.9166 20.25 12C20.25 13.0834 20.0357 14.1552 19.6211 15.1562C19.2065 16.1572 18.6001 17.0678 17.834 17.834C17.0678 18.6001 16.1572 19.2065 15.1562 19.6211C14.1552 20.0357 13.0834 20.25 12 20.25C10.9166 20.25 9.84469 20.0357 8.84375 19.6211C7.84279 19.2065 6.9321 18.6 6.16602 17.834C5.39989 17.0678 4.79352 16.1572 4.37891 15.1562C3.96429 14.1552 3.75 13.0834 3.75 12C3.75 10.9166 3.9643 9.84469 4.37891 8.84375C4.79352 7.8428 5.39992 6.93211 6.16602 6.16602C6.93211 5.39992 7.8428 4.79352 8.84375 4.37891C9.84469 3.9643 10.9166 3.75 12 3.75Z" fill="#2C3E50"/>
<path d="M12 6.25C11.0058 6.25 10.0507 6.64459 9.34766 7.34766C8.6446 8.05071 8.25 9.00573 8.25 10C8.25 10.9942 8.64458 11.9493 9.34766 12.6523C10.0507 13.3554 11.0057 13.75 12 13.75C12.9943 13.75 13.9493 13.3554 14.6523 12.6523C15.3554 11.9493 15.75 10.9943 15.75 10C15.75 9.00571 15.3554 8.0507 14.6523 7.34766C13.9493 6.64458 12.9942 6.25 12 6.25ZM12 7.75C12.597 7.75 13.1697 7.98606 13.5918 8.4082C14.014 8.83037 14.25 9.40299 14.25 10C14.25 10.5969 14.0139 11.1697 13.5918 11.5918C13.1697 12.0139 12.5969 12.25 12 12.25C11.4031 12.25 10.8304 12.014 10.4082 11.5918C9.98606 11.1697 9.75 10.597 9.75 10C9.75 9.40297 9.98604 8.83036 10.4082 8.4082C10.8304 7.98605 11.403 7.75 12 7.75Z" fill="#2C3E50"/>
<path d="M9.99997 15.25C8.97858 15.2496 7.98362 15.5782 7.16403 16.1875C6.34442 16.7969 5.74308 17.6546 5.44919 18.6328C5.42095 18.7272 5.41159 18.8262 5.42163 18.9242C5.43168 19.0222 5.46093 19.1173 5.50773 19.204C5.55452 19.2907 5.61794 19.3673 5.69436 19.4295C5.77078 19.4917 5.8587 19.5382 5.9531 19.5664C6.14346 19.6235 6.34871 19.6027 6.52376 19.5086C6.6988 19.4145 6.82934 19.2547 6.88669 19.0645C7.08782 18.395 7.49957 17.8096 8.06052 17.3926C8.62147 16.9755 9.30107 16.7498 9.99997 16.75H14C14.6998 16.7498 15.382 16.9746 15.9433 17.3926C16.5046 17.8106 16.9148 18.3997 17.1152 19.0703C17.1434 19.1647 17.1899 19.2526 17.2521 19.3291C17.3143 19.4055 17.3909 19.4689 17.4776 19.5157C17.5643 19.5625 17.6594 19.5917 17.7574 19.6018C17.8554 19.6118 17.9544 19.6025 18.0488 19.5742C18.1432 19.546 18.2311 19.4995 18.3075 19.4373C18.384 19.3751 18.4474 19.2985 18.4942 19.2118C18.541 19.1251 18.5702 19.0301 18.5803 18.932C18.5903 18.834 18.5809 18.735 18.5527 18.6406C18.2599 17.6608 17.658 16.8002 16.8379 16.1895C16.0176 15.5787 15.0226 15.2496 14 15.25H9.99997Z" fill="#2C3E50"/>
</g>
</g>
<defs>
<clipPath id="clip0_17718_494">
<rect width="24" height="24" fill="white"/>
</clipPath>
</defs>
</svg>
