<?xml version="1.0" encoding="UTF-8" standalone="no"?>
<svg
   width="24"
   height="24"
   viewBox="0 0 24 24"
   fill="none"
   version="1.1"
   id="svg4"
   sodipodi:docname="users_2px.svg"
   inkscape:version="1.3.2 (091e20e, 2023-11-25)"
   xmlns:inkscape="http://www.inkscape.org/namespaces/inkscape"
   xmlns:sodipodi="http://sodipodi.sourceforge.net/DTD/sodipodi-0.dtd"
   xmlns="http://www.w3.org/2000/svg"
   xmlns:svg="http://www.w3.org/2000/svg">
  <sodipodi:namedview
     id="namedview4"
     pagecolor="#505050"
     bordercolor="#eeeeee"
     borderopacity="1"
     inkscape:showpageshadow="0"
     inkscape:pageopacity="0"
     inkscape:pagecheckerboard="0"
     inkscape:deskcolor="#505050"
     inkscape:zoom="9.8333333"
     inkscape:cx="11.949153"
     inkscape:cy="12"
     inkscape:window-width="1504"
     inkscape:window-height="449"
     inkscape:window-x="0"
     inkscape:window-y="25"
     inkscape:window-maximized="0"
     inkscape:current-layer="svg4" />
  <g
     clip-path="url(#clip0_20119_312)"
     id="g4">
    <path
       style="color:#000000;fill:#2c3e50;stroke-linecap:round;stroke-linejoin:round;-inkscape-stroke:none"
       d="M 9,2 C 7.6742984,2 6.4022533,2.5274467 5.4648437,3.4648438 4.5274467,4.4022533 4,5.6742984 4,7 4,8.3257016 4.5274467,9.5977467 5.4648437,10.535156 6.4022643,11.472602 7.6743172,12 9,12 10.325705,12 11.597774,11.472626 12.535156,10.535156 13.472641,9.5977342 14,8.3256828 14,7 14,5.6743172 13.472641,4.4022658 12.535156,3.4648438 11.597785,2.5274223 10.325724,2 9,2 Z M 9,4 C 9.7960737,4 10.558267,4.3160492 11.121094,4.8789062 11.684008,5.4417827 12,6.2039449 12,7 12,7.7960551 11.684008,8.5582173 11.121094,9.1210938 10.558278,9.6839623 9.7960926,10 9,10 8.2039449,10 7.4417842,9.6839867 6.8789062,9.1210938 6.3160248,8.5582048 6,7.7960363 6,7 6,6.2039637 6.3160248,5.4417952 6.8789062,4.8789062 7.4417952,4.3160248 8.2039637,4 9,4 Z"
       id="path1" />
    <path
       style="color:#000000;fill:#2c3e50;stroke-linecap:round;stroke-linejoin:round;-inkscape-stroke:none"
       d="M 7,14 C 5.6743172,14 4.4022658,14.527359 3.4648438,15.464844 2.5274223,16.402215 2,17.674276 2,19 v 2 a 1,1 0 0 0 1,1 1,1 0 0 0 1,-1 V 19 C 4,18.203926 4.3160492,17.441733 4.8789062,16.878906 5.4417827,16.315992 6.2039449,16 7,16 h 4 c 0.796093,0 1.558279,0.316017 2.121094,0.878906 C 13.683983,17.441721 14,18.203907 14,19 v 2 a 1,1 0 0 0 1,1 1,1 0 0 0 1,-1 V 19 C 16,17.674295 15.472665,16.402228 14.535156,15.464844 13.597772,14.527335 12.325705,14 11,14 Z"
       id="path2" />
    <path
       style="color:#000000;fill:#2c3e50;stroke-linecap:round;stroke-linejoin:round;-inkscape-stroke:none"
       d="m 16.248047,2.1621094 a 1,1 0 0 0 -1.216797,0.7207031 1,1 0 0 0 0.720703,1.2167969 c 0.645455,0.1652721 1.216444,0.5400618 1.625,1.0664062 0.408544,0.5263204 0.63086,1.1735539 0.630859,1.8398438 0,0.6663024 -0.222307,1.3115525 -0.630859,1.8378906 -0.408556,0.5263445 -0.979553,0.9030969 -1.625,1.0683594 a 1,1 0 0 0 -0.720703,1.2167966 1,1 0 0 0 1.216797,0.720703 c 1.075352,-0.275337 2.028342,-0.902422 2.708984,-1.779296 0.680648,-0.876881 1.050782,-1.9543978 1.050781,-3.0644536 10e-7,-1.1100484 -0.370125,-2.189528 -1.050781,-3.0664063 C 18.276389,3.062579 17.323391,2.4374569 16.248047,2.1621094 Z"
       id="path3" />
    <path
       style="color:#000000;fill:#2c3e50;stroke-linecap:round;stroke-linejoin:round;-inkscape-stroke:none"
       d="m 18.25,14.181641 a 1,1 0 0 0 -1.21875,0.71875 1,1 0 0 0 0.71875,1.21875 c 0.641249,0.165563 1.210041,0.538091 1.617187,1.060546 0.407041,0.522417 0.628987,1.163912 0.632813,1.826172 V 21 a 1,1 0 0 0 1,1 1,1 0 0 0 1,-1 v -2 a 1.0001,1.0001 0 0 0 0,-0.0059 c -0.0064,-1.103338 -0.378482,-2.17454 -1.056641,-3.044922 C 20.265107,15.078876 19.318349,14.457477 18.25,14.181641 Z"
       id="path4" />
  </g>
  <defs
     id="defs4">
    <clipPath
       id="clip0_20119_312">
      <rect
         width="24"
         height="24"
         fill="white"
         id="rect4" />
    </clipPath>
  </defs>
</svg>
