<svg width="24" height="24" viewBox="0 0 24 24" fill="none" xmlns="http://www.w3.org/2000/svg">
<g clip-path="url(#clip0_17718_510)">
<mask id="mask0_17718_510" style="mask-type:luminance" maskUnits="userSpaceOnUse" x="0" y="0" width="24" height="24">
<path d="M24 0H0V24H24V0Z" fill="white"/>
</mask>
<g mask="url(#mask0_17718_510)">
<path d="M12 6.25C11.0058 6.25 10.0507 6.64459 9.34766 7.34766C8.6446 8.05071 8.25 9.00573 8.25 10C8.25 10.9942 8.64458 11.9493 9.34766 12.6523C10.0507 13.3554 11.0057 13.75 12 13.75C12.9943 13.75 13.9493 13.3554 14.6523 12.6523C15.3554 11.9493 15.75 10.9943 15.75 10C15.75 9.00571 15.3554 8.0507 14.6523 7.34766C13.9493 6.64458 12.9942 6.25 12 6.25ZM12 7.75C12.597 7.75 13.1697 7.98606 13.5918 8.4082C14.014 8.83037 14.25 9.40299 14.25 10C14.25 10.5969 14.0139 11.1697 13.5918 11.5918C13.1697 12.0139 12.5969 12.25 12 12.25C11.4031 12.25 10.8304 12.014 10.4082 11.5918C9.98606 11.1697 9.75 10.597 9.75 10C9.75 9.40297 9.98604 8.83036 10.4082 8.4082C10.8304 7.98605 11.403 7.75 12 7.75Z" fill="#2C3E50"/>
<path d="M10 15.25C8.74052 15.25 7.53123 15.75 6.64062 16.6406C5.75002 17.5312 5.25 18.7405 5.25 20V21C5.25 21.1989 5.32902 21.3897 5.46967 21.5303C5.61032 21.671 5.80109 21.75 6 21.75C6.19891 21.75 6.38968 21.671 6.53033 21.5303C6.67098 21.3897 6.75 21.1989 6.75 21V20C6.75 19.1377 7.09149 18.3108 7.70117 17.7012C8.31087 17.0914 9.13774 16.75 10 16.75H14C14.8623 16.75 15.6892 17.0915 16.2988 17.7012C16.9085 18.3108 17.25 19.1377 17.25 20V21C17.25 21.1989 17.329 21.3897 17.4697 21.5303C17.6103 21.671 17.8011 21.75 18 21.75C18.1989 21.75 18.3897 21.671 18.5303 21.5303C18.671 21.3897 18.75 21.1989 18.75 21V20C18.75 18.7405 18.2501 17.5312 17.3594 16.6406C16.4688 15.7499 15.2595 15.25 14 15.25H10Z" fill="#2C3E50"/>
<path d="M5 2.25C4.27095 2.25 3.57021 2.53915 3.05469 3.05469C2.53915 3.57021 2.25 4.27095 2.25 5V19C2.25 19.729 2.53918 20.4298 3.05469 20.9453C3.57022 21.4609 4.27096 21.75 5 21.75H19C19.729 21.75 20.4298 21.4609 20.9453 20.9453C21.4609 20.4298 21.75 19.729 21.75 19V5C21.75 4.27096 21.4609 3.57022 20.9453 3.05469C20.4298 2.53918 19.729 2.25 19 2.25H5ZM5 3.75H19C19.3318 3.75 19.6501 3.88058 19.8848 4.11523C20.1194 4.34984 20.25 4.66818 20.25 5V19C20.25 19.3318 20.1194 19.6501 19.8848 19.8848C19.6501 20.1194 19.3318 20.25 19 20.25H5C4.66818 20.25 4.34984 20.1194 4.11523 19.8848C3.88058 19.6501 3.75 19.3318 3.75 19V5C3.75 4.66819 3.88061 4.34985 4.11523 4.11523C4.34985 3.88061 4.66819 3.75 5 3.75Z" fill="#2C3E50"/>
</g>
</g>
<defs>
<clipPath id="clip0_17718_510">
<rect width="24" height="24" fill="white"/>
</clipPath>
</defs>
</svg>
