<svg width="24" height="24" viewBox="0 0 24 24" fill="none" xmlns="http://www.w3.org/2000/svg">
<g clip-path="url(#clip0_17718_525)">
<mask id="mask0_17718_525" style="mask-type:luminance" maskUnits="userSpaceOnUse" x="0" y="0" width="24" height="24">
<path d="M24 0H0V24H24V0Z" fill="white"/>
</mask>
<g mask="url(#mask0_17718_525)">
<path d="M12 17.25C11.8011 17.25 11.6103 17.329 11.4697 17.4697C11.329 17.6103 11.25 17.8011 11.25 18C11.25 18.1989 11.329 18.3897 11.4697 18.5303C11.6103 18.671 11.8011 18.75 12 18.75H12.0098C12.2087 18.75 12.3995 18.671 12.5401 18.5303C12.6808 18.3897 12.7598 18.1989 12.7598 18C12.7598 17.8011 12.6808 17.6103 12.5401 17.4697C12.3995 17.329 12.2087 17.25 12.0098 17.25H12Z" fill="#2C3E50"/>
<path d="M11.9999 13.25C10.7407 13.25 9.53304 13.7503 8.64247 14.6406C8.57255 14.7103 8.51707 14.7931 8.47921 14.8843C8.44136 14.9754 8.42188 15.0732 8.42188 15.1719C8.42188 15.2706 8.44136 15.3683 8.47921 15.4595C8.51707 15.5507 8.57255 15.6334 8.64247 15.7031C8.78311 15.8437 8.97386 15.9227 9.17274 15.9227C9.37162 15.9227 9.56237 15.8437 9.70301 15.7031C10.3127 15.0937 11.1379 14.75 11.9999 14.75C12.862 14.75 13.6871 15.0936 14.2968 15.7031C14.3664 15.773 14.4492 15.8285 14.5404 15.8664C14.6316 15.9042 14.7293 15.9237 14.828 15.9237C14.9267 15.9237 15.0245 15.9042 15.1156 15.8664C15.2068 15.8285 15.2896 15.773 15.3593 15.7031C15.4291 15.6333 15.4844 15.5504 15.5221 15.4592C15.5597 15.3679 15.579 15.2702 15.5789 15.1715C15.5787 15.0727 15.559 14.975 15.521 14.884C15.4829 14.7929 15.4273 14.7102 15.3573 14.6406C14.4668 13.7503 13.2591 13.25 11.9999 13.25Z" fill="#2C3E50"/>
<path d="M10.039 9.47266C8.4371 9.83888 6.97265 10.649 5.81239 11.8125C5.74247 11.8822 5.68699 11.965 5.64914 12.0561C5.61128 12.1473 5.5918 12.245 5.5918 12.3438C5.5918 12.4425 5.61128 12.5402 5.64914 12.6314C5.68699 12.7225 5.74247 12.8053 5.81239 12.875C5.8822 12.9448 5.9651 13.0001 6.05633 13.0378C6.14757 13.0755 6.24534 13.0948 6.34405 13.0946C6.44276 13.0944 6.54047 13.0747 6.63156 13.0367C6.72265 12.9987 6.80534 12.9431 6.87489 12.873C7.83548 11.9097 9.04872 11.2367 10.3749 10.9336C10.5686 10.8889 10.7366 10.7692 10.842 10.6007C10.9475 10.4323 10.9818 10.2288 10.9374 10.0351C10.8927 9.84145 10.773 9.67343 10.6046 9.56796C10.4361 9.46249 10.2327 9.42824 10.039 9.47266ZM14.5936 9.64259C14.4038 9.58329 14.1982 9.60183 14.022 9.69413C13.8458 9.78644 13.7135 9.94493 13.6542 10.1348C13.5949 10.3246 13.6134 10.5302 13.7057 10.7064C13.798 10.8826 13.9565 11.0149 14.1464 11.0742C15.2721 11.4257 16.2935 12.0466 17.1229 12.8848C17.2628 13.0262 17.4531 13.1062 17.652 13.1073C17.8509 13.1084 18.0421 13.0305 18.1835 12.8907C18.3249 12.7508 18.4049 12.5605 18.4061 12.3616C18.4072 12.1627 18.3292 11.9716 18.1894 11.8301C17.1874 10.8177 15.9533 10.0671 14.5936 9.64259Z" fill="#2C3E50"/>
<path d="M13.0311 5.29102C12.0386 5.21044 11.0356 5.24481 10.0448 5.39844C9.94728 5.41344 9.85367 5.44754 9.76935 5.49878C9.68502 5.55002 9.61163 5.61739 9.55339 5.69704C9.49515 5.77669 9.4532 5.86705 9.42994 5.96295C9.40668 6.05884 9.40258 6.15838 9.41786 6.25586C9.43308 6.35322 9.46735 6.44661 9.51868 6.53072C9.57002 6.61482 9.63743 6.68799 9.71706 6.74603C9.79669 6.80407 9.88697 6.84586 9.98275 6.86899C10.0785 6.89213 10.1779 6.89616 10.2753 6.88086C12.0238 6.60974 13.8102 6.75508 15.4921 7.30469C17.174 7.8543 18.704 8.79361 19.955 10.0449C20.0956 10.1855 20.2864 10.2645 20.4852 10.2645C20.6841 10.2645 20.8749 10.1855 21.0155 10.0449C21.1561 9.90428 21.2351 9.71354 21.2351 9.51465C21.2351 9.31577 21.1561 9.12503 21.0155 8.98438C19.5977 7.56624 17.865 6.50178 15.9589 5.87891C15.0058 5.56747 14.0237 5.3716 13.0311 5.29102ZM6.74989 6.37696C5.34755 7.01198 4.07166 7.89472 2.98426 8.98438C2.84364 9.12503 2.76465 9.31577 2.76465 9.51465C2.76465 9.71354 2.84364 9.90428 2.98426 10.0449C3.12491 10.1855 3.31565 10.2645 3.51454 10.2645C3.71342 10.2645 3.90416 10.1855 4.04481 10.0449C5.00429 9.08345 6.13167 8.30446 7.36903 7.74415C7.45887 7.70345 7.53981 7.64543 7.6072 7.57342C7.67459 7.5014 7.72711 7.4168 7.76177 7.32446C7.79642 7.23211 7.81251 7.13384 7.80913 7.03527C7.80576 6.9367 7.78297 6.83976 7.74207 6.75001C7.65987 6.56905 7.50921 6.42812 7.32317 6.35817C7.13714 6.28823 6.93094 6.29498 6.74989 6.37696Z" fill="#2C3E50"/>
<path d="M2.99989 2.25C2.90131 2.24976 2.80364 2.26896 2.71249 2.30649C2.62133 2.34403 2.53847 2.39916 2.46864 2.46875C2.39872 2.53843 2.34324 2.62122 2.30539 2.71239C2.26753 2.80355 2.24805 2.90129 2.24805 3C2.24805 3.09871 2.26753 3.19645 2.30539 3.28762C2.34324 3.37878 2.39872 3.46157 2.46864 3.53125L20.4686 21.5313C20.5383 21.6012 20.6211 21.6567 20.7123 21.6945C20.8034 21.7324 20.9012 21.7518 20.9999 21.7518C21.0986 21.7518 21.1963 21.7324 21.2875 21.6945C21.3787 21.6567 21.4615 21.6012 21.5311 21.5313C21.6011 21.4616 21.6565 21.3788 21.6944 21.2876C21.7322 21.1965 21.7517 21.0987 21.7517 21C21.7517 20.9013 21.7322 20.8036 21.6944 20.7124C21.6565 20.6212 21.6011 20.5384 21.5311 20.4688L3.53114 2.46875C3.46131 2.39916 3.37845 2.34403 3.28729 2.30649C3.19613 2.26896 3.09847 2.24976 2.99989 2.25Z" fill="#2C3E50"/>
</g>
</g>
<defs>
<clipPath id="clip0_17718_525">
<rect width="24" height="24" fill="white"/>
</clipPath>
</defs>
</svg>
