<svg width="24" height="24" viewBox="0 0 24 24" fill="none" xmlns="http://www.w3.org/2000/svg">
<g clip-path="url(#clip0_17718_535)">
<mask id="mask0_17718_535" style="mask-type:luminance" maskUnits="userSpaceOnUse" x="0" y="0" width="24" height="24">
<path d="M24 0H0V24H24V0Z" fill="white"/>
</mask>
<g mask="url(#mask0_17718_535)">
<path d="M12 17.25C11.8011 17.25 11.6103 17.329 11.4697 17.4697C11.329 17.6103 11.25 17.8011 11.25 18C11.25 18.1989 11.329 18.3897 11.4697 18.5303C11.6103 18.671 11.8011 18.75 12 18.75H12.0098C12.2087 18.75 12.3995 18.671 12.5401 18.5303C12.6808 18.3897 12.7598 18.1989 12.7598 18C12.7598 17.8011 12.6808 17.6103 12.5401 17.4697C12.3995 17.329 12.2087 17.25 12.0098 17.25H12Z" fill="#2C3E50"/>
<path d="M11.9999 13.25C10.7407 13.25 9.53304 13.7503 8.64247 14.6406C8.57255 14.7103 8.51707 14.7931 8.47921 14.8843C8.44136 14.9754 8.42188 15.0732 8.42188 15.1719C8.42188 15.2706 8.44136 15.3683 8.47921 15.4595C8.51707 15.5507 8.57255 15.6334 8.64247 15.7031C8.78311 15.8437 8.97386 15.9227 9.17274 15.9227C9.37162 15.9227 9.56237 15.8437 9.70301 15.7031C10.3127 15.0937 11.1379 14.75 11.9999 14.75C12.862 14.75 13.6871 15.0936 14.2968 15.7031C14.3664 15.773 14.4492 15.8285 14.5404 15.8664C14.6316 15.9042 14.7293 15.9237 14.828 15.9237C14.9267 15.9237 15.0245 15.9042 15.1156 15.8664C15.2068 15.8285 15.2896 15.773 15.3593 15.7031C15.4291 15.6333 15.4844 15.5504 15.5221 15.4592C15.5597 15.3679 15.579 15.2702 15.5789 15.1715C15.5787 15.0727 15.559 14.975 15.521 14.884C15.4829 14.7929 15.4273 14.7102 15.3573 14.6406C14.4668 13.7503 13.2591 13.25 11.9999 13.25Z" fill="#2C3E50"/>
<path d="M11.9999 9.25C10.8508 9.25 9.71387 9.47621 8.65223 9.91602C7.59062 10.3558 6.6249 11 5.81239 11.8125C5.67177 11.9531 5.59277 12.1439 5.59277 12.3428C5.59277 12.5417 5.67177 12.7324 5.81239 12.873C5.95303 13.0137 6.14378 13.0927 6.34266 13.0927C6.54155 13.0927 6.73229 13.0137 6.87293 12.873C7.54616 12.1998 8.34482 11.6652 9.2245 11.3008C10.1041 10.9364 11.0478 10.75 11.9999 10.75C12.952 10.75 13.8956 10.9364 14.7753 11.3008C15.6549 11.6652 16.4536 12.1998 17.1268 12.873C17.2675 13.0137 17.4582 13.0927 17.6571 13.0927C17.856 13.0927 18.0467 13.0137 18.1874 12.873C18.328 12.7324 18.407 12.5417 18.407 12.3428C18.407 12.1439 18.328 11.9531 18.1874 11.8125C17.3749 11 16.4111 10.3558 15.3495 9.91602H15.3475C14.2859 9.47622 13.149 9.25 11.9999 9.25Z" fill="#2C3E50"/>
<path d="M12.0038 5.25391C8.73581 5.25399 5.47056 6.49755 2.98426 8.98438C2.84364 9.12502 2.76465 9.31576 2.76465 9.51465C2.76465 9.71353 2.84364 9.90427 2.98426 10.0449C3.12491 10.1855 3.31565 10.2645 3.51454 10.2645C3.71342 10.2645 3.90416 10.1855 4.04481 10.0449C8.4442 5.64459 15.5559 5.6438 19.9862 10.0469C20.1274 10.187 20.3184 10.2653 20.5173 10.2646C20.7162 10.2639 20.9066 10.1842 21.0468 10.043C21.1869 9.90186 21.2652 9.71083 21.2644 9.51194C21.2637 9.31306 21.184 9.12261 21.0429 8.98248C18.542 6.49696 15.2718 5.25383 12.0038 5.25391Z" fill="#2C3E50"/>
</g>
</g>
<defs>
<clipPath id="clip0_17718_535">
<rect width="24" height="24" fill="white"/>
</clipPath>
</defs>
</svg>
