<?xml version="1.0" encoding="UTF-8" standalone="no"?>
<svg
   width="24"
   height="24"
   viewBox="0 0 24 24"
   fill="none"
   version="1.1"
   id="svg7"
   sodipodi:docname="world-search_2px.svg"
   inkscape:version="1.3.2 (091e20e, 2023-11-25)"
   xmlns:inkscape="http://www.inkscape.org/namespaces/inkscape"
   xmlns:sodipodi="http://sodipodi.sourceforge.net/DTD/sodipodi-0.dtd"
   xmlns="http://www.w3.org/2000/svg"
   xmlns:svg="http://www.w3.org/2000/svg">
  <sodipodi:namedview
     id="namedview7"
     pagecolor="#505050"
     bordercolor="#eeeeee"
     borderopacity="1"
     inkscape:showpageshadow="0"
     inkscape:pageopacity="0"
     inkscape:pagecheckerboard="0"
     inkscape:deskcolor="#505050"
     inkscape:zoom="9.8333333"
     inkscape:cx="11.949153"
     inkscape:cy="12"
     inkscape:window-width="1504"
     inkscape:window-height="449"
     inkscape:window-x="0"
     inkscape:window-y="25"
     inkscape:window-maximized="0"
     inkscape:current-layer="svg7" />
  <g
     clip-path="url(#clip0_20119_331)"
     id="g7">
    <path
       style="color:#000000;fill:#2c3e50;stroke-linecap:round;stroke-linejoin:round;-inkscape-stroke:none"
       d="M 12.980469,2.0488281 C 12.006894,1.9529401 11.018676,1.9984867 10.048828,2.1914063 8.109095,2.577233 6.3281504,3.5312357 4.9296875,4.9296875 3.5312357,6.3281504 2.577233,8.109095 2.1914063,10.048828 c -0.3858392,1.939695 -0.186521,3.950117 0.5703125,5.777344 0.7568426,1.827137 2.0372196,3.389549 3.6816406,4.488281 C 8.0877974,21.413308 10.022324,22 12,22 a 1,1 0 0 0 1,-1 1,1 0 0 0 -1,-1 C 10.417679,20 8.8703265,19.531487 7.5546875,18.652344 6.2395009,17.773592 5.2149943,16.523686 4.609375,15.0625 v -0.002 C 4.0044344,13.599048 3.8457211,11.990729 4.1542969,10.439453 4.4629895,8.8875097 5.2248644,7.4626445 6.34375,6.34375 7.4626445,5.2248644 8.8875097,4.4629895 10.439453,4.1542969 11.990729,3.8457211 13.599048,4.0044344 15.060547,4.609375 16.522406,5.214911 17.773278,6.2390315 18.652344,7.5546875 19.531487,8.8703265 20,10.417679 20,12 a 1,1 0 0 0 1,1 1,1 0 0 0 1,-1 C 22,10.022324 21.413308,8.0877974 20.314453,6.4433594 19.215721,4.7989384 17.653309,3.5185614 15.826172,2.7617188 14.912559,2.383302 13.954044,2.1447161 12.980469,2.0488281 Z"
       id="path1" />
    <path
       style="color:#000000;fill:#2c3e50;stroke-linecap:round;stroke-linejoin:round;-inkscape-stroke:none"
       d="m 3.5996094,8 a 1,1 0 0 0 -1,1 1,1 0 0 0 1,1 H 20.400391 a 1,1 0 0 0 1,-1 1,1 0 0 0 -1,-1 z"
       id="path2" />
    <path
       style="color:#000000;fill:#2c3e50;stroke-linecap:round;stroke-linejoin:round;-inkscape-stroke:none"
       d="m 3.5996094,14 a 1,1 0 0 0 -1,1 1,1 0 0 0 1,1 H 11.5 a 1,1 0 0 0 1,-1 1,1 0 0 0 -1,-1 z"
       id="path3" />
    <path
       style="color:#000000;fill:#2c3e50;stroke-linecap:round;stroke-linejoin:round;-inkscape-stroke:none"
       d="M 11.273438,2.0253906 A 1,1 0 0 0 10.652344,2.4707031 C 8.868635,5.3290524 7.921875,8.6307597 7.921875,12 c 0,3.369212 0.9467565,6.670953 2.730469,9.529297 a 1,1 0 0 0 1.376953,0.318359 1,1 0 0 0 0.318359,-1.376953 C 10.762072,17.929853 9.921875,14.994982 9.921875,12 c 0,-2.9950133 0.840193,-5.9298378 2.425781,-8.4707031 A 1,1 0 0 0 12.029297,2.1523438 1,1 0 0 0 11.273438,2.0253906 Z"
       id="path4" />
    <path
       style="color:#000000;fill:#2c3e50;stroke-linecap:round;stroke-linejoin:round;-inkscape-stroke:none"
       d="m 12.724609,2.0253906 a 1,1 0 0 0 -0.753906,0.1269532 1,1 0 0 0 -0.318359,1.3769531 c 1.522011,2.4373075 2.358254,5.240493 2.421875,8.1132811 a 1,1 0 0 0 1.021484,0.976563 1,1 0 0 0 0.978516,-1.021485 C 16.00264,8.3655306 15.060042,5.2128704 13.347656,2.4707031 A 1,1 0 0 0 12.724609,2.0253906 Z"
       id="path5" />
    <path
       style="color:#000000;fill:#2c3e50;stroke-linecap:round;stroke-linejoin:round;-inkscape-stroke:none"
       d="m 18,14 c -1.060472,0 -2.078254,0.422004 -2.828125,1.171875 C 14.422004,15.921746 14,16.939528 14,18 c 0,1.060472 0.422004,2.078254 1.171875,2.828125 C 15.921746,21.577996 16.939528,22 18,22 19.060472,22 20.078254,21.577996 20.828125,20.828125 21.577996,20.078254 22,19.060472 22,18 22,16.939528 21.577996,15.921746 20.828125,15.171875 20.078254,14.422004 19.060472,14 18,14 Z m 0,2 c 0.530726,0 1.038734,0.210609 1.414062,0.585937 C 19.789391,16.961266 20,17.469274 20,18 20,18.530726 19.789391,19.038734 19.414062,19.414062 19.038734,19.789391 18.530726,20 18,20 17.469274,20 16.961266,19.789391 16.585937,19.414062 16.210609,19.038734 16,18.530726 16,18 16,17.469274 16.210609,16.961266 16.585937,16.585937 16.961266,16.210609 17.469274,16 18,16 Z"
       id="path6" />
    <path
       style="color:#000000;fill:#2c3e50;stroke-linecap:round;stroke-linejoin:round;-inkscape-stroke:none"
       d="m 19.492187,19.492187 a 1,1 0 0 0 0,1.414063 l 1.800782,1.800781 a 1,1 0 0 0 1.414062,0 1,1 0 0 0 0,-1.414062 L 20.90625,19.492187 a 1,1 0 0 0 -1.414063,0 z"
       id="path7" />
  </g>
  <defs
     id="defs7">
    <clipPath
       id="clip0_20119_331">
      <rect
         width="24"
         height="24"
         fill="white"
         id="rect7" />
    </clipPath>
  </defs>
</svg>
