<svg width="24" height="24" viewBox="0 0 24 24" fill="none" xmlns="http://www.w3.org/2000/svg">
<g clip-path="url(#clip0_19819_520)">
<mask id="mask0_19819_520" style="mask-type:luminance" maskUnits="userSpaceOnUse" x="0" y="0" width="24" height="24">
<path d="M24 0H0V24H24V0Z" fill="white"/>
</mask>
<g mask="url(#mask0_19819_520)">
<path d="M12.0099 2.01123C12.7877 2.01127 13.5389 2.2946 14.1229 2.80823L14.2769 2.95323L14.9749 3.65123C15.1665 3.84154 15.4166 3.96168 15.6849 3.99223L15.8199 4.00023H16.8199C17.6371 4.00018 18.4234 4.3128 19.0175 4.87397C19.6116 5.43514 19.9684 6.20233 20.0149 7.01823L20.0199 7.20023V8.20023C20.0199 8.47023 20.1119 8.73323 20.2779 8.94323L20.3679 9.04323L21.0649 9.74123C21.6426 10.3156 21.9795 11.0888 22.0068 11.9031C22.0341 12.7173 21.7498 13.5113 21.2119 14.1232L21.0669 14.2772L20.3689 14.9752C20.1786 15.1667 20.0585 15.4169 20.0279 15.6852L20.0199 15.8202V16.8202C20.02 17.6374 19.7074 18.4237 19.1462 19.0178C18.585 19.6118 17.8178 19.9687 17.0019 20.0152L16.8199 20.0202H15.8199C15.5503 20.0203 15.2886 20.1112 15.0769 20.2782L14.9769 20.3682L14.2789 21.0652C13.7045 21.6429 12.9313 21.9798 12.1171 22.0071C11.3028 22.0344 10.5088 21.7501 9.89692 21.2122L9.74292 21.0672L9.04492 20.3692C8.85336 20.1789 8.60322 20.0587 8.33492 20.0282L8.19992 20.0202H7.19992C6.38271 20.0202 5.59644 19.7076 5.00236 19.1464C4.40827 18.5853 4.0514 17.8181 4.00492 17.0022L3.99992 16.8202V15.8202C3.99983 15.5506 3.90895 15.2888 3.74192 15.0772L3.65192 14.9772L2.95492 14.2792C2.37721 13.7047 2.04035 12.9316 2.01303 12.1173C1.98572 11.3031 2.27 10.5091 2.80792 9.89723L2.95292 9.74323L3.65092 9.04523C3.84124 8.85367 3.96138 8.60352 3.99192 8.33523L3.99992 8.20023V7.20023L4.00492 7.01823C4.04958 6.23367 4.38135 5.49298 4.93701 4.93731C5.49267 4.38165 6.23337 4.04988 7.01792 4.00523L7.19992 4.00023H8.19992C8.46954 4.00014 8.73127 3.90925 8.94292 3.74223L9.04292 3.65223L9.74092 2.95523C10.0383 2.65612 10.3918 2.41873 10.7812 2.25673C11.1706 2.09472 11.5882 2.01129 12.0099 2.01123ZM15.7069 9.29323C15.5194 9.10576 15.2651 9.00044 14.9999 9.00044C14.7348 9.00044 14.4805 9.10576 14.2929 9.29323L10.9999 12.5852L9.70692 11.2932L9.61292 11.2102C9.41193 11.0548 9.15932 10.9817 8.9064 11.0058C8.65347 11.0299 8.41921 11.1493 8.25117 11.3399C8.08314 11.5305 7.99394 11.7779 8.0017 12.0318C8.00945 12.2858 8.11358 12.5272 8.29292 12.7072L10.2929 14.7072L10.3869 14.7902C10.5793 14.9394 10.8196 15.0134 11.0626 14.9981C11.3056 14.9828 11.5347 14.8794 11.7069 14.7072L15.7069 10.7072L15.7899 10.6132C15.9392 10.4208 16.0131 10.1805 15.9978 9.93755C15.9825 9.69452 15.8791 9.46542 15.7069 9.29323Z" fill="black"/>
</g>
</g>
<defs>
<clipPath id="clip0_19819_520">
<rect width="24" height="24" fill="white"/>
</clipPath>
</defs>
</svg>
