<svg width="24" height="24" viewBox="0 0 24 24" fill="none" xmlns="http://www.w3.org/2000/svg">
<g clip-path="url(#clip0_19819_1388)">
<mask id="mask0_19819_1388" style="mask-type:luminance" maskUnits="userSpaceOnUse" x="0" y="0" width="24" height="24">
<path d="M24 0H0V24H24V0Z" fill="white"/>
</mask>
<g mask="url(#mask0_19819_1388)">
<path d="M14.647 4.08125C14.6738 4.19198 14.7264 4.29481 14.8005 4.38139C14.8745 4.46797 14.968 4.53585 15.0732 4.5795C15.1785 4.62316 15.2925 4.64136 15.4061 4.63263C15.5197 4.62389 15.6297 4.58847 15.727 4.52925C18.166 3.04425 20.957 5.83425 19.472 8.27325C19.4128 8.37051 19.3773 8.48038 19.3685 8.59392C19.3597 8.70746 19.3778 8.82147 19.4214 8.9267C19.465 9.03192 19.5327 9.12539 19.6192 9.1995C19.7056 9.27362 19.8084 9.32629 19.919 9.35325C22.694 10.0262 22.694 13.9732 19.919 14.6472C19.8083 14.674 19.7054 14.7266 19.6189 14.8007C19.5323 14.8747 19.4644 14.9682 19.4207 15.0734C19.3771 15.1787 19.3589 15.2927 19.3676 15.4063C19.3764 15.5199 19.4118 15.6299 19.471 15.7272C20.956 18.1662 18.166 20.9572 15.727 19.4722C15.6297 19.413 15.5199 19.3775 15.4063 19.3687C15.2928 19.3599 15.1788 19.378 15.0736 19.4216C14.9683 19.4652 14.8749 19.5329 14.8007 19.6194C14.7266 19.7058 14.674 19.8086 14.647 19.9192C13.974 22.6942 10.027 22.6942 9.35301 19.9192C9.32618 19.8085 9.27359 19.7056 9.19953 19.6191C9.12546 19.5325 9.03201 19.4646 8.92677 19.4209C8.82153 19.3773 8.70747 19.3591 8.59387 19.3678C8.48027 19.3766 8.37034 19.412 8.27301 19.4712C5.83401 20.9562 3.04301 18.1662 4.52801 15.7272C4.58724 15.6299 4.62269 15.5201 4.63148 15.4065C4.64028 15.293 4.62216 15.179 4.57861 15.0738C4.53506 14.9685 4.4673 14.8751 4.38084 14.8009C4.29438 14.7268 4.19165 14.6742 4.08101 14.6472C1.30601 13.9742 1.30601 10.0272 4.08101 9.35325C4.19174 9.32642 4.29457 9.27383 4.38115 9.19977C4.46773 9.1257 4.53561 9.03225 4.57926 8.92701C4.62292 8.82177 4.64112 8.70771 4.63239 8.59411C4.62365 8.48051 4.58823 8.37058 4.52901 8.27325C3.04401 5.83425 5.83401 3.04325 8.27301 4.52825C8.37017 4.58793 8.48009 4.62374 8.59376 4.63276C8.70744 4.64178 8.82163 4.62375 8.92699 4.58014C9.03235 4.53653 9.12589 4.46859 9.19993 4.38187C9.27398 4.29516 9.32644 4.19214 9.35301 4.08125C10.026 1.30625 13.973 1.30625 14.647 4.08125ZM12 9.00025C11.2044 9.00025 10.4413 9.31632 9.87869 9.87893C9.31608 10.4415 9.00001 11.2046 9.00001 12.0002C9.00001 12.7959 9.31608 13.5589 9.87869 14.1215C10.4413 14.6841 11.2044 15.0002 12 15.0002C12.7957 15.0002 13.5587 14.6841 14.1213 14.1215C14.6839 13.5589 15 12.7959 15 12.0002C15 11.2046 14.6839 10.4415 14.1213 9.87893C13.5587 9.31632 12.7957 9.00025 12 9.00025Z" fill="black"/>
</g>
</g>
<defs>
<clipPath id="clip0_19819_1388">
<rect width="24" height="24" fill="white"/>
</clipPath>
</defs>
</svg>
