<svg width="24" height="24" viewBox="0 0 24 24" fill="none" xmlns="http://www.w3.org/2000/svg">
<g clip-path="url(#clip0_19819_1548)">
<mask id="mask0_19819_1548" style="mask-type:luminance" maskUnits="userSpaceOnUse" x="0" y="0" width="24" height="24">
<path d="M24 0H0V24H24V0Z" fill="white"/>
</mask>
<g mask="url(#mask0_19819_1548)">
<path d="M13 21.0082C13.765 21.0083 14.5012 20.716 15.0579 20.1913C15.6147 19.6665 15.9499 18.9489 15.995 18.1852L16 18.0082V14.0082H18C18.7351 14.0083 19.4447 13.7385 19.994 13.25C20.5434 12.7615 20.8942 12.0883 20.98 11.3582L20.995 11.1852L21 11.0082L20.98 10.8122L19.974 5.78016C19.593 4.15516 18.472 2.98416 17.164 3.00016L17 3.00816H9C8.75491 3.00822 8.51838 3.09828 8.33533 3.26125C8.15227 3.42421 8.03543 3.64873 8.007 3.89216L8 4.00816L8.001 13.5442C8.001 13.7197 8.04721 13.8922 8.13498 14.0442C8.22275 14.1962 8.34898 14.3224 8.501 14.4102C8.92729 14.6564 9.2864 15.0038 9.54661 15.4216C9.80682 15.8395 9.96013 16.315 9.993 16.8062L10 17.0082V18.0082C10 18.8039 10.3161 19.5669 10.8787 20.1295C11.4413 20.6921 12.2044 21.0082 13 21.0082Z" fill="black"/>
<path d="M5 14.0083C5.24493 14.0083 5.48134 13.9183 5.66437 13.7556C5.84741 13.5928 5.96434 13.3685 5.993 13.1253L6 13.0083V4.0083C5.99997 3.76336 5.91004 3.52696 5.74728 3.34392C5.58453 3.16089 5.36025 3.04395 5.117 3.0153L5 3.0083H4C3.4951 3.00817 3.00884 3.19902 2.63881 3.54253C2.26878 3.88603 2.04236 4.35678 2.005 4.8603L2 5.0103V12.0103C2.00009 12.5147 2.19077 13.0004 2.53384 13.3702C2.8769 13.74 3.34702 13.9665 3.85 14.0043L4 14.0093L5 14.0083Z" fill="black"/>
</g>
</g>
<defs>
<clipPath id="clip0_19819_1548">
<rect width="24" height="24" fill="white"/>
</clipPath>
</defs>
</svg>
