<svg width="24" height="24" viewBox="0 0 24 24" fill="none" xmlns="http://www.w3.org/2000/svg">
<g clip-path="url(#clip0_19819_1669)">
<mask id="mask0_19819_1669" style="mask-type:luminance" maskUnits="userSpaceOnUse" x="4" y="0" width="24" height="24">
<path d="M28 0H4V24H28V0Z" fill="white"/>
</mask>
<g mask="url(#mask0_19819_1669)">
<path d="M16 2C16.9889 2 17.9556 2.29324 18.7779 2.84265C19.6001 3.39206 20.241 4.17295 20.6194 5.08658C20.9978 6.00021 21.0969 7.00555 20.9039 7.97545C20.711 8.94536 20.2348 9.83627 19.5355 10.5355C18.8363 11.2348 17.9454 11.711 16.9755 11.9039C16.0055 12.0969 15.0002 11.9978 14.0866 11.6194C13.173 11.241 12.3921 10.6001 11.8426 9.77785C11.2932 8.95561 11 7.98891 11 7L11.005 6.783C11.0609 5.49575 11.6116 4.27978 12.5422 3.38866C13.4728 2.49754 14.7115 2.00007 16 2Z" fill="black"/>
<path d="M18 14C19.3261 14 20.5979 14.5268 21.5355 15.4645C22.4732 16.4021 23 17.6739 23 19V20C23 20.5304 22.7893 21.0391 22.4142 21.4142C22.0391 21.7893 21.5304 22 21 22H11C10.4696 22 9.96086 21.7893 9.58579 21.4142C9.21071 21.0391 9 20.5304 9 20V19C9 17.6739 9.52678 16.4021 10.4645 15.4645C11.4021 14.5268 12.6739 14 14 14H18Z" fill="black"/>
</g>
</g>
<defs>
<clipPath id="clip0_19819_1669">
<rect width="24" height="24" fill="white"/>
</clipPath>
</defs>
</svg>
